<svg width="41" height="12" viewBox="0 0 41 12" fill="none" xmlns="http://www.w3.org/2000/svg">
<path d="M0.933105 7.73242H5.19873V6.7041H0.933105V7.73242ZM9.77791 11.8267H10.5396V10.7603C12.0377 10.6396 13.2818 9.78271 13.2818 8.25928V8.24658C13.2818 6.91992 12.3678 6.24707 10.7364 5.85352L10.5396 5.80908V2.89551C11.3966 3.00342 12.0059 3.53027 12.0885 4.38086V4.39355L13.1929 4.38721V4.38086C13.1422 2.98438 12.0059 2.03223 10.5396 1.89893V0.826172H9.77791V1.89893C8.27352 2.03857 7.20076 2.96533 7.20076 4.32373V4.33643C7.20076 5.58057 8.05135 6.28516 9.63191 6.66602L9.77791 6.7041V9.75732C8.67342 9.63672 8.18465 9.0083 8.07039 8.22119V8.2085L6.9659 8.21484V8.22119C7.01668 9.69385 8.26717 10.6143 9.77791 10.7539V11.8267ZM8.30525 4.26025V4.24756C8.30525 3.63818 8.81307 3.02881 9.77791 2.89551V5.625C8.68611 5.3584 8.30525 4.87598 8.30525 4.26025ZM10.5777 6.89453C11.8346 7.19922 12.1773 7.64355 12.1773 8.33545V8.34814C12.1773 9.07812 11.7203 9.6748 10.5396 9.77002V6.88818L10.5777 6.89453ZM19.3654 10.9062H20.4826V9.0083H21.7838V7.98633H20.4826V1.74658H18.8258C17.5436 3.65723 16.1408 5.8916 14.903 7.96729V9.0083H19.3654V10.9062ZM16.071 7.99268V7.9165C17.0675 6.23438 18.2672 4.34277 19.2956 2.80664H19.3717V7.99268H16.071ZM23.9319 10.9697C24.3889 10.9697 24.7571 10.5952 24.7571 10.1445C24.7571 9.6875 24.3889 9.31934 23.9319 9.31934C23.4812 9.31934 23.1067 9.6875 23.1067 10.1445C23.1067 10.5952 23.4812 10.9697 23.9319 10.9697ZM26.5496 10.9062H32.4783V9.87793H28.1365V9.77637L30.2186 7.62451C31.8753 5.91699 32.326 5.15527 32.326 4.10791V4.09521C32.326 2.61621 31.1009 1.53076 29.5013 1.53076C27.7493 1.53076 26.4925 2.69873 26.4862 4.32373L26.4988 4.33008L27.5906 4.33643L27.597 4.32373C27.597 3.24463 28.327 2.52734 29.4251 2.52734C30.5042 2.52734 31.158 3.25098 31.158 4.21582V4.22852C31.158 5.02832 30.8153 5.50439 29.6473 6.76758L26.5496 10.1191V10.9062ZM37.3812 11.1221C39.4062 11.1221 40.6249 9.2749 40.6249 6.32959V6.31689C40.6249 3.37158 39.4062 1.53076 37.3812 1.53076C35.3563 1.53076 34.1503 3.37158 34.1503 6.31689V6.32959C34.1503 9.2749 35.3563 11.1221 37.3812 11.1221ZM37.3812 10.1255C36.0673 10.1255 35.2992 8.66553 35.2992 6.32959V6.31689C35.2992 3.98096 36.0673 2.53369 37.3812 2.53369C38.6952 2.53369 39.476 3.98096 39.476 6.31689V6.32959C39.476 8.66553 38.6952 10.1255 37.3812 10.1255Z" fill="url(#paint0_linear_3_1378)"/>
<defs>
<linearGradient id="paint0_linear_3_1378" x1="20.3144" y1="-11.2122" x2="7.70544" y2="18.2086" gradientUnits="userSpaceOnUse">
<stop stop-color="#CDDDF4"/>
<stop offset="1" stop-color="#CDBAFA"/>
</linearGradient>
</defs>
</svg>
