<svg width="47" height="16" viewBox="0 0 47 16" fill="none" xmlns="http://www.w3.org/2000/svg">
<path d="M3.87256 15.1099H4.86865V13.7153C6.82764 13.5576 8.45459 12.437 8.45459 10.4448V10.4282C8.45459 8.69336 7.25928 7.81348 5.12598 7.29883L4.86865 7.24072V3.43066C5.98926 3.57178 6.78613 4.26074 6.89404 5.37305V5.38965L8.33838 5.38135V5.37305C8.27197 3.54688 6.78613 2.30176 4.86865 2.12744V0.724609H3.87256V2.12744C1.90527 2.31006 0.502441 3.52197 0.502441 5.29834V5.31494C0.502441 6.94189 1.61475 7.86328 3.68164 8.36133L3.87256 8.41113V12.4038C2.42822 12.2461 1.78906 11.4243 1.63965 10.395V10.3784L0.195312 10.3867V10.395C0.261719 12.3208 1.89697 13.5244 3.87256 13.707V15.1099ZM1.94678 5.21533V5.19873C1.94678 4.40186 2.61084 3.60498 3.87256 3.43066V7C2.44482 6.65137 1.94678 6.02051 1.94678 5.21533ZM4.91846 8.66016C6.56201 9.05859 7.01025 9.63965 7.01025 10.5444V10.561C7.01025 11.5156 6.4126 12.2959 4.86865 12.4204V8.65186L4.91846 8.66016ZM13.5646 13.9062H15.0588V1.92822H13.5729L10.3854 4.21924V5.79639L13.4318 3.58838H13.5646V13.9062ZM18.1102 13.9062H25.8631V12.5615H20.1854V12.4287L22.908 9.61475C25.0745 7.38184 25.6639 6.38574 25.6639 5.01611V4.99951C25.6639 3.06543 24.0618 1.646 21.97 1.646C19.679 1.646 18.0355 3.17334 18.0272 5.29834L18.0438 5.30664L19.4715 5.31494L19.4798 5.29834C19.4798 3.88721 20.4344 2.94922 21.8704 2.94922C23.2816 2.94922 24.1365 3.89551 24.1365 5.15723V5.17383C24.1365 6.21973 23.6883 6.84229 22.161 8.49414L18.1102 12.877V13.9062ZM31.9692 14.1885C34.6172 14.1885 36.2109 11.7729 36.2109 7.92139V7.90479C36.2109 4.05322 34.6172 1.646 31.9692 1.646C29.3213 1.646 27.7441 4.05322 27.7441 7.90479V7.92139C27.7441 11.7729 29.3213 14.1885 31.9692 14.1885ZM31.9692 12.8853C30.251 12.8853 29.2466 10.9761 29.2466 7.92139V7.90479C29.2466 4.8501 30.251 2.95752 31.9692 2.95752C33.6875 2.95752 34.7085 4.8501 34.7085 7.90479V7.92139C34.7085 10.9761 33.6875 12.8853 31.9692 12.8853ZM42.2672 14.1885C44.9152 14.1885 46.5089 11.7729 46.5089 7.92139V7.90479C46.5089 4.05322 44.9152 1.646 42.2672 1.646C39.6193 1.646 38.0421 4.05322 38.0421 7.90479V7.92139C38.0421 11.7729 39.6193 14.1885 42.2672 14.1885ZM42.2672 12.8853C40.549 12.8853 39.5446 10.9761 39.5446 7.92139V7.90479C39.5446 4.8501 40.549 2.95752 42.2672 2.95752C43.9855 2.95752 45.0065 4.8501 45.0065 7.90479V7.92139C45.0065 10.9761 43.9855 12.8853 42.2672 12.8853Z" fill="url(#paint0_linear_3_1191)"/>
<defs>
<linearGradient id="paint0_linear_3_1191" x1="22.7001" y1="-13.0163" x2="6.79597" y2="22.4065" gradientUnits="userSpaceOnUse">
<stop stop-color="#CDDDF4"/>
<stop offset="1" stop-color="#CDBAFA"/>
</linearGradient>
</defs>
</svg>
