<svg width="153" height="20" viewBox="0 0 153 20" fill="none" xmlns="http://www.w3.org/2000/svg">
<path d="M3.67383 19.666H5.24219C3.69531 17.8721 2.52441 13.6182 2.52441 10.0303C2.52441 6.44238 3.69531 2.19922 5.24219 0.405273H3.67383C1.5791 3.06934 0.623047 6.20605 0.623047 10.0303C0.623047 13.8545 1.5791 17.0127 3.67383 19.666ZM10.8818 15.9062H12.751V0.405273H10.8604L6.73535 3.37012V5.31445L10.8389 2.45703H10.8818V15.9062ZM16.6826 15.9062H26.9092V14.1875H19.3359V14.1445L23.0205 10.3633C25.8672 7.45215 26.6514 6.17383 26.6514 4.47656V4.45508C26.6514 2.02734 24.5996 0.147461 21.7959 0.147461C18.9062 0.147461 16.5859 2.13477 16.5859 4.82031V4.88477H18.4551V4.83105C18.4551 3.16602 19.8945 1.83398 21.8281 1.83398C23.5146 1.83398 24.707 2.97266 24.7178 4.55176V4.57324C24.7178 5.8623 24.2344 6.7002 22.1396 8.88086L16.6826 14.5742V15.9062ZM34.3643 16.1641C37.4688 16.1641 39.7461 14.252 39.7461 11.6631V11.6416C39.7461 9.43945 38.21 8.03223 35.9541 7.83887V7.7959C37.8877 7.3877 39.2412 6.07715 39.2412 4.16504V4.14355C39.2412 1.79102 37.2969 0.147461 34.3428 0.147461C31.4424 0.147461 29.4443 1.83398 29.1973 4.3584L29.1865 4.46582H31.0449L31.0557 4.3584C31.2168 2.79004 32.5166 1.82324 34.3428 1.82324C36.2334 1.82324 37.2969 2.75781 37.2969 4.37988V4.40137C37.2969 5.94824 36.0078 7.08691 34.1602 7.08691H32.3018V8.71973H34.2461C36.416 8.71973 37.7803 9.7832 37.7803 11.6846V11.7061C37.7803 13.3496 36.3945 14.4883 34.3643 14.4883C32.3018 14.4883 30.9053 13.4355 30.7441 11.9102L30.7334 11.8027H28.875L28.8857 11.9316C29.0898 14.3809 31.1631 16.1641 34.3643 16.1641ZM42.9043 19.666C44.999 17.0127 45.9551 13.8545 45.9551 10.0303C45.9551 6.20605 44.999 3.06934 42.9043 0.405273H41.3359C42.8828 2.19922 44.0537 6.44238 44.0537 10.0303C44.0537 13.6182 42.8828 17.8721 41.3359 19.666H42.9043ZM61.1338 15.9062H63.0029V12.6836H65.1943V10.9863H63.0029V0.405273H60.1455L53.3457 10.9326V12.6836H61.1338V15.9062ZM55.2578 10.9863V10.9434L61.0693 2.05957H61.1338V10.9863H55.2578ZM71.0166 15.9062H72.8857V0.405273H70.9951L66.8701 3.37012V5.31445L70.9736 2.45703H71.0166V15.9062ZM76.8174 15.9062H87.0439V14.1875H79.4707V14.1445L83.1553 10.3633C86.002 7.45215 86.7861 6.17383 86.7861 4.47656V4.45508C86.7861 2.02734 84.7344 0.147461 81.9307 0.147461C79.041 0.147461 76.7207 2.13477 76.7207 4.82031V4.88477H78.5898V4.83105C78.5898 3.16602 80.0293 1.83398 81.9629 1.83398C83.6494 1.83398 84.8418 2.97266 84.8525 4.55176V4.57324C84.8525 5.8623 84.3691 6.7002 82.2744 8.88086L76.8174 14.5742V15.9062ZM89.2998 10.4922H96.1748V8.75195H89.2998V10.4922ZM103.931 16.1641C107.035 16.1641 109.312 14.252 109.312 11.6631V11.6416C109.312 9.43945 107.776 8.03223 105.521 7.83887V7.7959C107.454 7.3877 108.808 6.07715 108.808 4.16504V4.14355C108.808 1.79102 106.863 0.147461 103.909 0.147461C101.009 0.147461 99.0107 1.83398 98.7637 4.3584L98.7529 4.46582H100.611L100.622 4.3584C100.783 2.79004 102.083 1.82324 103.909 1.82324C105.8 1.82324 106.863 2.75781 106.863 4.37988V4.40137C106.863 5.94824 105.574 7.08691 103.727 7.08691H101.868V8.71973H103.812C105.982 8.71973 107.347 9.7832 107.347 11.6846V11.7061C107.347 13.3496 105.961 14.4883 103.931 14.4883C101.868 14.4883 100.472 13.4355 100.311 11.9102L100.3 11.8027H98.4414L98.4521 11.9316C98.6562 14.3809 100.729 16.1641 103.931 16.1641ZM111.729 15.9062H121.956V14.1875H114.383V14.1445L118.067 10.3633C120.914 7.45215 121.698 6.17383 121.698 4.47656V4.45508C121.698 2.02734 119.646 0.147461 116.843 0.147461C113.953 0.147461 111.633 2.13477 111.633 4.82031V4.88477H113.502V4.83105C113.502 3.16602 114.941 1.83398 116.875 1.83398C118.562 1.83398 119.754 2.97266 119.765 4.55176V4.57324C119.765 5.8623 119.281 6.7002 117.187 8.88086L111.729 14.5742V15.9062ZM124.212 10.4922H131.087V8.75195H124.212V10.4922ZM140.991 15.9062H142.86V12.6836H145.052V10.9863H142.86V0.405273H140.003L133.203 10.9326V12.6836H140.991V15.9062ZM135.115 10.9863V10.9434L140.927 2.05957H140.991V10.9863H135.115ZM150.874 15.9062H152.743V0.405273H150.853L146.728 3.37012V5.31445L150.831 2.45703H150.874V15.9062Z" fill="url(#paint0_linear_3_131)"/>
<defs>
<linearGradient id="paint0_linear_3_131" x1="74.3554" y1="-18.7225" x2="65.264" y2="33.8778" gradientUnits="userSpaceOnUse">
<stop stop-color="#CDDDF4"/>
<stop offset="1" stop-color="#CDBAFA"/>
</linearGradient>
</defs>
</svg>
