<svg width="43" height="12" viewBox="0 0 43 12" fill="none" xmlns="http://www.w3.org/2000/svg">
<path d="M3.72607 11.8267H4.48779V10.7603C5.98584 10.6396 7.22998 9.78271 7.22998 8.25928V8.24658C7.22998 6.91992 6.31592 6.24707 4.68457 5.85352L4.48779 5.80908V2.89551C5.34473 3.00342 5.9541 3.53027 6.03662 4.38086V4.39355L7.14111 4.38721V4.38086C7.09033 2.98438 5.9541 2.03223 4.48779 1.89893V0.826172H3.72607V1.89893C2.22168 2.03857 1.14893 2.96533 1.14893 4.32373V4.33643C1.14893 5.58057 1.99951 6.28516 3.58008 6.66602L3.72607 6.7041V9.75732C2.62158 9.63672 2.13281 9.0083 2.01855 8.22119V8.2085L0.914062 8.21484V8.22119C0.964844 9.69385 2.21533 10.6143 3.72607 10.7539V11.8267ZM2.25342 4.26025V4.24756C2.25342 3.63818 2.76123 3.02881 3.72607 2.89551V5.625C2.63428 5.3584 2.25342 4.87598 2.25342 4.26025ZM4.52588 6.89453C5.78271 7.19922 6.12549 7.64355 6.12549 8.33545V8.34814C6.12549 9.07812 5.66846 9.6748 4.48779 9.77002V6.88818L4.52588 6.89453ZM13.3136 10.9062H14.4307V9.0083H15.732V7.98633H14.4307V1.74658H12.774C11.4918 3.65723 10.0889 5.8916 8.85115 7.96729V9.0083H13.3136V10.9062ZM10.0191 7.99268V7.9165C11.0157 6.23438 12.2154 4.34277 13.2437 2.80664H13.3199V7.99268H10.0191ZM17.4167 10.9062H23.3454V9.87793H19.0036V9.77637L21.0856 7.62451C22.7423 5.91699 23.193 5.15527 23.193 4.10791V4.09521C23.193 2.61621 21.9679 1.53076 20.3683 1.53076C18.6164 1.53076 17.3595 2.69873 17.3532 4.32373L17.3659 4.33008L18.4577 4.33643L18.464 4.32373C18.464 3.24463 19.194 2.52734 20.2921 2.52734C21.3713 2.52734 22.0251 3.25098 22.0251 4.21582V4.22852C22.0251 5.02832 21.6823 5.50439 20.5143 6.76758L17.4167 10.1191V10.9062ZM25.8996 10.9697C26.3567 10.9697 26.7248 10.5952 26.7248 10.1445C26.7248 9.6875 26.3567 9.31934 25.8996 9.31934C25.449 9.31934 25.0745 9.6875 25.0745 10.1445C25.0745 10.5952 25.449 10.9697 25.8996 10.9697ZM31.3294 11.1221C33.3543 11.1221 34.5731 9.2749 34.5731 6.32959V6.31689C34.5731 3.37158 33.3543 1.53076 31.3294 1.53076C29.3045 1.53076 28.0985 3.37158 28.0985 6.31689V6.32959C28.0985 9.2749 29.3045 11.1221 31.3294 11.1221ZM31.3294 10.1255C30.0154 10.1255 29.2474 8.66553 29.2474 6.32959V6.31689C29.2474 3.98096 30.0154 2.53369 31.3294 2.53369C32.6434 2.53369 33.4241 3.98096 33.4241 6.31689V6.32959C33.4241 8.66553 32.6434 10.1255 31.3294 10.1255ZM39.4379 11.1221C41.4628 11.1221 42.6815 9.2749 42.6815 6.32959V6.31689C42.6815 3.37158 41.4628 1.53076 39.4379 1.53076C37.413 1.53076 36.2069 3.37158 36.2069 6.31689V6.32959C36.2069 9.2749 37.413 11.1221 39.4379 11.1221ZM39.4379 10.1255C38.1239 10.1255 37.3559 8.66553 37.3559 6.32959V6.31689C37.3559 3.98096 38.1239 2.53369 39.4379 2.53369C40.7519 2.53369 41.5326 3.98096 41.5326 6.31689V6.32959C41.5326 8.66553 40.7519 10.1255 39.4379 10.1255Z" fill="url(#paint0_linear_3_1376)"/>
<defs>
<linearGradient id="paint0_linear_3_1376" x1="21.2817" y1="-11.2122" x2="9.07768" y2="18.6198" gradientUnits="userSpaceOnUse">
<stop stop-color="#CDDDF4"/>
<stop offset="1" stop-color="#CDBAFA"/>
</linearGradient>
</defs>
</svg>
