<svg width="201" height="35" viewBox="0 0 201 35" fill="none" xmlns="http://www.w3.org/2000/svg">
<path d="M0.505371 11.3125H1.88965L2.95166 8.2876H7.15576L8.21777 11.3125H9.60205L5.70557 0.743652H4.40186L0.505371 11.3125ZM4.99512 2.4502H5.1123L6.76758 7.16699H3.33984L4.99512 2.4502ZM11.1272 11.3125H12.4016V0.282227H11.1272V11.3125ZM17.8305 11.4517C19.6909 11.4517 20.8188 10.397 21.0898 9.32764L21.1045 9.26904H19.8301L19.8008 9.33496C19.5884 9.81104 18.9292 10.3164 17.8598 10.3164C16.4536 10.3164 15.5527 9.36426 15.5161 7.73096H21.1997V7.23291C21.1997 4.87451 19.896 3.27783 17.75 3.27783C15.604 3.27783 14.2124 4.94775 14.2124 7.38672V7.39404C14.2124 9.86963 15.5747 11.4517 17.8305 11.4517ZM17.7427 4.41309C18.9072 4.41309 19.7715 5.15283 19.9033 6.71289H15.5381C15.6772 5.21143 16.5708 4.41309 17.7427 4.41309ZM22.0144 11.3125H23.4426L25.3176 8.33154H25.4348L27.3025 11.3125H28.7966L26.0793 7.31348L28.76 3.41699H27.3318L25.4787 6.354H25.3615L23.4865 3.41699H21.9851L24.717 7.36475L22.0144 11.3125ZM32.4384 11.4517C33.5005 11.4517 34.3281 10.9902 34.8261 10.1479H34.9433V11.3125H36.2177V5.90723C36.2177 4.2666 35.1411 3.27783 33.2148 3.27783C31.5302 3.27783 30.3291 4.11279 30.124 5.35059L30.1167 5.39453H31.3911L31.3984 5.37256C31.6035 4.75732 32.226 4.40576 33.1709 4.40576C34.3501 4.40576 34.9433 4.93311 34.9433 5.90723V6.625L32.6801 6.76416C30.8418 6.87402 29.8017 7.68701 29.8017 9.09326V9.10791C29.8017 10.5435 30.937 11.4517 32.4384 11.4517ZM31.1054 9.07861V9.06396C31.1054 8.28027 31.6328 7.85547 32.8339 7.78223L34.9433 7.65039V8.36816C34.9433 9.49609 33.9985 10.3457 32.7021 10.3457C31.7866 10.3457 31.1054 9.87695 31.1054 9.07861ZM38.3068 11.3125H39.5812V6.63965C39.5812 5.25537 40.3796 4.40576 41.6394 4.40576C42.8991 4.40576 43.4851 5.08691 43.4851 6.50781V11.3125H44.7595V6.2002C44.7595 4.3252 43.7707 3.27783 41.9982 3.27783C40.8337 3.27783 40.0939 3.76855 39.6984 4.60352H39.5812V3.41699H38.3068V11.3125ZM49.7416 11.4517C50.8403 11.4517 51.7192 10.9316 52.2026 10.0527H52.3198V11.3125H53.5942V0.282227H52.3198V4.66211H52.2026C51.7705 3.81982 50.8256 3.27783 49.7416 3.27783C47.7348 3.27783 46.4311 4.88184 46.4311 7.35742V7.37207C46.4311 9.83301 47.7421 11.4517 49.7416 11.4517ZM50.0346 10.3237C48.5917 10.3237 47.7348 9.21045 47.7348 7.37207V7.35742C47.7348 5.51904 48.5917 4.40576 50.0346 4.40576C51.4702 4.40576 52.3491 5.53369 52.3491 7.35742V7.37207C52.3491 9.1958 51.4702 10.3237 50.0346 10.3237ZM59.0231 11.4517C60.8835 11.4517 62.0114 10.397 62.2824 9.32764L62.2971 9.26904H61.0226L60.9933 9.33496C60.7809 9.81104 60.1218 10.3164 59.0524 10.3164C57.6462 10.3164 56.7453 9.36426 56.7087 7.73096H62.3923V7.23291C62.3923 4.87451 61.0886 3.27783 58.9426 3.27783C56.7966 3.27783 55.405 4.94775 55.405 7.38672V7.39404C55.405 9.86963 56.7673 11.4517 59.0231 11.4517ZM58.9352 4.41309C60.0998 4.41309 60.964 5.15283 61.0959 6.71289H56.7306C56.8698 5.21143 57.7634 4.41309 58.9352 4.41309ZM64.1298 11.3125H65.4042V6.41992C65.4042 5.2627 66.2685 4.49365 67.4843 4.49365C67.7626 4.49365 68.0043 4.52295 68.268 4.56689V3.3291C68.1435 3.30713 67.8725 3.27783 67.6308 3.27783C66.5614 3.27783 65.8217 3.76123 65.5214 4.58887H65.4042V3.41699H64.1298V11.3125ZM69.0094 7.65039H76.5753V6.46387H69.0094V7.65039ZM78.2836 11.3125H79.5141V3.24121H79.5946L82.9345 11.3125H84.0478L87.3876 3.24121H87.4682V11.3125H88.6986V0.743652H87.1679L83.5497 9.56201H83.4325L79.8144 0.743652H78.2836V11.3125ZM94.2155 11.4517C96.0758 11.4517 97.2038 10.397 97.4747 9.32764L97.4894 9.26904H96.215L96.1857 9.33496C95.9733 9.81104 95.3141 10.3164 94.2448 10.3164C92.8385 10.3164 91.9376 9.36426 91.901 7.73096H97.5846V7.23291C97.5846 4.87451 96.2809 3.27783 94.1349 3.27783C91.9889 3.27783 90.5973 4.94775 90.5973 7.38672V7.39404C90.5973 9.86963 91.9596 11.4517 94.2155 11.4517ZM94.1276 4.41309C95.2921 4.41309 96.1564 5.15283 96.2882 6.71289H91.923C92.0621 5.21143 92.9557 4.41309 94.1276 4.41309ZM99.996 1.89355C100.479 1.89355 100.875 1.49805 100.875 1.01465C100.875 0.53125 100.479 0.135742 99.996 0.135742C99.5126 0.135742 99.1171 0.53125 99.1171 1.01465C99.1171 1.49805 99.5126 1.89355 99.996 1.89355ZM99.3514 11.3125H100.626V3.41699H99.3514V11.3125ZM106.817 11.459C108.823 11.459 110.142 10.0747 110.142 8.30957V8.29492C110.142 6.68359 109.16 5.74609 107.754 5.59961V5.46777C108.626 5.1748 109.358 4.2373 109.358 3.02148V3.00684C109.358 1.32227 108.106 0.135742 106.318 0.135742C104.502 0.135742 103.25 1.27832 103.25 3.15332V11.3125H104.502V3.27783C104.502 1.99609 105.198 1.24902 106.34 1.24902C107.454 1.24902 108.076 2.06201 108.076 3.07275V3.0874C108.076 4.35449 107.41 5.11621 106.326 5.11621H105.952V6.1709H106.399C107.988 6.1709 108.838 7.07178 108.838 8.28027V8.29492C108.838 9.47412 108.12 10.3311 106.729 10.3311C106.384 10.3311 106.011 10.2798 105.755 10.2139V11.3491C106.062 11.4224 106.399 11.459 106.817 11.459ZM111.879 11.3125H113.154V6.63965C113.154 5.25537 113.952 4.40576 115.212 4.40576C116.472 4.40576 117.057 5.08691 117.057 6.50781V11.3125H118.332V6.2002C118.332 4.3252 117.343 3.27783 115.571 3.27783C114.406 3.27783 113.666 3.76855 113.271 4.60352H113.154V3.41699H111.879V11.3125ZM123.622 11.4517C125.482 11.4517 126.61 10.397 126.881 9.32764L126.896 9.26904H125.621L125.592 9.33496C125.379 9.81104 124.72 10.3164 123.651 10.3164C122.245 10.3164 121.344 9.36426 121.307 7.73096H126.991V7.23291C126.991 4.87451 125.687 3.27783 123.541 3.27783C121.395 3.27783 120.004 4.94775 120.004 7.38672V7.39404C120.004 9.86963 121.366 11.4517 123.622 11.4517ZM123.534 4.41309C124.698 4.41309 125.563 5.15283 125.694 6.71289H121.329C121.468 5.21143 122.362 4.41309 123.534 4.41309ZM128.728 11.3125H130.003V6.41992C130.003 5.2627 130.867 4.49365 132.083 4.49365C132.361 4.49365 132.603 4.52295 132.867 4.56689V3.3291C132.742 3.30713 132.471 3.27783 132.229 3.27783C131.16 3.27783 130.42 3.76123 130.12 4.58887H130.003V3.41699H128.728V11.3125ZM133.608 7.65039H141.174V6.46387H133.608V7.65039ZM146.346 11.5615C148.705 11.5615 150.25 10.3311 150.25 8.35352V8.34619C150.25 6.82275 149.379 5.93652 147.174 5.4458L146.002 5.18213C144.567 4.86719 143.988 4.2959 143.988 3.45361V3.44629C143.988 2.34033 145.006 1.71777 146.325 1.71045C147.701 1.70312 148.58 2.3916 148.727 3.32178L148.742 3.41699H150.06L150.053 3.31445C149.943 1.73975 148.471 0.494629 146.361 0.494629C144.179 0.494629 142.648 1.73242 142.64 3.48291V3.49023C142.64 5.021 143.556 5.99512 145.673 6.46387L146.845 6.72021C148.295 7.04248 148.903 7.64307 148.903 8.52197V8.5293C148.903 9.60596 147.855 10.3457 146.42 10.3457C144.896 10.3457 143.798 9.6792 143.702 8.62451L143.695 8.54395H142.377L142.384 8.62451C142.538 10.3457 144.032 11.5615 146.346 11.5615ZM154.852 11.3711C155.101 11.3711 155.342 11.3418 155.591 11.2979V10.2139C155.357 10.2358 155.232 10.2432 155.005 10.2432C154.185 10.2432 153.863 9.86963 153.863 8.93945V4.47168H155.591V3.41699H153.863V1.37354H152.544V3.41699H151.299V4.47168H152.544V9.26172C152.544 10.7705 153.226 11.3711 154.852 11.3711ZM157.256 11.3125H158.53V6.41992C158.53 5.2627 159.394 4.49365 160.61 4.49365C160.888 4.49365 161.13 4.52295 161.394 4.56689V3.3291C161.269 3.30713 160.998 3.27783 160.757 3.27783C159.687 3.27783 158.948 3.76123 158.647 4.58887H158.53V3.41699H157.256V11.3125ZM164.897 11.4517C165.959 11.4517 166.786 10.9902 167.284 10.1479H167.401V11.3125H168.676V5.90723C168.676 4.2666 167.599 3.27783 165.673 3.27783C163.988 3.27783 162.787 4.11279 162.582 5.35059L162.575 5.39453H163.849L163.856 5.37256C164.062 4.75732 164.684 4.40576 165.629 4.40576C166.808 4.40576 167.401 4.93311 167.401 5.90723V6.625L165.138 6.76416C163.3 6.87402 162.26 7.68701 162.26 9.09326V9.10791C162.26 10.5435 163.395 11.4517 164.897 11.4517ZM163.564 9.07861V9.06396C163.564 8.28027 164.091 7.85547 165.292 7.78223L167.401 7.65039V8.36816C167.401 9.49609 166.457 10.3457 165.16 10.3457C164.245 10.3457 163.564 9.87695 163.564 9.07861ZM174.793 11.459C176.8 11.459 178.118 10.0747 178.118 8.30957V8.29492C178.118 6.68359 177.137 5.74609 175.731 5.59961V5.46777C176.602 5.1748 177.335 4.2373 177.335 3.02148V3.00684C177.335 1.32227 176.082 0.135742 174.295 0.135742C172.479 0.135742 171.226 1.27832 171.226 3.15332V11.3125H172.479V3.27783C172.479 1.99609 173.175 1.24902 174.317 1.24902C175.43 1.24902 176.053 2.06201 176.053 3.07275V3.0874C176.053 4.35449 175.387 5.11621 174.303 5.11621H173.929V6.1709H174.376C175.965 6.1709 176.815 7.07178 176.815 8.28027V8.29492C176.815 9.47412 176.097 10.3311 174.705 10.3311C174.361 10.3311 173.988 10.2798 173.731 10.2139V11.3491C174.039 11.4224 174.376 11.459 174.793 11.459ZM183.079 11.4517C184.939 11.4517 186.067 10.397 186.338 9.32764L186.353 9.26904H185.078L185.049 9.33496C184.836 9.81104 184.177 10.3164 183.108 10.3164C181.702 10.3164 180.801 9.36426 180.764 7.73096H186.448V7.23291C186.448 4.87451 185.144 3.27783 182.998 3.27783C180.852 3.27783 179.46 4.94775 179.46 7.38672V7.39404C179.46 9.86963 180.823 11.4517 183.079 11.4517ZM182.991 4.41309C184.155 4.41309 185.02 5.15283 185.151 6.71289H180.786C180.925 5.21143 181.819 4.41309 182.991 4.41309ZM194.742 11.3125H196.061V0.743652H194.75L191.937 2.76514V4.15674L194.625 2.2085H194.742V11.3125ZM198.194 14.0005H199.138L200.288 9.83301H198.831L198.194 14.0005ZM3.76465 31.3125H5.08301V20.7437H3.77197L0.959473 22.7651V24.1567L3.64746 22.2085H3.76465V31.3125ZM7.89721 31.3125H14.738V30.126H9.72826V30.0088L12.1306 27.5259C14.0422 25.5557 14.5622 24.6768 14.5622 23.4683V23.4536C14.5622 21.7471 13.1487 20.4946 11.303 20.4946C9.28148 20.4946 7.83129 21.8423 7.82397 23.7173L7.83861 23.7246L9.09838 23.7319L9.1057 23.7173C9.1057 22.4722 9.94799 21.6445 11.2151 21.6445C12.4602 21.6445 13.2146 22.4795 13.2146 23.5928V23.6074C13.2146 24.5303 12.8191 25.0796 11.4714 26.5371L7.89721 30.4043V31.3125ZM20.1816 31.5615C22.3276 31.5615 23.8584 30.0747 23.8584 27.9434V27.9287C23.8584 25.8853 22.4302 24.3984 20.4453 24.3984C19.4858 24.3984 18.6582 24.7866 18.1894 25.4971H18.0722L18.4311 21.9229H23.2724V20.7437H17.3911L16.8345 26.8154H17.977C18.1089 26.5664 18.2773 26.3613 18.4604 26.1855C18.9145 25.7534 19.5151 25.541 20.2182 25.541C21.5879 25.541 22.5693 26.5444 22.5693 27.9507V27.9653C22.5693 29.3936 21.6025 30.397 20.1963 30.397C18.9585 30.397 18.0429 29.5913 17.9184 28.5806L17.9111 28.522H16.644L16.6513 28.6025C16.8052 30.2944 18.2114 31.5615 20.1816 31.5615ZM25.7424 31.3125H32.5832V30.126H27.5735V30.0088L29.9758 27.5259C31.8874 25.5557 32.4074 24.6768 32.4074 23.4683V23.4536C32.4074 21.7471 30.9939 20.4946 29.1482 20.4946C27.1267 20.4946 25.6765 21.8423 25.6692 23.7173L25.6838 23.7246L26.9436 23.7319L26.9509 23.7173C26.9509 22.4722 27.7932 21.6445 29.0603 21.6445C30.3054 21.6445 31.0598 22.4795 31.0598 23.5928V23.6074C31.0598 24.5303 30.6643 25.0796 29.3166 26.5371L25.7424 30.4043V31.3125ZM38.2905 31.5615C40.4218 31.5615 41.9892 30.0308 41.9892 27.9214V27.9067C41.9892 25.8779 40.5097 24.3691 38.5249 24.3691C37.0966 24.3691 36.1005 25.1382 35.7124 26.0024H35.5732C35.5732 25.9219 35.5732 25.834 35.5805 25.7534C35.6611 23.5488 36.4448 21.6738 38.3637 21.6738C39.4331 21.6738 40.1728 22.2231 40.4951 23.1094L40.5244 23.1899H41.8501L41.8281 23.0947C41.4692 21.5347 40.1508 20.4946 38.3784 20.4946C35.8149 20.4946 34.3134 22.604 34.3134 26.2075V26.2222C34.3134 30.1992 36.3569 31.5615 38.2905 31.5615ZM35.8881 27.9067V27.8994C35.8881 26.5225 36.9282 25.519 38.2978 25.519C39.6674 25.519 40.6635 26.5298 40.6635 27.936V27.9507C40.6635 29.3203 39.6015 30.397 38.2758 30.397C36.9355 30.397 35.8881 29.2983 35.8881 27.9067ZM48.0131 31.3125H52.1367C54.3852 31.3125 55.7182 30.2065 55.7182 28.3535V28.3389C55.7182 26.9473 54.8027 25.9585 53.3598 25.7754V25.6582C54.3779 25.4751 55.1835 24.479 55.1835 23.3877V23.373C55.1835 21.7617 53.997 20.7437 52.0561 20.7437H48.0131V31.3125ZM51.7778 21.9082C53.0888 21.9082 53.8505 22.5308 53.8505 23.6001V23.6147C53.8505 24.728 53.0375 25.2993 51.4409 25.2993H49.3315V21.9082H51.7778ZM51.8144 26.4346C53.499 26.4346 54.3632 27.0571 54.3632 28.2729V28.2876C54.3632 29.5034 53.5283 30.1479 51.9389 30.1479H49.3315V26.4346H51.8144ZM60.693 31.4517C62.5534 31.4517 63.6813 30.397 63.9523 29.3276L63.967 29.269H62.6926L62.6633 29.335C62.4509 29.811 61.7917 30.3164 60.7223 30.3164C59.3161 30.3164 58.4152 29.3643 58.3786 27.731H64.0622V27.2329C64.0622 24.8745 62.7585 23.2778 60.6125 23.2778C58.4665 23.2778 57.0749 24.9478 57.0749 27.3867V27.394C57.0749 29.8696 58.4372 31.4517 60.693 31.4517ZM60.6052 24.4131C61.7697 24.4131 62.634 25.1528 62.7658 26.7129H58.4006C58.5397 25.2114 59.4333 24.4131 60.6052 24.4131ZM65.7997 31.3125H67.0741V26.4199C67.0741 25.2627 67.9384 24.4937 69.1542 24.4937C69.4325 24.4937 69.6742 24.5229 69.9379 24.5669V23.3291C69.8134 23.3071 69.5424 23.2778 69.3007 23.2778C68.2314 23.2778 67.4916 23.7612 67.1913 24.5889H67.0741V23.417H65.7997V31.3125ZM71.3459 31.3125H72.6203V20.2822H71.3459V31.3125ZM75.5004 21.8936C75.9838 21.8936 76.3793 21.498 76.3793 21.0146C76.3793 20.5312 75.9838 20.1357 75.5004 20.1357C75.017 20.1357 74.6215 20.5312 74.6215 21.0146C74.6215 21.498 75.017 21.8936 75.5004 21.8936ZM74.8559 31.3125H76.1303V23.417H74.8559V31.3125ZM78.2926 31.3125H79.567V26.6396C79.567 25.2554 80.3654 24.4058 81.6251 24.4058C82.8849 24.4058 83.4708 25.0869 83.4708 26.5078V31.3125H84.7453V26.2002C84.7453 24.3252 83.7565 23.2778 81.984 23.2778C80.8195 23.2778 80.0797 23.7686 79.6842 24.6035H79.567V23.417H78.2926V31.3125ZM86.4901 34.0005H87.4349L88.5848 29.833H87.1273L86.4901 34.0005ZM99.5453 31.5615C102.248 31.5615 104.035 29.833 104.035 27.2256V25.9365H99.7504V27.0938H102.717V27.3501C102.717 29.1372 101.442 30.3457 99.5526 30.3457C97.4286 30.3457 96.1029 28.6904 96.1029 26.0317V26.0171C96.1029 23.395 97.4505 21.7104 99.5453 21.7104C101.12 21.7104 102.182 22.4575 102.614 23.8198L102.636 23.8931H103.969L103.954 23.8198C103.537 21.813 101.889 20.4946 99.5453 20.4946C96.6522 20.4946 94.7552 22.6846 94.7552 26.0171V26.0317C94.7552 29.4082 96.6229 31.5615 99.5453 31.5615ZM109.193 31.4517C111.053 31.4517 112.181 30.397 112.452 29.3276L112.467 29.269H111.192L111.163 29.335C110.951 29.811 110.292 30.3164 109.222 30.3164C107.816 30.3164 106.915 29.3643 106.879 27.731H112.562V27.2329C112.562 24.8745 111.258 23.2778 109.112 23.2778C106.966 23.2778 105.575 24.9478 105.575 27.3867V27.394C105.575 29.8696 106.937 31.4517 109.193 31.4517ZM109.105 24.4131C110.27 24.4131 111.134 25.1528 111.266 26.7129H106.9C107.04 25.2114 107.933 24.4131 109.105 24.4131ZM114.3 31.3125H115.574V26.4199C115.574 25.2627 116.438 24.4937 117.654 24.4937C117.932 24.4937 118.174 24.5229 118.438 24.5669V23.3291C118.313 23.3071 118.042 23.2778 117.801 23.2778C116.731 23.2778 115.992 23.7612 115.691 24.5889H115.574V23.417H114.3V31.3125ZM119.919 31.3125H121.193V26.4199C121.193 25.3066 121.977 24.4058 123.01 24.4058C124.006 24.4058 124.65 25.0137 124.65 25.9512V31.3125H125.925V26.2368C125.925 25.2334 126.65 24.4058 127.749 24.4058C128.862 24.4058 129.397 24.9844 129.397 26.1489V31.3125H130.671V25.856C130.671 24.2007 129.77 23.2778 128.159 23.2778C127.067 23.2778 126.167 23.8271 125.742 24.6621H125.625C125.258 23.8418 124.511 23.2778 123.442 23.2778C122.409 23.2778 121.662 23.7686 121.311 24.6182H121.193V23.417H119.919V31.3125ZM134.899 31.4517C135.961 31.4517 136.788 30.9902 137.286 30.1479H137.404V31.3125H138.678V25.9072C138.678 24.2666 137.601 23.2778 135.675 23.2778C133.991 23.2778 132.789 24.1128 132.584 25.3506L132.577 25.3945H133.851L133.859 25.3726C134.064 24.7573 134.686 24.4058 135.631 24.4058C136.81 24.4058 137.404 24.9331 137.404 25.9072V26.625L135.14 26.7642C133.302 26.874 132.262 27.687 132.262 29.0933V29.1079C132.262 30.5435 133.397 31.4517 134.899 31.4517ZM133.566 29.0786V29.064C133.566 28.2803 134.093 27.8555 135.294 27.7822L137.404 27.6504V28.3682C137.404 29.4961 136.459 30.3457 135.162 30.3457C134.247 30.3457 133.566 29.877 133.566 29.0786ZM140.767 31.3125H142.042V26.6396C142.042 25.2554 142.84 24.4058 144.1 24.4058C145.359 24.4058 145.945 25.0869 145.945 26.5078V31.3125H147.22V26.2002C147.22 24.3252 146.231 23.2778 144.459 23.2778C143.294 23.2778 142.554 23.7686 142.159 24.6035H142.042V23.417H140.767V31.3125ZM149.668 34.0811C151.067 34.0811 151.719 33.5684 152.37 31.7959L155.454 23.417H154.114L151.953 29.9136H151.836L149.668 23.417H148.305L151.228 31.3198L151.081 31.7886C150.796 32.6968 150.356 33.0264 149.631 33.0264C149.455 33.0264 149.258 33.019 149.104 32.9897V34.0371C149.28 34.0664 149.499 34.0811 149.668 34.0811Z" fill="url(#paint0_linear_3_571)"/>
<defs>
<linearGradient id="paint0_linear_3_571" x1="119.951" y1="-20.8265" x2="108.945" y2="51.0057" gradientUnits="userSpaceOnUse">
<stop stop-color="#CDDDF4"/>
<stop offset="1" stop-color="#CDBAFA"/>
</linearGradient>
</defs>
</svg>
