<svg width="141" height="14" viewBox="0 0 141 14" fill="none" xmlns="http://www.w3.org/2000/svg">
<path d="M0.572754 12.9062H2.1416L3.34521 9.47803H8.10986L9.31348 12.9062H10.8823L6.46631 0.928223H4.98877L0.572754 12.9062ZM5.66113 2.8623H5.79395L7.66992 8.20801H3.78516L5.66113 2.8623ZM12.4728 12.9062H13.9171V0.405273H12.4728V12.9062ZM16.3626 12.9062H17.807V0.405273H16.3626V12.9062ZM23.8467 13.064C26.395 13.064 27.9721 11.3042 27.9721 8.44043V8.42383C27.9721 5.55176 26.395 3.80029 23.8467 3.80029C21.2983 3.80029 19.7212 5.55176 19.7212 8.42383V8.44043C19.7212 11.3042 21.2983 13.064 23.8467 13.064ZM23.8467 11.7856C22.1533 11.7856 21.1987 10.5488 21.1987 8.44043V8.42383C21.1987 6.30713 22.1533 5.07861 23.8467 5.07861C25.54 5.07861 26.4946 6.30713 26.4946 8.42383V8.44043C26.4946 10.5488 25.54 11.7856 23.8467 11.7856ZM31.1979 12.9062H32.6422L34.6344 5.9834H34.7672L36.7677 12.9062H38.2204L40.7272 3.95801H39.2912L37.5314 11.1133H37.3986L35.3981 3.95801H34.0285L32.028 11.1133H31.8952L30.1354 3.95801H28.6911L31.1979 12.9062ZM46.7802 12.9062H48.2578V3.61768H48.3906L54.8901 12.9062H56.3427V0.928223H54.8652V10.25H54.7324L48.2329 0.928223H46.7802V12.9062ZM62.4821 13.064C65.0304 13.064 66.6075 11.3042 66.6075 8.44043V8.42383C66.6075 5.55176 65.0304 3.80029 62.4821 3.80029C59.9337 3.80029 58.3566 5.55176 58.3566 8.42383V8.44043C58.3566 11.3042 59.9337 13.064 62.4821 13.064ZM62.4821 11.7856C60.7887 11.7856 59.8341 10.5488 59.8341 8.44043V8.42383C59.8341 6.30713 60.7887 5.07861 62.4821 5.07861C64.1754 5.07861 65.13 6.30713 65.13 8.42383V8.44043C65.13 10.5488 64.1754 11.7856 62.4821 11.7856ZM71.618 12.9727C71.9002 12.9727 72.1741 12.9395 72.4563 12.8896V11.6611C72.1907 11.686 72.0496 11.6943 71.7923 11.6943C70.8626 11.6943 70.4973 11.271 70.4973 10.2168V5.15332H72.4563V3.95801H70.4973V1.64209H69.0032V3.95801H67.5921V5.15332H69.0032V10.582C69.0032 12.292 69.7752 12.9727 71.618 12.9727ZM74.9682 2.23145C75.5161 2.23145 75.9643 1.7832 75.9643 1.23535C75.9643 0.6875 75.5161 0.239258 74.9682 0.239258C74.4203 0.239258 73.9721 0.6875 73.9721 1.23535C73.9721 1.7832 74.4203 2.23145 74.9682 2.23145ZM74.2377 12.9062H75.6821V3.95801H74.2377V12.9062ZM78.5924 12.9062H80.0367V5.15332H82.0704V3.95801H80.0367V3.00342C80.0367 2.02393 80.4518 1.51758 81.4811 1.51758C81.7384 1.51758 81.9791 1.52588 82.1534 1.55908V0.405273C81.8546 0.347168 81.5392 0.322266 81.1905 0.322266C79.4889 0.322266 78.5924 1.17725 78.5924 2.96191V3.95801H77.1065V5.15332H78.5924V12.9062ZM84.5076 2.23145C85.0554 2.23145 85.5037 1.7832 85.5037 1.23535C85.5037 0.6875 85.0554 0.239258 84.5076 0.239258C83.9597 0.239258 83.5115 0.6875 83.5115 1.23535C83.5115 1.7832 83.9597 2.23145 84.5076 2.23145ZM83.7771 12.9062H85.2214V3.95801H83.7771V12.9062ZM91.1947 13.064C93.3447 13.064 94.5483 11.9102 94.9135 10.2915L94.9301 10.2002L93.5024 10.2085L93.4858 10.2583C93.1537 11.2544 92.3901 11.7856 91.1864 11.7856C89.5927 11.7856 88.5634 10.4658 88.5634 8.40723V8.39062C88.5634 6.37354 89.5761 5.07861 91.1864 5.07861C92.4731 5.07861 93.2699 5.79248 93.4941 6.67236L93.5024 6.69727H94.9384L94.9301 6.64746C94.6645 5.05371 93.3613 3.80029 91.1864 3.80029C88.6796 3.80029 87.0859 5.60986 87.0859 8.39062V8.40723C87.0859 11.2461 88.6879 13.064 91.1947 13.064ZM99.0938 13.064C100.297 13.064 101.235 12.541 101.8 11.5864H101.933V12.9062H103.377V6.78027C103.377 4.9209 102.157 3.80029 99.9737 3.80029C98.0645 3.80029 96.7032 4.74658 96.4708 6.14941L96.4625 6.19922H97.9068L97.9151 6.17432C98.1475 5.47705 98.8531 5.07861 99.9239 5.07861C101.26 5.07861 101.933 5.67627 101.933 6.78027V7.59375L99.3678 7.75146C97.2843 7.87598 96.1055 8.79736 96.1055 10.3911V10.4077C96.1055 12.0347 97.3922 13.064 99.0938 13.064ZM97.5831 10.3745V10.3579C97.5831 9.46973 98.1807 8.98828 99.5421 8.90527L101.933 8.75586V9.56934C101.933 10.8477 100.862 11.8105 99.3927 11.8105C98.3551 11.8105 97.5831 11.2793 97.5831 10.3745ZM108.786 12.9727C109.068 12.9727 109.342 12.9395 109.624 12.8896V11.6611C109.359 11.686 109.218 11.6943 108.96 11.6943C108.031 11.6943 107.665 11.271 107.665 10.2168V5.15332H109.624V3.95801H107.665V1.64209H106.171V3.95801H104.76V5.15332H106.171V10.582C106.171 12.292 106.943 12.9727 108.786 12.9727ZM112.136 2.23145C112.684 2.23145 113.132 1.7832 113.132 1.23535C113.132 0.6875 112.684 0.239258 112.136 0.239258C111.588 0.239258 111.14 0.6875 111.14 1.23535C111.14 1.7832 111.588 2.23145 112.136 2.23145ZM111.406 12.9062H112.85V3.95801H111.406V12.9062ZM118.84 13.064C121.388 13.064 122.965 11.3042 122.965 8.44043V8.42383C122.965 5.55176 121.388 3.80029 118.84 3.80029C116.292 3.80029 114.714 5.55176 114.714 8.42383V8.44043C114.714 11.3042 116.292 13.064 118.84 13.064ZM118.84 11.7856C117.147 11.7856 116.192 10.5488 116.192 8.44043V8.42383C116.192 6.30713 117.147 5.07861 118.84 5.07861C120.533 5.07861 121.488 6.30713 121.488 8.42383V8.44043C121.488 10.5488 120.533 11.7856 118.84 11.7856ZM124.797 12.9062H126.241V7.61035C126.241 6.0415 127.146 5.07861 128.573 5.07861C130.001 5.07861 130.665 5.85059 130.665 7.46094V12.9062H132.11V7.1123C132.11 4.9873 130.989 3.80029 128.98 3.80029C127.66 3.80029 126.822 4.35645 126.374 5.30273H126.241V3.95801H124.797V12.9062ZM137.386 13.064C139.419 13.064 140.972 11.96 140.972 10.3662V10.3496C140.972 9.07129 140.158 8.34082 138.473 7.93408L137.095 7.60205C136.041 7.34473 135.593 6.96289 135.593 6.35693V6.34033C135.593 5.55176 136.373 5.00391 137.435 5.00391C138.515 5.00391 139.212 5.49365 139.403 6.19922H140.822C140.623 4.73828 139.32 3.80029 137.444 3.80029C135.543 3.80029 134.115 4.9209 134.115 6.40674V6.41504C134.115 7.70166 134.87 8.43213 136.547 8.83057L137.933 9.1626C139.037 9.42822 139.494 9.85156 139.494 10.4575V10.4741C139.494 11.2876 138.639 11.8604 137.435 11.8604C136.29 11.8604 135.576 11.3706 135.335 10.6235H133.858C134.024 12.1011 135.393 13.064 137.386 13.064Z" fill="url(#paint0_linear_3_161)"/>
<defs>
<linearGradient id="paint0_linear_3_161" x1="68.6819" y1="-14.0163" x2="62.2421" y2="27.5494" gradientUnits="userSpaceOnUse">
<stop stop-color="#CDDDF4"/>
<stop offset="1" stop-color="#CDBAFA"/>
</linearGradient>
</defs>
</svg>
