<svg width="150" height="16" viewBox="0 0 150 16" fill="none" xmlns="http://www.w3.org/2000/svg">
<path d="M0.527344 12.9062H5.20068C7.74902 12.9062 9.25977 11.6528 9.25977 9.55273V9.53613C9.25977 7.95898 8.22217 6.83838 6.58691 6.63086V6.49805C7.74072 6.29053 8.65381 5.16162 8.65381 3.9248V3.9082C8.65381 2.08203 7.30908 0.928223 5.10938 0.928223H0.527344V12.9062ZM4.79395 2.24805C6.27979 2.24805 7.14307 2.95361 7.14307 4.16553V4.18213C7.14307 5.44385 6.22168 6.09131 4.41211 6.09131H2.02148V2.24805H4.79395ZM4.83545 7.37793C6.74463 7.37793 7.72412 8.0835 7.72412 9.46143V9.47803C7.72412 10.856 6.77783 11.5864 4.97656 11.5864H2.02148V7.37793H4.83545ZM14.7599 13.064C16.8683 13.064 18.1466 11.8687 18.4538 10.6567L18.4704 10.5903H17.026L16.9928 10.665C16.7521 11.2046 16.005 11.7773 14.7931 11.7773C13.1994 11.7773 12.1784 10.6982 12.1369 8.84717H18.5783V8.28271C18.5783 5.60986 17.1007 3.80029 14.6686 3.80029C12.2365 3.80029 10.6593 5.69287 10.6593 8.45703V8.46533C10.6593 11.271 12.2033 13.064 14.7599 13.064ZM14.6603 5.08691C15.9801 5.08691 16.9596 5.92529 17.109 7.69336H12.1618C12.3195 5.9917 13.3322 5.08691 14.6603 5.08691ZM24.0701 13.064C26.22 13.064 27.4237 11.9102 27.7889 10.2915L27.8055 10.2002L26.3778 10.2085L26.3612 10.2583C26.0291 11.2544 25.2654 11.7856 24.0618 11.7856C22.4681 11.7856 21.4388 10.4658 21.4388 8.40723V8.39062C21.4388 6.37354 22.4515 5.07861 24.0618 5.07861C25.3485 5.07861 26.1453 5.79248 26.3695 6.67236L26.3778 6.69727H27.8138L27.8055 6.64746C27.5399 5.05371 26.2366 3.80029 24.0618 3.80029C21.555 3.80029 19.9613 5.60986 19.9613 8.39062V8.40723C19.9613 11.2461 21.5633 13.064 24.0701 13.064ZM33.1894 13.064C35.7378 13.064 37.3149 11.3042 37.3149 8.44043V8.42383C37.3149 5.55176 35.7378 3.80029 33.1894 3.80029C30.6411 3.80029 29.0639 5.55176 29.0639 8.42383V8.44043C29.0639 11.3042 30.6411 13.064 33.1894 13.064ZM33.1894 11.7856C31.4961 11.7856 30.5415 10.5488 30.5415 8.44043V8.42383C30.5415 6.30713 31.4961 5.07861 33.1894 5.07861C34.8828 5.07861 35.8374 6.30713 35.8374 8.42383V8.44043C35.8374 10.5488 34.8828 11.7856 33.1894 11.7856ZM39.1461 12.9062H40.5905V7.36133C40.5905 6.09961 41.4787 5.07861 42.6491 5.07861C43.778 5.07861 44.5084 5.76758 44.5084 6.83008V12.9062H45.9528V7.15381C45.9528 6.0166 46.7746 5.07861 48.0197 5.07861C49.2814 5.07861 49.8873 5.73438 49.8873 7.0542V12.9062H51.3317V6.72217C51.3317 4.84619 50.3107 3.80029 48.4845 3.80029C47.2477 3.80029 46.2267 4.42285 45.7453 5.36914H45.6124C45.1974 4.43945 44.3507 3.80029 43.1388 3.80029C41.9684 3.80029 41.1217 4.35645 40.7233 5.31934H40.5905V3.95801H39.1461V12.9062ZM57.1805 13.064C59.2889 13.064 60.5672 11.8687 60.8743 10.6567L60.8909 10.5903H59.4466L59.4134 10.665C59.1727 11.2046 58.4256 11.7773 57.2137 11.7773C55.6199 11.7773 54.5989 10.6982 54.5574 8.84717H60.9988V8.28271C60.9988 5.60986 59.5213 3.80029 57.0892 3.80029C54.657 3.80029 53.0799 5.69287 53.0799 8.45703V8.46533C53.0799 11.271 54.6238 13.064 57.1805 13.064ZM57.0809 5.08691C58.4007 5.08691 59.3802 5.92529 59.5296 7.69336H54.5823C54.74 5.9917 55.7527 5.08691 57.0809 5.08691ZM69.6583 13.064C70.8619 13.064 71.7999 12.541 72.3644 11.5864H72.4972V12.9062H73.9415V6.78027C73.9415 4.9209 72.7213 3.80029 70.5382 3.80029C68.629 3.80029 67.2677 4.74658 67.0353 6.14941L67.027 6.19922H68.4713L68.4796 6.17432C68.712 5.47705 69.4176 5.07861 70.4884 5.07861C71.8248 5.07861 72.4972 5.67627 72.4972 6.78027V7.59375L69.9322 7.75146C67.8487 7.87598 66.67 8.79736 66.67 10.3911V10.4077C66.67 12.0347 67.9567 13.064 69.6583 13.064ZM68.1476 10.3745V10.3579C68.1476 9.46973 68.7452 8.98828 70.1066 8.90527L72.4972 8.75586V9.56934C72.4972 10.8477 71.4264 11.8105 69.9571 11.8105C68.9195 11.8105 68.1476 11.2793 68.1476 10.3745ZM80.5424 15.8945H81.9868V11.4951H82.1196C82.6093 12.4497 83.6801 13.064 84.9086 13.064C87.183 13.064 88.6606 11.2461 88.6606 8.44043V8.42383C88.6606 5.63477 87.1747 3.80029 84.9086 3.80029C83.6635 3.80029 82.6674 4.38965 82.1196 5.38574H81.9868V3.95801H80.5424V15.8945ZM84.5766 11.7856C82.9496 11.7856 81.9536 10.5073 81.9536 8.44043V8.42383C81.9536 6.35693 82.9496 5.07861 84.5766 5.07861C86.2119 5.07861 87.183 6.34033 87.183 8.42383V8.44043C87.183 10.5239 86.2119 11.7856 84.5766 11.7856ZM90.5084 12.9062H91.9527V7.36133C91.9527 6.0498 92.9322 5.17822 94.3102 5.17822C94.6256 5.17822 94.8995 5.21143 95.1983 5.26123V3.8584C95.0572 3.8335 94.7501 3.80029 94.4762 3.80029C93.2643 3.80029 92.4259 4.34814 92.0855 5.28613H91.9527V3.95801H90.5084V12.9062ZM100.001 13.064C102.55 13.064 104.127 11.3042 104.127 8.44043V8.42383C104.127 5.55176 102.55 3.80029 100.001 3.80029C97.4529 3.80029 95.8757 5.55176 95.8757 8.42383V8.44043C95.8757 11.3042 97.4529 13.064 100.001 13.064ZM100.001 11.7856C98.3079 11.7856 97.3533 10.5488 97.3533 8.44043V8.42383C97.3533 6.30713 98.3079 5.07861 100.001 5.07861C101.695 5.07861 102.649 6.30713 102.649 8.42383V8.44043C102.649 10.5488 101.695 11.7856 100.001 11.7856ZM105.958 12.9062H107.402V7.36133C107.402 6.09961 108.29 5.07861 109.461 5.07861C110.59 5.07861 111.32 5.76758 111.32 6.83008V12.9062H112.765V7.15381C112.765 6.0166 113.586 5.07861 114.831 5.07861C116.093 5.07861 116.699 5.73438 116.699 7.0542V12.9062H118.143V6.72217C118.143 4.84619 117.122 3.80029 115.296 3.80029C114.059 3.80029 113.038 4.42285 112.557 5.36914H112.424C112.009 4.43945 111.163 3.80029 109.951 3.80029C108.78 3.80029 107.934 4.35645 107.535 5.31934H107.402V3.95801H105.958V12.9062ZM124.017 13.064C126.566 13.064 128.143 11.3042 128.143 8.44043V8.42383C128.143 5.55176 126.566 3.80029 124.017 3.80029C121.469 3.80029 119.892 5.55176 119.892 8.42383V8.44043C119.892 11.3042 121.469 13.064 124.017 13.064ZM124.017 11.7856C122.324 11.7856 121.369 10.5488 121.369 8.44043V8.42383C121.369 6.30713 122.324 5.07861 124.017 5.07861C125.711 5.07861 126.665 6.30713 126.665 8.42383V8.44043C126.665 10.5488 125.711 11.7856 124.017 11.7856ZM133.153 12.9727C133.435 12.9727 133.709 12.9395 133.991 12.8896V11.6611C133.726 11.686 133.585 11.6943 133.327 11.6943C132.398 11.6943 132.032 11.271 132.032 10.2168V5.15332H133.991V3.95801H132.032V1.64209H130.538V3.95801H129.127V5.15332H130.538V10.582C130.538 12.292 131.31 12.9727 133.153 12.9727ZM139.259 13.064C141.368 13.064 142.646 11.8687 142.953 10.6567L142.97 10.5903H141.525L141.492 10.665C141.251 11.2046 140.504 11.7773 139.292 11.7773C137.699 11.7773 136.678 10.6982 136.636 8.84717H143.078V8.28271C143.078 5.60986 141.6 3.80029 139.168 3.80029C136.736 3.80029 135.159 5.69287 135.159 8.45703V8.46533C135.159 11.271 136.703 13.064 139.259 13.064ZM139.16 5.08691C140.479 5.08691 141.459 5.92529 141.608 7.69336H136.661C136.819 5.9917 137.831 5.08691 139.16 5.08691ZM144.909 12.9062H146.353V7.36133C146.353 6.0498 147.333 5.17822 148.711 5.17822C149.026 5.17822 149.3 5.21143 149.599 5.26123V3.8584C149.458 3.8335 149.15 3.80029 148.877 3.80029C147.665 3.80029 146.826 4.34814 146.486 5.28613H146.353V3.95801H144.909V12.9062Z" fill="url(#paint0_linear_3_1258)"/>
<defs>
<linearGradient id="paint0_linear_3_1258" x1="72.5186" y1="-14.0163" x2="66.4845" y2="27.6737" gradientUnits="userSpaceOnUse">
<stop stop-color="#CDDDF4"/>
<stop offset="1" stop-color="#CDBAFA"/>
</linearGradient>
</defs>
</svg>
