<svg width="151" height="13" viewBox="0 0 151 13" fill="none" xmlns="http://www.w3.org/2000/svg">
<path d="M0.527344 12.5625H5.20068C7.74902 12.5625 9.25977 11.3091 9.25977 9.20898V9.19238C9.25977 7.61523 8.22217 6.49463 6.58691 6.28711V6.1543C7.74072 5.94678 8.65381 4.81787 8.65381 3.58105V3.56445C8.65381 1.73828 7.30908 0.584473 5.10938 0.584473H0.527344V12.5625ZM4.79395 1.9043C6.27979 1.9043 7.14307 2.60986 7.14307 3.82178V3.83838C7.14307 5.1001 6.22168 5.74756 4.41211 5.74756H2.02148V1.9043H4.79395ZM4.83545 7.03418C6.74463 7.03418 7.72412 7.73975 7.72412 9.11768V9.13428C7.72412 10.5122 6.77783 11.2427 4.97656 11.2427H2.02148V7.03418H4.83545ZM14.7599 12.7202C16.8683 12.7202 18.1466 11.5249 18.4538 10.313L18.4704 10.2466H17.026L16.9928 10.3213C16.7521 10.8608 16.005 11.4336 14.7931 11.4336C13.1994 11.4336 12.1784 10.3545 12.1369 8.50342H18.5783V7.93896C18.5783 5.26611 17.1007 3.45654 14.6686 3.45654C12.2365 3.45654 10.6593 5.34912 10.6593 8.11328V8.12158C10.6593 10.9272 12.2033 12.7202 14.7599 12.7202ZM14.6603 4.74316C15.9801 4.74316 16.9596 5.58154 17.109 7.34961H12.1618C12.3195 5.64795 13.3322 4.74316 14.6603 4.74316ZM24.0701 12.7202C26.22 12.7202 27.4237 11.5664 27.7889 9.94775L27.8055 9.85645L26.3778 9.86475L26.3612 9.91455C26.0291 10.9106 25.2654 11.4419 24.0618 11.4419C22.4681 11.4419 21.4388 10.1221 21.4388 8.06348V8.04688C21.4388 6.02979 22.4515 4.73486 24.0618 4.73486C25.3485 4.73486 26.1453 5.44873 26.3695 6.32861L26.3778 6.35352H27.8138L27.8055 6.30371C27.5399 4.70996 26.2366 3.45654 24.0618 3.45654C21.555 3.45654 19.9613 5.26611 19.9613 8.04688V8.06348C19.9613 10.9023 21.5633 12.7202 24.0701 12.7202ZM33.1894 12.7202C35.7378 12.7202 37.3149 10.9604 37.3149 8.09668V8.08008C37.3149 5.20801 35.7378 3.45654 33.1894 3.45654C30.6411 3.45654 29.0639 5.20801 29.0639 8.08008V8.09668C29.0639 10.9604 30.6411 12.7202 33.1894 12.7202ZM33.1894 11.4419C31.4961 11.4419 30.5415 10.2051 30.5415 8.09668V8.08008C30.5415 5.96338 31.4961 4.73486 33.1894 4.73486C34.8828 4.73486 35.8374 5.96338 35.8374 8.08008V8.09668C35.8374 10.2051 34.8828 11.4419 33.1894 11.4419ZM39.1461 12.5625H40.5905V7.01758C40.5905 5.75586 41.4787 4.73486 42.6491 4.73486C43.778 4.73486 44.5084 5.42383 44.5084 6.48633V12.5625H45.9528V6.81006C45.9528 5.67285 46.7746 4.73486 48.0197 4.73486C49.2814 4.73486 49.8873 5.39062 49.8873 6.71045V12.5625H51.3317V6.37842C51.3317 4.50244 50.3107 3.45654 48.4845 3.45654C47.2477 3.45654 46.2267 4.0791 45.7453 5.02539H45.6124C45.1974 4.0957 44.3507 3.45654 43.1388 3.45654C41.9684 3.45654 41.1217 4.0127 40.7233 4.97559H40.5905V3.61426H39.1461V12.5625ZM57.1805 12.7202C59.2889 12.7202 60.5672 11.5249 60.8743 10.313L60.8909 10.2466H59.4466L59.4134 10.3213C59.1727 10.8608 58.4256 11.4336 57.2137 11.4336C55.6199 11.4336 54.5989 10.3545 54.5574 8.50342H60.9988V7.93896C60.9988 5.26611 59.5213 3.45654 57.0892 3.45654C54.657 3.45654 53.0799 5.34912 53.0799 8.11328V8.12158C53.0799 10.9272 54.6238 12.7202 57.1805 12.7202ZM57.0809 4.74316C58.4007 4.74316 59.3802 5.58154 59.5296 7.34961H54.5823C54.74 5.64795 55.7527 4.74316 57.0809 4.74316ZM69.6583 12.7202C70.8619 12.7202 71.7999 12.1973 72.3644 11.2427H72.4972V12.5625H73.9415V6.43652C73.9415 4.57715 72.7213 3.45654 70.5382 3.45654C68.629 3.45654 67.2677 4.40283 67.0353 5.80566L67.027 5.85547H68.4713L68.4796 5.83057C68.712 5.1333 69.4176 4.73486 70.4884 4.73486C71.8248 4.73486 72.4972 5.33252 72.4972 6.43652V7.25L69.9322 7.40771C67.8487 7.53223 66.67 8.45361 66.67 10.0474V10.064C66.67 11.6909 67.9567 12.7202 69.6583 12.7202ZM68.1476 10.0308V10.0142C68.1476 9.12598 68.7452 8.64453 70.1066 8.56152L72.4972 8.41211V9.22559C72.4972 10.5039 71.4264 11.4668 69.9571 11.4668C68.9195 11.4668 68.1476 10.9355 68.1476 10.0308ZM80.725 12.5625H82.2192V8.2876H85.2407C87.4902 8.2876 89.0839 6.70215 89.0839 4.42773V4.41113C89.0839 2.13672 87.4902 0.584473 85.2407 0.584473H80.725V12.5625ZM84.8588 1.9126C86.5688 1.9126 87.5566 2.85059 87.5566 4.42773V4.44434C87.5566 6.02148 86.5688 6.95947 84.8588 6.95947H82.2192V1.9126H84.8588ZM90.94 12.5625H92.3844V7.01758C92.3844 5.70605 93.3639 4.83447 94.7418 4.83447C95.0572 4.83447 95.3312 4.86768 95.63 4.91748V3.51465C95.4889 3.48975 95.1817 3.45654 94.9078 3.45654C93.6959 3.45654 92.8575 4.00439 92.5172 4.94238H92.3844V3.61426H90.94V12.5625ZM100.433 12.7202C102.981 12.7202 104.558 10.9604 104.558 8.09668V8.08008C104.558 5.20801 102.981 3.45654 100.433 3.45654C97.8845 3.45654 96.3074 5.20801 96.3074 8.08008V8.09668C96.3074 10.9604 97.8845 12.7202 100.433 12.7202ZM100.433 11.4419C98.7395 11.4419 97.7849 10.2051 97.7849 8.09668V8.08008C97.7849 5.96338 98.7395 4.73486 100.433 4.73486C102.126 4.73486 103.081 5.96338 103.081 8.08008V8.09668C103.081 10.2051 102.126 11.4419 100.433 11.4419ZM106.39 12.5625H107.834V7.01758C107.834 5.75586 108.722 4.73486 109.893 4.73486C111.021 4.73486 111.752 5.42383 111.752 6.48633V12.5625H113.196V6.81006C113.196 5.67285 114.018 4.73486 115.263 4.73486C116.525 4.73486 117.131 5.39062 117.131 6.71045V12.5625H118.575V6.37842C118.575 4.50244 117.554 3.45654 115.728 3.45654C114.491 3.45654 113.47 4.0791 112.989 5.02539H112.856C112.441 4.0957 111.594 3.45654 110.382 3.45654C109.212 3.45654 108.365 4.0127 107.967 4.97559H107.834V3.61426H106.39V12.5625ZM124.449 12.7202C126.997 12.7202 128.574 10.9604 128.574 8.09668V8.08008C128.574 5.20801 126.997 3.45654 124.449 3.45654C121.9 3.45654 120.323 5.20801 120.323 8.08008V8.09668C120.323 10.9604 121.9 12.7202 124.449 12.7202ZM124.449 11.4419C122.755 11.4419 121.801 10.2051 121.801 8.09668V8.08008C121.801 5.96338 122.755 4.73486 124.449 4.73486C126.142 4.73486 127.097 5.96338 127.097 8.08008V8.09668C127.097 10.2051 126.142 11.4419 124.449 11.4419ZM133.585 12.6289C133.867 12.6289 134.141 12.5957 134.423 12.5459V11.3174C134.157 11.3423 134.016 11.3506 133.759 11.3506C132.829 11.3506 132.464 10.9272 132.464 9.87305V4.80957H134.423V3.61426H132.464V1.29834H130.97V3.61426H129.559V4.80957H130.97V10.2383C130.97 11.9482 131.742 12.6289 133.585 12.6289ZM139.691 12.7202C141.799 12.7202 143.078 11.5249 143.385 10.313L143.401 10.2466H141.957L141.924 10.3213C141.683 10.8608 140.936 11.4336 139.724 11.4336C138.13 11.4336 137.109 10.3545 137.068 8.50342H143.509V7.93896C143.509 5.26611 142.032 3.45654 139.6 3.45654C137.167 3.45654 135.59 5.34912 135.59 8.11328V8.12158C135.59 10.9272 137.134 12.7202 139.691 12.7202ZM139.591 4.74316C140.911 4.74316 141.891 5.58154 142.04 7.34961H137.093C137.25 5.64795 138.263 4.74316 139.591 4.74316ZM145.34 12.5625H146.785V7.01758C146.785 5.70605 147.764 4.83447 149.142 4.83447C149.458 4.83447 149.732 4.86768 150.03 4.91748V3.51465C149.889 3.48975 149.582 3.45654 149.308 3.45654C148.096 3.45654 147.258 4.00439 146.918 4.94238H146.785V3.61426H145.34V12.5625Z" fill="url(#paint0_linear_3_933)"/>
<defs>
<linearGradient id="paint0_linear_3_933" x1="74.4533" y1="-14.3601" x2="68.5678" y2="27.3733" gradientUnits="userSpaceOnUse">
<stop stop-color="#CDDDF4"/>
<stop offset="1" stop-color="#CDBAFA"/>
</linearGradient>
</defs>
</svg>
