<svg width="72" height="14" viewBox="0 0 72 14" fill="none" xmlns="http://www.w3.org/2000/svg">
<path d="M6.47461 13.2051C9.23877 13.2051 11.2227 11.603 11.5381 9.2041V9.146H9.43799L9.42969 9.1875C9.12256 10.5073 7.99365 11.354 6.47461 11.354C4.43262 11.354 3.1626 9.65234 3.1626 6.92139V6.90479C3.1626 4.18213 4.43262 2.48047 6.46631 2.48047C7.97705 2.48047 9.12256 3.41846 9.42969 4.83789L9.43799 4.87109H11.5381V4.80469C11.2559 2.35596 9.18896 0.629395 6.46631 0.629395C3.07129 0.629395 0.971191 3.02832 0.971191 6.91309V6.92969C0.971191 10.7979 3.07959 13.2051 6.47461 13.2051ZM17.2209 13.0889C19.9352 13.0889 21.5871 11.3125 21.5871 8.37402V8.35742C21.5871 5.43555 19.9269 3.65918 17.2209 3.65918C14.5231 3.65918 12.8546 5.44385 12.8546 8.35742V8.37402C12.8546 11.3125 14.4982 13.0889 17.2209 13.0889ZM17.2209 11.4121C15.7848 11.4121 14.963 10.2915 14.963 8.38232V8.36572C14.963 6.45654 15.7848 5.32764 17.2209 5.32764C18.6486 5.32764 19.4704 6.45654 19.4704 8.36572V8.38232C19.4704 10.2915 18.6569 11.4121 17.2209 11.4121ZM23.2523 12.9062H25.3192V7.61865C25.3192 6.25732 26.0828 5.39404 27.3113 5.39404C28.5648 5.39404 29.1375 6.10791 29.1375 7.51904V12.9062H31.2044V7.0376C31.2044 4.87939 30.1004 3.65918 28.075 3.65918C26.7635 3.65918 25.8919 4.24854 25.4603 5.21973H25.3192V3.8335H23.2523V12.9062ZM36.8042 12.9478C37.2026 12.9478 37.5845 12.9146 37.8833 12.8564V11.2627C37.6343 11.2876 37.4765 11.2959 37.186 11.2959C36.3227 11.2959 35.9658 10.9141 35.9658 10.0093V5.43555H37.8833V3.8335H35.9658V1.60889H33.8657V3.8335H32.4546V5.43555H33.8657V10.499C33.8657 12.2505 34.7207 12.9478 36.8042 12.9478ZM42.0055 13.0557C43.2008 13.0557 44.1637 12.541 44.6618 11.6611H44.8029V12.9062H46.8449V6.70557C46.8449 4.78809 45.5333 3.65918 43.2008 3.65918C41.0426 3.65918 39.5817 4.67188 39.3825 6.19922L39.3742 6.27393H41.3248L41.3331 6.24072C41.5407 5.64307 42.1549 5.30273 43.1012 5.30273C44.2135 5.30273 44.8029 5.80078 44.8029 6.70557V7.48584L42.4704 7.62695C40.2623 7.75977 39.0255 8.70605 39.0255 10.3247V10.3413C39.0255 11.9932 40.2789 13.0557 42.0055 13.0557ZM41.0675 10.2417V10.2251C41.0675 9.47803 41.6071 9.05469 42.7609 8.97998L44.8029 8.84717V9.57764C44.8029 10.6567 43.8815 11.4702 42.6364 11.4702C41.7233 11.4702 41.0675 11.0137 41.0675 10.2417ZM52.8099 13.0889C55.1092 13.0889 56.4456 11.8521 56.7444 9.99268L56.761 9.92627L54.8104 9.93457L54.7938 9.96777C54.5364 10.9224 53.8807 11.4121 52.8099 11.4121C51.407 11.4121 50.5687 10.2832 50.5687 8.35742V8.34082C50.5687 6.43994 51.3987 5.32764 52.8099 5.32764C53.9388 5.32764 54.6111 5.9585 54.8021 6.83838L54.8104 6.86328H56.761V6.83008C56.5286 4.9541 55.1341 3.65918 52.8016 3.65918C50.0706 3.65918 48.4686 5.41064 48.4686 8.34082V8.35742C48.4686 11.3208 50.0789 13.0889 52.8099 13.0889ZM62.0039 12.9478C62.4023 12.9478 62.7841 12.9146 63.083 12.8564V11.2627C62.8339 11.2876 62.6762 11.2959 62.3857 11.2959C61.5224 11.2959 61.1655 10.9141 61.1655 10.0093V5.43555H63.083V3.8335H61.1655V1.60889H59.0654V3.8335H57.6543V5.43555H59.0654V10.499C59.0654 12.2505 59.9204 12.9478 62.0039 12.9478ZM68.0436 13.0889C70.2765 13.0889 71.8951 11.9351 71.8951 10.2085V10.1919C71.8951 8.87207 71.0568 8.1167 69.2804 7.71826L67.8112 7.39453C66.8317 7.17041 66.4498 6.84668 66.4498 6.31543V6.30713C66.4498 5.62646 67.1139 5.17822 68.0353 5.17822C69.0065 5.17822 69.6041 5.64307 69.7535 6.21582L69.7618 6.24072H71.7042V6.22412C71.5714 4.75488 70.2516 3.65918 68.0436 3.65918C65.902 3.65918 64.4078 4.78809 64.4078 6.42334V6.43164C64.4078 7.76807 65.2296 8.58154 66.9562 8.96338L68.4254 9.29541C69.4215 9.51953 69.8199 9.86816 69.8199 10.3994V10.416C69.8199 11.0967 69.1061 11.5615 68.0768 11.5615C67.0475 11.5615 66.4415 11.1216 66.2257 10.4907L66.2174 10.4741H64.1671V10.4907C64.3414 12.0264 65.736 13.0889 68.0436 13.0889Z" fill="url(#paint0_linear_3_1437)"/>
<defs>
<linearGradient id="paint0_linear_3_1437" x1="35.3083" y1="-14.0163" x2="23.549" y2="25.0032" gradientUnits="userSpaceOnUse">
<stop stop-color="#CDDDF4"/>
<stop offset="1" stop-color="#CDBAFA"/>
</linearGradient>
</defs>
</svg>
