<svg width="106" height="17" viewBox="0 0 106 17" fill="none" xmlns="http://www.w3.org/2000/svg">
<path d="M0.477539 12.9062H4.96826C8.5542 12.9062 10.6045 10.7065 10.6045 6.87158V6.85498C10.6045 3.10303 8.5293 0.928223 4.96826 0.928223H0.477539V12.9062ZM2.61914 11.105V2.72949H4.68604C7.03516 2.72949 8.42139 4.25684 8.42139 6.88818V6.90479C8.42139 9.59424 7.06836 11.105 4.68604 11.105H2.61914ZM14.8595 13.0557C16.0548 13.0557 17.0177 12.541 17.5158 11.6611H17.6569V12.9062H19.6989V6.70557C19.6989 4.78809 18.3874 3.65918 16.0548 3.65918C13.8966 3.65918 12.4357 4.67188 12.2365 6.19922L12.2282 6.27393H14.1789L14.1872 6.24072C14.3947 5.64307 15.0089 5.30273 15.9552 5.30273C17.0675 5.30273 17.6569 5.80078 17.6569 6.70557V7.48584L15.3244 7.62695C13.1164 7.75977 11.8796 8.70605 11.8796 10.3247V10.3413C11.8796 11.9932 13.133 13.0557 14.8595 13.0557ZM13.9215 10.2417V10.2251C13.9215 9.47803 14.4611 9.05469 15.6149 8.97998L17.6569 8.84717V9.57764C17.6569 10.6567 16.7355 11.4702 15.4904 11.4702C14.5773 11.4702 13.9215 11.0137 13.9215 10.2417ZM21.7708 12.9062H23.8377V7.61865C23.8377 6.25732 24.6014 5.39404 25.8299 5.39404C27.0833 5.39404 27.6561 6.10791 27.6561 7.51904V12.9062H29.723V7.0376C29.723 4.87939 28.619 3.65918 26.5936 3.65918C25.2821 3.65918 24.4105 4.24854 23.9788 5.21973H23.8377V3.8335H21.7708V12.9062ZM31.7534 12.9062H33.8203V7.61865C33.8203 6.25732 34.584 5.39404 35.8125 5.39404C37.0659 5.39404 37.6387 6.10791 37.6387 7.51904V12.9062H39.7055V7.0376C39.7055 4.87939 38.6015 3.65918 36.5762 3.65918C35.2646 3.65918 34.393 4.24854 33.9614 5.21973H33.8203V3.8335H31.7534V12.9062ZM42.4249 16.0938C44.4337 16.0938 45.4713 15.3716 46.2516 13.0972L49.5055 3.8335H47.3307L45.2223 10.9224H45.0646L42.9479 3.8335H40.6901L43.9357 12.9146L43.8278 13.3296C43.6037 14.1514 43.0973 14.5 42.2506 14.5C42.0348 14.5 41.8024 14.4917 41.6364 14.4751V16.0605C41.8854 16.0854 42.1759 16.0938 42.4249 16.0938ZM55.2099 12.9062H59.7006C63.2866 12.9062 65.3369 10.7065 65.3369 6.87158V6.85498C65.3369 3.10303 63.2617 0.928223 59.7006 0.928223H55.2099V12.9062ZM57.3515 11.105V2.72949H59.4184C61.7675 2.72949 63.1538 4.25684 63.1538 6.88818V6.90479C63.1538 9.59424 61.8007 11.105 59.4184 11.105H57.3515ZM71.0861 13.0889C73.8004 13.0889 75.4523 11.3125 75.4523 8.37402V8.35742C75.4523 5.43555 73.7921 3.65918 71.0861 3.65918C68.3883 3.65918 66.7198 5.44385 66.7198 8.35742V8.37402C66.7198 11.3125 68.3634 13.0889 71.0861 13.0889ZM71.0861 11.4121C69.65 11.4121 68.8282 10.2915 68.8282 8.38232V8.36572C68.8282 6.45654 69.65 5.32764 71.0861 5.32764C72.5138 5.32764 73.3356 6.45654 73.3356 8.36572V8.38232C73.3356 10.2915 72.5221 11.4121 71.0861 11.4121ZM77.2005 12.9062H79.2674V0.322266H77.2005V12.9062ZM85.0414 12.9478C85.4399 12.9478 85.8217 12.9146 86.1205 12.8564V11.2627C85.8715 11.2876 85.7138 11.2959 85.4233 11.2959C84.56 11.2959 84.2031 10.9141 84.2031 10.0093V5.43555H86.1205V3.8335H84.2031V1.60889H82.103V3.8335H80.6918V5.43555H82.103V10.499C82.103 12.2505 82.9579 12.9478 85.0414 12.9478ZM91.6041 13.0889C94.3185 13.0889 95.9703 11.3125 95.9703 8.37402V8.35742C95.9703 5.43555 94.3102 3.65918 91.6041 3.65918C88.9063 3.65918 87.2379 5.44385 87.2379 8.35742V8.37402C87.2379 11.3125 88.8814 13.0889 91.6041 13.0889ZM91.6041 11.4121C90.1681 11.4121 89.3463 10.2915 89.3463 8.38232V8.36572C89.3463 6.45654 90.1681 5.32764 91.6041 5.32764C93.0318 5.32764 93.8536 6.45654 93.8536 8.36572V8.38232C93.8536 10.2915 93.0401 11.4121 91.6041 11.4121ZM97.6355 12.9062H99.7024V7.61865C99.7024 6.25732 100.466 5.39404 101.695 5.39404C102.948 5.39404 103.521 6.10791 103.521 7.51904V12.9062H105.588V7.0376C105.588 4.87939 104.484 3.65918 102.458 3.65918C101.147 3.65918 100.275 4.24854 99.8435 5.21973H99.7024V3.8335H97.6355V12.9062Z" fill="url(#paint0_linear_3_1429)"/>
<defs>
<linearGradient id="paint0_linear_3_1429" x1="51.2369" y1="-14.0163" x2="42.912" y2="26.8513" gradientUnits="userSpaceOnUse">
<stop stop-color="#CDDDF4"/>
<stop offset="1" stop-color="#CDBAFA"/>
</linearGradient>
</defs>
</svg>
