<svg width="53" height="11" viewBox="0 0 53 11" fill="none" xmlns="http://www.w3.org/2000/svg">
<path d="M0.167969 9.90625H3.31006C6.0332 9.90625 7.63281 8.21143 7.63281 5.32959V5.31689C7.63281 2.44141 6.02686 0.746582 3.31006 0.746582H0.167969V9.90625ZM1.31055 8.87793V1.7749H3.23389C5.26514 1.7749 6.46484 3.09521 6.46484 5.32959V5.34229C6.46484 7.57031 5.27783 8.87793 3.23389 8.87793H1.31055ZM9.97762 1.74316C10.3966 1.74316 10.7393 1.40039 10.7393 0.981445C10.7393 0.5625 10.3966 0.219727 9.97762 0.219727C9.55867 0.219727 9.2159 0.5625 9.2159 0.981445C9.2159 1.40039 9.55867 1.74316 9.97762 1.74316ZM9.41902 9.90625H10.5235V3.06348H9.41902V9.90625ZM14.8742 10.0269C16.4294 10.0269 17.6164 9.18262 17.6164 7.96387V7.95117C17.6164 6.97363 16.9943 6.41504 15.7057 6.104L14.652 5.8501C13.8459 5.65332 13.5031 5.36133 13.5031 4.89795V4.88525C13.5031 4.28223 14.0998 3.86328 14.9123 3.86328C15.7375 3.86328 16.2707 4.23779 16.4167 4.77734H17.5021C17.3498 3.66016 16.3532 2.94287 14.9186 2.94287C13.465 2.94287 12.3732 3.7998 12.3732 4.93604V4.94238C12.3732 5.92627 12.9508 6.48486 14.2331 6.78955L15.2931 7.04346C16.1374 7.24658 16.4865 7.57031 16.4865 8.03369V8.04639C16.4865 8.66846 15.8327 9.10645 14.9123 9.10645C14.0363 9.10645 13.4904 8.73193 13.3063 8.16064H12.1764C12.3034 9.29053 13.3507 10.0269 14.8742 10.0269ZM22.0496 10.0269C23.6936 10.0269 24.614 9.14453 24.8933 7.90674L24.906 7.83691L23.8142 7.84326L23.8015 7.88135C23.5476 8.64307 22.9636 9.04932 22.0432 9.04932C20.8245 9.04932 20.0373 8.04004 20.0373 6.46582V6.45312C20.0373 4.91064 20.8118 3.92041 22.0432 3.92041C23.0271 3.92041 23.6365 4.46631 23.8079 5.13916L23.8142 5.1582H24.9123L24.906 5.12012C24.7029 3.90137 23.7063 2.94287 22.0432 2.94287C20.1262 2.94287 18.9075 4.32666 18.9075 6.45312V6.46582C18.9075 8.63672 20.1326 10.0269 22.0496 10.0269ZM29.2567 10.0269C31.2054 10.0269 32.4114 8.68115 32.4114 6.49121V6.47852C32.4114 4.28223 31.2054 2.94287 29.2567 2.94287C27.3079 2.94287 26.1019 4.28223 26.1019 6.47852V6.49121C26.1019 8.68115 27.3079 10.0269 29.2567 10.0269ZM29.2567 9.04932C27.9617 9.04932 27.2318 8.10352 27.2318 6.49121V6.47852C27.2318 4.85986 27.9617 3.92041 29.2567 3.92041C30.5516 3.92041 31.2816 4.85986 31.2816 6.47852V6.49121C31.2816 8.10352 30.5516 9.04932 29.2567 9.04932ZM36.3368 10.0269C37.3397 10.0269 38.0316 9.61426 38.3681 8.88428H38.4696V9.90625H39.5741V3.06348H38.4696V7.11328C38.4696 8.31299 37.8285 9.04932 36.6225 9.04932C35.5307 9.04932 35.0863 8.45898 35.0863 7.22754V3.06348H33.9818V7.49414C33.9818 9.11279 34.7816 10.0269 36.3368 10.0269ZM41.5571 9.90625H42.6616V5.85645C42.6616 4.65674 43.3535 3.92041 44.4453 3.92041C45.5371 3.92041 46.0449 4.51074 46.0449 5.74219V9.90625H47.1494V5.47559C47.1494 3.85059 46.2925 2.94287 44.7563 2.94287C43.7471 2.94287 43.1059 3.36816 42.7632 4.0918H42.6616V3.06348H41.5571V9.90625ZM51.5001 9.95703C51.7159 9.95703 51.9254 9.93164 52.1412 9.89355V8.9541C51.938 8.97314 51.8301 8.97949 51.6334 8.97949C50.9224 8.97949 50.6431 8.65576 50.6431 7.84961V3.97754H52.1412V3.06348H50.6431V1.29248H49.5005V3.06348H48.4214V3.97754H49.5005V8.12891C49.5005 9.43652 50.0909 9.95703 51.5001 9.95703Z" fill="url(#paint0_linear_3_1377)"/>
<defs>
<linearGradient id="paint0_linear_3_1377" x1="25.1185" y1="-12.2122" x2="14.6711" y2="19.1299" gradientUnits="userSpaceOnUse">
<stop stop-color="#CDDDF4"/>
<stop offset="1" stop-color="#CDBAFA"/>
</linearGradient>
</defs>
</svg>
