<svg width="223" height="18" viewBox="0 0 223 18" fill="none" xmlns="http://www.w3.org/2000/svg">
<path d="M0.194336 16.9062H10.4639V14.2314H3.43848V10.332H10.0664V7.79688H3.43848V4.08008H10.4639V1.40527H0.194336V16.9062ZM12.5371 16.9062H15.6738V10.2891C15.6738 8.78516 16.5654 7.75391 17.9727 7.75391C19.3799 7.75391 20.0889 8.61328 20.0889 10.1172V16.9062H23.2256V9.47266C23.2256 6.77637 21.7861 5.1543 19.251 5.1543C17.5107 5.1543 16.3291 5.95996 15.7383 7.28125H15.6738V5.39062H12.5371V16.9062ZM29.7891 17.1426C30.4443 17.1426 30.9492 17.0781 31.3037 17.0244V14.7256C31.1104 14.7471 30.9062 14.7793 30.627 14.7793C29.6816 14.7793 29.1982 14.4141 29.1982 13.3398V7.75391H31.3037V5.39062H29.1982V2.57617H26.0293V5.39062H24.4287V7.75391H26.0293V13.6836C26.0293 16.1543 27.2324 17.1426 29.7891 17.1426ZM38.1035 17.1426C41.3906 17.1426 42.9805 15.1982 43.335 13.501L43.3672 13.3828H40.4883L40.4668 13.4473C40.2412 14.0918 39.457 14.8008 38.168 14.8008C36.5674 14.8008 35.5684 13.7266 35.5361 11.8896H43.4639V10.9229C43.4639 7.44238 41.3477 5.1543 37.9746 5.1543C34.6016 5.1543 32.4424 7.49609 32.4424 11.1592V11.1699C32.4424 14.8545 34.5801 17.1426 38.1035 17.1426ZM38.0283 7.49609C39.3281 7.49609 40.2627 8.32324 40.4561 9.91309H35.5684C35.7725 8.35547 36.7393 7.49609 38.0283 7.49609ZM45.0859 16.9062H48.2227V10.4609C48.2227 8.78516 49.125 7.86133 50.6719 7.86133C51.123 7.86133 51.5527 7.92578 51.8105 8.0332V5.27246C51.5742 5.20801 51.252 5.1543 50.9082 5.1543C49.5654 5.1543 48.6309 5.98145 48.2871 7.39941H48.2227V5.39062H45.0859V16.9062ZM60.501 16.9062H64.0352L67.9883 5.39062H64.7119L62.3379 14.1348H62.2734L59.8672 5.39062H56.5156L60.501 16.9062ZM73.918 17.1426C77.2051 17.1426 78.7949 15.1982 79.1494 13.501L79.1816 13.3828H76.3027L76.2812 13.4473C76.0557 14.0918 75.2715 14.8008 73.9824 14.8008C72.3818 14.8008 71.3828 13.7266 71.3506 11.8896H79.2783V10.9229C79.2783 7.44238 77.1621 5.1543 73.7891 5.1543C70.416 5.1543 68.2568 7.49609 68.2568 11.1592V11.1699C68.2568 14.8545 70.3945 17.1426 73.918 17.1426ZM73.8428 7.49609C75.1426 7.49609 76.0771 8.32324 76.2705 9.91309H71.3828C71.5869 8.35547 72.5537 7.49609 73.8428 7.49609ZM80.9004 16.9062H84.0371V10.4609C84.0371 8.78516 84.9395 7.86133 86.4863 7.86133C86.9375 7.86133 87.3672 7.92578 87.625 8.0332V5.27246C87.3887 5.20801 87.0664 5.1543 86.7227 5.1543C85.3799 5.1543 84.4453 5.98145 84.1016 7.39941H84.0371V5.39062H80.9004V16.9062ZM90.5469 3.9082C91.4922 3.9082 92.2227 3.16699 92.2227 2.27539C92.2227 1.38379 91.4922 0.642578 90.5469 0.642578C89.6016 0.642578 88.8711 1.38379 88.8711 2.27539C88.8711 3.16699 89.6016 3.9082 90.5469 3.9082ZM88.9785 16.9062H92.1152V5.39062H88.9785V16.9062ZM95.0586 16.9062H98.1953V7.75391H100.408V5.39062H98.1201V4.58496C98.1201 3.75781 98.582 3.31738 99.624 3.31738C99.9141 3.31738 100.215 3.32812 100.43 3.37109V1.29785C100.064 1.22266 99.4307 1.16895 98.8506 1.16895C96.1328 1.16895 95.0586 2.21094 95.0586 4.4668V5.39062H93.4902V7.75391H95.0586V16.9062ZM103.695 3.9082C104.641 3.9082 105.371 3.16699 105.371 2.27539C105.371 1.38379 104.641 0.642578 103.695 0.642578C102.75 0.642578 102.02 1.38379 102.02 2.27539C102.02 3.16699 102.75 3.9082 103.695 3.9082ZM102.127 16.9062H105.264V5.39062H102.127V16.9062ZM112.633 17.1426C115.705 17.1426 117.692 15.2305 117.843 12.7168V12.6523H114.921L114.91 12.749C114.695 13.9092 113.911 14.6826 112.654 14.6826C111.107 14.6826 110.141 13.4043 110.141 11.1484V11.1377C110.141 8.93555 111.107 7.61426 112.644 7.61426C113.943 7.61426 114.706 8.45215 114.899 9.54785L114.921 9.64453H117.832V9.56934C117.714 7.07715 115.727 5.1543 112.601 5.1543C109.152 5.1543 106.95 7.44238 106.95 11.127V11.1377C106.95 14.8545 109.12 17.1426 112.633 17.1426ZM122.784 17.0889C124.299 17.0889 125.523 16.3691 126.179 15.1875H126.243V16.9062H129.38V9.01074C129.38 6.69043 127.457 5.1543 124.481 5.1543C121.441 5.1543 119.615 6.67969 119.443 8.80664L119.433 8.93555H122.301L122.322 8.83887C122.473 8.09766 123.182 7.5498 124.353 7.5498C125.577 7.5498 126.243 8.18359 126.243 9.2041V9.91309L123.396 10.085C120.539 10.2676 118.917 11.4922 118.917 13.5869V13.6084C118.917 15.6387 120.475 17.0889 122.784 17.0889ZM122.021 13.4473V13.4258C122.021 12.6094 122.655 12.0938 123.869 12.0186L126.243 11.8682V12.6953C126.243 13.8984 125.212 14.8008 123.805 14.8008C122.72 14.8008 122.021 14.2959 122.021 13.4473ZM135.986 17.1426C136.642 17.1426 137.146 17.0781 137.501 17.0244V14.7256C137.308 14.7471 137.104 14.7793 136.824 14.7793C135.879 14.7793 135.396 14.4141 135.396 13.3398V7.75391H137.501V5.39062H135.396V2.57617H132.227V5.39062H130.626V7.75391H132.227V13.6836C132.227 16.1543 133.43 17.1426 135.986 17.1426ZM140.863 3.9082C141.809 3.9082 142.539 3.16699 142.539 2.27539C142.539 1.38379 141.809 0.642578 140.863 0.642578C139.918 0.642578 139.188 1.38379 139.188 2.27539C139.188 3.16699 139.918 3.9082 140.863 3.9082ZM139.295 16.9062H142.432V5.39062H139.295V16.9062ZM149.822 17.1426C153.303 17.1426 155.526 14.9082 155.526 11.1484V11.127C155.526 7.39941 153.26 5.1543 149.812 5.1543C146.374 5.1543 144.118 7.4209 144.118 11.127V11.1484C144.118 14.8975 146.32 17.1426 149.822 17.1426ZM149.833 14.6826C148.286 14.6826 147.309 13.4043 147.309 11.1484V11.127C147.309 8.90332 148.297 7.61426 149.812 7.61426C151.337 7.61426 152.336 8.90332 152.336 11.127V11.1484C152.336 13.3936 151.358 14.6826 149.833 14.6826ZM157.148 16.9062H160.285V10.2891C160.285 8.78516 161.177 7.75391 162.584 7.75391C163.991 7.75391 164.7 8.61328 164.7 10.1172V16.9062H167.837V9.47266C167.837 6.77637 166.397 5.1543 163.862 5.1543C162.122 5.1543 160.94 5.95996 160.35 7.28125H160.285V5.39062H157.148V16.9062ZM179.449 17.1426C182.521 17.1426 184.509 15.2305 184.659 12.7168V12.6523H181.737L181.727 12.749C181.512 13.9092 180.728 14.6826 179.471 14.6826C177.924 14.6826 176.957 13.4043 176.957 11.1484V11.1377C176.957 8.93555 177.924 7.61426 179.46 7.61426C180.76 7.61426 181.522 8.45215 181.716 9.54785L181.737 9.64453H184.648V9.56934C184.53 7.07715 182.543 5.1543 179.417 5.1543C175.969 5.1543 173.767 7.44238 173.767 11.127V11.1377C173.767 14.8545 175.937 17.1426 179.449 17.1426ZM191.459 17.1426C194.939 17.1426 197.163 14.9082 197.163 11.1484V11.127C197.163 7.39941 194.896 5.1543 191.448 5.1543C188.011 5.1543 185.755 7.4209 185.755 11.127V11.1484C185.755 14.8975 187.957 17.1426 191.459 17.1426ZM191.47 14.6826C189.923 14.6826 188.945 13.4043 188.945 11.1484V11.127C188.945 8.90332 189.934 7.61426 191.448 7.61426C192.974 7.61426 193.973 8.90332 193.973 11.127V11.1484C193.973 13.3936 192.995 14.6826 191.47 14.6826ZM203.05 17.1426C204.715 17.1426 205.982 16.3047 206.595 14.9404H206.659V16.9062H209.796V1.40527H206.659V7.38867H206.595C205.972 5.99219 204.683 5.1543 203.05 5.1543C200.149 5.1543 198.366 7.38867 198.366 11.1377V11.1484C198.366 14.8867 200.149 17.1426 203.05 17.1426ZM204.103 14.543C202.534 14.543 201.557 13.2432 201.557 11.1484V11.1377C201.557 9.03223 202.545 7.75391 204.103 7.75391C205.617 7.75391 206.67 9.06445 206.67 11.1377V11.1484C206.67 13.2324 205.628 14.543 204.103 14.543ZM217.133 17.1426C220.42 17.1426 222.01 15.1982 222.364 13.501L222.396 13.3828H219.518L219.496 13.4473C219.271 14.0918 218.486 14.8008 217.197 14.8008C215.597 14.8008 214.598 13.7266 214.565 11.8896H222.493V10.9229C222.493 7.44238 220.377 5.1543 217.004 5.1543C213.631 5.1543 211.472 7.49609 211.472 11.1592V11.1699C211.472 14.8545 213.609 17.1426 217.133 17.1426ZM217.058 7.49609C218.357 7.49609 219.292 8.32324 219.485 9.91309H214.598C214.802 8.35547 215.769 7.49609 217.058 7.49609Z" fill="url(#paint0_linear_3_127)"/>
<defs>
<linearGradient id="paint0_linear_3_127" x1="107.213" y1="-17.7225" x2="100.769" y2="35.6714" gradientUnits="userSpaceOnUse">
<stop stop-color="#CDDDF4"/>
<stop offset="1" stop-color="#CDBAFA"/>
</linearGradient>
</defs>
</svg>
