<svg width="109" height="13" viewBox="0 0 109 13" fill="none" xmlns="http://www.w3.org/2000/svg">
<path d="M0.6092 9.90625H6.284V8.87793H1.75178V5.72949H6.04914V4.71387H1.75178V1.7749H6.284V0.746582H0.6092V9.90625ZM8.13369 9.90625H9.23818V5.85645C9.23818 4.65674 9.93008 3.92041 11.0219 3.92041C12.1137 3.92041 12.6215 4.51074 12.6215 5.74219V9.90625H13.726V5.47559C13.726 3.85059 12.869 2.94287 11.3329 2.94287C10.3236 2.94287 9.68252 3.36816 9.33975 4.0918H9.23818V3.06348H8.13369V9.90625ZM18.0766 9.95703C18.2925 9.95703 18.5019 9.93164 18.7178 9.89355V8.9541C18.5146 8.97314 18.4067 8.97949 18.2099 8.97949C17.499 8.97949 17.2197 8.65576 17.2197 7.84961V3.97754H18.7178V3.06348H17.2197V1.29248H16.0771V3.06348H14.998V3.97754H16.0771V8.12891C16.0771 9.43652 16.6675 9.95703 18.0766 9.95703ZM22.9796 10.0269C24.5919 10.0269 25.5694 9.11279 25.8043 8.18604L25.817 8.13525H24.7125L24.6871 8.19238C24.503 8.60498 23.9317 9.04297 23.0049 9.04297C21.7862 9.04297 21.0054 8.21777 20.9737 6.80225H25.8995V6.37061C25.8995 4.32666 24.7696 2.94287 22.9097 2.94287C21.0499 2.94287 19.8438 4.39014 19.8438 6.50391V6.51025C19.8438 8.65576 21.0245 10.0269 22.9796 10.0269ZM22.9034 3.92676C23.9127 3.92676 24.6617 4.56787 24.7759 5.91992H20.9927C21.1133 4.61865 21.8878 3.92676 22.9034 3.92676ZM27.5333 9.90625H28.6378V5.66602C28.6378 4.66309 29.3869 3.99658 30.4406 3.99658C30.6818 3.99658 30.8913 4.02197 31.1198 4.06006V2.9873C31.0119 2.96826 30.777 2.94287 30.5675 2.94287C29.6408 2.94287 28.9996 3.36182 28.7394 4.0791H28.6378V3.06348H27.5333V9.90625ZM39.2117 10.1221C41.0589 10.1221 42.4173 8.79541 42.4173 6.96729V6.95459C42.4173 5.19629 41.1351 3.88867 39.4148 3.88867C38.1771 3.88867 37.3138 4.55518 36.9773 5.3042H36.8567C36.8567 5.23438 36.8567 5.1582 36.8631 5.08838C36.9329 3.17773 37.6121 1.55273 39.2752 1.55273C40.202 1.55273 40.8431 2.02881 41.1224 2.79688L41.1478 2.8667H42.2967L42.2776 2.78418C41.9666 1.43213 40.824 0.530762 39.2879 0.530762C37.0662 0.530762 35.7649 2.35889 35.7649 5.48193V5.49463C35.7649 8.94141 37.5359 10.1221 39.2117 10.1221ZM37.1297 6.95459V6.94824C37.1297 5.75488 38.0311 4.88525 39.2181 4.88525C40.4051 4.88525 41.2684 5.76123 41.2684 6.97998V6.99268C41.2684 8.17969 40.3479 9.11279 39.199 9.11279C38.0374 9.11279 37.1297 8.16064 37.1297 6.95459ZM44.0829 6.73242H48.3485V5.7041H44.0829V6.73242ZM52.7563 10.0269C53.7085 10.0269 54.4702 9.57617 54.8891 8.81445H54.9907V9.90625H56.0952V0.34668H54.9907V4.14258H54.8891C54.5146 3.4126 53.6958 2.94287 52.7563 2.94287C51.0171 2.94287 49.8872 4.33301 49.8872 6.47852V6.49121C49.8872 8.62402 51.0234 10.0269 52.7563 10.0269ZM53.0102 9.04932C51.7597 9.04932 51.0171 8.08447 51.0171 6.49121V6.47852C51.0171 4.88525 51.7597 3.92041 53.0102 3.92041C54.2544 3.92041 55.0161 4.89795 55.0161 6.47852V6.49121C55.0161 8.07178 54.2544 9.04932 53.0102 9.04932ZM58.7193 1.74316C59.1382 1.74316 59.481 1.40039 59.481 0.981445C59.481 0.5625 59.1382 0.219727 58.7193 0.219727C58.3003 0.219727 57.9576 0.5625 57.9576 0.981445C57.9576 1.40039 58.3003 1.74316 58.7193 1.74316ZM58.1607 9.90625H59.2652V3.06348H58.1607V9.90625ZM64.0856 12.3184C65.9518 12.3184 67.1324 11.3408 67.1324 9.81104V3.06348H66.028V4.19336H65.9518C65.5328 3.41895 64.7838 2.94287 63.819 2.94287C62.0289 2.94287 60.9244 4.33301 60.9244 6.25V6.2627C60.9244 8.17969 62.0226 9.55078 63.7936 9.55078C64.733 9.55078 65.5074 9.12549 65.9391 8.37012H66.0406V9.75391C66.0406 10.7632 65.3107 11.3408 64.0856 11.3408C63.1017 11.3408 62.4923 10.9727 62.3717 10.4521L62.3654 10.4458H61.2228L61.2101 10.4521C61.3815 11.5757 62.4352 12.3184 64.0856 12.3184ZM64.0348 8.57324C62.7653 8.57324 62.0543 7.62109 62.0543 6.2627V6.25C62.0543 4.8916 62.7653 3.92041 64.0348 3.92041C65.298 3.92041 66.066 4.8916 66.066 6.25V6.2627C66.066 7.62109 65.3043 8.57324 64.0348 8.57324ZM69.6931 1.74316C70.112 1.74316 70.4548 1.40039 70.4548 0.981445C70.4548 0.5625 70.112 0.219727 69.6931 0.219727C69.2741 0.219727 68.9314 0.5625 68.9314 0.981445C68.9314 1.40039 69.2741 1.74316 69.6931 1.74316ZM69.1345 9.90625H70.239V3.06348H69.1345V9.90625ZM74.6721 9.95703C74.888 9.95703 75.0974 9.93164 75.3133 9.89355V8.9541C75.1101 8.97314 75.0022 8.97949 74.8055 8.97949C74.0945 8.97949 73.8152 8.65576 73.8152 7.84961V3.97754H75.3133V3.06348H73.8152V1.29248H72.6726V3.06348H71.5935V3.97754H72.6726V8.12891C72.6726 9.43652 73.263 9.95703 74.6721 9.95703ZM83.2592 10.0269C84.9033 10.0269 85.8237 9.14453 86.103 7.90674L86.1157 7.83691L85.0239 7.84326L85.0112 7.88135C84.7573 8.64307 84.1733 9.04932 83.2529 9.04932C82.0341 9.04932 81.247 8.04004 81.247 6.46582V6.45312C81.247 4.91064 82.0214 3.92041 83.2529 3.92041C84.2368 3.92041 84.8461 4.46631 85.0175 5.13916L85.0239 5.1582H86.122L86.1157 5.12012C85.9125 3.90137 84.916 2.94287 83.2529 2.94287C81.3359 2.94287 80.1171 4.32666 80.1171 6.45312V6.46582C80.1171 8.63672 81.3422 10.0269 83.2592 10.0269ZM90.4663 10.0269C92.4151 10.0269 93.6211 8.68115 93.6211 6.49121V6.47852C93.6211 4.28223 92.4151 2.94287 90.4663 2.94287C88.5176 2.94287 87.3115 4.28223 87.3115 6.47852V6.49121C87.3115 8.68115 88.5176 10.0269 90.4663 10.0269ZM90.4663 9.04932C89.1714 9.04932 88.4414 8.10352 88.4414 6.49121V6.47852C88.4414 4.85986 89.1714 3.92041 90.4663 3.92041C91.7613 3.92041 92.4912 4.85986 92.4912 6.47852V6.49121C92.4912 8.10352 91.7613 9.04932 90.4663 9.04932ZM97.7813 10.0269C98.7335 10.0269 99.4952 9.57617 99.9142 8.81445H100.016V9.90625H101.12V0.34668H100.016V4.14258H99.9142C99.5396 3.4126 98.7208 2.94287 97.7813 2.94287C96.0421 2.94287 94.9122 4.33301 94.9122 6.47852V6.49121C94.9122 8.62402 96.0484 10.0269 97.7813 10.0269ZM98.0353 9.04932C96.7848 9.04932 96.0421 8.08447 96.0421 6.49121V6.47852C96.0421 4.88525 96.7848 3.92041 98.0353 3.92041C99.2794 3.92041 100.041 4.89795 100.041 6.47852V6.49121C100.041 8.07178 99.2794 9.04932 98.0353 9.04932ZM105.953 10.0269C107.566 10.0269 108.543 9.11279 108.778 8.18604L108.791 8.13525H107.686L107.661 8.19238C107.477 8.60498 106.905 9.04297 105.979 9.04297C104.76 9.04297 103.979 8.21777 103.947 6.80225H108.873V6.37061C108.873 4.32666 107.743 2.94287 105.883 2.94287C104.024 2.94287 102.818 4.39014 102.818 6.50391V6.51025C102.818 8.65576 103.998 10.0269 105.953 10.0269ZM105.877 3.92676C106.886 3.92676 107.635 4.56787 107.75 5.91992H103.966C104.087 4.61865 104.862 3.92676 105.877 3.92676Z" fill="url(#paint0_linear_3_130)"/>
<defs>
<linearGradient id="paint0_linear_3_130" x1="52.6879" y1="-12.2122" x2="47.1854" y2="21.7201" gradientUnits="userSpaceOnUse">
<stop stop-color="#CDDDF4"/>
<stop offset="1" stop-color="#CDBAFA"/>
</linearGradient>
</defs>
</svg>
