<svg width="77" height="17" viewBox="0 0 77 17" fill="none" xmlns="http://www.w3.org/2000/svg">
<path d="M0.527344 13.3125H7.94824V11.9678H2.02148V7.85059H7.64111V6.52246H2.02148V2.6792H7.94824V1.33447H0.527344V13.3125ZM10.0617 13.3125H11.506V8.0166C11.506 6.44775 12.4108 5.48486 13.8385 5.48486C15.2663 5.48486 15.9303 6.25684 15.9303 7.86719V13.3125H17.3747V7.51855C17.3747 5.39355 16.2541 4.20654 14.2453 4.20654C12.9254 4.20654 12.0871 4.7627 11.6388 5.70898H11.506V4.36426H10.0617V13.3125ZM22.7586 13.3789C23.0408 13.3789 23.3148 13.3457 23.597 13.2959V12.0674C23.3314 12.0923 23.1903 12.1006 22.9329 12.1006C22.0032 12.1006 21.638 11.6772 21.638 10.623V5.55957H23.597V4.36426H21.638V2.04834H20.1439V4.36426H18.7327V5.55957H20.1439V10.9883C20.1439 12.6982 20.9158 13.3789 22.7586 13.3789ZM25.3452 13.3125H26.7895V7.76758C26.7895 6.45605 27.769 5.58447 29.147 5.58447C29.4624 5.58447 29.7363 5.61768 30.0351 5.66748V4.26465C29.894 4.23975 29.5869 4.20654 29.313 4.20654C28.1011 4.20654 27.2627 4.75439 26.9223 5.69238H26.7895V4.36426H25.3452V13.3125ZM32.2565 16.4502C33.8419 16.4502 34.5807 15.8691 35.3195 13.8604L38.8141 4.36426H37.2951L34.8463 11.7271H34.7135L32.2565 4.36426H30.7125L34.0246 13.3208L33.8585 13.8521C33.5348 14.8813 33.0368 15.2549 32.215 15.2549C32.0158 15.2549 31.7916 15.2466 31.6173 15.2134V16.4004C31.8165 16.4336 32.0656 16.4502 32.2565 16.4502ZM47.8637 13.3789C48.146 13.3789 48.4199 13.3457 48.7021 13.2959V12.0674C48.4365 12.0923 48.2954 12.1006 48.038 12.1006C47.1084 12.1006 46.7431 11.6772 46.7431 10.623V5.55957H48.7021V4.36426H46.7431V2.04834H45.249V4.36426H43.8379V5.55957H45.249V10.9883C45.249 12.6982 46.021 13.3789 47.8637 13.3789ZM51.214 2.6377C51.7618 2.6377 52.2101 2.18945 52.2101 1.6416C52.2101 1.09375 51.7618 0.645508 51.214 0.645508C50.6661 0.645508 50.2179 1.09375 50.2179 1.6416C50.2179 2.18945 50.6661 2.6377 51.214 2.6377ZM50.4835 13.3125H51.9279V4.36426H50.4835V13.3125ZM54.2405 13.3125H55.6848V7.76758C55.6848 6.50586 56.573 5.48486 57.7434 5.48486C58.8723 5.48486 59.6028 6.17383 59.6028 7.23633V13.3125H61.0471V7.56006C61.0471 6.42285 61.8689 5.48486 63.114 5.48486C64.3758 5.48486 64.9817 6.14062 64.9817 7.46045V13.3125H66.4261V7.12842C66.4261 5.25244 65.4051 4.20654 63.5789 4.20654C62.3421 4.20654 61.3211 4.8291 60.8396 5.77539H60.7068C60.2918 4.8457 59.4451 4.20654 58.2332 4.20654C57.0628 4.20654 56.2161 4.7627 55.8177 5.72559H55.6848V4.36426H54.2405V13.3125ZM72.2748 13.4702C74.3832 13.4702 75.6616 12.2749 75.9687 11.063L75.9853 10.9966H74.541L74.5078 11.0713C74.267 11.6108 73.52 12.1836 72.308 12.1836C70.7143 12.1836 69.6933 11.1045 69.6518 9.25342H76.0932V8.68896C76.0932 6.01611 74.6157 4.20654 72.1835 4.20654C69.7514 4.20654 68.1743 6.09912 68.1743 8.86328V8.87158C68.1743 11.6772 69.7182 13.4702 72.2748 13.4702ZM72.1752 5.49316C73.4951 5.49316 74.4745 6.33154 74.624 8.09961H69.6767C69.8344 6.39795 70.8471 5.49316 72.1752 5.49316Z" fill="url(#paint0_linear_3_573)"/>
<defs>
<linearGradient id="paint0_linear_3_573" x1="36.7267" y1="-13.6101" x2="25.6063" y2="25.8168" gradientUnits="userSpaceOnUse">
<stop stop-color="#CDDDF4"/>
<stop offset="1" stop-color="#CDBAFA"/>
</linearGradient>
</defs>
</svg>
