<svg width="84" height="14" viewBox="0 0 84 14" fill="none" xmlns="http://www.w3.org/2000/svg">
<path d="M0.527344 12.9062H7.94824V11.5615H2.02148V7.44434H7.64111V6.11621H2.02148V2.27295H7.94824V0.928223H0.527344V12.9062ZM12.5934 12.9062H14.0544L17.3664 3.95801H15.839L13.3903 11.3291H13.2575L10.8088 3.95801H9.28141L12.5934 12.9062ZM22.1859 13.064C24.2943 13.064 25.5726 11.8687 25.8797 10.6567L25.8963 10.5903H24.452L24.4188 10.665C24.178 11.2046 23.431 11.7773 22.2191 11.7773C20.6253 11.7773 19.6043 10.6982 19.5628 8.84717H26.0042V8.28271C26.0042 5.60986 24.5267 3.80029 22.0946 3.80029C19.6624 3.80029 18.0853 5.69287 18.0853 8.45703V8.46533C18.0853 11.271 19.6292 13.064 22.1859 13.064ZM22.0863 5.08691C23.4061 5.08691 24.3856 5.92529 24.535 7.69336H19.5877C19.7454 5.9917 20.7581 5.08691 22.0863 5.08691ZM27.8354 12.9062H29.2798V7.61035C29.2798 6.0415 30.1846 5.07861 31.6123 5.07861C33.04 5.07861 33.7041 5.85059 33.7041 7.46094V12.9062H35.1484V7.1123C35.1484 4.9873 34.0278 3.80029 32.019 3.80029C30.6992 3.80029 29.8608 4.35645 29.4126 5.30273H29.2798V3.95801H27.8354V12.9062ZM40.5324 12.9727C40.8146 12.9727 41.0885 12.9395 41.3707 12.8896V11.6611C41.1051 11.686 40.964 11.6943 40.7067 11.6943C39.777 11.6943 39.4118 11.271 39.4118 10.2168V5.15332H41.3707V3.95801H39.4118V1.64209H37.9176V3.95801H36.5065V5.15332H37.9176V10.582C37.9176 12.292 38.6896 12.9727 40.5324 12.9727ZM50.7939 13.064C52.039 13.064 53.0351 12.4746 53.583 11.4785H53.7158V12.9062H55.1601V0.405273H53.7158V5.36914H53.583C53.0932 4.41455 52.0224 3.80029 50.7939 3.80029C48.5195 3.80029 47.042 5.61816 47.042 8.42383V8.44043C47.042 11.2295 48.5278 13.064 50.7939 13.064ZM51.1259 11.7856C49.4907 11.7856 48.5195 10.5239 48.5195 8.44043V8.42383C48.5195 6.34033 49.4907 5.07861 51.1259 5.07861C52.7529 5.07861 53.749 6.35693 53.749 8.42383V8.44043C53.749 10.5073 52.7529 11.7856 51.1259 11.7856ZM59.9796 13.064C61.1832 13.064 62.1212 12.541 62.6857 11.5864H62.8185V12.9062H64.2628V6.78027C64.2628 4.9209 63.0426 3.80029 60.8595 3.80029C58.9503 3.80029 57.589 4.74658 57.3566 6.14941L57.3483 6.19922H58.7926L58.8009 6.17432C59.0333 5.47705 59.7389 5.07861 60.8097 5.07861C62.1461 5.07861 62.8185 5.67627 62.8185 6.78027V7.59375L60.2535 7.75146C58.17 7.87598 56.9913 8.79736 56.9913 10.3911V10.4077C56.9913 12.0347 58.278 13.064 59.9796 13.064ZM58.4689 10.3745V10.3579C58.4689 9.46973 59.0665 8.98828 60.4279 8.90527L62.8185 8.75586V9.56934C62.8185 10.8477 61.7477 11.8105 60.2784 11.8105C59.2408 11.8105 58.4689 11.2793 58.4689 10.3745ZM69.6717 12.9727C69.9539 12.9727 70.2278 12.9395 70.51 12.8896V11.6611C70.2444 11.686 70.1033 11.6943 69.846 11.6943C68.9163 11.6943 68.5511 11.271 68.5511 10.2168V5.15332H70.51V3.95801H68.5511V1.64209H67.0569V3.95801H65.6458V5.15332H67.0569V10.582C67.0569 12.292 67.8289 12.9727 69.6717 12.9727ZM75.7778 13.064C77.8862 13.064 79.1645 11.8687 79.4716 10.6567L79.4882 10.5903H78.0439L78.0107 10.665C77.77 11.2046 77.0229 11.7773 75.811 11.7773C74.2172 11.7773 73.1962 10.6982 73.1547 8.84717H79.5961V8.28271C79.5961 5.60986 78.1186 3.80029 75.6865 3.80029C73.2543 3.80029 71.6772 5.69287 71.6772 8.45703V8.46533C71.6772 11.271 73.2211 13.064 75.7778 13.064ZM75.6782 5.08691C76.998 5.08691 77.9775 5.92529 78.1269 7.69336H73.1796C73.3373 5.9917 74.35 5.08691 75.6782 5.08691ZM82.6061 6.56445C83.2037 6.56445 83.6852 6.07471 83.6852 5.48535C83.6852 4.8877 83.2037 4.40625 82.6061 4.40625C82.0167 4.40625 81.527 4.8877 81.527 5.48535C81.527 6.07471 82.0167 6.56445 82.6061 6.56445ZM82.6061 12.9893C83.2037 12.9893 83.6852 12.4995 83.6852 11.9102C83.6852 11.3125 83.2037 10.8311 82.6061 10.8311C82.0167 10.8311 81.527 11.3125 81.527 11.9102C81.527 12.4995 82.0167 12.9893 82.6061 12.9893Z" fill="url(#paint0_linear_3_1189)"/>
<defs>
<linearGradient id="paint0_linear_3_1189" x1="41.0797" y1="-14.0163" x2="30.9635" y2="25.989" gradientUnits="userSpaceOnUse">
<stop stop-color="#CDDDF4"/>
<stop offset="1" stop-color="#CDBAFA"/>
</linearGradient>
</defs>
</svg>
