<svg width="92" height="14" viewBox="0 0 92 14" fill="none" xmlns="http://www.w3.org/2000/svg">
<path d="M0.527344 12.9062H7.94824V11.5615H2.02148V7.44434H7.64111V6.11621H2.02148V2.27295H7.94824V0.928223H0.527344V12.9062ZM12.5934 12.9062H14.0544L17.3664 3.95801H15.839L13.3903 11.3291H13.2575L10.8088 3.95801H9.28141L12.5934 12.9062ZM22.1859 13.064C24.2943 13.064 25.5726 11.8687 25.8797 10.6567L25.8963 10.5903H24.452L24.4188 10.665C24.178 11.2046 23.431 11.7773 22.2191 11.7773C20.6253 11.7773 19.6043 10.6982 19.5628 8.84717H26.0042V8.28271C26.0042 5.60986 24.5267 3.80029 22.0946 3.80029C19.6624 3.80029 18.0853 5.69287 18.0853 8.45703V8.46533C18.0853 11.271 19.6292 13.064 22.1859 13.064ZM22.0863 5.08691C23.4061 5.08691 24.3856 5.92529 24.535 7.69336H19.5877C19.7454 5.9917 20.7581 5.08691 22.0863 5.08691ZM27.8354 12.9062H29.2798V7.61035C29.2798 6.0415 30.1846 5.07861 31.6123 5.07861C33.04 5.07861 33.7041 5.85059 33.7041 7.46094V12.9062H35.1484V7.1123C35.1484 4.9873 34.0278 3.80029 32.019 3.80029C30.6992 3.80029 29.8608 4.35645 29.4126 5.30273H29.2798V3.95801H27.8354V12.9062ZM40.5324 12.9727C40.8146 12.9727 41.0885 12.9395 41.3707 12.8896V11.6611C41.1051 11.686 40.964 11.6943 40.7067 11.6943C39.777 11.6943 39.4118 11.271 39.4118 10.2168V5.15332H41.3707V3.95801H39.4118V1.64209H37.9176V3.95801H36.5065V5.15332H37.9176V10.582C37.9176 12.292 38.6896 12.9727 40.5324 12.9727ZM47.4902 12.9062H48.9345V7.61035C48.9345 6.0415 49.8393 5.07861 51.2671 5.07861C52.6948 5.07861 53.3588 5.85059 53.3588 7.46094V12.9062H54.8032V7.1123C54.8032 4.9873 53.6826 3.80029 51.6738 3.80029C50.354 3.80029 49.5156 4.35645 49.0673 5.30273H48.9345V3.95801H47.4902V12.9062ZM59.465 13.064C60.6686 13.064 61.6066 12.541 62.171 11.5864H62.3038V12.9062H63.7482V6.78027C63.7482 4.9209 62.528 3.80029 60.3448 3.80029C58.4357 3.80029 57.0743 4.74658 56.8419 6.14941L56.8336 6.19922H58.278L58.2863 6.17432C58.5187 5.47705 59.2242 5.07861 60.295 5.07861C61.6315 5.07861 62.3038 5.67627 62.3038 6.78027V7.59375L59.7389 7.75146C57.6554 7.87598 56.4767 8.79736 56.4767 10.3911V10.4077C56.4767 12.0347 57.7633 13.064 59.465 13.064ZM57.9542 10.3745V10.3579C57.9542 9.46973 58.5519 8.98828 59.9132 8.90527L62.3038 8.75586V9.56934C62.3038 10.8477 61.233 11.8105 59.7638 11.8105C58.7262 11.8105 57.9542 11.2793 57.9542 10.3745ZM65.9778 12.9062H67.4221V7.36133C67.4221 6.09961 68.3103 5.07861 69.4807 5.07861C70.6096 5.07861 71.3401 5.76758 71.3401 6.83008V12.9062H72.7845V7.15381C72.7845 6.0166 73.6062 5.07861 74.8513 5.07861C76.1131 5.07861 76.719 5.73438 76.719 7.0542V12.9062H78.1634V6.72217C78.1634 4.84619 77.1424 3.80029 75.3162 3.80029C74.0794 3.80029 73.0584 4.42285 72.5769 5.36914H72.4441C72.0291 4.43945 71.1824 3.80029 69.9705 3.80029C68.8001 3.80029 67.9534 4.35645 67.555 5.31934H67.4221V3.95801H65.9778V12.9062ZM84.0121 13.064C86.1205 13.064 87.3989 11.8687 87.706 10.6567L87.7226 10.5903H86.2783L86.2451 10.665C86.0043 11.2046 85.2573 11.7773 84.0453 11.7773C82.4516 11.7773 81.4306 10.6982 81.3891 8.84717H87.8305V8.28271C87.8305 5.60986 86.353 3.80029 83.9208 3.80029C81.4887 3.80029 79.9116 5.69287 79.9116 8.45703V8.46533C79.9116 11.271 81.4555 13.064 84.0121 13.064ZM83.9125 5.08691C85.2324 5.08691 86.2119 5.92529 86.3613 7.69336H81.414C81.5717 5.9917 82.5844 5.08691 83.9125 5.08691ZM90.8404 6.56445C91.4381 6.56445 91.9195 6.07471 91.9195 5.48535C91.9195 4.8877 91.4381 4.40625 90.8404 4.40625C90.2511 4.40625 89.7613 4.8877 89.7613 5.48535C89.7613 6.07471 90.2511 6.56445 90.8404 6.56445ZM90.8404 12.9893C91.4381 12.9893 91.9195 12.4995 91.9195 11.9102C91.9195 11.3125 91.4381 10.8311 90.8404 10.8311C90.2511 10.8311 89.7613 11.3125 89.7613 11.9102C89.7613 12.4995 90.2511 12.9893 90.8404 12.9893Z" fill="url(#paint0_linear_3_1193)"/>
<defs>
<linearGradient id="paint0_linear_3_1193" x1="44.9491" y1="-14.0163" x2="35.594" y2="26.3807" gradientUnits="userSpaceOnUse">
<stop stop-color="#CDDDF4"/>
<stop offset="1" stop-color="#CDBAFA"/>
</linearGradient>
</defs>
</svg>
