<svg width="55" height="13" viewBox="0 0 55 13" fill="none" xmlns="http://www.w3.org/2000/svg">
<path d="M0.527344 12.5625H2.02148V7.37451H7.32568V6.04639H2.02148V1.9292H7.79883V0.584473H0.527344V12.5625ZM11.5392 12.7202C12.7428 12.7202 13.6808 12.1973 14.2453 11.2427H14.3781V12.5625H15.8224V6.43652C15.8224 4.57715 14.6022 3.45654 12.4191 3.45654C10.5099 3.45654 9.14859 4.40283 8.91617 5.80566L8.90787 5.85547H10.3522L10.3605 5.83057C10.5929 5.1333 11.2985 4.73486 12.3693 4.73486C13.7057 4.73486 14.3781 5.33252 14.3781 6.43652V7.25L11.8131 7.40771C9.72965 7.53223 8.55094 8.45361 8.55094 10.0474V10.064C8.55094 11.6909 9.83756 12.7202 11.5392 12.7202ZM10.0285 10.0308V10.0142C10.0285 9.12598 10.6261 8.64453 11.9875 8.56152L14.3781 8.41211V9.22559C14.3781 10.5039 13.3073 11.4668 11.838 11.4668C10.8004 11.4668 10.0285 10.9355 10.0285 10.0308ZM21.7127 12.7202C23.8626 12.7202 25.0662 11.5664 25.4315 9.94775L25.4481 9.85645L24.0203 9.86475L24.0037 9.91455C23.6717 10.9106 22.908 11.4419 21.7044 11.4419C20.1107 11.4419 19.0814 10.1221 19.0814 8.06348V8.04688C19.0814 6.02979 20.0941 4.73486 21.7044 4.73486C22.991 4.73486 23.7879 5.44873 24.012 6.32861L24.0203 6.35352H25.4564L25.4481 6.30371C25.1824 4.70996 23.8792 3.45654 21.7044 3.45654C19.1976 3.45654 17.6038 5.26611 17.6038 8.04688V8.06348C17.6038 10.9023 19.2059 12.7202 21.7127 12.7202ZM30.8071 12.7202C32.9155 12.7202 34.1938 11.5249 34.501 10.313L34.5176 10.2466H33.0732L33.04 10.3213C32.7993 10.8608 32.0522 11.4336 30.8403 11.4336C29.2466 11.4336 28.2256 10.3545 28.1841 8.50342H34.6255V7.93896C34.6255 5.26611 33.1479 3.45654 30.7158 3.45654C28.2837 3.45654 26.7065 5.34912 26.7065 8.11328V8.12158C26.7065 10.9272 28.2505 12.7202 30.8071 12.7202ZM30.7075 4.74316C32.0273 4.74316 33.0068 5.58154 33.1562 7.34961H28.209C28.3667 5.64795 29.3794 4.74316 30.7075 4.74316ZM41.0105 12.5625H42.5047V0.584473H41.0105V12.5625ZM45.1494 12.5625H49.2583C52.8193 12.5625 54.9111 10.3462 54.9111 6.57764V6.56104C54.9111 2.80078 52.811 0.584473 49.2583 0.584473H45.1494V12.5625ZM46.6435 11.2178V1.9292H49.1587C51.8149 1.9292 53.3838 3.65576 53.3838 6.57764V6.59424C53.3838 9.50781 51.8315 11.2178 49.1587 11.2178H46.6435Z" fill="url(#paint0_linear_3_925)"/>
<defs>
<linearGradient id="paint0_linear_3_925" x1="26.5695" y1="-14.3601" x2="12.2715" y2="22.6848" gradientUnits="userSpaceOnUse">
<stop stop-color="#CDDDF4"/>
<stop offset="1" stop-color="#CDBAFA"/>
</linearGradient>
</defs>
</svg>
