<svg width="24" height="25" viewBox="0 0 24 25" fill="none" xmlns="http://www.w3.org/2000/svg">
<path d="M21.4073 19.862L16.9969 15.4516C18.0587 14.038 18.6319 12.3174 18.63 10.5494C18.63 6.03344 14.9559 2.35938 10.44 2.35938C5.92406 2.35938 2.25 6.03344 2.25 10.5494C2.25 15.0653 5.92406 18.7394 10.44 18.7394C12.208 18.7413 13.9286 18.1681 15.3422 17.1063L19.7527 21.5167C19.9759 21.7163 20.2671 21.8228 20.5664 21.8144C20.8658 21.8061 21.1506 21.6834 21.3623 21.4717C21.574 21.2599 21.6967 20.9752 21.7051 20.6758C21.7135 20.3765 21.6069 20.0853 21.4073 19.862ZM4.59 10.5494C4.59 9.39235 4.9331 8.26132 5.5759 7.29929C6.21871 6.33726 7.13235 5.58745 8.2013 5.14468C9.27025 4.70191 10.4465 4.58606 11.5813 4.81178C12.7161 5.03751 13.7584 5.59466 14.5766 6.4128C15.3947 7.23094 15.9519 8.27331 16.1776 9.4081C16.4033 10.5429 16.2875 11.7191 15.8447 12.7881C15.4019 13.857 14.6521 14.7707 13.6901 15.4135C12.7281 16.0563 11.597 16.3994 10.44 16.3994C8.88906 16.3975 7.40217 15.7806 6.30548 14.6839C5.2088 13.5872 4.59186 12.1003 4.59 10.5494Z" fill="#E5E5E5" stroke="#E5E5E5"/>
</svg>
