<svg width="25" height="13" viewBox="0 0 25 13" fill="none" xmlns="http://www.w3.org/2000/svg">
<path d="M3.59 1.26937C2.602 1.26937 2.258 1.33637 1.904 1.52537C1.622 1.67537 1.407 1.89137 1.256 2.17337C1.066 2.52737 1 2.87137 1 3.85837V8.18038C1 9.16738 1.067 9.51137 1.256 9.86537C1.406 10.1474 1.622 10.3624 1.904 10.5134C2.258 10.7034 2.602 10.7694 3.589 10.7694H18.411C19.398 10.7694 19.742 10.7024 20.096 10.5134C20.378 10.3634 20.593 10.1474 20.744 9.86537C20.934 9.51137 21 9.16738 21 8.18038V3.85837C21 2.87137 20.933 2.52737 20.744 2.17337C20.5985 1.89681 20.3726 1.67087 20.096 1.52537C19.742 1.33537 19.398 1.26937 18.411 1.26937H3.589H3.59ZM3.59 0.269375H18.41C19.659 0.269375 20.111 0.399375 20.568 0.643375C21.024 0.887375 21.382 1.24537 21.626 1.70137C21.87 2.15837 22 2.61137 22 3.85837V8.18038C22 9.42838 21.87 9.88037 21.626 10.3374C21.3874 10.7881 21.0187 11.1567 20.568 11.3954C20.111 11.6394 19.658 11.7694 18.411 11.7694H3.589C2.341 11.7694 1.889 11.6394 1.432 11.3954C0.981252 11.1567 0.612639 10.7881 0.374 10.3374C0.13 9.87937 0 9.42737 0 8.17937V3.85837C0 2.61037 0.13 2.15837 0.374 1.70137C0.612639 1.25063 0.981252 0.882014 1.432 0.643375C1.89 0.399375 2.342 0.269375 3.59 0.269375ZM23 3.95937C24 4.46837 24.5 5.13538 24.5 5.95937C24.5 6.78337 24 7.45038 23 7.95937V3.95937Z" fill="black" fill-opacity="0.36"/>
<path fill-rule="evenodd" clip-rule="evenodd" d="M4.051 2.18637H17.95C18.663 2.18637 18.922 2.26037 19.182 2.39937C19.443 2.53937 19.648 2.74337 19.787 3.00437C19.927 3.26437 20.001 3.52437 20.001 4.23737V7.80137C20.001 8.51437 19.927 8.77338 19.787 9.03438C19.647 9.29438 19.443 9.49937 19.182 9.63937C18.922 9.77937 18.663 9.85238 17.95 9.85238H4.05C3.337 9.85238 3.078 9.77837 2.818 9.63937C2.56022 9.50295 2.34942 9.29216 2.213 9.03438C2.074 8.77437 2 8.51437 2 7.80137V4.23737C2 3.52437 2.074 3.26537 2.214 3.00437C2.354 2.74437 2.558 2.53937 2.819 2.39937C3.079 2.25937 3.338 2.18637 4.051 2.18637Z" fill="black"/>
</svg>
