<svg width="24" height="25" viewBox="0 0 24 25" fill="none" xmlns="http://www.w3.org/2000/svg">
<path d="M21.4073 20.612L16.9969 16.2016C18.0587 14.788 18.6319 13.0674 18.63 11.2994C18.63 6.78344 14.9559 3.10938 10.44 3.10938C5.92406 3.10938 2.25 6.78344 2.25 11.2994C2.25 15.8153 5.92406 19.4894 10.44 19.4894C12.208 19.4913 13.9286 18.9181 15.3422 17.8563L19.7527 22.2667C19.9759 22.4663 20.2671 22.5728 20.5664 22.5644C20.8658 22.5561 21.1506 22.4334 21.3623 22.2217C21.574 22.0099 21.6967 21.7252 21.7051 21.4258C21.7135 21.1265 21.6069 20.8353 21.4073 20.612ZM4.59 11.2994C4.59 10.1424 4.9331 9.01132 5.5759 8.04929C6.21871 7.08726 7.13235 6.33745 8.2013 5.89468C9.27025 5.45191 10.4465 5.33606 11.5813 5.56178C12.7161 5.78751 13.7584 6.34466 14.5766 7.1628C15.3947 7.98094 15.9519 9.02331 16.1776 10.1581C16.4033 11.2929 16.2875 12.4691 15.8447 13.5381C15.4019 14.607 14.6521 15.5207 13.6901 16.1635C12.7281 16.8063 11.597 17.1494 10.44 17.1494C8.88906 17.1475 7.40217 16.5306 6.30548 15.4339C5.2088 14.3372 4.59186 12.8503 4.59 11.2994Z" fill="#E5E5E5" stroke="#E5E5E5"/>
</svg>
