<svg width="24" height="25" viewBox="0 0 24 25" fill="none" xmlns="http://www.w3.org/2000/svg">
<path d="M11.25 23.4062V21.6991C7.52484 21.4844 5.26172 19.5653 5.25 16.6562H8.625C8.70797 17.8909 9.74344 18.8336 11.25 19V14.4062L9.99516 14.0781C7.13578 13.4134 5.60578 11.763 5.60578 9.29313C5.60578 6.38172 7.69125 4.4725 11.25 4.1875V2.40625H12.75V4.1875C16.3777 4.48281 18.3281 6.42531 18.375 9.15625H15C14.9644 8.02844 14.258 7.12234 12.75 7V11.3125L14.1947 11.6537C17.2317 12.3184 18.75 13.8906 18.75 16.4688C18.75 19.4847 16.6997 21.4319 12.75 21.6869V23.4062H11.25ZM11.25 11.0312V7C9.95672 7.07125 9.03422 7.86578 9.03422 8.99359C9.03422 10.0389 9.8025 10.7223 11.25 11.0312ZM12.75 14.6875V19C14.5383 18.9278 15.3928 18.1131 15.3928 16.8545C15.3928 15.7023 14.5383 14.9266 12.75 14.6875Z" fill="#E5E5E5" stroke="#E5E5E5"/>
</svg>
