<svg width="21" height="22" viewBox="0 0 21 22" fill="none" xmlns="http://www.w3.org/2000/svg">
<path d="M16.4062 2.875H4.59375C3.89779 2.87576 3.23055 3.15257 2.73843 3.64468C2.24632 4.1368 1.96951 4.80404 1.96875 5.5V17.3125C1.96951 18.0085 2.24632 18.6757 2.73843 19.1678C3.23055 19.6599 3.89779 19.9367 4.59375 19.9375H16.4062C17.1022 19.9367 17.7694 19.6599 18.2616 19.1678C18.7537 18.6757 19.0305 18.0085 19.0312 17.3125V5.5C19.0305 4.80404 18.7537 4.1368 18.2616 3.64468C17.7694 3.15257 17.1022 2.87576 16.4062 2.875V2.875ZM14.9399 8.54705L9.42744 15.1096C9.36697 15.1816 9.29173 15.2398 9.20681 15.2802C9.12189 15.3206 9.02928 15.3423 8.93525 15.3438H8.92418C8.8322 15.3437 8.74125 15.3243 8.65723 15.2869C8.57322 15.2494 8.49802 15.1948 8.4365 15.1264L6.074 12.5014C6.014 12.4377 5.96733 12.3627 5.93673 12.2808C5.90612 12.1989 5.89221 12.1117 5.89579 12.0243C5.89938 11.9369 5.9204 11.8511 5.95762 11.7719C5.99483 11.6928 6.04749 11.6219 6.11251 11.5634C6.17752 11.5049 6.25357 11.4599 6.33619 11.4313C6.41881 11.4026 6.50634 11.3907 6.59362 11.3963C6.6809 11.4019 6.76618 11.4249 6.84444 11.4639C6.9227 11.503 6.99237 11.5573 7.04936 11.6236L8.90695 13.6875L13.9351 7.70295C14.0478 7.57255 14.2074 7.49178 14.3793 7.47808C14.5511 7.46439 14.7215 7.51887 14.8535 7.62976C14.9855 7.74065 15.0686 7.89904 15.0848 8.07069C15.1009 8.24233 15.0489 8.41345 14.9399 8.54705V8.54705Z" fill="#F7F5F9" stroke="#F7F5F9"/>
</svg>
