<svg width="24" height="25" viewBox="0 0 24 25" fill="none" xmlns="http://www.w3.org/2000/svg">
<path d="M19.6467 5.40625H19.6406L17.9977 5.42172L6 5.40625H5.9925L4.27031 5.42172C3.13734 5.42406 2.25 6.34703 2.25 7.525V18.3189C2.25 19.4978 3.14062 20.4217 4.275 20.4217H4.28203L6.00281 20.4062L17.9991 20.4217H18.007L19.6509 20.4062C20.2079 20.4046 20.7415 20.1824 21.1349 19.7882C21.5283 19.394 21.7495 18.8599 21.75 18.303V7.50953C21.7494 6.9519 21.5276 6.41728 21.1333 6.02297C20.739 5.62866 20.2044 5.40687 19.6467 5.40625ZM6.75 15.9062C6.75 16.1052 6.67098 16.2959 6.53033 16.4366C6.38968 16.5772 6.19891 16.6562 6 16.6562C5.80109 16.6562 5.61032 16.5772 5.46967 16.4366C5.32902 16.2959 5.25 16.1052 5.25 15.9062V9.90625C5.25 9.70734 5.32902 9.51657 5.46967 9.37592C5.61032 9.23527 5.80109 9.15625 6 9.15625C6.19891 9.15625 6.38968 9.23527 6.53033 9.37592C6.67098 9.51657 6.75 9.70734 6.75 9.90625V15.9062ZM9.75 17.4062C9.75 17.6052 9.67098 17.7959 9.53033 17.9366C9.38968 18.0772 9.19891 18.1562 9 18.1562C8.80109 18.1562 8.61032 18.0772 8.46967 17.9366C8.32902 17.7959 8.25 17.6052 8.25 17.4062V8.40625C8.25 8.20734 8.32902 8.01657 8.46967 7.87592C8.61032 7.73527 8.80109 7.65625 9 7.65625C9.19891 7.65625 9.38968 7.73527 9.53033 7.87592C9.67098 8.01657 9.75 8.20734 9.75 8.40625V17.4062ZM12.75 16.6562C12.75 16.8552 12.671 17.0459 12.5303 17.1866C12.3897 17.3272 12.1989 17.4062 12 17.4062C11.8011 17.4062 11.6103 17.3272 11.4697 17.1866C11.329 17.0459 11.25 16.8552 11.25 16.6562V9.15625C11.25 8.95734 11.329 8.76657 11.4697 8.62592C11.6103 8.48527 11.8011 8.40625 12 8.40625C12.1989 8.40625 12.3897 8.48527 12.5303 8.62592C12.671 8.76657 12.75 8.95734 12.75 9.15625V16.6562ZM15.75 17.4062C15.75 17.6052 15.671 17.7959 15.5303 17.9366C15.3897 18.0772 15.1989 18.1562 15 18.1562C14.8011 18.1562 14.6103 18.0772 14.4697 17.9366C14.329 17.7959 14.25 17.6052 14.25 17.4062V8.40625C14.25 8.20734 14.329 8.01657 14.4697 7.87592C14.6103 7.73527 14.8011 7.65625 15 7.65625C15.1989 7.65625 15.3897 7.73527 15.5303 7.87592C15.671 8.01657 15.75 8.20734 15.75 8.40625V17.4062ZM18.75 15.9062C18.75 16.1052 18.671 16.2959 18.5303 16.4366C18.3897 16.5772 18.1989 16.6562 18 16.6562C17.8011 16.6562 17.6103 16.5772 17.4697 16.4366C17.329 16.2959 17.25 16.1052 17.25 15.9062V9.90625C17.25 9.70734 17.329 9.51657 17.4697 9.37592C17.6103 9.23527 17.8011 9.15625 18 9.15625C18.1989 9.15625 18.3897 9.23527 18.5303 9.37592C18.671 9.51657 18.75 9.70734 18.75 9.90625V15.9062Z" fill="#E5E5E5" stroke="#E5E5E5"/>
</svg>
