<svg width="12" height="22" viewBox="0 0 12 22" fill="none" xmlns="http://www.w3.org/2000/svg">
<path fill-rule="evenodd" clip-rule="evenodd" d="M9.5372 21.2392L0.292205 12.1022C0.199683 12.0115 0.126187 11.9032 0.0760144 11.7837C0.0258419 11.6642 0 11.5359 0 11.4062C0 11.2766 0.0258419 11.1483 0.0760144 11.0288C0.126187 10.9093 0.199683 10.801 0.292205 10.7102L9.5372 1.57324C9.80944 1.30598 10.1757 1.15625 10.5572 1.15625C10.9387 1.15625 11.305 1.30598 11.5772 1.57324C12.1402 2.13024 12.1402 3.03324 11.5772 3.58924L3.67021 11.4062L11.5792 19.2222C12.1412 19.7792 12.1412 20.6822 11.5792 21.2392C11.307 21.5065 10.9407 21.6562 10.5592 21.6562C10.1777 21.6562 9.81144 21.5065 9.5392 21.2392" fill="#A5AFFB"/>
</svg>
