<svg width="18" height="13" viewBox="0 0 18 13" fill="none" xmlns="http://www.w3.org/2000/svg">
<path fill-rule="evenodd" clip-rule="evenodd" d="M1.89 8.20623H2.11C2.467 8.20623 2.69 8.26223 2.886 8.36623C3.082 8.47123 3.236 8.62423 3.34 8.82023C3.444 9.01523 3.5 9.24022 3.5 9.59622V10.8162C3.5 11.1732 3.444 11.3962 3.34 11.5922C3.23768 11.7857 3.07948 11.9439 2.886 12.0462C2.691 12.1502 2.466 12.2062 2.11 12.2062H1.89C1.533 12.2062 1.31 12.1502 1.114 12.0462C0.920517 11.9439 0.76232 11.7857 0.66 11.5922C0.556 11.3972 0.5 11.1722 0.5 10.8162V9.59622C0.5 9.23922 0.556 9.01623 0.66 8.82023C0.76232 8.62674 0.920517 8.46855 1.114 8.36623C1.309 8.26223 1.534 8.20623 1.89 8.20623ZM6.69 6.20623H6.91C7.267 6.20623 7.49 6.26223 7.686 6.36623C7.882 6.47123 8.036 6.62423 8.14 6.82023C8.244 7.01523 8.3 7.24023 8.3 7.59623V10.8162C8.3 11.1732 8.244 11.3962 8.14 11.5922C8.03768 11.7857 7.87948 11.9439 7.686 12.0462C7.491 12.1502 7.266 12.2062 6.91 12.2062H6.69C6.333 12.2062 6.11 12.1502 5.914 12.0462C5.72052 11.9439 5.56232 11.7857 5.46 11.5922C5.356 11.3972 5.3 11.1722 5.3 10.8162V7.59623C5.3 7.23923 5.356 7.01623 5.46 6.82023C5.56232 6.62674 5.72052 6.46855 5.914 6.36623C6.109 6.26223 6.334 6.20623 6.69 6.20623ZM11.29 3.90623H11.51C11.867 3.90623 12.09 3.96223 12.286 4.06623C12.482 4.17123 12.636 4.32423 12.74 4.52023C12.844 4.71523 12.9 4.94023 12.9 5.29623V10.8162C12.9 11.1732 12.844 11.3962 12.74 11.5922C12.6377 11.7857 12.4795 11.9439 12.286 12.0462C12.091 12.1502 11.866 12.2062 11.51 12.2062H11.29C10.933 12.2062 10.71 12.1502 10.514 12.0462C10.3205 11.9439 10.1623 11.7857 10.06 11.5922C9.956 11.3972 9.9 11.1722 9.9 10.8162V5.29623C9.9 4.93923 9.956 4.71623 10.06 4.52023C10.1623 4.32674 10.3205 4.16855 10.514 4.06623C10.709 3.96223 10.934 3.90623 11.29 3.90623ZM15.99 1.50623H16.21C16.567 1.50623 16.79 1.56223 16.986 1.66623C17.182 1.77123 17.336 1.92423 17.44 2.12023C17.544 2.31523 17.6 2.54023 17.6 2.89623V10.8162C17.6 11.1732 17.544 11.3962 17.44 11.5922C17.3377 11.7857 17.1795 11.9439 16.986 12.0462C16.791 12.1502 16.566 12.2062 16.21 12.2062H15.99C15.633 12.2062 15.41 12.1502 15.214 12.0462C15.0205 11.9439 14.8623 11.7857 14.76 11.5922C14.656 11.3972 14.6 11.1722 14.6 10.8162V2.89623C14.6 2.53923 14.656 2.31623 14.76 2.12023C14.8623 1.92674 15.0205 1.76855 15.214 1.66623C15.409 1.56223 15.634 1.50623 15.99 1.50623Z" fill="black"/>
</svg>
