<svg width="24" height="25" viewBox="0 0 24 25" fill="none" xmlns="http://www.w3.org/2000/svg">
<path d="M12.2607 5.65376C12.1909 5.587 12.098 5.54974 12.0015 5.54974C11.9049 5.54974 11.812 5.587 11.7422 5.65376L3.11255 13.8977C3.0759 13.9327 3.04674 13.9749 3.02684 14.0215C3.00694 14.0682 2.99671 14.1184 2.99677 14.1691L2.99536 21.9063C2.99536 22.3041 3.1534 22.6856 3.4347 22.9669C3.71601 23.2482 4.09754 23.4063 4.49536 23.4063H9.00005C9.19896 23.4063 9.38973 23.3273 9.53038 23.1866C9.67103 23.046 9.75005 22.8552 9.75005 22.6563V16.2813C9.75005 16.1818 9.78956 16.0864 9.85989 16.0161C9.93021 15.9458 10.0256 15.9063 10.1251 15.9063H13.8751C13.9745 15.9063 14.0699 15.9458 14.1402 16.0161C14.2105 16.0864 14.2501 16.1818 14.2501 16.2813V22.6563C14.2501 22.8552 14.3291 23.046 14.4697 23.1866C14.6104 23.3273 14.8011 23.4063 15.0001 23.4063H19.5029C19.9007 23.4063 20.2822 23.2482 20.5635 22.9669C20.8448 22.6856 21.0029 22.3041 21.0029 21.9063V14.1691C21.0029 14.1184 20.9927 14.0682 20.9728 14.0215C20.9529 13.9749 20.9237 13.9327 20.8871 13.8977L12.2607 5.65376Z" fill="#E5E5E5" stroke="#E5E5E5"/>
<path d="M23.0114 12.3508L19.5052 8.99641V3.90625C19.5052 3.70734 19.4261 3.51657 19.2855 3.37592C19.1448 3.23527 18.9541 3.15625 18.7552 3.15625H16.5052C16.3063 3.15625 16.1155 3.23527 15.9748 3.37592C15.8342 3.51657 15.7552 3.70734 15.7552 3.90625V5.40625L13.0402 2.81031C12.7861 2.55344 12.4083 2.40625 12 2.40625C11.5931 2.40625 11.2163 2.55344 10.9622 2.81078L0.991893 12.3499C0.70033 12.6311 0.663768 13.0938 0.92908 13.3985C0.995704 13.4754 1.07728 13.5379 1.16884 13.5823C1.26041 13.6267 1.36005 13.6519 1.46169 13.6566C1.56334 13.6612 1.66487 13.6452 1.7601 13.6093C1.85533 13.5735 1.94228 13.5186 2.01564 13.4481L11.7422 4.15375C11.812 4.08699 11.9048 4.04973 12.0014 4.04973C12.098 4.04973 12.1908 4.08699 12.2606 4.15375L21.9881 13.4481C22.1314 13.5856 22.3234 13.6605 22.5218 13.6567C22.7203 13.6528 22.9092 13.5704 23.047 13.4275C23.3348 13.1294 23.3109 12.6372 23.0114 12.3508Z" fill="#E5E5E5" stroke="#E5E5E5"/>
</svg>
