<svg width="16" height="13" viewBox="0 0 16 13" fill="none" xmlns="http://www.w3.org/2000/svg">
<path fill-rule="evenodd" clip-rule="evenodd" d="M8.30004 3.60225C10.535 3.60225 12.684 4.46125 14.303 6.00125C14.3616 6.05843 14.4405 6.0901 14.5224 6.08935C14.6042 6.0886 14.6825 6.05549 14.74 5.99725L15.906 4.82125C15.9362 4.79093 15.9601 4.75495 15.9762 4.71537C15.9924 4.67578 16.0006 4.63339 16.0003 4.59063C16.0001 4.54786 15.9913 4.50558 15.9746 4.46621C15.9579 4.42684 15.9336 4.39117 15.903 4.36125C13.8574 2.40068 11.1335 1.30613 8.30004 1.30613C5.46659 1.30613 2.74267 2.40068 0.69704 4.36125C0.666486 4.39117 0.642158 4.42684 0.625459 4.46621C0.608759 4.50558 0.600017 4.54786 0.599738 4.59063C0.599459 4.63339 0.607649 4.67578 0.623834 4.71537C0.640019 4.75495 0.663879 4.79093 0.69404 4.82125L1.86004 5.99625C1.91759 6.05449 1.99584 6.0876 2.07771 6.08835C2.15959 6.0891 2.23843 6.05743 2.29704 6.00025C3.91653 4.46075 6.06558 3.60228 8.30004 3.60225ZM8.30004 7.43025C9.52804 7.43025 10.712 7.88625 11.622 8.71025C11.6813 8.76645 11.7601 8.79727 11.8418 8.79615C11.9234 8.79503 12.0014 8.76205 12.059 8.70425L13.223 7.52825C13.2535 7.49775 13.2775 7.4615 13.2938 7.42161C13.3101 7.38173 13.3183 7.339 13.3179 7.29591C13.3176 7.25283 13.3086 7.21025 13.2917 7.17065C13.2747 7.13105 13.25 7.09522 13.219 7.06525C11.8831 5.82281 10.1264 5.13217 8.30204 5.13217C6.47768 5.13217 4.72095 5.82281 3.38504 7.06525C3.35402 7.09516 3.32926 7.13093 3.3122 7.1705C3.29513 7.21006 3.2861 7.25262 3.28564 7.2957C3.28517 7.33879 3.29328 7.38153 3.30949 7.42146C3.32569 7.46138 3.34968 7.49768 3.38004 7.52825L4.54404 8.70425C4.66404 8.82425 4.85804 8.82725 4.98104 8.71025C5.8907 7.88667 7.07394 7.43048 8.30104 7.43025H8.30004ZM10.538 10.2373C10.5686 10.207 10.5927 10.1708 10.6089 10.1308C10.625 10.0909 10.6329 10.0481 10.6319 10.0051C10.631 9.96206 10.6213 9.91966 10.6034 9.88048C10.5856 9.84131 10.5599 9.80618 10.528 9.77725C9.90519 9.25043 9.11581 8.96136 8.30004 8.96136C7.48427 8.96136 6.69489 9.25043 6.07204 9.77725C6.04016 9.80618 6.01451 9.84131 5.99664 9.88048C5.97878 9.91966 5.96909 9.96206 5.96815 10.0051C5.96722 10.0481 5.97506 10.0909 5.9912 10.1308C6.00734 10.1708 6.03145 10.207 6.06204 10.2373L8.07704 12.2703C8.10625 12.2999 8.14105 12.3234 8.17942 12.3394C8.21778 12.3554 8.25895 12.3637 8.30054 12.3637C8.34213 12.3637 8.3833 12.3554 8.42166 12.3394C8.46003 12.3234 8.49483 12.2999 8.52404 12.2703L10.538 10.2373Z" fill="black"/>
</svg>
