<svg width="24" height="25" viewBox="0 0 24 25" fill="none" xmlns="http://www.w3.org/2000/svg">
<path d="M11.25 22.6094V20.9022C7.52484 20.6875 5.26172 18.7684 5.25 15.8594H8.625C8.70797 17.0941 9.74344 18.0367 11.25 18.2031V13.6094L9.99516 13.2812C7.13578 12.6166 5.60578 10.9661 5.60578 8.49625C5.60578 5.58484 7.69125 3.67563 11.25 3.39062V1.60938H12.75V3.39062C16.3777 3.68594 18.3281 5.62844 18.375 8.35938H15C14.9644 7.23156 14.258 6.32547 12.75 6.20312V10.5156L14.1947 10.8569C17.2317 11.5216 18.75 13.0938 18.75 15.6719C18.75 18.6878 16.6997 20.635 12.75 20.89V22.6094H11.25ZM11.25 10.2344V6.20312C9.95672 6.27437 9.03422 7.06891 9.03422 8.19672C9.03422 9.24203 9.8025 9.92547 11.25 10.2344ZM12.75 13.8906V18.2031C14.5383 18.1309 15.3928 17.3163 15.3928 16.0577C15.3928 14.9055 14.5383 14.1297 12.75 13.8906Z" fill="#E5E5E5" stroke="#E5E5E5"/>
</svg>
