<svg width="26" height="27" viewBox="0 0 26 27" fill="none" xmlns="http://www.w3.org/2000/svg">
<path d="M14.7235 13.9062L19.5477 9.08203C19.7767 8.85348 19.9055 8.54333 19.9058 8.21983C19.906 7.89632 19.7778 7.58595 19.5493 7.35699C19.3207 7.12804 19.0106 6.99925 18.6871 6.99896C18.3635 6.99868 18.0532 7.12692 17.8242 7.35547L13 12.1797L8.17579 7.35547C7.94683 7.12651 7.6363 6.99789 7.31251 6.99789C6.98871 6.99789 6.67818 7.12651 6.44923 7.35547C6.22027 7.58443 6.09164 7.89496 6.09164 8.21875C6.09164 8.54254 6.22027 8.85307 6.44923 9.08203L11.2734 13.9062L6.44923 18.7305C6.22027 18.9594 6.09164 19.2699 6.09164 19.5937C6.09164 19.9175 6.22027 20.2281 6.44923 20.457C6.67818 20.686 6.98871 20.8146 7.31251 20.8146C7.6363 20.8146 7.94683 20.686 8.17579 20.457L13 15.6328L17.8242 20.457C18.0532 20.686 18.3637 20.8146 18.6875 20.8146C19.0113 20.8146 19.3218 20.686 19.5508 20.457C19.7797 20.2281 19.9084 19.9175 19.9084 19.5937C19.9084 19.2699 19.7797 18.9594 19.5508 18.7305L14.7235 13.9062Z" fill="#A5AFFB" stroke="#A5AFFB"/>
</svg>
