<svg width="24" height="25" viewBox="0 0 24 25" fill="none" xmlns="http://www.w3.org/2000/svg">
<path d="M18.4687 23.0625C18.3109 23.0631 18.1568 23.0139 18.0286 22.9219L12 18.5512L5.97139 22.9219C5.84259 23.0153 5.68742 23.0653 5.52831 23.0647C5.36921 23.0641 5.21441 23.013 5.08629 22.9186C4.95818 22.8243 4.86339 22.6916 4.81563 22.5399C4.76787 22.3881 4.76961 22.2251 4.82061 22.0744L7.17185 15.1101L1.07811 10.9312C0.946112 10.8408 0.846491 10.7106 0.793797 10.5595C0.741103 10.4084 0.7381 10.2445 0.785225 10.0916C0.83235 9.93867 0.927135 9.80485 1.05573 9.70966C1.18432 9.61447 1.33999 9.5629 1.49998 9.56248H9.01779L11.2865 2.58045C11.3354 2.42971 11.4308 2.29833 11.5589 2.20514C11.6871 2.11196 11.8415 2.06177 12 2.06177C12.1584 2.06177 12.3128 2.11196 12.441 2.20514C12.5692 2.29833 12.6645 2.42971 12.7134 2.58045L14.9822 9.56483H22.5C22.6602 9.56475 22.8162 9.61596 22.9452 9.71097C23.0741 9.80597 23.1693 9.93978 23.2167 10.0928C23.2641 10.2458 23.2613 10.41 23.2087 10.5613C23.156 10.7126 23.0563 10.843 22.9242 10.9336L16.8281 15.1101L19.1779 22.0725C19.216 22.1852 19.2267 22.3054 19.2092 22.423C19.1916 22.5407 19.1464 22.6525 19.0771 22.7493C19.0078 22.846 18.9165 22.9248 18.8107 22.9793C18.7049 23.0337 18.5877 23.0623 18.4687 23.0625Z" fill="#E5E5E5" stroke="#E5E5E5"/>
</svg>
