<svg width="24" height="25" viewBox="0 0 24 25" fill="none" xmlns="http://www.w3.org/2000/svg">
<path fill-rule="evenodd" clip-rule="evenodd" d="M9.46291 18.2155C9.58772 18.2184 9.71179 18.1955 9.8274 18.1484C9.94301 18.1013 10.0477 18.0308 10.1349 17.9415L15.1069 13.0195C15.3399 12.7955 15.4469 12.5545 15.4469 12.2645C15.4469 11.9745 15.3399 11.7245 15.1159 11.5085L10.1359 6.5865C10.0483 6.49712 9.94328 6.42668 9.82735 6.37955C9.71141 6.33242 9.58703 6.3096 9.46191 6.3125C9.3359 6.31171 9.21097 6.33582 9.0943 6.38343C8.97763 6.43105 8.87151 6.50123 8.78203 6.58997C8.69256 6.6787 8.62149 6.78423 8.5729 6.9005C8.52431 7.01677 8.49917 7.14149 8.49891 7.2675C8.49891 7.5325 8.60691 7.7735 8.79791 7.9725L13.1639 12.2725L8.79791 16.5635C8.65844 16.6955 8.56192 16.8664 8.52088 17.054C8.47985 17.2416 8.4962 17.4372 8.56782 17.6154C8.63944 17.7936 8.76301 17.9461 8.92246 18.0531C9.08191 18.1602 9.26987 18.2167 9.46191 18.2155H9.46291Z" fill="#C7C7CC"/>
</svg>
