<svg width="25" height="13" viewBox="0 0 25 13" fill="none" xmlns="http://www.w3.org/2000/svg">
<path d="M3.59 1.4725C2.602 1.4725 2.258 1.5395 1.904 1.7285C1.622 1.8785 1.407 2.0945 1.256 2.3765C1.066 2.7305 1 3.0745 1 4.0615V8.3835C1 9.3705 1.067 9.7145 1.256 10.0685C1.406 10.3505 1.622 10.5655 1.904 10.7165C2.258 10.9065 2.602 10.9725 3.589 10.9725H18.411C19.398 10.9725 19.742 10.9055 20.096 10.7165C20.378 10.5665 20.593 10.3505 20.744 10.0685C20.934 9.7145 21 9.3705 21 8.3835V4.0615C21 3.0745 20.933 2.7305 20.744 2.3765C20.5985 2.09994 20.3726 1.874 20.096 1.7285C19.742 1.5385 19.398 1.4725 18.411 1.4725H3.589H3.59ZM3.59 0.4725H18.41C19.659 0.4725 20.111 0.6025 20.568 0.8465C21.024 1.0905 21.382 1.4485 21.626 1.9045C21.87 2.3615 22 2.8145 22 4.0615V8.3835C22 9.6315 21.87 10.0835 21.626 10.5405C21.3874 10.9912 21.0187 11.3599 20.568 11.5985C20.111 11.8425 19.658 11.9725 18.411 11.9725H3.589C2.341 11.9725 1.889 11.8425 1.432 11.5985C0.981252 11.3599 0.612639 10.9912 0.374 10.5405C0.13 10.0825 0 9.6305 0 8.3825V4.0615C0 2.8135 0.13 2.3615 0.374 1.9045C0.612639 1.45375 0.981252 1.08514 1.432 0.8465C1.89 0.6025 2.342 0.4725 3.59 0.4725ZM23 4.1625C24 4.6715 24.5 5.3385 24.5 6.1625C24.5 6.9865 24 7.6535 23 8.1625V4.1625Z" fill="black" fill-opacity="0.36"/>
<path fill-rule="evenodd" clip-rule="evenodd" d="M4.051 2.3895H17.95C18.663 2.3895 18.922 2.4635 19.182 2.6025C19.443 2.7425 19.648 2.9465 19.787 3.2075C19.927 3.4675 20.001 3.7275 20.001 4.4405V8.0045C20.001 8.7175 19.927 8.9765 19.787 9.2375C19.647 9.4975 19.443 9.7025 19.182 9.8425C18.922 9.9825 18.663 10.0555 17.95 10.0555H4.05C3.337 10.0555 3.078 9.9815 2.818 9.8425C2.56022 9.70608 2.34942 9.49528 2.213 9.2375C2.074 8.9775 2 8.7175 2 8.0045V4.4405C2 3.7275 2.074 3.4685 2.214 3.2075C2.354 2.9475 2.558 2.7425 2.819 2.6025C3.079 2.4625 3.338 2.3895 4.051 2.3895Z" fill="black"/>
</svg>
