<svg width="25" height="13" viewBox="0 0 25 13" fill="none" xmlns="http://www.w3.org/2000/svg">
<path d="M3.59 2.06625C2.602 2.06625 2.258 2.13325 1.904 2.32225C1.622 2.47225 1.407 2.68825 1.256 2.97025C1.066 3.32425 1 3.66825 1 4.65525V8.97725C1 9.96425 1.067 10.3082 1.256 10.6622C1.406 10.9442 1.622 11.1593 1.904 11.3103C2.258 11.5002 2.602 11.5662 3.589 11.5662H18.411C19.398 11.5662 19.742 11.4993 20.096 11.3103C20.378 11.1603 20.593 10.9442 20.744 10.6622C20.934 10.3082 21 9.96425 21 8.97725V4.65525C21 3.66825 20.933 3.32425 20.744 2.97025C20.5985 2.69369 20.3726 2.46775 20.096 2.32225C19.742 2.13225 19.398 2.06625 18.411 2.06625H3.589H3.59ZM3.59 1.06625H18.41C19.659 1.06625 20.111 1.19625 20.568 1.44025C21.024 1.68425 21.382 2.04225 21.626 2.49825C21.87 2.95525 22 3.40825 22 4.65525V8.97725C22 10.2253 21.87 10.6772 21.626 11.1342C21.3874 11.585 21.0187 11.9536 20.568 12.1923C20.111 12.4363 19.658 12.5662 18.411 12.5662H3.589C2.341 12.5662 1.889 12.4363 1.432 12.1923C0.981252 11.9536 0.612639 11.585 0.374 11.1342C0.13 10.6762 0 10.2242 0 8.97625V4.65525C0 3.40725 0.13 2.95525 0.374 2.49825C0.612639 2.0475 0.981252 1.67889 1.432 1.44025C1.89 1.19625 2.342 1.06625 3.59 1.06625ZM23 4.75625C24 5.26525 24.5 5.93225 24.5 6.75625C24.5 7.58025 24 8.24725 23 8.75625V4.75625Z" fill="black" fill-opacity="0.36"/>
<path fill-rule="evenodd" clip-rule="evenodd" d="M4.051 2.98325H17.95C18.663 2.98325 18.922 3.05725 19.182 3.19625C19.443 3.33625 19.648 3.54025 19.787 3.80125C19.927 4.06125 20.001 4.32125 20.001 5.03425V8.59825C20.001 9.31125 19.927 9.57025 19.787 9.83125C19.647 10.0913 19.443 10.2962 19.182 10.4362C18.922 10.5762 18.663 10.6493 17.95 10.6493H4.05C3.337 10.6493 3.078 10.5752 2.818 10.4362C2.56022 10.2998 2.34942 10.089 2.213 9.83125C2.074 9.57125 2 9.31125 2 8.59825V5.03425C2 4.32125 2.074 4.06225 2.214 3.80125C2.354 3.54125 2.558 3.33625 2.819 3.19625C3.079 3.05625 3.338 2.98325 4.051 2.98325Z" fill="black"/>
</svg>
