<svg width="24" height="25" viewBox="0 0 24 25" fill="none" xmlns="http://www.w3.org/2000/svg">
<path d="M11.25 23.3594V21.6522C7.52484 21.4375 5.26172 19.5184 5.25 16.6094H8.625C8.70797 17.8441 9.74344 18.7867 11.25 18.9531V14.3594L9.99516 14.0312C7.13578 13.3666 5.60578 11.7161 5.60578 9.24625C5.60578 6.33484 7.69125 4.42562 11.25 4.14062V2.35938H12.75V4.14062C16.3777 4.43594 18.3281 6.37844 18.375 9.10938H15C14.9644 7.98156 14.258 7.07547 12.75 6.95312V11.2656L14.1947 11.6069C17.2317 12.2716 18.75 13.8438 18.75 16.4219C18.75 19.4378 16.6997 21.385 12.75 21.64V23.3594H11.25ZM11.25 10.9844V6.95312C9.95672 7.02437 9.03422 7.81891 9.03422 8.94672C9.03422 9.99203 9.8025 10.6755 11.25 10.9844ZM12.75 14.6406V18.9531C14.5383 18.8809 15.3928 18.0663 15.3928 16.8077C15.3928 15.6555 14.5383 14.8797 12.75 14.6406Z" fill="#E5E5E5" stroke="#E5E5E5"/>
</svg>
