<svg width="24" height="25" viewBox="0 0 24 25" fill="none" xmlns="http://www.w3.org/2000/svg">
<path d="M12.2607 4.85683C12.1909 4.79007 12.098 4.75281 12.0015 4.75281C11.9049 4.75281 11.812 4.79007 11.7422 4.85683L3.11255 13.1007C3.0759 13.1358 3.04674 13.1779 3.02684 13.2246C3.00694 13.2712 2.99671 13.3214 2.99677 13.3721L2.99536 21.1093C2.99536 21.5072 3.1534 21.8887 3.4347 22.17C3.71601 22.4513 4.09754 22.6093 4.49536 22.6093H9.00005C9.19896 22.6093 9.38973 22.5303 9.53038 22.3897C9.67103 22.249 9.75005 22.0583 9.75005 21.8593V15.4843C9.75005 15.3849 9.78956 15.2895 9.85989 15.2192C9.93021 15.1488 10.0256 15.1093 10.1251 15.1093H13.8751C13.9745 15.1093 14.0699 15.1488 14.1402 15.2192C14.2105 15.2895 14.2501 15.3849 14.2501 15.4843V21.8593C14.2501 22.0583 14.3291 22.249 14.4697 22.3897C14.6104 22.5303 14.8011 22.6093 15.0001 22.6093H19.5029C19.9007 22.6093 20.2822 22.4513 20.5635 22.17C20.8448 21.8887 21.0029 21.5072 21.0029 21.1093V13.3721C21.0029 13.3214 20.9927 13.2712 20.9728 13.2246C20.9529 13.1779 20.9237 13.1358 20.8871 13.1007L12.2607 4.85683Z" fill="#E5E5E5" stroke="#E5E5E5"/>
<path d="M23.0114 11.5539L19.5052 8.19954V3.10938C19.5052 2.91046 19.4261 2.7197 19.2855 2.57905C19.1448 2.43839 18.9541 2.35938 18.7552 2.35938H16.5052C16.3063 2.35938 16.1155 2.43839 15.9748 2.57905C15.8342 2.7197 15.7552 2.91046 15.7552 3.10938V4.60938L13.0402 2.01344C12.7861 1.75656 12.4083 1.60938 12 1.60938C11.5931 1.60938 11.2163 1.75656 10.9622 2.01391L0.991893 11.553C0.70033 11.8342 0.663768 12.2969 0.92908 12.6016C0.995704 12.6785 1.07728 12.741 1.16884 12.7854C1.26041 12.8298 1.36005 12.8551 1.46169 12.8597C1.56334 12.8644 1.66487 12.8483 1.7601 12.8124C1.85533 12.7766 1.94228 12.7218 2.01564 12.6513L11.7422 3.35688C11.812 3.29012 11.9048 3.25286 12.0014 3.25286C12.098 3.25286 12.1908 3.29012 12.2606 3.35688L21.9881 12.6513C22.1314 12.7887 22.3234 12.8637 22.5218 12.8598C22.7203 12.8559 22.9092 12.7735 23.047 12.6306C23.3348 12.3325 23.3109 11.8403 23.0114 11.5539Z" fill="#E5E5E5" stroke="#E5E5E5"/>
</svg>
