<svg width="18" height="13" viewBox="0 0 18 13" fill="none" xmlns="http://www.w3.org/2000/svg">
<path fill-rule="evenodd" clip-rule="evenodd" d="M1.89 8.20635H2.11C2.467 8.20635 2.69 8.26235 2.886 8.36635C3.082 8.47135 3.236 8.62435 3.34 8.82035C3.444 9.01535 3.5 9.24035 3.5 9.59635V10.8163C3.5 11.1733 3.444 11.3963 3.34 11.5923C3.23768 11.7858 3.07948 11.944 2.886 12.0463C2.691 12.1503 2.466 12.2063 2.11 12.2063H1.89C1.533 12.2063 1.31 12.1503 1.114 12.0463C0.920517 11.944 0.76232 11.7858 0.66 11.5923C0.556 11.3973 0.5 11.1723 0.5 10.8163V9.59635C0.5 9.23935 0.556 9.01635 0.66 8.82035C0.76232 8.62687 0.920517 8.46867 1.114 8.36635C1.309 8.26235 1.534 8.20635 1.89 8.20635V8.20635ZM6.69 6.20635H6.91C7.267 6.20635 7.49 6.26235 7.686 6.36635C7.882 6.47135 8.036 6.62435 8.14 6.82035C8.244 7.01535 8.3 7.24035 8.3 7.59635V10.8163C8.3 11.1733 8.244 11.3963 8.14 11.5923C8.03768 11.7858 7.87948 11.944 7.686 12.0463C7.491 12.1503 7.266 12.2063 6.91 12.2063H6.69C6.333 12.2063 6.11 12.1503 5.914 12.0463C5.72052 11.944 5.56232 11.7858 5.46 11.5923C5.356 11.3973 5.3 11.1723 5.3 10.8163V7.59635C5.3 7.23935 5.356 7.01635 5.46 6.82035C5.56232 6.62687 5.72052 6.46867 5.914 6.36635C6.109 6.26235 6.334 6.20635 6.69 6.20635V6.20635ZM11.29 3.90635H11.51C11.867 3.90635 12.09 3.96235 12.286 4.06635C12.482 4.17135 12.636 4.32435 12.74 4.52035C12.844 4.71535 12.9 4.94035 12.9 5.29635V10.8163C12.9 11.1733 12.844 11.3963 12.74 11.5923C12.6377 11.7858 12.4795 11.944 12.286 12.0463C12.091 12.1503 11.866 12.2063 11.51 12.2063H11.29C10.933 12.2063 10.71 12.1503 10.514 12.0463C10.3205 11.944 10.1623 11.7858 10.06 11.5923C9.956 11.3973 9.9 11.1723 9.9 10.8163V5.29635C9.9 4.93935 9.956 4.71635 10.06 4.52035C10.1623 4.32687 10.3205 4.16867 10.514 4.06635C10.709 3.96235 10.934 3.90635 11.29 3.90635V3.90635ZM15.99 1.50635H16.21C16.567 1.50635 16.79 1.56235 16.986 1.66635C17.182 1.77135 17.336 1.92435 17.44 2.12035C17.544 2.31535 17.6 2.54035 17.6 2.89635V10.8163C17.6 11.1733 17.544 11.3963 17.44 11.5923C17.3377 11.7858 17.1795 11.944 16.986 12.0463C16.791 12.1503 16.566 12.2063 16.21 12.2063H15.99C15.633 12.2063 15.41 12.1503 15.214 12.0463C15.0205 11.944 14.8623 11.7858 14.76 11.5923C14.656 11.3973 14.6 11.1723 14.6 10.8163V2.89635C14.6 2.53935 14.656 2.31635 14.76 2.12035C14.8623 1.92687 15.0205 1.76867 15.214 1.66635C15.409 1.56235 15.634 1.50635 15.99 1.50635V1.50635Z" fill="black"/>
</svg>
