<svg width="16" height="17" viewBox="0 0 16 17" fill="none" xmlns="http://www.w3.org/2000/svg">
<path fill-rule="evenodd" clip-rule="evenodd" d="M14.709 16.6394C15.249 16.6394 15.63 16.2244 15.63 15.6924C15.6327 15.5696 15.6106 15.4475 15.5651 15.3334C15.5196 15.2193 15.4515 15.1156 15.365 15.0284L11.455 11.1104C12.3058 10.0004 12.767 8.64091 12.767 7.24237C12.767 3.73237 9.895 0.859375 6.383 0.859375C2.873 0.859375 0 3.73137 0 7.24237C0 10.7544 2.872 13.6264 6.383 13.6264C7.71433 13.6256 9.01191 13.2073 10.093 12.4304L14.028 16.3654C14.1175 16.4541 14.2239 16.5241 14.3408 16.5711C14.4578 16.6182 14.583 16.6414 14.709 16.6394V16.6394ZM6.383 12.2484C3.644 12.2484 1.378 9.98237 1.378 7.24237C1.378 4.50337 3.644 2.23738 6.383 2.23738C9.123 2.23738 11.389 4.50337 11.389 7.24237C11.389 9.98237 9.123 12.2484 6.383 12.2484Z" fill="#8E8E93" fill-opacity="0.6"/>
</svg>
