<svg width="20" height="21" viewBox="0 0 20 21" fill="none" xmlns="http://www.w3.org/2000/svg">
<path d="M3.00121 19.0625C2.73554 19.0613 2.4812 18.9547 2.29396 18.7662C2.10672 18.5778 2.00187 18.3227 2.00239 18.057C2.00471 17.956 2.02048 17.8558 2.04926 17.759L2.76879 15.1563C2.79887 15.0602 2.76489 14.9633 2.72074 14.8867L2.71215 14.8711C2.70903 14.866 2.69418 14.8453 2.68364 14.8301C2.67309 14.8148 2.66098 14.7984 2.65004 14.7824L2.64262 14.7719C1.73409 13.3949 1.24987 11.7814 1.25004 10.1316C1.24301 7.88203 2.12309 5.75664 3.72895 4.14414C5.39067 2.4793 7.61332 1.5625 9.99301 1.5625C12.0118 1.5615 13.9706 2.24817 15.5469 3.50938C17.0879 4.74961 18.159 6.47813 18.5629 8.37969C18.6873 8.95736 18.7499 9.54661 18.7496 10.1375C18.7496 12.4395 17.8653 14.6016 16.259 16.2262C14.6387 17.8668 12.4629 18.7676 10.1329 18.7676C9.31254 18.7676 8.26293 18.5582 7.75903 18.416C7.15278 18.2465 6.57817 18.0254 6.51488 18.002C6.44791 17.9763 6.37683 17.9631 6.30512 17.9629C6.22734 17.9624 6.15027 17.9777 6.07856 18.0078L6.04535 18.0207L3.40942 18.9731C3.27995 19.0275 3.1416 19.0579 3.00121 19.0625Z" fill="#B5B5BA" stroke="#B5B5BA"/>
</svg>
