<svg width="30" height="31" viewBox="0 0 30 31" fill="none" xmlns="http://www.w3.org/2000/svg">
<path fill-rule="evenodd" clip-rule="evenodd" d="M7 14.9062H23C23.2652 14.9062 23.5196 15.0116 23.7071 15.1991C23.8946 15.3867 24 15.641 24 15.9062C24 16.1715 23.8946 16.4258 23.7071 16.6134C23.5196 16.8009 23.2652 16.9062 23 16.9062H7C6.73478 16.9062 6.48043 16.8009 6.29289 16.6134C6.10536 16.4258 6 16.1715 6 15.9062C6 15.641 6.10536 15.3867 6.29289 15.1991C6.48043 15.0116 6.73478 14.9062 7 14.9062Z" fill="#A5AFFB"/>
<path fill-rule="evenodd" clip-rule="evenodd" d="M16 7.90625V23.9062C16 24.1715 15.8946 24.4258 15.7071 24.6134C15.5196 24.8009 15.2652 24.9062 15 24.9062C14.7348 24.9062 14.4804 24.8009 14.2929 24.6134C14.1054 24.4258 14 24.1715 14 23.9062V7.90625C14 7.64103 14.1054 7.38668 14.2929 7.19914C14.4804 7.01161 14.7348 6.90625 15 6.90625C15.2652 6.90625 15.5196 7.01161 15.7071 7.19914C15.8946 7.38668 16 7.64103 16 7.90625Z" fill="#A5AFFB"/>
</svg>
