<svg width="18" height="13" viewBox="0 0 18 13" fill="none" xmlns="http://www.w3.org/2000/svg">
<path fill-rule="evenodd" clip-rule="evenodd" d="M1.89 7.8625H2.11C2.467 7.8625 2.69 7.9185 2.886 8.0225C3.082 8.1275 3.236 8.2805 3.34 8.4765C3.444 8.6715 3.5 8.8965 3.5 9.2525V10.4725C3.5 10.8295 3.444 11.0525 3.34 11.2485C3.23768 11.442 3.07948 11.6002 2.886 11.7025C2.691 11.8065 2.466 11.8625 2.11 11.8625H1.89C1.533 11.8625 1.31 11.8065 1.114 11.7025C0.920517 11.6002 0.76232 11.442 0.66 11.2485C0.556 11.0535 0.5 10.8285 0.5 10.4725V9.2525C0.5 8.8955 0.556 8.6725 0.66 8.4765C0.76232 8.28302 0.920517 8.12482 1.114 8.0225C1.309 7.9185 1.534 7.8625 1.89 7.8625ZM6.69 5.8625H6.91C7.267 5.8625 7.49 5.9185 7.686 6.0225C7.882 6.1275 8.036 6.2805 8.14 6.4765C8.244 6.6715 8.3 6.8965 8.3 7.2525V10.4725C8.3 10.8295 8.244 11.0525 8.14 11.2485C8.03768 11.442 7.87948 11.6002 7.686 11.7025C7.491 11.8065 7.266 11.8625 6.91 11.8625H6.69C6.333 11.8625 6.11 11.8065 5.914 11.7025C5.72052 11.6002 5.56232 11.442 5.46 11.2485C5.356 11.0535 5.3 10.8285 5.3 10.4725V7.2525C5.3 6.8955 5.356 6.6725 5.46 6.4765C5.56232 6.28302 5.72052 6.12482 5.914 6.0225C6.109 5.9185 6.334 5.8625 6.69 5.8625ZM11.29 3.5625H11.51C11.867 3.5625 12.09 3.6185 12.286 3.7225C12.482 3.8275 12.636 3.9805 12.74 4.1765C12.844 4.3715 12.9 4.5965 12.9 4.9525V10.4725C12.9 10.8295 12.844 11.0525 12.74 11.2485C12.6377 11.442 12.4795 11.6002 12.286 11.7025C12.091 11.8065 11.866 11.8625 11.51 11.8625H11.29C10.933 11.8625 10.71 11.8065 10.514 11.7025C10.3205 11.6002 10.1623 11.442 10.06 11.2485C9.956 11.0535 9.9 10.8285 9.9 10.4725V4.9525C9.9 4.5955 9.956 4.3725 10.06 4.1765C10.1623 3.98302 10.3205 3.82482 10.514 3.7225C10.709 3.6185 10.934 3.5625 11.29 3.5625ZM15.99 1.1625H16.21C16.567 1.1625 16.79 1.2185 16.986 1.3225C17.182 1.4275 17.336 1.5805 17.44 1.7765C17.544 1.9715 17.6 2.1965 17.6 2.5525V10.4725C17.6 10.8295 17.544 11.0525 17.44 11.2485C17.3377 11.442 17.1795 11.6002 16.986 11.7025C16.791 11.8065 16.566 11.8625 16.21 11.8625H15.99C15.633 11.8625 15.41 11.8065 15.214 11.7025C15.0205 11.6002 14.8623 11.442 14.76 11.2485C14.656 11.0535 14.6 10.8285 14.6 10.4725V2.5525C14.6 2.1955 14.656 1.9725 14.76 1.7765C14.8623 1.58302 15.0205 1.42482 15.214 1.3225C15.409 1.2185 15.634 1.1625 15.99 1.1625Z" fill="black"/>
</svg>
