<svg width="24" height="25" viewBox="0 0 24 25" fill="none" xmlns="http://www.w3.org/2000/svg">
<path d="M18.4687 22.6094C18.3109 22.61 18.1568 22.5608 18.0286 22.4687L12 18.0981L5.97139 22.4687C5.84259 22.5621 5.68742 22.6122 5.52831 22.6116C5.36921 22.611 5.21441 22.5599 5.08629 22.4655C4.95818 22.3712 4.86339 22.2385 4.81563 22.0867C4.76787 21.935 4.76961 21.7719 4.82061 21.6212L7.17185 14.657L1.07811 10.4781C0.946112 10.3877 0.846491 10.2574 0.793797 10.1064C0.741103 9.9553 0.7381 9.79134 0.785225 9.63844C0.83235 9.48555 0.927135 9.35173 1.05573 9.25654C1.18432 9.16135 1.33999 9.10978 1.49998 9.10936H9.01779L11.2865 2.12733C11.3354 1.97659 11.4308 1.8452 11.5589 1.75202C11.6871 1.65883 11.8415 1.60864 12 1.60864C12.1584 1.60864 12.3128 1.65883 12.441 1.75202C12.5692 1.8452 12.6645 1.97659 12.7134 2.12733L14.9822 9.1117H22.5C22.6602 9.11162 22.8162 9.16284 22.9452 9.25784C23.0741 9.35285 23.1693 9.48666 23.2167 9.63967C23.2641 9.79268 23.2613 9.95686 23.2087 10.1082C23.156 10.2595 23.0563 10.3899 22.9242 10.4804L16.8281 14.657L19.1779 21.6194C19.216 21.7321 19.2267 21.8522 19.2092 21.9699C19.1916 22.0876 19.1464 22.1994 19.0771 22.2961C19.0078 22.3928 18.9165 22.4717 18.8107 22.5262C18.7049 22.5806 18.5877 22.6091 18.4687 22.6094Z" fill="#E5E5E5" stroke="#E5E5E5"/>
</svg>
