<svg width="16" height="13" viewBox="0 0 16 13" fill="none" xmlns="http://www.w3.org/2000/svg">
<path fill-rule="evenodd" clip-rule="evenodd" d="M8.29998 3.60225C10.535 3.60225 12.684 4.46125 14.303 6.00125C14.3616 6.05843 14.4404 6.0901 14.5223 6.08935C14.6042 6.0886 14.6824 6.05549 14.74 5.99725L15.906 4.82125C15.9361 4.79093 15.96 4.75495 15.9762 4.71537C15.9924 4.67578 16.0006 4.63339 16.0003 4.59063C16 4.54786 15.9913 4.50558 15.9746 4.46621C15.9579 4.42684 15.9335 4.39117 15.903 4.36125C13.8573 2.40068 11.1334 1.30613 8.29998 1.30613C5.46653 1.30613 2.74261 2.40068 0.696979 4.36125C0.666425 4.39117 0.642097 4.42684 0.625397 4.46621C0.608698 4.50558 0.599956 4.54786 0.599677 4.59063C0.599398 4.63339 0.607588 4.67578 0.623773 4.71537C0.639958 4.75495 0.663818 4.79093 0.693979 4.82125L1.85998 5.99625C1.91753 6.05449 1.99578 6.0876 2.07765 6.08835C2.15953 6.0891 2.23837 6.05743 2.29698 6.00025C3.91647 4.46075 6.06552 3.60228 8.29998 3.60225ZM8.29998 7.43025C9.52798 7.43025 10.712 7.88625 11.622 8.71025C11.6812 8.76645 11.7601 8.79727 11.8417 8.79615C11.9233 8.79503 12.0013 8.76205 12.059 8.70425L13.223 7.52825C13.2534 7.49775 13.2775 7.4615 13.2938 7.42161C13.3101 7.38173 13.3182 7.339 13.3179 7.29591C13.3175 7.25283 13.3086 7.21025 13.2916 7.17065C13.2746 7.13105 13.2499 7.09522 13.219 7.06525C11.8831 5.82281 10.1263 5.13217 8.30198 5.13217C6.47762 5.13217 4.72089 5.82281 3.38498 7.06525C3.35396 7.09516 3.3292 7.13093 3.31213 7.1705C3.29507 7.21006 3.28604 7.25262 3.28558 7.2957C3.28511 7.33879 3.29322 7.38153 3.30942 7.42146C3.32563 7.46138 3.34961 7.49768 3.37998 7.52825L4.54398 8.70425C4.66398 8.82425 4.85798 8.82725 4.98098 8.71025C5.89064 7.88667 7.07388 7.43048 8.30098 7.43025H8.29998ZM10.538 10.2373C10.5686 10.207 10.5927 10.1708 10.6088 10.1308C10.625 10.0909 10.6328 10.0481 10.6319 10.0051C10.6309 9.96206 10.6212 9.91966 10.6034 9.88048C10.5855 9.84131 10.5599 9.80618 10.528 9.77725C9.90513 9.25043 9.11575 8.96136 8.29998 8.96136C7.48421 8.96136 6.69483 9.25043 6.07198 9.77725C6.0401 9.80618 6.01444 9.84131 5.99658 9.88048C5.97872 9.91966 5.96903 9.96206 5.96809 10.0051C5.96716 10.0481 5.975 10.0909 5.99114 10.1308C6.00728 10.1708 6.03138 10.207 6.06198 10.2373L8.07698 12.2703C8.10619 12.2999 8.14099 12.3234 8.17935 12.3394C8.21772 12.3554 8.25889 12.3637 8.30048 12.3637C8.34206 12.3637 8.38324 12.3554 8.4216 12.3394C8.45997 12.3234 8.49477 12.2999 8.52398 12.2703L10.538 10.2373Z" fill="black"/>
</svg>
