<svg width="16" height="13" viewBox="0 0 16 13" fill="none" xmlns="http://www.w3.org/2000/svg">
<path fill-rule="evenodd" clip-rule="evenodd" d="M8.29992 3.60228C10.5349 3.60228 12.6839 4.46128 14.3029 6.00128C14.3615 6.05845 14.4404 6.09013 14.5222 6.08938C14.6041 6.08863 14.6824 6.05552 14.7399 5.99728L15.9059 4.82128C15.9361 4.79096 15.9599 4.75497 15.9761 4.71539C15.9923 4.67581 16.0005 4.63341 16.0002 4.59065C15.9999 4.54789 15.9912 4.5056 15.9745 4.46624C15.9578 4.42687 15.9335 4.3912 15.9029 4.36128C13.8573 2.40071 11.1334 1.30615 8.29992 1.30615C5.46647 1.30615 2.74255 2.40071 0.696918 4.36128C0.666364 4.3912 0.642036 4.42687 0.625336 4.46624C0.608637 4.5056 0.599895 4.54789 0.599616 4.59065C0.599337 4.63341 0.607527 4.67581 0.623712 4.71539C0.639896 4.75497 0.663757 4.79096 0.693917 4.82128L1.85992 5.99628C1.91747 6.05452 1.99572 6.08763 2.07759 6.08838C2.15947 6.08913 2.23831 6.05745 2.29692 6.00028C3.91641 4.46077 6.06546 3.6023 8.29992 3.60228V3.60228ZM8.29992 7.43028C9.52792 7.43028 10.7119 7.88628 11.6219 8.71028C11.6812 8.76647 11.76 8.79729 11.8416 8.79617C11.9233 8.79505 12.0012 8.76207 12.0589 8.70428L13.2229 7.52828C13.2533 7.49777 13.2774 7.46152 13.2937 7.42164C13.31 7.38175 13.3182 7.33902 13.3178 7.29594C13.3174 7.25285 13.3085 7.21027 13.2915 7.17068C13.2746 7.13108 13.2499 7.09525 13.2189 7.06528C11.883 5.82284 10.1263 5.13219 8.30192 5.13219C6.47755 5.13219 4.72083 5.82284 3.38492 7.06528C3.3539 7.09518 3.32914 7.13096 3.31207 7.17052C3.29501 7.21008 3.28598 7.25264 3.28552 7.29573C3.28505 7.33881 3.29316 7.38156 3.30936 7.42148C3.32557 7.4614 3.34955 7.49771 3.37992 7.52828L4.54392 8.70428C4.66392 8.82428 4.85792 8.82728 4.98092 8.71028C5.89058 7.88669 7.07382 7.4305 8.30092 7.43028H8.29992ZM10.5379 10.2373C10.5685 10.207 10.5926 10.1708 10.6088 10.1309C10.6249 10.091 10.6327 10.0482 10.6318 10.0051C10.6309 9.96208 10.6212 9.91968 10.6033 9.88051C10.5855 9.84133 10.5598 9.80621 10.5279 9.77728C9.90507 9.25045 9.11569 8.96138 8.29992 8.96138C7.48415 8.96138 6.69477 9.25045 6.07192 9.77728C6.04004 9.80621 6.01438 9.84133 5.99652 9.88051C5.97866 9.91968 5.96897 9.96208 5.96803 10.0051C5.9671 10.0482 5.97494 10.091 5.99108 10.1309C6.00722 10.1708 6.03132 10.207 6.06192 10.2373L8.07692 12.2703C8.10613 12.2999 8.14093 12.3234 8.17929 12.3394C8.21766 12.3555 8.25883 12.3637 8.30042 12.3637C8.342 12.3637 8.38317 12.3555 8.42154 12.3394C8.45991 12.3234 8.49471 12.2999 8.52392 12.2703L10.5379 10.2373V10.2373Z" fill="black"/>
</svg>
