<svg width="16" height="13" viewBox="0 0 16 13" fill="none" xmlns="http://www.w3.org/2000/svg">
<path fill-rule="evenodd" clip-rule="evenodd" d="M8.29992 3.5554C10.5349 3.5554 12.6839 4.4144 14.3029 5.9544C14.3615 6.01158 14.4404 6.04325 14.5222 6.0425C14.6041 6.04175 14.6824 6.00864 14.7399 5.9504L15.9059 4.7744C15.9361 4.74408 15.9599 4.7081 15.9761 4.66852C15.9923 4.62893 16.0005 4.58654 16.0002 4.54378C15.9999 4.50101 15.9912 4.45873 15.9745 4.41936C15.9578 4.37999 15.9335 4.34432 15.9029 4.3144C13.8573 2.35383 11.1334 1.25928 8.29992 1.25928C5.46647 1.25928 2.74255 2.35383 0.696918 4.3144C0.666364 4.34432 0.642036 4.37999 0.625336 4.41936C0.608637 4.45873 0.599895 4.50101 0.599616 4.54378C0.599337 4.58654 0.607527 4.62893 0.623712 4.66852C0.639896 4.7081 0.663757 4.74408 0.693917 4.7744L1.85992 5.9494C1.91747 6.00764 1.99572 6.04075 2.07759 6.0415C2.15947 6.04225 2.23831 6.01058 2.29692 5.9534C3.91641 4.4139 6.06546 3.55542 8.29992 3.5554ZM8.29992 7.3834C9.52792 7.3834 10.7119 7.8394 11.6219 8.6634C11.6812 8.7196 11.76 8.75042 11.8416 8.7493C11.9233 8.74818 12.0012 8.7152 12.0589 8.6574L13.2229 7.4814C13.2533 7.4509 13.2774 7.41465 13.2937 7.37476C13.31 7.33488 13.3182 7.29215 13.3178 7.24906C13.3174 7.20598 13.3085 7.1634 13.2915 7.1238C13.2746 7.0842 13.2499 7.04837 13.2189 7.0184C11.883 5.77596 10.1263 5.08532 8.30192 5.08532C6.47755 5.08532 4.72083 5.77596 3.38492 7.0184C3.3539 7.04831 3.32914 7.08408 3.31207 7.12364C3.29501 7.16321 3.28598 7.20577 3.28552 7.24885C3.28505 7.29194 3.29316 7.33468 3.30936 7.37461C3.32557 7.41453 3.34955 7.45083 3.37992 7.4814L4.54392 8.6574C4.66392 8.7774 4.85792 8.7804 4.98092 8.6634C5.89058 7.83982 7.07382 7.38363 8.30092 7.3834H8.29992ZM10.5379 10.1904C10.5685 10.1601 10.5926 10.1239 10.6088 10.084C10.6249 10.0441 10.6327 10.0013 10.6318 9.95825C10.6309 9.91521 10.6212 9.87281 10.6033 9.83363C10.5855 9.79446 10.5598 9.75933 10.5279 9.7304C9.90507 9.20358 9.11569 8.91451 8.29992 8.91451C7.48415 8.91451 6.69477 9.20358 6.07192 9.7304C6.04004 9.75933 6.01438 9.79446 5.99652 9.83363C5.97866 9.87281 5.96897 9.91521 5.96803 9.95825C5.9671 10.0013 5.97494 10.0441 5.99108 10.084C6.00722 10.1239 6.03132 10.1601 6.06192 10.1904L8.07692 12.2234C8.10613 12.253 8.14093 12.2765 8.17929 12.2925C8.21766 12.3086 8.25883 12.3168 8.30042 12.3168C8.342 12.3168 8.38317 12.3086 8.42154 12.2925C8.45991 12.2765 8.49471 12.253 8.52392 12.2234L10.5379 10.1904Z" fill="black"/>
</svg>
