<svg width="18" height="13" viewBox="0 0 18 13" fill="none" xmlns="http://www.w3.org/2000/svg">
<path fill-rule="evenodd" clip-rule="evenodd" d="M1.89 7.40938H2.11C2.467 7.40938 2.69 7.46538 2.886 7.56938C3.082 7.67438 3.236 7.82738 3.34 8.02338C3.444 8.21838 3.5 8.44337 3.5 8.79937V10.0194C3.5 10.3764 3.444 10.5994 3.34 10.7954C3.23768 10.9889 3.07948 11.1471 2.886 11.2494C2.691 11.3534 2.466 11.4094 2.11 11.4094H1.89C1.533 11.4094 1.31 11.3534 1.114 11.2494C0.920517 11.1471 0.76232 10.9889 0.66 10.7954C0.556 10.6004 0.5 10.3754 0.5 10.0194V8.79937C0.5 8.44237 0.556 8.21938 0.66 8.02338C0.76232 7.82989 0.920517 7.6717 1.114 7.56938C1.309 7.46538 1.534 7.40938 1.89 7.40938ZM6.69 5.40938H6.91C7.267 5.40938 7.49 5.46538 7.686 5.56938C7.882 5.67438 8.036 5.82738 8.14 6.02338C8.244 6.21838 8.3 6.44338 8.3 6.79938V10.0194C8.3 10.3764 8.244 10.5994 8.14 10.7954C8.03768 10.9889 7.87948 11.1471 7.686 11.2494C7.491 11.3534 7.266 11.4094 6.91 11.4094H6.69C6.333 11.4094 6.11 11.3534 5.914 11.2494C5.72052 11.1471 5.56232 10.9889 5.46 10.7954C5.356 10.6004 5.3 10.3754 5.3 10.0194V6.79938C5.3 6.44238 5.356 6.21938 5.46 6.02338C5.56232 5.82989 5.72052 5.6717 5.914 5.56938C6.109 5.46538 6.334 5.40938 6.69 5.40938ZM11.29 3.10938H11.51C11.867 3.10938 12.09 3.16538 12.286 3.26938C12.482 3.37438 12.636 3.52738 12.74 3.72338C12.844 3.91838 12.9 4.14338 12.9 4.49938V10.0194C12.9 10.3764 12.844 10.5994 12.74 10.7954C12.6377 10.9889 12.4795 11.1471 12.286 11.2494C12.091 11.3534 11.866 11.4094 11.51 11.4094H11.29C10.933 11.4094 10.71 11.3534 10.514 11.2494C10.3205 11.1471 10.1623 10.9889 10.06 10.7954C9.956 10.6004 9.9 10.3754 9.9 10.0194V4.49938C9.9 4.14238 9.956 3.91938 10.06 3.72338C10.1623 3.52989 10.3205 3.37169 10.514 3.26938C10.709 3.16538 10.934 3.10938 11.29 3.10938ZM15.99 0.709375H16.21C16.567 0.709375 16.79 0.765375 16.986 0.869375C17.182 0.974375 17.336 1.12738 17.44 1.32338C17.544 1.51838 17.6 1.74338 17.6 2.09938V10.0194C17.6 10.3764 17.544 10.5994 17.44 10.7954C17.3377 10.9889 17.1795 11.1471 16.986 11.2494C16.791 11.3534 16.566 11.4094 16.21 11.4094H15.99C15.633 11.4094 15.41 11.3534 15.214 11.2494C15.0205 11.1471 14.8623 10.9889 14.76 10.7954C14.656 10.6004 14.6 10.3754 14.6 10.0194V2.09938C14.6 1.74238 14.656 1.51938 14.76 1.32338C14.8623 1.12989 15.0205 0.971695 15.214 0.869375C15.409 0.765375 15.634 0.709375 15.99 0.709375Z" fill="black"/>
</svg>
