<svg width="16" height="13" viewBox="0 0 16 13" fill="none" xmlns="http://www.w3.org/2000/svg">
<path fill-rule="evenodd" clip-rule="evenodd" d="M8.30004 2.80538C10.535 2.80538 12.684 3.66438 14.303 5.20438C14.3616 5.26155 14.4405 5.29323 14.5224 5.29248C14.6042 5.29173 14.6825 5.25862 14.74 5.20038L15.906 4.02438C15.9362 3.99406 15.9601 3.95807 15.9762 3.91849C15.9924 3.87891 16.0006 3.83651 16.0003 3.79375C16.0001 3.75099 15.9913 3.7087 15.9746 3.66934C15.9579 3.62997 15.9336 3.5943 15.903 3.56438C13.8574 1.60381 11.1335 0.509253 8.30004 0.509253C5.46659 0.509253 2.74267 1.60381 0.69704 3.56438C0.666486 3.5943 0.642158 3.62997 0.625459 3.66934C0.608759 3.7087 0.600017 3.75099 0.599738 3.79375C0.599459 3.83651 0.607649 3.87891 0.623834 3.91849C0.640019 3.95807 0.663879 3.99406 0.69404 4.02438L1.86004 5.19938C1.91759 5.25762 1.99584 5.29073 2.07771 5.29148C2.15959 5.29223 2.23843 5.26055 2.29704 5.20338C3.91653 3.66387 6.06558 2.8054 8.30004 2.80538ZM8.30004 6.63338C9.52804 6.63338 10.712 7.08938 11.622 7.91338C11.6813 7.96957 11.7601 8.0004 11.8418 7.99927C11.9234 7.99815 12.0014 7.96518 12.059 7.90738L13.223 6.73138C13.2535 6.70087 13.2775 6.66462 13.2938 6.62474C13.3101 6.58485 13.3183 6.54212 13.3179 6.49904C13.3176 6.45596 13.3086 6.41337 13.2917 6.37378C13.2747 6.33418 13.25 6.29835 13.219 6.26838C11.8831 5.02594 10.1264 4.33529 8.30204 4.33529C6.47768 4.33529 4.72095 5.02594 3.38504 6.26838C3.35402 6.29828 3.32926 6.33406 3.3122 6.37362C3.29513 6.41318 3.2861 6.45574 3.28564 6.49883C3.28517 6.54191 3.29328 6.58466 3.30949 6.62458C3.32569 6.66451 3.34968 6.70081 3.38004 6.73138L4.54404 7.90738C4.66404 8.02738 4.85804 8.03038 4.98104 7.91338C5.8907 7.08979 7.07394 6.6336 8.30104 6.63338H8.30004ZM10.538 9.44038C10.5686 9.41008 10.5927 9.37388 10.6089 9.33396C10.625 9.29405 10.6329 9.25127 10.6319 9.20823C10.631 9.16518 10.6213 9.12278 10.6034 9.08361C10.5856 9.04443 10.5599 9.00931 10.528 8.98038C9.90519 8.45355 9.11581 8.16448 8.30004 8.16448C7.48427 8.16448 6.69489 8.45355 6.07204 8.98038C6.04016 9.00931 6.01451 9.04443 5.99664 9.08361C5.97878 9.12278 5.96909 9.16518 5.96815 9.20823C5.96722 9.25127 5.97506 9.29405 5.9912 9.33396C6.00734 9.37388 6.03145 9.41008 6.06204 9.44038L8.07704 11.4734C8.10625 11.503 8.14105 11.5265 8.17942 11.5425C8.21778 11.5586 8.25895 11.5668 8.30054 11.5668C8.34213 11.5668 8.3833 11.5586 8.42166 11.5425C8.46003 11.5265 8.49483 11.503 8.52404 11.4734L10.538 9.44038Z" fill="black"/>
</svg>
