<svg width="16" height="13" viewBox="0 0 16 13" fill="none" xmlns="http://www.w3.org/2000/svg">
<path fill-rule="evenodd" clip-rule="evenodd" d="M8.30004 3.5554C10.535 3.5554 12.684 4.4144 14.303 5.9544C14.3616 6.01158 14.4405 6.04325 14.5224 6.0425C14.6042 6.04175 14.6825 6.00864 14.74 5.9504L15.906 4.7744C15.9362 4.74408 15.9601 4.7081 15.9762 4.66852C15.9924 4.62893 16.0006 4.58654 16.0003 4.54378C16.0001 4.50101 15.9913 4.45873 15.9746 4.41936C15.9579 4.37999 15.9336 4.34432 15.903 4.3144C13.8574 2.35383 11.1335 1.25928 8.30004 1.25928C5.46659 1.25928 2.74267 2.35383 0.69704 4.3144C0.666486 4.34432 0.642158 4.37999 0.625459 4.41936C0.608759 4.45873 0.600017 4.50101 0.599738 4.54378C0.599459 4.58654 0.607649 4.62893 0.623834 4.66852C0.640019 4.7081 0.663879 4.74408 0.69404 4.7744L1.86004 5.9494C1.91759 6.00764 1.99584 6.04075 2.07771 6.0415C2.15959 6.04225 2.23843 6.01058 2.29704 5.9534C3.91653 4.4139 6.06558 3.55542 8.30004 3.5554ZM8.30004 7.3834C9.52804 7.3834 10.712 7.8394 11.622 8.6634C11.6813 8.7196 11.7601 8.75042 11.8418 8.7493C11.9234 8.74818 12.0014 8.7152 12.059 8.6574L13.223 7.4814C13.2535 7.4509 13.2775 7.41465 13.2938 7.37476C13.3101 7.33488 13.3183 7.29215 13.3179 7.24906C13.3176 7.20598 13.3086 7.1634 13.2917 7.1238C13.2747 7.0842 13.25 7.04837 13.219 7.0184C11.8831 5.77596 10.1264 5.08532 8.30204 5.08532C6.47768 5.08532 4.72095 5.77596 3.38504 7.0184C3.35402 7.04831 3.32926 7.08408 3.3122 7.12364C3.29513 7.16321 3.2861 7.20577 3.28564 7.24885C3.28517 7.29194 3.29328 7.33468 3.30949 7.37461C3.32569 7.41453 3.34968 7.45083 3.38004 7.4814L4.54404 8.6574C4.66404 8.7774 4.85804 8.7804 4.98104 8.6634C5.8907 7.83982 7.07394 7.38363 8.30104 7.3834H8.30004ZM10.538 10.1904C10.5686 10.1601 10.5927 10.1239 10.6089 10.084C10.625 10.0441 10.6329 10.0013 10.6319 9.95825C10.631 9.91521 10.6213 9.87281 10.6034 9.83363C10.5856 9.79446 10.5599 9.75933 10.528 9.7304C9.90519 9.20358 9.11581 8.91451 8.30004 8.91451C7.48427 8.91451 6.69489 9.20358 6.07204 9.7304C6.04016 9.75933 6.01451 9.79446 5.99664 9.83363C5.97878 9.87281 5.96909 9.91521 5.96815 9.95825C5.96722 10.0013 5.97506 10.0441 5.9912 10.084C6.00734 10.1239 6.03145 10.1601 6.06204 10.1904L8.07704 12.2234C8.10625 12.253 8.14105 12.2765 8.17942 12.2925C8.21778 12.3086 8.25895 12.3168 8.30054 12.3168C8.34213 12.3168 8.3833 12.3086 8.42166 12.2925C8.46003 12.2765 8.49483 12.253 8.52404 12.2234L10.538 10.1904Z" fill="black"/>
</svg>
