<svg width="20" height="21" viewBox="0 0 20 21" fill="none" xmlns="http://www.w3.org/2000/svg">
<path d="M10 9.0625C10.6904 9.0625 11.25 8.50286 11.25 7.8125C11.25 7.12214 10.6904 6.5625 10 6.5625C9.30964 6.5625 8.75 7.12214 8.75 7.8125C8.75 8.50286 9.30964 9.0625 10 9.0625Z" fill="#BE52F2" stroke="#BE52F2"/>
<path d="M10 1.5625C6.55391 1.5625 3.75 4.24414 3.75 7.53906C3.75 9.1082 4.46523 11.1949 5.87578 13.7414C7.00859 15.7859 8.31914 17.6348 9.00078 18.5547C9.11596 18.7119 9.26656 18.8397 9.44037 18.9278C9.61418 19.0159 9.8063 19.0618 10.0012 19.0618C10.196 19.0618 10.3882 19.0159 10.562 18.9278C10.7358 18.8397 10.8864 18.7119 11.0016 18.5547C11.682 17.6348 12.9938 15.7859 14.1266 13.7414C15.5348 11.1957 16.25 9.10899 16.25 7.53906C16.25 4.24414 13.4461 1.5625 10 1.5625ZM10 10.3125C9.50555 10.3125 9.0222 10.1659 8.61107 9.89117C8.19995 9.61647 7.87952 9.22602 7.6903 8.76921C7.50108 8.31239 7.45157 7.80973 7.54804 7.32477C7.6445 6.83982 7.8826 6.39436 8.23223 6.04473C8.58186 5.6951 9.02732 5.457 9.51227 5.36054C9.99723 5.26407 10.4999 5.31358 10.9567 5.5028C11.4135 5.69202 11.804 6.01245 12.0787 6.42358C12.3534 6.8347 12.5 7.31805 12.5 7.8125C12.4993 8.47532 12.2357 9.11078 11.767 9.57947C11.2983 10.0482 10.6628 10.3118 10 10.3125Z" fill="#BE52F2" stroke="#BE52F2"/>
</svg>
