<svg width="16" height="13" viewBox="0 0 16 13" fill="none" xmlns="http://www.w3.org/2000/svg">
<path fill-rule="evenodd" clip-rule="evenodd" d="M8.29992 3.60225C10.5349 3.60225 12.6839 4.46125 14.3029 6.00125C14.3615 6.05843 14.4404 6.0901 14.5222 6.08935C14.6041 6.0886 14.6824 6.05549 14.7399 5.99725L15.9059 4.82125C15.9361 4.79093 15.9599 4.75495 15.9761 4.71537C15.9923 4.67578 16.0005 4.63339 16.0002 4.59063C15.9999 4.54786 15.9912 4.50558 15.9745 4.46621C15.9578 4.42684 15.9335 4.39117 15.9029 4.36125C13.8573 2.40068 11.1334 1.30613 8.29992 1.30613C5.46647 1.30613 2.74255 2.40068 0.696918 4.36125C0.666364 4.39117 0.642036 4.42684 0.625336 4.46621C0.608637 4.50558 0.599895 4.54786 0.599616 4.59063C0.599337 4.63339 0.607527 4.67578 0.623712 4.71537C0.639896 4.75495 0.663757 4.79093 0.693917 4.82125L1.85992 5.99625C1.91747 6.05449 1.99572 6.0876 2.07759 6.08835C2.15947 6.0891 2.23831 6.05743 2.29692 6.00025C3.91641 4.46075 6.06546 3.60228 8.29992 3.60225ZM8.29992 7.43025C9.52792 7.43025 10.7119 7.88625 11.6219 8.71025C11.6812 8.76645 11.76 8.79727 11.8416 8.79615C11.9233 8.79503 12.0012 8.76205 12.0589 8.70425L13.2229 7.52825C13.2533 7.49775 13.2774 7.4615 13.2937 7.42161C13.31 7.38173 13.3182 7.339 13.3178 7.29591C13.3174 7.25283 13.3085 7.21025 13.2915 7.17065C13.2746 7.13105 13.2499 7.09522 13.2189 7.06525C11.883 5.82281 10.1263 5.13217 8.30192 5.13217C6.47755 5.13217 4.72083 5.82281 3.38492 7.06525C3.3539 7.09516 3.32914 7.13093 3.31207 7.1705C3.29501 7.21006 3.28598 7.25262 3.28552 7.2957C3.28505 7.33879 3.29316 7.38153 3.30936 7.42146C3.32557 7.46138 3.34955 7.49768 3.37992 7.52825L4.54392 8.70425C4.66392 8.82425 4.85792 8.82725 4.98092 8.71025C5.89058 7.88667 7.07382 7.43048 8.30092 7.43025H8.29992ZM10.5379 10.2373C10.5685 10.207 10.5926 10.1708 10.6088 10.1308C10.6249 10.0909 10.6327 10.0481 10.6318 10.0051C10.6309 9.96206 10.6212 9.91966 10.6033 9.88048C10.5855 9.84131 10.5598 9.80618 10.5279 9.77725C9.90507 9.25043 9.11569 8.96136 8.29992 8.96136C7.48415 8.96136 6.69477 9.25043 6.07192 9.77725C6.04004 9.80618 6.01438 9.84131 5.99652 9.88048C5.97866 9.91966 5.96897 9.96206 5.96803 10.0051C5.9671 10.0481 5.97494 10.0909 5.99108 10.1308C6.00722 10.1708 6.03132 10.207 6.06192 10.2373L8.07692 12.2703C8.10613 12.2999 8.14093 12.3234 8.17929 12.3394C8.21766 12.3554 8.25883 12.3637 8.30042 12.3637C8.342 12.3637 8.38317 12.3554 8.42154 12.3394C8.45991 12.3234 8.49471 12.2999 8.52392 12.2703L10.5379 10.2373Z" fill="black"/>
</svg>
