<svg width="16" height="13" viewBox="0 0 16 13" fill="none" xmlns="http://www.w3.org/2000/svg">
<path fill-rule="evenodd" clip-rule="evenodd" d="M8.29992 3.00853C10.5349 3.00853 12.6839 3.86753 14.3029 5.40753C14.3615 5.4647 14.4404 5.49638 14.5222 5.49563C14.6041 5.49488 14.6824 5.46177 14.7399 5.40353L15.9059 4.22753C15.9361 4.19721 15.9599 4.16122 15.9761 4.12164C15.9923 4.08206 16.0005 4.03966 16.0002 3.9969C15.9999 3.95414 15.9912 3.91185 15.9745 3.87249C15.9578 3.83312 15.9335 3.79745 15.9029 3.76753C13.8573 1.80696 11.1334 0.712402 8.29992 0.712402C5.46647 0.712402 2.74255 1.80696 0.696918 3.76753C0.666364 3.79745 0.642036 3.83312 0.625336 3.87249C0.608637 3.91185 0.599895 3.95414 0.599616 3.9969C0.599337 4.03966 0.607527 4.08206 0.623712 4.12164C0.639896 4.16122 0.663757 4.19721 0.693917 4.22753L1.85992 5.40253C1.91747 5.46077 1.99572 5.49388 2.07759 5.49463C2.15947 5.49538 2.23831 5.4637 2.29692 5.40653C3.91641 3.86702 6.06546 3.00855 8.29992 3.00853ZM8.29992 6.83653C9.52792 6.83653 10.7119 7.29253 11.6219 8.11653C11.6812 8.17272 11.76 8.20355 11.8416 8.20242C11.9233 8.2013 12.0012 8.16832 12.0589 8.11053L13.2229 6.93453C13.2533 6.90402 13.2774 6.86777 13.2937 6.82789C13.31 6.788 13.3182 6.74527 13.3178 6.70219C13.3174 6.6591 13.3085 6.61652 13.2915 6.57693C13.2746 6.53733 13.2499 6.5015 13.2189 6.47153C11.883 5.22909 10.1263 4.53844 8.30192 4.53844C6.47755 4.53844 4.72083 5.22909 3.38492 6.47153C3.3539 6.50143 3.32914 6.53721 3.31207 6.57677C3.29501 6.61633 3.28598 6.65889 3.28552 6.70198C3.28505 6.74506 3.29316 6.78781 3.30936 6.82773C3.32557 6.86765 3.34955 6.90396 3.37992 6.93453L4.54392 8.11053C4.66392 8.23053 4.85792 8.23353 4.98092 8.11653C5.89058 7.29294 7.07382 6.83675 8.30092 6.83653H8.29992ZM10.5379 9.64353C10.5685 9.61323 10.5926 9.57703 10.6088 9.53711C10.6249 9.4972 10.6327 9.45442 10.6318 9.41138C10.6309 9.36833 10.6212 9.32593 10.6033 9.28676C10.5855 9.24758 10.5598 9.21246 10.5279 9.18353C9.90507 8.6567 9.11569 8.36763 8.29992 8.36763C7.48415 8.36763 6.69477 8.6567 6.07192 9.18353C6.04004 9.21246 6.01438 9.24758 5.99652 9.28676C5.97866 9.32593 5.96897 9.36833 5.96803 9.41138C5.9671 9.45442 5.97494 9.4972 5.99108 9.53711C6.00722 9.57703 6.03132 9.61323 6.06192 9.64353L8.07692 11.6765C8.10613 11.7061 8.14093 11.7296 8.17929 11.7457C8.21766 11.7617 8.25883 11.77 8.30042 11.77C8.342 11.77 8.38317 11.7617 8.42154 11.7457C8.45991 11.7296 8.49471 11.7061 8.52392 11.6765L10.5379 9.64353Z" fill="black"/>
</svg>
