<svg width="25" height="13" viewBox="0 0 25 13" fill="none" xmlns="http://www.w3.org/2000/svg">
<path d="M3.59 1.47253C2.602 1.47253 2.258 1.53953 1.904 1.72853C1.622 1.87853 1.407 2.09453 1.256 2.37653C1.066 2.73053 1 3.07453 1 4.06153V8.38353C1 9.37053 1.067 9.71453 1.256 10.0685C1.406 10.3505 1.622 10.5655 1.904 10.7165C2.258 10.9065 2.602 10.9725 3.589 10.9725H18.411C19.398 10.9725 19.742 10.9055 20.096 10.7165C20.378 10.5665 20.593 10.3505 20.744 10.0685C20.934 9.71453 21 9.37053 21 8.38353V4.06153C21 3.07453 20.933 2.73053 20.744 2.37653C20.5985 2.09997 20.3726 1.87403 20.096 1.72853C19.742 1.53853 19.398 1.47253 18.411 1.47253H3.589H3.59ZM3.59 0.472534H18.41C19.659 0.472534 20.111 0.602534 20.568 0.846534C21.024 1.09053 21.382 1.44853 21.626 1.90453C21.87 2.36153 22 2.81453 22 4.06153V8.38353C22 9.63153 21.87 10.0835 21.626 10.5405C21.3874 10.9913 21.0187 11.3599 20.568 11.5985C20.111 11.8425 19.658 11.9725 18.411 11.9725H3.589C2.341 11.9725 1.889 11.8425 1.432 11.5985C0.981252 11.3599 0.612639 10.9913 0.374 10.5405C0.13 10.0825 0 9.63053 0 8.38253V4.06153C0 2.81353 0.13 2.36153 0.374 1.90453C0.612639 1.45379 0.981252 1.08517 1.432 0.846534C1.89 0.602534 2.342 0.472534 3.59 0.472534ZM23 4.16253C24 4.67153 24.5 5.33853 24.5 6.16253C24.5 6.98653 24 7.65353 23 8.16253V4.16253Z" fill="black" fill-opacity="0.36"/>
<path fill-rule="evenodd" clip-rule="evenodd" d="M4.051 2.38953H17.95C18.663 2.38953 18.922 2.46353 19.182 2.60253C19.443 2.74253 19.648 2.94653 19.787 3.20753C19.927 3.46753 20.001 3.72753 20.001 4.44053V8.00453C20.001 8.71753 19.927 8.97653 19.787 9.23753C19.647 9.49753 19.443 9.70253 19.182 9.84253C18.922 9.98253 18.663 10.0555 17.95 10.0555H4.05C3.337 10.0555 3.078 9.98153 2.818 9.84253C2.56022 9.7061 2.34942 9.49531 2.213 9.23753C2.074 8.97753 2 8.71753 2 8.00453V4.44053C2 3.72753 2.074 3.46853 2.214 3.20753C2.354 2.94753 2.558 2.74253 2.819 2.60253C3.079 2.46253 3.338 2.38953 4.051 2.38953Z" fill="black"/>
</svg>
