<svg width="20" height="21" viewBox="0 0 20 21" fill="none" xmlns="http://www.w3.org/2000/svg">
<path d="M10 13.4062C11.3807 13.4062 12.5 12.287 12.5 10.9062C12.5 9.52554 11.3807 8.40625 10 8.40625C8.61929 8.40625 7.5 9.52554 7.5 10.9062C7.5 12.287 8.61929 13.4062 10 13.4062Z" fill="#B5B5BA" stroke="#B5B5BA"/>
<path d="M19.1733 10.2266C18.1397 8.62813 16.7986 7.27031 15.2955 6.29961C13.6326 5.22461 11.7967 4.65625 9.98653 4.65625C8.32559 4.65625 6.69239 5.13086 5.13223 6.0668C3.54121 7.02109 2.0998 8.41523 0.84785 10.2102C0.706515 10.413 0.628677 10.6533 0.624226 10.9005C0.619774 11.1477 0.688911 11.3906 0.82285 11.5984C1.85449 13.2129 3.18223 14.5727 4.66191 15.5301C6.32793 16.6094 8.1209 17.1562 9.98653 17.1562C11.8111 17.1562 13.651 16.5926 15.3068 15.5266C16.8092 14.559 18.1475 13.1961 19.1772 11.5844C19.3065 11.3814 19.3749 11.1456 19.3742 10.9049C19.3735 10.6642 19.3037 10.4288 19.1733 10.2266ZM9.99981 14.6562C9.25813 14.6562 8.5331 14.4363 7.91642 14.0243C7.29973 13.6122 6.81909 13.0265 6.53526 12.3413C6.25143 11.6561 6.17717 10.9021 6.32186 10.1747C6.46656 9.44723 6.82371 8.77905 7.34816 8.2546C7.8726 7.73015 8.54079 7.373 9.26822 7.22831C9.99565 7.08361 10.7497 7.15787 11.4349 7.4417C12.1201 7.72553 12.7058 8.20618 13.1178 8.82286C13.5299 9.43955 13.7498 10.1646 13.7498 10.9062C13.7487 11.9005 13.3532 12.8536 12.6502 13.5566C11.9472 14.2597 10.994 14.6551 9.99981 14.6562Z" fill="#B5B5BA" stroke="#B5B5BA"/>
</svg>
