<svg width="152" height="151" viewBox="0 0 152 151" fill="none" xmlns="http://www.w3.org/2000/svg">
<g filter="url(#filter0_d_3_792)">
<path d="M76.1473 58.3437C70.2069 58.2635 65.3573 63.1131 65.4375 69.0535C65.5167 74.7507 70.1556 79.3895 75.8527 79.4687C81.7941 79.55 86.6427 74.7004 86.5615 68.76C86.4833 63.0618 81.8444 58.423 76.1473 58.3437ZM82.567 74.9619C82.5468 74.9838 82.522 75.0009 82.4944 75.0122C82.4668 75.0234 82.4371 75.0284 82.4073 75.0268C82.3776 75.0253 82.3485 75.0172 82.3222 75.0032C82.296 74.9892 82.2731 74.9695 82.2552 74.9457C81.801 74.3514 81.2448 73.8426 80.6125 73.443C79.3196 72.6133 77.6814 72.1562 76 72.1562C74.3186 72.1562 72.6804 72.6133 71.3875 73.443C70.7553 73.8424 70.199 74.351 69.7448 74.9451C69.7269 74.969 69.704 74.9886 69.6778 75.0027C69.6515 75.0167 69.6224 75.0248 69.5927 75.0263C69.5629 75.0279 69.5332 75.0229 69.5056 75.0117C69.478 75.0004 69.4532 74.9833 69.433 74.9614C67.9429 73.3528 67.0988 71.251 67.0625 69.0586C66.9797 64.1171 71.0346 59.9809 75.9782 59.9687C80.9217 59.9566 84.9375 63.9708 84.9375 68.9062C84.9392 71.1515 84.0925 73.3145 82.567 74.9619Z" fill="#EEDFF2" stroke="#EEDFF2"/>
<path d="M75.9999 63.2188C74.9985 63.2188 74.0931 63.594 73.4497 64.276C72.8063 64.958 72.4848 65.901 72.5575 66.9131C72.7047 68.9062 74.249 70.5312 75.9999 70.5312C77.7508 70.5312 79.2921 68.9062 79.4424 66.9136C79.5175 65.9112 79.1986 64.9768 78.5446 64.2821C77.8986 63.5966 76.9947 63.2188 75.9999 63.2188Z" fill="#EEDFF2" stroke="#EEDFF2"/>
</g>
<defs>
<filter id="filter0_d_3_792" x="-1" y="-1.09375" width="154" height="154" filterUnits="userSpaceOnUse" color-interpolation-filters="sRGB">
<feFlood flood-opacity="0" result="BackgroundImageFix"/>
<feColorMatrix in="SourceAlpha" type="matrix" values="0 0 0 0 0 0 0 0 0 0 0 0 0 0 0 0 0 0 127 0" result="hardAlpha"/>
<feOffset dy="7"/>
<feGaussianBlur stdDeviation="32"/>
<feColorMatrix type="matrix" values="0 0 0 0 0 0 0 0 0 0 0 0 0 0 0 0 0 0 0.07 0"/>
<feBlend mode="normal" in2="BackgroundImageFix" result="effect1_dropShadow_3_792"/>
<feBlend mode="normal" in="SourceGraphic" in2="effect1_dropShadow_3_792" result="shape"/>
</filter>
</defs>
</svg>
