<svg width="65" height="48" viewBox="0 0 65 48" fill="none" xmlns="http://www.w3.org/2000/svg">
<path fill-rule="evenodd" clip-rule="evenodd" d="M43 6.77295C51.837 6.77295 59 13.7768 59 22.4174C59 31.058 51.837 38.0618 43 38.0618H23C14.163 38.0618 7 31.058 7 22.4174C7 13.7768 14.163 6.77295 23 6.77295H43ZM43 8.7285H23C15.268 8.7285 9 14.8572 9 22.4174C9 29.9776 15.268 36.1063 23 36.1063H43C50.732 36.1063 57 29.9776 57 22.4174C57 14.8572 50.732 8.7285 43 8.7285Z" fill="#E5E5EA"/>
<g filter="url(#filter0_ddd_3_975)">
<path d="M23 8.72852C30.732 8.72852 37 14.8572 37 22.4174C37 29.9776 30.732 36.1063 23 36.1063C15.268 36.1063 9 29.9776 9 22.4174C9 14.8572 15.268 8.72852 23 8.72852Z" fill="black"/>
</g>
<path fill-rule="evenodd" clip-rule="evenodd" d="M23 8.48402C21.1283 8.48169 19.2746 8.84105 17.5455 9.54144C15.8163 10.2418 14.2457 11.2695 12.924 12.5653C11.5988 13.8576 10.5478 15.3933 9.83147 17.084C9.11515 18.7748 8.74763 20.5873 8.75001 22.4174C8.75001 26.2649 10.345 29.7487 12.924 32.2694C14.2457 33.5652 15.8163 34.5929 17.5455 35.2933C19.2746 35.9937 21.1283 36.353 23 36.3507C26.935 36.3507 30.498 34.7911 33.076 32.2694C34.4013 30.9771 35.4522 29.4414 36.1686 27.7507C36.8849 26.0599 37.2524 24.2474 37.25 22.4174C37.25 18.5698 35.655 15.086 33.076 12.5653C31.7543 11.2695 30.1837 10.2418 28.4546 9.54144C26.7254 8.84105 24.8717 8.48169 23 8.48402Z" fill="white" stroke="black" stroke-opacity="0.04" stroke-width="0.5"/>
<defs>
<filter id="filter0_ddd_3_975" x="1" y="3.72852" width="44" height="43.3778" filterUnits="userSpaceOnUse" color-interpolation-filters="sRGB">
<feFlood flood-opacity="0" result="BackgroundImageFix"/>
<feColorMatrix in="SourceAlpha" type="matrix" values="0 0 0 0 0 0 0 0 0 0 0 0 0 0 0 0 0 0 127 0" result="hardAlpha"/>
<feOffset dy="3"/>
<feGaussianBlur stdDeviation="0.5"/>
<feColorMatrix type="matrix" values="0 0 0 0 0 0 0 0 0 0 0 0 0 0 0 0 0 0 0.1 0"/>
<feBlend mode="normal" in2="BackgroundImageFix" result="effect1_dropShadow_3_975"/>
<feColorMatrix in="SourceAlpha" type="matrix" values="0 0 0 0 0 0 0 0 0 0 0 0 0 0 0 0 0 0 127 0" result="hardAlpha"/>
<feOffset dy="1"/>
<feGaussianBlur stdDeviation="0.5"/>
<feColorMatrix type="matrix" values="0 0 0 0 0 0 0 0 0 0 0 0 0 0 0 0 0 0 0.16 0"/>
<feBlend mode="normal" in2="effect1_dropShadow_3_975" result="effect2_dropShadow_3_975"/>
<feColorMatrix in="SourceAlpha" type="matrix" values="0 0 0 0 0 0 0 0 0 0 0 0 0 0 0 0 0 0 127 0" result="hardAlpha"/>
<feOffset dy="3"/>
<feGaussianBlur stdDeviation="4"/>
<feColorMatrix type="matrix" values="0 0 0 0 0 0 0 0 0 0 0 0 0 0 0 0 0 0 0.15 0"/>
<feBlend mode="normal" in2="effect2_dropShadow_3_975" result="effect3_dropShadow_3_975"/>
<feBlend mode="normal" in="SourceGraphic" in2="effect3_dropShadow_3_975" result="shape"/>
</filter>
</defs>
</svg>
