<svg width="24" height="25" viewBox="0 0 24 25" fill="none" xmlns="http://www.w3.org/2000/svg">
<path d="M12.2604 5.60695C12.1906 5.54019 12.0978 5.50293 12.0012 5.50293C11.9046 5.50293 11.8118 5.54019 11.742 5.60695L3.1123 13.8509C3.07566 13.8859 3.0465 13.928 3.0266 13.9747C3.0067 14.0213 2.99647 14.0716 2.99652 14.1223L2.99512 21.8595C2.99512 22.2573 3.15315 22.6388 3.43446 22.9201C3.71576 23.2014 4.09729 23.3595 4.49512 23.3595H8.99981C9.19872 23.3595 9.38948 23.2804 9.53014 23.1398C9.67079 22.9991 9.74981 22.8084 9.74981 22.6095V16.2345C9.74981 16.135 9.78932 16.0396 9.85964 15.9693C9.92997 15.899 10.0254 15.8595 10.1248 15.8595H13.8748C13.9743 15.8595 14.0696 15.899 14.14 15.9693C14.2103 16.0396 14.2498 16.135 14.2498 16.2345V22.6095C14.2498 22.8084 14.3288 22.9991 14.4695 23.1398C14.6101 23.2804 14.8009 23.3595 14.9998 23.3595H19.5026C19.9004 23.3595 20.282 23.2014 20.5633 22.9201C20.8446 22.6388 21.0026 22.2573 21.0026 21.8595V14.1223C21.0027 14.0716 20.9925 14.0213 20.9726 13.9747C20.9527 13.928 20.9235 13.8859 20.8868 13.8509L12.2604 5.60695Z" fill="#E5E5E5" stroke="#E5E5E5"/>
<path d="M23.0114 12.3039L19.5052 8.94954V3.85938C19.5052 3.66046 19.4261 3.4697 19.2855 3.32905C19.1448 3.18839 18.9541 3.10938 18.7552 3.10938H16.5052C16.3063 3.10938 16.1155 3.18839 15.9748 3.32905C15.8342 3.4697 15.7552 3.66046 15.7552 3.85938V5.35938L13.0402 2.76344C12.7861 2.50656 12.4083 2.35938 12 2.35938C11.5931 2.35938 11.2163 2.50656 10.9622 2.76391L0.991893 12.303C0.70033 12.5842 0.663768 13.0469 0.92908 13.3516C0.995704 13.4285 1.07728 13.491 1.16884 13.5354C1.26041 13.5798 1.36005 13.6051 1.46169 13.6097C1.56334 13.6144 1.66487 13.5983 1.7601 13.5624C1.85533 13.5266 1.94228 13.4718 2.01564 13.4013L11.7422 4.10688C11.812 4.04012 11.9048 4.00286 12.0014 4.00286C12.098 4.00286 12.1908 4.04012 12.2606 4.10688L21.9881 13.4013C22.1314 13.5387 22.3234 13.6137 22.5218 13.6098C22.7203 13.6059 22.9092 13.5235 23.047 13.3806C23.3348 13.0825 23.3109 12.5903 23.0114 12.3039Z" fill="#E5E5E5" stroke="#E5E5E5"/>
</svg>
