<svg width="20" height="21" viewBox="0 0 20 21" fill="none" xmlns="http://www.w3.org/2000/svg">
<path d="M10 2.1875C5.51992 2.1875 1.875 5.83242 1.875 10.3125C1.875 14.7926 5.51992 18.4375 10 18.4375C14.4801 18.4375 18.125 14.7926 18.125 10.3125C18.125 5.83242 14.4801 2.1875 10 2.1875ZM10 14.684C9.84548 14.684 9.69444 14.6382 9.56596 14.5523C9.43748 14.4665 9.33735 14.3445 9.27822 14.2017C9.21909 14.059 9.20362 13.9019 9.23376 13.7503C9.26391 13.5988 9.33831 13.4596 9.44757 13.3503C9.55683 13.241 9.69604 13.1666 9.84759 13.1365C9.99913 13.1064 10.1562 13.1218 10.299 13.181C10.4417 13.2401 10.5637 13.3402 10.6496 13.4687C10.7354 13.5972 10.7812 13.7482 10.7812 13.9027C10.7812 14.1099 10.6989 14.3086 10.5524 14.4552C10.4059 14.6017 10.2072 14.684 10 14.684ZM10.8484 6.82656L10.6242 11.5922C10.6242 11.7579 10.5584 11.9169 10.4412 12.0341C10.3239 12.1513 10.165 12.2172 9.99922 12.2172C9.83346 12.2172 9.67449 12.1513 9.55728 12.0341C9.44007 11.9169 9.37422 11.7579 9.37422 11.5922L9.15 6.82891V6.82695C9.14509 6.71247 9.16339 6.59818 9.20381 6.49096C9.24424 6.38374 9.30594 6.28581 9.38521 6.20306C9.46448 6.12032 9.55967 6.05447 9.66506 6.00949C9.77045 5.96451 9.88385 5.94132 9.99844 5.94132C10.113 5.94132 10.2264 5.96451 10.3318 6.00949C10.4372 6.05447 10.5324 6.12032 10.6117 6.20306C10.6909 6.28581 10.7526 6.38374 10.7931 6.49096C10.8335 6.59818 10.8518 6.71247 10.8469 6.82695L10.8484 6.82656Z" fill="#B5B5BA" stroke="#B5B5BA"/>
</svg>
