<svg width="12" height="22" viewBox="0 0 12 22" fill="none" xmlns="http://www.w3.org/2000/svg">
<path fill-rule="evenodd" clip-rule="evenodd" d="M9.53696 21.2393L0.291961 12.1023C0.199439 12.0115 0.125943 11.9032 0.0757703 11.7837C0.0255977 11.6642 -0.000244141 11.5359 -0.000244141 11.4062C-0.000244141 11.2766 0.0255977 11.1483 0.0757703 11.0288C0.125943 10.9093 0.199439 10.801 0.291961 10.7102L9.53696 1.57325C9.8092 1.30599 10.1755 1.15626 10.557 1.15626C10.9385 1.15626 11.3047 1.30599 11.577 1.57325C12.14 2.13025 12.14 3.03325 11.577 3.58925L3.66996 11.4062L11.579 19.2222C12.141 19.7792 12.141 20.6823 11.579 21.2393C11.3067 21.5065 10.9405 21.6562 10.559 21.6562C10.1775 21.6562 9.8112 21.5065 9.53896 21.2393" fill="#A5AFFB"/>
</svg>
