<svg width="20" height="21" viewBox="0 0 20 21" fill="none" xmlns="http://www.w3.org/2000/svg">
<path d="M9.99995 17.8125C9.74905 17.8122 9.50405 17.7364 9.29682 17.5949C6.2269 15.5109 4.8976 14.082 4.1644 13.1887C2.6019 11.2844 1.85385 9.3293 1.87495 7.21211C1.89955 4.78594 3.84604 2.8125 6.21401 2.8125C7.93588 2.8125 9.12846 3.78242 9.82299 4.59023C9.84499 4.61557 9.87218 4.63588 9.90271 4.6498C9.93323 4.66372 9.9664 4.67092 9.99995 4.67092C10.0335 4.67092 10.0667 4.66372 10.0972 4.6498C10.1277 4.63588 10.1549 4.61557 10.1769 4.59023C10.8714 3.78164 12.064 2.8125 13.7859 2.8125C16.1539 2.8125 18.1003 4.78594 18.1249 7.2125C18.146 9.33008 17.3972 11.2852 15.8355 13.1891C15.1023 14.0824 13.773 15.5113 10.7031 17.5953C10.4958 17.7366 10.2508 17.8123 9.99995 17.8125V17.8125Z" fill="#D0C9D6" stroke="#D0C9D6"/>
</svg>
