<svg width="24" height="25" viewBox="0 0 24 25" fill="none" xmlns="http://www.w3.org/2000/svg">
<path fill-rule="evenodd" clip-rule="evenodd" d="M9.46315 18.4655C9.58797 18.4684 9.71204 18.4455 9.82765 18.3984C9.94325 18.3513 10.0479 18.2808 10.1352 18.1915L15.1072 13.2695C15.3402 13.0455 15.4472 12.8045 15.4472 12.5145C15.4472 12.2245 15.3402 11.9745 15.1162 11.7585L10.1362 6.8365C10.0486 6.74712 9.94353 6.67668 9.82759 6.62955C9.71165 6.58242 9.58727 6.5596 9.46215 6.5625C9.33614 6.56171 9.21121 6.58582 9.09454 6.63343C8.97787 6.68105 8.87175 6.75123 8.78228 6.83997C8.6928 6.9287 8.62173 7.03423 8.57314 7.1505C8.52456 7.26677 8.49941 7.39149 8.49915 7.5175C8.49915 7.7825 8.60715 8.0235 8.79815 8.2225L13.1642 12.5225L8.79815 16.8135C8.65869 16.9455 8.56216 17.1164 8.52113 17.304C8.48009 17.4916 8.49645 17.6872 8.56807 17.8654C8.63968 18.0436 8.76325 18.1961 8.9227 18.3031C9.08216 18.4102 9.27012 18.4667 9.46215 18.4655H9.46315Z" fill="#C7C7CC"/>
</svg>
