<svg width="24" height="25" viewBox="0 0 24 25" fill="none" xmlns="http://www.w3.org/2000/svg">
<path d="M21.4073 20.6589L16.9969 16.2484C18.0587 14.8349 18.6319 13.1142 18.63 11.3463C18.63 6.83031 14.9559 3.15625 10.44 3.15625C5.92406 3.15625 2.25 6.83031 2.25 11.3463C2.25 15.8622 5.92406 19.5363 10.44 19.5363C12.208 19.5382 13.9286 18.965 15.3422 17.9031L19.7527 22.3136C19.9759 22.5132 20.2671 22.6197 20.5664 22.6113C20.8658 22.6029 21.1506 22.4803 21.3623 22.2685C21.574 22.0568 21.6967 21.772 21.7051 21.4727C21.7135 21.1734 21.6069 20.8822 21.4073 20.6589ZM4.59 11.3463C4.59 10.1892 4.9331 9.05819 5.5759 8.09616C6.21871 7.13414 7.13235 6.38433 8.2013 5.94156C9.27025 5.49878 10.4465 5.38293 11.5813 5.60866C12.7161 5.83438 13.7584 6.39154 14.5766 7.20968C15.3947 8.02781 15.9519 9.07018 16.1776 10.205C16.4033 11.3398 16.2875 12.516 15.8447 13.5849C15.4019 14.6539 14.6521 15.5675 13.6901 16.2103C12.7281 16.8532 11.597 17.1963 10.44 17.1963C8.88906 17.1944 7.40217 16.5775 6.30548 15.4808C5.2088 14.3841 4.59186 12.8972 4.59 11.3463Z" fill="#E5E5E5" stroke="#E5E5E5"/>
</svg>
