<svg width="16" height="13" viewBox="0 0 16 13" fill="none" xmlns="http://www.w3.org/2000/svg">
<path fill-rule="evenodd" clip-rule="evenodd" d="M8.30004 3.60228C10.535 3.60228 12.684 4.46128 14.303 6.00128C14.3616 6.05845 14.4405 6.09013 14.5224 6.08938C14.6042 6.08863 14.6825 6.05552 14.74 5.99728L15.906 4.82128C15.9362 4.79096 15.9601 4.75497 15.9762 4.71539C15.9924 4.67581 16.0006 4.63341 16.0003 4.59065C16.0001 4.54789 15.9913 4.5056 15.9746 4.46624C15.9579 4.42687 15.9336 4.3912 15.903 4.36128C13.8574 2.40071 11.1335 1.30615 8.30004 1.30615C5.46659 1.30615 2.74267 2.40071 0.69704 4.36128C0.666486 4.3912 0.642158 4.42687 0.625459 4.46624C0.608759 4.5056 0.600017 4.54789 0.599738 4.59065C0.599459 4.63341 0.607649 4.67581 0.623834 4.71539C0.640019 4.75497 0.663879 4.79096 0.69404 4.82128L1.86004 5.99628C1.91759 6.05452 1.99584 6.08763 2.07771 6.08838C2.15959 6.08913 2.23843 6.05745 2.29704 6.00028C3.91653 4.46077 6.06558 3.6023 8.30004 3.60228ZM8.30004 7.43028C9.52804 7.43028 10.712 7.88628 11.622 8.71028C11.6813 8.76647 11.7601 8.7973 11.8418 8.79617C11.9234 8.79505 12.0014 8.76207 12.059 8.70428L13.223 7.52828C13.2535 7.49777 13.2775 7.46152 13.2938 7.42164C13.3101 7.38175 13.3183 7.33902 13.3179 7.29594C13.3176 7.25285 13.3086 7.21027 13.2917 7.17068C13.2747 7.13108 13.25 7.09525 13.219 7.06528C11.8831 5.82284 10.1264 5.13219 8.30204 5.13219C6.47768 5.13219 4.72095 5.82284 3.38504 7.06528C3.35402 7.09518 3.32926 7.13096 3.3122 7.17052C3.29513 7.21008 3.2861 7.25264 3.28564 7.29573C3.28517 7.33881 3.29328 7.38156 3.30949 7.42148C3.32569 7.4614 3.34968 7.49771 3.38004 7.52828L4.54404 8.70428C4.66404 8.82428 4.85804 8.82728 4.98104 8.71028C5.8907 7.88669 7.07394 7.4305 8.30104 7.43028H8.30004ZM10.538 10.2373C10.5686 10.207 10.5927 10.1708 10.6089 10.1309C10.625 10.091 10.6329 10.0482 10.6319 10.0051C10.631 9.96208 10.6213 9.91968 10.6034 9.88051C10.5856 9.84133 10.5599 9.80621 10.528 9.77728C9.90519 9.25045 9.11581 8.96138 8.30004 8.96138C7.48427 8.96138 6.69489 9.25045 6.07204 9.77728C6.04016 9.80621 6.01451 9.84133 5.99664 9.88051C5.97878 9.91968 5.96909 9.96208 5.96815 10.0051C5.96722 10.0482 5.97506 10.091 5.9912 10.1309C6.00734 10.1708 6.03145 10.207 6.06204 10.2373L8.07704 12.2703C8.10625 12.2999 8.14105 12.3234 8.17942 12.3394C8.21778 12.3555 8.25895 12.3637 8.30054 12.3637C8.34213 12.3637 8.3833 12.3555 8.42166 12.3394C8.46003 12.3234 8.49483 12.2999 8.52404 12.2703L10.538 10.2373Z" fill="black"/>
</svg>
