<svg width="24" height="25" viewBox="0 0 24 25" fill="none" xmlns="http://www.w3.org/2000/svg">
<path fill-rule="evenodd" clip-rule="evenodd" d="M9.46303 18.0124C9.58785 18.0152 9.71192 17.9924 9.82752 17.9453C9.94313 17.8981 10.0478 17.8277 10.135 17.7384L15.107 12.8164C15.34 12.5924 15.447 12.3514 15.447 12.0614C15.447 11.7714 15.34 11.5214 15.116 11.3054L10.136 6.38338C10.0484 6.29399 9.94341 6.22355 9.82747 6.17642C9.71153 6.12929 9.58715 6.10647 9.46203 6.10938C9.33602 6.10859 9.21109 6.13269 9.09442 6.18031C8.97775 6.22792 8.87163 6.29811 8.78215 6.38684C8.69268 6.47557 8.62161 6.5811 8.57302 6.69737C8.52444 6.81364 8.49929 6.93836 8.49903 7.06438C8.49903 7.32938 8.60703 7.57038 8.79803 7.76938L13.164 12.0694L8.79803 16.3604C8.65856 16.4924 8.56204 16.6633 8.521 16.8509C8.47997 17.0385 8.49633 17.2341 8.56794 17.4123C8.63956 17.5905 8.76313 17.743 8.92258 17.85C9.08203 17.957 9.27 18.0136 9.46203 18.0124H9.46303Z" fill="#C7C7CC"/>
</svg>
