<svg width="24" height="25" viewBox="0 0 24 25" fill="none" xmlns="http://www.w3.org/2000/svg">
<path d="M19.6467 4.60938H19.6406L17.9977 4.62484L6 4.60938H5.9925L4.27031 4.62484C3.13734 4.62719 2.25 5.55016 2.25 6.72812V17.522C2.25 18.7009 3.14062 19.6248 4.275 19.6248H4.28203L6.00281 19.6094L17.9991 19.6248H18.007L19.6509 19.6094C20.2079 19.6078 20.7415 19.3855 21.1349 18.9913C21.5283 18.5971 21.7495 18.063 21.75 17.5061V6.71266C21.7494 6.15502 21.5276 5.6204 21.1333 5.2261C20.739 4.83179 20.2044 4.61 19.6467 4.60938ZM6.75 15.1094C6.75 15.3083 6.67098 15.4991 6.53033 15.6397C6.38968 15.7804 6.19891 15.8594 6 15.8594C5.80109 15.8594 5.61032 15.7804 5.46967 15.6397C5.32902 15.4991 5.25 15.3083 5.25 15.1094V9.10938C5.25 8.91046 5.32902 8.7197 5.46967 8.57905C5.61032 8.43839 5.80109 8.35938 6 8.35938C6.19891 8.35938 6.38968 8.43839 6.53033 8.57905C6.67098 8.7197 6.75 8.91046 6.75 9.10938V15.1094ZM9.75 16.6094C9.75 16.8083 9.67098 16.9991 9.53033 17.1397C9.38968 17.2804 9.19891 17.3594 9 17.3594C8.80109 17.3594 8.61032 17.2804 8.46967 17.1397C8.32902 16.9991 8.25 16.8083 8.25 16.6094V7.60938C8.25 7.41046 8.32902 7.2197 8.46967 7.07905C8.61032 6.93839 8.80109 6.85938 9 6.85938C9.19891 6.85938 9.38968 6.93839 9.53033 7.07905C9.67098 7.2197 9.75 7.41046 9.75 7.60938V16.6094ZM12.75 15.8594C12.75 16.0583 12.671 16.2491 12.5303 16.3897C12.3897 16.5304 12.1989 16.6094 12 16.6094C11.8011 16.6094 11.6103 16.5304 11.4697 16.3897C11.329 16.2491 11.25 16.0583 11.25 15.8594V8.35938C11.25 8.16046 11.329 7.9697 11.4697 7.82905C11.6103 7.68839 11.8011 7.60938 12 7.60938C12.1989 7.60938 12.3897 7.68839 12.5303 7.82905C12.671 7.9697 12.75 8.16046 12.75 8.35938V15.8594ZM15.75 16.6094C15.75 16.8083 15.671 16.9991 15.5303 17.1397C15.3897 17.2804 15.1989 17.3594 15 17.3594C14.8011 17.3594 14.6103 17.2804 14.4697 17.1397C14.329 16.9991 14.25 16.8083 14.25 16.6094V7.60938C14.25 7.41046 14.329 7.2197 14.4697 7.07905C14.6103 6.93839 14.8011 6.85938 15 6.85938C15.1989 6.85938 15.3897 6.93839 15.5303 7.07905C15.671 7.2197 15.75 7.41046 15.75 7.60938V16.6094ZM18.75 15.1094C18.75 15.3083 18.671 15.4991 18.5303 15.6397C18.3897 15.7804 18.1989 15.8594 18 15.8594C17.8011 15.8594 17.6103 15.7804 17.4697 15.6397C17.329 15.4991 17.25 15.3083 17.25 15.1094V9.10938C17.25 8.91046 17.329 8.7197 17.4697 8.57905C17.6103 8.43839 17.8011 8.35938 18 8.35938C18.1989 8.35938 18.3897 8.43839 18.5303 8.57905C18.671 8.7197 18.75 8.91046 18.75 9.10938V15.1094Z" fill="#E5E5E5" stroke="#E5E5E5"/>
</svg>
