<svg width="16" height="13" viewBox="0 0 16 13" fill="none" xmlns="http://www.w3.org/2000/svg">
<path fill-rule="evenodd" clip-rule="evenodd" d="M8.29992 3.0085C10.5349 3.0085 12.6839 3.8675 14.3029 5.4075C14.3615 5.46468 14.4404 5.49635 14.5222 5.4956C14.6041 5.49485 14.6824 5.46174 14.7399 5.4035L15.9059 4.2275C15.9361 4.19718 15.9599 4.1612 15.9761 4.12161C15.9923 4.08203 16.0005 4.03964 16.0002 3.99687C15.9999 3.95411 15.9912 3.91183 15.9745 3.87246C15.9578 3.83309 15.9335 3.79742 15.9029 3.7675C13.8573 1.80693 11.1334 0.712376 8.29992 0.712376C5.46647 0.712376 2.74255 1.80693 0.696918 3.7675C0.666364 3.79742 0.642036 3.83309 0.625336 3.87246C0.608637 3.91183 0.599895 3.95411 0.599616 3.99687C0.599337 4.03964 0.607527 4.08203 0.623712 4.12161C0.639896 4.1612 0.663757 4.19718 0.693917 4.2275L1.85992 5.4025C1.91747 5.46074 1.99572 5.49385 2.07759 5.4946C2.15947 5.49535 2.23831 5.46368 2.29692 5.4065C3.91641 3.867 6.06546 3.00852 8.29992 3.0085ZM8.29992 6.8365C9.52792 6.8365 10.7119 7.2925 11.6219 8.1165C11.6812 8.17269 11.76 8.20352 11.8416 8.2024C11.9233 8.20128 12.0012 8.1683 12.0589 8.1105L13.2229 6.9345C13.2533 6.904 13.2774 6.86775 13.2937 6.82786C13.31 6.78797 13.3182 6.74525 13.3178 6.70216C13.3174 6.65908 13.3085 6.6165 13.2915 6.5769C13.2746 6.5373 13.2499 6.50147 13.2189 6.4715C11.883 5.22906 10.1263 4.53842 8.30192 4.53842C6.47755 4.53842 4.72083 5.22906 3.38492 6.4715C3.3539 6.5014 3.32914 6.53718 3.31207 6.57674C3.29501 6.61631 3.28598 6.65887 3.28552 6.70195C3.28505 6.74504 3.29316 6.78778 3.30936 6.82771C3.32557 6.86763 3.34955 6.90393 3.37992 6.9345L4.54392 8.1105C4.66392 8.2305 4.85792 8.2335 4.98092 8.1165C5.89058 7.29291 7.07382 6.83673 8.30092 6.8365H8.29992ZM10.5379 9.6435C10.5685 9.61321 10.5926 9.577 10.6088 9.53709C10.6249 9.49717 10.6327 9.45439 10.6318 9.41135C10.6309 9.36831 10.6212 9.32591 10.6033 9.28673C10.5855 9.24756 10.5598 9.21243 10.5279 9.1835C9.90507 8.65668 9.11569 8.36761 8.29992 8.36761C7.48415 8.36761 6.69477 8.65668 6.07192 9.1835C6.04004 9.21243 6.01438 9.24756 5.99652 9.28673C5.97866 9.32591 5.96897 9.36831 5.96803 9.41135C5.9671 9.45439 5.97494 9.49717 5.99108 9.53709C6.00722 9.577 6.03132 9.61321 6.06192 9.6435L8.07692 11.6765C8.10613 11.7061 8.14093 11.7296 8.17929 11.7456C8.21766 11.7617 8.25883 11.7699 8.30042 11.7699C8.342 11.7699 8.38317 11.7617 8.42154 11.7456C8.45991 11.7296 8.49471 11.7061 8.52392 11.6765L10.5379 9.6435Z" fill="black"/>
</svg>
