<svg width="12" height="22" viewBox="0 0 12 22" fill="none" xmlns="http://www.w3.org/2000/svg">
<path fill-rule="evenodd" clip-rule="evenodd" d="M9.53696 21.1924L0.291961 12.0554C0.199439 11.9646 0.125943 11.8563 0.0757703 11.7368C0.0255977 11.6173 -0.000244141 11.489 -0.000244141 11.3594C-0.000244141 11.2298 0.0255977 11.1014 0.0757703 10.9819C0.125943 10.8624 0.199439 10.7541 0.291961 10.6634L9.53696 1.52637C9.8092 1.25911 10.1755 1.10937 10.557 1.10938C10.9385 1.10937 11.3047 1.25911 11.577 1.52637C12.14 2.08337 12.14 2.98637 11.577 3.54237L3.66996 11.3594L11.579 19.1754C12.141 19.7324 12.141 20.6354 11.579 21.1924C11.3067 21.4596 10.9405 21.6094 10.559 21.6094C10.1775 21.6094 9.8112 21.4596 9.53896 21.1924" fill="#A5AFFB"/>
</svg>
