<svg width="24" height="25" viewBox="0 0 24 25" fill="none" xmlns="http://www.w3.org/2000/svg">
<path d="M19.6467 5.35938H19.6406L17.9977 5.37484L6 5.35938H5.9925L4.27031 5.37484C3.13734 5.37719 2.25 6.30016 2.25 7.47812V18.272C2.25 19.4509 3.14062 20.3748 4.275 20.3748H4.28203L6.00281 20.3594L17.9991 20.3748H18.007L19.6509 20.3594C20.2079 20.3578 20.7415 20.1355 21.1349 19.7413C21.5283 19.3471 21.7495 18.813 21.75 18.2561V7.46266C21.7494 6.90502 21.5276 6.3704 21.1333 5.9761C20.739 5.58179 20.2044 5.36 19.6467 5.35938V5.35938ZM6.75 15.8594C6.75 16.0583 6.67098 16.2491 6.53033 16.3897C6.38968 16.5304 6.19891 16.6094 6 16.6094C5.80109 16.6094 5.61032 16.5304 5.46967 16.3897C5.32902 16.2491 5.25 16.0583 5.25 15.8594V9.85938C5.25 9.66046 5.32902 9.4697 5.46967 9.32905C5.61032 9.18839 5.80109 9.10938 6 9.10938C6.19891 9.10938 6.38968 9.18839 6.53033 9.32905C6.67098 9.4697 6.75 9.66046 6.75 9.85938V15.8594ZM9.75 17.3594C9.75 17.5583 9.67098 17.7491 9.53033 17.8897C9.38968 18.0304 9.19891 18.1094 9 18.1094C8.80109 18.1094 8.61032 18.0304 8.46967 17.8897C8.32902 17.7491 8.25 17.5583 8.25 17.3594V8.35938C8.25 8.16046 8.32902 7.9697 8.46967 7.82905C8.61032 7.68839 8.80109 7.60938 9 7.60938C9.19891 7.60938 9.38968 7.68839 9.53033 7.82905C9.67098 7.9697 9.75 8.16046 9.75 8.35938V17.3594ZM12.75 16.6094C12.75 16.8083 12.671 16.9991 12.5303 17.1397C12.3897 17.2804 12.1989 17.3594 12 17.3594C11.8011 17.3594 11.6103 17.2804 11.4697 17.1397C11.329 16.9991 11.25 16.8083 11.25 16.6094V9.10938C11.25 8.91046 11.329 8.7197 11.4697 8.57905C11.6103 8.43839 11.8011 8.35938 12 8.35938C12.1989 8.35938 12.3897 8.43839 12.5303 8.57905C12.671 8.7197 12.75 8.91046 12.75 9.10938V16.6094ZM15.75 17.3594C15.75 17.5583 15.671 17.7491 15.5303 17.8897C15.3897 18.0304 15.1989 18.1094 15 18.1094C14.8011 18.1094 14.6103 18.0304 14.4697 17.8897C14.329 17.7491 14.25 17.5583 14.25 17.3594V8.35938C14.25 8.16046 14.329 7.9697 14.4697 7.82905C14.6103 7.68839 14.8011 7.60938 15 7.60938C15.1989 7.60938 15.3897 7.68839 15.5303 7.82905C15.671 7.9697 15.75 8.16046 15.75 8.35938V17.3594ZM18.75 15.8594C18.75 16.0583 18.671 16.2491 18.5303 16.3897C18.3897 16.5304 18.1989 16.6094 18 16.6094C17.8011 16.6094 17.6103 16.5304 17.4697 16.3897C17.329 16.2491 17.25 16.0583 17.25 15.8594V9.85938C17.25 9.66046 17.329 9.4697 17.4697 9.32905C17.6103 9.18839 17.8011 9.10938 18 9.10938C18.1989 9.10938 18.3897 9.18839 18.5303 9.32905C18.671 9.4697 18.75 9.66046 18.75 9.85938V15.8594Z" fill="#E5E5E5" stroke="#E5E5E5"/>
</svg>
