<svg width="24" height="25" viewBox="0 0 24 25" fill="none" xmlns="http://www.w3.org/2000/svg">
<path d="M12.2604 5.31001C12.1906 5.24325 12.0978 5.20599 12.0012 5.20599C11.9046 5.20599 11.8118 5.24325 11.742 5.31001L3.1123 13.5539C3.07566 13.589 3.0465 13.6311 3.0266 13.6778C3.0067 13.7244 2.99647 13.7746 2.99652 13.8253L2.99512 21.5625C2.99512 21.9604 3.15315 22.3419 3.43446 22.6232C3.71576 22.9045 4.09729 23.0625 4.49512 23.0625H8.99981C9.19872 23.0625 9.38948 22.9835 9.53014 22.8429C9.67079 22.7022 9.74981 22.5114 9.74981 22.3125V15.9375C9.74981 15.8381 9.78932 15.7427 9.85964 15.6724C9.92997 15.602 10.0254 15.5625 10.1248 15.5625H13.8748C13.9743 15.5625 14.0696 15.602 14.14 15.6724C14.2103 15.7427 14.2498 15.8381 14.2498 15.9375V22.3125C14.2498 22.5114 14.3288 22.7022 14.4695 22.8429C14.6101 22.9835 14.8009 23.0625 14.9998 23.0625H19.5026C19.9004 23.0625 20.282 22.9045 20.5633 22.6232C20.8446 22.3419 21.0026 21.9604 21.0026 21.5625V13.8253C21.0027 13.7746 20.9925 13.7244 20.9726 13.6778C20.9527 13.6311 20.9235 13.589 20.8868 13.5539L12.2604 5.31001Z" fill="#E5E5E5" stroke="#E5E5E5"/>
<path d="M23.0114 12.007L19.5052 8.65266V3.5625C19.5052 3.36359 19.4261 3.17282 19.2855 3.03217C19.1448 2.89152 18.9541 2.8125 18.7552 2.8125H16.5052C16.3063 2.8125 16.1155 2.89152 15.9748 3.03217C15.8342 3.17282 15.7552 3.36359 15.7552 3.5625V5.0625L13.0402 2.46656C12.7861 2.20969 12.4083 2.0625 12 2.0625C11.5931 2.0625 11.2163 2.20969 10.9622 2.46703L0.991893 12.0061C0.70033 12.2874 0.663768 12.75 0.92908 13.0547C0.995704 13.1316 1.07728 13.1942 1.16884 13.2385C1.26041 13.2829 1.36005 13.3082 1.46169 13.3128C1.56334 13.3175 1.66487 13.3014 1.7601 13.2656C1.85533 13.2297 1.94228 13.1749 2.01564 13.1044L11.7422 3.81C11.812 3.74324 11.9048 3.70598 12.0014 3.70598C12.098 3.70598 12.1908 3.74324 12.2606 3.81L21.9881 13.1044C22.1314 13.2418 22.3234 13.3168 22.5218 13.3129C22.7203 13.3091 22.9092 13.2267 23.047 13.0838C23.3348 12.7856 23.3109 12.2935 23.0114 12.007Z" fill="#E5E5E5" stroke="#E5E5E5"/>
</svg>
