<svg width="25" height="13" viewBox="0 0 25 13" fill="none" xmlns="http://www.w3.org/2000/svg">
<path d="M3.59 2.01937C2.602 2.01937 2.258 2.08637 1.904 2.27537C1.622 2.42537 1.407 2.64137 1.256 2.92337C1.066 3.27737 1 3.62137 1 4.60837V8.93038C1 9.91738 1.067 10.2614 1.256 10.6154C1.406 10.8974 1.622 11.1124 1.904 11.2634C2.258 11.4534 2.602 11.5194 3.589 11.5194H18.411C19.398 11.5194 19.742 11.4524 20.096 11.2634C20.378 11.1134 20.593 10.8974 20.744 10.6154C20.934 10.2614 21 9.91738 21 8.93038V4.60837C21 3.62137 20.933 3.27737 20.744 2.92337C20.5985 2.64681 20.3726 2.42087 20.096 2.27537C19.742 2.08537 19.398 2.01937 18.411 2.01937H3.589H3.59ZM3.59 1.01937H18.41C19.659 1.01937 20.111 1.14937 20.568 1.39337C21.024 1.63737 21.382 1.99537 21.626 2.45137C21.87 2.90837 22 3.36137 22 4.60837V8.93038C22 10.1784 21.87 10.6304 21.626 11.0874C21.3874 11.5381 21.0187 11.9067 20.568 12.1454C20.111 12.3894 19.658 12.5194 18.411 12.5194H3.589C2.341 12.5194 1.889 12.3894 1.432 12.1454C0.981252 11.9067 0.612639 11.5381 0.374 11.0874C0.13 10.6294 0 10.1774 0 8.92937V4.60837C0 3.36037 0.13 2.90837 0.374 2.45137C0.612639 2.00063 0.981252 1.63201 1.432 1.39337C1.89 1.14937 2.342 1.01937 3.59 1.01937V1.01937ZM23 4.70937C24 5.21837 24.5 5.88537 24.5 6.70937C24.5 7.53337 24 8.20037 23 8.70937V4.70937V4.70937Z" fill="black" fill-opacity="0.36"/>
<path fill-rule="evenodd" clip-rule="evenodd" d="M4.051 2.93637H17.95C18.663 2.93637 18.922 3.01037 19.182 3.14937C19.443 3.28937 19.648 3.49337 19.787 3.75437C19.927 4.01437 20.001 4.27437 20.001 4.98737V8.55137C20.001 9.26437 19.927 9.52338 19.787 9.78438C19.647 10.0444 19.443 10.2494 19.182 10.3894C18.922 10.5294 18.663 10.6024 17.95 10.6024H4.05C3.337 10.6024 3.078 10.5284 2.818 10.3894C2.56022 10.253 2.34942 10.0422 2.213 9.78438C2.074 9.52438 2 9.26437 2 8.55137V4.98737C2 4.27437 2.074 4.01537 2.214 3.75437C2.354 3.49437 2.558 3.28937 2.819 3.14937C3.079 3.00937 3.338 2.93637 4.051 2.93637Z" fill="black"/>
</svg>
