<svg width="26" height="26" viewBox="0 0 26 26" fill="none" xmlns="http://www.w3.org/2000/svg">
<path d="M13.1473 2.4375C7.20688 2.35727 2.35727 7.20687 2.4375 13.1473C2.51672 18.8444 7.15559 23.4833 12.8527 23.5625C18.7941 23.6437 23.6427 18.7941 23.5615 12.8537C23.4833 7.15559 18.8444 2.51672 13.1473 2.4375ZM19.567 19.0557C19.5468 19.0775 19.522 19.0947 19.4944 19.1059C19.4668 19.1171 19.4371 19.1222 19.4073 19.1206C19.3776 19.119 19.3485 19.111 19.3222 19.0969C19.296 19.0829 19.2731 19.0633 19.2552 19.0394C18.801 18.4451 18.2448 17.9363 17.6125 17.5368C16.3196 16.707 14.6814 16.25 13 16.25C11.3186 16.25 9.68043 16.707 8.38754 17.5368C7.75525 17.9362 7.199 18.4448 6.74477 19.0389C6.72692 19.0628 6.70405 19.0824 6.67776 19.0964C6.65148 19.1105 6.62243 19.1185 6.59268 19.1201C6.56292 19.1216 6.53319 19.1166 6.50559 19.1054C6.47799 19.0942 6.4532 19.077 6.43297 19.0552C4.94289 17.4466 4.09881 15.3447 4.0625 13.1523C3.97973 8.21082 8.03461 4.07469 12.9782 4.0625C17.9217 4.05031 21.9375 8.06457 21.9375 13C21.9392 15.2452 21.0925 17.4082 19.567 19.0557Z" fill="#EEDFF2" stroke="#EEDFF2"/>
<path d="M13 7.3125C11.9986 7.3125 11.0932 7.68777 10.4498 8.36977C9.80641 9.05176 9.48496 9.99477 9.55758 11.0068C9.70484 13 11.2491 14.625 13 14.625C14.751 14.625 16.2922 13 16.4425 11.0073C16.5176 10.0049 16.1987 9.07055 15.5447 8.37586C14.8987 7.69031 13.9948 7.3125 13 7.3125Z" fill="#EEDFF2" stroke="#EEDFF2"/>
</svg>
