<svg width="24" height="25" viewBox="0 0 24 25" fill="none" xmlns="http://www.w3.org/2000/svg">
<path d="M18.4687 23.4062C18.3109 23.4068 18.1568 23.3576 18.0286 23.2656L12 18.895L5.97139 23.2656C5.84259 23.359 5.68742 23.4091 5.52831 23.4085C5.36921 23.4079 5.21441 23.3567 5.08629 23.2624C4.95818 23.168 4.86339 23.0354 4.81563 22.8836C4.76787 22.7318 4.76961 22.5688 4.82061 22.4181L7.17185 15.4539L1.07811 11.275C0.946112 11.1846 0.846491 11.0543 0.793797 10.9032C0.741103 10.7522 0.7381 10.5882 0.785225 10.4353C0.83235 10.2824 0.927135 10.1486 1.05573 10.0534C1.18432 9.95822 1.33999 9.90665 1.49998 9.90623H9.01779L11.2865 2.9242C11.3354 2.77346 11.4308 2.64208 11.5589 2.54889C11.6871 2.45571 11.8415 2.40552 12 2.40552C12.1584 2.40552 12.3128 2.45571 12.441 2.54889C12.5692 2.64208 12.6645 2.77346 12.7134 2.9242L14.9822 9.90858H22.5C22.6602 9.9085 22.8162 9.95971 22.9452 10.0547C23.0741 10.1497 23.1693 10.2835 23.2167 10.4365C23.2641 10.5896 23.2613 10.7537 23.2087 10.905C23.156 11.0563 23.0563 11.1868 22.9242 11.2773L16.8281 15.4539L19.1779 22.4162C19.216 22.5289 19.2267 22.6491 19.2092 22.7668C19.1916 22.8845 19.1464 22.9963 19.0771 23.093C19.0078 23.1897 18.9165 23.2686 18.8107 23.323C18.7049 23.3775 18.5877 23.406 18.4687 23.4062Z" fill="#E5E5E5" stroke="#E5E5E5"/>
</svg>
