<svg width="18" height="13" viewBox="0 0 18 13" fill="none" xmlns="http://www.w3.org/2000/svg">
<path fill-rule="evenodd" clip-rule="evenodd" d="M1.89 8.15947H2.11C2.467 8.15947 2.69 8.21547 2.886 8.31947C3.082 8.42447 3.236 8.57747 3.34 8.77347C3.444 8.96847 3.5 9.19347 3.5 9.54947V10.7695C3.5 11.1265 3.444 11.3495 3.34 11.5455C3.23768 11.739 3.07948 11.8972 2.886 11.9995C2.691 12.1035 2.466 12.1595 2.11 12.1595H1.89C1.533 12.1595 1.31 12.1035 1.114 11.9995C0.920517 11.8972 0.76232 11.739 0.66 11.5455C0.556 11.3505 0.5 11.1255 0.5 10.7695V9.54947C0.5 9.19247 0.556 8.96947 0.66 8.77347C0.76232 8.57999 0.920517 8.42179 1.114 8.31947C1.309 8.21547 1.534 8.15947 1.89 8.15947ZM6.69 6.15947H6.91C7.267 6.15947 7.49 6.21547 7.686 6.31947C7.882 6.42447 8.036 6.57747 8.14 6.77347C8.244 6.96847 8.3 7.19347 8.3 7.54947V10.7695C8.3 11.1265 8.244 11.3495 8.14 11.5455C8.03768 11.739 7.87948 11.8972 7.686 11.9995C7.491 12.1035 7.266 12.1595 6.91 12.1595H6.69C6.333 12.1595 6.11 12.1035 5.914 11.9995C5.72052 11.8972 5.56232 11.739 5.46 11.5455C5.356 11.3505 5.3 11.1255 5.3 10.7695V7.54947C5.3 7.19247 5.356 6.96947 5.46 6.77347C5.56232 6.57999 5.72052 6.42179 5.914 6.31947C6.109 6.21547 6.334 6.15947 6.69 6.15947ZM11.29 3.85947H11.51C11.867 3.85947 12.09 3.91547 12.286 4.01947C12.482 4.12447 12.636 4.27747 12.74 4.47347C12.844 4.66847 12.9 4.89347 12.9 5.24947V10.7695C12.9 11.1265 12.844 11.3495 12.74 11.5455C12.6377 11.739 12.4795 11.8972 12.286 11.9995C12.091 12.1035 11.866 12.1595 11.51 12.1595H11.29C10.933 12.1595 10.71 12.1035 10.514 11.9995C10.3205 11.8972 10.1623 11.739 10.06 11.5455C9.956 11.3505 9.9 11.1255 9.9 10.7695V5.24947C9.9 4.89247 9.956 4.66947 10.06 4.47347C10.1623 4.27999 10.3205 4.12179 10.514 4.01947C10.709 3.91547 10.934 3.85947 11.29 3.85947ZM15.99 1.45947H16.21C16.567 1.45947 16.79 1.51547 16.986 1.61947C17.182 1.72447 17.336 1.87747 17.44 2.07347C17.544 2.26847 17.6 2.49347 17.6 2.84947V10.7695C17.6 11.1265 17.544 11.3495 17.44 11.5455C17.3377 11.739 17.1795 11.8972 16.986 11.9995C16.791 12.1035 16.566 12.1595 16.21 12.1595H15.99C15.633 12.1595 15.41 12.1035 15.214 11.9995C15.0205 11.8972 14.8623 11.739 14.76 11.5455C14.656 11.3505 14.6 11.1255 14.6 10.7695V2.84947C14.6 2.49247 14.656 2.26947 14.76 2.07347C14.8623 1.87999 15.0205 1.72179 15.214 1.61947C15.409 1.51547 15.634 1.45947 15.99 1.45947Z" fill="black"/>
</svg>
