<svg width="54" height="55" viewBox="0 0 54 55" fill="none" xmlns="http://www.w3.org/2000/svg">
<path d="M28.6875 49.8439C28.4621 49.844 28.239 49.7989 28.0313 49.7113C27.8236 49.6238 27.6356 49.4955 27.4783 49.3341C27.321 49.1726 27.1977 48.9813 27.1155 48.7715C27.0334 48.5616 26.9941 48.3374 27 48.1121V28.7638C27 28.5401 26.9111 28.3254 26.7529 28.1672C26.5946 28.009 26.38 27.9201 26.1563 27.9201H6.79325C6.43832 27.9243 6.09079 27.8186 5.7983 27.6175C5.50581 27.4164 5.28269 27.1297 5.15954 26.7968C5.01929 26.3998 5.03252 25.9647 5.19664 25.577C5.36075 25.1893 5.66389 24.8769 6.04653 24.7012L46.5465 6.12285C46.8594 5.97949 47.2087 5.93522 47.5474 5.996C47.8862 6.05678 48.1983 6.2197 48.4418 6.4629C48.6854 6.7061 48.8487 7.01795 48.91 7.35664C48.9713 7.69532 48.9275 8.04464 48.7846 8.35774L30.2221 48.8577C30.0877 49.1519 29.8716 49.4012 29.5995 49.576C29.3275 49.7509 29.0109 49.8438 28.6875 49.8439Z" fill="#FF2D55" stroke="#FF2D55"/>
</svg>
