<svg width="24" height="25" viewBox="0 0 24 25" fill="none" xmlns="http://www.w3.org/2000/svg">
<path d="M21.4073 20.3152L16.9969 15.9047C18.0587 14.4911 18.6319 12.7705 18.63 11.0025C18.63 6.48656 14.9559 2.8125 10.44 2.8125C5.92406 2.8125 2.25 6.48656 2.25 11.0025C2.25 15.5184 5.92406 19.1925 10.44 19.1925C12.208 19.1944 13.9286 18.6212 15.3422 17.5594L19.7527 21.9698C19.9759 22.1694 20.2671 22.276 20.5664 22.2676C20.8658 22.2592 21.1506 22.1365 21.3623 21.9248C21.574 21.7131 21.6967 21.4283 21.7051 21.1289C21.7135 20.8296 21.6069 20.5384 21.4073 20.3152ZM4.59 11.0025C4.59 9.84548 4.9331 8.71444 5.5759 7.75241C6.21871 6.79039 7.13235 6.04058 8.2013 5.59781C9.27025 5.15503 10.4465 5.03918 11.5813 5.26491C12.7161 5.49063 13.7584 6.04779 14.5766 6.86593C15.3947 7.68406 15.9519 8.72643 16.1776 9.86122C16.4033 10.996 16.2875 12.1723 15.8447 13.2412C15.4019 14.3101 14.6521 15.2238 13.6901 15.8666C12.7281 16.5094 11.597 16.8525 10.44 16.8525C8.88906 16.8506 7.40217 16.2337 6.30548 15.137C5.2088 14.0403 4.59186 12.5534 4.59 11.0025Z" fill="#E5E5E5" stroke="#E5E5E5"/>
</svg>
