<svg width="26" height="27" viewBox="0 0 26 27" fill="none" xmlns="http://www.w3.org/2000/svg">
<path d="M13.1473 3.34375C7.20688 3.26352 2.35727 8.11312 2.4375 14.0535C2.51672 19.7507 7.15559 24.3895 12.8527 24.4687C18.7941 24.55 23.6427 19.7004 23.5615 13.76C23.4833 8.06184 18.8444 3.42297 13.1473 3.34375ZM19.567 19.9619C19.5468 19.9838 19.522 20.0009 19.4944 20.0122C19.4668 20.0234 19.4371 20.0284 19.4073 20.0268C19.3776 20.0253 19.3485 20.0172 19.3222 20.0032C19.296 19.9892 19.2731 19.9695 19.2552 19.9457C18.801 19.3514 18.2448 18.8426 17.6125 18.443C16.3196 17.6133 14.6814 17.1562 13 17.1562C11.3186 17.1562 9.68043 17.6133 8.38754 18.443C7.75525 18.8424 7.199 19.351 6.74477 19.9452C6.72692 19.969 6.70405 19.9887 6.67776 20.0027C6.65148 20.0167 6.62243 20.0248 6.59268 20.0263C6.56292 20.0279 6.53319 20.0229 6.50559 20.0117C6.47799 20.0004 6.4532 19.9833 6.43297 19.9614C4.94289 18.3528 4.09881 16.251 4.0625 14.0586C3.97973 9.11707 8.03461 4.98094 12.9782 4.96875C17.9217 4.95656 21.9375 8.97082 21.9375 13.9062C21.9392 16.1515 21.0925 18.3145 19.567 19.9619Z" fill="#EEDFF2" stroke="#EEDFF2"/>
<path d="M12.9999 8.21875C11.9985 8.21875 11.0931 8.59402 10.4497 9.27602C9.80628 9.95801 9.48484 10.901 9.55746 11.9131C9.70472 13.9062 11.249 15.5312 12.9999 15.5312C14.7508 15.5312 16.2921 13.9062 16.4424 11.9136C16.5175 10.9112 16.1986 9.9768 15.5446 9.28211C14.8986 8.59656 13.9947 8.21875 12.9999 8.21875Z" fill="#EEDFF2" stroke="#EEDFF2"/>
</svg>
