<svg width="25" height="13" viewBox="0 0 25 13" fill="none" xmlns="http://www.w3.org/2000/svg">
<path d="M3.59 2.06641C2.602 2.06641 2.258 2.13341 1.904 2.32241C1.622 2.47241 1.407 2.68841 1.256 2.97041C1.066 3.32441 1 3.66841 1 4.65541V8.97741C1 9.96441 1.067 10.3084 1.256 10.6624C1.406 10.9444 1.622 11.1594 1.904 11.3104C2.258 11.5004 2.602 11.5664 3.589 11.5664H18.411C19.398 11.5664 19.742 11.4994 20.096 11.3104C20.378 11.1604 20.593 10.9444 20.744 10.6624C20.934 10.3084 21 9.96441 21 8.97741V4.65541C21 3.66841 20.933 3.32441 20.744 2.97041C20.5985 2.69384 20.3726 2.4679 20.096 2.32241C19.742 2.13241 19.398 2.06641 18.411 2.06641H3.589H3.59ZM3.59 1.06641H18.41C19.659 1.06641 20.111 1.19641 20.568 1.44041C21.024 1.68441 21.382 2.04241 21.626 2.49841C21.87 2.95541 22 3.40841 22 4.65541V8.97741C22 10.2254 21.87 10.6774 21.626 11.1344C21.3874 11.5852 21.0187 11.9538 20.568 12.1924C20.111 12.4364 19.658 12.5664 18.411 12.5664H3.589C2.341 12.5664 1.889 12.4364 1.432 12.1924C0.981252 11.9538 0.612639 11.5852 0.374 11.1344C0.13 10.6764 0 10.2244 0 8.97641V4.65541C0 3.40741 0.13 2.95541 0.374 2.49841C0.612639 2.04766 0.981252 1.67905 1.432 1.44041C1.89 1.19641 2.342 1.06641 3.59 1.06641ZM23 4.75641C24 5.26541 24.5 5.93241 24.5 6.75641C24.5 7.58041 24 8.24741 23 8.75641V4.75641Z" fill="black" fill-opacity="0.36"/>
<path fill-rule="evenodd" clip-rule="evenodd" d="M4.051 2.9834H17.95C18.663 2.9834 18.922 3.0574 19.182 3.1964C19.443 3.3364 19.648 3.5404 19.787 3.8014C19.927 4.0614 20.001 4.3214 20.001 5.0344V8.5984C20.001 9.3114 19.927 9.5704 19.787 9.8314C19.647 10.0914 19.443 10.2964 19.182 10.4364C18.922 10.5764 18.663 10.6494 17.95 10.6494H4.05C3.337 10.6494 3.078 10.5754 2.818 10.4364C2.56022 10.3 2.34942 10.0892 2.213 9.8314C2.074 9.5714 2 9.3114 2 8.5984V5.0344C2 4.3214 2.074 4.0624 2.214 3.8014C2.354 3.5414 2.558 3.3364 2.819 3.1964C3.079 3.0564 3.338 2.9834 4.051 2.9834Z" fill="black"/>
</svg>
