<svg width="24" height="25" viewBox="0 0 24 25" fill="none" xmlns="http://www.w3.org/2000/svg">
<path d="M19.6467 5.0625H19.6406L17.9977 5.07797L6 5.0625H5.9925L4.27031 5.07797C3.13734 5.08031 2.25 6.00328 2.25 7.18125V17.9752C2.25 19.1541 3.14062 20.078 4.275 20.078H4.28203L6.00281 20.0625L17.9991 20.078H18.007L19.6509 20.0625C20.2079 20.0609 20.7415 19.8386 21.1349 19.4444C21.5283 19.0502 21.7495 18.5162 21.75 17.9592V7.16578C21.7494 6.60815 21.5276 6.07353 21.1333 5.67922C20.739 5.28491 20.2044 5.06312 19.6467 5.0625ZM6.75 15.5625C6.75 15.7614 6.67098 15.9522 6.53033 16.0928C6.38968 16.2335 6.19891 16.3125 6 16.3125C5.80109 16.3125 5.61032 16.2335 5.46967 16.0928C5.32902 15.9522 5.25 15.7614 5.25 15.5625V9.5625C5.25 9.36359 5.32902 9.17282 5.46967 9.03217C5.61032 8.89152 5.80109 8.8125 6 8.8125C6.19891 8.8125 6.38968 8.89152 6.53033 9.03217C6.67098 9.17282 6.75 9.36359 6.75 9.5625V15.5625ZM9.75 17.0625C9.75 17.2614 9.67098 17.4522 9.53033 17.5928C9.38968 17.7335 9.19891 17.8125 9 17.8125C8.80109 17.8125 8.61032 17.7335 8.46967 17.5928C8.32902 17.4522 8.25 17.2614 8.25 17.0625V8.0625C8.25 7.86359 8.32902 7.67282 8.46967 7.53217C8.61032 7.39152 8.80109 7.3125 9 7.3125C9.19891 7.3125 9.38968 7.39152 9.53033 7.53217C9.67098 7.67282 9.75 7.86359 9.75 8.0625V17.0625ZM12.75 16.3125C12.75 16.5114 12.671 16.7022 12.5303 16.8428C12.3897 16.9835 12.1989 17.0625 12 17.0625C11.8011 17.0625 11.6103 16.9835 11.4697 16.8428C11.329 16.7022 11.25 16.5114 11.25 16.3125V8.8125C11.25 8.61359 11.329 8.42282 11.4697 8.28217C11.6103 8.14152 11.8011 8.0625 12 8.0625C12.1989 8.0625 12.3897 8.14152 12.5303 8.28217C12.671 8.42282 12.75 8.61359 12.75 8.8125V16.3125ZM15.75 17.0625C15.75 17.2614 15.671 17.4522 15.5303 17.5928C15.3897 17.7335 15.1989 17.8125 15 17.8125C14.8011 17.8125 14.6103 17.7335 14.4697 17.5928C14.329 17.4522 14.25 17.2614 14.25 17.0625V8.0625C14.25 7.86359 14.329 7.67282 14.4697 7.53217C14.6103 7.39152 14.8011 7.3125 15 7.3125C15.1989 7.3125 15.3897 7.39152 15.5303 7.53217C15.671 7.67282 15.75 7.86359 15.75 8.0625V17.0625ZM18.75 15.5625C18.75 15.7614 18.671 15.9522 18.5303 16.0928C18.3897 16.2335 18.1989 16.3125 18 16.3125C17.8011 16.3125 17.6103 16.2335 17.4697 16.0928C17.329 15.9522 17.25 15.7614 17.25 15.5625V9.5625C17.25 9.36359 17.329 9.17282 17.4697 9.03217C17.6103 8.89152 17.8011 8.8125 18 8.8125C18.1989 8.8125 18.3897 8.89152 18.5303 9.03217C18.671 9.17282 18.75 9.36359 18.75 9.5625V15.5625Z" fill="#E5E5E5" stroke="#E5E5E5"/>
</svg>
