<svg width="12" height="22" viewBox="0 0 12 22" fill="none" xmlns="http://www.w3.org/2000/svg">
<path fill-rule="evenodd" clip-rule="evenodd" d="M9.5372 21.1924L0.292205 12.0554C0.199683 11.9646 0.126187 11.8563 0.0760144 11.7368C0.0258419 11.6173 0 11.489 0 11.3594C0 11.2298 0.0258419 11.1014 0.0760144 10.9819C0.126187 10.8624 0.199683 10.7541 0.292205 10.6634L9.5372 1.52637C9.80944 1.25911 10.1757 1.10937 10.5572 1.10938C10.9387 1.10937 11.305 1.25911 11.5772 1.52637C12.1402 2.08337 12.1402 2.98637 11.5772 3.54237L3.67021 11.3594L11.5792 19.1754C12.1412 19.7324 12.1412 20.6354 11.5792 21.1924C11.307 21.4596 10.9407 21.6094 10.5592 21.6094C10.1777 21.6094 9.81144 21.4596 9.5392 21.1924" fill="#A5AFFB"/>
</svg>
