<svg width="20" height="21" viewBox="0 0 20 21" fill="none" xmlns="http://www.w3.org/2000/svg">
<path d="M15.3907 19.0625C15.2591 19.063 15.1308 19.022 15.0239 18.9453L10.0001 15.3031L4.97624 18.9453C4.86891 19.0231 4.7396 19.0648 4.60701 19.0644C4.47442 19.0639 4.34542 19.0212 4.23866 18.9426C4.1319 18.864 4.0529 18.7534 4.0131 18.627C3.9733 18.5005 3.97476 18.3646 4.01725 18.239L5.97663 12.4355L0.898504 8.95311C0.788508 8.87776 0.70549 8.76921 0.661579 8.64332C0.617668 8.51744 0.615165 8.3808 0.654436 8.25339C0.693707 8.12598 0.772694 8.01446 0.879856 7.93514C0.987018 7.85581 1.11674 7.81283 1.25007 7.81248H7.51491L9.40553 1.99413C9.44626 1.86851 9.52573 1.75902 9.63254 1.68137C9.73935 1.60372 9.86801 1.56189 10.0001 1.56189C10.1321 1.56189 10.2608 1.60372 10.3676 1.68137C10.4744 1.75902 10.5539 1.86851 10.5946 1.99413L12.4852 7.81444H18.7501C18.8835 7.81437 19.0136 7.85705 19.121 7.93622C19.2285 8.0154 19.3078 8.1269 19.3473 8.25441C19.3869 8.38192 19.3845 8.51874 19.3407 8.64482C19.2968 8.7709 19.2137 8.87962 19.1036 8.95506L14.0235 12.4355L15.9817 18.2375C16.0134 18.3314 16.0224 18.4315 16.0077 18.5296C15.9931 18.6277 15.9554 18.7209 15.8976 18.8015C15.8399 18.8821 15.7638 18.9478 15.6757 18.9932C15.5875 19.0385 15.4898 19.0623 15.3907 19.0625Z" fill="#BE52F2" stroke="#BE52F2"/>
</svg>
