<svg width="18" height="13" viewBox="0 0 18 13" fill="none" xmlns="http://www.w3.org/2000/svg">
<path fill-rule="evenodd" clip-rule="evenodd" d="M1.89 7.6125H2.11C2.467 7.6125 2.69 7.6685 2.886 7.7725C3.082 7.8775 3.236 8.0305 3.34 8.2265C3.444 8.4215 3.5 8.6465 3.5 9.0025V10.2225C3.5 10.5795 3.444 10.8025 3.34 10.9985C3.23768 11.192 3.07948 11.3502 2.886 11.4525C2.691 11.5565 2.466 11.6125 2.11 11.6125H1.89C1.533 11.6125 1.31 11.5565 1.114 11.4525C0.920517 11.3502 0.76232 11.192 0.66 10.9985C0.556 10.8035 0.5 10.5785 0.5 10.2225V9.0025C0.5 8.6455 0.556 8.4225 0.66 8.2265C0.76232 8.03302 0.920517 7.87482 1.114 7.7725C1.309 7.6685 1.534 7.6125 1.89 7.6125ZM6.69 5.6125H6.91C7.267 5.6125 7.49 5.6685 7.686 5.7725C7.882 5.8775 8.036 6.0305 8.14 6.2265C8.244 6.4215 8.3 6.6465 8.3 7.0025V10.2225C8.3 10.5795 8.244 10.8025 8.14 10.9985C8.03768 11.192 7.87948 11.3502 7.686 11.4525C7.491 11.5565 7.266 11.6125 6.91 11.6125H6.69C6.333 11.6125 6.11 11.5565 5.914 11.4525C5.72052 11.3502 5.56232 11.192 5.46 10.9985C5.356 10.8035 5.3 10.5785 5.3 10.2225V7.0025C5.3 6.6455 5.356 6.4225 5.46 6.2265C5.56232 6.03302 5.72052 5.87482 5.914 5.7725C6.109 5.6685 6.334 5.6125 6.69 5.6125ZM11.29 3.3125H11.51C11.867 3.3125 12.09 3.3685 12.286 3.4725C12.482 3.5775 12.636 3.7305 12.74 3.9265C12.844 4.1215 12.9 4.3465 12.9 4.7025V10.2225C12.9 10.5795 12.844 10.8025 12.74 10.9985C12.6377 11.192 12.4795 11.3502 12.286 11.4525C12.091 11.5565 11.866 11.6125 11.51 11.6125H11.29C10.933 11.6125 10.71 11.5565 10.514 11.4525C10.3205 11.3502 10.1623 11.192 10.06 10.9985C9.956 10.8035 9.9 10.5785 9.9 10.2225V4.7025C9.9 4.3455 9.956 4.1225 10.06 3.9265C10.1623 3.73302 10.3205 3.57482 10.514 3.4725C10.709 3.3685 10.934 3.3125 11.29 3.3125ZM15.99 0.912498H16.21C16.567 0.912498 16.79 0.968498 16.986 1.0725C17.182 1.1775 17.336 1.3305 17.44 1.5265C17.544 1.7215 17.6 1.9465 17.6 2.3025V10.2225C17.6 10.5795 17.544 10.8025 17.44 10.9985C17.3377 11.192 17.1795 11.3502 16.986 11.4525C16.791 11.5565 16.566 11.6125 16.21 11.6125H15.99C15.633 11.6125 15.41 11.5565 15.214 11.4525C15.0205 11.3502 14.8623 11.192 14.76 10.9985C14.656 10.8035 14.6 10.5785 14.6 10.2225V2.3025C14.6 1.9455 14.656 1.7225 14.76 1.5265C14.8623 1.33302 15.0205 1.17482 15.214 1.0725C15.409 0.968498 15.634 0.912498 15.99 0.912498Z" fill="black"/>
</svg>
