<svg width="20" height="21" viewBox="0 0 20 21" fill="none" xmlns="http://www.w3.org/2000/svg">
<path d="M18.4828 9.55781L18.3945 9.1832H10.2523V12.6293H15.1172C14.6121 15.0277 12.2684 16.2902 10.3539 16.2902C8.96094 16.2902 7.49258 15.7043 6.5207 14.7625C6.00794 14.2577 5.59979 13.6567 5.31961 12.9939C5.03943 12.3311 4.89272 11.6196 4.88789 10.9C4.88789 9.44844 5.54023 7.99648 6.48945 7.04141C7.43867 6.08633 8.87227 5.55195 10.2977 5.55195C11.9301 5.55195 13.1 6.41875 13.5375 6.81406L15.9863 4.37812C15.268 3.74687 13.2945 2.15625 10.2188 2.15625C7.8457 2.15625 5.57031 3.06523 3.90703 4.72305C2.26562 6.35547 1.41602 8.71602 1.41602 10.9062C1.41602 13.0965 2.21992 15.3391 3.81055 16.9844C5.51016 18.7391 7.91719 19.6562 10.3957 19.6562C12.6508 19.6562 14.7883 18.7727 16.3117 17.1695C17.8094 15.5914 18.584 13.4078 18.584 11.1187C18.584 10.1551 18.4871 9.58281 18.4828 9.55781Z" fill="#C85948" stroke="#C85948"/>
</svg>
