<svg width="12" height="22" viewBox="0 0 12 22" fill="none" xmlns="http://www.w3.org/2000/svg">
<path fill-rule="evenodd" clip-rule="evenodd" d="M9.53699 21.2392L0.291991 12.1022C0.19947 12.0115 0.125973 11.9032 0.0758008 11.7837C0.0256283 11.6642 -0.000213623 11.5359 -0.000213623 11.4062C-0.000213623 11.2766 0.0256283 11.1483 0.0758008 11.0288C0.125973 10.9093 0.19947 10.801 0.291991 10.7102L9.53699 1.57324C9.80923 1.30598 10.1755 1.15625 10.557 1.15625C10.9385 1.15625 11.3048 1.30598 11.577 1.57324C12.14 2.13024 12.14 3.03324 11.577 3.58924L3.66999 11.4062L11.579 19.2222C12.141 19.7792 12.141 20.6822 11.579 21.2392C11.3068 21.5065 10.9405 21.6562 10.559 21.6562C10.1775 21.6562 9.81123 21.5065 9.53899 21.2392" fill="#A5AFFB"/>
</svg>
