<svg width="18" height="13" viewBox="0 0 18 13" fill="none" xmlns="http://www.w3.org/2000/svg">
<path fill-rule="evenodd" clip-rule="evenodd" d="M1.89 8.15938H2.11C2.467 8.15938 2.69 8.21538 2.886 8.31938C3.082 8.42438 3.236 8.57738 3.34 8.77338C3.444 8.96838 3.5 9.19337 3.5 9.54937V10.7694C3.5 11.1264 3.444 11.3494 3.34 11.5454C3.23768 11.7389 3.07948 11.8971 2.886 11.9994C2.691 12.1034 2.466 12.1594 2.11 12.1594H1.89C1.533 12.1594 1.31 12.1034 1.114 11.9994C0.920517 11.8971 0.76232 11.7389 0.66 11.5454C0.556 11.3504 0.5 11.1254 0.5 10.7694V9.54937C0.5 9.19237 0.556 8.96938 0.66 8.77338C0.76232 8.57989 0.920517 8.4217 1.114 8.31938C1.309 8.21538 1.534 8.15938 1.89 8.15938V8.15938ZM6.69 6.15938H6.91C7.267 6.15938 7.49 6.21538 7.686 6.31938C7.882 6.42438 8.036 6.57738 8.14 6.77338C8.244 6.96838 8.3 7.19338 8.3 7.54938V10.7694C8.3 11.1264 8.244 11.3494 8.14 11.5454C8.03768 11.7389 7.87948 11.8971 7.686 11.9994C7.491 12.1034 7.266 12.1594 6.91 12.1594H6.69C6.333 12.1594 6.11 12.1034 5.914 11.9994C5.72052 11.8971 5.56232 11.7389 5.46 11.5454C5.356 11.3504 5.3 11.1254 5.3 10.7694V7.54938C5.3 7.19238 5.356 6.96938 5.46 6.77338C5.56232 6.57989 5.72052 6.4217 5.914 6.31938C6.109 6.21538 6.334 6.15938 6.69 6.15938V6.15938ZM11.29 3.85938H11.51C11.867 3.85938 12.09 3.91538 12.286 4.01938C12.482 4.12438 12.636 4.27738 12.74 4.47338C12.844 4.66838 12.9 4.89338 12.9 5.24938V10.7694C12.9 11.1264 12.844 11.3494 12.74 11.5454C12.6377 11.7389 12.4795 11.8971 12.286 11.9994C12.091 12.1034 11.866 12.1594 11.51 12.1594H11.29C10.933 12.1594 10.71 12.1034 10.514 11.9994C10.3205 11.8971 10.1623 11.7389 10.06 11.5454C9.956 11.3504 9.9 11.1254 9.9 10.7694V5.24938C9.9 4.89238 9.956 4.66938 10.06 4.47338C10.1623 4.27989 10.3205 4.12169 10.514 4.01938C10.709 3.91538 10.934 3.85938 11.29 3.85938V3.85938ZM15.99 1.45938H16.21C16.567 1.45938 16.79 1.51538 16.986 1.61938C17.182 1.72438 17.336 1.87738 17.44 2.07338C17.544 2.26838 17.6 2.49338 17.6 2.84938V10.7694C17.6 11.1264 17.544 11.3494 17.44 11.5454C17.3377 11.7389 17.1795 11.8971 16.986 11.9994C16.791 12.1034 16.566 12.1594 16.21 12.1594H15.99C15.633 12.1594 15.41 12.1034 15.214 11.9994C15.0205 11.8971 14.8623 11.7389 14.76 11.5454C14.656 11.3504 14.6 11.1254 14.6 10.7694V2.84938C14.6 2.49238 14.656 2.26938 14.76 2.07338C14.8623 1.87989 15.0205 1.72169 15.214 1.61938C15.409 1.51538 15.634 1.45938 15.99 1.45938V1.45938Z" fill="black"/>
</svg>
