<svg width="16" height="13" viewBox="0 0 16 13" fill="none" xmlns="http://www.w3.org/2000/svg">
<path fill-rule="evenodd" clip-rule="evenodd" d="M8.29992 3.55538C10.5349 3.55538 12.6839 4.41438 14.3029 5.95438C14.3615 6.01155 14.4404 6.04323 14.5222 6.04248C14.6041 6.04173 14.6824 6.00862 14.7399 5.95038L15.9059 4.77438C15.9361 4.74406 15.9599 4.70807 15.9761 4.66849C15.9923 4.62891 16.0005 4.58651 16.0002 4.54375C15.9999 4.50099 15.9912 4.4587 15.9745 4.41934C15.9578 4.37997 15.9335 4.3443 15.9029 4.31438C13.8573 2.35381 11.1334 1.25925 8.29992 1.25925C5.46647 1.25925 2.74255 2.35381 0.696918 4.31438C0.666364 4.3443 0.642036 4.37997 0.625336 4.41934C0.608637 4.4587 0.599895 4.50099 0.599616 4.54375C0.599337 4.58651 0.607527 4.62891 0.623712 4.66849C0.639896 4.70807 0.663757 4.74406 0.693917 4.77438L1.85992 5.94938C1.91747 6.00762 1.99572 6.04073 2.07759 6.04148C2.15947 6.04223 2.23831 6.01055 2.29692 5.95338C3.91641 4.41387 6.06546 3.5554 8.29992 3.55538V3.55538ZM8.29992 7.38338C9.52792 7.38338 10.7119 7.83938 11.6219 8.66338C11.6812 8.71957 11.76 8.7504 11.8416 8.74927C11.9233 8.74815 12.0012 8.71518 12.0589 8.65738L13.2229 7.48138C13.2533 7.45087 13.2774 7.41462 13.2937 7.37474C13.31 7.33485 13.3182 7.29212 13.3178 7.24904C13.3174 7.20595 13.3085 7.16337 13.2915 7.12378C13.2746 7.08418 13.2499 7.04835 13.2189 7.01838C11.883 5.77594 10.1263 5.08529 8.30192 5.08529C6.47755 5.08529 4.72083 5.77594 3.38492 7.01838C3.3539 7.04828 3.32914 7.08406 3.31207 7.12362C3.29501 7.16318 3.28598 7.20574 3.28552 7.24883C3.28505 7.29191 3.29316 7.33466 3.30936 7.37458C3.32557 7.4145 3.34955 7.45081 3.37992 7.48138L4.54392 8.65738C4.66392 8.77738 4.85792 8.78038 4.98092 8.66338C5.89058 7.83979 7.07382 7.3836 8.30092 7.38338H8.29992ZM10.5379 10.1904C10.5685 10.1601 10.5926 10.1239 10.6088 10.084C10.6249 10.0441 10.6327 10.0013 10.6318 9.95823C10.6309 9.91518 10.6212 9.87278 10.6033 9.83361C10.5855 9.79444 10.5598 9.75931 10.5279 9.73038C9.90507 9.20355 9.11569 8.91448 8.29992 8.91448C7.48415 8.91448 6.69477 9.20355 6.07192 9.73038C6.04004 9.75931 6.01438 9.79444 5.99652 9.83361C5.97866 9.87278 5.96897 9.91518 5.96803 9.95823C5.9671 10.0013 5.97494 10.0441 5.99108 10.084C6.00722 10.1239 6.03132 10.1601 6.06192 10.1904L8.07692 12.2234C8.10613 12.253 8.14093 12.2765 8.17929 12.2925C8.21766 12.3086 8.25883 12.3168 8.30042 12.3168C8.342 12.3168 8.38317 12.3086 8.42154 12.2925C8.45991 12.2765 8.49471 12.253 8.52392 12.2234L10.5379 10.1904V10.1904Z" fill="black"/>
</svg>
