<svg width="25" height="13" viewBox="0 0 25 13" fill="none" xmlns="http://www.w3.org/2000/svg">
<path d="M3.59 2.01941C2.602 2.01941 2.258 2.08641 1.904 2.27541C1.622 2.42541 1.407 2.64141 1.256 2.92341C1.066 3.27741 1 3.62141 1 4.60841V8.93041C1 9.91741 1.067 10.2614 1.256 10.6154C1.406 10.8974 1.622 11.1124 1.904 11.2634C2.258 11.4534 2.602 11.5194 3.589 11.5194H18.411C19.398 11.5194 19.742 11.4524 20.096 11.2634C20.378 11.1134 20.593 10.8974 20.744 10.6154C20.934 10.2614 21 9.91741 21 8.93041V4.60841C21 3.62141 20.933 3.27741 20.744 2.92341C20.5985 2.64685 20.3726 2.4209 20.096 2.27541C19.742 2.08541 19.398 2.01941 18.411 2.01941H3.589H3.59ZM3.59 1.01941H18.41C19.659 1.01941 20.111 1.14941 20.568 1.39341C21.024 1.63741 21.382 1.99541 21.626 2.45141C21.87 2.90841 22 3.36141 22 4.60841V8.93041C22 10.1784 21.87 10.6304 21.626 11.0874C21.3874 11.5382 21.0187 11.9068 20.568 12.1454C20.111 12.3894 19.658 12.5194 18.411 12.5194H3.589C2.341 12.5194 1.889 12.3894 1.432 12.1454C0.981252 11.9068 0.612639 11.5382 0.374 11.0874C0.13 10.6294 0 10.1774 0 8.92941V4.60841C0 3.36041 0.13 2.90841 0.374 2.45141C0.612639 2.00066 0.981252 1.63205 1.432 1.39341C1.89 1.14941 2.342 1.01941 3.59 1.01941ZM23 4.70941C24 5.21841 24.5 5.88541 24.5 6.70941C24.5 7.53341 24 8.20041 23 8.70941V4.70941Z" fill="black" fill-opacity="0.36"/>
<path fill-rule="evenodd" clip-rule="evenodd" d="M4.051 2.9364H17.95C18.663 2.9364 18.922 3.0104 19.182 3.1494C19.443 3.2894 19.648 3.4934 19.787 3.7544C19.927 4.0144 20.001 4.2744 20.001 4.9874V8.5514C20.001 9.2644 19.927 9.5234 19.787 9.7844C19.647 10.0444 19.443 10.2494 19.182 10.3894C18.922 10.5294 18.663 10.6024 17.95 10.6024H4.05C3.337 10.6024 3.078 10.5284 2.818 10.3894C2.56022 10.253 2.34942 10.0422 2.213 9.7844C2.074 9.5244 2 9.2644 2 8.5514V4.9874C2 4.2744 2.074 4.0154 2.214 3.7544C2.354 3.4944 2.558 3.2894 2.819 3.1494C3.079 3.0094 3.338 2.9364 4.051 2.9364Z" fill="black"/>
</svg>
