<svg width="20" height="21" viewBox="0 0 20 21" fill="none" xmlns="http://www.w3.org/2000/svg">
<path d="M17.8395 17.3668L14.1641 13.6914C15.0489 12.5134 15.5266 11.0796 15.525 9.60625C15.525 5.84297 12.4633 2.78125 8.7 2.78125C4.93672 2.78125 1.875 5.84297 1.875 9.60625C1.875 13.3695 4.93672 16.4312 8.7 16.4312C10.1733 16.4329 11.6072 15.9552 12.7852 15.0703L16.4605 18.7457C16.6466 18.912 16.8893 19.0008 17.1387 18.9938C17.3881 18.9868 17.6255 18.8846 17.8019 18.7082C17.9784 18.5317 18.0806 18.2944 18.0876 18.0449C18.0945 17.7955 18.0058 17.5528 17.8395 17.3668ZM3.825 9.60625C3.825 8.64207 4.11091 7.69953 4.64659 6.89785C5.18226 6.09616 5.94363 5.47131 6.83442 5.10234C7.72521 4.73336 8.70541 4.63682 9.65107 4.82492C10.5967 5.01302 11.4654 5.47732 12.1471 6.1591C12.8289 6.84089 13.2932 7.70953 13.4813 8.65518C13.6694 9.60084 13.5729 10.581 13.2039 11.4718C12.8349 12.3626 12.2101 13.124 11.4084 13.6597C10.6067 14.1953 9.66418 14.4812 8.7 14.4812C7.40755 14.4797 6.16847 13.9656 5.25457 13.0517C4.34066 12.1378 3.82655 10.8987 3.825 9.60625Z" fill="#8E8E93" stroke="#8E8E93"/>
</svg>
