<svg width="20" height="21" viewBox="0 0 20 21" fill="none" xmlns="http://www.w3.org/2000/svg">
<path d="M10 13.4062C11.3807 13.4062 12.5 12.287 12.5 10.9062C12.5 9.52554 11.3807 8.40625 10 8.40625C8.61929 8.40625 7.5 9.52554 7.5 10.9062C7.5 12.287 8.61929 13.4062 10 13.4062Z" fill="#B5B5BA" stroke="#B5B5BA"/>
<path d="M19.1734 10.2266C18.1398 8.62813 16.7988 7.27031 15.2957 6.29961C13.6328 5.22461 11.7969 4.65625 9.98671 4.65625C8.32577 4.65625 6.69257 5.13086 5.13241 6.0668C3.54139 7.02109 2.09999 8.41523 0.848033 10.2102C0.706698 10.413 0.62886 10.6533 0.624409 10.9005C0.619957 11.1477 0.689094 11.3906 0.823033 11.5984C1.85467 13.2129 3.18241 14.5727 4.6621 15.5301C6.32811 16.6094 8.12109 17.1562 9.98671 17.1562C11.8113 17.1562 13.6512 16.5926 15.307 15.5266C16.8094 14.559 18.1477 13.1961 19.1773 11.5844C19.3067 11.3814 19.375 11.1456 19.3743 10.9049C19.3737 10.6642 19.3039 10.4288 19.1734 10.2266ZM9.99999 14.6562C9.25831 14.6562 8.53329 14.4363 7.9166 14.0243C7.29992 13.6122 6.81927 13.0265 6.53544 12.3413C6.25161 11.6561 6.17735 10.9021 6.32205 10.1747C6.46674 9.44723 6.82389 8.77905 7.34834 8.2546C7.87279 7.73015 8.54097 7.373 9.2684 7.22831C9.99583 7.08361 10.7498 7.15787 11.4351 7.4417C12.1203 7.72553 12.706 8.20618 13.118 8.82286C13.5301 9.43955 13.75 10.1646 13.75 10.9062C13.7489 11.9005 13.3534 12.8536 12.6504 13.5566C11.9474 14.2597 10.9942 14.6551 9.99999 14.6562Z" fill="#B5B5BA" stroke="#B5B5BA"/>
</svg>
