<svg width="24" height="25" viewBox="0 0 24 25" fill="none" xmlns="http://www.w3.org/2000/svg">
<path d="M12.2607 5.60695C12.1909 5.54019 12.098 5.50293 12.0015 5.50293C11.9049 5.50293 11.812 5.54019 11.7422 5.60695L3.11255 13.8509C3.0759 13.8859 3.04674 13.928 3.02684 13.9747C3.00694 14.0213 2.99671 14.0716 2.99677 14.1223L2.99536 21.8595C2.99536 22.2573 3.1534 22.6388 3.4347 22.9201C3.71601 23.2014 4.09754 23.3595 4.49536 23.3595H9.00005C9.19896 23.3595 9.38973 23.2804 9.53038 23.1398C9.67103 22.9991 9.75005 22.8084 9.75005 22.6095V16.2345C9.75005 16.135 9.78956 16.0396 9.85989 15.9693C9.93021 15.899 10.0256 15.8595 10.1251 15.8595H13.8751C13.9745 15.8595 14.0699 15.899 14.1402 15.9693C14.2105 16.0396 14.2501 16.135 14.2501 16.2345V22.6095C14.2501 22.8084 14.3291 22.9991 14.4697 23.1398C14.6104 23.2804 14.8011 23.3595 15.0001 23.3595H19.5029C19.9007 23.3595 20.2822 23.2014 20.5635 22.9201C20.8448 22.6388 21.0029 22.2573 21.0029 21.8595V14.1223C21.0029 14.0716 20.9927 14.0213 20.9728 13.9747C20.9529 13.928 20.9237 13.8859 20.8871 13.8509L12.2607 5.60695Z" fill="#E5E5E5" stroke="#E5E5E5"/>
<path d="M23.0114 12.3039L19.5052 8.94954V3.85938C19.5052 3.66046 19.4261 3.4697 19.2855 3.32905C19.1448 3.18839 18.9541 3.10938 18.7552 3.10938H16.5052C16.3063 3.10938 16.1155 3.18839 15.9748 3.32905C15.8342 3.4697 15.7552 3.66046 15.7552 3.85938V5.35938L13.0402 2.76344C12.7861 2.50656 12.4083 2.35938 12 2.35938C11.5931 2.35938 11.2163 2.50656 10.9622 2.76391L0.991893 12.303C0.70033 12.5842 0.663768 13.0469 0.92908 13.3516C0.995704 13.4285 1.07728 13.491 1.16884 13.5354C1.26041 13.5798 1.36005 13.6051 1.46169 13.6097C1.56334 13.6144 1.66487 13.5983 1.7601 13.5624C1.85533 13.5266 1.94228 13.4718 2.01564 13.4013L11.7422 4.10688C11.812 4.04012 11.9048 4.00286 12.0014 4.00286C12.098 4.00286 12.1908 4.04012 12.2606 4.10688L21.9881 13.4013C22.1314 13.5387 22.3234 13.6137 22.5218 13.6098C22.7203 13.6059 22.9092 13.5235 23.047 13.3806C23.3348 13.0825 23.3109 12.5903 23.0114 12.3039Z" fill="#E5E5E5" stroke="#E5E5E5"/>
</svg>
