<svg width="16" height="13" viewBox="0 0 16 13" fill="none" xmlns="http://www.w3.org/2000/svg">
<path fill-rule="evenodd" clip-rule="evenodd" d="M8.30001 3.60225C10.535 3.60225 12.684 4.46125 14.303 6.00125C14.3616 6.05843 14.4405 6.0901 14.5223 6.08935C14.6042 6.0886 14.6825 6.05549 14.74 5.99725L15.906 4.82125C15.9362 4.79093 15.96 4.75495 15.9762 4.71537C15.9924 4.67578 16.0006 4.63339 16.0003 4.59063C16 4.54786 15.9913 4.50558 15.9746 4.46621C15.9579 4.42684 15.9336 4.39117 15.903 4.36125C13.8574 2.40068 11.1335 1.30613 8.30001 1.30613C5.46656 1.30613 2.74264 2.40068 0.697009 4.36125C0.666456 4.39117 0.642128 4.42684 0.625428 4.46621C0.608728 4.50558 0.599987 4.54786 0.599708 4.59063C0.599429 4.63339 0.607618 4.67578 0.623803 4.71537C0.639988 4.75495 0.663849 4.79093 0.694009 4.82125L1.86001 5.99625C1.91756 6.05449 1.99581 6.0876 2.07768 6.08835C2.15956 6.0891 2.2384 6.05743 2.29701 6.00025C3.9165 4.46075 6.06555 3.60228 8.30001 3.60225V3.60225ZM8.30001 7.43025C9.52801 7.43025 10.712 7.88625 11.622 8.71025C11.6812 8.76645 11.7601 8.79727 11.8417 8.79615C11.9234 8.79503 12.0013 8.76205 12.059 8.70425L13.223 7.52825C13.2534 7.49775 13.2775 7.4615 13.2938 7.42161C13.3101 7.38173 13.3183 7.339 13.3179 7.29591C13.3175 7.25283 13.3086 7.21025 13.2916 7.17065C13.2746 7.13105 13.25 7.09522 13.219 7.06525C11.8831 5.82281 10.1264 5.13217 8.30201 5.13217C6.47765 5.13217 4.72092 5.82281 3.38501 7.06525C3.35399 7.09516 3.32923 7.13093 3.31217 7.1705C3.2951 7.21006 3.28607 7.25262 3.28561 7.2957C3.28514 7.33879 3.29325 7.38153 3.30946 7.42146C3.32566 7.46138 3.34964 7.49768 3.38001 7.52825L4.54401 8.70425C4.66401 8.82425 4.85801 8.82725 4.98101 8.71025C5.89067 7.88667 7.07391 7.43048 8.30101 7.43025H8.30001ZM10.538 10.2373C10.5686 10.207 10.5927 10.1708 10.6088 10.1308C10.625 10.0909 10.6328 10.0481 10.6319 10.0051C10.631 9.96206 10.6213 9.91966 10.6034 9.88048C10.5855 9.84131 10.5599 9.80619 10.528 9.77725C9.90516 9.25043 9.11578 8.96136 8.30001 8.96136C7.48424 8.96136 6.69486 9.25043 6.07201 9.77725C6.04013 9.80619 6.01448 9.84131 5.99661 9.88048C5.97875 9.91966 5.96906 9.96206 5.96812 10.0051C5.96719 10.0481 5.97503 10.0909 5.99117 10.1308C6.00731 10.1708 6.03142 10.207 6.06201 10.2373L8.07701 12.2703C8.10622 12.2999 8.14102 12.3234 8.17938 12.3394C8.21775 12.3554 8.25892 12.3637 8.30051 12.3637C8.34209 12.3637 8.38327 12.3554 8.42163 12.3394C8.46 12.3234 8.4948 12.2999 8.52401 12.2703L10.538 10.2373V10.2373Z" fill="black"/>
</svg>
