<svg width="16" height="13" viewBox="0 0 16 13" fill="none" xmlns="http://www.w3.org/2000/svg">
<path fill-rule="evenodd" clip-rule="evenodd" d="M8.29992 3.2585C10.5349 3.2585 12.6839 4.1175 14.3029 5.6575C14.3615 5.71468 14.4404 5.74635 14.5222 5.7456C14.6041 5.74485 14.6824 5.71174 14.7399 5.6535L15.9059 4.4775C15.9361 4.44718 15.9599 4.4112 15.9761 4.37161C15.9923 4.33203 16.0005 4.28964 16.0002 4.24687C15.9999 4.20411 15.9912 4.16183 15.9745 4.12246C15.9578 4.08309 15.9335 4.04742 15.9029 4.0175C13.8573 2.05693 11.1334 0.962376 8.29992 0.962376C5.46647 0.962376 2.74255 2.05693 0.696918 4.0175C0.666364 4.04742 0.642036 4.08309 0.625336 4.12246C0.608637 4.16183 0.599895 4.20411 0.599616 4.24687C0.599337 4.28964 0.607527 4.33203 0.623712 4.37161C0.639896 4.4112 0.663757 4.44718 0.693917 4.4775L1.85992 5.6525C1.91747 5.71074 1.99572 5.74385 2.07759 5.7446C2.15947 5.74535 2.23831 5.71368 2.29692 5.6565C3.91641 4.117 6.06546 3.25852 8.29992 3.2585ZM8.29992 7.0865C9.52792 7.0865 10.7119 7.5425 11.6219 8.3665C11.6812 8.42269 11.76 8.45352 11.8416 8.4524C11.9233 8.45128 12.0012 8.4183 12.0589 8.3605L13.2229 7.1845C13.2533 7.154 13.2774 7.11775 13.2937 7.07786C13.31 7.03797 13.3182 6.99525 13.3178 6.95216C13.3174 6.90908 13.3085 6.8665 13.2915 6.8269C13.2746 6.7873 13.2499 6.75147 13.2189 6.7215C11.883 5.47906 10.1263 4.78842 8.30192 4.78842C6.47755 4.78842 4.72083 5.47906 3.38492 6.7215C3.3539 6.7514 3.32914 6.78718 3.31207 6.82674C3.29501 6.86631 3.28598 6.90887 3.28552 6.95195C3.28505 6.99504 3.29316 7.03778 3.30936 7.07771C3.32557 7.11763 3.34955 7.15393 3.37992 7.1845L4.54392 8.3605C4.66392 8.4805 4.85792 8.4835 4.98092 8.3665C5.89058 7.54291 7.07382 7.08673 8.30092 7.0865H8.29992ZM10.5379 9.8935C10.5685 9.86321 10.5926 9.827 10.6088 9.78709C10.6249 9.74717 10.6327 9.70439 10.6318 9.66135C10.6309 9.61831 10.6212 9.57591 10.6033 9.53673C10.5855 9.49756 10.5598 9.46243 10.5279 9.4335C9.90507 8.90668 9.11569 8.61761 8.29992 8.61761C7.48415 8.61761 6.69477 8.90668 6.07192 9.4335C6.04004 9.46243 6.01438 9.49756 5.99652 9.53673C5.97866 9.57591 5.96897 9.61831 5.96803 9.66135C5.9671 9.70439 5.97494 9.74717 5.99108 9.78709C6.00722 9.827 6.03132 9.86321 6.06192 9.8935L8.07692 11.9265C8.10613 11.9561 8.14093 11.9796 8.17929 11.9956C8.21766 12.0117 8.25883 12.0199 8.30042 12.0199C8.342 12.0199 8.38317 12.0117 8.42154 11.9956C8.45991 11.9796 8.49471 11.9561 8.52392 11.9265L10.5379 9.8935Z" fill="black"/>
</svg>
