<svg width="30" height="30" viewBox="0 0 30 30" fill="none" xmlns="http://www.w3.org/2000/svg">
<path fill-rule="evenodd" clip-rule="evenodd" d="M13.583 14.997L8.63305 10.047C8.45089 9.8584 8.3501 9.6058 8.35237 9.3436C8.35465 9.08141 8.45982 8.8306 8.64523 8.64519C8.83064 8.45978 9.08145 8.35461 9.34365 8.35233C9.60584 8.35005 9.85845 8.45085 10.047 8.63301L14.997 13.583L19.947 8.63301C20.1357 8.45085 20.3883 8.35005 20.6504 8.35233C20.9126 8.35461 21.1635 8.45978 21.3489 8.64519C21.5343 8.8306 21.6394 9.08141 21.6417 9.3436C21.644 9.6058 21.5432 9.8584 21.361 10.047L16.411 14.997L21.361 19.947C21.5432 20.1356 21.644 20.3882 21.6417 20.6504C21.6394 20.9126 21.5343 21.1634 21.3489 21.3488C21.1635 21.5342 20.9126 21.6394 20.6504 21.6417C20.3883 21.644 20.1357 21.5432 19.947 21.361L14.997 16.411L10.047 21.361C9.9548 21.4565 9.84446 21.5327 9.72245 21.5851C9.60045 21.6375 9.46923 21.6651 9.33645 21.6663C9.20367 21.6674 9.07199 21.6421 8.94909 21.5918C8.8262 21.5415 8.71455 21.4673 8.62065 21.3734C8.52676 21.2795 8.45251 21.1679 8.40223 21.045C8.35195 20.9221 8.32664 20.7904 8.3278 20.6576C8.32895 20.5248 8.35654 20.3936 8.40895 20.2716C8.46135 20.1496 8.53754 20.0393 8.63305 19.947L13.583 14.997V14.997Z" fill="#A5AFFB"/>
</svg>
