<svg width="18" height="13" viewBox="0 0 18 13" fill="none" xmlns="http://www.w3.org/2000/svg">
<path fill-rule="evenodd" clip-rule="evenodd" d="M1.89 8.15935H2.11C2.467 8.15935 2.69 8.21535 2.886 8.31935C3.082 8.42435 3.236 8.57735 3.34 8.77335C3.444 8.96835 3.5 9.19335 3.5 9.54935V10.7694C3.5 11.1264 3.444 11.3493 3.34 11.5454C3.23768 11.7388 3.07948 11.897 2.886 11.9994C2.691 12.1034 2.466 12.1594 2.11 12.1594H1.89C1.533 12.1594 1.31 12.1034 1.114 11.9994C0.920517 11.897 0.76232 11.7388 0.66 11.5454C0.556 11.3504 0.5 11.1253 0.5 10.7694V9.54935C0.5 9.19235 0.556 8.96935 0.66 8.77335C0.76232 8.57987 0.920517 8.42167 1.114 8.31935C1.309 8.21535 1.534 8.15935 1.89 8.15935ZM6.69 6.15935H6.91C7.267 6.15935 7.49 6.21535 7.686 6.31935C7.882 6.42435 8.036 6.57735 8.14 6.77335C8.244 6.96835 8.3 7.19335 8.3 7.54935V10.7694C8.3 11.1264 8.244 11.3493 8.14 11.5454C8.03768 11.7388 7.87948 11.897 7.686 11.9994C7.491 12.1034 7.266 12.1594 6.91 12.1594H6.69C6.333 12.1594 6.11 12.1034 5.914 11.9994C5.72052 11.897 5.56232 11.7388 5.46 11.5454C5.356 11.3504 5.3 11.1253 5.3 10.7694V7.54935C5.3 7.19235 5.356 6.96935 5.46 6.77335C5.56232 6.57987 5.72052 6.42167 5.914 6.31935C6.109 6.21535 6.334 6.15935 6.69 6.15935ZM11.29 3.85935H11.51C11.867 3.85935 12.09 3.91535 12.286 4.01935C12.482 4.12435 12.636 4.27735 12.74 4.47335C12.844 4.66835 12.9 4.89335 12.9 5.24935V10.7694C12.9 11.1264 12.844 11.3493 12.74 11.5454C12.6377 11.7388 12.4795 11.897 12.286 11.9994C12.091 12.1034 11.866 12.1594 11.51 12.1594H11.29C10.933 12.1594 10.71 12.1034 10.514 11.9994C10.3205 11.897 10.1623 11.7388 10.06 11.5454C9.956 11.3504 9.9 11.1253 9.9 10.7694V5.24935C9.9 4.89235 9.956 4.66935 10.06 4.47335C10.1623 4.27987 10.3205 4.12167 10.514 4.01935C10.709 3.91535 10.934 3.85935 11.29 3.85935ZM15.99 1.45935H16.21C16.567 1.45935 16.79 1.51535 16.986 1.61935C17.182 1.72435 17.336 1.87735 17.44 2.07335C17.544 2.26835 17.6 2.49335 17.6 2.84935V10.7694C17.6 11.1264 17.544 11.3493 17.44 11.5454C17.3377 11.7388 17.1795 11.897 16.986 11.9994C16.791 12.1034 16.566 12.1594 16.21 12.1594H15.99C15.633 12.1594 15.41 12.1034 15.214 11.9994C15.0205 11.897 14.8623 11.7388 14.76 11.5454C14.656 11.3504 14.6 11.1253 14.6 10.7694V2.84935C14.6 2.49235 14.656 2.26935 14.76 2.07335C14.8623 1.87987 15.0205 1.72167 15.214 1.61935C15.409 1.51535 15.634 1.45935 15.99 1.45935Z" fill="black"/>
</svg>
