<svg width="25" height="13" viewBox="0 0 25 13" fill="none" xmlns="http://www.w3.org/2000/svg">
<path d="M3.59 2.01929C2.602 2.01929 2.258 2.08629 1.904 2.27529C1.622 2.42529 1.407 2.64129 1.256 2.92329C1.066 3.27729 1 3.62129 1 4.60829V8.93029C1 9.91729 1.067 10.2613 1.256 10.6153C1.406 10.8973 1.622 11.1123 1.904 11.2633C2.258 11.4533 2.602 11.5193 3.589 11.5193H18.411C19.398 11.5193 19.742 11.4523 20.096 11.2633C20.378 11.1133 20.593 10.8973 20.744 10.6153C20.934 10.2613 21 9.91729 21 8.93029V4.60829C21 3.62129 20.933 3.27729 20.744 2.92329C20.5985 2.64672 20.3726 2.42078 20.096 2.27529C19.742 2.08529 19.398 2.01929 18.411 2.01929H3.589H3.59ZM3.59 1.01929H18.41C19.659 1.01929 20.111 1.14929 20.568 1.39329C21.024 1.63729 21.382 1.99529 21.626 2.45129C21.87 2.90829 22 3.36129 22 4.60829V8.93029C22 10.1783 21.87 10.6303 21.626 11.0873C21.3874 11.538 21.0187 11.9066 20.568 12.1453C20.111 12.3893 19.658 12.5193 18.411 12.5193H3.589C2.341 12.5193 1.889 12.3893 1.432 12.1453C0.981252 11.9066 0.612639 11.538 0.374 11.0873C0.13 10.6293 0 10.1773 0 8.92929V4.60829C0 3.36029 0.13 2.90829 0.374 2.45129C0.612639 2.00054 0.981252 1.63193 1.432 1.39329C1.89 1.14929 2.342 1.01929 3.59 1.01929ZM23 4.70929C24 5.21829 24.5 5.88529 24.5 6.70929C24.5 7.53329 24 8.20029 23 8.70929V4.70929Z" fill="black" fill-opacity="0.36"/>
<path fill-rule="evenodd" clip-rule="evenodd" d="M4.051 2.93628H17.95C18.663 2.93628 18.922 3.01028 19.182 3.14928C19.443 3.28928 19.648 3.49328 19.787 3.75428C19.927 4.01428 20.001 4.27428 20.001 4.98728V8.55128C20.001 9.26428 19.927 9.52328 19.787 9.78428C19.647 10.0443 19.443 10.2493 19.182 10.3893C18.922 10.5293 18.663 10.6023 17.95 10.6023H4.05C3.337 10.6023 3.078 10.5283 2.818 10.3893C2.56022 10.2529 2.34942 10.0421 2.213 9.78428C2.074 9.52428 2 9.26428 2 8.55128V4.98728C2 4.27428 2.074 4.01528 2.214 3.75428C2.354 3.49428 2.558 3.28928 2.819 3.14928C3.079 3.00928 3.338 2.93628 4.051 2.93628Z" fill="black"/>
</svg>
