<svg width="24" height="25" viewBox="0 0 24 25" fill="none" xmlns="http://www.w3.org/2000/svg">
<path d="M11.25 23.0625V21.3553C7.52484 21.1406 5.26172 19.2216 5.25 16.3125H8.625C8.70797 17.5472 9.74344 18.4898 11.25 18.6562V14.0625L9.99516 13.7344C7.13578 13.0697 5.60578 11.4192 5.60578 8.94938C5.60578 6.03797 7.69125 4.12875 11.25 3.84375V2.0625H12.75V3.84375C16.3777 4.13906 18.3281 6.08156 18.375 8.8125H15C14.9644 7.68469 14.258 6.77859 12.75 6.65625V10.9688L14.1947 11.31C17.2317 11.9747 18.75 13.5469 18.75 16.125C18.75 19.1409 16.6997 21.0881 12.75 21.3431V23.0625H11.25ZM11.25 10.6875V6.65625C9.95672 6.7275 9.03422 7.52203 9.03422 8.64984C9.03422 9.69516 9.8025 10.3786 11.25 10.6875ZM12.75 14.3438V18.6562C14.5383 18.5841 15.3928 17.7694 15.3928 16.5108C15.3928 15.3586 14.5383 14.5828 12.75 14.3438Z" fill="#E5E5E5" stroke="#E5E5E5"/>
</svg>
