<svg width="26" height="27" viewBox="0 0 26 27" fill="none" xmlns="http://www.w3.org/2000/svg">
<path d="M13.1473 3.29688C7.20688 3.21664 2.35727 8.06625 2.4375 14.0066C2.51672 19.7038 7.15559 24.3426 12.8527 24.4219C18.7941 24.5031 23.6427 19.6535 23.5615 13.7131C23.4833 8.01496 18.8444 3.37609 13.1473 3.29688ZM19.567 19.915C19.5468 19.9369 19.522 19.9541 19.4944 19.9653C19.4668 19.9765 19.4371 19.9815 19.4073 19.98C19.3776 19.9784 19.3485 19.9703 19.3222 19.9563C19.296 19.9423 19.2731 19.9226 19.2552 19.8988C18.801 19.3045 18.2448 18.7957 17.6125 18.3962C16.3196 17.5664 14.6814 17.1094 13 17.1094C11.3186 17.1094 9.68043 17.5664 8.38754 18.3962C7.75525 18.7955 7.199 19.3042 6.74477 19.8983C6.72692 19.9221 6.70405 19.9418 6.67776 19.9558C6.65148 19.9698 6.62243 19.9779 6.59268 19.9795C6.56292 19.981 6.53319 19.976 6.50559 19.9648C6.47799 19.9536 6.4532 19.9364 6.43297 19.9145C4.94289 18.306 4.09881 16.2041 4.0625 14.0117C3.97973 9.07019 8.03461 4.93406 12.9782 4.92188C17.9217 4.90969 21.9375 8.92394 21.9375 13.8594C21.9392 16.1046 21.0925 18.2676 19.567 19.915V19.915Z" fill="#EEDFF2" stroke="#EEDFF2"/>
<path d="M12.9999 8.17188C11.9985 8.17188 11.0931 8.54715 10.4497 9.22914C9.80628 9.91113 9.48484 10.8541 9.55746 11.8662C9.70472 13.8594 11.249 15.4844 12.9999 15.4844C14.7508 15.4844 16.2921 13.8594 16.4424 11.8667C16.5175 10.8643 16.1986 9.92992 15.5446 9.23523C14.8986 8.54969 13.9947 8.17188 12.9999 8.17188Z" fill="#EEDFF2" stroke="#EEDFF2"/>
</svg>
