<svg width="25" height="13" viewBox="0 0 25 13" fill="none" xmlns="http://www.w3.org/2000/svg">
<path d="M3.59 1.7225C2.602 1.7225 2.258 1.7895 1.904 1.9785C1.622 2.1285 1.407 2.3445 1.256 2.6265C1.066 2.9805 1 3.3245 1 4.3115V8.6335C1 9.6205 1.067 9.9645 1.256 10.3185C1.406 10.6005 1.622 10.8155 1.904 10.9665C2.258 11.1565 2.602 11.2225 3.589 11.2225H18.411C19.398 11.2225 19.742 11.1555 20.096 10.9665C20.378 10.8165 20.593 10.6005 20.744 10.3185C20.934 9.9645 21 9.6205 21 8.6335V4.3115C21 3.3245 20.933 2.9805 20.744 2.6265C20.5985 2.34994 20.3726 2.124 20.096 1.9785C19.742 1.7885 19.398 1.7225 18.411 1.7225H3.589H3.59ZM3.59 0.7225H18.41C19.659 0.7225 20.111 0.8525 20.568 1.0965C21.024 1.3405 21.382 1.6985 21.626 2.1545C21.87 2.6115 22 3.0645 22 4.3115V8.6335C22 9.8815 21.87 10.3335 21.626 10.7905C21.3874 11.2412 21.0187 11.6099 20.568 11.8485C20.111 12.0925 19.658 12.2225 18.411 12.2225H3.589C2.341 12.2225 1.889 12.0925 1.432 11.8485C0.981252 11.6099 0.612639 11.2412 0.374 10.7905C0.13 10.3325 0 9.8805 0 8.6325V4.3115C0 3.0635 0.13 2.6115 0.374 2.1545C0.612639 1.70375 0.981252 1.33514 1.432 1.0965C1.89 0.8525 2.342 0.7225 3.59 0.7225ZM23 4.4125C24 4.9215 24.5 5.5885 24.5 6.4125C24.5 7.2365 24 7.9035 23 8.4125V4.4125Z" fill="black" fill-opacity="0.36"/>
<path fill-rule="evenodd" clip-rule="evenodd" d="M4.051 2.6395H17.95C18.663 2.6395 18.922 2.7135 19.182 2.8525C19.443 2.9925 19.648 3.1965 19.787 3.4575C19.927 3.7175 20.001 3.9775 20.001 4.6905V8.2545C20.001 8.9675 19.927 9.2265 19.787 9.4875C19.647 9.7475 19.443 9.9525 19.182 10.0925C18.922 10.2325 18.663 10.3055 17.95 10.3055H4.05C3.337 10.3055 3.078 10.2315 2.818 10.0925C2.56022 9.95608 2.34942 9.74528 2.213 9.4875C2.074 9.2275 2 8.9675 2 8.2545V4.6905C2 3.9775 2.074 3.7185 2.214 3.4575C2.354 3.1975 2.558 2.9925 2.819 2.8525C3.079 2.7125 3.338 2.6395 4.051 2.6395Z" fill="black"/>
</svg>
