<svg width="24" height="25" viewBox="0 0 24 25" fill="none" xmlns="http://www.w3.org/2000/svg">
<path fill-rule="evenodd" clip-rule="evenodd" d="M9.46291 18.8093C9.58772 18.8121 9.71179 18.7893 9.8274 18.7421C9.94301 18.695 10.0477 18.6246 10.1349 18.5353L15.1069 13.6133C15.3399 13.3893 15.4469 13.1483 15.4469 12.8583C15.4469 12.5683 15.3399 12.3183 15.1159 12.1023L10.1359 7.18025C10.0483 7.09087 9.94328 7.02043 9.82735 6.9733C9.71141 6.92617 9.58703 6.90335 9.46191 6.90625C9.3359 6.90546 9.21097 6.92957 9.0943 6.97718C8.97763 7.0248 8.87151 7.09498 8.78203 7.18372C8.69256 7.27245 8.62149 7.37798 8.5729 7.49425C8.52431 7.61052 8.49917 7.73524 8.49891 7.86125C8.49891 8.12625 8.60691 8.36725 8.79791 8.56625L13.1639 12.8663L8.79791 17.1573C8.65844 17.2893 8.56192 17.4602 8.52088 17.6478C8.47985 17.8354 8.4962 18.031 8.56782 18.2092C8.63944 18.3874 8.76301 18.5399 8.92246 18.6469C9.08191 18.7539 9.26987 18.8105 9.46191 18.8093H9.46291Z" fill="#A5AFFB"/>
</svg>
