<svg width="24" height="25" viewBox="0 0 24 25" fill="none" xmlns="http://www.w3.org/2000/svg">
<path d="M18.4687 23.3594C18.3109 23.36 18.1568 23.3108 18.0286 23.2187L12 18.8481L5.97139 23.2187C5.84259 23.3121 5.68742 23.3622 5.52831 23.3616C5.36921 23.361 5.21441 23.3099 5.08629 23.2155C4.95818 23.1212 4.86339 22.9885 4.81563 22.8367C4.76787 22.685 4.76961 22.5219 4.82061 22.3712L7.17185 15.407L1.07811 11.2281C0.946112 11.1377 0.846491 11.0074 0.793797 10.8564C0.741103 10.7053 0.7381 10.5413 0.785225 10.3884C0.83235 10.2355 0.927135 10.1017 1.05573 10.0065C1.18432 9.91135 1.33999 9.85978 1.49998 9.85936H9.01779L11.2865 2.87733C11.3354 2.72659 11.4308 2.5952 11.5589 2.50202C11.6871 2.40883 11.8415 2.35864 12 2.35864C12.1584 2.35864 12.3128 2.40883 12.441 2.50202C12.5692 2.5952 12.6645 2.72659 12.7134 2.87733L14.9822 9.8617H22.5C22.6602 9.86162 22.8162 9.91284 22.9452 10.0078C23.0741 10.1028 23.1693 10.2367 23.2167 10.3897C23.2641 10.5427 23.2613 10.7069 23.2087 10.8582C23.1561 11.0095 23.0563 11.1399 22.9242 11.2304L16.8281 15.407L19.1779 22.3694C19.216 22.4821 19.2267 22.6022 19.2092 22.7199C19.1916 22.8376 19.1464 22.9494 19.0771 23.0461C19.0078 23.1428 18.9165 23.2217 18.8107 23.2762C18.7049 23.3306 18.5877 23.3591 18.4687 23.3594Z" fill="#E5E5E5" stroke="#E5E5E5"/>
</svg>
