<svg width="24" height="25" viewBox="0 0 24 25" fill="none" xmlns="http://www.w3.org/2000/svg">
<path fill-rule="evenodd" clip-rule="evenodd" d="M9.46315 18.8093C9.58797 18.8121 9.71204 18.7893 9.82765 18.7421C9.94325 18.695 10.0479 18.6246 10.1352 18.5353L15.1072 13.6133C15.3402 13.3893 15.4472 13.1483 15.4472 12.8583C15.4472 12.5683 15.3402 12.3183 15.1162 12.1023L10.1362 7.18025C10.0486 7.09087 9.94353 7.02043 9.82759 6.9733C9.71165 6.92617 9.58727 6.90335 9.46215 6.90625C9.33614 6.90546 9.21121 6.92957 9.09454 6.97718C8.97787 7.0248 8.87175 7.09498 8.78228 7.18372C8.6928 7.27245 8.62173 7.37798 8.57314 7.49425C8.52456 7.61052 8.49941 7.73524 8.49915 7.86125C8.49915 8.12625 8.60715 8.36725 8.79815 8.56625L13.1642 12.8663L8.79815 17.1573C8.65869 17.2893 8.56216 17.4602 8.52113 17.6478C8.48009 17.8354 8.49645 18.031 8.56807 18.2092C8.63968 18.3874 8.76325 18.5399 8.9227 18.6469C9.08216 18.7539 9.27012 18.8105 9.46215 18.8093H9.46315Z" fill="url(#paint0_linear_3_1402)"/>
<defs>
<linearGradient id="paint0_linear_3_1402" x1="11.8597" y1="1.53723" x2="1.83324" y2="7.38971" gradientUnits="userSpaceOnUse">
<stop stop-color="#CDDDF4"/>
<stop offset="1" stop-color="#CDBAFA"/>
</linearGradient>
</defs>
</svg>
