<svg width="18" height="13" viewBox="0 0 18 13" fill="none" xmlns="http://www.w3.org/2000/svg">
<path fill-rule="evenodd" clip-rule="evenodd" d="M1.89 7.61248H2.11C2.467 7.61248 2.69 7.66848 2.886 7.77248C3.082 7.87748 3.236 8.03048 3.34 8.22648C3.444 8.42148 3.5 8.64647 3.5 9.00247V10.2225C3.5 10.5795 3.444 10.8025 3.34 10.9985C3.23768 11.192 3.07948 11.3502 2.886 11.4525C2.691 11.5565 2.466 11.6125 2.11 11.6125H1.89C1.533 11.6125 1.31 11.5565 1.114 11.4525C0.920517 11.3502 0.76232 11.192 0.66 10.9985C0.556 10.8035 0.5 10.5785 0.5 10.2225V9.00247C0.5 8.64547 0.556 8.42248 0.66 8.22648C0.76232 8.03299 0.920517 7.8748 1.114 7.77248C1.309 7.66848 1.534 7.61248 1.89 7.61248ZM6.69 5.61248H6.91C7.267 5.61248 7.49 5.66848 7.686 5.77248C7.882 5.87748 8.036 6.03048 8.14 6.22648C8.244 6.42148 8.3 6.64648 8.3 7.00248V10.2225C8.3 10.5795 8.244 10.8025 8.14 10.9985C8.03768 11.192 7.87948 11.3502 7.686 11.4525C7.491 11.5565 7.266 11.6125 6.91 11.6125H6.69C6.333 11.6125 6.11 11.5565 5.914 11.4525C5.72052 11.3502 5.56232 11.192 5.46 10.9985C5.356 10.8035 5.3 10.5785 5.3 10.2225V7.00248C5.3 6.64548 5.356 6.42248 5.46 6.22648C5.56232 6.03299 5.72052 5.8748 5.914 5.77248C6.109 5.66848 6.334 5.61248 6.69 5.61248ZM11.29 3.31248H11.51C11.867 3.31248 12.09 3.36848 12.286 3.47248C12.482 3.57748 12.636 3.73048 12.74 3.92648C12.844 4.12148 12.9 4.34648 12.9 4.70248V10.2225C12.9 10.5795 12.844 10.8025 12.74 10.9985C12.6377 11.192 12.4795 11.3502 12.286 11.4525C12.091 11.5565 11.866 11.6125 11.51 11.6125H11.29C10.933 11.6125 10.71 11.5565 10.514 11.4525C10.3205 11.3502 10.1623 11.192 10.06 10.9985C9.956 10.8035 9.9 10.5785 9.9 10.2225V4.70248C9.9 4.34548 9.956 4.12248 10.06 3.92648C10.1623 3.73299 10.3205 3.5748 10.514 3.47248C10.709 3.36848 10.934 3.31248 11.29 3.31248ZM15.99 0.912476H16.21C16.567 0.912476 16.79 0.968476 16.986 1.07248C17.182 1.17748 17.336 1.33048 17.44 1.52648C17.544 1.72148 17.6 1.94648 17.6 2.30248V10.2225C17.6 10.5795 17.544 10.8025 17.44 10.9985C17.3377 11.192 17.1795 11.3502 16.986 11.4525C16.791 11.5565 16.566 11.6125 16.21 11.6125H15.99C15.633 11.6125 15.41 11.5565 15.214 11.4525C15.0205 11.3502 14.8623 11.192 14.76 10.9985C14.656 10.8035 14.6 10.5785 14.6 10.2225V2.30248C14.6 1.94548 14.656 1.72248 14.76 1.52648C14.8623 1.33299 15.0205 1.1748 15.214 1.07248C15.409 0.968476 15.634 0.912476 15.99 0.912476Z" fill="black"/>
</svg>
