<svg width="12" height="21" viewBox="0 0 12 21" fill="none" xmlns="http://www.w3.org/2000/svg">
<path fill-rule="evenodd" clip-rule="evenodd" d="M9.5372 20.333L0.292205 11.196C0.199683 11.1052 0.126187 10.9969 0.0760144 10.8774C0.0258419 10.7579 0 10.6296 0 10.5C0 10.3704 0.0258419 10.2421 0.0760144 10.1226C0.126187 10.0031 0.199683 9.89477 0.292205 9.804L9.5372 0.667C9.80944 0.399741 10.1757 0.250008 10.5572 0.250008C10.9387 0.250008 11.305 0.399741 11.5772 0.667C12.1402 1.224 12.1402 2.127 11.5772 2.683L3.67021 10.5L11.5792 18.316C12.1412 18.873 12.1412 19.776 11.5792 20.333C11.307 20.6003 10.9407 20.75 10.5592 20.75C10.1777 20.75 9.81144 20.6003 9.5392 20.333" fill="#A5AFFB"/>
</svg>
