<svg width="20" height="21" viewBox="0 0 20 21" fill="none" xmlns="http://www.w3.org/2000/svg">
<path d="M13.6379 6.25235C12.0629 6.25235 11.3973 7.00391 10.3004 7.00391C9.17579 7.00391 8.31798 6.25782 6.95313 6.25782C5.6172 6.25782 4.19259 7.07344 3.2879 8.4629C2.01758 10.4223 2.23321 14.1125 4.29063 17.2563C5.02657 18.3817 6.00938 19.6438 7.29845 19.6574H7.32188C8.4422 19.6574 8.77501 18.9238 10.3168 18.9153H10.3402C11.859 18.9153 12.1637 19.6531 13.2793 19.6531H13.3027C14.5918 19.6395 15.6274 18.241 16.3633 17.1199C16.893 16.3137 17.0899 15.909 17.4961 14.9969C14.5199 13.8672 14.0418 9.64806 16.9852 8.03048C16.0867 6.90548 14.8242 6.25391 13.634 6.25391L13.6379 6.25235Z" fill="black" stroke="black"/>
<path d="M13.291 2.15625C12.3535 2.21992 11.2598 2.8168 10.6192 3.59609C10.0379 4.30234 9.55978 5.35 9.74728 6.36602H9.82228C10.8207 6.36602 11.8426 5.76484 12.4395 4.99453C13.0145 4.26133 13.4504 3.22227 13.291 2.15625Z" fill="black" stroke="black"/>
</svg>
