<svg width="25" height="13" viewBox="0 0 25 13" fill="none" xmlns="http://www.w3.org/2000/svg">
<path d="M3.59 2.06628C2.602 2.06628 2.258 2.13328 1.904 2.32228C1.622 2.47228 1.407 2.68828 1.256 2.97028C1.066 3.32428 1 3.66828 1 4.65528V8.97728C1 9.96428 1.067 10.3083 1.256 10.6623C1.406 10.9443 1.622 11.1593 1.904 11.3103C2.258 11.5003 2.602 11.5663 3.589 11.5663H18.411C19.398 11.5663 19.742 11.4993 20.096 11.3103C20.378 11.1603 20.593 10.9443 20.744 10.6623C20.934 10.3083 21 9.96428 21 8.97728V4.65528C21 3.66828 20.933 3.32428 20.744 2.97028C20.5985 2.69372 20.3726 2.46778 20.096 2.32228C19.742 2.13228 19.398 2.06628 18.411 2.06628H3.589H3.59ZM3.59 1.06628H18.41C19.659 1.06628 20.111 1.19628 20.568 1.44028C21.024 1.68428 21.382 2.04228 21.626 2.49828C21.87 2.95528 22 3.40828 22 4.65528V8.97728C22 10.2253 21.87 10.6773 21.626 11.1343C21.3874 11.585 21.0187 11.9536 20.568 12.1923C20.111 12.4363 19.658 12.5663 18.411 12.5663H3.589C2.341 12.5663 1.889 12.4363 1.432 12.1923C0.981252 11.9536 0.612639 11.585 0.374 11.1343C0.13 10.6763 0 10.2243 0 8.97628V4.65528C0 3.40728 0.13 2.95528 0.374 2.49828C0.612639 2.04754 0.981252 1.67892 1.432 1.44028C1.89 1.19628 2.342 1.06628 3.59 1.06628ZM23 4.75628C24 5.26528 24.5 5.93228 24.5 6.75628C24.5 7.58028 24 8.24728 23 8.75628V4.75628Z" fill="black" fill-opacity="0.36"/>
<path fill-rule="evenodd" clip-rule="evenodd" d="M4.051 2.98328H17.95C18.663 2.98328 18.922 3.05728 19.182 3.19628C19.443 3.33628 19.648 3.54028 19.787 3.80128C19.927 4.06128 20.001 4.32128 20.001 5.03428V8.59828C20.001 9.31128 19.927 9.57028 19.787 9.83128C19.647 10.0913 19.443 10.2963 19.182 10.4363C18.922 10.5763 18.663 10.6493 17.95 10.6493H4.05C3.337 10.6493 3.078 10.5753 2.818 10.4363C2.56022 10.2999 2.34942 10.0891 2.213 9.83128C2.074 9.57128 2 9.31128 2 8.59828V5.03428C2 4.32128 2.074 4.06228 2.214 3.80128C2.354 3.54128 2.558 3.33628 2.819 3.19628C3.079 3.05628 3.338 2.98328 4.051 2.98328Z" fill="black"/>
</svg>
