<svg width="20" height="21" viewBox="0 0 20 21" fill="none" xmlns="http://www.w3.org/2000/svg">
<path d="M15.3996 8.62344C14.9157 7.33864 14.2101 6.14872 13.3148 5.10781C11.7656 3.31445 9.72852 2.15625 8.125 2.15625C8.02965 2.15632 7.93559 2.17821 7.85 2.22023C7.76441 2.26225 7.68958 2.3233 7.63122 2.3987C7.57286 2.4741 7.53252 2.56185 7.5133 2.65524C7.49408 2.74863 7.49648 2.84518 7.52031 2.9375C8.06211 5.00781 6.93906 6.7293 5.75039 8.55156C4.76563 10.0609 3.75 11.6199 3.75 13.4062C3.75 16.8523 6.55391 19.6562 10 19.6562C13.4461 19.6562 16.25 16.8523 16.25 13.4062C16.25 11.7148 15.9641 10.1059 15.3996 8.62344ZM11.2629 17.2613C10.8594 17.691 10.3535 17.7812 10 17.7812C9.64648 17.7812 9.14062 17.691 8.73711 17.2613C8.33359 16.8316 8.125 16.15 8.125 15.2812C8.125 14.2992 8.46953 13.5516 8.80234 12.8289C8.9957 12.4094 9.19297 11.9824 9.31016 11.5254C9.3226 11.4757 9.34708 11.4298 9.38143 11.3918C9.41579 11.3537 9.45897 11.3247 9.50717 11.3073C9.55537 11.2899 9.60712 11.2847 9.65784 11.292C9.70856 11.2993 9.75671 11.3189 9.79805 11.3492C10.1553 11.6256 10.473 11.9498 10.7422 12.3125C11.452 13.25 11.875 14.3602 11.875 15.2812C11.875 16.15 11.6633 16.8348 11.2629 17.2613Z" fill="white" stroke="white"/>
</svg>
