<svg width="25" height="13" viewBox="0 0 25 13" fill="none" xmlns="http://www.w3.org/2000/svg">
<path d="M3.59 2.06622C2.602 2.06622 2.258 2.13322 1.904 2.32222C1.622 2.47222 1.407 2.68822 1.256 2.97022C1.066 3.32422 1 3.66822 1 4.65522V8.97722C1 9.96422 1.067 10.3082 1.256 10.6622C1.406 10.9442 1.622 11.1592 1.904 11.3102C2.258 11.5002 2.602 11.5662 3.589 11.5662H18.411C19.398 11.5662 19.742 11.4992 20.096 11.3102C20.378 11.1602 20.593 10.9442 20.744 10.6622C20.934 10.3082 21 9.96422 21 8.97722V4.65522C21 3.66822 20.933 3.32422 20.744 2.97022C20.5985 2.69366 20.3726 2.46772 20.096 2.32222C19.742 2.13222 19.398 2.06622 18.411 2.06622H3.589H3.59ZM3.59 1.06622H18.41C19.659 1.06622 20.111 1.19622 20.568 1.44022C21.024 1.68422 21.382 2.04222 21.626 2.49822C21.87 2.95522 22 3.40822 22 4.65522V8.97722C22 10.2252 21.87 10.6772 21.626 11.1342C21.3874 11.585 21.0187 11.9536 20.568 12.1922C20.111 12.4362 19.658 12.5662 18.411 12.5662H3.589C2.341 12.5662 1.889 12.4362 1.432 12.1922C0.981252 11.9536 0.612639 11.585 0.374 11.1342C0.13 10.6762 0 10.2242 0 8.97622V4.65522C0 3.40722 0.13 2.95522 0.374 2.49822C0.612639 2.04748 0.981252 1.67886 1.432 1.44022C1.89 1.19622 2.342 1.06622 3.59 1.06622ZM23 4.75622C24 5.26522 24.5 5.93222 24.5 6.75622C24.5 7.58022 24 8.24722 23 8.75622V4.75622Z" fill="black" fill-opacity="0.36"/>
<path fill-rule="evenodd" clip-rule="evenodd" d="M4.051 2.98322H17.95C18.663 2.98322 18.922 3.05722 19.182 3.19622C19.443 3.33622 19.648 3.54022 19.787 3.80122C19.927 4.06122 20.001 4.32122 20.001 5.03422V8.59822C20.001 9.31121 19.927 9.57022 19.787 9.83122C19.647 10.0912 19.443 10.2962 19.182 10.4362C18.922 10.5762 18.663 10.6492 17.95 10.6492H4.05C3.337 10.6492 3.078 10.5752 2.818 10.4362C2.56022 10.2998 2.34942 10.089 2.213 9.83122C2.074 9.57122 2 9.31121 2 8.59822V5.03422C2 4.32122 2.074 4.06222 2.214 3.80122C2.354 3.54122 2.558 3.33622 2.819 3.19622C3.079 3.05622 3.338 2.98322 4.051 2.98322Z" fill="black"/>
</svg>
