<svg width="20" height="21" viewBox="0 0 20 21" fill="none" xmlns="http://www.w3.org/2000/svg">
<path d="M15.2735 19.0625C14.511 19.0625 13.4399 18.7867 11.836 17.8906C9.88562 16.7969 8.37702 15.7871 6.43718 13.8523C4.56687 11.9832 3.65671 10.7731 2.38288 8.45508C0.94382 5.83789 1.18913 4.46602 1.46335 3.87969C1.78991 3.17891 2.27195 2.75977 2.89499 2.34375C3.24888 2.11189 3.62338 1.91314 4.01374 1.75C4.0528 1.73321 4.08913 1.71719 4.12155 1.70274C4.31491 1.61563 4.60788 1.48399 4.97898 1.62461C5.22663 1.71758 5.44773 1.90782 5.79382 2.24961C6.50359 2.94961 7.47351 4.5086 7.83132 5.27422C8.07155 5.79024 8.23054 6.13086 8.23093 6.51289C8.23093 6.96016 8.00593 7.30508 7.73288 7.67735C7.68171 7.74727 7.63093 7.81407 7.58171 7.87891C7.28444 8.26953 7.21921 8.38243 7.26218 8.58399C7.34929 8.98907 7.9989 10.1949 9.06648 11.2602C10.1341 12.3254 11.3051 12.934 11.7118 13.0207C11.9219 13.0656 12.0372 12.9977 12.4403 12.6898C12.4981 12.6457 12.5575 12.6 12.6196 12.5543C13.036 12.2445 13.3649 12.0254 13.8016 12.0254H13.804C14.1841 12.0254 14.5094 12.1902 15.0485 12.4621C15.7516 12.8168 17.3575 13.7742 18.0618 14.4848C18.4044 14.8301 18.5954 15.0504 18.6887 15.2977C18.8294 15.6699 18.6969 15.9617 18.6106 16.157C18.5962 16.1895 18.5801 16.225 18.5633 16.2645C18.3989 16.6541 18.199 17.0278 17.9661 17.3809C17.5508 18.002 17.1301 18.4828 16.4278 18.8098C16.0671 18.9804 15.6724 19.0668 15.2735 19.0625Z" fill="#BE52F2" stroke="#BE52F2"/>
</svg>
