<svg width="12" height="22" viewBox="0 0 12 22" fill="none" xmlns="http://www.w3.org/2000/svg">
<path fill-rule="evenodd" clip-rule="evenodd" d="M9.53696 20.6455L0.291961 11.5085C0.199439 11.4177 0.125943 11.3094 0.0757703 11.1899C0.0255977 11.0704 -0.000244141 10.9421 -0.000244141 10.8125C-0.000244141 10.6829 0.0255977 10.5546 0.0757703 10.4351C0.125943 10.3156 0.199439 10.2073 0.291961 10.1165L9.53696 0.979493C9.8092 0.712233 10.1755 0.5625 10.557 0.5625C10.9385 0.5625 11.3047 0.712233 11.577 0.979493C12.14 1.53649 12.14 2.43949 11.577 2.99549L3.66996 10.8125L11.579 18.6285C12.141 19.1855 12.141 20.0885 11.579 20.6455C11.3067 20.9128 10.9405 21.0625 10.559 21.0625C10.1775 21.0625 9.8112 20.9128 9.53896 20.6455" fill="#A5AFFB"/>
</svg>
