<svg width="51" height="13" viewBox="0 0 51 13" fill="none" xmlns="http://www.w3.org/2000/svg">
<path d="M0.527344 12.5625H2.02148V7.37451H7.32568V6.04639H2.02148V1.9292H7.79883V0.584473H0.527344V12.5625ZM9.66324 12.5625H11.1076V7.01758C11.1076 5.70605 12.0871 4.83447 13.465 4.83447C13.7804 4.83447 14.0544 4.86768 14.3532 4.91748V3.51465C14.2121 3.48975 13.9049 3.45654 13.631 3.45654C12.4191 3.45654 11.5807 4.00439 11.2404 4.94238H11.1076V3.61426H9.66324V12.5625ZM18.1849 12.7202C19.3885 12.7202 20.3265 12.1973 20.8909 11.2427H21.0238V12.5625H22.4681V6.43652C22.4681 4.57715 21.2479 3.45654 19.0648 3.45654C17.1556 3.45654 15.7943 4.40283 15.5618 5.80566L15.5535 5.85547H16.9979L17.0062 5.83057C17.2386 5.1333 17.9442 4.73486 19.015 4.73486C20.3514 4.73486 21.0238 5.33252 21.0238 6.43652V7.25L18.4588 7.40771C16.3753 7.53223 15.1966 8.45361 15.1966 10.0474V10.064C15.1966 11.6909 16.4832 12.7202 18.1849 12.7202ZM16.6741 10.0308V10.0142C16.6741 9.12598 17.2718 8.64453 18.6331 8.56152L21.0238 8.41211V9.22559C21.0238 10.5039 19.9529 11.4668 18.4837 11.4668C17.4461 11.4668 16.6741 10.9355 16.6741 10.0308ZM24.6977 12.5625H26.1421V7.2666C26.1421 5.69775 27.0469 4.73486 28.4746 4.73486C29.9023 4.73486 30.5664 5.50684 30.5664 7.11719V12.5625H32.0107V6.76855C32.0107 4.64355 30.8901 3.45654 28.8813 3.45654C27.5615 3.45654 26.7231 4.0127 26.2749 4.95898H26.1421V3.61426H24.6977V12.5625ZM37.8761 12.7202C40.026 12.7202 41.2296 11.5664 41.5949 9.94775L41.6115 9.85645L40.1837 9.86475L40.1671 9.91455C39.8351 10.9106 39.0714 11.4419 37.8678 11.4419C36.2741 11.4419 35.2448 10.1221 35.2448 8.06348V8.04688C35.2448 6.02979 36.2575 4.73486 37.8678 4.73486C39.1544 4.73486 39.9513 5.44873 40.1754 6.32861L40.1837 6.35352H41.6198L41.6115 6.30371C41.3458 4.70996 40.0426 3.45654 37.8678 3.45654C35.361 3.45654 33.7672 5.26611 33.7672 8.04688V8.06348C33.7672 10.9023 35.3693 12.7202 37.8761 12.7202ZM46.9705 12.7202C49.0789 12.7202 50.3572 11.5249 50.6644 10.313L50.681 10.2466H49.2366L49.2034 10.3213C48.9627 10.8608 48.2156 11.4336 47.0037 11.4336C45.41 11.4336 44.389 10.3545 44.3475 8.50342H50.7889V7.93896C50.7889 5.26611 49.3113 3.45654 46.8792 3.45654C44.4471 3.45654 42.8699 5.34912 42.8699 8.11328V8.12158C42.8699 10.9272 44.4139 12.7202 46.9705 12.7202ZM46.8709 4.74316C48.1907 4.74316 49.1702 5.58154 49.3196 7.34961H44.3724C44.5301 5.64795 45.5428 4.74316 46.8709 4.74316Z" fill="url(#paint0_linear_3_923)"/>
<defs>
<linearGradient id="paint0_linear_3_923" x1="24.6348" y1="-14.3601" x2="9.56374" y2="21.9474" gradientUnits="userSpaceOnUse">
<stop stop-color="#CDDDF4"/>
<stop offset="1" stop-color="#CDBAFA"/>
</linearGradient>
</defs>
</svg>
