<svg width="81" height="14" viewBox="0 0 81 14" fill="none" xmlns="http://www.w3.org/2000/svg">
<path d="M0.527344 12.9062H2.02148V7.71826H7.32568V6.39014H2.02148V2.27295H7.79883V0.928223H0.527344V12.9062ZM12.6598 13.064C13.9713 13.064 14.8761 12.5244 15.3161 11.5698H15.4489V12.9062H16.8932V3.95801H15.4489V9.25391C15.4489 10.8228 14.6105 11.7856 13.0334 11.7856C11.6056 11.7856 11.0246 11.0137 11.0246 9.40332V3.95801H9.58023V9.75195C9.58023 11.8687 10.6261 13.064 12.6598 13.064ZM19.181 12.9062H20.6253V7.61035C20.6253 6.0415 21.5301 5.07861 22.9578 5.07861C24.3856 5.07861 25.0496 5.85059 25.0496 7.46094V12.9062H26.494V7.1123C26.494 4.9873 25.3734 3.80029 23.3646 3.80029C22.0447 3.80029 21.2064 4.35645 20.7581 5.30273H20.6253V3.95801H19.181V12.9062ZM32.0024 13.064C33.2475 13.064 34.2436 12.4746 34.7915 11.4785H34.9243V12.9062H36.3686V0.405273H34.9243V5.36914H34.7915C34.3017 4.41455 33.2309 3.80029 32.0024 3.80029C29.728 3.80029 28.2505 5.61816 28.2505 8.42383V8.44043C28.2505 11.2295 29.7363 13.064 32.0024 13.064ZM32.3345 11.7856C30.6992 11.7856 29.728 10.5239 29.728 8.44043V8.42383C29.728 6.34033 30.6992 5.07861 32.3345 5.07861C33.9614 5.07861 34.9575 6.35693 34.9575 8.42383V8.44043C34.9575 10.5073 33.9614 11.7856 32.3345 11.7856ZM48.2488 13.1885C51.3118 13.1885 53.3372 11.2295 53.3372 8.27441V6.81348H48.4813V8.125H51.8431V8.41553C51.8431 10.4409 50.3987 11.8105 48.2571 11.8105C45.8499 11.8105 44.3475 9.93457 44.3475 6.92139V6.90479C44.3475 3.93311 45.8748 2.02393 48.2488 2.02393C50.0335 2.02393 51.2371 2.87061 51.7269 4.41455L51.7518 4.49756H53.2625L53.2459 4.41455C52.7728 2.14014 50.9051 0.645996 48.2488 0.645996C44.97 0.645996 42.8201 3.12793 42.8201 6.90479V6.92139C42.8201 10.748 44.9368 13.1885 48.2488 13.1885ZM59.0698 13.064C61.6181 13.064 63.1953 11.3042 63.1953 8.44043V8.42383C63.1953 5.55176 61.6181 3.80029 59.0698 3.80029C56.5214 3.80029 54.9443 5.55176 54.9443 8.42383V8.44043C54.9443 11.3042 56.5214 13.064 59.0698 13.064ZM59.0698 11.7856C57.3764 11.7856 56.4218 10.5488 56.4218 8.44043V8.42383C56.4218 6.30713 57.3764 5.07861 59.0698 5.07861C60.7631 5.07861 61.7177 6.30713 61.7177 8.42383V8.44043C61.7177 10.5488 60.7631 11.7856 59.0698 11.7856ZM67.4835 13.064C68.6871 13.064 69.6251 12.541 70.1896 11.5864H70.3224V12.9062H71.7667V6.78027C71.7667 4.9209 70.5465 3.80029 68.3634 3.80029C66.4542 3.80029 65.0929 4.74658 64.8605 6.14941L64.8522 6.19922H66.2965L66.3048 6.17432C66.5372 5.47705 67.2428 5.07861 68.3136 5.07861C69.65 5.07861 70.3224 5.67627 70.3224 6.78027V7.59375L67.7574 7.75146C65.6739 7.87598 64.4952 8.79736 64.4952 10.3911V10.4077C64.4952 12.0347 65.7819 13.064 67.4835 13.064ZM65.9728 10.3745V10.3579C65.9728 9.46973 66.5704 8.98828 67.9318 8.90527L70.3224 8.75586V9.56934C70.3224 10.8477 69.2516 11.8105 67.7823 11.8105C66.7447 11.8105 65.9728 11.2793 65.9728 10.3745ZM74.0794 12.9062H75.5237V0.405273H74.0794V12.9062ZM79.0649 6.56445C79.6625 6.56445 80.144 6.07471 80.144 5.48535C80.144 4.8877 79.6625 4.40625 79.0649 4.40625C78.4755 4.40625 77.9858 4.8877 77.9858 5.48535C77.9858 6.07471 78.4755 6.56445 79.0649 6.56445ZM79.0649 12.9893C79.6625 12.9893 80.144 12.4995 80.144 11.9102C80.144 11.3125 79.6625 10.8311 79.0649 10.8311C78.4755 10.8311 77.9858 11.3125 77.9858 11.9102C77.9858 12.4995 78.4755 12.9893 79.0649 12.9893Z" fill="url(#paint0_linear_3_1190)"/>
<defs>
<linearGradient id="paint0_linear_3_1190" x1="39.145" y1="-14.0163" x2="28.6038" y2="25.753" gradientUnits="userSpaceOnUse">
<stop stop-color="#CDDDF4"/>
<stop offset="1" stop-color="#CDBAFA"/>
</linearGradient>
</defs>
</svg>
