<svg width="195" height="13" viewBox="0 0 195 13" fill="none" xmlns="http://www.w3.org/2000/svg">
<path d="M5.25391 12.1699C8.07373 12.1699 9.87549 10.4194 9.87549 7.6875V6.36914H5.48828V7.81201H8.02246L8.01514 8.03174C7.99316 9.5332 6.89453 10.5366 5.2832 10.5366C3.40088 10.5366 2.21436 9.03516 2.21436 6.61084V6.59619C2.21436 4.2085 3.37891 2.70703 5.22461 2.70703C6.57959 2.70703 7.54639 3.38086 7.89062 4.53809L7.9126 4.61133H9.7876L9.78027 4.53809C9.42139 2.47266 7.66357 1.07373 5.22461 1.07373C2.21436 1.07373 0.288086 3.23438 0.288086 6.61084V6.62549C0.288086 10.0386 2.19238 12.1699 5.25391 12.1699ZM15.0701 12.0674C17.2454 12.0674 18.3147 10.8149 18.571 9.78223L18.593 9.71631H16.8572L16.8352 9.76758C16.6594 10.1338 16.0954 10.6318 15.1067 10.6318C13.8689 10.6318 13.0925 9.79688 13.0705 8.36133H18.6663V7.76074C18.6663 5.34375 17.26 3.74707 14.9822 3.74707C12.7043 3.74707 11.2468 5.39502 11.2468 7.91455V7.92188C11.2468 10.4707 12.6897 12.0674 15.0701 12.0674ZM15.0041 5.17529C16.0222 5.17529 16.762 5.82715 16.8865 7.13818H13.0852C13.2244 5.86377 13.9861 5.17529 15.0041 5.17529ZM20.25 11.9062H22.0737V7.24072C22.0737 6.03955 22.7475 5.27783 23.8315 5.27783C24.9375 5.27783 25.4429 5.90771 25.4429 7.15283V11.9062H27.2666V6.72803C27.2666 4.82373 26.2925 3.74707 24.5054 3.74707C23.3481 3.74707 22.5791 4.26709 22.1982 5.12402H22.0737V3.90088H20.25V11.9062ZM32.6076 12.0674C34.7829 12.0674 35.8523 10.8149 36.1086 9.78223L36.1306 9.71631H34.3947L34.3728 9.76758C34.197 10.1338 33.633 10.6318 32.6443 10.6318C31.4065 10.6318 30.6301 9.79688 30.6081 8.36133H36.2038V7.76074C36.2038 5.34375 34.7976 3.74707 32.5197 3.74707C30.2419 3.74707 28.7844 5.39502 28.7844 7.91455V7.92188C28.7844 10.4707 30.2273 12.0674 32.6076 12.0674ZM32.5417 5.17529C33.5598 5.17529 34.2995 5.82715 34.424 7.13818H30.6228C30.7619 5.86377 31.5237 5.17529 32.5417 5.17529ZM37.7876 11.9062H39.6113V7.25537C39.6113 6.11279 40.4096 5.3877 41.6255 5.3877C41.9404 5.3877 42.2407 5.43164 42.5337 5.49023V3.85693C42.3579 3.80566 42.0722 3.76904 41.7939 3.76904C40.7392 3.76904 40.0068 4.27441 39.7358 5.13135H39.6113V3.90088H37.7876V11.9062ZM45.8679 12.0381C46.9226 12.0381 47.7722 11.584 48.2116 10.8076H48.3361V11.9062H50.1379V6.43506C50.1379 4.74316 48.9807 3.74707 46.9226 3.74707C45.0183 3.74707 43.7292 4.64062 43.5534 5.98828L43.5461 6.0542H45.2673L45.2746 6.0249C45.4577 5.49756 45.9997 5.19727 46.8347 5.19727C47.8161 5.19727 48.3361 5.63672 48.3361 6.43506V7.12354L46.278 7.24805C44.3298 7.36523 43.2385 8.2002 43.2385 9.62842V9.64307C43.2385 11.1006 44.3444 12.0381 45.8679 12.0381ZM45.0402 9.55518V9.54053C45.0402 8.88135 45.5163 8.50781 46.5344 8.44189L48.3361 8.32471V8.96924C48.3361 9.92139 47.5231 10.6392 46.4245 10.6392C45.6188 10.6392 45.0402 10.2363 45.0402 9.55518ZM55.2372 11.9429C55.5888 11.9429 55.9257 11.9136 56.1894 11.8623V10.4561C55.9697 10.478 55.8305 10.4854 55.5742 10.4854C54.8124 10.4854 54.4975 10.1484 54.4975 9.3501V5.31445H56.1894V3.90088H54.4975V1.93799H52.6445V3.90088H51.3994V5.31445H52.6445V9.78223C52.6445 11.3276 53.3989 11.9429 55.2372 11.9429ZM61.1203 12.0674C63.2956 12.0674 64.3649 10.8149 64.6213 9.78223L64.6432 9.71631H62.9074L62.8854 9.76758C62.7096 10.1338 62.1457 10.6318 61.1569 10.6318C59.9191 10.6318 59.1428 9.79688 59.1208 8.36133H64.7165V7.76074C64.7165 5.34375 63.3102 3.74707 61.0324 3.74707C58.7546 3.74707 57.2971 5.39502 57.2971 7.91455V7.92188C57.2971 10.4707 58.7399 12.0674 61.1203 12.0674ZM61.0544 5.17529C62.0724 5.17529 62.8122 5.82715 62.9367 7.13818H59.1354C59.2746 5.86377 60.0363 5.17529 61.0544 5.17529ZM73.4943 12.0674C75.5231 12.0674 76.7023 10.9761 76.966 9.33545L76.9806 9.27686L75.2594 9.28418L75.2448 9.31348C75.0177 10.1558 74.4391 10.5879 73.4943 10.5879C72.2565 10.5879 71.5168 9.5918 71.5168 7.89258V7.87793C71.5168 6.20068 72.2492 5.21924 73.4943 5.21924C74.4904 5.21924 75.0836 5.77588 75.2521 6.55225L75.2594 6.57422H76.9806V6.54492C76.7755 4.88965 75.5451 3.74707 73.487 3.74707C71.0773 3.74707 69.6637 5.29248 69.6637 7.87793V7.89258C69.6637 10.5073 71.0846 12.0674 73.4943 12.0674ZM81.9335 12.0674C84.3285 12.0674 85.786 10.5 85.786 7.90723V7.89258C85.786 5.31445 84.3212 3.74707 81.9335 3.74707C79.5531 3.74707 78.081 5.32178 78.081 7.89258V7.90723C78.081 10.5 79.5312 12.0674 81.9335 12.0674ZM81.9335 10.5879C80.6664 10.5879 79.9413 9.59912 79.9413 7.91455V7.8999C79.9413 6.21533 80.6664 5.21924 81.9335 5.21924C83.1933 5.21924 83.9184 6.21533 83.9184 7.8999V7.91455C83.9184 9.59912 83.2006 10.5879 81.9335 10.5879ZM87.3771 11.9062H89.2008V7.24072C89.2008 6.03955 89.8746 5.27783 90.9586 5.27783C92.0646 5.27783 92.57 5.90771 92.57 7.15283V11.9062H94.3937V6.72803C94.3937 4.82373 93.4196 3.74707 91.6325 3.74707C90.4752 3.74707 89.7062 4.26709 89.3253 5.12402H89.2008V3.90088H87.3771V11.9062ZM99.4564 11.9429C99.808 11.9429 100.145 11.9136 100.409 11.8623V10.4561C100.189 10.478 100.05 10.4854 99.7933 10.4854C99.0316 10.4854 98.7167 10.1484 98.7167 9.3501V5.31445H100.409V3.90088H98.7167V1.93799H96.8637V3.90088H95.6185V5.31445H96.8637V9.78223C96.8637 11.3276 97.618 11.9429 99.4564 11.9429ZM104.168 12.0381C105.222 12.0381 106.072 11.584 106.511 10.8076H106.636V11.9062H108.438V6.43506C108.438 4.74316 107.28 3.74707 105.222 3.74707C103.318 3.74707 102.029 4.64062 101.853 5.98828L101.846 6.0542H103.567L103.574 6.0249C103.757 5.49756 104.299 5.19727 105.134 5.19727C106.116 5.19727 106.636 5.63672 106.636 6.43506V7.12354L104.578 7.24805C102.63 7.36523 101.538 8.2002 101.538 9.62842V9.64307C101.538 11.1006 102.644 12.0381 104.168 12.0381ZM103.34 9.55518V9.54053C103.34 8.88135 103.816 8.50781 104.834 8.44189L106.636 8.32471V8.96924C106.636 9.92139 105.823 10.6392 104.724 10.6392C103.919 10.6392 103.34 10.2363 103.34 9.55518ZM113.823 12.0674C115.851 12.0674 117.031 10.9761 117.294 9.33545L117.309 9.27686L115.588 9.28418L115.573 9.31348C115.346 10.1558 114.767 10.5879 113.823 10.5879C112.585 10.5879 111.845 9.5918 111.845 7.89258V7.87793C111.845 6.20068 112.577 5.21924 113.823 5.21924C114.819 5.21924 115.412 5.77588 115.58 6.55225L115.588 6.57422H117.309V6.54492C117.104 4.88965 115.873 3.74707 113.815 3.74707C111.406 3.74707 109.992 5.29248 109.992 7.87793V7.89258C109.992 10.5073 111.413 12.0674 113.823 12.0674ZM122.057 11.9429C122.408 11.9429 122.745 11.9136 123.009 11.8623V10.4561C122.789 10.478 122.65 10.4854 122.394 10.4854C121.632 10.4854 121.317 10.1484 121.317 9.3501V5.31445H123.009V3.90088H121.317V1.93799H119.464V3.90088H118.219V5.31445H119.464V9.78223C119.464 11.3276 120.218 11.9429 122.057 11.9429ZM124.659 11.9062H126.482V0.802734H124.659V11.9062ZM131.977 12.0674C134.152 12.0674 135.222 10.8149 135.478 9.78223L135.5 9.71631H133.764L133.742 9.76758C133.566 10.1338 133.003 10.6318 132.014 10.6318C130.776 10.6318 130 9.79688 129.978 8.36133H135.573V7.76074C135.573 5.34375 134.167 3.74707 131.889 3.74707C129.611 3.74707 128.154 5.39502 128.154 7.91455V7.92188C128.154 10.4707 129.597 12.0674 131.977 12.0674ZM131.911 5.17529C132.929 5.17529 133.669 5.82715 133.794 7.13818H129.992C130.131 5.86377 130.893 5.17529 131.911 5.17529ZM140.182 12.0674C142.152 12.0674 143.58 11.0493 143.58 9.52588V9.51123C143.58 8.34668 142.841 7.68018 141.273 7.32861L139.977 7.04297C139.113 6.84521 138.776 6.55957 138.776 6.09082V6.0835C138.776 5.48291 139.362 5.0874 140.175 5.0874C141.032 5.0874 141.559 5.49756 141.691 6.00293L141.698 6.0249H143.412V6.01025C143.295 4.71387 142.13 3.74707 140.182 3.74707C138.292 3.74707 136.974 4.74316 136.974 6.18604V6.19336C136.974 7.37256 137.699 8.09033 139.222 8.42725L140.519 8.72021C141.398 8.91797 141.749 9.22559 141.749 9.69434V9.70898C141.749 10.3096 141.119 10.7197 140.211 10.7197C139.303 10.7197 138.768 10.3315 138.578 9.7749L138.571 9.76025H136.762V9.7749C136.915 11.1299 138.146 12.0674 140.182 12.0674ZM148.057 12.0674C150.027 12.0674 151.456 11.0493 151.456 9.52588V9.51123C151.456 8.34668 150.716 7.68018 149.148 7.32861L147.852 7.04297C146.988 6.84521 146.651 6.55957 146.651 6.09082V6.0835C146.651 5.48291 147.237 5.0874 148.05 5.0874C148.907 5.0874 149.434 5.49756 149.566 6.00293L149.573 6.0249H151.287V6.01025C151.17 4.71387 150.005 3.74707 148.057 3.74707C146.168 3.74707 144.849 4.74316 144.849 6.18604V6.19336C144.849 7.37256 145.574 8.09033 147.098 8.42725L148.394 8.72021C149.273 8.91797 149.625 9.22559 149.625 9.69434V9.70898C149.625 10.3096 148.995 10.7197 148.086 10.7197C147.178 10.7197 146.644 10.3315 146.453 9.7749L146.446 9.76025H144.637V9.7749C144.791 11.1299 146.021 12.0674 148.057 12.0674ZM160.27 12.0674C162.665 12.0674 164.123 10.5 164.123 7.90723V7.89258C164.123 5.31445 162.658 3.74707 160.27 3.74707C157.89 3.74707 156.418 5.32178 156.418 7.89258V7.90723C156.418 10.5 157.868 12.0674 160.27 12.0674ZM160.27 10.5879C159.003 10.5879 158.278 9.59912 158.278 7.91455V7.8999C158.278 6.21533 159.003 5.21924 160.27 5.21924C161.53 5.21924 162.255 6.21533 162.255 7.8999V7.91455C162.255 9.59912 161.537 10.5879 160.27 10.5879ZM165.714 11.9062H167.537V7.25537C167.537 6.11279 168.336 5.3877 169.552 5.3877C169.866 5.3877 170.167 5.43164 170.46 5.49023V3.85693C170.284 3.80566 169.998 3.76904 169.72 3.76904C168.665 3.76904 167.933 4.27441 167.662 5.13135H167.537V3.90088H165.714V11.9062ZM174.395 12.0381C175.522 12.0381 176.387 11.5254 176.826 10.6538H176.951V11.9062H178.782V0.802734H176.951V5.17529H176.826C176.409 4.31104 175.493 3.76904 174.395 3.76904C172.366 3.76904 171.113 5.35107 171.113 7.8999V7.91455C171.113 10.4487 172.388 12.0381 174.395 12.0381ZM174.966 10.5C173.721 10.5 172.966 9.52588 172.966 7.91455V7.8999C172.966 6.28857 173.728 5.30713 174.966 5.30713C176.204 5.30713 176.98 6.2959 176.98 7.8999V7.91455C176.98 9.51855 176.211 10.5 174.966 10.5ZM184.262 12.0674C186.437 12.0674 187.507 10.8149 187.763 9.78223L187.785 9.71631H186.049L186.027 9.76758C185.851 10.1338 185.287 10.6318 184.299 10.6318C183.061 10.6318 182.284 9.79688 182.262 8.36133H187.858V7.76074C187.858 5.34375 186.452 3.74707 184.174 3.74707C181.896 3.74707 180.439 5.39502 180.439 7.91455V7.92188C180.439 10.4707 181.882 12.0674 184.262 12.0674ZM184.196 5.17529C185.214 5.17529 185.954 5.82715 186.078 7.13818H182.277C182.416 5.86377 183.178 5.17529 184.196 5.17529ZM189.442 11.9062H191.266V7.25537C191.266 6.11279 192.064 5.3877 193.28 5.3877C193.595 5.3877 193.895 5.43164 194.188 5.49023V3.85693C194.012 3.80566 193.727 3.76904 193.448 3.76904C192.394 3.76904 191.661 4.27441 191.39 5.13135H191.266V3.90088H189.442V11.9062Z" fill="url(#paint0_linear_3_1353)"/>
<defs>
<linearGradient id="paint0_linear_3_1353" x1="97" y1="-11.0938" x2="93.7215" y2="24.6052" gradientUnits="userSpaceOnUse">
<stop stop-color="#BD7AE3"/>
<stop offset="1" stop-color="#8461C9"/>
</linearGradient>
</defs>
</svg>
