<svg width="36" height="16" viewBox="0 0 36 16" fill="none" xmlns="http://www.w3.org/2000/svg">
<path d="M0.477539 12.9062H2.61914V7.70996H8.44629V12.9062H10.5796V0.928223H8.44629V5.90869H2.61914V0.928223H0.477539V12.9062ZM16.8019 13.0889C19.2672 13.0889 20.4792 11.6694 20.7697 10.499L20.7946 10.4243H18.8273L18.8024 10.4824C18.6032 10.8975 17.964 11.4619 16.8434 11.4619C15.4406 11.4619 14.5607 10.5156 14.5358 8.88867H20.8776V8.20801C20.8776 5.46875 19.2838 3.65918 16.7023 3.65918C14.1208 3.65918 12.4689 5.52686 12.4689 8.38232V8.39062C12.4689 11.2793 14.1042 13.0889 16.8019 13.0889ZM16.7272 5.27783C17.881 5.27783 18.7194 6.0166 18.8605 7.50244H14.5524C14.7101 6.05811 15.5734 5.27783 16.7272 5.27783ZM22.6175 12.9062H24.6844V0.322266H22.6175V12.9062ZM26.8891 15.9194H28.956V11.4619H29.0971C29.5703 12.4414 30.6079 13.0557 31.853 13.0557C34.1523 13.0557 35.5801 11.271 35.5801 8.38232V8.36572C35.5801 5.49365 34.1274 3.68408 31.853 3.68408C30.583 3.68408 29.5952 4.26514 29.0971 5.25293H28.956V3.8335H26.8891V15.9194ZM31.2055 11.3125C29.8027 11.3125 28.9311 10.1919 28.9311 8.37402V8.35742C28.9311 6.53955 29.8027 5.42725 31.2055 5.42725C32.6167 5.42725 33.4717 6.53955 33.4717 8.36572V8.38232C33.4717 10.2002 32.6167 11.3125 31.2055 11.3125Z" fill="url(#paint0_linear_3_1438)"/>
<defs>
<linearGradient id="paint0_linear_3_1438" x1="17.3797" y1="-14.0163" x2="-1.07626" y2="17.8621" gradientUnits="userSpaceOnUse">
<stop stop-color="#CDDDF4"/>
<stop offset="1" stop-color="#CDBAFA"/>
</linearGradient>
</defs>
</svg>
