<svg width="169" height="32" viewBox="0 0 169 32" fill="none" xmlns="http://www.w3.org/2000/svg">
<path d="M2.556 25.238C1.37733 25.238 0.788 24.6373 0.788 23.436V2.594C0.788 1.39267 1.37733 0.792 2.556 0.792C3.73467 0.792 4.324 1.39267 4.324 2.594V11.366H17.754V2.594C17.754 1.39267 18.3433 0.792 19.522 0.792C20.678 0.792 21.256 1.39267 21.256 2.594V23.436C21.256 24.6373 20.678 25.238 19.522 25.238C18.3433 25.238 17.754 24.6373 17.754 23.436V14.324H4.324V23.436C4.324 24.6373 3.73467 25.238 2.556 25.238ZM34.2645 25.306C31.5445 25.306 29.4025 24.5467 27.8385 23.028C26.2745 21.4867 25.4925 19.39 25.4925 16.738C25.4925 15.038 25.8325 13.542 26.5125 12.25C27.2151 10.9353 28.1785 9.91533 29.4025 9.19C30.6265 8.46467 32.0318 8.102 33.6185 8.102C35.9078 8.102 37.7098 8.83867 39.0245 10.312C40.3391 11.7627 40.9965 13.7687 40.9965 16.33C40.9965 17.1007 40.5431 17.486 39.6365 17.486H28.8245C29.0738 20.9313 30.8985 22.654 34.2985 22.654C34.9785 22.654 35.6925 22.5747 36.4405 22.416C37.1885 22.2347 37.9138 21.9173 38.6165 21.464C39.0925 21.192 39.5005 21.1013 39.8405 21.192C40.2031 21.26 40.4638 21.4527 40.6225 21.77C40.7811 22.0647 40.8038 22.4047 40.6905 22.79C40.5998 23.1527 40.3391 23.47 39.9085 23.742C39.1378 24.2633 38.2311 24.66 37.1885 24.932C36.1685 25.1813 35.1938 25.306 34.2645 25.306ZM33.7545 10.516C32.3265 10.516 31.1931 10.958 30.3545 11.842C29.5158 12.726 29.0058 13.9047 28.8245 15.378H38.1065C38.0385 13.8367 37.6305 12.6467 36.8825 11.808C36.1345 10.9467 35.0918 10.516 33.7545 10.516ZM48.4178 31.358C47.7831 31.358 47.3411 31.12 47.0917 30.644C46.8651 30.1907 46.8878 29.658 47.1598 29.046L49.1658 24.558L43.1138 10.516C42.8418 9.904 42.8304 9.36 43.0798 8.884C43.3518 8.408 43.8731 8.17 44.6438 8.17C45.0518 8.17 45.3804 8.272 45.6298 8.476C45.9018 8.68 46.1398 9.03133 46.3438 9.53L51.0018 21.022L55.7278 9.53C55.9318 9.00867 56.1698 8.65733 56.4418 8.476C56.7138 8.272 57.0878 8.17 57.5638 8.17C58.1758 8.17 58.5951 8.408 58.8218 8.884C59.0484 9.36 59.0371 9.89267 58.7878 10.482L50.2878 30.032C50.0611 30.5533 49.8004 30.9047 49.5058 31.086C49.2338 31.2673 48.8711 31.358 48.4178 31.358ZM62.5517 28.434C62.2117 28.842 61.849 29.0233 61.4637 28.978C61.101 28.9327 60.8517 28.74 60.7157 28.4C60.5797 28.0827 60.693 27.686 61.0557 27.21C61.3277 26.87 61.5317 26.5187 61.6677 26.156C61.8263 25.816 61.9397 25.476 62.0077 25.136C61.3957 25.0907 60.897 24.8753 60.5117 24.49C60.149 24.082 59.9677 23.572 59.9677 22.96C59.9677 22.3253 60.1603 21.8153 60.5457 21.43C60.931 21.022 61.4523 20.818 62.1097 20.818C62.7897 20.818 63.3223 21.056 63.7077 21.532C64.1157 21.9853 64.3197 22.6427 64.3197 23.504C64.3197 24.252 64.195 25.0453 63.9457 25.884C63.719 26.7227 63.2543 27.5727 62.5517 28.434ZM79.7209 25C78.5195 25 77.9189 24.3993 77.9189 23.198V2.696C77.9189 1.49467 78.5082 0.893998 79.6869 0.893998C80.8655 0.893998 81.4549 1.49467 81.4549 2.696V21.974H91.9949C93.0375 21.974 93.5589 22.4727 93.5589 23.47C93.5589 24.49 93.0375 25 91.9949 25H79.7209ZM103.347 25.306C101.669 25.306 100.219 24.9547 98.9946 24.252C97.7706 23.5493 96.8186 22.5633 96.1386 21.294C95.4813 20.002 95.1526 18.472 95.1526 16.704C95.1526 14.936 95.4813 13.4173 96.1386 12.148C96.8186 10.856 97.7706 9.85867 98.9946 9.156C100.219 8.45333 101.669 8.102 103.347 8.102C104.979 8.102 106.407 8.45333 107.631 9.156C108.855 9.85867 109.807 10.856 110.487 12.148C111.167 13.4173 111.507 14.936 111.507 16.704C111.507 18.472 111.167 20.002 110.487 21.294C109.807 22.5633 108.855 23.5493 107.631 24.252C106.407 24.9547 104.979 25.306 103.347 25.306ZM103.347 22.654C104.752 22.654 105.885 22.144 106.747 21.124C107.608 20.104 108.039 18.6307 108.039 16.704C108.039 14.7773 107.608 13.3153 106.747 12.318C105.885 11.298 104.752 10.788 103.347 10.788C101.919 10.788 100.774 11.298 99.9126 12.318C99.0513 13.3153 98.6206 14.7773 98.6206 16.704C98.6206 18.6307 99.0513 20.104 99.9126 21.124C100.774 22.144 101.919 22.654 103.347 22.654ZM122.877 31.426C121.653 31.426 120.463 31.3013 119.307 31.052C118.174 30.8027 117.143 30.3947 116.213 29.828C115.805 29.6013 115.556 29.318 115.465 28.978C115.375 28.638 115.409 28.3093 115.567 27.992C115.749 27.6747 115.987 27.4367 116.281 27.278C116.599 27.142 116.939 27.176 117.301 27.38C118.299 27.924 119.239 28.2867 120.123 28.468C121.03 28.672 121.869 28.774 122.639 28.774C125.813 28.774 127.399 27.1873 127.399 24.014V21.396C126.923 22.3933 126.175 23.1753 125.155 23.742C124.158 24.3087 123.036 24.592 121.789 24.592C120.293 24.592 118.99 24.252 117.879 23.572C116.769 22.8693 115.907 21.906 115.295 20.682C114.683 19.4353 114.377 17.9847 114.377 16.33C114.377 14.698 114.683 13.27 115.295 12.046C115.907 10.7993 116.769 9.836 117.879 9.156C118.99 8.45333 120.293 8.102 121.789 8.102C123.036 8.102 124.147 8.38533 125.121 8.952C126.119 9.496 126.855 10.244 127.331 11.196V9.904C127.331 8.748 127.898 8.17 129.031 8.17C130.165 8.17 130.731 8.748 130.731 9.904V23.606C130.731 26.2127 130.063 28.162 128.725 29.454C127.388 30.7687 125.439 31.426 122.877 31.426ZM122.605 21.906C124.056 21.906 125.212 21.4073 126.073 20.41C126.935 19.4127 127.365 18.0527 127.365 16.33C127.365 14.6073 126.935 13.2587 126.073 12.284C125.212 11.2867 124.056 10.788 122.605 10.788C121.155 10.788 119.999 11.2867 119.137 12.284C118.276 13.2587 117.845 14.6073 117.845 16.33C117.845 18.0527 118.276 19.4127 119.137 20.41C119.999 21.4073 121.155 21.906 122.605 21.906ZM140.855 25.306C139.699 25.306 138.667 25.0793 137.761 24.626C136.854 24.1727 136.129 23.5607 135.585 22.79C135.063 22.0193 134.803 21.1467 134.803 20.172C134.803 18.948 135.109 17.9847 135.721 17.282C136.355 16.5793 137.387 16.0693 138.815 15.752C140.265 15.4347 142.215 15.276 144.663 15.276H145.819V14.392C145.819 13.1 145.547 12.1707 145.003 11.604C144.459 11.0373 143.563 10.754 142.317 10.754C141.591 10.754 140.832 10.8447 140.039 11.026C139.268 11.2073 138.463 11.5133 137.625 11.944C137.149 12.1707 136.752 12.2047 136.435 12.046C136.14 11.8873 135.936 11.638 135.823 11.298C135.709 10.958 135.721 10.6067 135.857 10.244C135.993 9.88133 136.276 9.60933 136.707 9.428C137.704 8.97467 138.69 8.646 139.665 8.442C140.639 8.21533 141.557 8.102 142.419 8.102C144.685 8.102 146.363 8.646 147.451 9.734C148.539 10.7993 149.083 12.4767 149.083 14.766V23.504C149.083 24.66 148.55 25.238 147.485 25.238C146.397 25.238 145.853 24.66 145.853 23.504V22.246C145.445 23.198 144.81 23.946 143.949 24.49C143.087 25.034 142.056 25.306 140.855 25.306ZM141.535 22.858C142.759 22.858 143.779 22.4273 144.595 21.566C145.411 20.7047 145.819 19.6167 145.819 18.302V17.384H144.697C143.042 17.384 141.739 17.4633 140.787 17.622C139.857 17.7807 139.189 18.0527 138.781 18.438C138.395 18.8007 138.203 19.3107 138.203 19.968C138.203 20.8293 138.497 21.532 139.087 22.076C139.676 22.5973 140.492 22.858 141.535 22.858ZM155.512 25.238C154.379 25.238 153.812 24.66 153.812 23.504V9.904C153.812 8.748 154.368 8.17 155.478 8.17C156.589 8.17 157.144 8.748 157.144 9.904V11.162C157.711 10.1647 158.482 9.40533 159.456 8.884C160.454 8.36267 161.564 8.102 162.788 8.102C166.71 8.102 168.67 10.3233 168.67 14.766V23.504C168.67 24.66 168.104 25.238 166.97 25.238C165.814 25.238 165.236 24.66 165.236 23.504V14.97C165.236 13.542 164.953 12.4993 164.386 11.842C163.842 11.1847 162.981 10.856 161.802 10.856C160.42 10.856 159.309 11.298 158.47 12.182C157.654 13.0433 157.246 14.188 157.246 15.616V23.504C157.246 24.66 156.668 25.238 155.512 25.238Z" fill="url(#paint0_linear_3_916)"/>
<defs>
<linearGradient id="paint0_linear_3_916" x1="140.684" y1="-35.4146" x2="115.79" y2="81.1551" gradientUnits="userSpaceOnUse">
<stop stop-color="#CDDDF4"/>
<stop offset="1" stop-color="#CDBAFA"/>
</linearGradient>
</defs>
</svg>
