<svg width="54" height="17" viewBox="0 0 54 17" fill="none" xmlns="http://www.w3.org/2000/svg">
<path d="M0.527344 13.5625H2.02148V8.10889H8.5957V13.5625H10.0898V1.58447H8.5957V6.76416H2.02148V1.58447H0.527344V13.5625ZM13.3156 2.8877C13.8634 2.8877 14.3117 2.43945 14.3117 1.8916C14.3117 1.34375 13.8634 0.895508 13.3156 0.895508C12.7677 0.895508 12.3195 1.34375 12.3195 1.8916C12.3195 2.43945 12.7677 2.8877 13.3156 2.8877ZM12.5851 13.5625H14.0295V4.61426H12.5851V13.5625ZM19.4134 13.7202C21.4471 13.7202 22.9993 12.6162 22.9993 11.0225V11.0059C22.9993 9.72754 22.1859 8.99707 20.5008 8.59033L19.1229 8.2583C18.0687 8.00098 17.6204 7.61914 17.6204 7.01318V6.99658C17.6204 6.20801 18.4007 5.66016 19.4632 5.66016C20.5423 5.66016 21.2396 6.1499 21.4305 6.85547H22.8499C22.6507 5.39453 21.3475 4.45654 19.4715 4.45654C17.5706 4.45654 16.1429 5.57715 16.1429 7.06299V7.07129C16.1429 8.35791 16.8983 9.08838 18.575 9.48682L19.9613 9.81885C21.0653 10.0845 21.5218 10.5078 21.5218 11.1138V11.1304C21.5218 11.9438 20.6668 12.5166 19.4632 12.5166C18.3177 12.5166 17.6038 12.0269 17.3631 11.2798H15.8856C16.0516 12.7573 17.4212 13.7202 19.4134 13.7202ZM27.9267 13.6289C28.209 13.6289 28.4829 13.5957 28.7651 13.5459V12.3174C28.4995 12.3423 28.3584 12.3506 28.1011 12.3506C27.1714 12.3506 26.8061 11.9272 26.8061 10.873V5.80957H28.7651V4.61426H26.8061V2.29834H25.312V4.61426H23.9009V5.80957H25.312V11.2383C25.312 12.9482 26.084 13.6289 27.9267 13.6289ZM34.0578 13.7202C36.6061 13.7202 38.1832 11.9604 38.1832 9.09668V9.08008C38.1832 6.20801 36.6061 4.45654 34.0578 4.45654C31.5094 4.45654 29.9323 6.20801 29.9323 9.08008V9.09668C29.9323 11.9604 31.5094 13.7202 34.0578 13.7202ZM34.0578 12.4419C32.3644 12.4419 31.4098 11.2051 31.4098 9.09668V9.08008C31.4098 6.96338 32.3644 5.73486 34.0578 5.73486C35.7511 5.73486 36.7057 6.96338 36.7057 9.08008V9.09668C36.7057 11.2051 35.7511 12.4419 34.0578 12.4419ZM40.0145 13.5625H41.4588V8.01758C41.4588 6.70605 42.4383 5.83447 43.8162 5.83447C44.1316 5.83447 44.4056 5.86768 44.7044 5.91748V4.51465C44.5633 4.48975 44.2562 4.45654 43.9822 4.45654C42.7703 4.45654 41.9319 5.00439 41.5916 5.94238H41.4588V4.61426H40.0145V13.5625ZM46.9257 16.7002C48.5112 16.7002 49.25 16.1191 49.9887 14.1104L53.4834 4.61426H51.9643L49.5156 11.9771H49.3828L46.9257 4.61426H45.3818L48.6938 13.5708L48.5278 14.1021C48.2041 15.1313 47.706 15.5049 46.8842 15.5049C46.685 15.5049 46.4609 15.4966 46.2866 15.4634V16.6504C46.4858 16.6836 46.7348 16.7002 46.9257 16.7002Z" fill="url(#paint0_linear_3_918)"/>
<defs>
<linearGradient id="paint0_linear_3_918" x1="26.0858" y1="-13.3601" x2="11.6001" y2="23.5126" gradientUnits="userSpaceOnUse">
<stop stop-color="#CDDDF4"/>
<stop offset="1" stop-color="#CDBAFA"/>
</linearGradient>
</defs>
</svg>
