<svg width="58" height="18" viewBox="0 0 58 18" fill="none" xmlns="http://www.w3.org/2000/svg">
<path d="M0.477539 13.9062H2.61914V8.70996H8.44629V13.9062H10.5796V1.92822H8.44629V6.90869H2.61914V1.92822H0.477539V13.9062ZM13.9796 3.31445C14.652 3.31445 15.2082 2.7749 15.2082 2.09424C15.2082 1.42188 14.652 0.874023 13.9796 0.874023C13.299 0.874023 12.7428 1.42188 12.7428 2.09424C12.7428 2.7749 13.299 3.31445 13.9796 3.31445ZM12.9421 13.9062H15.0089V4.8335H12.9421V13.9062ZM20.5672 14.0889C22.8001 14.0889 24.4188 12.9351 24.4188 11.2085V11.1919C24.4188 9.87207 23.5804 9.1167 21.804 8.71826L20.3348 8.39453C19.3553 8.17041 18.9735 7.84668 18.9735 7.31543V7.30713C18.9735 6.62646 19.6375 6.17822 20.5589 6.17822C21.5301 6.17822 22.1278 6.64307 22.2772 7.21582L22.2855 7.24072H24.2279V7.22412C24.095 5.75488 22.7752 4.65918 20.5672 4.65918C18.4256 4.65918 16.9315 5.78809 16.9315 7.42334V7.43164C16.9315 8.76807 17.7532 9.58154 19.4798 9.96338L20.949 10.2954C21.9451 10.5195 22.3436 10.8682 22.3436 11.3994V11.416C22.3436 12.0967 21.6297 12.5615 20.6004 12.5615C19.5711 12.5615 18.9652 12.1216 18.7493 11.4907L18.741 11.4741H16.6907V11.4907C16.8651 13.0264 18.2596 14.0889 20.5672 14.0889ZM29.5952 13.9478C29.9936 13.9478 30.3755 13.9146 30.6743 13.8564V12.2627C30.4253 12.2876 30.2676 12.2959 29.977 12.2959C29.1138 12.2959 28.7568 11.9141 28.7568 11.0093V6.43555H30.6743V4.8335H28.7568V2.60889H26.6567V4.8335H25.2456V6.43555H26.6567V11.499C26.6567 13.2505 27.5117 13.9478 29.5952 13.9478ZM36.1579 14.0889C38.8722 14.0889 40.5241 12.3125 40.5241 9.37402V9.35742C40.5241 6.43555 38.8639 4.65918 36.1579 4.65918C33.4601 4.65918 31.7916 6.44385 31.7916 9.35742V9.37402C31.7916 12.3125 33.4352 14.0889 36.1579 14.0889ZM36.1579 12.4121C34.7218 12.4121 33.9 11.2915 33.9 9.38232V9.36572C33.9 7.45654 34.7218 6.32764 36.1579 6.32764C37.5856 6.32764 38.4074 7.45654 38.4074 9.36572V9.38232C38.4074 11.2915 37.5939 12.4121 36.1579 12.4121ZM42.1893 13.9062H44.2562V8.63525C44.2562 7.34033 45.1609 6.51855 46.5389 6.51855C46.8958 6.51855 47.2361 6.56836 47.5682 6.63477V4.78369C47.3689 4.72559 47.0452 4.68408 46.7298 4.68408C45.5345 4.68408 44.7044 5.25684 44.3973 6.22803H44.2562V4.8335H42.1893V13.9062ZM49.9555 17.0938C51.9643 17.0938 53.0019 16.3716 53.7822 14.0972L57.0361 4.8335H54.8613L52.7529 11.9224H52.5952L50.4785 4.8335H48.2207L51.4663 13.9146L51.3584 14.3296C51.1342 15.1514 50.6279 15.5 49.7812 15.5C49.5654 15.5 49.333 15.4917 49.167 15.4751V17.0605C49.416 17.0854 49.7065 17.0938 49.9555 17.0938Z" fill="url(#paint0_linear_3_1432)"/>
<defs>
<linearGradient id="paint0_linear_3_1432" x1="27.5368" y1="-13.0163" x2="13.6031" y2="24.3515" gradientUnits="userSpaceOnUse">
<stop stop-color="#CDDDF4"/>
<stop offset="1" stop-color="#CDBAFA"/>
</linearGradient>
</defs>
</svg>
