<svg width="289" height="31" viewBox="0 0 289 31" fill="none" xmlns="http://www.w3.org/2000/svg">
<path d="M0.167969 9.90625H1.31055V0.746582H0.167969V9.90625ZM8.88199 10.0269C9.8024 10.0269 10.5197 9.62695 10.9513 8.89697H11.0529V9.90625H12.1574V5.22168C12.1574 3.7998 11.2243 2.94287 9.55484 2.94287C8.09488 2.94287 7.05387 3.6665 6.87613 4.73926L6.86979 4.77734H7.97428L7.98063 4.7583C8.15836 4.2251 8.69791 3.92041 9.51676 3.92041C10.5387 3.92041 11.0529 4.37744 11.0529 5.22168V5.84375L9.09146 5.96436C7.4982 6.05957 6.59684 6.76416 6.59684 7.98291V7.99561C6.59684 9.23975 7.58072 10.0269 8.88199 10.0269ZM7.72672 7.97021V7.95752C7.72672 7.27832 8.18375 6.91016 9.22477 6.84668L11.0529 6.73242V7.35449C11.0529 8.33203 10.234 9.06836 9.11051 9.06836C8.31705 9.06836 7.72672 8.66211 7.72672 7.97021ZM16.9143 12.3184C18.7805 12.3184 19.9612 11.3408 19.9612 9.81104V3.06348H18.8567V4.19336H18.7805C18.3616 3.41895 17.6125 2.94287 16.6477 2.94287C14.8577 2.94287 13.7532 4.33301 13.7532 6.25V6.2627C13.7532 8.17969 14.8513 9.55078 16.6223 9.55078C17.5618 9.55078 18.3362 9.12549 18.7678 8.37012H18.8694V9.75391C18.8694 10.7632 18.1394 11.3408 16.9143 11.3408C15.9304 11.3408 15.321 10.9727 15.2004 10.4521L15.1941 10.4458H14.0515L14.0388 10.4521C14.2102 11.5757 15.2639 12.3184 16.9143 12.3184ZM16.8635 8.57324C15.594 8.57324 14.883 7.62109 14.883 6.2627V6.25C14.883 4.8916 15.594 3.92041 16.8635 3.92041C18.1267 3.92041 18.8948 4.8916 18.8948 6.25V6.2627C18.8948 7.62109 18.133 8.57324 16.8635 8.57324ZM21.9378 9.90625H23.0423V5.66602C23.0423 4.66309 23.7913 3.99658 24.845 3.99658C25.0863 3.99658 25.2957 4.02197 25.5242 4.06006V2.9873C25.4163 2.96826 25.1815 2.94287 24.972 2.94287C24.0452 2.94287 23.4041 3.36182 23.1439 4.0791H23.0423V3.06348H21.9378V9.90625ZM29.4115 10.0269C31.0238 10.0269 32.0014 9.11279 32.2362 8.18604L32.2489 8.13525H31.1444L31.119 8.19238C30.935 8.60498 30.3637 9.04297 29.4369 9.04297C28.2182 9.04297 27.4374 8.21777 27.4057 6.80225H32.3314V6.37061C32.3314 4.32666 31.2016 2.94287 29.3417 2.94287C27.4818 2.94287 26.2758 4.39014 26.2758 6.50391V6.51025C26.2758 8.65576 27.4564 10.0269 29.4115 10.0269ZM29.3354 3.92676C30.3446 3.92676 31.0937 4.56787 31.2079 5.91992H27.4247C27.5453 4.61865 28.3197 3.92676 29.3354 3.92676ZM36.7583 10.0269C38.3706 10.0269 39.3481 9.11279 39.583 8.18604L39.5957 8.13525H38.4912L38.4658 8.19238C38.2817 8.60498 37.7104 9.04297 36.7837 9.04297C35.5649 9.04297 34.7842 8.21777 34.7524 6.80225H39.6782V6.37061C39.6782 4.32666 38.5483 2.94287 36.6885 2.94287C34.8286 2.94287 33.6225 4.39014 33.6225 6.50391V6.51025C33.6225 8.65576 34.8032 10.0269 36.7583 10.0269ZM36.6821 3.92676C37.6914 3.92676 38.4404 4.56787 38.5547 5.91992H34.7715C34.8921 4.61865 35.6665 3.92676 36.6821 3.92676ZM47.3195 9.95703C47.5353 9.95703 47.7448 9.93164 47.9606 9.89355V8.9541C47.7575 8.97314 47.6496 8.97949 47.4528 8.97949C46.7418 8.97949 46.4625 8.65576 46.4625 7.84961V3.97754H47.9606V3.06348H46.4625V1.29248H45.32V3.06348H44.2409V3.97754H45.32V8.12891C45.32 9.43652 45.9103 9.95703 47.3195 9.95703ZM52.2414 10.0269C54.1902 10.0269 55.3962 8.68115 55.3962 6.49121V6.47852C55.3962 4.28223 54.1902 2.94287 52.2414 2.94287C50.2927 2.94287 49.0866 4.28223 49.0866 6.47852V6.49121C49.0866 8.68115 50.2927 10.0269 52.2414 10.0269ZM52.2414 9.04932C50.9465 9.04932 50.2165 8.10352 50.2165 6.49121V6.47852C50.2165 4.85986 50.9465 3.92041 52.2414 3.92041C53.5363 3.92041 54.2663 4.85986 54.2663 6.47852V6.49121C54.2663 8.10352 53.5363 9.04932 52.2414 9.04932ZM63.0375 9.95703C63.2533 9.95703 63.4628 9.93164 63.6786 9.89355V8.9541C63.4755 8.97314 63.3676 8.97949 63.1708 8.97949C62.4598 8.97949 62.1805 8.65576 62.1805 7.84961V3.97754H63.6786V3.06348H62.1805V1.29248H61.038V3.06348H59.9589V3.97754H61.038V8.12891C61.038 9.43652 61.6283 9.95703 63.0375 9.95703ZM65.3125 9.90625H66.417V5.85645C66.417 4.65674 67.1088 3.92041 68.2006 3.92041C69.2924 3.92041 69.8003 4.51074 69.8003 5.74219V9.90625H70.9047V5.47559C70.9047 3.85059 70.0478 2.94287 68.5117 2.94287C67.5024 2.94287 66.8613 3.36816 66.5185 4.0918H66.417V0.34668H65.3125V9.90625ZM75.6172 10.0269C77.2295 10.0269 78.2071 9.11279 78.4419 8.18604L78.4546 8.13525H77.3501L77.3247 8.19238C77.1407 8.60498 76.5694 9.04297 75.6426 9.04297C74.4239 9.04297 73.6431 8.21777 73.6114 6.80225H78.5371V6.37061C78.5371 4.32666 77.4073 2.94287 75.5474 2.94287C73.6875 2.94287 72.4815 4.39014 72.4815 6.50391V6.51025C72.4815 8.65576 73.6621 10.0269 75.6172 10.0269ZM75.5411 3.92676C76.5503 3.92676 77.2994 4.56787 77.4136 5.91992H73.6304C73.751 4.61865 74.5254 3.92676 75.5411 3.92676ZM86.2673 9.90625H87.4099V1.7749H90.3615V0.746582H83.3156V1.7749H86.2673V9.90625ZM93.43 10.0269C95.0423 10.0269 96.0198 9.11279 96.2547 8.18604L96.2674 8.13525H95.1629L95.1375 8.19238C94.9534 8.60498 94.3821 9.04297 93.4554 9.04297C92.2366 9.04297 91.4558 8.21777 91.4241 6.80225H96.3499V6.37061C96.3499 4.32666 95.22 2.94287 93.3601 2.94287C91.5003 2.94287 90.2942 4.39014 90.2942 6.50391V6.51025C90.2942 8.65576 91.4749 10.0269 93.43 10.0269ZM93.3538 3.92676C94.3631 3.92676 95.1121 4.56787 95.2263 5.91992H91.4431C91.5638 4.61865 92.3382 3.92676 93.3538 3.92676ZM97.9837 9.90625H99.0882V5.66602C99.0882 4.66309 99.8373 3.99658 100.891 3.99658C101.132 3.99658 101.342 4.02197 101.57 4.06006V2.9873C101.462 2.96826 101.227 2.94287 101.018 2.94287C100.091 2.94287 99.4501 3.36182 99.1898 4.0791H99.0882V3.06348H97.9837V9.90625ZM102.982 9.90625H104.086V5.66602C104.086 4.70117 104.766 3.92041 105.661 3.92041C106.524 3.92041 107.082 4.44727 107.082 5.25977V9.90625H108.187V5.50732C108.187 4.6377 108.815 3.92041 109.768 3.92041C110.732 3.92041 111.196 4.42188 111.196 5.43115V9.90625H112.3V5.17725C112.3 3.74268 111.519 2.94287 110.123 2.94287C109.177 2.94287 108.396 3.41895 108.028 4.14258H107.927C107.609 3.43164 106.962 2.94287 106.035 2.94287C105.14 2.94287 104.493 3.36816 104.188 4.10449H104.086V3.06348H102.982V9.90625ZM116.562 10.0269C118.117 10.0269 119.304 9.18262 119.304 7.96387V7.95117C119.304 6.97363 118.682 6.41504 117.394 6.104L116.34 5.8501C115.534 5.65332 115.191 5.36133 115.191 4.89795V4.88525C115.191 4.28223 115.788 3.86328 116.6 3.86328C117.425 3.86328 117.959 4.23779 118.105 4.77734H119.19C119.038 3.66016 118.041 2.94287 116.606 2.94287C115.153 2.94287 114.061 3.7998 114.061 4.93604V4.94238C114.061 5.92627 114.639 6.48486 115.921 6.78955L116.981 7.04346C117.825 7.24658 118.174 7.57031 118.174 8.03369V8.04639C118.174 8.66846 117.521 9.10645 116.6 9.10645C115.724 9.10645 115.178 8.73193 114.994 8.16064H113.864C113.991 9.29053 115.039 10.0269 116.562 10.0269ZM126.393 10.0269C127.314 10.0269 128.031 9.62695 128.463 8.89697H128.564V9.90625H129.669V5.22168C129.669 3.7998 128.736 2.94287 127.066 2.94287C125.606 2.94287 124.565 3.6665 124.387 4.73926L124.381 4.77734H125.486L125.492 4.7583C125.67 4.2251 126.209 3.92041 127.028 3.92041C128.05 3.92041 128.564 4.37744 128.564 5.22168V5.84375L126.603 5.96436C125.009 6.05957 124.108 6.76416 124.108 7.98291V7.99561C124.108 9.23975 125.092 10.0269 126.393 10.0269ZM125.238 7.97021V7.95752C125.238 7.27832 125.695 6.91016 126.736 6.84668L128.564 6.73242V7.35449C128.564 8.33203 127.745 9.06836 126.622 9.06836C125.828 9.06836 125.238 8.66211 125.238 7.97021ZM131.607 9.90625H132.712V5.85645C132.712 4.65674 133.404 3.92041 134.495 3.92041C135.587 3.92041 136.095 4.51074 136.095 5.74219V9.90625H137.199V5.47559C137.199 3.85059 136.343 2.94287 134.806 2.94287C133.797 2.94287 133.156 3.36816 132.813 4.0918H132.712V3.06348H131.607V9.90625ZM141.645 10.0269C142.598 10.0269 143.359 9.57617 143.778 8.81445H143.88V9.90625H144.984V0.34668H143.88V4.14258H143.778C143.404 3.4126 142.585 2.94287 141.645 2.94287C139.906 2.94287 138.776 4.33301 138.776 6.47852V6.49121C138.776 8.62402 139.912 10.0269 141.645 10.0269ZM141.899 9.04932C140.649 9.04932 139.906 8.08447 139.906 6.49121V6.47852C139.906 4.88525 140.649 3.92041 141.899 3.92041C143.143 3.92041 143.905 4.89795 143.905 6.47852V6.49121C143.905 8.07178 143.143 9.04932 141.899 9.04932ZM154.428 10.1221C156.377 10.1221 157.824 9.03662 158.129 7.36084V7.34814H156.974L156.961 7.36084C156.675 8.41455 155.704 9.06836 154.428 9.06836C152.664 9.06836 151.559 7.62744 151.559 5.33594V5.32324C151.559 3.03174 152.664 1.58447 154.422 1.58447C155.685 1.58447 156.663 2.32715 156.967 3.50146L156.974 3.51416H158.123L158.129 3.50146C157.856 1.74316 156.352 0.530762 154.422 0.530762C151.934 0.530762 150.385 2.37158 150.385 5.32324V5.33594C150.385 8.28125 151.94 10.1221 154.428 10.1221ZM162.638 10.0269C164.587 10.0269 165.793 8.68115 165.793 6.49121V6.47852C165.793 4.28223 164.587 2.94287 162.638 2.94287C160.69 2.94287 159.483 4.28223 159.483 6.47852V6.49121C159.483 8.68115 160.69 10.0269 162.638 10.0269ZM162.638 9.04932C161.343 9.04932 160.613 8.10352 160.613 6.49121V6.47852C160.613 4.85986 161.343 3.92041 162.638 3.92041C163.933 3.92041 164.663 4.85986 164.663 6.47852V6.49121C164.663 8.10352 163.933 9.04932 162.638 9.04932ZM167.427 9.90625H168.531V5.85645C168.531 4.65674 169.223 3.92041 170.315 3.92041C171.407 3.92041 171.915 4.51074 171.915 5.74219V9.90625H173.019V5.47559C173.019 3.85059 172.162 2.94287 170.626 2.94287C169.617 2.94287 168.976 3.36816 168.633 4.0918H168.531V3.06348H167.427V9.90625ZM177.465 10.0269C178.417 10.0269 179.179 9.57617 179.598 8.81445H179.699V9.90625H180.804V0.34668H179.699V4.14258H179.598C179.223 3.4126 178.405 2.94287 177.465 2.94287C175.726 2.94287 174.596 4.33301 174.596 6.47852V6.49121C174.596 8.62402 175.732 10.0269 177.465 10.0269ZM177.719 9.04932C176.468 9.04932 175.726 8.08447 175.726 6.49121V6.47852C175.726 4.88525 176.468 3.92041 177.719 3.92041C178.963 3.92041 179.725 4.89795 179.725 6.47852V6.49121C179.725 8.07178 178.963 9.04932 177.719 9.04932ZM183.428 1.74316C183.847 1.74316 184.19 1.40039 184.19 0.981445C184.19 0.5625 183.847 0.219727 183.428 0.219727C183.009 0.219727 182.666 0.5625 182.666 0.981445C182.666 1.40039 183.009 1.74316 183.428 1.74316ZM182.869 9.90625H183.974V3.06348H182.869V9.90625ZM188.407 9.95703C188.623 9.95703 188.832 9.93164 189.048 9.89355V8.9541C188.845 8.97314 188.737 8.97949 188.54 8.97949C187.829 8.97949 187.55 8.65576 187.55 7.84961V3.97754H189.048V3.06348H187.55V1.29248H186.408V3.06348H185.329V3.97754H186.408V8.12891C186.408 9.43652 186.998 9.95703 188.407 9.95703ZM191.203 1.74316C191.622 1.74316 191.964 1.40039 191.964 0.981445C191.964 0.5625 191.622 0.219727 191.203 0.219727C190.784 0.219727 190.441 0.5625 190.441 0.981445C190.441 1.40039 190.784 1.74316 191.203 1.74316ZM190.644 9.90625H191.749V3.06348H190.644V9.90625ZM196.563 10.0269C198.511 10.0269 199.717 8.68115 199.717 6.49121V6.47852C199.717 4.28223 198.511 2.94287 196.563 2.94287C194.614 2.94287 193.408 4.28223 193.408 6.47852V6.49121C193.408 8.68115 194.614 10.0269 196.563 10.0269ZM196.563 9.04932C195.268 9.04932 194.538 8.10352 194.538 6.49121V6.47852C194.538 4.85986 195.268 3.92041 196.563 3.92041C197.857 3.92041 198.587 4.85986 198.587 6.47852V6.49121C198.587 8.10352 197.857 9.04932 196.563 9.04932ZM201.351 9.90625H202.456V5.85645C202.456 4.65674 203.148 3.92041 204.239 3.92041C205.331 3.92041 205.839 4.51074 205.839 5.74219V9.90625H206.943V5.47559C206.943 3.85059 206.087 2.94287 204.55 2.94287C203.541 2.94287 202.9 3.36816 202.557 4.0918H202.456V3.06348H201.351V9.90625ZM211.212 10.0269C212.767 10.0269 213.954 9.18262 213.954 7.96387V7.95117C213.954 6.97363 213.332 6.41504 212.043 6.104L210.989 5.8501C210.183 5.65332 209.841 5.36133 209.841 4.89795V4.88525C209.841 4.28223 210.437 3.86328 211.25 3.86328C212.075 3.86328 212.608 4.23779 212.754 4.77734H213.84C213.687 3.66016 212.691 2.94287 211.256 2.94287C209.802 2.94287 208.711 3.7998 208.711 4.93604V4.94238C208.711 5.92627 209.288 6.48486 210.571 6.78955L211.631 7.04346C212.475 7.24658 212.824 7.57031 212.824 8.03369V8.04639C212.824 8.66846 212.17 9.10645 211.25 9.10645C210.374 9.10645 209.828 8.73193 209.644 8.16064H208.514C208.641 9.29053 209.688 10.0269 211.212 10.0269ZM221.043 10.0269C221.963 10.0269 222.681 9.62695 223.112 8.89697H223.214V9.90625H224.318V5.22168C224.318 3.7998 223.385 2.94287 221.716 2.94287C220.256 2.94287 219.215 3.6665 219.037 4.73926L219.031 4.77734H220.135L220.141 4.7583C220.319 4.2251 220.859 3.92041 221.678 3.92041C222.7 3.92041 223.214 4.37744 223.214 5.22168V5.84375L221.252 5.96436C219.659 6.05957 218.758 6.76416 218.758 7.98291V7.99561C218.758 9.23975 219.742 10.0269 221.043 10.0269ZM219.888 7.97021V7.95752C219.888 7.27832 220.345 6.91016 221.386 6.84668L223.214 6.73242V7.35449C223.214 8.33203 222.395 9.06836 221.271 9.06836C220.478 9.06836 219.888 8.66211 219.888 7.97021ZM226.257 9.90625H227.361V5.85645C227.361 4.65674 228.053 3.92041 229.145 3.92041C230.237 3.92041 230.745 4.51074 230.745 5.74219V9.90625H231.849V5.47559C231.849 3.85059 230.992 2.94287 229.456 2.94287C228.447 2.94287 227.806 3.36816 227.463 4.0918H227.361V3.06348H226.257V9.90625ZM236.295 10.0269C237.247 10.0269 238.009 9.57617 238.428 8.81445H238.529V9.90625H239.634V0.34668H238.529V4.14258H238.428C238.053 3.4126 237.234 2.94287 236.295 2.94287C234.556 2.94287 233.426 4.33301 233.426 6.47852V6.49121C233.426 8.62402 234.562 10.0269 236.295 10.0269ZM236.549 9.04932C235.298 9.04932 234.556 8.08447 234.556 6.49121V6.47852C234.556 4.88525 235.298 3.92041 236.549 3.92041C237.793 3.92041 238.555 4.89795 238.555 6.47852V6.49121C238.555 8.07178 237.793 9.04932 236.549 9.04932ZM245.39 9.90625H246.532V6.63721H248.843C250.563 6.63721 251.782 5.4248 251.782 3.68555V3.67285C251.782 1.93359 250.563 0.746582 248.843 0.746582H245.39V9.90625ZM248.551 1.76221C249.859 1.76221 250.614 2.47949 250.614 3.68555V3.69824C250.614 4.9043 249.859 5.62158 248.551 5.62158H246.532V1.76221H248.551ZM253.435 9.90625H254.539V5.66602C254.539 4.66309 255.288 3.99658 256.342 3.99658C256.583 3.99658 256.793 4.02197 257.021 4.06006V2.9873C256.913 2.96826 256.678 2.94287 256.469 2.94287C255.542 2.94287 254.901 3.36182 254.641 4.0791H254.539V3.06348H253.435V9.90625ZM258.89 1.74316C259.309 1.74316 259.652 1.40039 259.652 0.981445C259.652 0.5625 259.309 0.219727 258.89 0.219727C258.471 0.219727 258.128 0.5625 258.128 0.981445C258.128 1.40039 258.471 1.74316 258.89 1.74316ZM258.331 9.90625H259.436V3.06348H258.331V9.90625ZM263.374 9.90625H264.491L267.024 3.06348H265.856L263.983 8.7002H263.882L262.009 3.06348H260.841L263.374 9.90625ZM270.029 10.0269C270.949 10.0269 271.667 9.62695 272.098 8.89697H272.2V9.90625H273.304V5.22168C273.304 3.7998 272.371 2.94287 270.702 2.94287C269.242 2.94287 268.201 3.6665 268.023 4.73926L268.017 4.77734H269.121L269.127 4.7583C269.305 4.2251 269.845 3.92041 270.664 3.92041C271.686 3.92041 272.2 4.37744 272.2 5.22168V5.84375L270.238 5.96436C268.645 6.05957 267.744 6.76416 267.744 7.98291V7.99561C267.744 9.23975 268.728 10.0269 270.029 10.0269ZM268.874 7.97021V7.95752C268.874 7.27832 269.331 6.91016 270.372 6.84668L272.2 6.73242V7.35449C272.2 8.33203 271.381 9.06836 270.257 9.06836C269.464 9.06836 268.874 8.66211 268.874 7.97021ZM278.042 10.0269C279.686 10.0269 280.607 9.14453 280.886 7.90674L280.899 7.83691L279.807 7.84326L279.794 7.88135C279.54 8.64307 278.956 9.04932 278.036 9.04932C276.817 9.04932 276.03 8.04004 276.03 6.46582V6.45312C276.03 4.91064 276.804 3.92041 278.036 3.92041C279.02 3.92041 279.629 4.46631 279.8 5.13916L279.807 5.1582H280.905L280.899 5.12012C280.695 3.90137 279.699 2.94287 278.036 2.94287C276.119 2.94287 274.9 4.32666 274.9 6.45312V6.46582C274.9 8.63672 276.125 10.0269 278.042 10.0269ZM283.021 12.3057C284.234 12.3057 284.799 11.8613 285.363 10.3252L288.036 3.06348H286.874L285.002 8.69385H284.9L283.021 3.06348H281.841L284.373 9.9126L284.246 10.3188C283.999 11.106 283.618 11.3916 282.989 11.3916C282.837 11.3916 282.666 11.3853 282.532 11.3599V12.2676C282.685 12.293 282.875 12.3057 283.021 12.3057ZM0.167969 27.9062H1.31055V24.6372H3.62109C5.34131 24.6372 6.56006 23.4248 6.56006 21.6855V21.6729C6.56006 19.9336 5.34131 18.7466 3.62109 18.7466H0.167969V27.9062ZM3.3291 19.7622C4.63672 19.7622 5.39209 20.4795 5.39209 21.6855V21.6982C5.39209 22.9043 4.63672 23.6216 3.3291 23.6216H1.31055V19.7622H3.3291ZM10.8346 28.0269C12.7833 28.0269 13.9893 26.6812 13.9893 24.4912V24.4785C13.9893 22.2822 12.7833 20.9429 10.8346 20.9429C8.88582 20.9429 7.67977 22.2822 7.67977 24.4785V24.4912C7.67977 26.6812 8.88582 28.0269 10.8346 28.0269ZM10.8346 27.0493C9.53963 27.0493 8.80965 26.1035 8.80965 24.4912V24.4785C8.80965 22.8599 9.53963 21.9204 10.8346 21.9204C12.1295 21.9204 12.8595 22.8599 12.8595 24.4785V24.4912C12.8595 26.1035 12.1295 27.0493 10.8346 27.0493ZM15.6867 27.9062H16.7912V18.3467H15.6867V27.9062ZM19.4153 19.7432C19.8342 19.7432 20.177 19.4004 20.177 18.9814C20.177 18.5625 19.8342 18.2197 19.4153 18.2197C18.9963 18.2197 18.6536 18.5625 18.6536 18.9814C18.6536 19.4004 18.9963 19.7432 19.4153 19.7432ZM18.8567 27.9062H19.9612V21.0635H18.8567V27.9062ZM24.7625 28.0269C26.4066 28.0269 27.327 27.1445 27.6063 25.9067L27.619 25.8369L26.5272 25.8433L26.5145 25.8813C26.2606 26.6431 25.6766 27.0493 24.7562 27.0493C23.5374 27.0493 22.7503 26.04 22.7503 24.4658V24.4531C22.7503 22.9106 23.5247 21.9204 24.7562 21.9204C25.7401 21.9204 26.3494 22.4663 26.5208 23.1392L26.5272 23.1582H27.6253L27.619 23.1201C27.4158 21.9014 26.4193 20.9429 24.7562 20.9429C22.8392 20.9429 21.6204 22.3267 21.6204 24.4531V24.4658C21.6204 26.6367 22.8455 28.0269 24.7625 28.0269ZM29.7416 30.3057C30.954 30.3057 31.5189 29.8613 32.0839 28.3252L34.7563 21.0635H33.5946L31.7221 26.6938H31.6205L29.7416 21.0635H28.5609L31.0937 27.9126L30.9667 28.3188C30.7191 29.106 30.3383 29.3916 29.7099 29.3916C29.5575 29.3916 29.3861 29.3853 29.2528 29.3599V30.2676C29.4052 30.293 29.5956 30.3057 29.7416 30.3057ZM36.0854 27.9697C36.5425 27.9697 36.9106 27.5952 36.9106 27.1445C36.9106 26.6875 36.5425 26.3193 36.0854 26.3193C35.6347 26.3193 35.2602 26.6875 35.2602 27.1445C35.2602 27.5952 35.6347 27.9697 36.0854 27.9697Z" fill="url(#paint0_linear_3_104)"/>
<defs>
<linearGradient id="paint0_linear_3_104" x1="140.717" y1="-18.9776" x2="133.616" y2="44.0678" gradientUnits="userSpaceOnUse">
<stop stop-color="#CDDDF4"/>
<stop offset="1" stop-color="#CDBAFA"/>
</linearGradient>
</defs>
</svg>
