<svg width="155" height="13" viewBox="0 0 155 13" fill="none" xmlns="http://www.w3.org/2000/svg">
<path d="M0.167969 9.90625H1.31055V0.746582H0.167969V9.90625ZM3.42684 9.90625H4.53133V5.85645C4.53133 4.65674 5.22322 3.92041 6.31502 3.92041C7.40682 3.92041 7.91463 4.51074 7.91463 5.74219V9.90625H9.01912V5.47559C9.01912 3.85059 8.16219 2.94287 6.62605 2.94287C5.61678 2.94287 4.97566 3.36816 4.63289 4.0918H4.53133V3.06348H3.42684V9.90625ZM13.7379 10.0269C15.382 10.0269 16.3024 9.14453 16.5817 7.90674L16.5944 7.83691L15.5026 7.84326L15.4899 7.88135C15.236 8.64307 14.652 9.04932 13.7316 9.04932C12.5129 9.04932 11.7257 8.04004 11.7257 6.46582V6.45312C11.7257 4.91064 12.5002 3.92041 13.7316 3.92041C14.7155 3.92041 15.3249 4.46631 15.4963 5.13916L15.5026 5.1582H16.6007L16.5944 5.12012C16.3913 3.90137 15.3947 2.94287 13.7316 2.94287C11.8146 2.94287 10.5959 4.32666 10.5959 6.45312V6.46582C10.5959 8.63672 11.821 10.0269 13.7379 10.0269ZM18.1965 9.90625H19.301V0.34668H18.1965V9.90625ZM23.6326 10.0269C24.6356 10.0269 25.3275 9.61426 25.6639 8.88428H25.7654V9.90625H26.8699V3.06348H25.7654V7.11328C25.7654 8.31299 25.1243 9.04932 23.9183 9.04932C22.8265 9.04932 22.3821 8.45898 22.3821 7.22754V3.06348H21.2777V7.49414C21.2777 9.11279 22.0775 10.0269 23.6326 10.0269ZM31.3793 10.0269C32.3314 10.0269 33.0932 9.57617 33.5121 8.81445H33.6137V9.90625H34.7182V0.34668H33.6137V4.14258H33.5121C33.1376 3.4126 32.3188 2.94287 31.3793 2.94287C29.64 2.94287 28.5102 4.33301 28.5102 6.47852V6.49121C28.5102 8.62402 29.6464 10.0269 31.3793 10.0269ZM31.6332 9.04932C30.3827 9.04932 29.64 8.08447 29.64 6.49121V6.47852C29.64 4.88525 30.3827 3.92041 31.6332 3.92041C32.8773 3.92041 33.6391 4.89795 33.6391 6.47852V6.49121C33.6391 8.07178 32.8773 9.04932 31.6332 9.04932ZM37.3423 1.74316C37.7612 1.74316 38.104 1.40039 38.104 0.981445C38.104 0.5625 37.7612 0.219727 37.3423 0.219727C36.9233 0.219727 36.5805 0.5625 36.5805 0.981445C36.5805 1.40039 36.9233 1.74316 37.3423 1.74316ZM36.7837 9.90625H37.8882V3.06348H36.7837V9.90625ZM39.8902 9.90625H40.9947V5.85645C40.9947 4.65674 41.6866 3.92041 42.7784 3.92041C43.8702 3.92041 44.378 4.51074 44.378 5.74219V9.90625H45.4825V5.47559C45.4825 3.85059 44.6255 2.94287 43.0894 2.94287C42.0801 2.94287 41.439 3.36816 41.0962 4.0918H40.9947V3.06348H39.8902V9.90625ZM50.2204 12.3184C52.0866 12.3184 53.2672 11.3408 53.2672 9.81104V3.06348H52.1627V4.19336H52.0866C51.6676 3.41895 50.9186 2.94287 49.9538 2.94287C48.1637 2.94287 47.0592 4.33301 47.0592 6.25V6.2627C47.0592 8.17969 48.1574 9.55078 49.9284 9.55078C50.8678 9.55078 51.6422 9.12549 52.0739 8.37012H52.1754V9.75391C52.1754 10.7632 51.4454 11.3408 50.2204 11.3408C49.2365 11.3408 48.6271 10.9727 48.5065 10.4521L48.5001 10.4458H47.3576L47.3449 10.4521C47.5163 11.5757 48.57 12.3184 50.2204 12.3184ZM50.1696 8.57324C48.9 8.57324 48.1891 7.62109 48.1891 6.2627V6.25C48.1891 4.8916 48.9 3.92041 50.1696 3.92041C51.4328 3.92041 52.2008 4.8916 52.2008 6.25V6.2627C52.2008 7.62109 51.4391 8.57324 50.1696 8.57324ZM58.8138 9.90625H64.7425V8.87793H60.4007V8.77637L62.4827 6.62451C64.1395 4.91699 64.5901 4.15527 64.5901 3.10791V3.09521C64.5901 1.61621 63.365 0.530762 61.7654 0.530762C60.0135 0.530762 58.7566 1.69873 58.7503 3.32373L58.763 3.33008L59.8548 3.33643L59.8611 3.32373C59.8611 2.24463 60.5911 1.52734 61.6893 1.52734C62.7684 1.52734 63.4222 2.25098 63.4222 3.21582V3.22852C63.4222 4.02832 63.0794 4.50439 61.9114 5.76758L58.8138 9.11914V9.90625ZM69.6454 10.1221C71.6703 10.1221 72.889 8.2749 72.889 5.32959V5.31689C72.889 2.37158 71.6703 0.530762 69.6454 0.530762C67.6205 0.530762 66.4144 2.37158 66.4144 5.31689V5.32959C66.4144 8.2749 67.6205 10.1221 69.6454 10.1221ZM69.6454 9.12549C68.3314 9.12549 67.5634 7.66553 67.5634 5.32959V5.31689C67.5634 2.98096 68.3314 1.53369 69.6454 1.53369C70.9594 1.53369 71.7401 2.98096 71.7401 5.31689V5.32959C71.7401 7.66553 70.9594 9.12549 69.6454 9.12549ZM76.3955 5.56445C77.5634 5.56445 78.2744 4.6123 78.2744 3.09521V3.08887C78.2744 1.57178 77.5634 0.625977 76.3955 0.625977C75.2275 0.625977 74.5229 1.57178 74.5229 3.08887V3.09521C74.5229 4.6123 75.2275 5.56445 76.3955 5.56445ZM77.081 9.90625L83.3144 0.746582H82.2861L76.0527 9.90625H77.081ZM76.3955 4.80908C75.7671 4.80908 75.4052 4.16797 75.4052 3.09521V3.08887C75.4052 2.01611 75.7671 1.38135 76.3955 1.38135C77.0239 1.38135 77.3921 2.01611 77.3921 3.08887V3.09521C77.3921 4.16797 77.0239 4.80908 76.3955 4.80908ZM82.9589 10.0269C84.1269 10.0269 84.8379 9.07471 84.8379 7.55762V7.55127C84.8379 6.03418 84.1269 5.08838 82.9589 5.08838C81.791 5.08838 81.0864 6.03418 81.0864 7.55127V7.55762C81.0864 9.07471 81.791 10.0269 82.9589 10.0269ZM82.9589 9.27148C82.3305 9.27148 81.9687 8.63037 81.9687 7.55762V7.55127C81.9687 6.47852 82.3305 5.84375 82.9589 5.84375C83.5874 5.84375 83.9555 6.47852 83.9555 7.55127V7.55762C83.9555 8.63037 83.5874 9.27148 82.9589 9.27148ZM93.0377 10.0269C94.9864 10.0269 96.1925 8.68115 96.1925 6.49121V6.47852C96.1925 4.28223 94.9864 2.94287 93.0377 2.94287C91.089 2.94287 89.8829 4.28223 89.8829 6.47852V6.49121C89.8829 8.68115 91.089 10.0269 93.0377 10.0269ZM93.0377 9.04932C91.7428 9.04932 91.0128 8.10352 91.0128 6.49121V6.47852C91.0128 4.85986 91.7428 3.92041 93.0377 3.92041C94.3326 3.92041 95.0626 4.85986 95.0626 6.47852V6.49121C95.0626 8.10352 94.3326 9.04932 93.0377 9.04932ZM98.2834 9.90625H99.3879V3.97754H100.943V3.06348H99.3879V2.3335C99.3879 1.58447 99.7053 1.19727 100.492 1.19727C100.689 1.19727 100.873 1.20361 101.007 1.229V0.34668C100.778 0.302246 100.537 0.283203 100.27 0.283203C98.9689 0.283203 98.2834 0.937012 98.2834 2.30176V3.06348H97.1472V3.97754H98.2834V9.90625ZM102.913 9.90625H104.018V3.97754H105.573V3.06348H104.018V2.3335C104.018 1.58447 104.335 1.19727 105.122 1.19727C105.319 1.19727 105.503 1.20361 105.637 1.229V0.34668C105.408 0.302246 105.167 0.283203 104.9 0.283203C103.599 0.283203 102.913 0.937012 102.913 2.30176V3.06348H101.777V3.97754H102.913V9.90625ZM113.462 10.0269C115.106 10.0269 116.026 9.14453 116.306 7.90674L116.318 7.83691L115.227 7.84326L115.214 7.88135C114.96 8.64307 114.376 9.04932 113.456 9.04932C112.237 9.04932 111.45 8.04004 111.45 6.46582V6.45312C111.45 4.91064 112.224 3.92041 113.456 3.92041C114.439 3.92041 115.049 4.46631 115.22 5.13916L115.227 5.1582H116.325L116.318 5.12012C116.115 3.90137 115.119 2.94287 113.456 2.94287C111.539 2.94287 110.32 4.32666 110.32 6.45312V6.46582C110.32 8.63672 111.545 10.0269 113.462 10.0269ZM120.669 10.0269C122.618 10.0269 123.824 8.68115 123.824 6.49121V6.47852C123.824 4.28223 122.618 2.94287 120.669 2.94287C118.72 2.94287 117.514 4.28223 117.514 6.47852V6.49121C117.514 8.68115 118.72 10.0269 120.669 10.0269ZM120.669 9.04932C119.374 9.04932 118.644 8.10352 118.644 6.49121V6.47852C118.644 4.85986 119.374 3.92041 120.669 3.92041C121.964 3.92041 122.694 4.85986 122.694 6.47852V6.49121C122.694 8.10352 121.964 9.04932 120.669 9.04932ZM127.749 10.0269C128.752 10.0269 129.444 9.61426 129.78 8.88428H129.882V9.90625H130.986V3.06348H129.882V7.11328C129.882 8.31299 129.241 9.04932 128.035 9.04932C126.943 9.04932 126.499 8.45898 126.499 7.22754V3.06348H125.394V7.49414C125.394 9.11279 126.194 10.0269 127.749 10.0269ZM132.969 12.1914H134.074V8.82715H134.175C134.55 9.55713 135.369 10.0269 136.308 10.0269C138.048 10.0269 139.177 8.63672 139.177 6.49121V6.47852C139.177 4.3457 138.041 2.94287 136.308 2.94287C135.356 2.94287 134.594 3.39355 134.175 4.15527H134.074V3.06348H132.969V12.1914ZM136.054 9.04932C134.81 9.04932 134.049 8.07178 134.049 6.49121V6.47852C134.049 4.89795 134.81 3.92041 136.054 3.92041C137.305 3.92041 138.048 4.88525 138.048 6.47852V6.49121C138.048 8.08447 137.305 9.04932 136.054 9.04932ZM143.636 10.0269C145.585 10.0269 146.791 8.68115 146.791 6.49121V6.47852C146.791 4.28223 145.585 2.94287 143.636 2.94287C141.687 2.94287 140.481 4.28223 140.481 6.47852V6.49121C140.481 8.68115 141.687 10.0269 143.636 10.0269ZM143.636 9.04932C142.341 9.04932 141.611 8.10352 141.611 6.49121V6.47852C141.611 4.85986 142.341 3.92041 143.636 3.92041C144.931 3.92041 145.661 4.85986 145.661 6.47852V6.49121C145.661 8.10352 144.931 9.04932 143.636 9.04932ZM148.425 9.90625H149.529V5.85645C149.529 4.65674 150.221 3.92041 151.313 3.92041C152.405 3.92041 152.912 4.51074 152.912 5.74219V9.90625H154.017V5.47559C154.017 3.85059 153.16 2.94287 151.624 2.94287C150.615 2.94287 149.973 3.36816 149.631 4.0918H149.529V3.06348H148.425V9.90625Z" fill="url(#paint0_linear_3_707)"/>
<defs>
<linearGradient id="paint0_linear_3_707" x1="74.4533" y1="-12.2122" x2="70.4879" y2="22.1549" gradientUnits="userSpaceOnUse">
<stop stop-color="#CDDDF4"/>
<stop offset="1" stop-color="#CDBAFA"/>
</linearGradient>
</defs>
</svg>
