<svg width="105" height="14" viewBox="0 0 105 14" fill="none" xmlns="http://www.w3.org/2000/svg">
<path d="M0.527344 12.9062H2.02148V0.928223H0.527344V12.9062ZM4.48355 12.9062H5.92789V7.61035C5.92789 6.0415 6.83268 5.07861 8.26041 5.07861C9.68814 5.07861 10.3522 5.85059 10.3522 7.46094V12.9062H11.7965V7.1123C11.7965 4.9873 10.6759 3.80029 8.66715 3.80029C7.34732 3.80029 6.50895 4.35645 6.0607 5.30273H5.92789V3.95801H4.48355V12.9062ZM16.201 12.9062H17.6619L20.9739 3.95801H19.4466L16.9979 11.3291H16.8651L14.4163 3.95801H12.889L16.201 12.9062ZM23.2368 2.23145C23.7846 2.23145 24.2329 1.7832 24.2329 1.23535C24.2329 0.6875 23.7846 0.239258 23.2368 0.239258C22.6889 0.239258 22.2407 0.6875 22.2407 1.23535C22.2407 1.7832 22.6889 2.23145 23.2368 2.23145ZM22.5063 12.9062H23.9507V3.95801H22.5063V12.9062ZM29.4425 12.9727C29.7247 12.9727 29.9987 12.9395 30.2809 12.8896V11.6611C30.0153 11.686 29.8742 11.6943 29.6168 11.6943C28.6871 11.6943 28.3219 11.271 28.3219 10.2168V5.15332H30.2809V3.95801H28.3219V1.64209H26.8278V3.95801H25.4166V5.15332H26.8278V10.582C26.8278 12.292 27.5997 12.9727 29.4425 12.9727ZM35.5486 13.064C37.657 13.064 38.9354 11.8687 39.2425 10.6567L39.2591 10.5903H37.8147L37.7815 10.665C37.5408 11.2046 36.7938 11.7773 35.5818 11.7773C33.9881 11.7773 32.9671 10.6982 32.9256 8.84717H39.367V8.28271C39.367 5.60986 37.8895 3.80029 35.4573 3.80029C33.0252 3.80029 31.448 5.69287 31.448 8.45703V8.46533C31.448 11.271 32.992 13.064 35.5486 13.064ZM35.449 5.08691C36.7688 5.08691 37.7483 5.92529 37.8978 7.69336H32.9505C33.1082 5.9917 34.1209 5.08691 35.449 5.08691ZM45.7521 12.9062H47.2462V7.71826H52.5504V6.39014H47.2462V2.27295H53.0236V0.928223H45.7521V12.9062ZM54.888 12.9062H56.3323V7.36133C56.3323 6.0498 57.3118 5.17822 58.6897 5.17822C59.0052 5.17822 59.2791 5.21143 59.5779 5.26123V3.8584C59.4368 3.8335 59.1297 3.80029 58.8557 3.80029C57.6438 3.80029 56.8055 4.34814 56.4651 5.28613H56.3323V3.95801H54.888V12.9062ZM61.7163 2.23145C62.2641 2.23145 62.7123 1.7832 62.7123 1.23535C62.7123 0.6875 62.2641 0.239258 61.7163 0.239258C61.1684 0.239258 60.7202 0.6875 60.7202 1.23535C60.7202 1.7832 61.1684 2.23145 61.7163 2.23145ZM60.9858 12.9062H62.4301V3.95801H60.9858V12.9062ZM68.3951 13.064C70.5035 13.064 71.7818 11.8687 72.089 10.6567L72.1056 10.5903H70.6612L70.628 10.665C70.3873 11.2046 69.6402 11.7773 68.4283 11.7773C66.8346 11.7773 65.8136 10.6982 65.7721 8.84717H72.2135V8.28271C72.2135 5.60986 70.7359 3.80029 68.3038 3.80029C65.8717 3.80029 64.2945 5.69287 64.2945 8.45703V8.46533C64.2945 11.271 65.8385 13.064 68.3951 13.064ZM68.2955 5.08691C69.6153 5.08691 70.5948 5.92529 70.7442 7.69336H65.797C65.9547 5.9917 66.9674 5.08691 68.2955 5.08691ZM74.0447 12.9062H75.489V7.61035C75.489 6.0415 76.3938 5.07861 77.8215 5.07861C79.2493 5.07861 79.9133 5.85059 79.9133 7.46094V12.9062H81.3577V7.1123C81.3577 4.9873 80.2371 3.80029 78.2283 3.80029C76.9085 3.80029 76.0701 4.35645 75.6218 5.30273H75.489V3.95801H74.0447V12.9062ZM86.8661 13.064C88.1113 13.064 89.1073 12.4746 89.6552 11.4785H89.788V12.9062H91.2323V0.405273H89.788V5.36914H89.6552C89.1655 4.41455 88.0947 3.80029 86.8661 3.80029C84.5917 3.80029 83.1142 5.61816 83.1142 8.42383V8.44043C83.1142 11.2295 84.6 13.064 86.8661 13.064ZM87.1982 11.7856C85.5629 11.7856 84.5917 10.5239 84.5917 8.44043V8.42383C84.5917 6.34033 85.5629 5.07861 87.1982 5.07861C88.8251 5.07861 89.8212 6.35693 89.8212 8.42383V8.44043C89.8212 10.5073 88.8251 11.7856 87.1982 11.7856ZM96.6661 13.064C98.6998 13.064 100.252 11.96 100.252 10.3662V10.3496C100.252 9.07129 99.4386 8.34082 97.7535 7.93408L96.3756 7.60205C95.3214 7.34473 94.8731 6.96289 94.8731 6.35693V6.34033C94.8731 5.55176 95.6534 5.00391 96.7159 5.00391C97.795 5.00391 98.4923 5.49365 98.6832 6.19922H100.103C99.9034 4.73828 98.6002 3.80029 96.7242 3.80029C94.8233 3.80029 93.3956 4.9209 93.3956 6.40674V6.41504C93.3956 7.70166 94.151 8.43213 95.8277 8.83057L97.2139 9.1626C98.3179 9.42822 98.7745 9.85156 98.7745 10.4575V10.4741C98.7745 11.2876 97.9195 11.8604 96.7159 11.8604C95.5704 11.8604 94.8565 11.3706 94.6158 10.6235H93.1383C93.3043 12.1011 94.6739 13.064 96.6661 13.064ZM103.262 6.56445C103.86 6.56445 104.341 6.07471 104.341 5.48535C104.341 4.8877 103.86 4.40625 103.262 4.40625C102.673 4.40625 102.183 4.8877 102.183 5.48535C102.183 6.07471 102.673 6.56445 103.262 6.56445ZM103.262 12.9893C103.86 12.9893 104.341 12.4995 104.341 11.9102C104.341 11.3125 103.86 10.8311 103.262 10.8311C102.673 10.8311 102.183 11.3125 102.183 11.9102C102.183 12.4995 102.673 12.9893 103.262 12.9893Z" fill="url(#paint0_linear_3_1194)"/>
<defs>
<linearGradient id="paint0_linear_3_1194" x1="50.7532" y1="-14.0163" x2="42.3568" y2="26.8207" gradientUnits="userSpaceOnUse">
<stop stop-color="#CDDDF4"/>
<stop offset="1" stop-color="#CDBAFA"/>
</linearGradient>
</defs>
</svg>
