<svg width="134" height="14" viewBox="0 0 134 14" fill="none" xmlns="http://www.w3.org/2000/svg">
<path d="M0.527344 13.5625H7.79883V12.2178H2.02148V1.58447H0.527344V13.5625ZM12.859 13.7202C15.4074 13.7202 16.9845 11.9604 16.9845 9.09668V9.08008C16.9845 6.20801 15.4074 4.45654 12.859 4.45654C10.3107 4.45654 8.73355 6.20801 8.73355 9.08008V9.09668C8.73355 11.9604 10.3107 13.7202 12.859 13.7202ZM12.859 12.4419C11.1657 12.4419 10.2111 11.2051 10.2111 9.09668V9.08008C10.2111 6.96338 11.1657 5.73486 12.859 5.73486C14.5524 5.73486 15.507 6.96338 15.507 9.08008V9.09668C15.507 11.2051 14.5524 12.4419 12.859 12.4419ZM22.4764 13.7202C24.6263 13.7202 25.8299 12.5664 26.1951 10.9478L26.2117 10.8564L24.784 10.8647L24.7674 10.9146C24.4354 11.9106 23.6717 12.4419 22.4681 12.4419C20.8743 12.4419 19.845 11.1221 19.845 9.06348V9.04688C19.845 7.02979 20.8577 5.73486 22.4681 5.73486C23.7547 5.73486 24.5516 6.44873 24.7757 7.32861L24.784 7.35352H26.22L26.2117 7.30371C25.9461 5.70996 24.6429 4.45654 22.4681 4.45654C19.9613 4.45654 18.3675 6.26611 18.3675 9.04688V9.06348C18.3675 11.9023 19.9696 13.7202 22.4764 13.7202ZM30.3755 13.7202C31.5791 13.7202 32.5171 13.1973 33.0815 12.2427H33.2143V13.5625H34.6587V7.43652C34.6587 5.57715 33.4385 4.45654 31.2554 4.45654C29.3462 4.45654 27.9848 5.40283 27.7524 6.80566L27.7441 6.85547H29.1885L29.1968 6.83057C29.4292 6.1333 30.1347 5.73486 31.2055 5.73486C32.542 5.73486 33.2143 6.33252 33.2143 7.43652V8.25L30.6494 8.40771C28.5659 8.53223 27.3872 9.45361 27.3872 11.0474V11.064C27.3872 12.6909 28.6738 13.7202 30.3755 13.7202ZM28.8647 11.0308V11.0142C28.8647 10.126 29.4624 9.64453 30.8237 9.56152L33.2143 9.41211V10.2256C33.2143 11.5039 32.1435 12.4668 30.6743 12.4668C29.6367 12.4668 28.8647 11.9355 28.8647 11.0308ZM40.0675 13.6289C40.3497 13.6289 40.6237 13.5957 40.9059 13.5459V12.3174C40.6403 12.3423 40.4992 12.3506 40.2418 12.3506C39.3121 12.3506 38.9469 11.9272 38.9469 10.873V5.80957H40.9059V4.61426H38.9469V2.29834H37.4528V4.61426H36.0416V5.80957H37.4528V11.2383C37.4528 12.9482 38.2247 13.6289 40.0675 13.6289ZM43.4178 2.8877C43.9656 2.8877 44.4139 2.43945 44.4139 1.8916C44.4139 1.34375 43.9656 0.895508 43.4178 0.895508C42.8699 0.895508 42.4217 1.34375 42.4217 1.8916C42.4217 2.43945 42.8699 2.8877 43.4178 2.8877ZM42.6873 13.5625H44.1316V4.61426H42.6873V13.5625ZM50.1215 13.7202C52.6699 13.7202 54.247 11.9604 54.247 9.09668V9.08008C54.247 6.20801 52.6699 4.45654 50.1215 4.45654C47.5732 4.45654 45.9961 6.20801 45.9961 9.08008V9.09668C45.9961 11.9604 47.5732 13.7202 50.1215 13.7202ZM50.1215 12.4419C48.4282 12.4419 47.4736 11.2051 47.4736 9.09668V9.08008C47.4736 6.96338 48.4282 5.73486 50.1215 5.73486C51.8149 5.73486 52.7695 6.96338 52.7695 9.08008V9.09668C52.7695 11.2051 51.8149 12.4419 50.1215 12.4419ZM56.0782 13.5625H57.5226V8.2666C57.5226 6.69775 58.4274 5.73486 59.8551 5.73486C61.2828 5.73486 61.9469 6.50684 61.9469 8.11719V13.5625H63.3912V7.76855C63.3912 5.64355 62.2706 4.45654 60.2618 4.45654C58.942 4.45654 58.1036 5.0127 57.6554 5.95898H57.5226V4.61426H56.0782V13.5625ZM74.0761 13.8447C76.749 13.8447 78.5004 12.4502 78.5004 10.209V10.2007C78.5004 8.47412 77.5126 7.46973 75.0141 6.91357L73.686 6.61475C72.059 6.25781 71.4033 5.61035 71.4033 4.65576V4.64746C71.4033 3.39404 72.5571 2.68848 74.0512 2.68018C75.6118 2.67188 76.6078 3.45215 76.7739 4.50635L76.7905 4.61426H78.2846L78.2763 4.49805C78.1518 2.71338 76.4833 1.30225 74.0927 1.30225C71.6191 1.30225 69.8842 2.70508 69.8759 4.68896V4.69727C69.8759 6.43213 70.9135 7.53613 73.3124 8.06738L74.6406 8.35791C76.2841 8.72314 76.9731 9.40381 76.9731 10.3999V10.4082C76.9731 11.6284 75.7861 12.4668 74.1591 12.4668C72.4326 12.4668 71.1874 11.7114 71.0795 10.5161L71.0712 10.4248H69.5771L69.5854 10.5161C69.7597 12.4668 71.4531 13.8447 74.0761 13.8447ZM84.0504 13.7202C86.1588 13.7202 87.4371 12.5249 87.7442 11.313L87.7608 11.2466H86.3165L86.2833 11.3213C86.0426 11.8608 85.2955 12.4336 84.0836 12.4336C82.4898 12.4336 81.4688 11.3545 81.4273 9.50342H87.8688V8.93896C87.8688 6.26611 86.3912 4.45654 83.9591 4.45654C81.527 4.45654 79.9498 6.34912 79.9498 9.11328V9.12158C79.9498 11.9272 81.4938 13.7202 84.0504 13.7202ZM83.9508 5.74316C85.2706 5.74316 86.2501 6.58154 86.3995 8.34961H81.4522C81.61 6.64795 82.6227 5.74316 83.9508 5.74316ZM89.7 13.5625H91.1443V8.01758C91.1443 6.70605 92.1238 5.83447 93.5017 5.83447C93.8171 5.83447 94.0911 5.86768 94.3899 5.91748V4.51465C94.2488 4.48975 93.9417 4.45654 93.6677 4.45654C92.4558 4.45654 91.6174 5.00439 91.2771 5.94238H91.1443V4.61426H89.7V13.5625ZM98.3793 13.5625H99.8403L103.152 4.61426H101.625L99.1762 11.9854H99.0434L96.5947 4.61426H95.0673L98.3793 13.5625ZM105.415 2.8877C105.963 2.8877 106.411 2.43945 106.411 1.8916C106.411 1.34375 105.963 0.895508 105.415 0.895508C104.867 0.895508 104.419 1.34375 104.419 1.8916C104.419 2.43945 104.867 2.8877 105.415 2.8877ZM104.685 13.5625H106.129V4.61426H104.685V13.5625ZM112.102 13.7202C114.252 13.7202 115.456 12.5664 115.821 10.9478L115.838 10.8564L114.41 10.8647L114.393 10.9146C114.061 11.9106 113.298 12.4419 112.094 12.4419C110.5 12.4419 109.471 11.1221 109.471 9.06348V9.04688C109.471 7.02979 110.484 5.73486 112.094 5.73486C113.381 5.73486 114.177 6.44873 114.402 7.32861L114.41 7.35352H115.846L115.838 7.30371C115.572 5.70996 114.269 4.45654 112.094 4.45654C109.587 4.45654 107.993 6.26611 107.993 9.04688V9.06348C107.993 11.9023 109.595 13.7202 112.102 13.7202ZM121.197 13.7202C123.305 13.7202 124.583 12.5249 124.891 11.313L124.907 11.2466H123.463L123.43 11.3213C123.189 11.8608 122.442 12.4336 121.23 12.4336C119.636 12.4336 118.615 11.3545 118.574 9.50342H125.015V8.93896C125.015 6.26611 123.537 4.45654 121.105 4.45654C118.673 4.45654 117.096 6.34912 117.096 9.11328V9.12158C117.096 11.9272 118.64 13.7202 121.197 13.7202ZM121.097 5.74316C122.417 5.74316 123.396 6.58154 123.546 8.34961H118.599C118.756 6.64795 119.769 5.74316 121.097 5.74316ZM129.918 13.7202C131.951 13.7202 133.503 12.6162 133.503 11.0225V11.0059C133.503 9.72754 132.69 8.99707 131.005 8.59033L129.627 8.2583C128.573 8.00098 128.125 7.61914 128.125 7.01318V6.99658C128.125 6.20801 128.905 5.66016 129.967 5.66016C131.046 5.66016 131.744 6.1499 131.935 6.85547H133.354C133.155 5.39453 131.852 4.45654 129.976 4.45654C128.075 4.45654 126.647 5.57715 126.647 7.06299V7.07129C126.647 8.35791 127.402 9.08838 129.079 9.48682L130.465 9.81885C131.569 10.0845 132.026 10.5078 132.026 11.1138V11.1304C132.026 11.9438 131.171 12.5166 129.967 12.5166C128.822 12.5166 128.108 12.0269 127.867 11.2798H126.39C126.556 12.7573 127.925 13.7202 129.918 13.7202Z" fill="url(#paint0_linear_3_927)"/>
<defs>
<linearGradient id="paint0_linear_3_927" x1="64.7798" y1="-13.3601" x2="58.0701" y2="28.118" gradientUnits="userSpaceOnUse">
<stop stop-color="#CDDDF4"/>
<stop offset="1" stop-color="#CDBAFA"/>
</linearGradient>
</defs>
</svg>
