<svg width="80" height="16" viewBox="0 0 80 16" fill="none" xmlns="http://www.w3.org/2000/svg">
<path d="M0.171875 15.5625H9.2832V13.1309H3.12109V1.4707H0.171875V15.5625ZM15.8155 15.7773C18.9796 15.7773 21.0011 13.7461 21.0011 10.3281V10.3086C21.0011 6.91992 18.9405 4.87891 15.8058 4.87891C12.6808 4.87891 10.63 6.93945 10.63 10.3086V10.3281C10.63 13.7363 12.632 15.7773 15.8155 15.7773ZM15.8253 13.541C14.4191 13.541 13.5304 12.3789 13.5304 10.3281V10.3086C13.5304 8.28711 14.4288 7.11523 15.8058 7.11523C17.1925 7.11523 18.1007 8.28711 18.1007 10.3086V10.3281C18.1007 12.3691 17.212 13.541 15.8253 13.541ZM27.6409 15.7773C30.4338 15.7773 32.2405 14.0391 32.3772 11.7539V11.6953H29.7209L29.7112 11.7832C29.5159 12.8379 28.803 13.541 27.6604 13.541C26.2541 13.541 25.3752 12.3789 25.3752 10.3281V10.3184C25.3752 8.31641 26.2541 7.11523 27.6506 7.11523C28.8323 7.11523 29.5256 7.87695 29.7014 8.87305L29.7209 8.96094H32.3674V8.89258C32.26 6.62695 30.4534 4.87891 27.6116 4.87891C24.4768 4.87891 22.4748 6.95898 22.4748 10.3086V10.3184C22.4748 13.6973 24.4475 15.7773 27.6409 15.7773ZM37.2494 15.7285C38.6263 15.7285 39.7396 15.0742 40.3353 14H40.3939V15.5625H43.2455V8.38477C43.2455 6.27539 41.4974 4.87891 38.7923 4.87891C36.0287 4.87891 34.3685 6.26562 34.2123 8.19922L34.2025 8.31641H36.8099L36.8295 8.22852C36.9662 7.55469 37.6107 7.05664 38.6752 7.05664C39.7884 7.05664 40.3939 7.63281 40.3939 8.56055V9.20508L37.806 9.36133C35.2084 9.52734 33.7337 10.6406 33.7337 12.5449V12.5645C33.7337 14.4102 35.1498 15.7285 37.2494 15.7285ZM36.556 12.418V12.3984C36.556 11.6562 37.1322 11.1875 38.2357 11.1191L40.3939 10.9824V11.7344C40.3939 12.8281 39.4564 13.6484 38.1771 13.6484C37.1908 13.6484 36.556 13.1895 36.556 12.418ZM49.6313 15.7773C50.227 15.7773 50.686 15.7188 51.0083 15.6699V13.5801C50.8325 13.5996 50.647 13.6289 50.393 13.6289C49.5337 13.6289 49.0942 13.2969 49.0942 12.3203V7.24219H51.0083V5.09375H49.0942V2.53516H46.2134V5.09375H44.7583V7.24219H46.2134V12.6328C46.2134 14.8789 47.3071 15.7773 49.6313 15.7773ZM54.4449 3.74609C55.3043 3.74609 55.9684 3.07227 55.9684 2.26172C55.9684 1.45117 55.3043 0.777344 54.4449 0.777344C53.5855 0.777344 52.9215 1.45117 52.9215 2.26172C52.9215 3.07227 53.5855 3.74609 54.4449 3.74609ZM53.0191 15.5625H55.8707V5.09375H53.0191V15.5625ZM62.9695 15.7773C66.1335 15.7773 68.155 13.7461 68.155 10.3281V10.3086C68.155 6.91992 66.0945 4.87891 62.9597 4.87891C59.8347 4.87891 57.7839 6.93945 57.7839 10.3086V10.3281C57.7839 13.7363 59.7859 15.7773 62.9695 15.7773ZM62.9792 13.541C61.573 13.541 60.6843 12.3789 60.6843 10.3281V10.3086C60.6843 8.28711 61.5827 7.11523 62.9597 7.11523C64.3464 7.11523 65.2546 8.28711 65.2546 10.3086V10.3281C65.2546 12.3691 64.3659 13.541 62.9792 13.541ZM70.0096 15.5625H72.8612V9.54688C72.8612 8.17969 73.6717 7.24219 74.951 7.24219C76.2303 7.24219 76.8748 8.02344 76.8748 9.39062V15.5625H79.7264V8.80469C79.7264 6.35352 78.4178 4.87891 76.1131 4.87891C74.5311 4.87891 73.4569 5.61133 72.9198 6.8125H72.8612V5.09375H70.0096V15.5625Z" fill="url(#paint0_linear_3_921)"/>
<defs>
<linearGradient id="paint0_linear_3_921" x1="38.6614" y1="-15.7131" x2="25.1693" y2="28.5409" gradientUnits="userSpaceOnUse">
<stop stop-color="#CDDDF4"/>
<stop offset="1" stop-color="#CDBAFA"/>
</linearGradient>
</defs>
</svg>
