<svg width="111" height="19" viewBox="0 0 111 19" fill="none" xmlns="http://www.w3.org/2000/svg">
<path d="M0.171875 14.5625H2.79883V5.03125H2.87695L6.68555 14.5625H8.54102L12.3398 5.03125H12.4277V14.5625H15.0547V0.470703H11.6465L7.64258 10.5977H7.58398L3.58008 0.470703H0.171875V14.5625ZM19.1749 18.0098C21.4991 18.0098 22.9054 17.2188 23.7257 14.748L27.3195 4.09375H24.3116L22.0948 12.2773H22.0167L19.8097 4.09375H16.6749L20.3761 14.5625L20.2491 14.9043C19.9952 15.6172 19.5265 15.8613 18.6769 15.8613C18.257 15.8613 17.9249 15.8027 17.7198 15.7637V17.8828C18.0519 17.9414 18.6183 18.0098 19.1749 18.0098ZM32.3861 14.5625H35.4818L36.5462 11.1445H41.5267L42.5912 14.5625H45.6869L40.7748 0.470703H37.308L32.3861 14.5625ZM39.0072 3.20508H39.0658L40.8431 8.9375H37.2298L39.0072 3.20508ZM51.6626 14.7773C54.4555 14.7773 56.2622 13.0391 56.3989 10.7539V10.6953H53.7427L53.7329 10.7832C53.5376 11.8379 52.8247 12.541 51.6821 12.541C50.2759 12.541 49.397 11.3789 49.397 9.32812V9.31836C49.397 7.31641 50.2759 6.11523 51.6723 6.11523C52.854 6.11523 53.5473 6.87695 53.7231 7.87305L53.7427 7.96094H56.3891V7.89258C56.2817 5.62695 54.4751 3.87891 51.6333 3.87891C48.4985 3.87891 46.4966 5.95898 46.4966 9.30859V9.31836C46.4966 12.6973 48.4692 14.7773 51.6626 14.7773ZM62.941 14.7773C65.734 14.7773 67.5406 13.0391 67.6773 10.7539V10.6953H65.0211L65.0113 10.7832C64.816 11.8379 64.1031 12.541 62.9605 12.541C61.5543 12.541 60.6754 11.3789 60.6754 9.32812V9.31836C60.6754 7.31641 61.5543 6.11523 62.9508 6.11523C64.1324 6.11523 64.8258 6.87695 65.0016 7.87305L65.0211 7.96094H67.6676V7.89258C67.5602 5.62695 65.7535 3.87891 62.9117 3.87891C59.777 3.87891 57.775 5.95898 57.775 9.30859V9.31836C57.775 12.6973 59.7477 14.7773 62.941 14.7773ZM74.239 14.7773C77.403 14.7773 79.4245 12.7461 79.4245 9.32812V9.30859C79.4245 5.91992 77.364 3.87891 74.2292 3.87891C71.1042 3.87891 69.0534 5.93945 69.0534 9.30859V9.32812C69.0534 12.7363 71.0554 14.7773 74.239 14.7773ZM74.2487 12.541C72.8425 12.541 71.9538 11.3789 71.9538 9.32812V9.30859C71.9538 7.28711 72.8523 6.11523 74.2292 6.11523C75.6159 6.11523 76.5241 7.28711 76.5241 9.30859V9.32812C76.5241 11.3691 75.6355 12.541 74.2487 12.541ZM84.8436 14.7773C86.4256 14.7773 87.4998 14.0352 88.037 12.834H88.0956V14.5625H90.9471V4.09375H88.0956V10.1094C88.0956 11.4766 87.285 12.4141 86.0057 12.4141C84.7264 12.4141 84.0819 11.623 84.0819 10.2559V4.09375H81.2303V10.8516C81.2303 13.3027 82.5389 14.7773 84.8436 14.7773ZM93.1826 14.5625H96.0341V8.54688C96.0341 7.17969 96.8447 6.24219 98.124 6.24219C99.4033 6.24219 100.048 7.02344 100.048 8.39062V14.5625H102.899V7.80469C102.899 5.35352 101.591 3.87891 99.2861 3.87891C97.7041 3.87891 96.6298 4.61133 96.0927 5.8125H96.0341V4.09375H93.1826V14.5625ZM109.246 14.7773C109.842 14.7773 110.301 14.7188 110.623 14.6699V12.5801C110.447 12.5996 110.262 12.6289 110.008 12.6289C109.149 12.6289 108.709 12.2969 108.709 11.3203V6.24219H110.623V4.09375H108.709V1.53516H105.828V4.09375H104.373V6.24219H105.828V11.6328C105.828 13.8789 106.922 14.7773 109.246 14.7773Z" fill="url(#paint0_linear_3_917)"/>
<defs>
<linearGradient id="paint0_linear_3_917" x1="55.5" y1="-17.9375" x2="44.9542" y2="29.7294" gradientUnits="userSpaceOnUse">
<stop stop-color="#BD7AE3"/>
<stop offset="1" stop-color="#8461C9"/>
</linearGradient>
</defs>
</svg>
