<svg width="35" height="11" viewBox="0 0 35 11" fill="none" xmlns="http://www.w3.org/2000/svg">
<path d="M0.129883 9.90625H1.71045V3.59668H1.81201L6.3125 9.90625H7.72803V0.746582H6.15381V7.05615H6.05225L1.55176 0.746582H0.129883V9.90625ZM11.6407 10.0205C12.5548 10.0205 13.2911 9.62695 13.672 8.9541H13.7799V9.90625H15.3414V5.16455C15.3414 3.69824 14.3385 2.83496 12.5548 2.83496C10.9044 2.83496 9.78719 3.60938 9.63484 4.77734L9.6285 4.83447H11.1202L11.1265 4.80908C11.2852 4.35205 11.755 4.0918 12.4786 4.0918C13.3292 4.0918 13.7799 4.47266 13.7799 5.16455V5.76123L11.9962 5.86914C10.3077 5.9707 9.36189 6.69434 9.36189 7.93213V7.94482C9.36189 9.20801 10.3204 10.0205 11.6407 10.0205ZM10.9234 7.86865V7.85596C10.9234 7.28467 11.336 6.96094 12.2183 6.90381L13.7799 6.80225V7.36084C13.7799 8.18604 13.0753 8.80811 12.1231 8.80811C11.4249 8.80811 10.9234 8.45898 10.9234 7.86865ZM17.1593 9.90625H18.7399V5.68506C18.7399 4.82178 19.3112 4.16162 20.092 4.16162C20.8664 4.16162 21.3424 4.6377 21.3424 5.40576V9.90625H22.923V5.5708C22.923 4.77734 23.4562 4.16162 24.2814 4.16162C25.1256 4.16162 25.5382 4.61865 25.5382 5.52002V9.90625H27.1188V5.13281C27.1188 3.69189 26.2809 2.83496 24.8844 2.83496C23.9196 2.83496 23.1198 3.33008 22.7834 4.08545H22.6754C22.3771 3.31738 21.6916 2.83496 20.7521 2.83496C19.8444 2.83496 19.1462 3.27295 18.8478 4.04736H18.7399V2.96826H17.1593V9.90625ZM31.8821 10.0459C33.7673 10.0459 34.6941 8.96045 34.9163 8.06543L34.9353 8.0083H33.4309L33.4119 8.05273C33.2595 8.37012 32.7707 8.80176 31.9138 8.80176C30.8411 8.80176 30.1682 8.07812 30.1492 6.83398H34.9988V6.31348C34.9988 4.21875 33.78 2.83496 31.8059 2.83496C29.8318 2.83496 28.5686 4.26318 28.5686 6.44678V6.45312C28.5686 8.66211 29.8191 10.0459 31.8821 10.0459ZM31.8249 4.07275C32.7073 4.07275 33.3484 4.6377 33.4563 5.77393H30.1619C30.2825 4.66943 30.9426 4.07275 31.8249 4.07275Z" fill="url(#paint0_linear_3_1251)"/>
<defs>
<linearGradient id="paint0_linear_3_1251" x1="18.347" y1="-12.2122" x2="5.31493" y2="16.748" gradientUnits="userSpaceOnUse">
<stop stop-color="#CDDDF4"/>
<stop offset="1" stop-color="#CDBAFA"/>
</linearGradient>
</defs>
</svg>
