<svg width="136" height="13" viewBox="0 0 136 13" fill="none" xmlns="http://www.w3.org/2000/svg">
<path d="M0.078125 9.90625H1.12109V3.34961H1.21484L5.80273 9.90625H6.82812V1.45117H5.78516V8.03125H5.69141L1.10352 1.45117H0.078125V9.90625ZM11.4336 10.0176C12.9219 10.0176 13.8242 9.17383 14.041 8.31836L14.0527 8.27148H13.0332L13.0098 8.32422C12.8398 8.70508 12.3125 9.10938 11.457 9.10938C10.332 9.10938 9.61133 8.34766 9.58203 7.04102H14.1289V6.64258C14.1289 4.75586 13.0859 3.47852 11.3691 3.47852C9.65234 3.47852 8.53906 4.81445 8.53906 6.76562V6.77148C8.53906 8.75195 9.62891 10.0176 11.4336 10.0176ZM11.3633 4.38672C12.2949 4.38672 12.9863 4.97852 13.0918 6.22656H9.59961C9.71094 5.02539 10.4258 4.38672 11.3633 4.38672ZM16.9297 9.90625H17.9492L19.3555 5.01953H19.4492L20.8613 9.90625H21.8867L23.6562 3.58984H22.6426L21.4004 8.64062H21.3066L19.8945 3.58984H18.9277L17.5156 8.64062H17.4219L16.1797 3.58984H15.1602L16.9297 9.90625ZM30.834 9.90625H31.8887V6.26758L34.8887 1.45117H33.6875L31.4082 5.20703H31.3145L29.0352 1.45117H27.834L30.834 6.26758V9.90625ZM37.8418 10.0176C39.6406 10.0176 40.7539 8.77539 40.7539 6.75391V6.74219C40.7539 4.71484 39.6406 3.47852 37.8418 3.47852C36.043 3.47852 34.9297 4.71484 34.9297 6.74219V6.75391C34.9297 8.77539 36.043 10.0176 37.8418 10.0176ZM37.8418 9.11523C36.6465 9.11523 35.9727 8.24219 35.9727 6.75391V6.74219C35.9727 5.24805 36.6465 4.38086 37.8418 4.38086C39.0371 4.38086 39.7109 5.24805 39.7109 6.74219V6.75391C39.7109 8.24219 39.0371 9.11523 37.8418 9.11523ZM42.3359 9.90625H43.3555V5.99219C43.3555 5.06641 44.0469 4.45117 45.0195 4.45117C45.2422 4.45117 45.4355 4.47461 45.6465 4.50977V3.51953C45.5469 3.50195 45.3301 3.47852 45.1367 3.47852C44.2812 3.47852 43.6895 3.86523 43.4492 4.52734H43.3555V3.58984H42.3359V9.90625ZM46.9648 9.90625H47.9844V7.50977L48.5762 6.93555L50.9434 9.90625H52.2266L49.291 6.24414L52.0449 3.58984H50.8086L48.0781 6.34961H47.9844V1.08203H46.9648V9.90625ZM53.1641 12.0566H53.9199L54.8398 8.72266H53.6738L53.1641 12.0566ZM63.8398 10.1055C65.9375 10.1055 67.1914 8.83984 67.1914 7V1.45117H66.1367V6.92969C66.1367 8.23047 65.3047 9.13281 63.8398 9.13281C62.375 9.13281 61.5312 8.23047 61.5312 6.92969V1.45117H60.4766V7C60.4766 8.83984 61.7422 10.1055 63.8398 10.1055ZM69.207 9.90625H70.2266V6.16797C70.2266 5.06055 70.8652 4.38086 71.873 4.38086C72.8809 4.38086 73.3496 4.92578 73.3496 6.0625V9.90625H74.3691V5.81641C74.3691 4.31641 73.5781 3.47852 72.1602 3.47852C71.2285 3.47852 70.6367 3.87109 70.3203 4.53906H70.2266V3.58984H69.207V9.90625ZM76.7539 2.37109C77.1406 2.37109 77.457 2.05469 77.457 1.66797C77.457 1.28125 77.1406 0.964844 76.7539 0.964844C76.3672 0.964844 76.0508 1.28125 76.0508 1.66797C76.0508 2.05469 76.3672 2.37109 76.7539 2.37109ZM76.2383 9.90625H77.2578V3.58984H76.2383V9.90625ZM81.4238 9.95312C81.623 9.95312 81.8164 9.92969 82.0156 9.89453V9.02734C81.8281 9.04492 81.7285 9.05078 81.5469 9.05078C80.8906 9.05078 80.6328 8.75195 80.6328 8.00781V4.43359H82.0156V3.58984H80.6328V1.95508H79.5781V3.58984H78.582V4.43359H79.5781V8.26562C79.5781 9.47266 80.123 9.95312 81.4238 9.95312ZM86.0234 10.0176C87.5117 10.0176 88.4141 9.17383 88.6309 8.31836L88.6426 8.27148H87.623L87.5996 8.32422C87.4297 8.70508 86.9023 9.10938 86.0469 9.10938C84.9219 9.10938 84.2012 8.34766 84.1719 7.04102H88.7188V6.64258C88.7188 4.75586 87.6758 3.47852 85.959 3.47852C84.2422 3.47852 83.1289 4.81445 83.1289 6.76562V6.77148C83.1289 8.75195 84.2188 10.0176 86.0234 10.0176ZM85.9531 4.38672C86.8848 4.38672 87.5762 4.97852 87.6816 6.22656H84.1895C84.3008 5.02539 85.0156 4.38672 85.9531 4.38672ZM92.6328 10.0176C93.5117 10.0176 94.2148 9.60156 94.6016 8.89844H94.6953V9.90625H95.7148V1.08203H94.6953V4.58594H94.6016C94.2559 3.91211 93.5 3.47852 92.6328 3.47852C91.0273 3.47852 89.9844 4.76172 89.9844 6.74219V6.75391C89.9844 8.72266 91.0332 10.0176 92.6328 10.0176ZM92.8672 9.11523C91.7129 9.11523 91.0273 8.22461 91.0273 6.75391V6.74219C91.0273 5.27148 91.7129 4.38086 92.8672 4.38086C94.0156 4.38086 94.7188 5.2832 94.7188 6.74219V6.75391C94.7188 8.21289 94.0156 9.11523 92.8672 9.11523ZM103.947 10.1055C105.834 10.1055 107.07 9.12109 107.07 7.53906V7.5332C107.07 6.31445 106.373 5.60547 104.609 5.21289L103.672 5.00195C102.523 4.75 102.061 4.29297 102.061 3.61914V3.61328C102.061 2.72852 102.875 2.23047 103.93 2.22461C105.031 2.21875 105.734 2.76953 105.852 3.51367L105.863 3.58984H106.918L106.912 3.50781C106.824 2.24805 105.646 1.25195 103.959 1.25195C102.213 1.25195 100.988 2.24219 100.982 3.64258V3.64844C100.982 4.87305 101.715 5.65234 103.408 6.02734L104.346 6.23242C105.506 6.49023 105.992 6.9707 105.992 7.67383V7.67969C105.992 8.54102 105.154 9.13281 104.006 9.13281C102.787 9.13281 101.908 8.59961 101.832 7.75586L101.826 7.69141H100.771L100.777 7.75586C100.9 9.13281 102.096 10.1055 103.947 10.1055ZM110.943 9.95312C111.143 9.95312 111.336 9.92969 111.535 9.89453V9.02734C111.348 9.04492 111.248 9.05078 111.066 9.05078C110.41 9.05078 110.152 8.75195 110.152 8.00781V4.43359H111.535V3.58984H110.152V1.95508H109.098V3.58984H108.102V4.43359H109.098V8.26562C109.098 9.47266 109.643 9.95312 110.943 9.95312ZM114.793 10.0176C115.643 10.0176 116.305 9.64844 116.703 8.97461H116.797V9.90625H117.816V5.58203C117.816 4.26953 116.955 3.47852 115.414 3.47852C114.066 3.47852 113.105 4.14648 112.941 5.13672L112.936 5.17188H113.955L113.961 5.1543C114.125 4.66211 114.623 4.38086 115.379 4.38086C116.322 4.38086 116.797 4.80273 116.797 5.58203V6.15625L114.986 6.26758C113.516 6.35547 112.684 7.00586 112.684 8.13086V8.14258C112.684 9.29102 113.592 10.0176 114.793 10.0176ZM113.727 8.11914V8.10742C113.727 7.48047 114.148 7.14062 115.109 7.08203L116.797 6.97656V7.55078C116.797 8.45312 116.041 9.13281 115.004 9.13281C114.271 9.13281 113.727 8.75781 113.727 8.11914ZM121.924 9.95312C122.123 9.95312 122.316 9.92969 122.516 9.89453V9.02734C122.328 9.04492 122.229 9.05078 122.047 9.05078C121.391 9.05078 121.133 8.75195 121.133 8.00781V4.43359H122.516V3.58984H121.133V1.95508H120.078V3.58984H119.082V4.43359H120.078V8.26562C120.078 9.47266 120.623 9.95312 121.924 9.95312ZM126.523 10.0176C128.012 10.0176 128.914 9.17383 129.131 8.31836L129.143 8.27148H128.123L128.1 8.32422C127.93 8.70508 127.402 9.10938 126.547 9.10938C125.422 9.10938 124.701 8.34766 124.672 7.04102H129.219V6.64258C129.219 4.75586 128.176 3.47852 126.459 3.47852C124.742 3.47852 123.629 4.81445 123.629 6.76562V6.77148C123.629 8.75195 124.719 10.0176 126.523 10.0176ZM126.453 4.38672C127.385 4.38672 128.076 4.97852 128.182 6.22656H124.689C124.801 5.02539 125.516 4.38672 126.453 4.38672ZM132.969 10.0176C134.404 10.0176 135.5 9.23828 135.5 8.11328V8.10156C135.5 7.19922 134.926 6.68359 133.736 6.39648L132.764 6.16211C132.02 5.98047 131.703 5.71094 131.703 5.2832V5.27148C131.703 4.71484 132.254 4.32812 133.004 4.32812C133.766 4.32812 134.258 4.67383 134.393 5.17188H135.395C135.254 4.14062 134.334 3.47852 133.01 3.47852C131.668 3.47852 130.66 4.26953 130.66 5.31836V5.32422C130.66 6.23242 131.193 6.74805 132.377 7.0293L133.355 7.26367C134.135 7.45117 134.457 7.75 134.457 8.17773V8.18945C134.457 8.76367 133.854 9.16797 133.004 9.16797C132.195 9.16797 131.691 8.82227 131.521 8.29492H130.479C130.596 9.33789 131.562 10.0176 132.969 10.0176Z" fill="url(#paint0_linear_3_1430)"/>
<defs>
<linearGradient id="paint0_linear_3_1430" x1="65.7472" y1="-9.31015" x2="62.2058" y2="21.2345" gradientUnits="userSpaceOnUse">
<stop stop-color="#CDDDF4"/>
<stop offset="1" stop-color="#CDBAFA"/>
</linearGradient>
</defs>
</svg>
