<svg width="333" height="43" viewBox="0 0 333 43" fill="none" xmlns="http://www.w3.org/2000/svg">
<path d="M1.07812 9.90625H2.12109V3.34961H2.21484L6.80273 9.90625H7.82812V1.45117H6.78516V8.03125H6.69141L2.10352 1.45117H1.07812V9.90625ZM12.4512 10.0176C14.25 10.0176 15.3633 8.77539 15.3633 6.75391V6.74219C15.3633 4.71484 14.25 3.47852 12.4512 3.47852C10.6523 3.47852 9.53906 4.71484 9.53906 6.74219V6.75391C9.53906 8.77539 10.6523 10.0176 12.4512 10.0176ZM12.4512 9.11523C11.2559 9.11523 10.582 8.24219 10.582 6.75391V6.74219C10.582 5.24805 11.2559 4.38086 12.4512 4.38086C13.6465 4.38086 14.3203 5.24805 14.3203 6.74219V6.75391C14.3203 8.24219 13.6465 9.11523 12.4512 9.11523ZM19.1895 9.95312C19.3887 9.95312 19.582 9.92969 19.7812 9.89453V9.02734C19.5938 9.04492 19.4941 9.05078 19.3125 9.05078C18.6562 9.05078 18.3984 8.75195 18.3984 8.00781V4.43359H19.7812V3.58984H18.3984V1.95508H17.3438V3.58984H16.3477V4.43359H17.3438V8.26562C17.3438 9.47266 17.8887 9.95312 19.1895 9.95312ZM21.8438 2.37109C22.2305 2.37109 22.5469 2.05469 22.5469 1.66797C22.5469 1.28125 22.2305 0.964844 21.8438 0.964844C21.457 0.964844 21.1406 1.28125 21.1406 1.66797C21.1406 2.05469 21.457 2.37109 21.8438 2.37109ZM21.3281 9.90625H22.3477V3.58984H21.3281V9.90625ZM24.6914 9.90625H25.7109V4.43359H27.1465V3.58984H25.7109V2.91602C25.7109 2.22461 26.0039 1.86719 26.7305 1.86719C26.9121 1.86719 27.082 1.87305 27.2051 1.89648V1.08203C26.9941 1.04102 26.7715 1.02344 26.5254 1.02344C25.3242 1.02344 24.6914 1.62695 24.6914 2.88672V3.58984H23.6426V4.43359H24.6914V9.90625ZM29.1562 2.37109C29.543 2.37109 29.8594 2.05469 29.8594 1.66797C29.8594 1.28125 29.543 0.964844 29.1562 0.964844C28.7695 0.964844 28.4531 1.28125 28.4531 1.66797C28.4531 2.05469 28.7695 2.37109 29.1562 2.37109ZM28.6406 9.90625H29.6602V3.58984H28.6406V9.90625ZM34.166 10.0176C35.6836 10.0176 36.5332 9.20312 36.791 8.06055L36.8027 7.99609L35.7949 8.00195L35.7832 8.03711C35.5488 8.74023 35.0098 9.11523 34.1602 9.11523C33.0352 9.11523 32.3086 8.18359 32.3086 6.73047V6.71875C32.3086 5.29492 33.0234 4.38086 34.1602 4.38086C35.0684 4.38086 35.6309 4.88477 35.7891 5.50586L35.7949 5.52344H36.8086L36.8027 5.48828C36.6152 4.36328 35.6953 3.47852 34.1602 3.47852C32.3906 3.47852 31.2656 4.75586 31.2656 6.71875V6.73047C31.2656 8.73438 32.3965 10.0176 34.166 10.0176ZM40.0312 10.0176C40.8809 10.0176 41.543 9.64844 41.9414 8.97461H42.0352V9.90625H43.0547V5.58203C43.0547 4.26953 42.1934 3.47852 40.6523 3.47852C39.3047 3.47852 38.3438 4.14648 38.1797 5.13672L38.1738 5.17188H39.1934L39.1992 5.1543C39.3633 4.66211 39.8613 4.38086 40.6172 4.38086C41.5605 4.38086 42.0352 4.80273 42.0352 5.58203V6.15625L40.2246 6.26758C38.7539 6.35547 37.9219 7.00586 37.9219 8.13086V8.14258C37.9219 9.29102 38.8301 10.0176 40.0312 10.0176ZM38.9648 8.11914V8.10742C38.9648 7.48047 39.3867 7.14062 40.3477 7.08203L42.0352 6.97656V7.55078C42.0352 8.45312 41.2793 9.13281 40.2422 9.13281C39.5098 9.13281 38.9648 8.75781 38.9648 8.11914ZM47.1621 9.95312C47.3613 9.95312 47.5547 9.92969 47.7539 9.89453V9.02734C47.5664 9.04492 47.4668 9.05078 47.2852 9.05078C46.6289 9.05078 46.3711 8.75195 46.3711 8.00781V4.43359H47.7539V3.58984H46.3711V1.95508H45.3164V3.58984H44.3203V4.43359H45.3164V8.26562C45.3164 9.47266 45.8613 9.95312 47.1621 9.95312ZM49.8164 2.37109C50.2031 2.37109 50.5195 2.05469 50.5195 1.66797C50.5195 1.28125 50.2031 0.964844 49.8164 0.964844C49.4297 0.964844 49.1133 1.28125 49.1133 1.66797C49.1133 2.05469 49.4297 2.37109 49.8164 2.37109ZM49.3008 9.90625H50.3203V3.58984H49.3008V9.90625ZM54.8379 10.0176C56.6367 10.0176 57.75 8.77539 57.75 6.75391V6.74219C57.75 4.71484 56.6367 3.47852 54.8379 3.47852C53.0391 3.47852 51.9258 4.71484 51.9258 6.74219V6.75391C51.9258 8.77539 53.0391 10.0176 54.8379 10.0176ZM54.8379 9.11523C53.6426 9.11523 52.9688 8.24219 52.9688 6.75391V6.74219C52.9688 5.24805 53.6426 4.38086 54.8379 4.38086C56.0332 4.38086 56.707 5.24805 56.707 6.74219V6.75391C56.707 8.24219 56.0332 9.11523 54.8379 9.11523ZM59.332 9.90625H60.3516V6.16797C60.3516 5.06055 60.9902 4.38086 61.998 4.38086C63.0059 4.38086 63.4746 4.92578 63.4746 6.0625V9.90625H64.4941V5.81641C64.4941 4.31641 63.7031 3.47852 62.2852 3.47852C61.3535 3.47852 60.7617 3.87109 60.4453 4.53906H60.3516V3.58984H59.332V9.90625ZM68.5078 10.0176C69.9434 10.0176 71.0391 9.23828 71.0391 8.11328V8.10156C71.0391 7.19922 70.4648 6.68359 69.2754 6.39648L68.3027 6.16211C67.5586 5.98047 67.2422 5.71094 67.2422 5.2832V5.27148C67.2422 4.71484 67.793 4.32812 68.543 4.32812C69.3047 4.32812 69.7969 4.67383 69.9316 5.17188H70.9336C70.793 4.14062 69.873 3.47852 68.5488 3.47852C67.207 3.47852 66.1992 4.26953 66.1992 5.31836V5.32422C66.1992 6.23242 66.7324 6.74805 67.916 7.0293L68.8945 7.26367C69.6738 7.45117 69.9961 7.75 69.9961 8.17773V8.18945C69.9961 8.76367 69.3926 9.16797 68.543 9.16797C67.7344 9.16797 67.2305 8.82227 67.0605 8.29492H66.0176C66.1348 9.33789 67.1016 10.0176 68.5078 10.0176ZM75.9961 12.0156H77.0156V8.91016H77.1094C77.4551 9.58398 78.2109 10.0176 79.0781 10.0176C80.6836 10.0176 81.7266 8.73438 81.7266 6.75391V6.74219C81.7266 4.77344 80.6777 3.47852 79.0781 3.47852C78.1992 3.47852 77.4961 3.89453 77.1094 4.59766H77.0156V3.58984H75.9961V12.0156ZM78.8438 9.11523C77.6953 9.11523 76.9922 8.21289 76.9922 6.75391V6.74219C76.9922 5.2832 77.6953 4.38086 78.8438 4.38086C79.998 4.38086 80.6836 5.27148 80.6836 6.74219V6.75391C80.6836 8.22461 79.998 9.11523 78.8438 9.11523ZM83.3203 9.90625H84.3398V5.99219C84.3398 5.06641 85.0312 4.45117 86.0039 4.45117C86.2266 4.45117 86.4199 4.47461 86.6309 4.50977V3.51953C86.5312 3.50195 86.3145 3.47852 86.1211 3.47852C85.2656 3.47852 84.6738 3.86523 84.4336 4.52734H84.3398V3.58984H83.3203V9.90625ZM90.293 10.0176C91.7812 10.0176 92.6836 9.17383 92.9004 8.31836L92.9121 8.27148H91.8926L91.8691 8.32422C91.6992 8.70508 91.1719 9.10938 90.3164 9.10938C89.1914 9.10938 88.4707 8.34766 88.4414 7.04102H92.9883V6.64258C92.9883 4.75586 91.9453 3.47852 90.2285 3.47852C88.5117 3.47852 87.3984 4.81445 87.3984 6.76562V6.77148C87.3984 8.75195 88.4883 10.0176 90.293 10.0176ZM90.2227 4.38672C91.1543 4.38672 91.8457 4.97852 91.9512 6.22656H88.459C88.5703 5.02539 89.2852 4.38672 90.2227 4.38672ZM96.2402 9.90625H97.2715L99.6094 3.58984H98.5312L96.8027 8.79297H96.709L94.9805 3.58984H93.9023L96.2402 9.90625ZM101.496 2.37109C101.883 2.37109 102.199 2.05469 102.199 1.66797C102.199 1.28125 101.883 0.964844 101.496 0.964844C101.109 0.964844 100.793 1.28125 100.793 1.66797C100.793 2.05469 101.109 2.37109 101.496 2.37109ZM100.98 9.90625H102V3.58984H100.98V9.90625ZM106.5 10.0176C107.988 10.0176 108.891 9.17383 109.107 8.31836L109.119 8.27148H108.1L108.076 8.32422C107.906 8.70508 107.379 9.10938 106.523 9.10938C105.398 9.10938 104.678 8.34766 104.648 7.04102H109.195V6.64258C109.195 4.75586 108.152 3.47852 106.436 3.47852C104.719 3.47852 103.605 4.81445 103.605 6.76562V6.77148C103.605 8.75195 104.695 10.0176 106.5 10.0176ZM106.43 4.38672C107.361 4.38672 108.053 4.97852 108.158 6.22656H104.666C104.777 5.02539 105.492 4.38672 106.43 4.38672ZM111.996 9.90625H113.016L114.422 5.01953H114.516L115.928 9.90625H116.953L118.723 3.58984H117.709L116.467 8.64062H116.373L114.961 3.58984H113.994L112.582 8.64062H112.488L111.246 3.58984H110.227L111.996 9.90625ZM122.062 10.0176C123.498 10.0176 124.594 9.23828 124.594 8.11328V8.10156C124.594 7.19922 124.02 6.68359 122.83 6.39648L121.857 6.16211C121.113 5.98047 120.797 5.71094 120.797 5.2832V5.27148C120.797 4.71484 121.348 4.32812 122.098 4.32812C122.859 4.32812 123.352 4.67383 123.486 5.17188H124.488C124.348 4.14062 123.428 3.47852 122.104 3.47852C120.762 3.47852 119.754 4.26953 119.754 5.31836V5.32422C119.754 6.23242 120.287 6.74805 121.471 7.0293L122.449 7.26367C123.229 7.45117 123.551 7.75 123.551 8.17773V8.18945C123.551 8.76367 122.947 9.16797 122.098 9.16797C121.289 9.16797 120.785 8.82227 120.615 8.29492H119.572C119.689 9.33789 120.656 10.0176 122.062 10.0176ZM130.77 9.90625H131.789L133.195 5.01953H133.289L134.701 9.90625H135.727L137.496 3.58984H136.482L135.24 8.64062H135.146L133.734 3.58984H132.768L131.355 8.64062H131.262L130.02 3.58984H129L130.77 9.90625ZM139.383 2.37109C139.77 2.37109 140.086 2.05469 140.086 1.66797C140.086 1.28125 139.77 0.964844 139.383 0.964844C138.996 0.964844 138.68 1.28125 138.68 1.66797C138.68 2.05469 138.996 2.37109 139.383 2.37109ZM138.867 9.90625H139.887V3.58984H138.867V9.90625ZM141.867 9.90625H142.887V1.08203H141.867V9.90625ZM144.902 9.90625H145.922V1.08203H144.902V9.90625ZM154.395 10.0176C155.994 10.0176 157.043 8.72266 157.043 6.75391V6.74219C157.043 4.76172 156 3.47852 154.395 3.47852C153.527 3.47852 152.771 3.91211 152.426 4.58594H152.332V1.08203H151.312V9.90625H152.332V8.89844H152.426C152.812 9.60156 153.516 10.0176 154.395 10.0176ZM154.16 9.11523C153.012 9.11523 152.309 8.21289 152.309 6.75391V6.74219C152.309 5.2832 153.012 4.38086 154.16 4.38086C155.314 4.38086 156 5.27148 156 6.74219V6.75391C156 8.22461 155.314 9.11523 154.16 9.11523ZM161.203 10.0176C162.691 10.0176 163.594 9.17383 163.811 8.31836L163.822 8.27148H162.803L162.779 8.32422C162.609 8.70508 162.082 9.10938 161.227 9.10938C160.102 9.10938 159.381 8.34766 159.352 7.04102H163.898V6.64258C163.898 4.75586 162.855 3.47852 161.139 3.47852C159.422 3.47852 158.309 4.81445 158.309 6.76562V6.77148C158.309 8.75195 159.398 10.0176 161.203 10.0176ZM161.133 4.38672C162.064 4.38672 162.756 4.97852 162.861 6.22656H159.369C159.48 5.02539 160.195 4.38672 161.133 4.38672ZM171.023 10.0176C172.459 10.0176 173.555 9.23828 173.555 8.11328V8.10156C173.555 7.19922 172.98 6.68359 171.791 6.39648L170.818 6.16211C170.074 5.98047 169.758 5.71094 169.758 5.2832V5.27148C169.758 4.71484 170.309 4.32812 171.059 4.32812C171.82 4.32812 172.312 4.67383 172.447 5.17188H173.449C173.309 4.14062 172.389 3.47852 171.064 3.47852C169.723 3.47852 168.715 4.26953 168.715 5.31836V5.32422C168.715 6.23242 169.248 6.74805 170.432 7.0293L171.41 7.26367C172.189 7.45117 172.512 7.75 172.512 8.17773V8.18945C172.512 8.76367 171.908 9.16797 171.059 9.16797C170.25 9.16797 169.746 8.82227 169.576 8.29492H168.533C168.65 9.33789 169.617 10.0176 171.023 10.0176ZM175.195 9.90625H176.215V6.16797C176.215 5.06055 176.854 4.38086 177.861 4.38086C178.869 4.38086 179.338 4.92578 179.338 6.0625V9.90625H180.357V5.81641C180.357 4.31641 179.566 3.47852 178.148 3.47852C177.217 3.47852 176.625 3.87109 176.309 4.53906H176.215V1.08203H175.195V9.90625ZM184.799 10.0176C186.598 10.0176 187.711 8.77539 187.711 6.75391V6.74219C187.711 4.71484 186.598 3.47852 184.799 3.47852C183 3.47852 181.887 4.71484 181.887 6.74219V6.75391C181.887 8.77539 183 10.0176 184.799 10.0176ZM184.799 9.11523C183.604 9.11523 182.93 8.24219 182.93 6.75391V6.74219C182.93 5.24805 183.604 4.38086 184.799 4.38086C185.994 4.38086 186.668 5.24805 186.668 6.74219V6.75391C186.668 8.24219 185.994 9.11523 184.799 9.11523ZM190.277 9.90625H191.297L192.703 5.01953H192.797L194.209 9.90625H195.234L197.004 3.58984H195.99L194.748 8.64062H194.654L193.242 3.58984H192.275L190.863 8.64062H190.77L189.527 3.58984H188.508L190.277 9.90625ZM198.352 9.90625H199.371V6.16797C199.371 5.06055 200.01 4.38086 201.018 4.38086C202.025 4.38086 202.494 4.92578 202.494 6.0625V9.90625H203.514V5.81641C203.514 4.31641 202.723 3.47852 201.305 3.47852C200.373 3.47852 199.781 3.87109 199.465 4.53906H199.371V3.58984H198.352V9.90625ZM209.953 9.90625H210.973L212.379 5.01953H212.473L213.885 9.90625H214.91L216.68 3.58984H215.666L214.424 8.64062H214.33L212.918 3.58984H211.951L210.539 8.64062H210.445L209.203 3.58984H208.184L209.953 9.90625ZM218.086 9.90625H219.105V6.16797C219.105 5.06055 219.744 4.38086 220.752 4.38086C221.76 4.38086 222.229 4.92578 222.229 6.0625V9.90625H223.248V5.81641C223.248 4.31641 222.457 3.47852 221.039 3.47852C220.107 3.47852 219.516 3.87109 219.199 4.53906H219.105V1.08203H218.086V9.90625ZM227.672 10.0176C229.16 10.0176 230.062 9.17383 230.279 8.31836L230.291 8.27148H229.271L229.248 8.32422C229.078 8.70508 228.551 9.10938 227.695 9.10938C226.57 9.10938 225.85 8.34766 225.82 7.04102H230.367V6.64258C230.367 4.75586 229.324 3.47852 227.607 3.47852C225.891 3.47852 224.777 4.81445 224.777 6.76562V6.77148C224.777 8.75195 225.867 10.0176 227.672 10.0176ZM227.602 4.38672C228.533 4.38672 229.225 4.97852 229.33 6.22656H225.838C225.949 5.02539 226.664 4.38672 227.602 4.38672ZM234.193 9.95312C234.393 9.95312 234.586 9.92969 234.785 9.89453V9.02734C234.598 9.04492 234.498 9.05078 234.316 9.05078C233.66 9.05078 233.402 8.75195 233.402 8.00781V4.43359H234.785V3.58984H233.402V1.95508H232.348V3.58984H231.352V4.43359H232.348V8.26562C232.348 9.47266 232.893 9.95312 234.193 9.95312ZM236.367 9.90625H237.387V6.16797C237.387 5.06055 238.025 4.38086 239.033 4.38086C240.041 4.38086 240.51 4.92578 240.51 6.0625V9.90625H241.529V5.81641C241.529 4.31641 240.738 3.47852 239.32 3.47852C238.389 3.47852 237.797 3.87109 237.48 4.53906H237.387V1.08203H236.367V9.90625ZM245.953 10.0176C247.441 10.0176 248.344 9.17383 248.561 8.31836L248.572 8.27148H247.553L247.529 8.32422C247.359 8.70508 246.832 9.10938 245.977 9.10938C244.852 9.10938 244.131 8.34766 244.102 7.04102H248.648V6.64258C248.648 4.75586 247.605 3.47852 245.889 3.47852C244.172 3.47852 243.059 4.81445 243.059 6.76562V6.77148C243.059 8.75195 244.148 10.0176 245.953 10.0176ZM245.883 4.38672C246.814 4.38672 247.506 4.97852 247.611 6.22656H244.119C244.23 5.02539 244.945 4.38672 245.883 4.38672ZM250.23 9.90625H251.25V5.99219C251.25 5.06641 251.941 4.45117 252.914 4.45117C253.137 4.45117 253.33 4.47461 253.541 4.50977V3.51953C253.441 3.50195 253.225 3.47852 253.031 3.47852C252.176 3.47852 251.584 3.86523 251.344 4.52734H251.25V3.58984H250.23V9.90625ZM260.42 9.95312C260.619 9.95312 260.812 9.92969 261.012 9.89453V9.02734C260.824 9.04492 260.725 9.05078 260.543 9.05078C259.887 9.05078 259.629 8.75195 259.629 8.00781V4.43359H261.012V3.58984H259.629V1.95508H258.574V3.58984H257.578V4.43359H258.574V8.26562C258.574 9.47266 259.119 9.95312 260.42 9.95312ZM262.594 9.90625H263.613V6.16797C263.613 5.06055 264.252 4.38086 265.26 4.38086C266.268 4.38086 266.736 4.92578 266.736 6.0625V9.90625H267.756V5.81641C267.756 4.31641 266.965 3.47852 265.547 3.47852C264.615 3.47852 264.023 3.87109 263.707 4.53906H263.613V1.08203H262.594V9.90625ZM272.18 10.0176C273.668 10.0176 274.57 9.17383 274.787 8.31836L274.799 8.27148H273.779L273.756 8.32422C273.586 8.70508 273.059 9.10938 272.203 9.10938C271.078 9.10938 270.357 8.34766 270.328 7.04102H274.875V6.64258C274.875 4.75586 273.832 3.47852 272.115 3.47852C270.398 3.47852 269.285 4.81445 269.285 6.76562V6.77148C269.285 8.75195 270.375 10.0176 272.18 10.0176ZM272.109 4.38672C273.041 4.38672 273.732 4.97852 273.838 6.22656H270.346C270.457 5.02539 271.172 4.38672 272.109 4.38672ZM279.832 12.0156H280.852V8.91016H280.945C281.291 9.58398 282.047 10.0176 282.914 10.0176C284.52 10.0176 285.562 8.73438 285.562 6.75391V6.74219C285.562 4.77344 284.514 3.47852 282.914 3.47852C282.035 3.47852 281.332 3.89453 280.945 4.59766H280.852V3.58984H279.832V12.0156ZM282.68 9.11523C281.531 9.11523 280.828 8.21289 280.828 6.75391V6.74219C280.828 5.2832 281.531 4.38086 282.68 4.38086C283.834 4.38086 284.52 5.27148 284.52 6.74219V6.75391C284.52 8.22461 283.834 9.11523 282.68 9.11523ZM287.215 9.90625H288.234V6.16797C288.234 5.06055 288.873 4.38086 289.881 4.38086C290.889 4.38086 291.357 4.92578 291.357 6.0625V9.90625H292.377V5.81641C292.377 4.31641 291.586 3.47852 290.168 3.47852C289.236 3.47852 288.645 3.87109 288.328 4.53906H288.234V1.08203H287.215V9.90625ZM296.818 10.0176C298.617 10.0176 299.73 8.77539 299.73 6.75391V6.74219C299.73 4.71484 298.617 3.47852 296.818 3.47852C295.02 3.47852 293.906 4.71484 293.906 6.74219V6.75391C293.906 8.77539 295.02 10.0176 296.818 10.0176ZM296.818 9.11523C295.623 9.11523 294.949 8.24219 294.949 6.75391V6.74219C294.949 5.24805 295.623 4.38086 296.818 4.38086C298.014 4.38086 298.688 5.24805 298.688 6.74219V6.75391C298.688 8.24219 298.014 9.11523 296.818 9.11523ZM301.312 9.90625H302.332V6.16797C302.332 5.06055 302.971 4.38086 303.979 4.38086C304.986 4.38086 305.455 4.92578 305.455 6.0625V9.90625H306.475V5.81641C306.475 4.31641 305.684 3.47852 304.266 3.47852C303.334 3.47852 302.742 3.87109 302.426 4.53906H302.332V3.58984H301.312V9.90625ZM310.898 10.0176C312.387 10.0176 313.289 9.17383 313.506 8.31836L313.518 8.27148H312.498L312.475 8.32422C312.305 8.70508 311.777 9.10938 310.922 9.10938C309.797 9.10938 309.076 8.34766 309.047 7.04102H313.594V6.64258C313.594 4.75586 312.551 3.47852 310.834 3.47852C309.117 3.47852 308.004 4.81445 308.004 6.76562V6.77148C308.004 8.75195 309.094 10.0176 310.898 10.0176ZM310.828 4.38672C311.76 4.38672 312.451 4.97852 312.557 6.22656H309.064C309.176 5.02539 309.891 4.38672 310.828 4.38672ZM319.09 2.37109C319.477 2.37109 319.793 2.05469 319.793 1.66797C319.793 1.28125 319.477 0.964844 319.09 0.964844C318.703 0.964844 318.387 1.28125 318.387 1.66797C318.387 2.05469 318.703 2.37109 319.09 2.37109ZM318.574 9.90625H319.594V3.58984H318.574V9.90625ZM323.684 10.0176C325.119 10.0176 326.215 9.23828 326.215 8.11328V8.10156C326.215 7.19922 325.641 6.68359 324.451 6.39648L323.479 6.16211C322.734 5.98047 322.418 5.71094 322.418 5.2832V5.27148C322.418 4.71484 322.969 4.32812 323.719 4.32812C324.48 4.32812 324.973 4.67383 325.107 5.17188H326.109C325.969 4.14062 325.049 3.47852 323.725 3.47852C322.383 3.47852 321.375 4.26953 321.375 5.31836V5.32422C321.375 6.23242 321.908 6.74805 323.092 7.0293L324.07 7.26367C324.85 7.45117 325.172 7.75 325.172 8.17773V8.18945C325.172 8.76367 324.568 9.16797 323.719 9.16797C322.91 9.16797 322.406 8.82227 322.236 8.29492H321.193C321.311 9.33789 322.277 10.0176 323.684 10.0176ZM1.00781 25.9062H2.02734V17.082H1.00781V25.9062ZM6.58008 26.0176C8.37891 26.0176 9.49219 24.7754 9.49219 22.7539V22.7422C9.49219 20.7148 8.37891 19.4785 6.58008 19.4785C4.78125 19.4785 3.66797 20.7148 3.66797 22.7422V22.7539C3.66797 24.7754 4.78125 26.0176 6.58008 26.0176ZM6.58008 25.1152C5.38477 25.1152 4.71094 24.2422 4.71094 22.7539V22.7422C4.71094 21.248 5.38477 20.3809 6.58008 20.3809C7.77539 20.3809 8.44922 21.248 8.44922 22.7422V22.7539C8.44922 24.2422 7.77539 25.1152 6.58008 25.1152ZM13.6582 26.0176C15.1758 26.0176 16.0254 25.2031 16.2832 24.0605L16.2949 23.9961L15.2871 24.002L15.2754 24.0371C15.041 24.7402 14.502 25.1152 13.6523 25.1152C12.5273 25.1152 11.8008 24.1836 11.8008 22.7305V22.7188C11.8008 21.2949 12.5156 20.3809 13.6523 20.3809C14.5605 20.3809 15.123 20.8848 15.2812 21.5059L15.2871 21.5234H16.3008L16.2949 21.4883C16.1074 20.3633 15.1875 19.4785 13.6523 19.4785C11.8828 19.4785 10.7578 20.7559 10.7578 22.7188V22.7305C10.7578 24.7344 11.8887 26.0176 13.6582 26.0176ZM17.8477 25.9062H18.8672V23.5098L19.459 22.9355L21.8262 25.9062H23.1094L20.1738 22.2441L22.9277 19.5898H21.6914L18.9609 22.3496H18.8672V17.082H17.8477V25.9062ZM26.5898 26.0176C28.0781 26.0176 28.9805 25.1738 29.1973 24.3184L29.209 24.2715H28.1895L28.166 24.3242C27.9961 24.7051 27.4688 25.1094 26.6133 25.1094C25.4883 25.1094 24.7676 24.3477 24.7383 23.041H29.2852V22.6426C29.2852 20.7559 28.2422 19.4785 26.5254 19.4785C24.8086 19.4785 23.6953 20.8145 23.6953 22.7656V22.7715C23.6953 24.752 24.7852 26.0176 26.5898 26.0176ZM26.5195 20.3867C27.4512 20.3867 28.1426 20.9785 28.248 22.2266H24.7559C24.8672 21.0254 25.582 20.3867 26.5195 20.3867ZM33.1992 26.0176C34.0781 26.0176 34.7812 25.6016 35.168 24.8984H35.2617V25.9062H36.2812V17.082H35.2617V20.5859H35.168C34.8223 19.9121 34.0664 19.4785 33.1992 19.4785C31.5938 19.4785 30.5508 20.7617 30.5508 22.7422V22.7539C30.5508 24.7227 31.5996 26.0176 33.1992 26.0176ZM33.4336 25.1152C32.2793 25.1152 31.5938 24.2246 31.5938 22.7539V22.7422C31.5938 21.2715 32.2793 20.3809 33.4336 20.3809C34.582 20.3809 35.2852 21.2832 35.2852 22.7422V22.7539C35.2852 24.2129 34.582 25.1152 33.4336 25.1152ZM44.209 26.0176C46.0078 26.0176 47.1211 24.7754 47.1211 22.7539V22.7422C47.1211 20.7148 46.0078 19.4785 44.209 19.4785C42.4102 19.4785 41.2969 20.7148 41.2969 22.7422V22.7539C41.2969 24.7754 42.4102 26.0176 44.209 26.0176ZM44.209 25.1152C43.0137 25.1152 42.3398 24.2422 42.3398 22.7539V22.7422C42.3398 21.248 43.0137 20.3809 44.209 20.3809C45.4043 20.3809 46.0781 21.248 46.0781 22.7422V22.7539C46.0781 24.2422 45.4043 25.1152 44.209 25.1152ZM48.7031 25.9062H49.7227V21.9922C49.7227 21.0664 50.4141 20.4512 51.3867 20.4512C51.6094 20.4512 51.8027 20.4746 52.0137 20.5098V19.5195C51.9141 19.502 51.6973 19.4785 51.5039 19.4785C50.6484 19.4785 50.0566 19.8652 49.8164 20.5273H49.7227V19.5898H48.7031V25.9062ZM58.7637 26.0176C59.6895 26.0176 60.3281 25.6367 60.6387 24.9629H60.7324V25.9062H61.752V19.5898H60.7324V23.3281C60.7324 24.4355 60.1406 25.1152 59.0273 25.1152C58.0195 25.1152 57.6094 24.5703 57.6094 23.4336V19.5898H56.5898V23.6797C56.5898 25.1738 57.3281 26.0176 58.7637 26.0176ZM63.6562 25.9062H64.6758V22.168C64.6758 21.0605 65.3145 20.3809 66.3223 20.3809C67.3301 20.3809 67.7988 20.9258 67.7988 22.0625V25.9062H68.8184V21.8164C68.8184 20.3164 68.0273 19.4785 66.6094 19.4785C65.6777 19.4785 65.0859 19.8711 64.7695 20.5391H64.6758V19.5898H63.6562V25.9062ZM70.7227 25.9062H71.7422V17.082H70.7227V25.9062ZM76.2949 26.0176C78.0938 26.0176 79.207 24.7754 79.207 22.7539V22.7422C79.207 20.7148 78.0938 19.4785 76.2949 19.4785C74.4961 19.4785 73.3828 20.7148 73.3828 22.7422V22.7539C73.3828 24.7754 74.4961 26.0176 76.2949 26.0176ZM76.2949 25.1152C75.0996 25.1152 74.4258 24.2422 74.4258 22.7539V22.7422C74.4258 21.248 75.0996 20.3809 76.2949 20.3809C77.4902 20.3809 78.1641 21.248 78.1641 22.7422V22.7539C78.1641 24.2422 77.4902 25.1152 76.2949 25.1152ZM83.373 26.0176C84.8906 26.0176 85.7402 25.2031 85.998 24.0605L86.0098 23.9961L85.002 24.002L84.9902 24.0371C84.7559 24.7402 84.2168 25.1152 83.3672 25.1152C82.2422 25.1152 81.5156 24.1836 81.5156 22.7305V22.7188C81.5156 21.2949 82.2305 20.3809 83.3672 20.3809C84.2754 20.3809 84.8379 20.8848 84.9961 21.5059L85.002 21.5234H86.0156L86.0098 21.4883C85.8223 20.3633 84.9023 19.4785 83.3672 19.4785C81.5977 19.4785 80.4727 20.7559 80.4727 22.7188V22.7305C80.4727 24.7344 81.6035 26.0176 83.373 26.0176ZM87.5625 25.9062H88.582V23.5098L89.1738 22.9355L91.541 25.9062H92.8242L89.8887 22.2441L92.6426 19.5898H91.4062L88.6758 22.3496H88.582V17.082H87.5625V25.9062ZM96.3047 26.0176C97.793 26.0176 98.6953 25.1738 98.9121 24.3184L98.9238 24.2715H97.9043L97.8809 24.3242C97.7109 24.7051 97.1836 25.1094 96.3281 25.1094C95.2031 25.1094 94.4824 24.3477 94.4531 23.041H99V22.6426C99 20.7559 97.957 19.4785 96.2402 19.4785C94.5234 19.4785 93.4102 20.8145 93.4102 22.7656V22.7715C93.4102 24.752 94.5 26.0176 96.3047 26.0176ZM96.2344 20.3867C97.166 20.3867 97.8574 20.9785 97.9629 22.2266H94.4707C94.582 21.0254 95.2969 20.3867 96.2344 20.3867ZM102.914 26.0176C103.793 26.0176 104.496 25.6016 104.883 24.8984H104.977V25.9062H105.996V17.082H104.977V20.5859H104.883C104.537 19.9121 103.781 19.4785 102.914 19.4785C101.309 19.4785 100.266 20.7617 100.266 22.7422V22.7539C100.266 24.7227 101.314 26.0176 102.914 26.0176ZM103.148 25.1152C101.994 25.1152 101.309 24.2246 101.309 22.7539V22.7422C101.309 21.2715 101.994 20.3809 103.148 20.3809C104.297 20.3809 105 21.2832 105 22.7422V22.7539C105 24.2129 104.297 25.1152 103.148 25.1152ZM108.785 25.9648C109.207 25.9648 109.547 25.6191 109.547 25.2031C109.547 24.7812 109.207 24.4414 108.785 24.4414C108.369 24.4414 108.023 24.7812 108.023 25.2031C108.023 25.6191 108.369 25.9648 108.785 25.9648ZM114.346 25.9062H115.453L116.303 23.4863H119.666L120.516 25.9062H121.623L118.506 17.4512H117.463L114.346 25.9062ZM117.938 18.8164H118.031L119.355 22.5898H116.613L117.938 18.8164ZM123.035 25.9062H124.055V17.082H123.035V25.9062ZM128.59 26.0176C130.078 26.0176 130.98 25.1738 131.197 24.3184L131.209 24.2715H130.189L130.166 24.3242C129.996 24.7051 129.469 25.1094 128.613 25.1094C127.488 25.1094 126.768 24.3477 126.738 23.041H131.285V22.6426C131.285 20.7559 130.242 19.4785 128.525 19.4785C126.809 19.4785 125.695 20.8145 125.695 22.7656V22.7715C125.695 24.752 126.785 26.0176 128.59 26.0176ZM128.52 20.3867C129.451 20.3867 130.143 20.9785 130.248 22.2266H126.756C126.867 21.0254 127.582 20.3867 128.52 20.3867ZM132.867 25.9062H133.887V21.9922C133.887 21.0664 134.578 20.4512 135.551 20.4512C135.773 20.4512 135.967 20.4746 136.178 20.5098V19.5195C136.078 19.502 135.861 19.4785 135.668 19.4785C134.812 19.4785 134.221 19.8652 133.98 20.5273H133.887V19.5898H132.867V25.9062ZM139.799 25.9531C139.998 25.9531 140.191 25.9297 140.391 25.8945V25.0273C140.203 25.0449 140.104 25.0508 139.922 25.0508C139.266 25.0508 139.008 24.752 139.008 24.0078V20.4336H140.391V19.5898H139.008V17.9551H137.953V19.5898H136.957V20.4336H137.953V24.2656C137.953 25.4727 138.498 25.9531 139.799 25.9531ZM143.965 26.0176C145.4 26.0176 146.496 25.2383 146.496 24.1133V24.1016C146.496 23.1992 145.922 22.6836 144.732 22.3965L143.76 22.1621C143.016 21.9805 142.699 21.7109 142.699 21.2832V21.2715C142.699 20.7148 143.25 20.3281 144 20.3281C144.762 20.3281 145.254 20.6738 145.389 21.1719H146.391C146.25 20.1406 145.33 19.4785 144.006 19.4785C142.664 19.4785 141.656 20.2695 141.656 21.3184V21.3242C141.656 22.2324 142.189 22.748 143.373 23.0293L144.352 23.2637C145.131 23.4512 145.453 23.75 145.453 24.1777V24.1895C145.453 24.7637 144.85 25.168 144 25.168C143.191 25.168 142.688 24.8223 142.518 24.2949H141.475C141.592 25.3379 142.559 26.0176 143.965 26.0176ZM152.672 25.9062H153.691L155.098 21.0195H155.191L156.604 25.9062H157.629L159.398 19.5898H158.385L157.143 24.6406H157.049L155.637 19.5898H154.67L153.258 24.6406H153.164L151.922 19.5898H150.902L152.672 25.9062ZM161.285 18.3711C161.672 18.3711 161.988 18.0547 161.988 17.668C161.988 17.2812 161.672 16.9648 161.285 16.9648C160.898 16.9648 160.582 17.2812 160.582 17.668C160.582 18.0547 160.898 18.3711 161.285 18.3711ZM160.77 25.9062H161.789V19.5898H160.77V25.9062ZM163.77 25.9062H164.789V17.082H163.77V25.9062ZM166.805 25.9062H167.824V17.082H166.805V25.9062ZM176.297 26.0176C177.896 26.0176 178.945 24.7227 178.945 22.7539V22.7422C178.945 20.7617 177.902 19.4785 176.297 19.4785C175.43 19.4785 174.674 19.9121 174.328 20.5859H174.234V17.082H173.215V25.9062H174.234V24.8984H174.328C174.715 25.6016 175.418 26.0176 176.297 26.0176ZM176.062 25.1152C174.914 25.1152 174.211 24.2129 174.211 22.7539V22.7422C174.211 21.2832 174.914 20.3809 176.062 20.3809C177.217 20.3809 177.902 21.2715 177.902 22.7422V22.7539C177.902 24.2246 177.217 25.1152 176.062 25.1152ZM183.105 26.0176C184.594 26.0176 185.496 25.1738 185.713 24.3184L185.725 24.2715H184.705L184.682 24.3242C184.512 24.7051 183.984 25.1094 183.129 25.1094C182.004 25.1094 181.283 24.3477 181.254 23.041H185.801V22.6426C185.801 20.7559 184.758 19.4785 183.041 19.4785C181.324 19.4785 180.211 20.8145 180.211 22.7656V22.7715C180.211 24.752 181.301 26.0176 183.105 26.0176ZM183.035 20.3867C183.967 20.3867 184.658 20.9785 184.764 22.2266H181.271C181.383 21.0254 182.098 20.3867 183.035 20.3867ZM192.926 26.0176C194.361 26.0176 195.457 25.2383 195.457 24.1133V24.1016C195.457 23.1992 194.883 22.6836 193.693 22.3965L192.721 22.1621C191.977 21.9805 191.66 21.7109 191.66 21.2832V21.2715C191.66 20.7148 192.211 20.3281 192.961 20.3281C193.723 20.3281 194.215 20.6738 194.35 21.1719H195.352C195.211 20.1406 194.291 19.4785 192.967 19.4785C191.625 19.4785 190.617 20.2695 190.617 21.3184V21.3242C190.617 22.2324 191.15 22.748 192.334 23.0293L193.312 23.2637C194.092 23.4512 194.414 23.75 194.414 24.1777V24.1895C194.414 24.7637 193.811 25.168 192.961 25.168C192.152 25.168 191.648 24.8223 191.479 24.2949H190.436C190.553 25.3379 191.52 26.0176 192.926 26.0176ZM197.098 25.9062H198.117V22.168C198.117 21.0605 198.756 20.3809 199.764 20.3809C200.771 20.3809 201.24 20.9258 201.24 22.0625V25.9062H202.26V21.8164C202.26 20.3164 201.469 19.4785 200.051 19.4785C199.119 19.4785 198.527 19.8711 198.211 20.5391H198.117V17.082H197.098V25.9062ZM206.701 26.0176C208.5 26.0176 209.613 24.7754 209.613 22.7539V22.7422C209.613 20.7148 208.5 19.4785 206.701 19.4785C204.902 19.4785 203.789 20.7148 203.789 22.7422V22.7539C203.789 24.7754 204.902 26.0176 206.701 26.0176ZM206.701 25.1152C205.506 25.1152 204.832 24.2422 204.832 22.7539V22.7422C204.832 21.248 205.506 20.3809 206.701 20.3809C207.896 20.3809 208.57 21.248 208.57 22.7422V22.7539C208.57 24.2422 207.896 25.1152 206.701 25.1152ZM212.18 25.9062H213.199L214.605 21.0195H214.699L216.111 25.9062H217.137L218.906 19.5898H217.893L216.65 24.6406H216.557L215.145 19.5898H214.178L212.766 24.6406H212.672L211.43 19.5898H210.41L212.18 25.9062ZM220.254 25.9062H221.273V22.168C221.273 21.0605 221.912 20.3809 222.92 20.3809C223.928 20.3809 224.396 20.9258 224.396 22.0625V25.9062H225.416V21.8164C225.416 20.3164 224.625 19.4785 223.207 19.4785C222.275 19.4785 221.684 19.8711 221.367 20.5391H221.273V19.5898H220.254V25.9062ZM233.232 26.0176C235.031 26.0176 236.145 24.7754 236.145 22.7539V22.7422C236.145 20.7148 235.031 19.4785 233.232 19.4785C231.434 19.4785 230.32 20.7148 230.32 22.7422V22.7539C230.32 24.7754 231.434 26.0176 233.232 26.0176ZM233.232 25.1152C232.037 25.1152 231.363 24.2422 231.363 22.7539V22.7422C231.363 21.248 232.037 20.3809 233.232 20.3809C234.428 20.3809 235.102 21.248 235.102 22.7422V22.7539C235.102 24.2422 234.428 25.1152 233.232 25.1152ZM237.727 25.9062H238.746V22.168C238.746 21.0605 239.385 20.3809 240.393 20.3809C241.4 20.3809 241.869 20.9258 241.869 22.0625V25.9062H242.889V21.8164C242.889 20.3164 242.098 19.4785 240.68 19.4785C239.748 19.4785 239.156 19.8711 238.84 20.5391H238.746V19.5898H237.727V25.9062ZM250.354 25.9531C250.553 25.9531 250.746 25.9297 250.945 25.8945V25.0273C250.758 25.0449 250.658 25.0508 250.477 25.0508C249.82 25.0508 249.562 24.752 249.562 24.0078V20.4336H250.945V19.5898H249.562V17.9551H248.508V19.5898H247.512V20.4336H248.508V24.2656C248.508 25.4727 249.053 25.9531 250.354 25.9531ZM252.527 25.9062H253.547V22.168C253.547 21.0605 254.186 20.3809 255.193 20.3809C256.201 20.3809 256.67 20.9258 256.67 22.0625V25.9062H257.689V21.8164C257.689 20.3164 256.898 19.4785 255.48 19.4785C254.549 19.4785 253.957 19.8711 253.641 20.5391H253.547V17.082H252.527V25.9062ZM262.113 26.0176C263.602 26.0176 264.504 25.1738 264.721 24.3184L264.732 24.2715H263.713L263.689 24.3242C263.52 24.7051 262.992 25.1094 262.137 25.1094C261.012 25.1094 260.291 24.3477 260.262 23.041H264.809V22.6426C264.809 20.7559 263.766 19.4785 262.049 19.4785C260.332 19.4785 259.219 20.8145 259.219 22.7656V22.7715C259.219 24.752 260.309 26.0176 262.113 26.0176ZM262.043 20.3867C262.975 20.3867 263.666 20.9785 263.771 22.2266H260.279C260.391 21.0254 261.105 20.3867 262.043 20.3867ZM269.824 25.9062H270.844V17.082H269.824V25.9062ZM275.396 26.0176C277.195 26.0176 278.309 24.7754 278.309 22.7539V22.7422C278.309 20.7148 277.195 19.4785 275.396 19.4785C273.598 19.4785 272.484 20.7148 272.484 22.7422V22.7539C272.484 24.7754 273.598 26.0176 275.396 26.0176ZM275.396 25.1152C274.201 25.1152 273.527 24.2422 273.527 22.7539V22.7422C273.527 21.248 274.201 20.3809 275.396 20.3809C276.592 20.3809 277.266 21.248 277.266 22.7422V22.7539C277.266 24.2422 276.592 25.1152 275.396 25.1152ZM282.475 26.0176C283.992 26.0176 284.842 25.2031 285.1 24.0605L285.111 23.9961L284.104 24.002L284.092 24.0371C283.857 24.7402 283.318 25.1152 282.469 25.1152C281.344 25.1152 280.617 24.1836 280.617 22.7305V22.7188C280.617 21.2949 281.332 20.3809 282.469 20.3809C283.377 20.3809 283.939 20.8848 284.098 21.5059L284.104 21.5234H285.117L285.111 21.4883C284.924 20.3633 284.004 19.4785 282.469 19.4785C280.699 19.4785 279.574 20.7559 279.574 22.7188V22.7305C279.574 24.7344 280.705 26.0176 282.475 26.0176ZM286.664 25.9062H287.684V23.5098L288.275 22.9355L290.643 25.9062H291.926L288.99 22.2441L291.744 19.5898H290.508L287.777 22.3496H287.684V17.082H286.664V25.9062ZM298.664 26.0176C300.1 26.0176 301.195 25.2383 301.195 24.1133V24.1016C301.195 23.1992 300.621 22.6836 299.432 22.3965L298.459 22.1621C297.715 21.9805 297.398 21.7109 297.398 21.2832V21.2715C297.398 20.7148 297.949 20.3281 298.699 20.3281C299.461 20.3281 299.953 20.6738 300.088 21.1719H301.09C300.949 20.1406 300.029 19.4785 298.705 19.4785C297.363 19.4785 296.355 20.2695 296.355 21.3184V21.3242C296.355 22.2324 296.889 22.748 298.072 23.0293L299.051 23.2637C299.83 23.4512 300.152 23.75 300.152 24.1777V24.1895C300.152 24.7637 299.549 25.168 298.699 25.168C297.891 25.168 297.387 24.8223 297.217 24.2949H296.174C296.291 25.3379 297.258 26.0176 298.664 26.0176ZM305.361 26.0176C306.879 26.0176 307.729 25.2031 307.986 24.0605L307.998 23.9961L306.99 24.002L306.979 24.0371C306.744 24.7402 306.205 25.1152 305.355 25.1152C304.23 25.1152 303.504 24.1836 303.504 22.7305V22.7188C303.504 21.2949 304.219 20.3809 305.355 20.3809C306.264 20.3809 306.826 20.8848 306.984 21.5059L306.99 21.5234H308.004L307.998 21.4883C307.811 20.3633 306.891 19.4785 305.355 19.4785C303.586 19.4785 302.461 20.7559 302.461 22.7188V22.7305C302.461 24.7344 303.592 26.0176 305.361 26.0176ZM309.492 25.9062H310.512V21.9922C310.512 21.0664 311.203 20.4512 312.176 20.4512C312.398 20.4512 312.592 20.4746 312.803 20.5098V19.5195C312.703 19.502 312.486 19.4785 312.293 19.4785C311.438 19.4785 310.846 19.8652 310.605 20.5273H310.512V19.5898H309.492V25.9062ZM316.465 26.0176C317.953 26.0176 318.855 25.1738 319.072 24.3184L319.084 24.2715H318.064L318.041 24.3242C317.871 24.7051 317.344 25.1094 316.488 25.1094C315.363 25.1094 314.643 24.3477 314.613 23.041H319.16V22.6426C319.16 20.7559 318.117 19.4785 316.4 19.4785C314.684 19.4785 313.57 20.8145 313.57 22.7656V22.7715C313.57 24.752 314.66 26.0176 316.465 26.0176ZM316.395 20.3867C317.326 20.3867 318.018 20.9785 318.123 22.2266H314.631C314.742 21.0254 315.457 20.3867 316.395 20.3867ZM323.32 26.0176C324.809 26.0176 325.711 25.1738 325.928 24.3184L325.939 24.2715H324.92L324.896 24.3242C324.727 24.7051 324.199 25.1094 323.344 25.1094C322.219 25.1094 321.498 24.3477 321.469 23.041H326.016V22.6426C326.016 20.7559 324.973 19.4785 323.256 19.4785C321.539 19.4785 320.426 20.8145 320.426 22.7656V22.7715C320.426 24.752 321.516 26.0176 323.32 26.0176ZM323.25 20.3867C324.182 20.3867 324.873 20.9785 324.979 22.2266H321.486C321.598 21.0254 322.312 20.3867 323.25 20.3867ZM327.598 25.9062H328.617V22.168C328.617 21.0605 329.256 20.3809 330.264 20.3809C331.271 20.3809 331.74 20.9258 331.74 22.0625V25.9062H332.76V21.8164C332.76 20.3164 331.969 19.4785 330.551 19.4785C329.619 19.4785 329.027 19.8711 328.711 20.5391H328.617V19.5898H327.598V25.9062ZM2.68359 42.0176C3.5332 42.0176 4.19531 41.6484 4.59375 40.9746H4.6875V41.9062H5.70703V37.582C5.70703 36.2695 4.8457 35.4785 3.30469 35.4785C1.95703 35.4785 0.996094 36.1465 0.832031 37.1367L0.826172 37.1719H1.8457L1.85156 37.1543C2.01562 36.6621 2.51367 36.3809 3.26953 36.3809C4.21289 36.3809 4.6875 36.8027 4.6875 37.582V38.1562L2.87695 38.2676C1.40625 38.3555 0.574219 39.0059 0.574219 40.1309V40.1426C0.574219 41.291 1.48242 42.0176 2.68359 42.0176ZM1.61719 40.1191V40.1074C1.61719 39.4805 2.03906 39.1406 3 39.082L4.6875 38.9766V39.5508C4.6875 40.4531 3.93164 41.1328 2.89453 41.1328C2.16211 41.1328 1.61719 40.7578 1.61719 40.1191ZM7.57031 41.9062H8.58984V38.168C8.58984 37.0605 9.22852 36.3809 10.2363 36.3809C11.2441 36.3809 11.7129 36.9258 11.7129 38.0625V41.9062H12.7324V37.8164C12.7324 36.3164 11.9414 35.4785 10.5234 35.4785C9.5918 35.4785 9 35.8711 8.68359 36.5391H8.58984V35.5898H7.57031V41.9062ZM16.9102 42.0176C17.7891 42.0176 18.4922 41.6016 18.8789 40.8984H18.9727V41.9062H19.9922V33.082H18.9727V36.5859H18.8789C18.5332 35.9121 17.7773 35.4785 16.9102 35.4785C15.3047 35.4785 14.2617 36.7617 14.2617 38.7422V38.7539C14.2617 40.7227 15.3105 42.0176 16.9102 42.0176ZM17.1445 41.1152C15.9902 41.1152 15.3047 40.2246 15.3047 38.7539V38.7422C15.3047 37.2715 15.9902 36.3809 17.1445 36.3809C18.293 36.3809 18.9961 37.2832 18.9961 38.7422V38.7539C18.9961 40.2129 18.293 41.1152 17.1445 41.1152ZM25.8633 34.3711C26.25 34.3711 26.5664 34.0547 26.5664 33.668C26.5664 33.2812 26.25 32.9648 25.8633 32.9648C25.4766 32.9648 25.1602 33.2812 25.1602 33.668C25.1602 34.0547 25.4766 34.3711 25.8633 34.3711ZM25.3477 41.9062H26.3672V35.5898H25.3477V41.9062ZM28.2891 41.9062H29.3086V38.168C29.3086 37.0605 29.9473 36.3809 30.9551 36.3809C31.9629 36.3809 32.4316 36.9258 32.4316 38.0625V41.9062H33.4512V37.8164C33.4512 36.3164 32.6602 35.4785 31.2422 35.4785C30.3105 35.4785 29.7188 35.8711 29.4023 36.5391H29.3086V35.5898H28.2891V41.9062ZM38.8008 41.9062H39.8438V35.3496H39.9375L44.5254 41.9062H45.5508V33.4512H44.5078V40.0312H44.4141L39.8262 33.4512H38.8008V41.9062ZM50.1738 42.0176C51.9727 42.0176 53.0859 40.7754 53.0859 38.7539V38.7422C53.0859 36.7148 51.9727 35.4785 50.1738 35.4785C48.375 35.4785 47.2617 36.7148 47.2617 38.7422V38.7539C47.2617 40.7754 48.375 42.0176 50.1738 42.0176ZM50.1738 41.1152C48.9785 41.1152 48.3047 40.2422 48.3047 38.7539V38.7422C48.3047 37.248 48.9785 36.3809 50.1738 36.3809C51.3691 36.3809 52.043 37.248 52.043 38.7422V38.7539C52.043 40.2422 51.3691 41.1152 50.1738 41.1152ZM56.9121 41.9531C57.1113 41.9531 57.3047 41.9297 57.5039 41.8945V41.0273C57.3164 41.0449 57.2168 41.0508 57.0352 41.0508C56.3789 41.0508 56.1211 40.752 56.1211 40.0078V36.4336H57.5039V35.5898H56.1211V33.9551H55.0664V35.5898H54.0703V36.4336H55.0664V40.2656C55.0664 41.4727 55.6113 41.9531 56.9121 41.9531ZM59.5664 34.3711C59.9531 34.3711 60.2695 34.0547 60.2695 33.668C60.2695 33.2812 59.9531 32.9648 59.5664 32.9648C59.1797 32.9648 58.8633 33.2812 58.8633 33.668C58.8633 34.0547 59.1797 34.3711 59.5664 34.3711ZM59.0508 41.9062H60.0703V35.5898H59.0508V41.9062ZM62.4141 41.9062H63.4336V36.4336H64.8691V35.5898H63.4336V34.916C63.4336 34.2246 63.7266 33.8672 64.4531 33.8672C64.6348 33.8672 64.8047 33.873 64.9277 33.8965V33.082C64.7168 33.041 64.4941 33.0234 64.248 33.0234C63.0469 33.0234 62.4141 33.627 62.4141 34.8867V35.5898H61.3652V36.4336H62.4141V41.9062ZM66.8789 34.3711C67.2656 34.3711 67.582 34.0547 67.582 33.668C67.582 33.2812 67.2656 32.9648 66.8789 32.9648C66.4922 32.9648 66.1758 33.2812 66.1758 33.668C66.1758 34.0547 66.4922 34.3711 66.8789 34.3711ZM66.3633 41.9062H67.3828V35.5898H66.3633V41.9062ZM71.8887 42.0176C73.4062 42.0176 74.2559 41.2031 74.5137 40.0605L74.5254 39.9961L73.5176 40.002L73.5059 40.0371C73.2715 40.7402 72.7324 41.1152 71.8828 41.1152C70.7578 41.1152 70.0312 40.1836 70.0312 38.7305V38.7188C70.0312 37.2949 70.7461 36.3809 71.8828 36.3809C72.791 36.3809 73.3535 36.8848 73.5117 37.5059L73.5176 37.5234H74.5312L74.5254 37.4883C74.3379 36.3633 73.418 35.4785 71.8828 35.4785C70.1133 35.4785 68.9883 36.7559 68.9883 38.7188V38.7305C68.9883 40.7344 70.1191 42.0176 71.8887 42.0176ZM77.7539 42.0176C78.6035 42.0176 79.2656 41.6484 79.6641 40.9746H79.7578V41.9062H80.7773V37.582C80.7773 36.2695 79.916 35.4785 78.375 35.4785C77.0273 35.4785 76.0664 36.1465 75.9023 37.1367L75.8965 37.1719H76.916L76.9219 37.1543C77.0859 36.6621 77.584 36.3809 78.3398 36.3809C79.2832 36.3809 79.7578 36.8027 79.7578 37.582V38.1562L77.9473 38.2676C76.4766 38.3555 75.6445 39.0059 75.6445 40.1309V40.1426C75.6445 41.291 76.5527 42.0176 77.7539 42.0176ZM76.6875 40.1191V40.1074C76.6875 39.4805 77.1094 39.1406 78.0703 39.082L79.7578 38.9766V39.5508C79.7578 40.4531 79.002 41.1328 77.9648 41.1328C77.2324 41.1328 76.6875 40.7578 76.6875 40.1191ZM84.8848 41.9531C85.084 41.9531 85.2773 41.9297 85.4766 41.8945V41.0273C85.2891 41.0449 85.1895 41.0508 85.0078 41.0508C84.3516 41.0508 84.0938 40.752 84.0938 40.0078V36.4336H85.4766V35.5898H84.0938V33.9551H83.0391V35.5898H82.043V36.4336H83.0391V40.2656C83.0391 41.4727 83.584 41.9531 84.8848 41.9531ZM87.5391 34.3711C87.9258 34.3711 88.2422 34.0547 88.2422 33.668C88.2422 33.2812 87.9258 32.9648 87.5391 32.9648C87.1523 32.9648 86.8359 33.2812 86.8359 33.668C86.8359 34.0547 87.1523 34.3711 87.5391 34.3711ZM87.0234 41.9062H88.043V35.5898H87.0234V41.9062ZM92.5605 42.0176C94.3594 42.0176 95.4727 40.7754 95.4727 38.7539V38.7422C95.4727 36.7148 94.3594 35.4785 92.5605 35.4785C90.7617 35.4785 89.6484 36.7148 89.6484 38.7422V38.7539C89.6484 40.7754 90.7617 42.0176 92.5605 42.0176ZM92.5605 41.1152C91.3652 41.1152 90.6914 40.2422 90.6914 38.7539V38.7422C90.6914 37.248 91.3652 36.3809 92.5605 36.3809C93.7559 36.3809 94.4297 37.248 94.4297 38.7422V38.7539C94.4297 40.2422 93.7559 41.1152 92.5605 41.1152ZM97.0547 41.9062H98.0742V38.168C98.0742 37.0605 98.7129 36.3809 99.7207 36.3809C100.729 36.3809 101.197 36.9258 101.197 38.0625V41.9062H102.217V37.8164C102.217 36.3164 101.426 35.4785 100.008 35.4785C99.0762 35.4785 98.4844 35.8711 98.168 36.5391H98.0742V35.5898H97.0547V41.9062ZM110.971 42.1055C112.77 42.1055 114.105 41.1035 114.387 39.5566V39.5449H113.32L113.309 39.5566C113.045 40.5293 112.148 41.1328 110.971 41.1328C109.342 41.1328 108.322 39.8027 108.322 37.6875V37.6758C108.322 35.5605 109.342 34.2246 110.965 34.2246C112.131 34.2246 113.033 34.9102 113.314 35.9941L113.32 36.0059H114.381L114.387 35.9941C114.135 34.3711 112.746 33.252 110.965 33.252C108.668 33.252 107.238 34.9512 107.238 37.6758V37.6875C107.238 40.4062 108.674 42.1055 110.971 42.1055ZM118.605 42.0176C120.094 42.0176 120.996 41.1738 121.213 40.3184L121.225 40.2715H120.205L120.182 40.3242C120.012 40.7051 119.484 41.1094 118.629 41.1094C117.504 41.1094 116.783 40.3477 116.754 39.041H121.301V38.6426C121.301 36.7559 120.258 35.4785 118.541 35.4785C116.824 35.4785 115.711 36.8145 115.711 38.7656V38.7715C115.711 40.752 116.801 42.0176 118.605 42.0176ZM118.535 36.3867C119.467 36.3867 120.158 36.9785 120.264 38.2266H116.771C116.883 37.0254 117.598 36.3867 118.535 36.3867ZM122.883 41.9062H123.902V38.168C123.902 37.0605 124.541 36.3809 125.549 36.3809C126.557 36.3809 127.025 36.9258 127.025 38.0625V41.9062H128.045V37.8164C128.045 36.3164 127.254 35.4785 125.836 35.4785C124.904 35.4785 124.312 35.8711 123.996 36.5391H123.902V35.5898H122.883V41.9062ZM132.135 41.9531C132.334 41.9531 132.527 41.9297 132.727 41.8945V41.0273C132.539 41.0449 132.439 41.0508 132.258 41.0508C131.602 41.0508 131.344 40.752 131.344 40.0078V36.4336H132.727V35.5898H131.344V33.9551H130.289V35.5898H129.293V36.4336H130.289V40.2656C130.289 41.4727 130.834 41.9531 132.135 41.9531ZM136.734 42.0176C138.223 42.0176 139.125 41.1738 139.342 40.3184L139.354 40.2715H138.334L138.311 40.3242C138.141 40.7051 137.613 41.1094 136.758 41.1094C135.633 41.1094 134.912 40.3477 134.883 39.041H139.43V38.6426C139.43 36.7559 138.387 35.4785 136.67 35.4785C134.953 35.4785 133.84 36.8145 133.84 38.7656V38.7715C133.84 40.752 134.93 42.0176 136.734 42.0176ZM136.664 36.3867C137.596 36.3867 138.287 36.9785 138.393 38.2266H134.9C135.012 37.0254 135.727 36.3867 136.664 36.3867ZM141.012 41.9062H142.031V37.9922C142.031 37.0664 142.723 36.4512 143.695 36.4512C143.918 36.4512 144.111 36.4746 144.322 36.5098V35.5195C144.223 35.502 144.006 35.4785 143.812 35.4785C142.957 35.4785 142.365 35.8652 142.125 36.5273H142.031V35.5898H141.012V41.9062ZM145.652 41.9648C146.074 41.9648 146.414 41.6191 146.414 41.2031C146.414 40.7812 146.074 40.4414 145.652 40.4414C145.236 40.4414 144.891 40.7812 144.891 41.2031C144.891 41.6191 145.236 41.9648 145.652 41.9648Z" fill="url(#paint0_linear_3_164)"/>
<defs>
<linearGradient id="paint0_linear_3_164" x1="162.998" y1="-22.8409" x2="151.073" y2="64.5275" gradientUnits="userSpaceOnUse">
<stop stop-color="#CDDDF4"/>
<stop offset="1" stop-color="#CDBAFA"/>
</linearGradient>
</defs>
</svg>
