<svg width="95" height="14" viewBox="0 0 95 14" fill="none" xmlns="http://www.w3.org/2000/svg">
<path d="M0.527344 13.5625H2.00488V4.27393H2.1377L8.63721 13.5625H10.0898V1.58447H8.6123V10.9062H8.47949L1.97998 1.58447H0.527344V13.5625ZM16.2292 13.7202C18.7775 13.7202 20.3546 11.9604 20.3546 9.09668V9.08008C20.3546 6.20801 18.7775 4.45654 16.2292 4.45654C13.6808 4.45654 12.1037 6.20801 12.1037 9.08008V9.09668C12.1037 11.9604 13.6808 13.7202 16.2292 13.7202ZM16.2292 12.4419C14.5358 12.4419 13.5812 11.2051 13.5812 9.09668V9.08008C13.5812 6.96338 14.5358 5.73486 16.2292 5.73486C17.9225 5.73486 18.8771 6.96338 18.8771 9.08008V9.09668C18.8771 11.2051 17.9225 12.4419 16.2292 12.4419ZM25.3651 13.6289C25.6473 13.6289 25.9212 13.5957 26.2034 13.5459V12.3174C25.9378 12.3423 25.7967 12.3506 25.5394 12.3506C24.6097 12.3506 24.2445 11.9272 24.2445 10.873V5.80957H26.2034V4.61426H24.2445V2.29834H22.7503V4.61426H21.3392V5.80957H22.7503V11.2383C22.7503 12.9482 23.5223 13.6289 25.3651 13.6289ZM28.7153 2.8877C29.2632 2.8877 29.7114 2.43945 29.7114 1.8916C29.7114 1.34375 29.2632 0.895508 28.7153 0.895508C28.1675 0.895508 27.7192 1.34375 27.7192 1.8916C27.7192 2.43945 28.1675 2.8877 28.7153 2.8877ZM27.9848 13.5625H29.4292V4.61426H27.9848V13.5625ZM32.3395 13.5625H33.7838V5.80957H35.8175V4.61426H33.7838V3.65967C33.7838 2.68018 34.1989 2.17383 35.2282 2.17383C35.4855 2.17383 35.7262 2.18213 35.9005 2.21533V1.06152C35.6017 1.00342 35.2863 0.978516 34.9376 0.978516C33.236 0.978516 32.3395 1.8335 32.3395 3.61816V4.61426H30.8537V5.80957H32.3395V13.5625ZM38.2547 2.8877C38.8025 2.8877 39.2508 2.43945 39.2508 1.8916C39.2508 1.34375 38.8025 0.895508 38.2547 0.895508C37.7068 0.895508 37.2586 1.34375 37.2586 1.8916C37.2586 2.43945 37.7068 2.8877 38.2547 2.8877ZM37.5242 13.5625H38.9686V4.61426H37.5242V13.5625ZM44.9419 13.7202C47.0918 13.7202 48.2954 12.5664 48.6606 10.9478L48.6772 10.8564L47.2495 10.8647L47.2329 10.9146C46.9008 11.9106 46.1372 12.4419 44.9336 12.4419C43.3398 12.4419 42.3105 11.1221 42.3105 9.06348V9.04688C42.3105 7.02979 43.3232 5.73486 44.9336 5.73486C46.2202 5.73486 47.0171 6.44873 47.2412 7.32861L47.2495 7.35352H48.6855L48.6772 7.30371C48.4116 5.70996 47.1084 4.45654 44.9336 4.45654C42.4267 4.45654 40.833 6.26611 40.833 9.04688V9.06348C40.833 11.9023 42.435 13.7202 44.9419 13.7202ZM52.8409 13.7202C54.0446 13.7202 54.9825 13.1973 55.547 12.2427H55.6798V13.5625H57.1241V7.43652C57.1241 5.57715 55.9039 4.45654 53.7208 4.45654C51.8116 4.45654 50.4503 5.40283 50.2179 6.80566L50.2096 6.85547H51.6539L51.6622 6.83057C51.8946 6.1333 52.6002 5.73486 53.671 5.73486C55.0074 5.73486 55.6798 6.33252 55.6798 7.43652V8.25L53.1149 8.40771C51.0314 8.53223 49.8527 9.45361 49.8527 11.0474V11.064C49.8527 12.6909 51.1393 13.7202 52.8409 13.7202ZM51.3302 11.0308V11.0142C51.3302 10.126 51.9279 9.64453 53.2892 9.56152L55.6798 9.41211V10.2256C55.6798 11.5039 54.609 12.4668 53.1398 12.4668C52.1022 12.4668 51.3302 11.9355 51.3302 11.0308ZM62.533 13.6289C62.8152 13.6289 63.0891 13.5957 63.3714 13.5459V12.3174C63.1057 12.3423 62.9646 12.3506 62.7073 12.3506C61.7776 12.3506 61.4124 11.9272 61.4124 10.873V5.80957H63.3714V4.61426H61.4124V2.29834H59.9182V4.61426H58.5071V5.80957H59.9182V11.2383C59.9182 12.9482 60.6902 13.6289 62.533 13.6289ZM65.8832 2.8877C66.4311 2.8877 66.8793 2.43945 66.8793 1.8916C66.8793 1.34375 66.4311 0.895508 65.8832 0.895508C65.3354 0.895508 64.8871 1.34375 64.8871 1.8916C64.8871 2.43945 65.3354 2.8877 65.8832 2.8877ZM65.1528 13.5625H66.5971V4.61426H65.1528V13.5625ZM72.587 13.7202C75.1354 13.7202 76.7125 11.9604 76.7125 9.09668V9.08008C76.7125 6.20801 75.1354 4.45654 72.587 4.45654C70.0387 4.45654 68.4615 6.20801 68.4615 9.08008V9.09668C68.4615 11.9604 70.0387 13.7202 72.587 13.7202ZM72.587 12.4419C70.8937 12.4419 69.9391 11.2051 69.9391 9.09668V9.08008C69.9391 6.96338 70.8937 5.73486 72.587 5.73486C74.2804 5.73486 75.235 6.96338 75.235 9.08008V9.09668C75.235 11.2051 74.2804 12.4419 72.587 12.4419ZM78.5437 13.5625H79.988V8.2666C79.988 6.69775 80.8928 5.73486 82.3206 5.73486C83.7483 5.73486 84.4124 6.50684 84.4124 8.11719V13.5625H85.8567V7.76855C85.8567 5.64355 84.7361 4.45654 82.7273 4.45654C81.4075 4.45654 80.5691 5.0127 80.1209 5.95898H79.988V4.61426H78.5437V13.5625ZM91.1327 13.7202C93.1664 13.7202 94.7187 12.6162 94.7187 11.0225V11.0059C94.7187 9.72754 93.9052 8.99707 92.2201 8.59033L90.8422 8.2583C89.788 8.00098 89.3398 7.61914 89.3398 7.01318V6.99658C89.3398 6.20801 90.12 5.66016 91.1825 5.66016C92.2616 5.66016 92.9589 6.1499 93.1498 6.85547H94.5693C94.37 5.39453 93.0668 4.45654 91.1908 4.45654C89.29 4.45654 87.8622 5.57715 87.8622 7.06299V7.07129C87.8622 8.35791 88.6176 9.08838 90.2944 9.48682L91.6806 9.81885C92.7846 10.0845 93.2411 10.5078 93.2411 11.1138V11.1304C93.2411 11.9438 92.3862 12.5166 91.1825 12.5166C90.037 12.5166 89.3232 12.0269 89.0824 11.2798H87.6049C87.7709 12.7573 89.1405 13.7202 91.1327 13.7202Z" fill="url(#paint0_linear_3_926)"/>
<defs>
<linearGradient id="paint0_linear_3_926" x1="47.8512" y1="-13.3601" x2="38.9999" y2="27.2753" gradientUnits="userSpaceOnUse">
<stop stop-color="#CDDDF4"/>
<stop offset="1" stop-color="#CDBAFA"/>
</linearGradient>
</defs>
</svg>
