<svg width="60" height="11" viewBox="0 0 60 11" fill="none" xmlns="http://www.w3.org/2000/svg">
<path d="M0.129883 9.90625H1.76758V6.87842H3.78613C5.646 6.87842 6.90283 5.64697 6.90283 3.81885V3.80615C6.90283 1.97168 5.646 0.746582 3.78613 0.746582H0.129883V9.90625ZM3.38623 2.08594C4.56055 2.08594 5.24609 2.71436 5.24609 3.8125V3.8252C5.24609 4.92334 4.56055 5.55811 3.38623 5.55811H1.76758V2.08594H3.38623ZM10.1046 10.0205C11.0186 10.0205 11.755 9.62695 12.1358 8.9541H12.2437V9.90625H13.8053V5.16455C13.8053 3.69824 12.8023 2.83496 11.0186 2.83496C9.36824 2.83496 8.25105 3.60938 8.09871 4.77734L8.09236 4.83447H9.58406L9.59041 4.80908C9.7491 4.35205 10.2188 4.0918 10.9425 4.0918C11.793 4.0918 12.2437 4.47266 12.2437 5.16455V5.76123L10.46 5.86914C8.77156 5.9707 7.82576 6.69434 7.82576 7.93213V7.94482C7.82576 9.20801 8.78426 10.0205 10.1046 10.0205ZM9.38729 7.86865V7.85596C9.38729 7.28467 9.79988 6.96094 10.6822 6.90381L12.2437 6.80225V7.36084C12.2437 8.18604 11.5391 8.80811 10.587 8.80811C9.88875 8.80811 9.38729 8.45898 9.38729 7.86865ZM18.2448 10.0459C19.9523 10.0459 21.1901 9.16357 21.1901 7.84326V7.83057C21.1901 6.82129 20.549 6.24365 19.1906 5.93896L18.0671 5.69141C17.318 5.52002 17.026 5.27246 17.026 4.86621V4.85986C17.026 4.33936 17.5338 3.99658 18.2384 3.99658C18.9811 3.99658 19.4381 4.35205 19.5524 4.79004L19.5588 4.80908H21.0441V4.79639C20.9425 3.67285 19.9333 2.83496 18.2448 2.83496C16.6071 2.83496 15.4645 3.69824 15.4645 4.94873V4.95508C15.4645 5.97705 16.0929 6.59912 17.4132 6.89111L18.5368 7.14502C19.2985 7.31641 19.6032 7.58301 19.6032 7.98926V8.00195C19.6032 8.52246 19.0573 8.87793 18.2702 8.87793C17.4831 8.87793 17.0197 8.5415 16.8546 8.05908L16.8483 8.04639H15.2804V8.05908C15.4137 9.2334 16.4801 10.0459 18.2448 10.0459ZM25.198 10.0459C26.9055 10.0459 28.1433 9.16357 28.1433 7.84326V7.83057C28.1433 6.82129 27.5022 6.24365 26.1438 5.93896L25.0203 5.69141C24.2712 5.52002 23.9792 5.27246 23.9792 4.86621V4.85986C23.9792 4.33936 24.4871 3.99658 25.1916 3.99658C25.9343 3.99658 26.3913 4.35205 26.5056 4.79004L26.512 4.80908H27.9973V4.79639C27.8957 3.67285 26.8865 2.83496 25.198 2.83496C23.5603 2.83496 22.4177 3.69824 22.4177 4.94873V4.95508C22.4177 5.97705 23.0461 6.59912 24.3664 6.89111L25.49 7.14502C26.2517 7.31641 26.5564 7.58301 26.5564 7.98926V8.00195C26.5564 8.52246 26.0105 8.87793 25.2234 8.87793C24.4363 8.87793 23.9729 8.5415 23.8079 8.05908L23.8015 8.04639H22.2336V8.05908C22.3669 9.2334 23.4333 10.0459 25.198 10.0459ZM30.7864 9.90625H32.4241L33.7698 4.87891H33.8778L35.2298 9.90625H36.8865L38.7654 2.96826H37.1976L36.0487 8.17969H35.9407L34.595 2.96826H33.0906L31.7576 8.17969H31.6497L30.4945 2.96826H28.9075L30.7864 9.90625ZM42.7797 10.0459C44.8554 10.0459 46.1186 8.6875 46.1186 6.44043V6.42773C46.1186 4.19336 44.849 2.83496 42.7797 2.83496C40.7167 2.83496 39.4408 4.19971 39.4408 6.42773V6.44043C39.4408 8.6875 40.6977 10.0459 42.7797 10.0459ZM42.7797 8.76367C41.6815 8.76367 41.0531 7.90674 41.0531 6.44678V6.43408C41.0531 4.97412 41.6815 4.11084 42.7797 4.11084C43.8715 4.11084 44.4999 4.97412 44.4999 6.43408V6.44678C44.4999 7.90674 43.8778 8.76367 42.7797 8.76367ZM47.6255 9.90625H49.206V5.87549C49.206 4.88525 49.8979 4.25684 50.9516 4.25684C51.2246 4.25684 51.4848 4.29492 51.7388 4.3457V2.93018C51.5864 2.88574 51.3388 2.854 51.0976 2.854C50.1836 2.854 49.5488 3.29199 49.3139 4.03467H49.206V2.96826H47.6255V9.90625ZM55.2769 10.0205C56.2545 10.0205 57.0035 9.57617 57.3843 8.8208H57.4922V9.90625H59.0792V0.283203H57.4922V4.07275H57.3843C57.0225 3.32373 56.2291 2.854 55.2769 2.854C53.5186 2.854 52.4332 4.2251 52.4332 6.43408V6.44678C52.4332 8.64307 53.5377 10.0205 55.2769 10.0205ZM55.772 8.6875C54.6929 8.6875 54.0391 7.84326 54.0391 6.44678V6.43408C54.0391 5.0376 54.6993 4.18701 55.772 4.18701C56.8448 4.18701 57.5176 5.04395 57.5176 6.43408V6.44678C57.5176 7.83691 56.8511 8.6875 55.772 8.6875Z" fill="url(#paint0_linear_3_1253)"/>
<defs>
<linearGradient id="paint0_linear_3_1253" x1="28.9879" y1="-12.2122" x2="19.6634" y2="19.9053" gradientUnits="userSpaceOnUse">
<stop stop-color="#CDDDF4"/>
<stop offset="1" stop-color="#CDBAFA"/>
</linearGradient>
</defs>
</svg>
