<svg width="72" height="13" viewBox="0 0 72 13" fill="none" xmlns="http://www.w3.org/2000/svg">
<path d="M0.527344 12.5625H2.02148V8.2876H5.04297C7.29248 8.2876 8.88623 6.70215 8.88623 4.42773V4.41113C8.88623 2.13672 7.29248 0.584473 5.04297 0.584473H0.527344V12.5625ZM4.66113 1.9126C6.37109 1.9126 7.35889 2.85059 7.35889 4.42773V4.44434C7.35889 6.02148 6.37109 6.95947 4.66113 6.95947H2.02148V1.9126H4.66113ZM12.8673 12.7202C14.071 12.7202 15.0089 12.1973 15.5734 11.2427H15.7062V12.5625H17.1505V6.43652C17.1505 4.57715 15.9303 3.45654 13.7472 3.45654C11.838 3.45654 10.4767 4.40283 10.2443 5.80566L10.236 5.85547H11.6803L11.6886 5.83057C11.9211 5.1333 12.6266 4.73486 13.6974 4.73486C15.0338 4.73486 15.7062 5.33252 15.7062 6.43652V7.25L13.1413 7.40771C11.0578 7.53223 9.87906 8.45361 9.87906 10.0474V10.064C9.87906 11.6909 11.1657 12.7202 12.8673 12.7202ZM11.3566 10.0308V10.0142C11.3566 9.12598 11.9543 8.64453 13.3156 8.56152L15.7062 8.41211V9.22559C15.7062 10.5039 14.6354 11.4668 13.1662 11.4668C12.1286 11.4668 11.3566 10.9355 11.3566 10.0308ZM22.4515 12.7202C24.4852 12.7202 26.0374 11.6162 26.0374 10.0225V10.0059C26.0374 8.72754 25.2239 7.99707 23.5389 7.59033L22.161 7.2583C21.1068 7.00098 20.6585 6.61914 20.6585 6.01318V5.99658C20.6585 5.20801 21.4388 4.66016 22.5013 4.66016C23.5804 4.66016 24.2777 5.1499 24.4686 5.85547H25.888C25.6888 4.39453 24.3856 3.45654 22.5096 3.45654C20.6087 3.45654 19.181 4.57715 19.181 6.06299V6.07129C19.181 7.35791 19.9363 8.08838 21.6131 8.48682L22.9993 8.81885C24.1033 9.08447 24.5599 9.50781 24.5599 10.1138V10.1304C24.5599 10.9438 23.7049 11.5166 22.5013 11.5166C21.3558 11.5166 20.6419 11.0269 20.4012 10.2798H18.9237C19.0897 11.7573 20.4593 12.7202 22.4515 12.7202ZM30.7739 12.7202C32.8076 12.7202 34.3598 11.6162 34.3598 10.0225V10.0059C34.3598 8.72754 33.5464 7.99707 31.8613 7.59033L30.4834 7.2583C29.4292 7.00098 28.9809 6.61914 28.9809 6.01318V5.99658C28.9809 5.20801 29.7612 4.66016 30.8237 4.66016C31.9028 4.66016 32.6001 5.1499 32.791 5.85547H34.2104C34.0112 4.39453 32.708 3.45654 30.832 3.45654C28.9311 3.45654 27.5034 4.57715 27.5034 6.06299V6.07129C27.5034 7.35791 28.2588 8.08838 29.9355 8.48682L31.3218 8.81885C32.4258 9.08447 32.8823 9.50781 32.8823 10.1138V10.1304C32.8823 10.9438 32.0273 11.5166 30.8237 11.5166C29.6782 11.5166 28.9643 11.0269 28.7236 10.2798H27.2461C27.4121 11.7573 28.7817 12.7202 30.7739 12.7202ZM37.6686 12.5625H39.1129L41.1051 5.63965H41.2379L43.2384 12.5625H44.6911L47.1979 3.61426H45.7619L44.0021 10.7695H43.8693L41.8688 3.61426H40.4992L38.4987 10.7695H38.3659L36.6061 3.61426H35.1618L37.6686 12.5625ZM52.0423 12.7202C54.5906 12.7202 56.1678 10.9604 56.1678 8.09668V8.08008C56.1678 5.20801 54.5906 3.45654 52.0423 3.45654C49.4939 3.45654 47.9168 5.20801 47.9168 8.08008V8.09668C47.9168 10.9604 49.4939 12.7202 52.0423 12.7202ZM52.0423 11.4419C50.3489 11.4419 49.3943 10.2051 49.3943 8.09668V8.08008C49.3943 5.96338 50.3489 4.73486 52.0423 4.73486C53.7356 4.73486 54.6902 5.96338 54.6902 8.08008V8.09668C54.6902 10.2051 53.7356 11.4419 52.0423 11.4419ZM57.999 12.5625H59.4433V7.01758C59.4433 5.70605 60.4228 4.83447 61.8007 4.83447C62.1162 4.83447 62.3901 4.86768 62.6889 4.91748V3.51465C62.5478 3.48975 62.2407 3.45654 61.9668 3.45654C60.7548 3.45654 59.9165 4.00439 59.5761 4.94238H59.4433V3.61426H57.999V12.5625ZM67.1183 12.7202C68.3634 12.7202 69.3595 12.1309 69.9073 11.1348H70.0402V12.5625H71.4845V0.0615234H70.0402V5.02539H69.9073C69.4176 4.0708 68.3468 3.45654 67.1183 3.45654C64.8439 3.45654 63.3663 5.27441 63.3663 8.08008V8.09668C63.3663 10.8857 64.8522 12.7202 67.1183 12.7202ZM67.4503 11.4419C65.8151 11.4419 64.8439 10.1802 64.8439 8.09668V8.08008C64.8439 5.99658 65.8151 4.73486 67.4503 4.73486C69.0773 4.73486 70.0734 6.01318 70.0734 8.08008V8.09668C70.0734 10.1636 69.0773 11.4419 67.4503 11.4419Z" fill="url(#paint0_linear_3_919)"/>
<defs>
<linearGradient id="paint0_linear_3_919" x1="34.792" y1="-14.3601" x2="23.1656" y2="24.7469" gradientUnits="userSpaceOnUse">
<stop stop-color="#CDDDF4"/>
<stop offset="1" stop-color="#CDBAFA"/>
</linearGradient>
</defs>
</svg>
