<svg width="137" height="16" viewBox="0 0 137 16" fill="none" xmlns="http://www.w3.org/2000/svg">
<path d="M0.527344 12.5625H2.02148V8.2876H5.04297C7.29248 8.2876 8.88623 6.70215 8.88623 4.42773V4.41113C8.88623 2.13672 7.29248 0.584473 5.04297 0.584473H0.527344V12.5625ZM4.66113 1.9126C6.37109 1.9126 7.35889 2.85059 7.35889 4.42773V4.44434C7.35889 6.02148 6.37109 6.95947 4.66113 6.95947H2.02148V1.9126H4.66113ZM12.8673 12.7202C14.071 12.7202 15.0089 12.1973 15.5734 11.2427H15.7062V12.5625H17.1505V6.43652C17.1505 4.57715 15.9303 3.45654 13.7472 3.45654C11.838 3.45654 10.4767 4.40283 10.2443 5.80566L10.236 5.85547H11.6803L11.6886 5.83057C11.9211 5.1333 12.6266 4.73486 13.6974 4.73486C15.0338 4.73486 15.7062 5.33252 15.7062 6.43652V7.25L13.1413 7.40771C11.0578 7.53223 9.87906 8.45361 9.87906 10.0474V10.064C9.87906 11.6909 11.1657 12.7202 12.8673 12.7202ZM11.3566 10.0308V10.0142C11.3566 9.12598 11.9543 8.64453 13.3156 8.56152L15.7062 8.41211V9.22559C15.7062 10.5039 14.6354 11.4668 13.1662 11.4668C12.1286 11.4668 11.3566 10.9355 11.3566 10.0308ZM19.8118 15.7002C21.3973 15.7002 22.1361 15.1191 22.8748 13.1104L26.3695 3.61426H24.8504L22.4017 10.9771H22.2689L19.8118 3.61426H18.2679L21.5799 12.5708L21.4139 13.1021C21.0902 14.1313 20.5921 14.5049 19.7703 14.5049C19.5711 14.5049 19.347 14.4966 19.1727 14.4634V15.6504C19.3719 15.6836 19.6209 15.7002 19.8118 15.7002ZM27.8686 12.5625H29.313V7.01758C29.313 5.75586 30.2012 4.73486 31.3716 4.73486C32.5005 4.73486 33.2309 5.42383 33.2309 6.48633V12.5625H34.6753V6.81006C34.6753 5.67285 35.4971 4.73486 36.7422 4.73486C38.0039 4.73486 38.6098 5.39062 38.6098 6.71045V12.5625H40.0542V6.37842C40.0542 4.50244 39.0332 3.45654 37.207 3.45654C35.9702 3.45654 34.9492 4.0791 34.4678 5.02539H34.3349C33.9199 4.0957 33.0732 3.45654 31.8613 3.45654C30.6909 3.45654 29.8442 4.0127 29.4458 4.97559H29.313V3.61426H27.8686V12.5625ZM45.903 12.7202C48.0114 12.7202 49.2897 11.5249 49.5968 10.313L49.6134 10.2466H48.1691L48.1359 10.3213C47.8952 10.8608 47.1481 11.4336 45.9362 11.4336C44.3424 11.4336 43.3214 10.3545 43.2799 8.50342H49.7213V7.93896C49.7213 5.26611 48.2438 3.45654 45.8117 3.45654C43.3795 3.45654 41.8024 5.34912 41.8024 8.11328V8.12158C41.8024 10.9272 43.3463 12.7202 45.903 12.7202ZM45.8034 4.74316C47.1232 4.74316 48.1027 5.58154 48.2521 7.34961H43.3048C43.4625 5.64795 44.4752 4.74316 45.8034 4.74316ZM51.5525 12.5625H52.9969V7.2666C52.9969 5.69775 53.9017 4.73486 55.3294 4.73486C56.7571 4.73486 57.4212 5.50684 57.4212 7.11719V12.5625H58.8655V6.76855C58.8655 4.64355 57.7449 3.45654 55.7361 3.45654C54.4163 3.45654 53.5779 4.0127 53.1297 4.95898H52.9969V3.61426H51.5525V12.5625ZM64.2495 12.6289C64.5317 12.6289 64.8056 12.5957 65.0879 12.5459V11.3174C64.8222 11.3423 64.6811 11.3506 64.4238 11.3506C63.4941 11.3506 63.1289 10.9272 63.1289 9.87305V4.80957H65.0879V3.61426H63.1289V1.29834H61.6347V3.61426H60.2236V4.80957H61.6347V10.2383C61.6347 11.9482 62.4067 12.6289 64.2495 12.6289ZM71.3899 12.5625H72.7845V3.41504H72.8758L76.6609 12.5625H77.9226L81.7078 3.41504H81.7991V12.5625H83.1936V0.584473H81.4588L77.3582 10.5786H77.2254L73.1248 0.584473H71.3899V12.5625ZM89.308 12.7202C91.4164 12.7202 92.6948 11.5249 93.0019 10.313L93.0185 10.2466H91.5742L91.541 10.3213C91.3002 10.8608 90.5532 11.4336 89.3412 11.4336C87.7475 11.4336 86.7265 10.3545 86.685 8.50342H93.1264V7.93896C93.1264 5.26611 91.6489 3.45654 89.2167 3.45654C86.7846 3.45654 85.2075 5.34912 85.2075 8.11328V8.12158C85.2075 10.9272 86.7514 12.7202 89.308 12.7202ZM89.2084 4.74316C90.5283 4.74316 91.5078 5.58154 91.6572 7.34961H86.7099C86.8676 5.64795 87.8803 4.74316 89.2084 4.74316ZM98.1368 12.6289C98.419 12.6289 98.693 12.5957 98.9752 12.5459V11.3174C98.7096 11.3423 98.5685 11.3506 98.3111 11.3506C97.3814 11.3506 97.0162 10.9272 97.0162 9.87305V4.80957H98.9752V3.61426H97.0162V1.29834H95.5221V3.61426H94.1109V4.80957H95.5221V10.2383C95.5221 11.9482 96.294 12.6289 98.1368 12.6289ZM100.806 12.5625H102.251V7.2666C102.251 5.69775 103.156 4.73486 104.583 4.73486C106.011 4.73486 106.675 5.50684 106.675 7.11719V12.5625H108.119V6.76855C108.119 4.64355 106.999 3.45654 104.99 3.45654C103.67 3.45654 102.832 4.0127 102.384 4.95898H102.251V0.0615234H100.806V12.5625ZM114.001 12.7202C116.55 12.7202 118.127 10.9604 118.127 8.09668V8.08008C118.127 5.20801 116.55 3.45654 114.001 3.45654C111.453 3.45654 109.876 5.20801 109.876 8.08008V8.09668C109.876 10.9604 111.453 12.7202 114.001 12.7202ZM114.001 11.4419C112.308 11.4419 111.353 10.2051 111.353 8.09668V8.08008C111.353 5.96338 112.308 4.73486 114.001 4.73486C115.695 4.73486 116.649 5.96338 116.649 8.08008V8.09668C116.649 10.2051 115.695 11.4419 114.001 11.4419ZM123.262 12.7202C124.507 12.7202 125.503 12.1309 126.051 11.1348H126.184V12.5625H127.628V0.0615234H126.184V5.02539H126.051C125.561 4.0708 124.49 3.45654 123.262 3.45654C120.987 3.45654 119.51 5.27441 119.51 8.08008V8.09668C119.51 10.8857 120.996 12.7202 123.262 12.7202ZM123.594 11.4419C121.959 11.4419 120.987 10.1802 120.987 8.09668V8.08008C120.987 5.99658 121.959 4.73486 123.594 4.73486C125.221 4.73486 126.217 6.01318 126.217 8.08008V8.09668C126.217 10.1636 125.221 11.4419 123.594 11.4419ZM133.062 12.7202C135.095 12.7202 136.648 11.6162 136.648 10.0225V10.0059C136.648 8.72754 135.834 7.99707 134.149 7.59033L132.771 7.2583C131.717 7.00098 131.269 6.61914 131.269 6.01318V5.99658C131.269 5.20801 132.049 4.66016 133.112 4.66016C134.191 4.66016 134.888 5.1499 135.079 5.85547H136.498C136.299 4.39453 134.996 3.45654 133.12 3.45654C131.219 3.45654 129.791 4.57715 129.791 6.06299V6.07129C129.791 7.35791 130.547 8.08838 132.223 8.48682L133.61 8.81885C134.714 9.08447 135.17 9.50781 135.17 10.1138V10.1304C135.17 10.9438 134.315 11.5166 133.112 11.5166C131.966 11.5166 131.252 11.0269 131.011 10.2798H129.534C129.7 11.7573 131.07 12.7202 133.062 12.7202Z" fill="url(#paint0_linear_3_920)"/>
<defs>
<linearGradient id="paint0_linear_3_920" x1="66.2308" y1="-14.3601" x2="59.6588" y2="27.1632" gradientUnits="userSpaceOnUse">
<stop stop-color="#CDDDF4"/>
<stop offset="1" stop-color="#CDBAFA"/>
</linearGradient>
</defs>
</svg>
