<svg width="47" height="14" viewBox="0 0 47 14" fill="none" xmlns="http://www.w3.org/2000/svg">
<path d="M0.527344 13.3125H2.02148V9.0376H5.04297C7.29248 9.0376 8.88623 7.45215 8.88623 5.17773V5.16113C8.88623 2.88672 7.29248 1.33447 5.04297 1.33447H0.527344V13.3125ZM4.66113 2.6626C6.37109 2.6626 7.35889 3.60059 7.35889 5.17773V5.19434C7.35889 6.77148 6.37109 7.70947 4.66113 7.70947H2.02148V2.6626H4.66113ZM10.8254 13.3125H12.2697V8.0166C12.2697 6.44775 13.1745 5.48486 14.6022 5.48486C16.0299 5.48486 16.694 6.25684 16.694 7.86719V13.3125H18.1383V7.51855C18.1383 5.39355 17.0177 4.20654 15.0089 4.20654C13.6891 4.20654 12.8507 4.7627 12.4025 5.70898H12.2697V0.811523H10.8254V13.3125ZM24.0203 13.4702C26.5687 13.4702 28.1458 11.7104 28.1458 8.84668V8.83008C28.1458 5.95801 26.5687 4.20654 24.0203 4.20654C21.472 4.20654 19.8948 5.95801 19.8948 8.83008V8.84668C19.8948 11.7104 21.472 13.4702 24.0203 13.4702ZM24.0203 12.1919C22.327 12.1919 21.3724 10.9551 21.3724 8.84668V8.83008C21.3724 6.71338 22.327 5.48486 24.0203 5.48486C25.7137 5.48486 26.6683 6.71338 26.6683 8.83008V8.84668C26.6683 10.9551 25.7137 12.1919 24.0203 12.1919ZM29.977 13.3125H31.4214V8.0166C31.4214 6.44775 32.3262 5.48486 33.7539 5.48486C35.1816 5.48486 35.8457 6.25684 35.8457 7.86719V13.3125H37.29V7.51855C37.29 5.39355 36.1694 4.20654 34.1606 4.20654C32.8408 4.20654 32.0024 4.7627 31.5542 5.70898H31.4214V4.36426H29.977V13.3125ZM43.1471 13.4702C45.2555 13.4702 46.5338 12.2749 46.841 11.063L46.8576 10.9966H45.4132L45.38 11.0713C45.1393 11.6108 44.3922 12.1836 43.1803 12.1836C41.5866 12.1836 40.5656 11.1045 40.5241 9.25342H46.9655V8.68896C46.9655 6.01611 45.4879 4.20654 43.0558 4.20654C40.6237 4.20654 39.0465 6.09912 39.0465 8.86328V8.87158C39.0465 11.6772 40.5905 13.4702 43.1471 13.4702ZM43.0475 5.49316C44.3673 5.49316 45.3468 6.33154 45.4962 8.09961H40.549C40.7067 6.39795 41.7194 5.49316 43.0475 5.49316Z" fill="url(#paint0_linear_3_575)"/>
<defs>
<linearGradient id="paint0_linear_3_575" x1="22.7001" y1="-13.6101" x2="6.79597" y2="21.8127" gradientUnits="userSpaceOnUse">
<stop stop-color="#CDDDF4"/>
<stop offset="1" stop-color="#CDBAFA"/>
</linearGradient>
</defs>
</svg>
