<svg width="238" height="14" viewBox="0 0 238 14" fill="none" xmlns="http://www.w3.org/2000/svg">
<path d="M0.527344 12.9062H2.02148V8.63135H5.04297C7.29248 8.63135 8.88623 7.0459 8.88623 4.77148V4.75488C8.88623 2.48047 7.29248 0.928223 5.04297 0.928223H0.527344V12.9062ZM4.66113 2.25635C6.37109 2.25635 7.35889 3.19434 7.35889 4.77148V4.78809C7.35889 6.36523 6.37109 7.30322 4.66113 7.30322H2.02148V2.25635H4.66113ZM10.8254 12.9062H12.2697V0.405273H10.8254V12.9062ZM18.2845 13.064C20.3929 13.064 21.6712 11.8687 21.9783 10.6567L21.9949 10.5903H20.5506L20.5174 10.665C20.2767 11.2046 19.5296 11.7773 18.3177 11.7773C16.7239 11.7773 15.7029 10.6982 15.6614 8.84717H22.1029V8.28271C22.1029 5.60986 20.6253 3.80029 18.1932 3.80029C15.7611 3.80029 14.1839 5.69287 14.1839 8.45703V8.46533C14.1839 11.271 15.7279 13.064 18.2845 13.064ZM18.1849 5.08691C19.5047 5.08691 20.4842 5.92529 20.6336 7.69336H15.6863C15.8441 5.9917 16.8568 5.08691 18.1849 5.08691ZM26.3911 13.064C27.5947 13.064 28.5327 12.541 29.0971 11.5864H29.23V12.9062H30.6743V6.78027C30.6743 4.9209 29.4541 3.80029 27.271 3.80029C25.3618 3.80029 24.0005 4.74658 23.768 6.14941L23.7597 6.19922H25.2041L25.2124 6.17432C25.4448 5.47705 26.1504 5.07861 27.2212 5.07861C28.5576 5.07861 29.23 5.67627 29.23 6.78027V7.59375L26.665 7.75146C24.5815 7.87598 23.4028 8.79736 23.4028 10.3911V10.4077C23.4028 12.0347 24.6894 13.064 26.3911 13.064ZM24.8804 10.3745V10.3579C24.8804 9.46973 25.478 8.98828 26.8393 8.90527L29.23 8.75586V9.56934C29.23 10.8477 28.1592 11.8105 26.6899 11.8105C25.6523 11.8105 24.8804 11.2793 24.8804 10.3745ZM35.9752 13.064C38.0089 13.064 39.5612 11.96 39.5612 10.3662V10.3496C39.5612 9.07129 38.7477 8.34082 37.0626 7.93408L35.6847 7.60205C34.6305 7.34473 34.1823 6.96289 34.1823 6.35693V6.34033C34.1823 5.55176 34.9625 5.00391 36.025 5.00391C37.1041 5.00391 37.8014 5.49365 37.9923 6.19922H39.4118C39.2125 4.73828 37.9093 3.80029 36.0333 3.80029C34.1325 3.80029 32.7047 4.9209 32.7047 6.40674V6.41504C32.7047 7.70166 33.4601 8.43213 35.1369 8.83057L36.5231 9.1626C37.6271 9.42822 38.0836 9.85156 38.0836 10.4575V10.4741C38.0836 11.2876 37.2287 11.8604 36.025 11.8604C34.8795 11.8604 34.1657 11.3706 33.9249 10.6235H32.4474C32.6134 12.1011 33.983 13.064 35.9752 13.064ZM45.0447 13.064C47.1531 13.064 48.4314 11.8687 48.7386 10.6567L48.7552 10.5903H47.3108L47.2776 10.665C47.0369 11.2046 46.2898 11.7773 45.0779 11.7773C43.4842 11.7773 42.4632 10.6982 42.4217 8.84717H48.8631V8.28271C48.8631 5.60986 47.3855 3.80029 44.9534 3.80029C42.5213 3.80029 40.9441 5.69287 40.9441 8.45703V8.46533C40.9441 11.271 42.4881 13.064 45.0447 13.064ZM44.9451 5.08691C46.2649 5.08691 47.2444 5.92529 47.3938 7.69336H42.4466C42.6043 5.9917 43.617 5.08691 44.9451 5.08691ZM55.6632 12.9062H57.1075V5.15332H59.1412V3.95801H57.1075V3.00342C57.1075 2.02393 57.5226 1.51758 58.5519 1.51758C58.8092 1.51758 59.0499 1.52588 59.2242 1.55908V0.405273C58.9254 0.347168 58.61 0.322266 58.2613 0.322266C56.5597 0.322266 55.6632 1.17725 55.6632 2.96191V3.95801H54.1774V5.15332H55.6632V12.9062ZM61.5784 2.23145C62.1263 2.23145 62.5745 1.7832 62.5745 1.23535C62.5745 0.6875 62.1263 0.239258 61.5784 0.239258C61.0305 0.239258 60.5823 0.6875 60.5823 1.23535C60.5823 1.7832 61.0305 2.23145 61.5784 2.23145ZM60.8479 12.9062H62.2923V3.95801H60.8479V12.9062ZM64.6879 12.9062H66.1323V0.405273H64.6879V12.9062ZM68.5777 12.9062H70.0221V0.405273H68.5777V12.9062ZM77.5195 2.23145C78.0673 2.23145 78.5155 1.7832 78.5155 1.23535C78.5155 0.6875 78.0673 0.239258 77.5195 0.239258C76.9716 0.239258 76.5234 0.6875 76.5234 1.23535C76.5234 1.7832 76.9716 2.23145 77.5195 2.23145ZM76.789 12.9062H78.2333V3.95801H76.789V12.9062ZM80.546 12.9062H81.9903V7.61035C81.9903 6.0415 82.8951 5.07861 84.3228 5.07861C85.7506 5.07861 86.4146 5.85059 86.4146 7.46094V12.9062H87.859V7.1123C87.859 4.9873 86.7384 3.80029 84.7296 3.80029C83.4097 3.80029 82.5714 4.35645 82.1231 5.30273H81.9903V3.95801H80.546V12.9062ZM96.892 13.064C98.0956 13.064 99.0336 12.541 99.598 11.5864H99.7309V12.9062H101.175V6.78027C101.175 4.9209 99.955 3.80029 97.7719 3.80029C95.8627 3.80029 94.5014 4.74658 94.2689 6.14941L94.2606 6.19922H95.705L95.7133 6.17432C95.9457 5.47705 96.6513 5.07861 97.7221 5.07861C99.0585 5.07861 99.7309 5.67627 99.7309 6.78027V7.59375L97.1659 7.75146C95.0824 7.87598 93.9037 8.79736 93.9037 10.3911V10.4077C93.9037 12.0347 95.1903 13.064 96.892 13.064ZM95.3812 10.3745V10.3579C95.3812 9.46973 95.9789 8.98828 97.3402 8.90527L99.7309 8.75586V9.56934C99.7309 10.8477 98.6601 11.8105 97.1908 11.8105C96.1532 11.8105 95.3812 11.2793 95.3812 10.3745ZM108.374 12.9062H109.818V5.15332H111.852V3.95801H109.818V3.00342C109.818 2.02393 110.233 1.51758 111.262 1.51758C111.52 1.51758 111.76 1.52588 111.935 1.55908V0.405273C111.636 0.347168 111.321 0.322266 110.972 0.322266C109.27 0.322266 108.374 1.17725 108.374 2.96191V3.95801H106.888V5.15332H108.374V12.9062ZM116.796 13.064C118.904 13.064 120.183 11.8687 120.49 10.6567L120.506 10.5903H119.062L119.029 10.665C118.788 11.2046 118.041 11.7773 116.829 11.7773C115.235 11.7773 114.214 10.6982 114.173 8.84717H120.614V8.28271C120.614 5.60986 119.137 3.80029 116.704 3.80029C114.272 3.80029 112.695 5.69287 112.695 8.45703V8.46533C112.695 11.271 114.239 13.064 116.796 13.064ZM116.696 5.08691C118.016 5.08691 118.995 5.92529 119.145 7.69336H114.198C114.355 5.9917 115.368 5.08691 116.696 5.08691ZM124.172 12.9062H125.616L127.608 5.9834H127.741L129.742 12.9062H131.194L133.701 3.95801H132.265L130.505 11.1133H130.373L128.372 3.95801H127.002L125.002 11.1133H124.869L123.109 3.95801H121.665L124.172 12.9062ZM142.875 13.064C144.12 13.064 145.117 12.4746 145.664 11.4785H145.797V12.9062H147.242V0.405273H145.797V5.36914H145.664C145.175 4.41455 144.104 3.80029 142.875 3.80029C140.601 3.80029 139.123 5.61816 139.123 8.42383V8.44043C139.123 11.2295 140.609 13.064 142.875 13.064ZM143.207 11.7856C141.572 11.7856 140.601 10.5239 140.601 8.44043V8.42383C140.601 6.34033 141.572 5.07861 143.207 5.07861C144.834 5.07861 145.83 6.35693 145.83 8.42383V8.44043C145.83 10.5073 144.834 11.7856 143.207 11.7856ZM153.256 13.064C155.365 13.064 156.643 11.8687 156.95 10.6567L156.967 10.5903H155.522L155.489 10.665C155.249 11.2046 154.501 11.7773 153.29 11.7773C151.696 11.7773 150.675 10.6982 150.633 8.84717H157.075V8.28271C157.075 5.60986 155.597 3.80029 153.165 3.80029C150.733 3.80029 149.156 5.69287 149.156 8.45703V8.46533C149.156 11.271 150.7 13.064 153.256 13.064ZM153.157 5.08691C154.477 5.08691 155.456 5.92529 155.605 7.69336H150.658C150.816 5.9917 151.829 5.08691 153.157 5.08691ZM162.085 12.9727C162.367 12.9727 162.641 12.9395 162.924 12.8896V11.6611C162.658 11.686 162.517 11.6943 162.259 11.6943C161.33 11.6943 160.965 11.271 160.965 10.2168V5.15332H162.924V3.95801H160.965V1.64209H159.47V3.95801H158.059V5.15332H159.47V10.582C159.47 12.292 160.242 12.9727 162.085 12.9727ZM167.129 13.064C168.332 13.064 169.27 12.541 169.835 11.5864H169.968V12.9062H171.412V6.78027C171.412 4.9209 170.192 3.80029 168.009 3.80029C166.099 3.80029 164.738 4.74658 164.506 6.14941L164.497 6.19922H165.942L165.95 6.17432C166.182 5.47705 166.888 5.07861 167.959 5.07861C169.295 5.07861 169.968 5.67627 169.968 6.78027V7.59375L167.403 7.75146C165.319 7.87598 164.14 8.79736 164.14 10.3911V10.4077C164.14 12.0347 165.427 13.064 167.129 13.064ZM165.618 10.3745V10.3579C165.618 9.46973 166.216 8.98828 167.577 8.90527L169.968 8.75586V9.56934C169.968 10.8477 168.897 11.8105 167.428 11.8105C166.39 11.8105 165.618 11.2793 165.618 10.3745ZM174.405 2.23145C174.953 2.23145 175.401 1.7832 175.401 1.23535C175.401 0.6875 174.953 0.239258 174.405 0.239258C173.857 0.239258 173.409 0.6875 173.409 1.23535C173.409 1.7832 173.857 2.23145 174.405 2.23145ZM173.675 12.9062H175.119V3.95801H173.675V12.9062ZM177.515 12.9062H178.959V0.405273H177.515V12.9062ZM184.393 13.064C186.427 13.064 187.979 11.96 187.979 10.3662V10.3496C187.979 9.07129 187.165 8.34082 185.48 7.93408L184.102 7.60205C183.048 7.34473 182.6 6.96289 182.6 6.35693V6.34033C182.6 5.55176 183.38 5.00391 184.443 5.00391C185.522 5.00391 186.219 5.49365 186.41 6.19922H187.829C187.63 4.73828 186.327 3.80029 184.451 3.80029C182.55 3.80029 181.122 4.9209 181.122 6.40674V6.41504C181.122 7.70166 181.878 8.43213 183.555 8.83057L184.941 9.1626C186.045 9.42822 186.501 9.85156 186.501 10.4575V10.4741C186.501 11.2876 185.646 11.8604 184.443 11.8604C183.297 11.8604 182.583 11.3706 182.343 10.6235H180.865C181.031 12.1011 182.401 13.064 184.393 13.064ZM198.631 13.064C200.897 13.064 202.382 11.2295 202.382 8.44043V8.42383C202.382 5.61816 200.905 3.80029 198.631 3.80029C197.402 3.80029 196.331 4.41455 195.841 5.36914H195.709V0.405273H194.264V12.9062H195.709V11.4785H195.841C196.389 12.4746 197.385 13.064 198.631 13.064ZM198.298 11.7856C196.672 11.7856 195.675 10.5073 195.675 8.44043V8.42383C195.675 6.35693 196.672 5.07861 198.298 5.07861C199.934 5.07861 200.905 6.34033 200.905 8.42383V8.44043C200.905 10.5239 199.934 11.7856 198.298 11.7856ZM207.866 13.064C209.974 13.064 211.253 11.8687 211.56 10.6567L211.576 10.5903H210.132L210.099 10.665C209.858 11.2046 209.111 11.7773 207.899 11.7773C206.305 11.7773 205.284 10.6982 205.243 8.84717H211.684V8.28271C211.684 5.60986 210.207 3.80029 207.775 3.80029C205.343 3.80029 203.765 5.69287 203.765 8.45703V8.46533C203.765 11.271 205.309 13.064 207.866 13.064ZM207.766 5.08691C209.086 5.08691 210.066 5.92529 210.215 7.69336H205.268C205.426 5.9917 206.438 5.08691 207.766 5.08691ZM213.599 12.9062H215.043V0.405273H213.599V12.9062ZM221.083 13.064C223.631 13.064 225.208 11.3042 225.208 8.44043V8.42383C225.208 5.55176 223.631 3.80029 221.083 3.80029C218.534 3.80029 216.957 5.55176 216.957 8.42383V8.44043C216.957 11.3042 218.534 13.064 221.083 13.064ZM221.083 11.7856C219.389 11.7856 218.435 10.5488 218.435 8.44043V8.42383C218.435 6.30713 219.389 5.07861 221.083 5.07861C222.776 5.07861 223.731 6.30713 223.731 8.42383V8.44043C223.731 10.5488 222.776 11.7856 221.083 11.7856ZM228.434 12.9062H229.878L231.87 5.9834H232.003L234.004 12.9062H235.456L237.963 3.95801H236.527L234.767 11.1133H234.635L232.634 3.95801H231.264L229.264 11.1133H229.131L227.371 3.95801H225.927L228.434 12.9062Z" fill="url(#paint0_linear_3_1250)"/>
<defs>
<linearGradient id="paint0_linear_3_1250" x1="115.082" y1="-14.0163" x2="111.213" y2="28.1924" gradientUnits="userSpaceOnUse">
<stop stop-color="#CDDDF4"/>
<stop offset="1" stop-color="#CDBAFA"/>
</linearGradient>
</defs>
</svg>
