<svg width="248" height="61" viewBox="0 0 248 61" fill="none" xmlns="http://www.w3.org/2000/svg">
<path d="M0.363556 12.9062H1.8577V8.63135H4.87918C7.12869 8.63135 8.72244 7.0459 8.72244 4.77148V4.75488C8.72244 2.48047 7.12869 0.928223 4.87918 0.928223H0.363556V12.9062ZM4.49734 2.25635C6.20731 2.25635 7.1951 3.19434 7.1951 4.77148V4.78809C7.1951 6.36523 6.20731 7.30322 4.49734 7.30322H1.8577V2.25635H4.49734ZM10.6616 12.9062H12.1059V0.405273H10.6616V12.9062ZM18.1207 13.064C20.2291 13.064 21.5074 11.8687 21.8146 10.6567L21.8312 10.5903H20.3868L20.3536 10.665C20.1129 11.2046 19.3658 11.7773 18.1539 11.7773C16.5602 11.7773 15.5392 10.6982 15.4977 8.84717H21.9391V8.28271C21.9391 5.60986 20.4615 3.80029 18.0294 3.80029C15.5973 3.80029 14.0201 5.69287 14.0201 8.45703V8.46533C14.0201 11.271 15.5641 13.064 18.1207 13.064ZM18.0211 5.08691C19.3409 5.08691 20.3204 5.92529 20.4698 7.69336H15.5226C15.6803 5.9917 16.693 5.08691 18.0211 5.08691ZM26.2273 13.064C27.4309 13.064 28.3689 12.541 28.9334 11.5864H29.0662V12.9062H30.5105V6.78027C30.5105 4.9209 29.2903 3.80029 27.1072 3.80029C25.198 3.80029 23.8367 4.74658 23.6043 6.14941L23.596 6.19922H25.0403L25.0486 6.17432C25.281 5.47705 25.9866 5.07861 27.0574 5.07861C28.3938 5.07861 29.0662 5.67627 29.0662 6.78027V7.59375L26.5012 7.75146C24.4177 7.87598 23.239 8.79736 23.239 10.3911V10.4077C23.239 12.0347 24.5256 13.064 26.2273 13.064ZM24.7166 10.3745V10.3579C24.7166 9.46973 25.3142 8.98828 26.6755 8.90527L29.0662 8.75586V9.56934C29.0662 10.8477 27.9954 11.8105 26.5261 11.8105C25.4885 11.8105 24.7166 11.2793 24.7166 10.3745ZM35.8114 13.064C37.8451 13.064 39.3974 11.96 39.3974 10.3662V10.3496C39.3974 9.07129 38.5839 8.34082 36.8988 7.93408L35.5209 7.60205C34.4667 7.34473 34.0185 6.96289 34.0185 6.35693V6.34033C34.0185 5.55176 34.7988 5.00391 35.8613 5.00391C36.9404 5.00391 37.6376 5.49365 37.8285 6.19922H39.248C39.0488 4.73828 37.7455 3.80029 35.8696 3.80029C33.9687 3.80029 32.5409 4.9209 32.5409 6.40674V6.41504C32.5409 7.70166 33.2963 8.43213 34.9731 8.83057L36.3593 9.1626C37.4633 9.42822 37.9198 9.85156 37.9198 10.4575V10.4741C37.9198 11.2876 37.0649 11.8604 35.8613 11.8604C34.7157 11.8604 34.0019 11.3706 33.7612 10.6235H32.2836C32.4496 12.1011 33.8193 13.064 35.8114 13.064ZM44.8809 13.064C46.9893 13.064 48.2677 11.8687 48.5748 10.6567L48.5914 10.5903H47.1471L47.1138 10.665C46.8731 11.2046 46.1261 11.7773 44.9141 11.7773C43.3204 11.7773 42.2994 10.6982 42.2579 8.84717H48.6993V8.28271C48.6993 5.60986 47.2218 3.80029 44.7896 3.80029C42.3575 3.80029 40.7804 5.69287 40.7804 8.45703V8.46533C40.7804 11.271 42.3243 13.064 44.8809 13.064ZM44.7813 5.08691C46.1012 5.08691 47.0806 5.92529 47.2301 7.69336H42.2828C42.4405 5.9917 43.4532 5.08691 44.7813 5.08691ZM57.3588 13.064C58.5624 13.064 59.5004 12.541 60.0648 11.5864H60.1977V12.9062H61.642V6.78027C61.642 4.9209 60.4218 3.80029 58.2387 3.80029C56.3295 3.80029 54.9682 4.74658 54.7357 6.14941L54.7274 6.19922H56.1718L56.1801 6.17432C56.4125 5.47705 57.1181 5.07861 58.1889 5.07861C59.5253 5.07861 60.1977 5.67627 60.1977 6.78027V7.59375L57.6327 7.75146C55.5492 7.87598 54.3705 8.79736 54.3705 10.3911V10.4077C54.3705 12.0347 55.6571 13.064 57.3588 13.064ZM55.8481 10.3745V10.3579C55.8481 9.46973 56.4457 8.98828 57.807 8.90527L60.1977 8.75586V9.56934C60.1977 10.8477 59.1269 11.8105 57.6576 11.8105C56.62 11.8105 55.8481 11.2793 55.8481 10.3745ZM63.9547 12.9062H65.399V0.405273H63.9547V12.9062ZM67.8445 12.9062H69.2888V0.405273H67.8445V12.9062ZM75.3285 13.064C77.8768 13.064 79.454 11.3042 79.454 8.44043V8.42383C79.454 5.55176 77.8768 3.80029 75.3285 3.80029C72.7802 3.80029 71.203 5.55176 71.203 8.42383V8.44043C71.203 11.3042 72.7802 13.064 75.3285 13.064ZM75.3285 11.7856C73.6351 11.7856 72.6805 10.5488 72.6805 8.44043V8.42383C72.6805 6.30713 73.6351 5.07861 75.3285 5.07861C77.0219 5.07861 77.9764 6.30713 77.9764 8.42383V8.44043C77.9764 10.5488 77.0219 11.7856 75.3285 11.7856ZM82.6797 12.9062H84.1241L86.1162 5.9834H86.2491L88.2495 12.9062H89.7022L92.209 3.95801H90.773L89.0132 11.1133H88.8804L86.8799 3.95801H85.5103L83.5098 11.1133H83.377L81.6172 3.95801H80.1729L82.6797 12.9062ZM98.0795 12.9062H99.5238V7.61035C99.5238 6.0415 100.429 5.07861 101.856 5.07861C103.284 5.07861 103.948 5.85059 103.948 7.46094V12.9062H105.392V7.1123C105.392 4.9873 104.272 3.80029 102.263 3.80029C100.943 3.80029 100.105 4.35645 99.6566 5.30273H99.5238V3.95801H98.0795V12.9062ZM111.274 13.064C113.823 13.064 115.4 11.3042 115.4 8.44043V8.42383C115.4 5.55176 113.823 3.80029 111.274 3.80029C108.726 3.80029 107.149 5.55176 107.149 8.42383V8.44043C107.149 11.3042 108.726 13.064 111.274 13.064ZM111.274 11.7856C109.581 11.7856 108.626 10.5488 108.626 8.44043V8.42383C108.626 6.30713 109.581 5.07861 111.274 5.07861C112.968 5.07861 113.922 6.30713 113.922 8.42383V8.44043C113.922 10.5488 112.968 11.7856 111.274 11.7856ZM120.41 12.9727C120.693 12.9727 120.966 12.9395 121.249 12.8896V11.6611C120.983 11.686 120.842 11.6943 120.585 11.6943C119.655 11.6943 119.29 11.271 119.29 10.2168V5.15332H121.249V3.95801H119.29V1.64209H117.796V3.95801H116.384V5.15332H117.796V10.582C117.796 12.292 118.568 12.9727 120.41 12.9727ZM123.761 2.23145C124.308 2.23145 124.757 1.7832 124.757 1.23535C124.757 0.6875 124.308 0.239258 123.761 0.239258C123.213 0.239258 122.764 0.6875 122.764 1.23535C122.764 1.7832 123.213 2.23145 123.761 2.23145ZM123.03 12.9062H124.474V3.95801H123.03V12.9062ZM127.385 12.9062H128.829V5.15332H130.863V3.95801H128.829V3.00342C128.829 2.02393 129.244 1.51758 130.273 1.51758C130.531 1.51758 130.771 1.52588 130.946 1.55908V0.405273C130.647 0.347168 130.332 0.322266 129.983 0.322266C128.281 0.322266 127.385 1.17725 127.385 2.96191V3.95801H125.899V5.15332H127.385V12.9062ZM133.3 2.23145C133.848 2.23145 134.296 1.7832 134.296 1.23535C134.296 0.6875 133.848 0.239258 133.3 0.239258C132.752 0.239258 132.304 0.6875 132.304 1.23535C132.304 1.7832 132.752 2.23145 133.3 2.23145ZM132.569 12.9062H134.014V3.95801H132.569V12.9062ZM139.987 13.064C142.137 13.064 143.341 11.9102 143.706 10.2915L143.722 10.2002L142.295 10.2085L142.278 10.2583C141.946 11.2544 141.182 11.7856 139.979 11.7856C138.385 11.7856 137.356 10.4658 137.356 8.40723V8.39062C137.356 6.37354 138.368 5.07861 139.979 5.07861C141.265 5.07861 142.062 5.79248 142.286 6.67236L142.295 6.69727H143.731L143.722 6.64746C143.457 5.05371 142.154 3.80029 139.979 3.80029C137.472 3.80029 135.878 5.60986 135.878 8.39062V8.40723C135.878 11.2461 137.48 13.064 139.987 13.064ZM147.886 13.064C149.09 13.064 150.028 12.541 150.592 11.5864H150.725V12.9062H152.169V6.78027C152.169 4.9209 150.949 3.80029 148.766 3.80029C146.857 3.80029 145.496 4.74658 145.263 6.14941L145.255 6.19922H146.699L146.708 6.17432C146.94 5.47705 147.645 5.07861 148.716 5.07861C150.053 5.07861 150.725 5.67627 150.725 6.78027V7.59375L148.16 7.75146C146.077 7.87598 144.898 8.79736 144.898 10.3911V10.4077C144.898 12.0347 146.185 13.064 147.886 13.064ZM146.375 10.3745V10.3579C146.375 9.46973 146.973 8.98828 148.334 8.90527L150.725 8.75586V9.56934C150.725 10.8477 149.654 11.8105 148.185 11.8105C147.147 11.8105 146.375 11.2793 146.375 10.3745ZM157.578 12.9727C157.86 12.9727 158.134 12.9395 158.417 12.8896V11.6611C158.151 11.686 158.01 11.6943 157.753 11.6943C156.823 11.6943 156.458 11.271 156.458 10.2168V5.15332H158.417V3.95801H156.458V1.64209H154.964V3.95801H153.552V5.15332H154.964V10.582C154.964 12.292 155.735 12.9727 157.578 12.9727ZM160.929 2.23145C161.476 2.23145 161.925 1.7832 161.925 1.23535C161.925 0.6875 161.476 0.239258 160.929 0.239258C160.381 0.239258 159.932 0.6875 159.932 1.23535C159.932 1.7832 160.381 2.23145 160.929 2.23145ZM160.198 12.9062H161.642V3.95801H160.198V12.9062ZM167.632 13.064C170.181 13.064 171.758 11.3042 171.758 8.44043V8.42383C171.758 5.55176 170.181 3.80029 167.632 3.80029C165.084 3.80029 163.507 5.55176 163.507 8.42383V8.44043C163.507 11.3042 165.084 13.064 167.632 13.064ZM167.632 11.7856C165.939 11.7856 164.984 10.5488 164.984 8.44043V8.42383C164.984 6.30713 165.939 5.07861 167.632 5.07861C169.326 5.07861 170.28 6.30713 170.28 8.42383V8.44043C170.28 10.5488 169.326 11.7856 167.632 11.7856ZM173.589 12.9062H175.033V7.61035C175.033 6.0415 175.938 5.07861 177.366 5.07861C178.794 5.07861 179.458 5.85059 179.458 7.46094V12.9062H180.902V7.1123C180.902 4.9873 179.781 3.80029 177.773 3.80029C176.453 3.80029 175.614 4.35645 175.166 5.30273H175.033V3.95801H173.589V12.9062ZM186.178 13.064C188.212 13.064 189.764 11.96 189.764 10.3662V10.3496C189.764 9.07129 188.95 8.34082 187.265 7.93408L185.887 7.60205C184.833 7.34473 184.385 6.96289 184.385 6.35693V6.34033C184.385 5.55176 185.165 5.00391 186.228 5.00391C187.307 5.00391 188.004 5.49365 188.195 6.19922H189.615C189.415 4.73828 188.112 3.80029 186.236 3.80029C184.335 3.80029 182.908 4.9209 182.908 6.40674V6.41504C182.908 7.70166 183.663 8.43213 185.34 8.83057L186.726 9.1626C187.83 9.42822 188.286 9.85156 188.286 10.4575V10.4741C188.286 11.2876 187.431 11.8604 186.228 11.8604C185.082 11.8604 184.368 11.3706 184.128 10.6235H182.65C182.816 12.1011 184.186 13.064 186.178 13.064ZM196.73 2.23145C197.278 2.23145 197.726 1.7832 197.726 1.23535C197.726 0.6875 197.278 0.239258 196.73 0.239258C196.182 0.239258 195.734 0.6875 195.734 1.23535C195.734 1.7832 196.182 2.23145 196.73 2.23145ZM196 12.9062H197.444V3.95801H196V12.9062ZM199.757 12.9062H201.201V7.61035C201.201 6.0415 202.106 5.07861 203.533 5.07861C204.961 5.07861 205.625 5.85059 205.625 7.46094V12.9062H207.07V7.1123C207.07 4.9873 205.949 3.80029 203.94 3.80029C202.62 3.80029 201.782 4.35645 201.334 5.30273H201.201V3.95801H199.757V12.9062ZM217.306 13.064C219.456 13.064 220.66 11.9102 221.025 10.2915L221.042 10.2002L219.614 10.2085L219.597 10.2583C219.265 11.2544 218.502 11.7856 217.298 11.7856C215.704 11.7856 214.675 10.4658 214.675 8.40723V8.39062C214.675 6.37354 215.688 5.07861 217.298 5.07861C218.585 5.07861 219.381 5.79248 219.606 6.67236L219.614 6.69727H221.05L221.042 6.64746C220.776 5.05371 219.473 3.80029 217.298 3.80029C214.791 3.80029 213.197 5.60986 213.197 8.39062V8.40723C213.197 11.2461 214.799 13.064 217.306 13.064ZM225.205 13.064C226.409 13.064 227.347 12.541 227.911 11.5864H228.044V12.9062H229.489V6.78027C229.489 4.9209 228.268 3.80029 226.085 3.80029C224.176 3.80029 222.815 4.74658 222.582 6.14941L222.574 6.19922H224.018L224.027 6.17432C224.259 5.47705 224.965 5.07861 226.035 5.07861C227.372 5.07861 228.044 5.67627 228.044 6.78027V7.59375L225.479 7.75146C223.396 7.87598 222.217 8.79736 222.217 10.3911V10.4077C222.217 12.0347 223.504 13.064 225.205 13.064ZM223.695 10.3745V10.3579C223.695 9.46973 224.292 8.98828 225.654 8.90527L228.044 8.75586V9.56934C228.044 10.8477 226.973 11.8105 225.504 11.8105C224.467 11.8105 223.695 11.2793 223.695 10.3745ZM234.789 13.064C236.823 13.064 238.375 11.96 238.375 10.3662V10.3496C238.375 9.07129 237.562 8.34082 235.877 7.93408L234.499 7.60205C233.445 7.34473 232.996 6.96289 232.996 6.35693V6.34033C232.996 5.55176 233.777 5.00391 234.839 5.00391C235.918 5.00391 236.616 5.49365 236.807 6.19922H238.226C238.027 4.73828 236.724 3.80029 234.848 3.80029C232.947 3.80029 231.519 4.9209 231.519 6.40674V6.41504C231.519 7.70166 232.274 8.43213 233.951 8.83057L235.337 9.1626C236.441 9.42822 236.898 9.85156 236.898 10.4575V10.4741C236.898 11.2876 236.043 11.8604 234.839 11.8604C233.694 11.8604 232.98 11.3706 232.739 10.6235H231.262C231.428 12.1011 232.797 13.064 234.789 13.064ZM243.859 13.064C245.967 13.064 247.246 11.8687 247.553 10.6567L247.569 10.5903H246.125L246.092 10.665C245.851 11.2046 245.104 11.7773 243.892 11.7773C242.298 11.7773 241.277 10.6982 241.236 8.84717H247.677V8.28271C247.677 5.60986 246.2 3.80029 243.768 3.80029C241.336 3.80029 239.758 5.69287 239.758 8.45703V8.46533C239.758 11.271 241.302 13.064 243.859 13.064ZM243.759 5.08691C245.079 5.08691 246.059 5.92529 246.208 7.69336H241.261C241.419 5.9917 242.431 5.08691 243.759 5.08691ZM4.57887 35.064C6.61256 35.064 8.1648 33.96 8.1648 32.3662V32.3496C8.1648 31.0713 7.35133 30.3408 5.66627 29.9341L4.28834 29.6021C3.23414 29.3447 2.7859 28.9629 2.7859 28.3569V28.3403C2.7859 27.5518 3.56617 27.0039 4.62867 27.0039C5.70777 27.0039 6.40504 27.4937 6.59595 28.1992H8.01539C7.81617 26.7383 6.51295 25.8003 4.63697 25.8003C2.73609 25.8003 1.30836 26.9209 1.30836 28.4067V28.415C1.30836 29.7017 2.06373 30.4321 3.74049 30.8306L5.12672 31.1626C6.23072 31.4282 6.68726 31.8516 6.68726 32.4575V32.4741C6.68726 33.2876 5.83228 33.8604 4.62867 33.8604C3.48316 33.8604 2.76929 33.3706 2.52857 32.6235H1.05103C1.21705 34.1011 2.58668 35.064 4.57887 35.064ZM13.6733 35.064C16.2216 35.064 17.7987 33.3042 17.7987 30.4404V30.4238C17.7987 27.5518 16.2216 25.8003 13.6733 25.8003C11.1249 25.8003 9.54777 27.5518 9.54777 30.4238V30.4404C9.54777 33.3042 11.1249 35.064 13.6733 35.064ZM13.6733 33.7856C11.9799 33.7856 11.0253 32.5488 11.0253 30.4404V30.4238C11.0253 28.3071 11.9799 27.0786 13.6733 27.0786C15.3666 27.0786 16.3212 28.3071 16.3212 30.4238V30.4404C16.3212 32.5488 15.3666 33.7856 13.6733 33.7856ZM19.63 34.9062H21.0743V29.3613C21.0743 28.0996 21.9625 27.0786 23.1329 27.0786C24.2618 27.0786 24.9923 27.7676 24.9923 28.8301V34.9062H26.4366V29.1538C26.4366 28.0166 27.2584 27.0786 28.5035 27.0786C29.7652 27.0786 30.3712 27.7344 30.3712 29.0542V34.9062H31.8155V28.7222C31.8155 26.8462 30.7945 25.8003 28.9683 25.8003C27.7315 25.8003 26.7105 26.4229 26.2291 27.3691H26.0963C25.6812 26.4395 24.8345 25.8003 23.6226 25.8003C22.4522 25.8003 21.6055 26.3564 21.2071 27.3193H21.0743V25.958H19.63V34.9062ZM37.6643 35.064C39.7727 35.064 41.051 33.8687 41.3581 32.6567L41.3747 32.5903H39.9304L39.8972 32.665C39.6565 33.2046 38.9094 33.7773 37.6975 33.7773C36.1037 33.7773 35.0828 32.6982 35.0412 30.8472H41.4827V30.2827C41.4827 27.6099 40.0051 25.8003 37.573 25.8003C35.1409 25.8003 33.5637 27.6929 33.5637 30.457V30.4653C33.5637 33.271 35.1077 35.064 37.6643 35.064ZM37.5647 27.0869C38.8845 27.0869 39.864 27.9253 40.0134 29.6934H35.0662C35.2239 27.9917 36.2366 27.0869 37.5647 27.0869ZM46.9911 35.064C49.5395 35.064 51.1166 33.3042 51.1166 30.4404V30.4238C51.1166 27.5518 49.5395 25.8003 46.9911 25.8003C44.4428 25.8003 42.8656 27.5518 42.8656 30.4238V30.4404C42.8656 33.3042 44.4428 35.064 46.9911 35.064ZM46.9911 33.7856C45.2978 33.7856 44.3432 32.5488 44.3432 30.4404V30.4238C44.3432 28.3071 45.2978 27.0786 46.9911 27.0786C48.6845 27.0786 49.6391 28.3071 49.6391 30.4238V30.4404C49.6391 32.5488 48.6845 33.7856 46.9911 33.7856ZM52.9478 34.9062H54.3922V29.6104C54.3922 28.0415 55.2969 27.0786 56.7247 27.0786C58.1524 27.0786 58.8165 27.8506 58.8165 29.4609V34.9062H60.2608V29.1123C60.2608 26.9873 59.1402 25.8003 57.1314 25.8003C55.8116 25.8003 54.9732 26.3564 54.525 27.3027H54.3922V25.958H52.9478V34.9062ZM66.1179 35.064C68.2263 35.064 69.5046 33.8687 69.8117 32.6567L69.8283 32.5903H68.384L68.3508 32.665C68.1101 33.2046 67.363 33.7773 66.1511 33.7773C64.5573 33.7773 63.5363 32.6982 63.4948 30.8472H69.9362V30.2827C69.9362 27.6099 68.4587 25.8003 66.0266 25.8003C63.5945 25.8003 62.0173 27.6929 62.0173 30.457V30.4653C62.0173 33.271 63.5612 35.064 66.1179 35.064ZM66.0183 27.0869C67.3381 27.0869 68.3176 27.9253 68.467 29.6934H63.5197C63.6775 27.9917 64.6902 27.0869 66.0183 27.0869ZM76.1387 34.9062H77.583V29.3613C77.583 28.0996 78.4712 27.0786 79.6416 27.0786C80.7705 27.0786 81.501 27.7676 81.501 28.8301V34.9062H82.9454V29.1538C82.9454 28.0166 83.7671 27.0786 85.0122 27.0786C86.274 27.0786 86.8799 27.7344 86.8799 29.0542V34.9062H88.3243V28.7222C88.3243 26.8462 87.3033 25.8003 85.4771 25.8003C84.2403 25.8003 83.2193 26.4229 82.7378 27.3691H82.605C82.19 26.4395 81.3433 25.8003 80.1314 25.8003C78.961 25.8003 78.1143 26.3564 77.7159 27.3193H77.583V25.958H76.1387V34.9062ZM94.173 35.064C96.2814 35.064 97.5598 33.8687 97.8669 32.6567L97.8835 32.5903H96.4392L96.406 32.665C96.1652 33.2046 95.4182 33.7773 94.2062 33.7773C92.6125 33.7773 91.5915 32.6982 91.55 30.8472H97.9914V30.2827C97.9914 27.6099 96.5139 25.8003 94.0817 25.8003C91.6496 25.8003 90.0725 27.6929 90.0725 30.457V30.4653C90.0725 33.271 91.6164 35.064 94.173 35.064ZM94.0734 27.0869C95.3933 27.0869 96.3727 27.9253 96.5222 29.6934H91.5749C91.7326 27.9917 92.7453 27.0869 94.0734 27.0869ZM102.894 35.064C104.928 35.064 106.48 33.96 106.48 32.3662V32.3496C106.48 31.0713 105.666 30.3408 103.981 29.9341L102.603 29.6021C101.549 29.3447 101.101 28.9629 101.101 28.3569V28.3403C101.101 27.5518 101.881 27.0039 102.944 27.0039C104.023 27.0039 104.72 27.4937 104.911 28.1992H106.33C106.131 26.7383 104.828 25.8003 102.952 25.8003C101.051 25.8003 99.6234 26.9209 99.6234 28.4067V28.415C99.6234 29.7017 100.379 30.4321 102.056 30.8306L103.442 31.1626C104.546 31.4282 105.002 31.8516 105.002 32.4575V32.4741C105.002 33.2876 104.147 33.8604 102.944 33.8604C101.798 33.8604 101.084 33.3706 100.844 32.6235H99.3661C99.5321 34.1011 100.902 35.064 102.894 35.064ZM111.216 35.064C113.25 35.064 114.802 33.96 114.802 32.3662V32.3496C114.802 31.0713 113.989 30.3408 112.304 29.9341L110.926 29.6021C109.872 29.3447 109.423 28.9629 109.423 28.3569V28.3403C109.423 27.5518 110.204 27.0039 111.266 27.0039C112.345 27.0039 113.042 27.4937 113.233 28.1992H114.653C114.454 26.7383 113.15 25.8003 111.274 25.8003C109.374 25.8003 107.946 26.9209 107.946 28.4067V28.415C107.946 29.7017 108.701 30.4321 110.378 30.8306L111.764 31.1626C112.868 31.4282 113.325 31.8516 113.325 32.4575V32.4741C113.325 33.2876 112.47 33.8604 111.266 33.8604C110.121 33.8604 109.407 33.3706 109.166 32.6235H107.688C107.855 34.1011 109.224 35.064 111.216 35.064ZM119.091 35.064C120.294 35.064 121.232 34.541 121.797 33.5864H121.929V34.9062H123.374V28.7803C123.374 26.9209 122.154 25.8003 119.97 25.8003C118.061 25.8003 116.7 26.7466 116.467 28.1494L116.459 28.1992H117.904L117.912 28.1743C118.144 27.4771 118.85 27.0786 119.921 27.0786C121.257 27.0786 121.929 27.6763 121.929 28.7803V29.5938L119.364 29.7515C117.281 29.876 116.102 30.7974 116.102 32.3911V32.4077C116.102 34.0347 117.389 35.064 119.091 35.064ZM117.58 32.3745V32.3579C117.58 31.4697 118.177 30.9883 119.539 30.9053L121.929 30.7559V31.5693C121.929 32.8477 120.859 33.8105 119.389 33.8105C118.352 33.8105 117.58 33.2793 117.58 32.3745ZM129.289 38.0605C131.729 38.0605 133.273 36.7822 133.273 34.7817V25.958H131.829V27.4355H131.729C131.181 26.4229 130.202 25.8003 128.94 25.8003C126.599 25.8003 125.155 27.6182 125.155 30.125V30.1416C125.155 32.6484 126.591 34.4414 128.907 34.4414C130.136 34.4414 131.148 33.8853 131.713 32.8975H131.846V34.707C131.846 36.0269 130.891 36.7822 129.289 36.7822C128.002 36.7822 127.205 36.3008 127.048 35.6201L127.039 35.6118H125.545L125.529 35.6201C125.753 37.0894 127.131 38.0605 129.289 38.0605ZM129.223 33.1631C127.562 33.1631 126.633 31.918 126.633 30.1416V30.125C126.633 28.3486 127.562 27.0786 129.223 27.0786C130.874 27.0786 131.879 28.3486 131.879 30.125V30.1416C131.879 31.918 130.883 33.1631 129.223 33.1631ZM139.205 35.064C141.313 35.064 142.592 33.8687 142.899 32.6567L142.916 32.5903H141.471L141.438 32.665C141.197 33.2046 140.45 33.7773 139.238 33.7773C137.645 33.7773 136.624 32.6982 136.582 30.8472H143.023V30.2827C143.023 27.6099 141.546 25.8003 139.114 25.8003C136.682 25.8003 135.104 27.6929 135.104 30.457V30.4653C135.104 33.271 136.648 35.064 139.205 35.064ZM139.105 27.0869C140.425 27.0869 141.405 27.9253 141.554 29.6934H136.607C136.765 27.9917 137.777 27.0869 139.105 27.0869ZM147.926 35.064C149.96 35.064 151.512 33.96 151.512 32.3662V32.3496C151.512 31.0713 150.698 30.3408 149.013 29.9341L147.635 29.6021C146.581 29.3447 146.133 28.9629 146.133 28.3569V28.3403C146.133 27.5518 146.913 27.0039 147.976 27.0039C149.055 27.0039 149.752 27.4937 149.943 28.1992H151.362C151.163 26.7383 149.86 25.8003 147.984 25.8003C146.083 25.8003 144.655 26.9209 144.655 28.4067V28.415C144.655 29.7017 145.411 30.4321 147.088 30.8306L148.474 31.1626C149.578 31.4282 150.034 31.8516 150.034 32.4575V32.4741C150.034 33.2876 149.179 33.8604 147.976 33.8604C146.83 33.8604 146.116 33.3706 145.876 32.6235H144.398C144.564 34.1011 145.934 35.064 147.926 35.064ZM161.392 35.064C163.94 35.064 165.517 33.3042 165.517 30.4404V30.4238C165.517 27.5518 163.94 25.8003 161.392 25.8003C158.843 25.8003 157.266 27.5518 157.266 30.4238V30.4404C157.266 33.3042 158.843 35.064 161.392 35.064ZM161.392 33.7856C159.698 33.7856 158.744 32.5488 158.744 30.4404V30.4238C158.744 28.3071 159.698 27.0786 161.392 27.0786C163.085 27.0786 164.04 28.3071 164.04 30.4238V30.4404C164.04 32.5488 163.085 33.7856 161.392 33.7856ZM167.348 34.9062H168.793V29.3613C168.793 28.0498 169.772 27.1782 171.15 27.1782C171.465 27.1782 171.739 27.2114 172.038 27.2612V25.8584C171.897 25.8335 171.59 25.8003 171.316 25.8003C170.104 25.8003 169.266 26.3481 168.925 27.2861H168.793V25.958H167.348V34.9062ZM177.784 34.9062H179.228V29.3613C179.228 28.0996 180.117 27.0786 181.287 27.0786C182.416 27.0786 183.146 27.7676 183.146 28.8301V34.9062H184.591V29.1538C184.591 28.0166 185.413 27.0786 186.658 27.0786C187.919 27.0786 188.525 27.7344 188.525 29.0542V34.9062H189.97V28.7222C189.97 26.8462 188.949 25.8003 187.123 25.8003C185.886 25.8003 184.865 26.4229 184.383 27.3691H184.25C183.835 26.4395 182.989 25.8003 181.777 25.8003C180.606 25.8003 179.76 26.3564 179.361 27.3193H179.228V25.958H177.784V34.9062ZM195.818 35.064C197.927 35.064 199.205 33.8687 199.512 32.6567L199.529 32.5903H198.085L198.051 32.665C197.811 33.2046 197.064 33.7773 195.852 33.7773C194.258 33.7773 193.237 32.6982 193.195 30.8472H199.637V30.2827C199.637 27.6099 198.159 25.8003 195.727 25.8003C193.295 25.8003 191.718 27.6929 191.718 30.457V30.4653C191.718 33.271 193.262 35.064 195.818 35.064ZM195.719 27.0869C197.039 27.0869 198.018 27.9253 198.168 29.6934H193.22C193.378 27.9917 194.391 27.0869 195.719 27.0869ZM201.468 34.9062H202.912V29.6104C202.912 28.0415 203.817 27.0786 205.245 27.0786C206.673 27.0786 207.337 27.8506 207.337 29.4609V34.9062H208.781V29.1123C208.781 26.9873 207.66 25.8003 205.652 25.8003C204.332 25.8003 203.493 26.3564 203.045 27.3027H202.912V25.958H201.468V34.9062ZM214.165 34.9727C214.447 34.9727 214.721 34.9395 215.003 34.8896V33.6611C214.738 33.686 214.597 33.6943 214.339 33.6943C213.41 33.6943 213.044 33.271 213.044 32.2168V27.1533H215.003V25.958H213.044V23.6421H211.55V25.958H210.139V27.1533H211.55V32.582C211.55 34.292 212.322 34.9727 214.165 34.9727ZM217.515 24.2314C218.063 24.2314 218.511 23.7832 218.511 23.2354C218.511 22.6875 218.063 22.2393 217.515 22.2393C216.967 22.2393 216.519 22.6875 216.519 23.2354C216.519 23.7832 216.967 24.2314 217.515 24.2314ZM216.785 34.9062H218.229V25.958H216.785V34.9062ZM224.219 35.064C226.767 35.064 228.344 33.3042 228.344 30.4404V30.4238C228.344 27.5518 226.767 25.8003 224.219 25.8003C221.671 25.8003 220.094 27.5518 220.094 30.4238V30.4404C220.094 33.3042 221.671 35.064 224.219 35.064ZM224.219 33.7856C222.526 33.7856 221.571 32.5488 221.571 30.4404V30.4238C221.571 28.3071 222.526 27.0786 224.219 27.0786C225.912 27.0786 226.867 28.3071 226.867 30.4238V30.4404C226.867 32.5488 225.912 33.7856 224.219 33.7856ZM230.176 34.9062H231.62V29.6104C231.62 28.0415 232.525 27.0786 233.953 27.0786C235.38 27.0786 236.044 27.8506 236.044 29.4609V34.9062H237.489V29.1123C237.489 26.9873 236.368 25.8003 234.359 25.8003C233.039 25.8003 232.201 26.3564 231.753 27.3027H231.62V25.958H230.176V34.9062ZM242.765 35.064C244.798 35.064 246.351 33.96 246.351 32.3662V32.3496C246.351 31.0713 245.537 30.3408 243.852 29.9341L242.474 29.6021C241.42 29.3447 240.972 28.9629 240.972 28.3569V28.3403C240.972 27.5518 241.752 27.0039 242.815 27.0039C243.894 27.0039 244.591 27.4937 244.782 28.1992H246.201C246.002 26.7383 244.699 25.8003 242.823 25.8003C240.922 25.8003 239.494 26.9209 239.494 28.4067V28.415C239.494 29.7017 240.25 30.4321 241.926 30.8306L243.313 31.1626C244.417 31.4282 244.873 31.8516 244.873 32.4575V32.4741C244.873 33.2876 244.018 33.8604 242.815 33.8604C241.669 33.8604 240.955 33.3706 240.714 32.6235H239.237C239.403 34.1011 240.773 35.064 242.765 35.064ZM111.583 60.0439C113.169 60.0439 113.908 59.4629 114.646 57.4541L118.141 47.958H116.622L114.173 55.3208H114.04L111.583 47.958H110.039L113.351 56.9146L113.185 57.4458C112.862 58.4751 112.364 58.8486 111.542 58.8486C111.343 58.8486 111.118 58.8403 110.944 58.8071V59.9941C111.143 60.0273 111.392 60.0439 111.583 60.0439ZM122.985 57.064C125.534 57.064 127.111 55.3042 127.111 52.4404V52.4238C127.111 49.5518 125.534 47.8003 122.985 47.8003C120.437 47.8003 118.86 49.5518 118.86 52.4238V52.4404C118.86 55.3042 120.437 57.064 122.985 57.064ZM122.985 55.7856C121.292 55.7856 120.337 54.5488 120.337 52.4404V52.4238C120.337 50.3071 121.292 49.0786 122.985 49.0786C124.679 49.0786 125.633 50.3071 125.633 52.4238V52.4404C125.633 54.5488 124.679 55.7856 122.985 55.7856ZM131.939 57.064C133.25 57.064 134.155 56.5244 134.595 55.5698H134.728V56.9062H136.172V47.958H134.728V53.2539C134.728 54.8228 133.889 55.7856 132.312 55.7856C130.884 55.7856 130.303 55.0137 130.303 53.4033V47.958H128.859V53.752C128.859 55.8687 129.905 57.064 131.939 57.064Z" fill="url(#paint0_linear_3_163)"/>
<defs>
<linearGradient id="paint0_linear_3_163" x1="118.945" y1="-23.0368" x2="106.984" y2="56.42" gradientUnits="userSpaceOnUse">
<stop stop-color="#CDDDF4"/>
<stop offset="1" stop-color="#CDBAFA"/>
</linearGradient>
</defs>
</svg>
