<svg width="124" height="16" viewBox="0 0 124 16" fill="none" xmlns="http://www.w3.org/2000/svg">
<path d="M0.527344 12.5625H2.02148V8.2876H5.04297C7.29248 8.2876 8.88623 6.70215 8.88623 4.42773V4.41113C8.88623 2.13672 7.29248 0.584473 5.04297 0.584473H0.527344V12.5625ZM4.66113 1.9126C6.37109 1.9126 7.35889 2.85059 7.35889 4.42773V4.44434C7.35889 6.02148 6.37109 6.95947 4.66113 6.95947H2.02148V1.9126H4.66113ZM10.7423 12.5625H12.1867V7.01758C12.1867 5.70605 13.1662 4.83447 14.5441 4.83447C14.8595 4.83447 15.1335 4.86768 15.4323 4.91748V3.51465C15.2912 3.48975 14.984 3.45654 14.7101 3.45654C13.4982 3.45654 12.6598 4.00439 12.3195 4.94238H12.1867V3.61426H10.7423V12.5625ZM20.2352 12.7202C22.7835 12.7202 24.3607 10.9604 24.3607 8.09668V8.08008C24.3607 5.20801 22.7835 3.45654 20.2352 3.45654C17.6868 3.45654 16.1097 5.20801 16.1097 8.08008V8.09668C16.1097 10.9604 17.6868 12.7202 20.2352 12.7202ZM20.2352 11.4419C18.5418 11.4419 17.5872 10.2051 17.5872 8.09668V8.08008C17.5872 5.96338 18.5418 4.73486 20.2352 4.73486C21.9285 4.73486 22.8831 5.96338 22.8831 8.08008V8.09668C22.8831 10.2051 21.9285 11.4419 20.2352 11.4419ZM26.1919 12.5625H27.6362V7.01758C27.6362 5.75586 28.5244 4.73486 29.6948 4.73486C30.8237 4.73486 31.5542 5.42383 31.5542 6.48633V12.5625H32.9985V6.81006C32.9985 5.67285 33.8203 4.73486 35.0654 4.73486C36.3271 4.73486 36.9331 5.39062 36.9331 6.71045V12.5625H38.3774V6.37842C38.3774 4.50244 37.3564 3.45654 35.5303 3.45654C34.2934 3.45654 33.2724 4.0791 32.791 5.02539H32.6582C32.2431 4.0957 31.3965 3.45654 30.1846 3.45654C29.0141 3.45654 28.1675 4.0127 27.769 4.97559H27.6362V3.61426H26.1919V12.5625ZM44.2511 12.7202C46.7995 12.7202 48.3766 10.9604 48.3766 8.09668V8.08008C48.3766 5.20801 46.7995 3.45654 44.2511 3.45654C41.7028 3.45654 40.1256 5.20801 40.1256 8.08008V8.09668C40.1256 10.9604 41.7028 12.7202 44.2511 12.7202ZM44.2511 11.4419C42.5578 11.4419 41.6032 10.2051 41.6032 8.09668V8.08008C41.6032 5.96338 42.5578 4.73486 44.2511 4.73486C45.9445 4.73486 46.8991 5.96338 46.8991 8.08008V8.09668C46.8991 10.2051 45.9445 11.4419 44.2511 11.4419ZM53.387 12.6289C53.6692 12.6289 53.9432 12.5957 54.2254 12.5459V11.3174C53.9598 11.3423 53.8187 11.3506 53.5613 11.3506C52.6316 11.3506 52.2664 10.9272 52.2664 9.87305V4.80957H54.2254V3.61426H52.2664V1.29834H50.7723V3.61426H49.3611V4.80957H50.7723V10.2383C50.7723 11.9482 51.5442 12.6289 53.387 12.6289ZM59.4931 12.7202C61.6015 12.7202 62.8798 11.5249 63.187 10.313L63.2036 10.2466H61.7592L61.726 10.3213C61.4853 10.8608 60.7382 11.4336 59.5263 11.4336C57.9326 11.4336 56.9116 10.3545 56.8701 8.50342H63.3115V7.93896C63.3115 5.26611 61.8339 3.45654 59.4018 3.45654C56.9697 3.45654 55.3925 5.34912 55.3925 8.11328V8.12158C55.3925 10.9272 56.9365 12.7202 59.4931 12.7202ZM59.3935 4.74316C60.7133 4.74316 61.6928 5.58154 61.8422 7.34961H56.895C57.0527 5.64795 58.0654 4.74316 59.3935 4.74316ZM65.1427 12.5625H66.587V7.01758C66.587 5.70605 67.5665 4.83447 68.9445 4.83447C69.2599 4.83447 69.5338 4.86768 69.8326 4.91748V3.51465C69.6915 3.48975 69.3844 3.45654 69.1105 3.45654C67.8986 3.45654 67.0602 4.00439 66.7198 4.94238H66.587V3.61426H65.1427V12.5625ZM75.7612 12.5625H83.0327V11.2178H77.2553V0.584473H75.7612V12.5625ZM88.0929 12.7202C90.6412 12.7202 92.2184 10.9604 92.2184 8.09668V8.08008C92.2184 5.20801 90.6412 3.45654 88.0929 3.45654C85.5445 3.45654 83.9674 5.20801 83.9674 8.08008V8.09668C83.9674 10.9604 85.5445 12.7202 88.0929 12.7202ZM88.0929 11.4419C86.3995 11.4419 85.4449 10.2051 85.4449 8.09668V8.08008C85.4449 5.96338 86.3995 4.73486 88.0929 4.73486C89.7862 4.73486 90.7408 5.96338 90.7408 8.08008V8.09668C90.7408 10.2051 89.7862 11.4419 88.0929 11.4419ZM97.7351 15.7168C100.176 15.7168 101.719 14.4385 101.719 12.438V3.61426H100.275V5.0918H100.176C99.6277 4.0791 98.6482 3.45654 97.3865 3.45654C95.0457 3.45654 93.6013 5.27441 93.6013 7.78125V7.79785C93.6013 10.3047 95.0374 12.0977 97.3533 12.0977C98.5818 12.0977 99.5945 11.5415 100.159 10.5537H100.292V12.3633C100.292 13.6831 99.3372 14.4385 97.7351 14.4385C96.4485 14.4385 95.6516 13.957 95.4939 13.2764L95.4856 13.2681H93.9915L93.9749 13.2764C94.199 14.7456 95.5769 15.7168 97.7351 15.7168ZM97.6687 10.8193C96.0086 10.8193 95.0789 9.57422 95.0789 7.79785V7.78125C95.0789 6.00488 96.0086 4.73486 97.6687 4.73486C99.3206 4.73486 100.325 6.00488 100.325 7.78125V7.79785C100.325 9.57422 99.3289 10.8193 97.6687 10.8193ZM103.874 8.41211H109.453V7.06738H103.874V8.41211ZM111.79 12.5625H113.284V0.584473H111.79V12.5625ZM115.746 12.5625H117.191V7.2666C117.191 5.69775 118.095 4.73486 119.523 4.73486C120.951 4.73486 121.615 5.50684 121.615 7.11719V12.5625H123.059V6.76855C123.059 4.64355 121.939 3.45654 119.93 3.45654C118.61 3.45654 117.772 4.0127 117.323 4.95898H117.191V3.61426H115.746V12.5625Z" fill="url(#paint0_linear_3_935)"/>
<defs>
<linearGradient id="paint0_linear_3_935" x1="59.9431" y1="-14.3601" x2="52.7312" y2="26.9441" gradientUnits="userSpaceOnUse">
<stop stop-color="#CDDDF4"/>
<stop offset="1" stop-color="#CDBAFA"/>
</linearGradient>
</defs>
</svg>
