<svg width="104" height="16" viewBox="0 0 104 16" fill="none" xmlns="http://www.w3.org/2000/svg">
<path d="M0.289062 15.5625H3.5332V10.6748H6.51953C9.78516 10.6748 11.9658 8.56934 11.9658 5.37891V5.35742C11.9658 2.16699 9.78516 0.0615234 6.51953 0.0615234H0.289062V15.5625ZM5.72461 2.62891C7.58301 2.62891 8.67871 3.60645 8.67871 5.36816V5.38965C8.67871 7.15137 7.58301 8.13965 5.72461 8.13965H3.5332V2.62891H5.72461ZM13.6201 15.5625H16.7568V9.11719C16.7568 7.44141 17.6592 6.51758 19.2061 6.51758C19.6572 6.51758 20.0869 6.58203 20.3447 6.68945V3.92871C20.1084 3.86426 19.7861 3.81055 19.4424 3.81055C18.0996 3.81055 17.165 4.6377 16.8213 6.05566H16.7568V4.04688H13.6201V15.5625ZM26.5322 15.7988C30.0127 15.7988 32.2363 13.5645 32.2363 9.80469V9.7832C32.2363 6.05566 29.9697 3.81055 26.5215 3.81055C23.084 3.81055 20.8281 6.07715 20.8281 9.7832V9.80469C20.8281 13.5537 23.0303 15.7988 26.5322 15.7988ZM26.543 13.3389C24.9961 13.3389 24.0186 12.0605 24.0186 9.80469V9.7832C24.0186 7.55957 25.0068 6.27051 26.5215 6.27051C28.0469 6.27051 29.0459 7.55957 29.0459 9.7832V9.80469C29.0459 12.0498 28.0684 13.3389 26.543 13.3389ZM33.8584 15.5625H36.9951V8.6123C36.9951 7.3125 37.8008 6.41016 38.9932 6.41016C40.1533 6.41016 40.8516 7.14062 40.8516 8.37598V15.5625H43.8701V8.55859C43.8701 7.28027 44.6543 6.41016 45.8467 6.41016C47.0605 6.41016 47.7266 7.14062 47.7266 8.47266V15.5625H50.8633V7.68848C50.8633 5.36816 49.3486 3.81055 47.0928 3.81055C45.4062 3.81055 44.0312 4.73438 43.5156 6.18457H43.4512C43.0645 4.66992 41.8936 3.81055 40.2822 3.81055C38.7354 3.81055 37.5322 4.66992 37.0596 5.98047H36.9951V4.04688H33.8584V15.5625ZM58.1357 15.7988C61.6162 15.7988 63.8398 13.5645 63.8398 9.80469V9.7832C63.8398 6.05566 61.5732 3.81055 58.125 3.81055C54.6875 3.81055 52.4316 6.07715 52.4316 9.7832V9.80469C52.4316 13.5537 54.6338 15.7988 58.1357 15.7988ZM58.1465 13.3389C56.5996 13.3389 55.6221 12.0605 55.6221 9.80469V9.7832C55.6221 7.55957 56.6104 6.27051 58.125 6.27051C59.6504 6.27051 60.6494 7.55957 60.6494 9.7832V9.80469C60.6494 12.0498 59.6719 13.3389 58.1465 13.3389ZM70.0381 15.7988C70.6934 15.7988 71.1982 15.7344 71.5527 15.6807V13.3818C71.3594 13.4033 71.1553 13.4355 70.876 13.4355C69.9307 13.4355 69.4473 13.0703 69.4473 11.9961V6.41016H71.5527V4.04688H69.4473V1.23242H66.2783V4.04688H64.6777V6.41016H66.2783V12.3398C66.2783 14.8105 67.4814 15.7988 70.0381 15.7988ZM78.3525 15.7988C81.6396 15.7988 83.2295 13.8545 83.584 12.1572L83.6162 12.0391H80.7373L80.7158 12.1035C80.4902 12.748 79.7061 13.457 78.417 13.457C76.8164 13.457 75.8174 12.3828 75.7852 10.5459H83.7129V9.5791C83.7129 6.09863 81.5967 3.81055 78.2236 3.81055C74.8506 3.81055 72.6914 6.15234 72.6914 9.81543V9.82617C72.6914 13.5107 74.8291 15.7988 78.3525 15.7988ZM78.2773 6.15234C79.5771 6.15234 80.5117 6.97949 80.7051 8.56934H75.8174C76.0215 7.01172 76.9883 6.15234 78.2773 6.15234ZM85.335 15.5625H88.4717V9.11719C88.4717 7.44141 89.374 6.51758 90.9209 6.51758C91.3721 6.51758 91.8018 6.58203 92.0596 6.68945V3.92871C91.8232 3.86426 91.501 3.81055 91.1572 3.81055C89.8145 3.81055 88.8799 4.6377 88.5361 6.05566H88.4717V4.04688H85.335V15.5625ZM98.0859 15.7988C101.051 15.7988 103.124 14.3164 103.124 12.0605V12.0498C103.124 10.3525 102.136 9.40723 99.7295 8.90234L97.7744 8.4834C96.6143 8.23633 96.2168 7.84961 96.2168 7.25879V7.24805C96.2168 6.50684 96.8936 6.02344 97.9785 6.02344C99.1387 6.02344 99.8154 6.64648 99.9229 7.47363L99.9336 7.55957H102.823V7.45215C102.748 5.43262 101.04 3.81055 97.9785 3.81055C95.0459 3.81055 93.1553 5.22852 93.1553 7.41992V7.43066C93.1553 9.14941 94.2832 10.2666 96.5176 10.7393L98.4727 11.1475C99.6006 11.3945 99.9873 11.749 99.9873 12.3613V12.3721C99.9873 13.1133 99.2676 13.5752 98.0859 13.5752C96.8291 13.5752 96.1523 13.0488 95.9482 12.1465L95.9268 12.0498H92.8652L92.876 12.1465C93.123 14.3271 94.8955 15.7988 98.0859 15.7988Z" fill="url(#paint0_linear_3_936)"/>
<defs>
<linearGradient id="paint0_linear_3_936" x1="53" y1="-20.4375" x2="39.3959" y2="32.0355" gradientUnits="userSpaceOnUse">
<stop stop-color="#BD7AE3"/>
<stop offset="1" stop-color="#8461C9"/>
</linearGradient>
</defs>
</svg>
