<svg width="68" height="14" viewBox="0 0 68 14" fill="none" xmlns="http://www.w3.org/2000/svg">
<path d="M0.477539 12.9062H2.61914V8.39893H4.99316L7.34229 12.9062H9.79102L7.17627 8.0752C8.5957 7.56055 9.43408 6.24902 9.43408 4.66357V4.64697C9.43408 2.36426 7.89014 0.928223 5.31689 0.928223H0.477539V12.9062ZM2.61914 6.75537V2.66309H5.05127C6.4126 2.66309 7.23438 3.44336 7.23438 4.69678V4.71338C7.23438 6 6.4458 6.75537 5.09277 6.75537H2.61914ZM15.0089 13.0889C17.4743 13.0889 18.6862 11.6694 18.9767 10.499L19.0016 10.4243H17.0343L17.0094 10.4824C16.8102 10.8975 16.1711 11.4619 15.0504 11.4619C13.6476 11.4619 12.7677 10.5156 12.7428 8.88867H19.0846V8.20801C19.0846 5.46875 17.4909 3.65918 14.9093 3.65918C12.3278 3.65918 10.6759 5.52686 10.6759 8.38232V8.39062C10.6759 11.2793 12.3112 13.0889 15.0089 13.0889ZM14.9342 5.27783C16.088 5.27783 16.9264 6.0166 17.0675 7.50244H12.7594C12.9171 6.05811 13.7804 5.27783 14.9342 5.27783ZM22.3519 12.9062H24.4935L26.2532 6.33203H26.3944L28.1624 12.9062H30.3289L32.786 3.8335H30.7357L29.2332 10.6484H29.0921L27.3323 3.8335H25.3651L23.6219 10.6484H23.4808L21.97 3.8335H19.8948L22.3519 12.9062ZM36.4018 13.0557C37.5971 13.0557 38.56 12.541 39.0581 11.6611H39.1992V12.9062H41.2412V6.70557C41.2412 4.78809 39.9297 3.65918 37.5971 3.65918C35.4389 3.65918 33.978 4.67188 33.7788 6.19922L33.7705 6.27393H35.7212L35.7295 6.24072C35.937 5.64307 36.5513 5.30273 37.4975 5.30273C38.6098 5.30273 39.1992 5.80078 39.1992 6.70557V7.48584L36.8667 7.62695C34.6587 7.75977 33.4219 8.70605 33.4219 10.3247V10.3413C33.4219 11.9932 34.6753 13.0557 36.4018 13.0557ZM35.4638 10.2417V10.2251C35.4638 9.47803 36.0034 9.05469 37.1572 8.97998L39.1992 8.84717V9.57764C39.1992 10.6567 38.2778 11.4702 37.0327 11.4702C36.1196 11.4702 35.4638 11.0137 35.4638 10.2417ZM43.3131 12.9062H45.38V7.63525C45.38 6.34033 46.2848 5.51855 47.6627 5.51855C48.0197 5.51855 48.36 5.56836 48.692 5.63477V3.78369C48.4928 3.72559 48.1691 3.68408 47.8537 3.68408C46.6583 3.68408 45.8283 4.25684 45.5211 5.22803H45.38V3.8335H43.3131V12.9062ZM53.0135 13.0557C54.2918 13.0557 55.2713 12.4746 55.7693 11.4868H55.9104V12.9062H57.9856V0.322266H55.9104V5.27783H55.7693C55.2962 4.29834 54.2586 3.68408 53.0135 3.68408C50.7142 3.68408 49.2947 5.47705 49.2947 8.36572V8.38232C49.2947 11.2544 50.7391 13.0557 53.0135 13.0557ZM53.6609 11.3125C52.2498 11.3125 51.3948 10.2085 51.3948 8.38232V8.36572C51.3948 6.53955 52.2581 5.42725 53.6609 5.42725C55.0638 5.42725 55.9437 6.54785 55.9437 8.36572V8.38232C55.9437 10.2002 55.0721 11.3125 53.6609 11.3125ZM63.602 13.0889C65.8349 13.0889 67.4536 11.9351 67.4536 10.2085V10.1919C67.4536 8.87207 66.6152 8.1167 64.8388 7.71826L63.3696 7.39453C62.3901 7.17041 62.0083 6.84668 62.0083 6.31543V6.30713C62.0083 5.62646 62.6723 5.17822 63.5937 5.17822C64.5649 5.17822 65.1626 5.64307 65.312 6.21582L65.3203 6.24072H67.2627V6.22412C67.1298 4.75488 65.81 3.65918 63.602 3.65918C61.4604 3.65918 59.9663 4.78809 59.9663 6.42334V6.43164C59.9663 7.76807 60.788 8.58154 62.5146 8.96338L63.9838 9.29541C64.9799 9.51953 65.3784 9.86816 65.3784 10.3994V10.416C65.3784 11.0967 64.6645 11.5615 63.6352 11.5615C62.6059 11.5615 62 11.1216 61.7841 10.4907L61.7758 10.4741H59.7255V10.4907C59.8999 12.0264 61.2944 13.0889 63.602 13.0889Z" fill="url(#paint0_linear_3_1435)"/>
<defs>
<linearGradient id="paint0_linear_3_1435" x1="32.8573" y1="-14.0163" x2="20.6827" y2="24.7208" gradientUnits="userSpaceOnUse">
<stop stop-color="#CDDDF4"/>
<stop offset="1" stop-color="#CDBAFA"/>
</linearGradient>
</defs>
</svg>
