<svg width="48" height="14" viewBox="0 0 48 14" fill="none" xmlns="http://www.w3.org/2000/svg">
<path d="M5.63623 13.2051C8.5083 13.2051 10.3096 11.7441 10.3096 9.41162V9.40332C10.3096 7.59375 9.25537 6.58105 6.73193 6.0498L5.44531 5.77588C3.95117 5.46045 3.34521 4.9292 3.34521 4.08252V4.07422C3.34521 3.05322 4.2915 2.43066 5.61963 2.43066C6.98926 2.42236 7.87744 3.08643 8.02686 4.01611L8.04346 4.11572H10.0938L10.0854 4.00781C9.93604 2.08203 8.28418 0.629395 5.62793 0.629395C3.03809 0.629395 1.19531 2.07373 1.19531 4.21533V4.22363C1.19531 6.0083 2.25781 7.15381 4.70654 7.66846L5.99316 7.93408C7.53711 8.26611 8.15967 8.78906 8.15967 9.65234V9.66064C8.15967 10.6899 7.14697 11.4038 5.70264 11.4038C4.18359 11.4038 3.11279 10.7397 3.01318 9.73535L3.00488 9.65234H0.929688L0.937988 9.76855C1.0874 11.8354 2.85547 13.2051 5.63623 13.2051ZM14.4816 13.0557C15.6769 13.0557 16.6398 12.541 17.1379 11.6611H17.279V12.9062H19.321V6.70557C19.321 4.78809 18.0094 3.65918 15.6769 3.65918C13.5187 3.65918 12.0578 4.67188 11.8586 6.19922L11.8503 6.27393H13.8009L13.8092 6.24072C14.0168 5.64307 14.631 5.30273 15.5773 5.30273C16.6896 5.30273 17.279 5.80078 17.279 6.70557V7.48584L14.9464 7.62695C12.7384 7.75977 11.5016 8.70605 11.5016 10.3247V10.3413C11.5016 11.9932 12.755 13.0557 14.4816 13.0557ZM13.5436 10.2417V10.2251C13.5436 9.47803 14.0832 9.05469 15.237 8.97998L17.279 8.84717V9.57764C17.279 10.6567 16.3576 11.4702 15.1125 11.4702C14.1994 11.4702 13.5436 11.0137 13.5436 10.2417ZM23.5511 12.9062H25.8172L29.0296 3.8335H26.8548L24.7713 10.8892H24.6302L22.5301 3.8335H20.3221L23.5511 12.9062ZM33.8823 13.0889C36.3476 13.0889 37.5596 11.6694 37.8501 10.499L37.875 10.4243H35.9077L35.8828 10.4824C35.6836 10.8975 35.0444 11.4619 33.9238 11.4619C32.521 11.4619 31.6411 10.5156 31.6162 8.88867H37.958V8.20801C37.958 5.46875 36.3642 3.65918 33.7827 3.65918C31.2012 3.65918 29.5493 5.52686 29.5493 8.38232V8.39062C29.5493 11.2793 31.1846 13.0889 33.8823 13.0889ZM33.8076 5.27783C34.9614 5.27783 35.7998 6.0166 35.9409 7.50244H31.6328C31.7905 6.05811 32.6538 5.27783 33.8076 5.27783ZM42.8854 13.0557C44.1637 13.0557 45.1432 12.4746 45.6413 11.4868H45.7824V12.9062H47.8576V0.322266H45.7824V5.27783H45.6413C45.1681 4.29834 44.1305 3.68408 42.8854 3.68408C40.5861 3.68408 39.1666 5.47705 39.1666 8.36572V8.38232C39.1666 11.2544 40.611 13.0557 42.8854 13.0557ZM43.5329 11.3125C42.1217 11.3125 41.2667 10.2085 41.2667 8.38232V8.36572C41.2667 6.53955 42.13 5.42725 43.5329 5.42725C44.9357 5.42725 45.8156 6.54785 45.8156 8.36572V8.38232C45.8156 10.2002 44.944 11.3125 43.5329 11.3125Z" fill="url(#paint0_linear_3_1433)"/>
<defs>
<linearGradient id="paint0_linear_3_1433" x1="24.1838" y1="-14.0163" x2="8.49349" y2="21.6434" gradientUnits="userSpaceOnUse">
<stop stop-color="#CDDDF4"/>
<stop offset="1" stop-color="#CDBAFA"/>
</linearGradient>
</defs>
</svg>
