<svg width="125" height="12" viewBox="0 0 125 12" fill="none" xmlns="http://www.w3.org/2000/svg">
<path d="M3.84961 9.10547C5.73633 9.10547 6.97266 8.12109 6.97266 6.53906V6.5332C6.97266 5.31445 6.27539 4.60547 4.51172 4.21289L3.57422 4.00195C2.42578 3.75 1.96289 3.29297 1.96289 2.61914V2.61328C1.96289 1.72852 2.77734 1.23047 3.83203 1.22461C4.93359 1.21875 5.63672 1.76953 5.75391 2.51367L5.76562 2.58984H6.82031L6.81445 2.50781C6.72656 1.24805 5.54883 0.251953 3.86133 0.251953C2.11523 0.251953 0.890625 1.24219 0.884766 2.64258V2.64844C0.884766 3.87305 1.61719 4.65234 3.31055 5.02734L4.24805 5.23242C5.4082 5.49023 5.89453 5.9707 5.89453 6.67383V6.67969C5.89453 7.54102 5.05664 8.13281 3.9082 8.13281C2.68945 8.13281 1.81055 7.59961 1.73438 6.75586L1.72852 6.69141H0.673828L0.679688 6.75586C0.802734 8.13281 1.99805 9.10547 3.84961 9.10547ZM11.1797 9.01758C12.668 9.01758 13.5703 8.17383 13.7871 7.31836L13.7988 7.27148H12.7793L12.7559 7.32422C12.5859 7.70508 12.0586 8.10938 11.2031 8.10938C10.0781 8.10938 9.35742 7.34766 9.32812 6.04102H13.875V5.64258C13.875 3.75586 12.832 2.47852 11.1152 2.47852C9.39844 2.47852 8.28516 3.81445 8.28516 5.76562V5.77148C8.28516 7.75195 9.375 9.01758 11.1797 9.01758ZM11.1094 3.38672C12.041 3.38672 12.7324 3.97852 12.8379 5.22656H9.3457C9.45703 4.02539 10.1719 3.38672 11.1094 3.38672ZM17.1914 9.01758C18.041 9.01758 18.7031 8.64844 19.1016 7.97461H19.1953V8.90625H20.2148V4.58203C20.2148 3.26953 19.3535 2.47852 17.8125 2.47852C16.4648 2.47852 15.5039 3.14648 15.3398 4.13672L15.334 4.17188H16.3535L16.3594 4.1543C16.5234 3.66211 17.0215 3.38086 17.7773 3.38086C18.7207 3.38086 19.1953 3.80273 19.1953 4.58203V5.15625L17.3848 5.26758C15.9141 5.35547 15.082 6.00586 15.082 7.13086V7.14258C15.082 8.29102 15.9902 9.01758 17.1914 9.01758ZM16.125 7.11914V7.10742C16.125 6.48047 16.5469 6.14062 17.5078 6.08203L19.1953 5.97656V6.55078C19.1953 7.45312 18.4395 8.13281 17.4023 8.13281C16.6699 8.13281 16.125 7.75781 16.125 7.11914ZM22.0781 8.90625H23.0977V4.99219C23.0977 4.06641 23.7891 3.45117 24.7617 3.45117C24.9844 3.45117 25.1777 3.47461 25.3887 3.50977V2.51953C25.2891 2.50195 25.0723 2.47852 24.8789 2.47852C24.0234 2.47852 23.4316 2.86523 23.1914 3.52734H23.0977V2.58984H22.0781V8.90625ZM26.707 8.90625H27.7266V5.16797C27.7266 4.06055 28.3652 3.38086 29.373 3.38086C30.3809 3.38086 30.8496 3.92578 30.8496 5.0625V8.90625H31.8691V4.81641C31.8691 3.31641 31.0781 2.47852 29.6602 2.47852C28.7285 2.47852 28.1367 2.87109 27.8203 3.53906H27.7266V0.0820312H26.707V8.90625ZM36.293 9.01758C37.7812 9.01758 38.6836 8.17383 38.9004 7.31836L38.9121 7.27148H37.8926L37.8691 7.32422C37.6992 7.70508 37.1719 8.10938 36.3164 8.10938C35.1914 8.10938 34.4707 7.34766 34.4414 6.04102H38.9883V5.64258C38.9883 3.75586 37.9453 2.47852 36.2285 2.47852C34.5117 2.47852 33.3984 3.81445 33.3984 5.76562V5.77148C33.3984 7.75195 34.4883 9.01758 36.293 9.01758ZM36.2227 3.38672C37.1543 3.38672 37.8457 3.97852 37.9512 5.22656H34.459C34.5703 4.02539 35.2852 3.38672 36.2227 3.38672ZM42.7383 9.01758C44.1738 9.01758 45.2695 8.23828 45.2695 7.11328V7.10156C45.2695 6.19922 44.6953 5.68359 43.5059 5.39648L42.5332 5.16211C41.7891 4.98047 41.4727 4.71094 41.4727 4.2832V4.27148C41.4727 3.71484 42.0234 3.32812 42.7734 3.32812C43.5352 3.32812 44.0273 3.67383 44.1621 4.17188H45.1641C45.0234 3.14062 44.1035 2.47852 42.7793 2.47852C41.4375 2.47852 40.4297 3.26953 40.4297 4.31836V4.32422C40.4297 5.23242 40.9629 5.74805 42.1465 6.0293L43.125 6.26367C43.9043 6.45117 44.2266 6.75 44.2266 7.17773V7.18945C44.2266 7.76367 43.623 8.16797 42.7734 8.16797C41.9648 8.16797 41.4609 7.82227 41.291 7.29492H40.248C40.3652 8.33789 41.332 9.01758 42.7383 9.01758ZM46.5938 11.0566H47.3496L48.2695 7.72266H47.1035L46.5938 11.0566ZM56.6895 9.10547C58.5762 9.10547 59.8125 8.12109 59.8125 6.53906V6.5332C59.8125 5.31445 59.1152 4.60547 57.3516 4.21289L56.4141 4.00195C55.2656 3.75 54.8027 3.29297 54.8027 2.61914V2.61328C54.8027 1.72852 55.6172 1.23047 56.6719 1.22461C57.7734 1.21875 58.4766 1.76953 58.5938 2.51367L58.6055 2.58984H59.6602L59.6543 2.50781C59.5664 1.24805 58.3887 0.251953 56.7012 0.251953C54.9551 0.251953 53.7305 1.24219 53.7246 2.64258V2.64844C53.7246 3.87305 54.457 4.65234 56.1504 5.02734L57.0879 5.23242C58.248 5.49023 58.7344 5.9707 58.7344 6.67383V6.67969C58.7344 7.54102 57.8965 8.13281 56.748 8.13281C55.5293 8.13281 54.6504 7.59961 54.5742 6.75586L54.5684 6.69141H53.5137L53.5195 6.75586C53.6426 8.13281 54.8379 9.10547 56.6895 9.10547ZM64.0195 9.01758C65.5078 9.01758 66.4102 8.17383 66.627 7.31836L66.6387 7.27148H65.6191L65.5957 7.32422C65.4258 7.70508 64.8984 8.10938 64.043 8.10938C62.918 8.10938 62.1973 7.34766 62.168 6.04102H66.7148V5.64258C66.7148 3.75586 65.6719 2.47852 63.9551 2.47852C62.2383 2.47852 61.125 3.81445 61.125 5.76562V5.77148C61.125 7.75195 62.2148 9.01758 64.0195 9.01758ZM63.9492 3.38672C64.8809 3.38672 65.5723 3.97852 65.6777 5.22656H62.1855C62.2969 4.02539 63.0117 3.38672 63.9492 3.38672ZM68.3555 8.90625H69.375V0.0820312H68.3555V8.90625ZM71.3906 8.90625H72.4102V0.0820312H71.3906V8.90625ZM76.9453 9.01758C78.4336 9.01758 79.3359 8.17383 79.5527 7.31836L79.5645 7.27148H78.5449L78.5215 7.32422C78.3516 7.70508 77.8242 8.10938 76.9688 8.10938C75.8438 8.10938 75.123 7.34766 75.0938 6.04102H79.6406V5.64258C79.6406 3.75586 78.5977 2.47852 76.8809 2.47852C75.1641 2.47852 74.0508 3.81445 74.0508 5.76562V5.77148C74.0508 7.75195 75.1406 9.01758 76.9453 9.01758ZM76.875 3.38672C77.8066 3.38672 78.498 3.97852 78.6035 5.22656H75.1113C75.2227 4.02539 75.9375 3.38672 76.875 3.38672ZM81.2227 8.90625H82.2422V4.99219C82.2422 4.06641 82.9336 3.45117 83.9062 3.45117C84.1289 3.45117 84.3223 3.47461 84.5332 3.50977V2.51953C84.4336 2.50195 84.2168 2.47852 84.0234 2.47852C83.168 2.47852 82.5762 2.86523 82.3359 3.52734H82.2422V2.58984H81.2227V8.90625ZM87.8438 9.01758C89.2793 9.01758 90.375 8.23828 90.375 7.11328V7.10156C90.375 6.19922 89.8008 5.68359 88.6113 5.39648L87.6387 5.16211C86.8945 4.98047 86.5781 4.71094 86.5781 4.2832V4.27148C86.5781 3.71484 87.1289 3.32812 87.8789 3.32812C88.6406 3.32812 89.1328 3.67383 89.2676 4.17188H90.2695C90.1289 3.14062 89.209 2.47852 87.8848 2.47852C86.543 2.47852 85.5352 3.26953 85.5352 4.31836V4.32422C85.5352 5.23242 86.0684 5.74805 87.252 6.0293L88.2305 6.26367C89.0098 6.45117 89.332 6.75 89.332 7.17773V7.18945C89.332 7.76367 88.7285 8.16797 87.8789 8.16797C87.0703 8.16797 86.5664 7.82227 86.3965 7.29492H85.3535C85.4707 8.33789 86.4375 9.01758 87.8438 9.01758ZM91.6992 11.0566H92.4551L93.375 7.72266H92.209L91.6992 11.0566ZM99.0234 8.90625H100.078V5.24414H103.822V4.30664H100.078V1.40039H104.156V0.451172H99.0234V8.90625ZM108.34 9.01758C109.828 9.01758 110.73 8.17383 110.947 7.31836L110.959 7.27148H109.939L109.916 7.32422C109.746 7.70508 109.219 8.10938 108.363 8.10938C107.238 8.10938 106.518 7.34766 106.488 6.04102H111.035V5.64258C111.035 3.75586 109.992 2.47852 108.275 2.47852C106.559 2.47852 105.445 3.81445 105.445 5.76562V5.77148C105.445 7.75195 106.535 9.01758 108.34 9.01758ZM108.27 3.38672C109.201 3.38672 109.893 3.97852 109.998 5.22656H106.506C106.617 4.02539 107.332 3.38672 108.27 3.38672ZM115.195 9.01758C116.684 9.01758 117.586 8.17383 117.803 7.31836L117.814 7.27148H116.795L116.771 7.32422C116.602 7.70508 116.074 8.10938 115.219 8.10938C114.094 8.10938 113.373 7.34766 113.344 6.04102H117.891V5.64258C117.891 3.75586 116.848 2.47852 115.131 2.47852C113.414 2.47852 112.301 3.81445 112.301 5.76562V5.77148C112.301 7.75195 113.391 9.01758 115.195 9.01758ZM115.125 3.38672C116.057 3.38672 116.748 3.97852 116.854 5.22656H113.361C113.473 4.02539 114.188 3.38672 115.125 3.38672ZM121.805 9.01758C122.684 9.01758 123.387 8.60156 123.773 7.89844H123.867V8.90625H124.887V0.0820312H123.867V3.58594H123.773C123.428 2.91211 122.672 2.47852 121.805 2.47852C120.199 2.47852 119.156 3.76172 119.156 5.74219V5.75391C119.156 7.72266 120.205 9.01758 121.805 9.01758ZM122.039 8.11523C120.885 8.11523 120.199 7.22461 120.199 5.75391V5.74219C120.199 4.27148 120.885 3.38086 122.039 3.38086C123.188 3.38086 123.891 4.2832 123.891 5.74219V5.75391C123.891 7.21289 123.188 8.11523 122.039 8.11523Z" fill="url(#paint0_linear_3_1434)"/>
<defs>
<linearGradient id="paint0_linear_3_1434" x1="60.9431" y1="-10.3102" x2="57.0746" y2="20.1538" gradientUnits="userSpaceOnUse">
<stop stop-color="#CDDDF4"/>
<stop offset="1" stop-color="#CDBAFA"/>
</linearGradient>
</defs>
</svg>
