<svg width="98" height="15" viewBox="0 0 98 15" fill="none" xmlns="http://www.w3.org/2000/svg">
<path d="M5.63623 14.2051C8.5083 14.2051 10.3096 12.7441 10.3096 10.4116V10.4033C10.3096 8.59375 9.25537 7.58105 6.73193 7.0498L5.44531 6.77588C3.95117 6.46045 3.34521 5.9292 3.34521 5.08252V5.07422C3.34521 4.05322 4.2915 3.43066 5.61963 3.43066C6.98926 3.42236 7.87744 4.08643 8.02686 5.01611L8.04346 5.11572H10.0938L10.0854 5.00781C9.93604 3.08203 8.28418 1.62939 5.62793 1.62939C3.03809 1.62939 1.19531 3.07373 1.19531 5.21533V5.22363C1.19531 7.0083 2.25781 8.15381 4.70654 8.66846L5.99316 8.93408C7.53711 9.26611 8.15967 9.78906 8.15967 10.6523V10.6606C8.15967 11.6899 7.14697 12.4038 5.70264 12.4038C4.18359 12.4038 3.11279 11.7397 3.01318 10.7354L3.00488 10.6523H0.929688L0.937988 10.7686C1.0874 12.8354 2.85547 14.2051 5.63623 14.2051ZM15.9757 14.0889C18.4411 14.0889 19.653 12.6694 19.9435 11.499L19.9684 11.4243H18.0011L17.9762 11.4824C17.777 11.8975 17.1379 12.4619 16.0172 12.4619C14.6144 12.4619 13.7345 11.5156 13.7096 9.88867H20.0514V9.20801C20.0514 6.46875 18.4577 4.65918 15.8761 4.65918C13.2946 4.65918 11.6427 6.52686 11.6427 9.38232V9.39062C11.6427 12.2793 13.278 14.0889 15.9757 14.0889ZM15.901 6.27783C17.0548 6.27783 17.8932 7.0166 18.0343 8.50244H13.7262C13.8839 7.05811 14.7472 6.27783 15.901 6.27783ZM21.7083 13.9062H23.7752V8.61865C23.7752 7.25732 24.5389 6.39404 25.7674 6.39404C27.0208 6.39404 27.5936 7.10791 27.5936 8.51904V13.9062H29.6605V8.0376C29.6605 5.87939 28.5565 4.65918 26.5311 4.65918C25.2196 4.65918 24.348 5.24854 23.9163 6.21973H23.7752V4.8335H21.7083V13.9062ZM34.9614 14.0557C36.2397 14.0557 37.2192 13.4746 37.7173 12.4868H37.8584V13.9062H39.9336V1.32227H37.8584V6.27783H37.7173C37.2441 5.29834 36.2065 4.68408 34.9614 4.68408C32.6621 4.68408 31.2427 6.47705 31.2427 9.36572V9.38232C31.2427 12.2544 32.687 14.0557 34.9614 14.0557ZM35.6089 12.3125C34.1977 12.3125 33.3428 11.2085 33.3428 9.38232V9.36572C33.3428 7.53955 34.206 6.42725 35.6089 6.42725C37.0117 6.42725 37.8916 7.54785 37.8916 9.36572V9.38232C37.8916 11.2002 37.02 12.3125 35.6089 12.3125ZM46.4598 13.9062H48.6014V1.92822H46.4598V13.9062ZM50.9306 13.9062H52.9975V8.61865C52.9975 7.25732 53.7612 6.39404 54.9897 6.39404C56.2431 6.39404 56.8159 7.10791 56.8159 8.51904V13.9062H58.8828V8.0376C58.8828 5.87939 57.7788 4.65918 55.7534 4.65918C54.4419 4.65918 53.5703 5.24854 53.1386 6.21973H52.9975V4.8335H50.9306V13.9062ZM63.0714 13.9062H65.3375L68.5499 4.8335H66.3751L64.2916 11.8892H64.1505L62.0504 4.8335H59.8424L63.0714 13.9062ZM70.9456 3.31445C71.618 3.31445 72.1741 2.7749 72.1741 2.09424C72.1741 1.42188 71.618 0.874023 70.9456 0.874023C70.2649 0.874023 69.7088 1.42188 69.7088 2.09424C69.7088 2.7749 70.2649 3.31445 70.9456 3.31445ZM69.908 13.9062H71.9749V4.8335H69.908V13.9062ZM77.6743 13.9478C78.0727 13.9478 78.4545 13.9146 78.7534 13.8564V12.2627C78.5043 12.2876 78.3466 12.2959 78.0561 12.2959C77.1928 12.2959 76.8359 11.9141 76.8359 11.0093V6.43555H78.7534V4.8335H76.8359V2.60889H74.7358V4.8335H73.3246V6.43555H74.7358V11.499C74.7358 13.2505 75.5908 13.9478 77.6743 13.9478ZM84.2037 14.0889C86.669 14.0889 87.881 12.6694 88.1715 11.499L88.1964 11.4243H86.2291L86.2042 11.4824C86.005 11.8975 85.3658 12.4619 84.2452 12.4619C82.8424 12.4619 81.9625 11.5156 81.9376 9.88867H88.2794V9.20801C88.2794 6.46875 86.6856 4.65918 84.1041 4.65918C81.5226 4.65918 79.8707 6.52686 79.8707 9.38232V9.39062C79.8707 12.2793 81.506 14.0889 84.2037 14.0889ZM84.129 6.27783C85.2828 6.27783 86.1212 7.0166 86.2623 8.50244H81.9542C82.1119 7.05811 82.9752 6.27783 84.129 6.27783ZM93.3645 14.0889C95.5974 14.0889 97.2161 12.9351 97.2161 11.2085V11.1919C97.2161 9.87207 96.3777 9.1167 94.6013 8.71826L93.1321 8.39453C92.1526 8.17041 91.7708 7.84668 91.7708 7.31543V7.30713C91.7708 6.62646 92.4348 6.17822 93.3562 6.17822C94.3274 6.17822 94.9251 6.64307 95.0745 7.21582L95.0828 7.24072H97.0252V7.22412C96.8923 5.75488 95.5725 4.65918 93.3645 4.65918C91.2229 4.65918 89.7288 5.78809 89.7288 7.42334V7.43164C89.7288 8.76807 90.5505 9.58154 92.2771 9.96338L93.7463 10.2954C94.7424 10.5195 95.1409 10.8682 95.1409 11.3994V11.416C95.1409 12.0967 94.427 12.5615 93.3977 12.5615C92.3684 12.5615 91.7625 12.1216 91.5466 11.4907L91.5383 11.4741H89.488V11.4907C89.6624 13.0264 91.0569 14.0889 93.3645 14.0889Z" fill="url(#paint0_linear_3_1436)"/>
<defs>
<linearGradient id="paint0_linear_3_1436" x1="47.8838" y1="-13.0163" x2="38.8704" y2="27.5441" gradientUnits="userSpaceOnUse">
<stop stop-color="#CDDDF4"/>
<stop offset="1" stop-color="#CDBAFA"/>
</linearGradient>
</defs>
</svg>
