<svg width="79" height="20" viewBox="0 0 79 20" fill="none" xmlns="http://www.w3.org/2000/svg">
<path d="M6.31836 15.8066C9.87305 15.8066 12.002 14.0879 12.002 11.3828V11.373C12.002 9.15625 10.6738 7.95508 7.72461 7.36914L6.23047 7.06641C4.60938 6.74414 3.88672 6.22656 3.88672 5.33789V5.32812C3.88672 4.32227 4.79492 3.62891 6.30859 3.61914C7.76367 3.61914 8.7793 4.29297 8.92578 5.39648L8.93555 5.51367H11.7188L11.709 5.32812C11.5723 2.85742 9.57031 1.22656 6.30859 1.22656C3.18359 1.22656 0.9375 2.92578 0.9375 5.50391V5.51367C0.9375 7.63281 2.34375 8.96094 5.12695 9.51758L6.61133 9.81055C8.35938 10.1719 9.05273 10.6504 9.05273 11.6074V11.6172C9.05273 12.6914 8.02734 13.4043 6.39648 13.4043C4.78516 13.4043 3.62305 12.7207 3.4375 11.627L3.41797 11.5195H0.634766L0.644531 11.6758C0.810547 14.2734 2.96875 15.8066 6.31836 15.8066ZM18.7101 15.7773C21.6984 15.7773 23.1437 14.0098 23.4659 12.4668L23.4952 12.3594H20.878L20.8585 12.418C20.6534 13.0039 19.9405 13.6484 18.7687 13.6484C17.3136 13.6484 16.4054 12.6719 16.3761 11.002H23.5831V10.123C23.5831 6.95898 21.6593 4.87891 18.5929 4.87891C15.5265 4.87891 13.5636 7.00781 13.5636 10.3379V10.3477C13.5636 13.6973 15.507 15.7773 18.7101 15.7773ZM18.6417 7.00781C19.8234 7.00781 20.673 7.75977 20.8488 9.20508H16.4054C16.5909 7.78906 17.4698 7.00781 18.6417 7.00781ZM29.5979 15.7773C30.1936 15.7773 30.6526 15.7188 30.9748 15.6699V13.5801C30.7991 13.5996 30.6135 13.6289 30.3596 13.6289C29.5002 13.6289 29.0608 13.2969 29.0608 12.3203V7.24219H30.9748V5.09375H29.0608V2.53516H26.1799V5.09375H24.7248V7.24219H26.1799V12.6328C26.1799 14.8789 27.2737 15.7773 29.5979 15.7773ZM37.0873 15.7773C37.683 15.7773 38.142 15.7188 38.4642 15.6699V13.5801C38.2884 13.5996 38.1029 13.6289 37.849 13.6289C36.9896 13.6289 36.5502 13.2969 36.5502 12.3203V7.24219H38.4642V5.09375H36.5502V2.53516H33.6693V5.09375H32.2142V7.24219H33.6693V12.6328C33.6693 14.8789 34.763 15.7773 37.0873 15.7773ZM41.9009 3.74609C42.7602 3.74609 43.4243 3.07227 43.4243 2.26172C43.4243 1.45117 42.7602 0.777344 41.9009 0.777344C41.0415 0.777344 40.3774 1.45117 40.3774 2.26172C40.3774 3.07227 41.0415 3.74609 41.9009 3.74609ZM40.4751 15.5625H43.3266V5.09375H40.4751V15.5625ZM45.6207 15.5625H48.4723V9.54688C48.4723 8.17969 49.2828 7.24219 50.5621 7.24219C51.8414 7.24219 52.4859 8.02344 52.4859 9.39062V15.5625H55.3375V8.80469C55.3375 6.35352 54.0289 4.87891 51.7242 4.87891C50.1422 4.87891 49.068 5.61133 48.5309 6.8125H48.4723V5.09375H45.6207V15.5625ZM62.4167 19.1953C65.5612 19.1953 67.5241 17.6035 67.5241 15.2695V5.09375H64.6726V6.88086H64.614C64.0476 5.66016 62.905 4.87891 61.4304 4.87891C58.7839 4.87891 57.1433 6.86133 57.1433 10.2012V10.2109C57.1433 13.4629 58.7644 15.416 61.3816 15.416C62.8952 15.416 64.0671 14.7227 64.614 13.6289H64.6726V15.2305C64.6726 16.4023 63.8913 17.1641 62.4167 17.1641C61.2253 17.1641 60.4636 16.7148 60.239 16.1973L60.2097 16.1289H57.4362L57.446 16.2168C57.7195 17.8965 59.5359 19.1953 62.4167 19.1953ZM62.3679 13.3262C60.9421 13.3262 60.0437 12.1641 60.0437 10.2793V10.2695C60.0437 8.39453 60.9519 7.24219 62.3679 7.24219C63.7546 7.24219 64.6823 8.4043 64.6823 10.2695V10.2793C64.6823 12.1543 63.7644 13.3262 62.3679 13.3262ZM74.0858 15.7773C76.7811 15.7773 78.6659 14.4297 78.6659 12.3789V12.3691C78.6659 10.8262 77.7674 9.9668 75.5799 9.50781L73.8026 9.12695C72.7479 8.90234 72.3866 8.55078 72.3866 8.01367V8.00391C72.3866 7.33008 73.0018 6.89062 73.9881 6.89062C75.0428 6.89062 75.6581 7.45703 75.7557 8.20898L75.7655 8.28711H78.3924V8.18945C78.3241 6.35352 76.7713 4.87891 73.9881 4.87891C71.3221 4.87891 69.6034 6.16797 69.6034 8.16016V8.16992C69.6034 9.73242 70.6288 10.748 72.66 11.1777L74.4373 11.5488C75.4627 11.7734 75.8143 12.0957 75.8143 12.6523V12.6621C75.8143 13.3359 75.16 13.7559 74.0858 13.7559C72.9432 13.7559 72.328 13.2773 72.1424 12.457L72.1229 12.3691H69.3397L69.3495 12.457C69.5741 14.4395 71.1854 15.7773 74.0858 15.7773Z" fill="url(#paint0_linear_3_924)"/>
<defs>
<linearGradient id="paint0_linear_3_924" x1="40" y1="-16.9375" x2="25.7651" y2="28.6141" gradientUnits="userSpaceOnUse">
<stop stop-color="#BD7AE3"/>
<stop offset="1" stop-color="#8461C9"/>
</linearGradient>
</defs>
</svg>
