<svg width="268" height="29" viewBox="0 0 268 29" fill="none" xmlns="http://www.w3.org/2000/svg">
<path d="M4.17041 10.1221C6.21436 10.1221 7.55371 9.05566 7.55371 7.3418V7.33545C7.55371 6.01514 6.79834 5.24707 4.8877 4.82178L3.87207 4.59326C2.62793 4.32031 2.12646 3.8252 2.12646 3.09521V3.08887C2.12646 2.13037 3.00879 1.59082 4.15137 1.58447C5.34473 1.57812 6.10645 2.1748 6.2334 2.98096L6.24609 3.06348H7.38867L7.38232 2.97461C7.28711 1.60986 6.01123 0.530762 4.18311 0.530762C2.2915 0.530762 0.964844 1.60352 0.958496 3.12061V3.12695C0.958496 4.45361 1.75195 5.29785 3.58643 5.7041L4.60205 5.92627C5.85889 6.20557 6.38574 6.72607 6.38574 7.48779V7.49414C6.38574 8.42725 5.47803 9.06836 4.23389 9.06836C2.91357 9.06836 1.96143 8.49072 1.87891 7.57666L1.87256 7.50684H0.72998L0.736328 7.57666C0.869629 9.06836 2.16455 10.1221 4.17041 10.1221ZM11.6695 9.95703C11.8853 9.95703 12.0948 9.93164 12.3106 9.89355V8.9541C12.1075 8.97314 11.9996 8.97949 11.8028 8.97949C11.0919 8.97949 10.8126 8.65576 10.8126 7.84961V3.97754H12.3106V3.06348H10.8126V1.29248H9.67V3.06348H8.5909V3.97754H9.67V8.12891C9.67 9.43652 10.2603 9.95703 11.6695 9.95703ZM15.7599 10.0269C16.6803 10.0269 17.3976 9.62695 17.8293 8.89697H17.9308V9.90625H19.0353V5.22168C19.0353 3.7998 18.1022 2.94287 16.4328 2.94287C14.9728 2.94287 13.9318 3.6665 13.7541 4.73926L13.7477 4.77734H14.8522L14.8586 4.7583C15.0363 4.2251 15.5758 3.92041 16.3947 3.92041C17.4167 3.92041 17.9308 4.37744 17.9308 5.22168V5.84375L15.9694 5.96436C14.3761 6.05957 13.4748 6.76416 13.4748 7.98291V7.99561C13.4748 9.23975 14.4587 10.0269 15.7599 10.0269ZM14.6046 7.97021V7.95752C14.6046 7.27832 15.0617 6.91016 16.1027 6.84668L17.9308 6.73242V7.35449C17.9308 8.33203 17.112 9.06836 15.9884 9.06836C15.195 9.06836 14.6046 8.66211 14.6046 7.97021ZM23.7922 12.3184C25.6584 12.3184 26.8391 11.3408 26.8391 9.81104V3.06348H25.7346V4.19336H25.6584C25.2395 3.41895 24.4905 2.94287 23.5256 2.94287C21.7356 2.94287 20.6311 4.33301 20.6311 6.25V6.2627C20.6311 8.17969 21.7292 9.55078 23.5002 9.55078C24.4397 9.55078 25.2141 9.12549 25.6457 8.37012H25.7473V9.75391C25.7473 10.7632 25.0173 11.3408 23.7922 11.3408C22.8083 11.3408 22.199 10.9727 22.0784 10.4521L22.072 10.4458H20.9294L20.9167 10.4521C21.0881 11.5757 22.1418 12.3184 23.7922 12.3184ZM23.7414 8.57324C22.4719 8.57324 21.761 7.62109 21.761 6.2627V6.25C21.761 4.8916 22.4719 3.92041 23.7414 3.92041C25.0046 3.92041 25.7727 4.8916 25.7727 6.25V6.2627C25.7727 7.62109 25.011 8.57324 23.7414 8.57324ZM31.6087 10.0269C33.221 10.0269 34.1986 9.11279 34.4334 8.18604L34.4461 8.13525H33.3416L33.3162 8.19238C33.1321 8.60498 32.5609 9.04297 31.6341 9.04297C30.4154 9.04297 29.6346 8.21777 29.6029 6.80225H34.5286V6.37061C34.5286 4.32666 33.3988 2.94287 31.5389 2.94287C29.679 2.94287 28.473 4.39014 28.473 6.50391V6.51025C28.473 8.65576 29.6536 10.0269 31.6087 10.0269ZM31.5325 3.92676C32.5418 3.92676 33.2908 4.56787 33.4051 5.91992H29.6219C29.7425 4.61865 30.5169 3.92676 31.5325 3.92676ZM42.5381 10.0269C44.1821 10.0269 45.1025 9.14453 45.3818 7.90674L45.3945 7.83691L44.3027 7.84326L44.29 7.88135C44.0361 8.64307 43.4521 9.04932 42.5317 9.04932C41.313 9.04932 40.5259 8.04004 40.5259 6.46582V6.45312C40.5259 4.91064 41.3003 3.92041 42.5317 3.92041C43.5156 3.92041 44.125 4.46631 44.2964 5.13916L44.3027 5.1582H45.4009L45.3945 5.12012C45.1914 3.90137 44.1948 2.94287 42.5317 2.94287C40.6147 2.94287 39.396 4.32666 39.396 6.45312V6.46582C39.396 8.63672 40.6211 10.0269 42.5381 10.0269ZM48.8121 10.0269C49.7325 10.0269 50.4498 9.62695 50.8814 8.89697H50.983V9.90625H52.0875V5.22168C52.0875 3.7998 51.1544 2.94287 49.4849 2.94287C48.025 2.94287 46.9839 3.6665 46.8062 4.73926L46.7999 4.77734H47.9044L47.9107 4.7583C48.0884 4.2251 48.628 3.92041 49.4468 3.92041C50.4688 3.92041 50.983 4.37744 50.983 5.22168V5.84375L49.0215 5.96436C47.4283 6.05957 46.5269 6.76416 46.5269 7.98291V7.99561C46.5269 9.23975 47.5108 10.0269 48.8121 10.0269ZM47.6568 7.97021V7.95752C47.6568 7.27832 48.1138 6.91016 49.1548 6.84668L50.983 6.73242V7.35449C50.983 8.33203 50.1641 9.06836 49.0406 9.06836C48.2471 9.06836 47.6568 8.66211 47.6568 7.97021ZM54.026 9.90625H55.1305V5.85645C55.1305 4.65674 55.8224 3.92041 56.9142 3.92041C58.006 3.92041 58.5138 4.51074 58.5138 5.74219V9.90625H59.6183V5.47559C59.6183 3.85059 58.7614 2.94287 57.2252 2.94287C56.216 2.94287 55.5748 3.36816 55.2321 4.0918H55.1305V3.06348H54.026V9.90625ZM67.4627 10.0269C69.0179 10.0269 70.2049 9.18262 70.2049 7.96387V7.95117C70.2049 6.97363 69.5828 6.41504 68.2942 6.104L67.2405 5.8501C66.4344 5.65332 66.0916 5.36133 66.0916 4.89795V4.88525C66.0916 4.28223 66.6883 3.86328 67.5008 3.86328C68.326 3.86328 68.8592 4.23779 69.0052 4.77734H70.0906C69.9383 3.66016 68.9417 2.94287 67.5071 2.94287C66.0535 2.94287 64.9617 3.7998 64.9617 4.93604V4.94238C64.9617 5.92627 65.5394 6.48486 66.8216 6.78955L67.8816 7.04346C68.7259 7.24658 69.075 7.57031 69.075 8.03369V8.04639C69.075 8.66846 68.4212 9.10645 67.5008 9.10645C66.6248 9.10645 66.0789 8.73193 65.8948 8.16064H64.7649C64.8919 9.29053 65.9393 10.0269 67.4627 10.0269ZM74.6317 10.0269C76.244 10.0269 77.2216 9.11279 77.4564 8.18604L77.4691 8.13525H76.3646L76.3392 8.19238C76.1552 8.60498 75.5839 9.04297 74.6571 9.04297C73.4384 9.04297 72.6576 8.21777 72.6259 6.80225H77.5516V6.37061C77.5516 4.32666 76.4218 2.94287 74.5619 2.94287C72.702 2.94287 71.496 4.39014 71.496 6.50391V6.51025C71.496 8.65576 72.6766 10.0269 74.6317 10.0269ZM74.5555 3.92676C75.5648 3.92676 76.3139 4.56787 76.4281 5.91992H72.6449C72.7655 4.61865 73.5399 3.92676 74.5555 3.92676ZM79.1855 9.90625H80.29V5.85645C80.29 4.65674 80.9819 3.92041 82.0737 3.92041C83.1655 3.92041 83.6733 4.51074 83.6733 5.74219V9.90625H84.7778V5.47559C84.7778 3.85059 83.9209 2.94287 82.3847 2.94287C81.3755 2.94287 80.7343 3.36816 80.3916 4.0918H80.29V3.06348H79.1855V9.90625ZM89.2237 10.0269C90.1758 10.0269 90.9375 9.57617 91.3565 8.81445H91.458V9.90625H92.5625V0.34668H91.458V4.14258H91.3565C90.982 3.4126 90.1631 2.94287 89.2237 2.94287C87.4844 2.94287 86.3545 4.33301 86.3545 6.47852V6.49121C86.3545 8.62402 87.4908 10.0269 89.2237 10.0269ZM89.4776 9.04932C88.2271 9.04932 87.4844 8.08447 87.4844 6.49121V6.47852C87.4844 4.88525 88.2271 3.92041 89.4776 3.92041C90.7217 3.92041 91.4834 4.89795 91.4834 6.47852V6.49121C91.4834 8.07178 90.7217 9.04932 89.4776 9.04932ZM98.1789 9.90625H99.2834V5.66602C99.2834 4.70117 99.9626 3.92041 100.858 3.92041C101.721 3.92041 102.279 4.44727 102.279 5.25977V9.90625H103.384V5.50732C103.384 4.6377 104.012 3.92041 104.965 3.92041C105.929 3.92041 106.393 4.42188 106.393 5.43115V9.90625H107.497V5.17725C107.497 3.74268 106.717 2.94287 105.32 2.94287C104.374 2.94287 103.593 3.41895 103.225 4.14258H103.124C102.806 3.43164 102.159 2.94287 101.232 2.94287C100.337 2.94287 99.6897 3.36816 99.385 4.10449H99.2834V3.06348H98.1789V9.90625ZM112.203 10.0269C113.816 10.0269 114.793 9.11279 115.028 8.18604L115.041 8.13525H113.936L113.911 8.19238C113.727 8.60498 113.156 9.04297 112.229 9.04297C111.01 9.04297 110.229 8.21777 110.198 6.80225H115.123V6.37061C115.123 4.32666 113.993 2.94287 112.134 2.94287C110.274 2.94287 109.068 4.39014 109.068 6.50391V6.51025C109.068 8.65576 110.248 10.0269 112.203 10.0269ZM112.127 3.92676C113.137 3.92676 113.886 4.56787 114 5.91992H110.217C110.337 4.61865 111.112 3.92676 112.127 3.92676ZM120.333 12.1914H121.438V8.82715H121.539C121.914 9.55713 122.733 10.0269 123.672 10.0269C125.412 10.0269 126.541 8.63672 126.541 6.49121V6.47852C126.541 4.3457 125.405 2.94287 123.672 2.94287C122.72 2.94287 121.958 3.39355 121.539 4.15527H121.438V3.06348H120.333V12.1914ZM123.418 9.04932C122.174 9.04932 121.413 8.07178 121.413 6.49121V6.47852C121.413 4.89795 122.174 3.92041 123.418 3.92041C124.669 3.92041 125.412 4.88525 125.412 6.47852V6.49121C125.412 8.08447 124.669 9.04932 123.418 9.04932ZM128.188 9.90625H129.293V5.66602C129.293 4.66309 130.042 3.99658 131.095 3.99658C131.336 3.99658 131.546 4.02197 131.774 4.06006V2.9873C131.667 2.96826 131.432 2.94287 131.222 2.94287C130.295 2.94287 129.654 3.36182 129.394 4.0791H129.293V3.06348H128.188V9.90625ZM135.681 10.0269C137.629 10.0269 138.836 8.68115 138.836 6.49121V6.47852C138.836 4.28223 137.629 2.94287 135.681 2.94287C133.732 2.94287 132.526 4.28223 132.526 6.47852V6.49121C132.526 8.68115 133.732 10.0269 135.681 10.0269ZM135.681 9.04932C134.386 9.04932 133.656 8.10352 133.656 6.49121V6.47852C133.656 4.85986 134.386 3.92041 135.681 3.92041C136.976 3.92041 137.706 4.85986 137.706 6.47852V6.49121C137.706 8.10352 136.976 9.04932 135.681 9.04932ZM142.996 10.0269C143.948 10.0269 144.71 9.57617 145.129 8.81445H145.23V9.90625H146.335V0.34668H145.23V4.14258H145.129C144.754 3.4126 143.935 2.94287 142.996 2.94287C141.257 2.94287 140.127 4.33301 140.127 6.47852V6.49121C140.127 8.62402 141.263 10.0269 142.996 10.0269ZM143.25 9.04932C141.999 9.04932 141.257 8.08447 141.257 6.49121V6.47852C141.257 4.88525 141.999 3.92041 143.25 3.92041C144.494 3.92041 145.256 4.89795 145.256 6.47852V6.49121C145.256 8.07178 144.494 9.04932 143.25 9.04932ZM150.666 10.0269C151.669 10.0269 152.361 9.61426 152.698 8.88428H152.799V9.90625H153.904V3.06348H152.799V7.11328C152.799 8.31299 152.158 9.04932 150.952 9.04932C149.86 9.04932 149.416 8.45898 149.416 7.22754V3.06348H148.311V7.49414C148.311 9.11279 149.111 10.0269 150.666 10.0269ZM158.686 10.0269C160.33 10.0269 161.25 9.14453 161.53 7.90674L161.542 7.83691L160.451 7.84326L160.438 7.88135C160.184 8.64307 159.6 9.04932 158.68 9.04932C157.461 9.04932 156.674 8.04004 156.674 6.46582V6.45312C156.674 4.91064 157.448 3.92041 158.68 3.92041C159.663 3.92041 160.273 4.46631 160.444 5.13916L160.451 5.1582H161.549L161.542 5.12012C161.339 3.90137 160.343 2.94287 158.68 2.94287C156.763 2.94287 155.544 4.32666 155.544 6.45312V6.46582C155.544 8.63672 156.769 10.0269 158.686 10.0269ZM165.639 9.95703C165.855 9.95703 166.064 9.93164 166.28 9.89355V8.9541C166.077 8.97314 165.969 8.97949 165.772 8.97949C165.061 8.97949 164.782 8.65576 164.782 7.84961V3.97754H166.28V3.06348H164.782V1.29248H163.64V3.06348H162.56V3.97754H163.64V8.12891C163.64 9.43652 164.23 9.95703 165.639 9.95703ZM173.718 10.0269C174.721 10.0269 175.413 9.61426 175.75 8.88428H175.851V9.90625H176.956V3.06348H175.851V7.11328C175.851 8.31299 175.21 9.04932 174.004 9.04932C172.912 9.04932 172.468 8.45898 172.468 7.22754V3.06348H171.363V7.49414C171.363 9.11279 172.163 10.0269 173.718 10.0269ZM178.939 12.1914H180.043V8.82715H180.145C180.519 9.55713 181.338 10.0269 182.277 10.0269C184.017 10.0269 185.147 8.63672 185.147 6.49121V6.47852C185.147 4.3457 184.01 2.94287 182.277 2.94287C181.325 2.94287 180.564 3.39355 180.145 4.15527H180.043V3.06348H178.939V12.1914ZM182.024 9.04932C180.779 9.04932 180.018 8.07178 180.018 6.49121V6.47852C180.018 4.89795 180.779 3.92041 182.024 3.92041C183.274 3.92041 184.017 4.88525 184.017 6.47852V6.49121C184.017 8.08447 183.274 9.04932 182.024 9.04932ZM189.32 10.0269C190.272 10.0269 191.033 9.57617 191.452 8.81445H191.554V9.90625H192.658V0.34668H191.554V4.14258H191.452C191.078 3.4126 190.259 2.94287 189.32 2.94287C187.58 2.94287 186.45 4.33301 186.45 6.47852V6.49121C186.45 8.62402 187.587 10.0269 189.32 10.0269ZM189.573 9.04932C188.323 9.04932 187.58 8.08447 187.58 6.49121V6.47852C187.58 4.88525 188.323 3.92041 189.573 3.92041C190.818 3.92041 191.579 4.89795 191.579 6.47852V6.49121C191.579 8.07178 190.818 9.04932 189.573 9.04932ZM196.577 10.0269C197.498 10.0269 198.215 9.62695 198.647 8.89697H198.748V9.90625H199.853V5.22168C199.853 3.7998 198.92 2.94287 197.25 2.94287C195.79 2.94287 194.749 3.6665 194.572 4.73926L194.565 4.77734H195.67L195.676 4.7583C195.854 4.2251 196.393 3.92041 197.212 3.92041C198.234 3.92041 198.748 4.37744 198.748 5.22168V5.84375L196.787 5.96436C195.194 6.05957 194.292 6.76416 194.292 7.98291V7.99561C194.292 9.23975 195.276 10.0269 196.577 10.0269ZM195.422 7.97021V7.95752C195.422 7.27832 195.879 6.91016 196.92 6.84668L198.748 6.73242V7.35449C198.748 8.33203 197.93 9.06836 196.806 9.06836C196.013 9.06836 195.422 8.66211 195.422 7.97021ZM204.223 9.95703C204.438 9.95703 204.648 9.93164 204.864 9.89355V8.9541C204.661 8.97314 204.553 8.97949 204.356 8.97949C203.645 8.97949 203.366 8.65576 203.366 7.84961V3.97754H204.864V3.06348H203.366V1.29248H202.223V3.06348H201.144V3.97754H202.223V8.12891C202.223 9.43652 202.813 9.95703 204.223 9.95703ZM209.125 10.0269C210.738 10.0269 211.715 9.11279 211.95 8.18604L211.963 8.13525H210.858L210.833 8.19238C210.649 8.60498 210.078 9.04297 209.151 9.04297C207.932 9.04297 207.151 8.21777 207.12 6.80225H212.045V6.37061C212.045 4.32666 210.916 2.94287 209.056 2.94287C207.196 2.94287 205.99 4.39014 205.99 6.50391V6.51025C205.99 8.65576 207.17 10.0269 209.125 10.0269ZM209.049 3.92676C210.059 3.92676 210.808 4.56787 210.922 5.91992H207.139C207.259 4.61865 208.034 3.92676 209.049 3.92676ZM216.028 10.0269C217.583 10.0269 218.77 9.18262 218.77 7.96387V7.95117C218.77 6.97363 218.148 6.41504 216.859 6.104L215.806 5.8501C215 5.65332 214.657 5.36133 214.657 4.89795V4.88525C214.657 4.28223 215.253 3.86328 216.066 3.86328C216.891 3.86328 217.424 4.23779 217.57 4.77734H218.656C218.503 3.66016 217.507 2.94287 216.072 2.94287C214.619 2.94287 213.527 3.7998 213.527 4.93604V4.94238C213.527 5.92627 214.105 6.48486 215.387 6.78955L216.447 7.04346C217.291 7.24658 217.64 7.57031 217.64 8.03369V8.04639C217.64 8.66846 216.986 9.10645 216.066 9.10645C215.19 9.10645 214.644 8.73193 214.46 8.16064H213.33C213.457 9.29053 214.504 10.0269 216.028 10.0269ZM225.859 10.0269C226.78 10.0269 227.497 9.62695 227.928 8.89697H228.03V9.90625H229.134V5.22168C229.134 3.7998 228.201 2.94287 226.532 2.94287C225.072 2.94287 224.031 3.6665 223.853 4.73926L223.847 4.77734H224.951L224.958 4.7583C225.135 4.2251 225.675 3.92041 226.494 3.92041C227.516 3.92041 228.03 4.37744 228.03 5.22168V5.84375L226.069 5.96436C224.475 6.05957 223.574 6.76416 223.574 7.98291V7.99561C223.574 9.23975 224.558 10.0269 225.859 10.0269ZM224.704 7.97021V7.95752C224.704 7.27832 225.161 6.91016 226.202 6.84668L228.03 6.73242V7.35449C228.03 8.33203 227.211 9.06836 226.088 9.06836C225.294 9.06836 224.704 8.66211 224.704 7.97021ZM231.073 9.90625H232.178V5.85645C232.178 4.65674 232.869 3.92041 233.961 3.92041C235.053 3.92041 235.561 4.51074 235.561 5.74219V9.90625H236.665V5.47559C236.665 3.85059 235.808 2.94287 234.272 2.94287C233.263 2.94287 232.622 3.36816 232.279 4.0918H232.178V3.06348H231.073V9.90625ZM241.111 10.0269C242.063 10.0269 242.825 9.57617 243.244 8.81445H243.346V9.90625H244.45V0.34668H243.346V4.14258H243.244C242.87 3.4126 242.051 2.94287 241.111 2.94287C239.372 2.94287 238.242 4.33301 238.242 6.47852V6.49121C238.242 8.62402 239.378 10.0269 241.111 10.0269ZM241.365 9.04932C240.115 9.04932 239.372 8.08447 239.372 6.49121V6.47852C239.372 4.88525 240.115 3.92041 241.365 3.92041C242.609 3.92041 243.371 4.89795 243.371 6.47852V6.49121C243.371 8.07178 242.609 9.04932 241.365 9.04932ZM252.498 9.95703C252.713 9.95703 252.923 9.93164 253.139 9.89355V8.9541C252.936 8.97314 252.828 8.97949 252.631 8.97949C251.92 8.97949 251.641 8.65576 251.641 7.84961V3.97754H253.139V3.06348H251.641V1.29248H250.498V3.06348H249.419V3.97754H250.498V8.12891C250.498 9.43652 251.088 9.95703 252.498 9.95703ZM254.773 9.90625H255.877V5.85645C255.877 4.65674 256.569 3.92041 257.661 3.92041C258.753 3.92041 259.26 4.51074 259.26 5.74219V9.90625H260.365V5.47559C260.365 3.85059 259.508 2.94287 257.972 2.94287C256.963 2.94287 256.321 3.36816 255.979 4.0918H255.877V0.34668H254.773V9.90625ZM265.077 10.0269C266.69 10.0269 267.667 9.11279 267.902 8.18604L267.915 8.13525H266.81L266.785 8.19238C266.601 8.60498 266.029 9.04297 265.103 9.04297C263.884 9.04297 263.103 8.21777 263.071 6.80225H267.997V6.37061C267.997 4.32666 266.867 2.94287 265.008 2.94287C263.148 2.94287 261.942 4.39014 261.942 6.50391V6.51025C261.942 8.65576 263.122 10.0269 265.077 10.0269ZM265.001 3.92676C266.01 3.92676 266.759 4.56787 266.874 5.91992H263.091C263.211 4.61865 263.986 3.92676 265.001 3.92676ZM3.84033 28.0269C5.78906 28.0269 6.99512 26.6812 6.99512 24.4912V24.4785C6.99512 22.2822 5.78906 20.9429 3.84033 20.9429C1.8916 20.9429 0.685547 22.2822 0.685547 24.4785V24.4912C0.685547 26.6812 1.8916 28.0269 3.84033 28.0269ZM3.84033 27.0493C2.54541 27.0493 1.81543 26.1035 1.81543 24.4912V24.4785C1.81543 22.8599 2.54541 21.9204 3.84033 21.9204C5.13525 21.9204 5.86523 22.8599 5.86523 24.4785V24.4912C5.86523 26.1035 5.13525 27.0493 3.84033 27.0493ZM11.4283 28.0269C13.0723 28.0269 13.9928 27.1445 14.2721 25.9067L14.2847 25.8369L13.1929 25.8433L13.1803 25.8813C12.9263 26.6431 12.3424 27.0493 11.422 27.0493C10.2032 27.0493 9.41609 26.04 9.41609 24.4658V24.4531C9.41609 22.9106 10.1905 21.9204 11.422 21.9204C12.4058 21.9204 13.0152 22.4663 13.1866 23.1392L13.1929 23.1582H14.2911L14.2847 23.1201C14.0816 21.9014 13.085 20.9429 11.422 20.9429C9.50496 20.9429 8.28621 22.3267 8.28621 24.4531V24.4658C8.28621 26.6367 9.51131 28.0269 11.4283 28.0269ZM18.6227 28.0269C20.2668 28.0269 21.1872 27.1445 21.4665 25.9067L21.4792 25.8369L20.3874 25.8433L20.3747 25.8813C20.1208 26.6431 19.5368 27.0493 18.6164 27.0493C17.3976 27.0493 16.6105 26.04 16.6105 24.4658V24.4531C16.6105 22.9106 17.3849 21.9204 18.6164 21.9204C19.6003 21.9204 20.2096 22.4663 20.381 23.1392L20.3874 23.1582H21.4855L21.4792 23.1201C21.276 21.9014 20.2795 20.9429 18.6164 20.9429C16.6994 20.9429 15.4806 22.3267 15.4806 24.4531V24.4658C15.4806 26.6367 16.7057 28.0269 18.6227 28.0269ZM24.8967 28.0269C25.8171 28.0269 26.5344 27.627 26.9661 26.897H27.0676V27.9062H28.1721V23.2217C28.1721 21.7998 27.239 20.9429 25.5696 20.9429C24.1096 20.9429 23.0686 21.6665 22.8909 22.7393L22.8845 22.7773H23.989L23.9954 22.7583C24.1731 22.2251 24.7126 21.9204 25.5315 21.9204C26.5535 21.9204 27.0676 22.3774 27.0676 23.2217V23.8438L25.1062 23.9644C23.5129 24.0596 22.6116 24.7642 22.6116 25.9829V25.9956C22.6116 27.2397 23.5954 28.0269 24.8967 28.0269ZM23.7414 25.9702V25.9575C23.7414 25.2783 24.1985 24.9102 25.2395 24.8467L27.0676 24.7324V25.3545C27.0676 26.332 26.2488 27.0684 25.1252 27.0684C24.3318 27.0684 23.7414 26.6621 23.7414 25.9702ZM32.4593 28.0269C34.0145 28.0269 35.2015 27.1826 35.2015 25.9639V25.9512C35.2015 24.9736 34.5794 24.415 33.2908 24.104L32.2371 23.8501C31.431 23.6533 31.0882 23.3613 31.0882 22.8979V22.8853C31.0882 22.2822 31.6849 21.8633 32.4974 21.8633C33.3226 21.8633 33.8558 22.2378 34.0018 22.7773H35.0872C34.9349 21.6602 33.9383 20.9429 32.5037 20.9429C31.0501 20.9429 29.9583 21.7998 29.9583 22.936V22.9424C29.9583 23.9263 30.536 24.4849 31.8182 24.7896L32.8782 25.0435C33.7225 25.2466 34.0716 25.5703 34.0716 26.0337V26.0464C34.0716 26.6685 33.4178 27.1064 32.4974 27.1064C31.6214 27.1064 31.0755 26.7319 30.8914 26.1606H29.7615C29.8885 27.2905 30.9359 28.0269 32.4593 28.0269ZM37.4193 19.7432C37.8383 19.7432 38.1811 19.4004 38.1811 18.9814C38.1811 18.5625 37.8383 18.2197 37.4193 18.2197C37.0004 18.2197 36.6576 18.5625 36.6576 18.9814C36.6576 19.4004 37.0004 19.7432 37.4193 19.7432ZM36.8607 27.9062H37.9652V21.0635H36.8607V27.9062ZM42.7793 28.0269C44.728 28.0269 45.9341 26.6812 45.9341 24.4912V24.4785C45.9341 22.2822 44.728 20.9429 42.7793 20.9429C40.8305 20.9429 39.6245 22.2822 39.6245 24.4785V24.4912C39.6245 26.6812 40.8305 28.0269 42.7793 28.0269ZM42.7793 27.0493C41.4844 27.0493 40.7544 26.1035 40.7544 24.4912V24.4785C40.7544 22.8599 41.4844 21.9204 42.7793 21.9204C44.0742 21.9204 44.8042 22.8599 44.8042 24.4785V24.4912C44.8042 26.1035 44.0742 27.0493 42.7793 27.0493ZM47.5679 27.9062H48.6724V23.8564C48.6724 22.6567 49.3643 21.9204 50.4561 21.9204C51.5479 21.9204 52.0557 22.5107 52.0557 23.7422V27.9062H53.1602V23.4756C53.1602 21.8506 52.3033 20.9429 50.7671 20.9429C49.7579 20.9429 49.1168 21.3682 48.774 22.0918H48.6724V21.0635H47.5679V27.9062ZM56.9586 28.0269C57.879 28.0269 58.5963 27.627 59.028 26.897H59.1295V27.9062H60.234V23.2217C60.234 21.7998 59.3009 20.9429 57.6315 20.9429C56.1715 20.9429 55.1305 21.6665 54.9528 22.7393L54.9464 22.7773H56.0509L56.0573 22.7583C56.235 22.2251 56.7746 21.9204 57.5934 21.9204C58.6154 21.9204 59.1295 22.3774 59.1295 23.2217V23.8438L57.1681 23.9644C55.5748 24.0596 54.6735 24.7642 54.6735 25.9829V25.9956C54.6735 27.2397 55.6574 28.0269 56.9586 28.0269ZM55.8034 25.9702V25.9575C55.8034 25.2783 56.2604 24.9102 57.3014 24.8467L59.1295 24.7324V25.3545C59.1295 26.332 58.3107 27.0684 57.1871 27.0684C56.3937 27.0684 55.8034 26.6621 55.8034 25.9702ZM62.2361 27.9062H63.3405V18.3467H62.2361V27.9062ZM68.9569 27.9062H70.0614V23.8564C70.0614 22.6567 70.7533 21.9204 71.8451 21.9204C72.9369 21.9204 73.4447 22.5107 73.4447 23.7422V27.9062H74.5492V23.4756C74.5492 21.8506 73.6923 20.9429 72.1561 20.9429C71.1469 20.9429 70.5057 21.3682 70.163 22.0918H70.0614V21.0635H68.9569V27.9062ZM79.2617 28.0269C80.874 28.0269 81.8515 27.1128 82.0864 26.186L82.0991 26.1353H80.9946L80.9692 26.1924C80.7851 26.605 80.2138 27.043 79.2871 27.043C78.0683 27.043 77.2876 26.2178 77.2558 24.8022H82.1816V24.3706C82.1816 22.3267 81.0517 20.9429 79.1919 20.9429C77.332 20.9429 76.1259 22.3901 76.1259 24.5039V24.5103C76.1259 26.6558 77.3066 28.0269 79.2617 28.0269ZM79.1855 21.9268C80.1948 21.9268 80.9438 22.5679 81.0581 23.9199H77.2749C77.3955 22.6187 78.1699 21.9268 79.1855 21.9268ZM85.1358 27.9062H86.2403L87.7637 22.6123H87.8653L89.3951 27.9062H90.5059L92.4229 21.0635H91.3247L89.979 26.5352H89.8775L88.3477 21.0635H87.3003L85.7705 26.5352H85.669L84.3233 21.0635H83.2188L85.1358 27.9062ZM95.9611 28.0269C97.5162 28.0269 98.7032 27.1826 98.7032 25.9639V25.9512C98.7032 24.9736 98.0812 24.415 96.7926 24.104L95.7389 23.8501C94.9327 23.6533 94.59 23.3613 94.59 22.8979V22.8853C94.59 22.2822 95.1866 21.8633 95.9991 21.8633C96.8243 21.8633 97.3575 22.2378 97.5035 22.7773H98.589C98.4366 21.6602 97.4401 20.9429 96.0055 20.9429C94.5519 20.9429 93.4601 21.7998 93.4601 22.936V22.9424C93.4601 23.9263 94.0377 24.4849 95.3199 24.7896L96.38 25.0435C97.2242 25.2466 97.5734 25.5703 97.5734 26.0337V26.0464C97.5734 26.6685 96.9195 27.1064 95.9991 27.1064C95.1232 27.1064 94.5773 26.7319 94.3932 26.1606H93.2633C93.3903 27.2905 94.4376 28.0269 95.9611 28.0269ZM100.401 27.9062H101.505V18.3467H100.401V27.9062ZM106.338 28.0269C107.95 28.0269 108.928 27.1128 109.163 26.186L109.176 26.1353H108.071L108.046 26.1924C107.862 26.605 107.29 27.043 106.364 27.043C105.145 27.043 104.364 26.2178 104.332 24.8022H109.258V24.3706C109.258 22.3267 108.128 20.9429 106.268 20.9429C104.408 20.9429 103.202 22.3901 103.202 24.5039V24.5103C103.202 26.6558 104.383 28.0269 106.338 28.0269ZM106.262 21.9268C107.271 21.9268 108.02 22.5679 108.135 23.9199H104.351C104.472 22.6187 105.246 21.9268 106.262 21.9268ZM113.323 27.957C113.539 27.957 113.748 27.9316 113.964 27.8936V26.9541C113.761 26.9731 113.653 26.9795 113.456 26.9795C112.745 26.9795 112.466 26.6558 112.466 25.8496V21.9775H113.964V21.0635H112.466V19.2925H111.324V21.0635H110.244V21.9775H111.324V26.1289C111.324 27.4365 111.914 27.957 113.323 27.957ZM117.966 27.957C118.182 27.957 118.391 27.9316 118.607 27.8936V26.9541C118.404 26.9731 118.296 26.9795 118.099 26.9795C117.388 26.9795 117.109 26.6558 117.109 25.8496V21.9775H118.607V21.0635H117.109V19.2925H115.966V21.0635H114.887V21.9775H115.966V26.1289C115.966 27.4365 116.557 27.957 117.966 27.957ZM122.869 28.0269C124.481 28.0269 125.459 27.1128 125.693 26.186L125.706 26.1353H124.602L124.576 26.1924C124.392 26.605 123.821 27.043 122.894 27.043C121.675 27.043 120.895 26.2178 120.863 24.8022H125.789V24.3706C125.789 22.3267 124.659 20.9429 122.799 20.9429C120.939 20.9429 119.733 22.3901 119.733 24.5039V24.5103C119.733 26.6558 120.914 28.0269 122.869 28.0269ZM122.793 21.9268C123.802 21.9268 124.551 22.5679 124.665 23.9199H120.882C121.002 22.6187 121.777 21.9268 122.793 21.9268ZM127.422 27.9062H128.527V23.666C128.527 22.6631 129.276 21.9966 130.33 21.9966C130.571 21.9966 130.78 22.022 131.009 22.0601V20.9873C130.901 20.9683 130.666 20.9429 130.457 20.9429C129.53 20.9429 128.889 21.3618 128.629 22.0791H128.527V21.0635H127.422V27.9062ZM134.515 28.0269C136.07 28.0269 137.258 27.1826 137.258 25.9639V25.9512C137.258 24.9736 136.635 24.415 135.347 24.104L134.293 23.8501C133.487 23.6533 133.144 23.3613 133.144 22.8979V22.8853C133.144 22.2822 133.741 21.8633 134.553 21.8633C135.379 21.8633 135.912 22.2378 136.058 22.7773H137.143C136.991 21.6602 135.994 20.9429 134.56 20.9429C133.106 20.9429 132.014 21.7998 132.014 22.936V22.9424C132.014 23.9263 132.592 24.4849 133.874 24.7896L134.934 25.0435C135.779 25.2466 136.128 25.5703 136.128 26.0337V26.0464C136.128 26.6685 135.474 27.1064 134.553 27.1064C133.677 27.1064 133.132 26.7319 132.947 26.1606H131.818C131.945 27.2905 132.992 28.0269 134.515 28.0269Z" fill="url(#paint0_linear_3_103)"/>
<defs>
<linearGradient id="paint0_linear_3_103" x1="131.56" y1="-18.9776" x2="123.926" y2="43.9414" gradientUnits="userSpaceOnUse">
<stop stop-color="#CDDDF4"/>
<stop offset="1" stop-color="#CDBAFA"/>
</linearGradient>
</defs>
</svg>
