<svg width="50" height="11" viewBox="0 0 50 11" fill="none" xmlns="http://www.w3.org/2000/svg">
<path d="M4.17041 10.1221C6.21436 10.1221 7.55371 9.05566 7.55371 7.3418V7.33545C7.55371 6.01514 6.79834 5.24707 4.8877 4.82178L3.87207 4.59326C2.62793 4.32031 2.12646 3.8252 2.12646 3.09521V3.08887C2.12646 2.13037 3.00879 1.59082 4.15137 1.58447C5.34473 1.57812 6.10645 2.1748 6.2334 2.98096L6.24609 3.06348H7.38867L7.38232 2.97461C7.28711 1.60986 6.01123 0.530762 4.18311 0.530762C2.2915 0.530762 0.964844 1.60352 0.958496 3.12061V3.12695C0.958496 4.45361 1.75195 5.29785 3.58643 5.7041L4.60205 5.92627C5.85889 6.20557 6.38574 6.72607 6.38574 7.48779V7.49414C6.38574 8.42725 5.47803 9.06836 4.23389 9.06836C2.91357 9.06836 1.96143 8.49072 1.87891 7.57666L1.87256 7.50684H0.72998L0.736328 7.57666C0.869629 9.06836 2.16455 10.1221 4.17041 10.1221ZM11.5299 10.0269C12.5328 10.0269 13.2247 9.61426 13.5611 8.88428H13.6627V9.90625H14.7672V3.06348H13.6627V7.11328C13.6627 8.31299 13.0216 9.04932 11.8155 9.04932C10.7237 9.04932 10.2794 8.45898 10.2794 7.22754V3.06348H9.17488V7.49414C9.17488 9.11279 9.97469 10.0269 11.5299 10.0269ZM20.1525 10.0269C21.8854 10.0269 23.0216 8.62402 23.0216 6.49121V6.47852C23.0216 4.33301 21.8918 2.94287 20.1525 2.94287C19.213 2.94287 18.3942 3.4126 18.0197 4.14258H17.9181V0.34668H16.8136V9.90625H17.9181V8.81445H18.0197C18.4386 9.57617 19.2004 10.0269 20.1525 10.0269ZM19.8986 9.04932C18.6545 9.04932 17.8927 8.07178 17.8927 6.49121V6.47852C17.8927 4.89795 18.6545 3.92041 19.8986 3.92041C21.1491 3.92041 21.8918 4.88525 21.8918 6.47852V6.49121C21.8918 8.08447 21.1491 9.04932 19.8986 9.04932ZM27.0867 9.95703C27.3025 9.95703 27.512 9.93164 27.7278 9.89355V8.9541C27.5246 8.97314 27.4167 8.97949 27.22 8.97949C26.509 8.97949 26.2297 8.65576 26.2297 7.84961V3.97754H27.7278V3.06348H26.2297V1.29248H25.0871V3.06348H24.008V3.97754H25.0871V8.12891C25.0871 9.43652 25.6775 9.95703 27.0867 9.95703ZM32.0086 10.0269C33.9573 10.0269 35.1634 8.68115 35.1634 6.49121V6.47852C35.1634 4.28223 33.9573 2.94287 32.0086 2.94287C30.0599 2.94287 28.8538 4.28223 28.8538 6.47852V6.49121C28.8538 8.68115 30.0599 10.0269 32.0086 10.0269ZM32.0086 9.04932C30.7137 9.04932 29.9837 8.10352 29.9837 6.49121V6.47852C29.9837 4.85986 30.7137 3.92041 32.0086 3.92041C33.3035 3.92041 34.0335 4.85986 34.0335 6.47852V6.49121C34.0335 8.10352 33.3035 9.04932 32.0086 9.04932ZM39.2284 9.95703C39.4442 9.95703 39.6537 9.93164 39.8695 9.89355V8.9541C39.6664 8.97314 39.5585 8.97949 39.3617 8.97949C38.6508 8.97949 38.3715 8.65576 38.3715 7.84961V3.97754H39.8695V3.06348H38.3715V1.29248H37.2289V3.06348H36.1498V3.97754H37.2289V8.12891C37.2289 9.43652 37.8192 9.95703 39.2284 9.95703ZM43.3188 10.0269C44.2392 10.0269 44.9565 9.62695 45.3882 8.89697H45.4897V9.90625H46.5942V5.22168C46.5942 3.7998 45.6611 2.94287 43.9917 2.94287C42.5317 2.94287 41.4907 3.6665 41.313 4.73926L41.3066 4.77734H42.4111L42.4175 4.7583C42.5952 4.2251 43.1347 3.92041 43.9536 3.92041C44.9756 3.92041 45.4897 4.37744 45.4897 5.22168V5.84375L43.5283 5.96436C41.935 6.05957 41.0337 6.76416 41.0337 7.98291V7.99561C41.0337 9.23975 42.0176 10.0269 43.3188 10.0269ZM42.1636 7.97021V7.95752C42.1636 7.27832 42.6206 6.91016 43.6616 6.84668L45.4897 6.73242V7.35449C45.4897 8.33203 44.6709 9.06836 43.5473 9.06836C42.7539 9.06836 42.1636 8.66211 42.1636 7.97021ZM48.5962 9.90625H49.7007V0.34668H48.5962V9.90625Z" fill="url(#paint0_linear_3_1375)"/>
<defs>
<linearGradient id="paint0_linear_3_1375" x1="24.6674" y1="-12.2122" x2="13.7379" y2="18.7549" gradientUnits="userSpaceOnUse">
<stop stop-color="#CDDDF4"/>
<stop offset="1" stop-color="#CDBAFA"/>
</linearGradient>
</defs>
</svg>
