<svg width="298" height="13" viewBox="0 0 298 13" fill="none" xmlns="http://www.w3.org/2000/svg">
<path d="M3.54834 10.5625H4.69092V2.43115H7.64258V1.40283H0.59668V2.43115H3.54834V10.5625ZM9.25105 10.5625H10.3555V6.5127C10.3555 5.31299 11.0474 4.57666 12.1392 4.57666C13.231 4.57666 13.7388 5.16699 13.7388 6.39844V10.5625H14.8433V6.13184C14.8433 4.50684 13.9864 3.59912 12.4503 3.59912C11.441 3.59912 10.7999 4.02441 10.4571 4.74805H10.3555V1.00293H9.25105V10.5625ZM17.3468 2.39941C17.7658 2.39941 18.1086 2.05664 18.1086 1.6377C18.1086 1.21875 17.7658 0.875977 17.3468 0.875977C16.9279 0.875977 16.5851 1.21875 16.5851 1.6377C16.5851 2.05664 16.9279 2.39941 17.3468 2.39941ZM16.7882 10.5625H17.8927V3.71973H16.7882V10.5625ZM22.2434 10.6831C23.7986 10.6831 24.9856 9.83887 24.9856 8.62012V8.60742C24.9856 7.62988 24.3635 7.07129 23.0749 6.76025L22.0212 6.50635C21.2151 6.30957 20.8723 6.01758 20.8723 5.5542V5.5415C20.8723 4.93848 21.469 4.51953 22.2815 4.51953C23.1067 4.51953 23.6399 4.89404 23.7859 5.43359H24.8713C24.719 4.31641 23.7224 3.59912 22.2878 3.59912C20.8342 3.59912 19.7424 4.45605 19.7424 5.59229V5.59863C19.7424 6.58252 20.3201 7.14111 21.6023 7.4458L22.6623 7.69971C23.5066 7.90283 23.8557 8.22656 23.8557 8.68994V8.70264C23.8557 9.32471 23.2019 9.7627 22.2815 9.7627C21.4055 9.7627 20.8596 9.38818 20.6755 8.81689H19.5456C19.6726 9.94678 20.72 10.6831 22.2434 10.6831ZM30.2592 10.5625H31.3637V1.00293H30.2592V10.5625ZM36.2158 10.6831C38.1645 10.6831 39.3706 9.3374 39.3706 7.14746V7.13477C39.3706 4.93848 38.1645 3.59912 36.2158 3.59912C34.2671 3.59912 33.061 4.93848 33.061 7.13477V7.14746C33.061 9.3374 34.2671 10.6831 36.2158 10.6831ZM36.2158 9.70557C34.9209 9.70557 34.1909 8.75977 34.1909 7.14746V7.13477C34.1909 5.51611 34.9209 4.57666 36.2158 4.57666C37.5107 4.57666 38.2407 5.51611 38.2407 7.13477V7.14746C38.2407 8.75977 37.5107 9.70557 36.2158 9.70557ZM43.8038 10.6831C45.4478 10.6831 46.3682 9.80078 46.6475 8.56299L46.6602 8.49316L45.5684 8.49951L45.5557 8.5376C45.3018 9.29932 44.7178 9.70557 43.7974 9.70557C42.5787 9.70557 41.7916 8.69629 41.7916 7.12207V7.10938C41.7916 5.56689 42.566 4.57666 43.7974 4.57666C44.7813 4.57666 45.3907 5.12256 45.5621 5.79541L45.5684 5.81445H46.6666L46.6602 5.77637C46.4571 4.55762 45.4605 3.59912 43.7974 3.59912C41.8804 3.59912 40.6617 4.98291 40.6617 7.10938V7.12207C40.6617 9.29297 41.8868 10.6831 43.8038 10.6831ZM50.0778 10.6831C50.9982 10.6831 51.7155 10.2832 52.1471 9.55322H52.2487V10.5625H53.3532V5.87793C53.3532 4.45605 52.4201 3.59912 50.7506 3.59912C49.2907 3.59912 48.2496 4.32275 48.0719 5.39551L48.0656 5.43359H49.1701L49.1764 5.41455C49.3541 4.88135 49.8937 4.57666 50.7125 4.57666C51.7345 4.57666 52.2487 5.03369 52.2487 5.87793V6.5L50.2872 6.62061C48.694 6.71582 47.7926 7.42041 47.7926 8.63916V8.65186C47.7926 9.896 48.7765 10.6831 50.0778 10.6831ZM48.9225 8.62646V8.61377C48.9225 7.93457 49.3795 7.56641 50.4205 7.50293L52.2487 7.38867V8.01074C52.2487 8.98828 51.4298 9.72461 50.3063 9.72461C49.5128 9.72461 48.9225 9.31836 48.9225 8.62646ZM57.7229 10.6133C57.9387 10.6133 58.1482 10.5879 58.364 10.5498V9.61035C58.1609 9.62939 58.0529 9.63574 57.8562 9.63574C57.1452 9.63574 56.8659 9.31201 56.8659 8.50586V4.63379H58.364V3.71973H56.8659V1.94873H55.7234V3.71973H54.6443V4.63379H55.7234V8.78516C55.7234 10.0928 56.3137 10.6133 57.7229 10.6133ZM60.5184 2.39941C60.9373 2.39941 61.2801 2.05664 61.2801 1.6377C61.2801 1.21875 60.9373 0.875977 60.5184 0.875977C60.0994 0.875977 59.7566 1.21875 59.7566 1.6377C59.7566 2.05664 60.0994 2.39941 60.5184 2.39941ZM59.9598 10.5625H61.0643V3.71973H59.9598V10.5625ZM65.8783 10.6831C67.827 10.6831 69.0331 9.3374 69.0331 7.14746V7.13477C69.0331 4.93848 67.827 3.59912 65.8783 3.59912C63.9296 3.59912 62.7235 4.93848 62.7235 7.13477V7.14746C62.7235 9.3374 63.9296 10.6831 65.8783 10.6831ZM65.8783 9.70557C64.5834 9.70557 63.8534 8.75977 63.8534 7.14746V7.13477C63.8534 5.51611 64.5834 4.57666 65.8783 4.57666C67.1732 4.57666 67.9032 5.51611 67.9032 7.13477V7.14746C67.9032 8.75977 67.1732 9.70557 65.8783 9.70557ZM70.667 10.5625H71.7714V6.5127C71.7714 5.31299 72.4633 4.57666 73.5551 4.57666C74.6469 4.57666 75.1547 5.16699 75.1547 6.39844V10.5625H76.2592V6.13184C76.2592 4.50684 75.4023 3.59912 73.8662 3.59912C72.8569 3.59912 72.2158 4.02441 71.873 4.74805H71.7714V3.71973H70.667V10.5625ZM84.2814 10.6831C85.2335 10.6831 85.9952 10.2324 86.4142 9.4707H86.5157V10.5625H87.6202V1.00293H86.5157V4.79883H86.4142C86.0397 4.06885 85.2208 3.59912 84.2814 3.59912C82.5421 3.59912 81.4122 4.98926 81.4122 7.13477V7.14746C81.4122 9.28027 82.5485 10.6831 84.2814 10.6831ZM84.5353 9.70557C83.2848 9.70557 82.5421 8.74072 82.5421 7.14746V7.13477C82.5421 5.5415 83.2848 4.57666 84.5353 4.57666C85.7794 4.57666 86.5411 5.5542 86.5411 7.13477V7.14746C86.5411 8.72803 85.7794 9.70557 84.5353 9.70557ZM92.4533 10.6831C94.0656 10.6831 95.0432 9.76904 95.278 8.84229L95.2907 8.7915H94.1862L94.1608 8.84863C93.9768 9.26123 93.4055 9.69922 92.4787 9.69922C91.26 9.69922 90.4792 8.87402 90.4475 7.4585H95.3732V7.02686C95.3732 4.98291 94.2434 3.59912 92.3835 3.59912C90.5236 3.59912 89.3176 5.04639 89.3176 7.16016V7.1665C89.3176 9.31201 90.4982 10.6831 92.4533 10.6831ZM92.3772 4.58301C93.3864 4.58301 94.1355 5.22412 94.2497 6.57617H90.4665C90.5871 5.2749 91.3615 4.58301 92.3772 4.58301ZM97.4641 10.5625H98.5686V4.63379H100.124V3.71973H98.5686V2.98975C98.5686 2.24072 98.886 1.85352 99.6731 1.85352C99.8699 1.85352 100.054 1.85986 100.187 1.88525V1.00293C99.9588 0.958496 99.7176 0.939453 99.451 0.939453C98.1497 0.939453 97.4641 1.59326 97.4641 2.95801V3.71973H96.3279V4.63379H97.4641V10.5625ZM102.221 2.39941C102.64 2.39941 102.983 2.05664 102.983 1.6377C102.983 1.21875 102.64 0.875977 102.221 0.875977C101.802 0.875977 101.459 1.21875 101.459 1.6377C101.459 2.05664 101.802 2.39941 102.221 2.39941ZM101.662 10.5625H102.767V3.71973H101.662V10.5625ZM104.769 10.5625H105.873V6.5127C105.873 5.31299 106.565 4.57666 107.657 4.57666C108.749 4.57666 109.257 5.16699 109.257 6.39844V10.5625H110.361V6.13184C110.361 4.50684 109.504 3.59912 107.968 3.59912C106.959 3.59912 106.318 4.02441 105.975 4.74805H105.873V3.71973H104.769V10.5625ZM115.074 10.6831C116.686 10.6831 117.664 9.76904 117.898 8.84229L117.911 8.7915H116.807L116.781 8.84863C116.597 9.26123 116.026 9.69922 115.099 9.69922C113.88 9.69922 113.1 8.87402 113.068 7.4585H117.994V7.02686C117.994 4.98291 116.864 3.59912 115.004 3.59912C113.144 3.59912 111.938 5.04639 111.938 7.16016V7.1665C111.938 9.31201 113.119 10.6831 115.074 10.6831ZM114.998 4.58301C116.007 4.58301 116.756 5.22412 116.87 6.57617H113.087C113.208 5.2749 113.982 4.58301 114.998 4.58301ZM121.976 10.6831C123.531 10.6831 124.718 9.83887 124.718 8.62012V8.60742C124.718 7.62988 124.096 7.07129 122.808 6.76025L121.754 6.50635C120.948 6.30957 120.605 6.01758 120.605 5.5542V5.5415C120.605 4.93848 121.202 4.51953 122.014 4.51953C122.839 4.51953 123.373 4.89404 123.519 5.43359H124.604C124.452 4.31641 123.455 3.59912 122.021 3.59912C120.567 3.59912 119.475 4.45605 119.475 5.59229V5.59863C119.475 6.58252 120.053 7.14111 121.335 7.4458L122.395 7.69971C123.239 7.90283 123.588 8.22656 123.588 8.68994V8.70264C123.588 9.32471 122.935 9.7627 122.014 9.7627C121.138 9.7627 120.592 9.38818 120.408 8.81689H119.278C119.405 9.94678 120.453 10.6831 121.976 10.6831ZM130.512 12.9619C131.725 12.9619 132.29 12.5176 132.855 10.9814L135.527 3.71973H134.365L132.493 9.3501H132.391L130.512 3.71973H129.332L131.865 10.5688L131.738 10.9751C131.49 11.7622 131.109 12.0479 130.481 12.0479C130.328 12.0479 130.157 12.0415 130.024 12.0161V12.9238C130.176 12.9492 130.366 12.9619 130.512 12.9619ZM139.465 10.6831C141.414 10.6831 142.62 9.3374 142.62 7.14746V7.13477C142.62 4.93848 141.414 3.59912 139.465 3.59912C137.516 3.59912 136.31 4.93848 136.31 7.13477V7.14746C136.31 9.3374 137.516 10.6831 139.465 10.6831ZM139.465 9.70557C138.17 9.70557 137.44 8.75977 137.44 7.14746V7.13477C137.44 5.51611 138.17 4.57666 139.465 4.57666C140.76 4.57666 141.49 5.51611 141.49 7.13477V7.14746C141.49 8.75977 140.76 9.70557 139.465 9.70557ZM146.545 10.6831C147.548 10.6831 148.24 10.2705 148.577 9.54053H148.678V10.5625H149.783V3.71973H148.678V7.76953C148.678 8.96924 148.037 9.70557 146.831 9.70557C145.739 9.70557 145.295 9.11523 145.295 7.88379V3.71973H144.19V8.15039C144.19 9.76904 144.99 10.6831 146.545 10.6831ZM151.766 10.5625H152.87V6.32227C152.87 5.31934 153.619 4.65283 154.673 4.65283C154.914 4.65283 155.124 4.67822 155.352 4.71631V3.64355C155.244 3.62451 155.009 3.59912 154.8 3.59912C153.873 3.59912 153.232 4.01807 152.972 4.73535H152.87V3.71973H151.766V10.5625ZM160.277 10.5625H161.381V1.00293H160.277V10.5625ZM165.3 10.6831C166.22 10.6831 166.938 10.2832 167.369 9.55322H167.471V10.5625H168.575V5.87793C168.575 4.45605 167.642 3.59912 165.973 3.59912C164.513 3.59912 163.472 4.32275 163.294 5.39551L163.288 5.43359H164.392L164.399 5.41455C164.576 4.88135 165.116 4.57666 165.935 4.57666C166.957 4.57666 167.471 5.03369 167.471 5.87793V6.5L165.51 6.62061C163.916 6.71582 163.015 7.42041 163.015 8.63916V8.65186C163.015 9.896 163.999 10.6831 165.3 10.6831ZM164.145 8.62646V8.61377C164.145 7.93457 164.602 7.56641 165.643 7.50293L167.471 7.38867V8.01074C167.471 8.98828 166.652 9.72461 165.529 9.72461C164.735 9.72461 164.145 9.31836 164.145 8.62646ZM170.514 10.5625H171.618V6.5127C171.618 5.31299 172.31 4.57666 173.402 4.57666C174.494 4.57666 175.002 5.16699 175.002 6.39844V10.5625H176.106V6.13184C176.106 4.50684 175.249 3.59912 173.713 3.59912C172.704 3.59912 172.063 4.02441 171.72 4.74805H171.618V3.71973H170.514V10.5625ZM180.844 12.9746C182.71 12.9746 183.891 11.9971 183.891 10.4673V3.71973H182.787V4.84961H182.71C182.291 4.0752 181.542 3.59912 180.578 3.59912C178.788 3.59912 177.683 4.98926 177.683 6.90625V6.91895C177.683 8.83594 178.781 10.207 180.552 10.207C181.492 10.207 182.266 9.78174 182.698 9.02637H182.799V10.4102C182.799 11.4194 182.069 11.9971 180.844 11.9971C179.86 11.9971 179.251 11.6289 179.13 11.1084L179.124 11.1021H177.981L177.969 11.1084C178.14 12.2319 179.194 12.9746 180.844 12.9746ZM180.793 9.22949C179.524 9.22949 178.813 8.27734 178.813 6.91895V6.90625C178.813 5.54785 179.524 4.57666 180.793 4.57666C182.057 4.57666 182.825 5.54785 182.825 6.90625V6.91895C182.825 8.27734 182.063 9.22949 180.793 9.22949ZM188.159 10.6831C189.162 10.6831 189.854 10.2705 190.19 9.54053H190.292V10.5625H191.396V3.71973H190.292V7.76953C190.292 8.96924 189.651 9.70557 188.445 9.70557C187.353 9.70557 186.909 9.11523 186.909 7.88379V3.71973H185.804V8.15039C185.804 9.76904 186.604 10.6831 188.159 10.6831ZM195.258 10.6831C196.179 10.6831 196.896 10.2832 197.328 9.55322H197.429V10.5625H198.534V5.87793C198.534 4.45605 197.601 3.59912 195.931 3.59912C194.471 3.59912 193.43 4.32275 193.253 5.39551L193.246 5.43359H194.351L194.357 5.41455C194.535 4.88135 195.074 4.57666 195.893 4.57666C196.915 4.57666 197.429 5.03369 197.429 5.87793V6.5L195.468 6.62061C193.875 6.71582 192.973 7.42041 192.973 8.63916V8.65186C192.973 9.896 193.957 10.6831 195.258 10.6831ZM194.103 8.62646V8.61377C194.103 7.93457 194.56 7.56641 195.601 7.50293L197.429 7.38867V8.01074C197.429 8.98828 196.61 9.72461 195.487 9.72461C194.693 9.72461 194.103 9.31836 194.103 8.62646ZM203.291 12.9746C205.157 12.9746 206.338 11.9971 206.338 10.4673V3.71973H205.233V4.84961H205.157C204.738 4.0752 203.989 3.59912 203.024 3.59912C201.234 3.59912 200.13 4.98926 200.13 6.90625V6.91895C200.13 8.83594 201.228 10.207 202.999 10.207C203.938 10.207 204.713 9.78174 205.144 9.02637H205.246V10.4102C205.246 11.4194 204.516 11.9971 203.291 11.9971C202.307 11.9971 201.697 11.6289 201.577 11.1084L201.57 11.1021H200.428L200.415 11.1084C200.587 12.2319 201.64 12.9746 203.291 12.9746ZM203.24 9.22949C201.97 9.22949 201.259 8.27734 201.259 6.91895V6.90625C201.259 5.54785 201.97 4.57666 203.24 4.57666C204.503 4.57666 205.271 5.54785 205.271 6.90625V6.91895C205.271 8.27734 204.509 9.22949 203.24 9.22949ZM211.107 10.6831C212.719 10.6831 213.697 9.76904 213.932 8.84229L213.945 8.7915H212.84L212.815 8.84863C212.631 9.26123 212.059 9.69922 211.133 9.69922C209.914 9.69922 209.133 8.87402 209.101 7.4585H214.027V7.02686C214.027 4.98291 212.897 3.59912 211.037 3.59912C209.177 3.59912 207.971 5.04639 207.971 7.16016V7.1665C207.971 9.31201 209.152 10.6831 211.107 10.6831ZM211.031 4.58301C212.04 4.58301 212.789 5.22412 212.904 6.57617H209.12C209.241 5.2749 210.015 4.58301 211.031 4.58301ZM221.116 10.6831C222.036 10.6831 222.754 10.2832 223.185 9.55322H223.287V10.5625H224.391V5.87793C224.391 4.45605 223.458 3.59912 221.789 3.59912C220.329 3.59912 219.288 4.32275 219.11 5.39551L219.104 5.43359H220.208L220.215 5.41455C220.392 4.88135 220.932 4.57666 221.751 4.57666C222.773 4.57666 223.287 5.03369 223.287 5.87793V6.5L221.326 6.62061C219.732 6.71582 218.831 7.42041 218.831 8.63916V8.65186C218.831 9.896 219.815 10.6831 221.116 10.6831ZM219.961 8.62646V8.61377C219.961 7.93457 220.418 7.56641 221.459 7.50293L223.287 7.38867V8.01074C223.287 8.98828 222.468 9.72461 221.345 9.72461C220.551 9.72461 219.961 9.31836 219.961 8.62646ZM226.33 10.5625H227.435V6.5127C227.435 5.31299 228.126 4.57666 229.218 4.57666C230.31 4.57666 230.818 5.16699 230.818 6.39844V10.5625H231.922V6.13184C231.922 4.50684 231.065 3.59912 229.529 3.59912C228.52 3.59912 227.879 4.02441 227.536 4.74805H227.435V3.71973H226.33V10.5625ZM236.368 10.6831C237.32 10.6831 238.082 10.2324 238.501 9.4707H238.603V10.5625H239.707V1.00293H238.603V4.79883H238.501C238.127 4.06885 237.308 3.59912 236.368 3.59912C234.629 3.59912 233.499 4.98926 233.499 7.13477V7.14746C233.499 9.28027 234.635 10.6831 236.368 10.6831ZM236.622 9.70557C235.372 9.70557 234.629 8.74072 234.629 7.14746V7.13477C234.629 5.5415 235.372 4.57666 236.622 4.57666C237.866 4.57666 238.628 5.5542 238.628 7.13477V7.14746C238.628 8.72803 237.866 9.70557 236.622 9.70557ZM248.123 10.6831C249.767 10.6831 250.687 9.80078 250.967 8.56299L250.979 8.49316L249.887 8.49951L249.875 8.5376C249.621 9.29932 249.037 9.70557 248.116 9.70557C246.898 9.70557 246.111 8.69629 246.111 7.12207V7.10938C246.111 5.56689 246.885 4.57666 248.116 4.57666C249.1 4.57666 249.71 5.12256 249.881 5.79541L249.887 5.81445H250.986L250.979 5.77637C250.776 4.55762 249.779 3.59912 248.116 3.59912C246.199 3.59912 244.981 4.98291 244.981 7.10938V7.12207C244.981 9.29297 246.206 10.6831 248.123 10.6831ZM254.809 10.6831C255.812 10.6831 256.504 10.2705 256.841 9.54053H256.942V10.5625H258.047V3.71973H256.942V7.76953C256.942 8.96924 256.301 9.70557 255.095 9.70557C254.003 9.70557 253.559 9.11523 253.559 7.88379V3.71973H252.454V8.15039C252.454 9.76904 253.254 10.6831 254.809 10.6831ZM260.03 10.5625H261.134V6.32227C261.134 5.31934 261.883 4.65283 262.937 4.65283C263.178 4.65283 263.388 4.67822 263.616 4.71631V3.64355C263.508 3.62451 263.273 3.59912 263.064 3.59912C262.137 3.59912 261.496 4.01807 261.236 4.73535H261.134V3.71973H260.03V10.5625ZM265.028 10.5625H266.132V6.32227C266.132 5.31934 266.881 4.65283 267.935 4.65283C268.176 4.65283 268.386 4.67822 268.614 4.71631V3.64355C268.506 3.62451 268.271 3.59912 268.062 3.59912C267.135 3.59912 266.494 4.01807 266.234 4.73535H266.132V3.71973H265.028V10.5625ZM272.501 10.6831C274.114 10.6831 275.091 9.76904 275.326 8.84229L275.339 8.7915H274.234L274.209 8.84863C274.025 9.26123 273.454 9.69922 272.527 9.69922C271.308 9.69922 270.527 8.87402 270.496 7.4585H275.421V7.02686C275.421 4.98291 274.292 3.59912 272.432 3.59912C270.572 3.59912 269.366 5.04639 269.366 7.16016V7.1665C269.366 9.31201 270.546 10.6831 272.501 10.6831ZM272.425 4.58301C273.435 4.58301 274.184 5.22412 274.298 6.57617H270.515C270.635 5.2749 271.41 4.58301 272.425 4.58301ZM277.055 10.5625H278.16V6.5127C278.16 5.31299 278.852 4.57666 279.943 4.57666C281.035 4.57666 281.543 5.16699 281.543 6.39844V10.5625H282.648V6.13184C282.648 4.50684 281.791 3.59912 280.254 3.59912C279.245 3.59912 278.604 4.02441 278.261 4.74805H278.16V3.71973H277.055V10.5625ZM287.366 10.6831C289.01 10.6831 289.931 9.80078 290.21 8.56299L290.223 8.49316L289.131 8.49951L289.118 8.5376C288.864 9.29932 288.28 9.70557 287.36 9.70557C286.141 9.70557 285.354 8.69629 285.354 7.12207V7.10938C285.354 5.56689 286.129 4.57666 287.36 4.57666C288.344 4.57666 288.953 5.12256 289.125 5.79541L289.131 5.81445H290.229L290.223 5.77637C290.02 4.55762 289.023 3.59912 287.36 3.59912C285.443 3.59912 284.224 4.98291 284.224 7.10938V7.12207C284.224 9.29297 285.449 10.6831 287.366 10.6831ZM292.345 12.9619C293.558 12.9619 294.123 12.5176 294.688 10.9814L297.36 3.71973H296.198L294.326 9.3501H294.224L292.345 3.71973H291.165L293.698 10.5688L293.571 10.9751C293.323 11.7622 292.942 12.0479 292.314 12.0479C292.161 12.0479 291.99 12.0415 291.857 12.0161V12.9238C292.009 12.9492 292.199 12.9619 292.345 12.9619Z" fill="url(#paint0_linear_3_922)"/>
<defs>
<linearGradient id="paint0_linear_3_922" x1="144.135" y1="-11.556" x2="142.039" y2="23.1421" gradientUnits="userSpaceOnUse">
<stop stop-color="#CDDDF4"/>
<stop offset="1" stop-color="#CDBAFA"/>
</linearGradient>
</defs>
</svg>
