<svg width="342" height="75" viewBox="0 0 342 75" fill="none" xmlns="http://www.w3.org/2000/svg">
<path d="M5.53711 11.5615C8.15918 11.5615 9.72656 9.97949 9.72656 7.67969V0.743652H8.4082V7.5918C8.4082 9.21777 7.36816 10.3457 5.53711 10.3457C3.70605 10.3457 2.65137 9.21777 2.65137 7.5918V0.743652H1.33301V7.67969C1.33301 9.97949 2.91504 11.5615 5.53711 11.5615ZM12.0061 11.3125H13.2805V6.41992C13.2805 5.2627 14.1448 4.49365 15.3606 4.49365C15.6389 4.49365 15.8806 4.52295 16.1443 4.56689V3.3291C16.0198 3.30713 15.7488 3.27783 15.5071 3.27783C14.4377 3.27783 13.698 3.76123 13.3977 4.58887H13.2805V3.41699H12.0061V11.3125ZM21.4048 11.4517C23.4043 11.4517 24.7153 9.83301 24.7153 7.37207V7.35742C24.7153 4.88184 23.4116 3.27783 21.4048 3.27783C20.3208 3.27783 19.376 3.81982 18.9438 4.66211H18.8266V0.282227H17.5522V11.3125H18.8266V10.0527H18.9438C19.4272 10.9316 20.3061 11.4517 21.4048 11.4517ZM21.1118 10.3237C19.6763 10.3237 18.7973 9.1958 18.7973 7.37207V7.35742C18.7973 5.53369 19.6763 4.40576 21.1118 4.40576C22.5547 4.40576 23.4116 5.51904 23.4116 7.35742V7.37207C23.4116 9.21045 22.5547 10.3237 21.1118 10.3237ZM28.6208 11.4517C29.6828 11.4517 30.5105 10.9902 31.0085 10.1479H31.1257V11.3125H32.4001V5.90723C32.4001 4.2666 31.3235 3.27783 29.3972 3.27783C27.7126 3.27783 26.5114 4.11279 26.3064 5.35059L26.299 5.39453H27.5735L27.5808 5.37256C27.7859 4.75732 28.4084 4.40576 29.3532 4.40576C30.5324 4.40576 31.1257 4.93311 31.1257 5.90723V6.625L28.8625 6.76416C27.0241 6.87402 25.9841 7.68701 25.9841 9.09326V9.10791C25.9841 10.5435 27.1194 11.4517 28.6208 11.4517ZM27.2878 9.07861V9.06396C27.2878 8.28027 27.8152 7.85547 29.0163 7.78223L31.1257 7.65039V8.36816C31.1257 9.49609 30.1809 10.3457 28.8845 10.3457C27.969 10.3457 27.2878 9.87695 27.2878 9.07861ZM34.4892 11.3125H35.7636V6.63965C35.7636 5.25537 36.562 4.40576 37.8217 4.40576C39.0815 4.40576 39.6674 5.08691 39.6674 6.50781V11.3125H40.9419V6.2002C40.9419 4.3252 39.9531 3.27783 38.1806 3.27783C37.0161 3.27783 36.2763 3.76855 35.8808 4.60352H35.7636V3.41699H34.4892V11.3125ZM42.8991 7.65039H47.821V6.46387H42.8991V7.65039ZM50.518 1.89355C51.0014 1.89355 51.3969 1.49805 51.3969 1.01465C51.3969 0.53125 51.0014 0.135742 50.518 0.135742C50.0346 0.135742 49.6391 0.53125 49.6391 1.01465C49.6391 1.49805 50.0346 1.89355 50.518 1.89355ZM49.8735 11.3125H51.1479V3.41699H49.8735V11.3125ZM53.3102 11.3125H54.5846V6.63965C54.5846 5.25537 55.383 4.40576 56.6428 4.40576C57.9025 4.40576 58.4885 5.08691 58.4885 6.50781V11.3125H59.7629V6.2002C59.7629 4.3252 58.7741 3.27783 57.0016 3.27783C55.8371 3.27783 55.0973 3.76855 54.7018 4.60352H54.5846V3.41699H53.3102V11.3125ZM64.54 11.4517C66.3344 11.4517 67.704 10.4775 67.704 9.07129V9.05664C67.704 7.92871 66.9863 7.28418 65.4994 6.92529L64.2836 6.63232C63.3534 6.40527 62.9579 6.06836 62.9579 5.53369V5.51904C62.9579 4.82324 63.6464 4.33984 64.5839 4.33984C65.5361 4.33984 66.1513 4.77197 66.3197 5.39453H67.5722C67.3964 4.10547 66.2465 3.27783 64.5912 3.27783C62.914 3.27783 61.6542 4.2666 61.6542 5.57764V5.58496C61.6542 6.72021 62.3207 7.36475 63.8002 7.71631L65.0234 8.00928C65.9975 8.24365 66.4003 8.61719 66.4003 9.15186V9.1665C66.4003 9.88428 65.6459 10.3896 64.5839 10.3896C63.5732 10.3896 62.9433 9.95752 62.7309 9.29834H61.4272C61.5737 10.6021 62.7822 11.4517 64.54 11.4517ZM69.4416 13.9492H70.716V10.0674H70.8332C71.2653 10.9097 72.2101 11.4517 73.2941 11.4517C75.3009 11.4517 76.6046 9.84766 76.6046 7.37207V7.35742C76.6046 4.89648 75.2936 3.27783 73.2941 3.27783C72.1955 3.27783 71.3166 3.79785 70.8332 4.67676H70.716V3.41699H69.4416V13.9492ZM73.0011 10.3237C71.5656 10.3237 70.6867 9.1958 70.6867 7.37207V7.35742C70.6867 5.53369 71.5656 4.40576 73.0011 4.40576C74.444 4.40576 75.3009 5.51904 75.3009 7.35742V7.37207C75.3009 9.21045 74.444 10.3237 73.0011 10.3237ZM79.0307 1.89355C79.5141 1.89355 79.9096 1.49805 79.9096 1.01465C79.9096 0.53125 79.5141 0.135742 79.0307 0.135742C78.5473 0.135742 78.1518 0.53125 78.1518 1.01465C78.1518 1.49805 78.5473 1.89355 79.0307 1.89355ZM78.3861 11.3125H79.6605V3.41699H78.3861V11.3125ZM81.8229 11.3125H83.0973V6.41992C83.0973 5.2627 83.9616 4.49365 85.1774 4.49365C85.4557 4.49365 85.6974 4.52295 85.9611 4.56689V3.3291C85.8366 3.30713 85.5656 3.27783 85.3239 3.27783C84.2545 3.27783 83.5148 3.76123 83.2145 4.58887H83.0973V3.41699H81.8229V11.3125ZM90.2987 11.4517C92.1591 11.4517 93.287 10.397 93.558 9.32764L93.5726 9.26904H92.2982L92.2689 9.33496C92.0565 9.81104 91.3973 10.3164 90.328 10.3164C88.9218 10.3164 88.0209 9.36426 87.9843 7.73096H93.6679V7.23291C93.6679 4.87451 92.3641 3.27783 90.2181 3.27783C88.0722 3.27783 86.6805 4.94775 86.6805 7.38672V7.39404C86.6805 9.86963 88.0429 11.4517 90.2987 11.4517ZM90.2108 4.41309C91.3754 4.41309 92.2396 5.15283 92.3715 6.71289H88.0062C88.1454 5.21143 89.0389 4.41309 90.2108 4.41309ZM98.3204 11.4517C99.4191 11.4517 100.298 10.9316 100.781 10.0527H100.899V11.3125H102.173V0.282227H100.899V4.66211H100.781C100.349 3.81982 99.4044 3.27783 98.3204 3.27783C96.3136 3.27783 95.0099 4.88184 95.0099 7.35742V7.37207C95.0099 9.83301 96.3209 11.4517 98.3204 11.4517ZM98.6134 10.3237C97.1705 10.3237 96.3136 9.21045 96.3136 7.37207V7.35742C96.3136 5.51904 97.1705 4.40576 98.6134 4.40576C100.049 4.40576 100.928 5.53369 100.928 7.35742V7.37207C100.928 9.1958 100.049 10.3237 98.6134 10.3237ZM111.068 11.4517C112.862 11.4517 114.232 10.4775 114.232 9.07129V9.05664C114.232 7.92871 113.514 7.28418 112.027 6.92529L110.812 6.63232C109.881 6.40527 109.486 6.06836 109.486 5.53369V5.51904C109.486 4.82324 110.174 4.33984 111.112 4.33984C112.064 4.33984 112.679 4.77197 112.848 5.39453H114.1C113.924 4.10547 112.775 3.27783 111.119 3.27783C109.442 3.27783 108.182 4.2666 108.182 5.57764V5.58496C108.182 6.72021 108.849 7.36475 110.328 7.71631L111.551 8.00928C112.525 8.24365 112.928 8.61719 112.928 9.15186V9.1665C112.928 9.88428 112.174 10.3896 111.112 10.3896C110.101 10.3896 109.471 9.95752 109.259 9.29834H107.955C108.102 10.6021 109.31 11.4517 111.068 11.4517ZM115.97 13.9492H117.244V10.0674H117.361C117.793 10.9097 118.738 11.4517 119.822 11.4517C121.829 11.4517 123.133 9.84766 123.133 7.37207V7.35742C123.133 4.89648 121.822 3.27783 119.822 3.27783C118.723 3.27783 117.845 3.79785 117.361 4.67676H117.244V3.41699H115.97V13.9492ZM119.529 10.3237C118.094 10.3237 117.215 9.1958 117.215 7.37207V7.35742C117.215 5.53369 118.094 4.40576 119.529 4.40576C120.972 4.40576 121.829 5.51904 121.829 7.35742V7.37207C121.829 9.21045 120.972 10.3237 119.529 10.3237ZM127.053 11.4517C128.115 11.4517 128.942 10.9902 129.441 10.1479H129.558V11.3125H130.832V5.90723C130.832 4.2666 129.755 3.27783 127.829 3.27783C126.145 3.27783 124.943 4.11279 124.738 5.35059L124.731 5.39453H126.005L126.013 5.37256C126.218 4.75732 126.84 4.40576 127.785 4.40576C128.964 4.40576 129.558 4.93311 129.558 5.90723V6.625L127.295 6.76416C125.456 6.87402 124.416 7.68701 124.416 9.09326V9.10791C124.416 10.5435 125.551 11.4517 127.053 11.4517ZM125.72 9.07861V9.06396C125.72 8.28027 126.247 7.85547 127.448 7.78223L129.558 7.65039V8.36816C129.558 9.49609 128.613 10.3457 127.316 10.3457C126.401 10.3457 125.72 9.87695 125.72 9.07861ZM136.151 11.4517C138.048 11.4517 139.11 10.4336 139.432 9.00537L139.447 8.9248L138.187 8.93213L138.173 8.97607C137.88 9.85498 137.206 10.3237 136.144 10.3237C134.738 10.3237 133.829 9.15918 133.829 7.34277V7.32812C133.829 5.54834 134.723 4.40576 136.144 4.40576C137.279 4.40576 137.982 5.03564 138.18 5.81201L138.187 5.83398H139.454L139.447 5.79004C139.213 4.38379 138.063 3.27783 136.144 3.27783C133.932 3.27783 132.526 4.87451 132.526 7.32812V7.34277C132.526 9.84766 133.939 11.4517 136.151 11.4517ZM144.297 11.4517C146.158 11.4517 147.286 10.397 147.557 9.32764L147.571 9.26904H146.297L146.268 9.33496C146.055 9.81104 145.396 10.3164 144.327 10.3164C142.92 10.3164 142.02 9.36426 141.983 7.73096H147.667V7.23291C147.667 4.87451 146.363 3.27783 144.217 3.27783C142.071 3.27783 140.679 4.94775 140.679 7.38672V7.39404C140.679 9.86963 142.042 11.4517 144.297 11.4517ZM144.21 4.41309C145.374 4.41309 146.238 5.15283 146.37 6.71289H142.005C142.144 5.21143 143.038 4.41309 144.21 4.41309ZM152.114 11.4517C153.908 11.4517 155.278 10.4775 155.278 9.07129V9.05664C155.278 7.92871 154.56 7.28418 153.074 6.92529L151.858 6.63232C150.928 6.40527 150.532 6.06836 150.532 5.53369V5.51904C150.532 4.82324 151.221 4.33984 152.158 4.33984C153.11 4.33984 153.725 4.77197 153.894 5.39453H155.146C154.971 4.10547 153.821 3.27783 152.165 3.27783C150.488 3.27783 149.228 4.2666 149.228 5.57764V5.58496C149.228 6.72021 149.895 7.36475 151.374 7.71631L152.597 8.00928C153.572 8.24365 153.974 8.61719 153.974 9.15186V9.1665C153.974 9.88428 153.22 10.3896 152.158 10.3896C151.147 10.3896 150.517 9.95752 150.305 9.29834H149.001C149.148 10.6021 150.356 11.4517 152.114 11.4517ZM163.162 11.4517C164.224 11.4517 165.052 10.9902 165.55 10.1479H165.667V11.3125H166.942V5.90723C166.942 4.2666 165.865 3.27783 163.939 3.27783C162.254 3.27783 161.053 4.11279 160.848 5.35059L160.841 5.39453H162.115L162.122 5.37256C162.327 4.75732 162.95 4.40576 163.895 4.40576C165.074 4.40576 165.667 4.93311 165.667 5.90723V6.625L163.404 6.76416C161.566 6.87402 160.526 7.68701 160.526 9.09326V9.10791C160.526 10.5435 161.661 11.4517 163.162 11.4517ZM161.829 9.07861V9.06396C161.829 8.28027 162.357 7.85547 163.558 7.78223L165.667 7.65039V8.36816C165.667 9.49609 164.722 10.3457 163.426 10.3457C162.511 10.3457 161.829 9.87695 161.829 9.07861ZM169.031 11.3125H170.305V6.63965C170.305 5.25537 171.104 4.40576 172.363 4.40576C173.623 4.40576 174.209 5.08691 174.209 6.50781V11.3125H175.483V6.2002C175.483 4.3252 174.495 3.27783 172.722 3.27783C171.558 3.27783 170.818 3.76855 170.422 4.60352H170.305V3.41699H169.031V11.3125ZM180.466 11.4517C181.564 11.4517 182.443 10.9316 182.927 10.0527H183.044V11.3125H184.318V0.282227H183.044V4.66211H182.927C182.494 3.81982 181.55 3.27783 180.466 3.27783C178.459 3.27783 177.155 4.88184 177.155 7.35742V7.37207C177.155 9.83301 178.466 11.4517 180.466 11.4517ZM180.759 10.3237C179.316 10.3237 178.459 9.21045 178.459 7.37207V7.35742C178.459 5.51904 179.316 4.40576 180.759 4.40576C182.194 4.40576 183.073 5.53369 183.073 7.35742V7.37207C183.073 9.1958 182.194 10.3237 180.759 10.3237ZM192.737 11.3125H194.026L196.948 3.41699H195.601L193.44 9.9209H193.323L191.162 3.41699H189.815L192.737 11.3125ZM199.067 1.89355C199.55 1.89355 199.946 1.49805 199.946 1.01465C199.946 0.53125 199.55 0.135742 199.067 0.135742C198.583 0.135742 198.188 0.53125 198.188 1.01465C198.188 1.49805 198.583 1.89355 199.067 1.89355ZM198.422 11.3125H199.697V3.41699H198.422V11.3125ZM205.785 11.4517C207.784 11.4517 209.095 9.83301 209.095 7.37207V7.35742C209.095 4.88184 207.792 3.27783 205.785 3.27783C204.701 3.27783 203.756 3.81982 203.324 4.66211H203.207V0.282227H201.932V11.3125H203.207V10.0527H203.324C203.807 10.9316 204.686 11.4517 205.785 11.4517ZM205.492 10.3237C204.056 10.3237 203.177 9.1958 203.177 7.37207V7.35742C203.177 5.53369 204.056 4.40576 205.492 4.40576C206.935 4.40576 207.792 5.51904 207.792 7.35742V7.37207C207.792 9.21045 206.935 10.3237 205.492 10.3237ZM210.833 11.3125H212.107V6.41992C212.107 5.2627 212.972 4.49365 214.187 4.49365C214.466 4.49365 214.707 4.52295 214.971 4.56689V3.3291C214.847 3.30713 214.576 3.27783 214.334 3.27783C213.265 3.27783 212.525 3.76123 212.225 4.58887H212.107V3.41699H210.833V11.3125ZM218.474 11.4517C219.536 11.4517 220.363 10.9902 220.862 10.1479H220.979V11.3125H222.253V5.90723C222.253 4.2666 221.176 3.27783 219.25 3.27783C217.566 3.27783 216.364 4.11279 216.159 5.35059L216.152 5.39453H217.426L217.434 5.37256C217.639 4.75732 218.261 4.40576 219.206 4.40576C220.385 4.40576 220.979 4.93311 220.979 5.90723V6.625L218.716 6.76416C216.877 6.87402 215.837 7.68701 215.837 9.09326V9.10791C215.837 10.5435 216.972 11.4517 218.474 11.4517ZM217.141 9.07861V9.06396C217.141 8.28027 217.668 7.85547 218.869 7.78223L220.979 7.65039V8.36816C220.979 9.49609 220.034 10.3457 218.738 10.3457C217.822 10.3457 217.141 9.87695 217.141 9.07861ZM224.342 11.3125H225.617V6.63965C225.617 5.25537 226.415 4.40576 227.675 4.40576C228.935 4.40576 229.52 5.08691 229.52 6.50781V11.3125H230.795V6.2002C230.795 4.3252 229.806 3.27783 228.034 3.27783C226.869 3.27783 226.129 3.76855 225.734 4.60352H225.617V3.41699H224.342V11.3125ZM235.667 11.3711C235.916 11.3711 236.158 11.3418 236.407 11.2979V10.2139C236.173 10.2358 236.048 10.2432 235.821 10.2432C235.001 10.2432 234.678 9.86963 234.678 8.93945V4.47168H236.407V3.41699H234.678V1.37354H233.36V3.41699H232.115V4.47168H233.36V9.26172C233.36 10.7705 234.041 11.3711 235.667 11.3711ZM244.76 11.4517C246.554 11.4517 247.924 10.4775 247.924 9.07129V9.05664C247.924 7.92871 247.206 7.28418 245.719 6.92529L244.504 6.63232C243.573 6.40527 243.178 6.06836 243.178 5.53369V5.51904C243.178 4.82324 243.866 4.33984 244.804 4.33984C245.756 4.33984 246.371 4.77197 246.54 5.39453H247.792C247.616 4.10547 246.466 3.27783 244.811 3.27783C243.134 3.27783 241.874 4.2666 241.874 5.57764V5.58496C241.874 6.72021 242.541 7.36475 244.02 7.71631L245.243 8.00928C246.217 8.24365 246.62 8.61719 246.62 9.15186V9.1665C246.62 9.88428 245.866 10.3896 244.804 10.3896C243.793 10.3896 243.163 9.95752 242.951 9.29834H241.647C241.794 10.6021 243.002 11.4517 244.76 11.4517ZM252.906 11.4517C255.155 11.4517 256.546 9.89893 256.546 7.37207V7.35742C256.546 4.82324 255.155 3.27783 252.906 3.27783C250.658 3.27783 249.266 4.82324 249.266 7.35742V7.37207C249.266 9.89893 250.658 11.4517 252.906 11.4517ZM252.906 10.3237C251.412 10.3237 250.57 9.23242 250.57 7.37207V7.35742C250.57 5.48975 251.412 4.40576 252.906 4.40576C254.4 4.40576 255.243 5.48975 255.243 7.35742V7.37207C255.243 9.23242 254.4 10.3237 252.906 10.3237ZM261.514 11.4517C263.411 11.4517 264.473 10.4336 264.795 9.00537L264.81 8.9248L263.55 8.93213L263.535 8.97607C263.242 9.85498 262.568 10.3237 261.506 10.3237C260.1 10.3237 259.192 9.15918 259.192 7.34277V7.32812C259.192 5.54834 260.086 4.40576 261.506 4.40576C262.642 4.40576 263.345 5.03564 263.543 5.81201L263.55 5.83398H264.817L264.81 5.79004C264.575 4.38379 263.425 3.27783 261.506 3.27783C259.295 3.27783 257.888 4.87451 257.888 7.32812V7.34277C257.888 9.84766 259.302 11.4517 261.514 11.4517ZM267.111 1.89355C267.595 1.89355 267.99 1.49805 267.99 1.01465C267.99 0.53125 267.595 0.135742 267.111 0.135742C266.628 0.135742 266.232 0.53125 266.232 1.01465C266.232 1.49805 266.628 1.89355 267.111 1.89355ZM266.467 11.3125H267.741V3.41699H266.467V11.3125ZM272.071 11.4517C273.133 11.4517 273.961 10.9902 274.459 10.1479H274.576V11.3125H275.851V5.90723C275.851 4.2666 274.774 3.27783 272.848 3.27783C271.163 3.27783 269.962 4.11279 269.757 5.35059L269.75 5.39453H271.024L271.031 5.37256C271.236 4.75732 271.859 4.40576 272.804 4.40576C273.983 4.40576 274.576 4.93311 274.576 5.90723V6.625L272.313 6.76416C270.475 6.87402 269.435 7.68701 269.435 9.09326V9.10791C269.435 10.5435 270.57 11.4517 272.071 11.4517ZM270.738 9.07861V9.06396C270.738 8.28027 271.266 7.85547 272.467 7.78223L274.576 7.65039V8.36816C274.576 9.49609 273.631 10.3457 272.335 10.3457C271.42 10.3457 270.738 9.87695 270.738 9.07861ZM278.013 11.3125H279.287V0.282227H278.013V11.3125ZM288.182 11.4517C289.977 11.4517 291.347 10.4775 291.347 9.07129V9.05664C291.347 7.92871 290.629 7.28418 289.142 6.92529L287.926 6.63232C286.996 6.40527 286.6 6.06836 286.6 5.53369V5.51904C286.6 4.82324 287.289 4.33984 288.226 4.33984C289.179 4.33984 289.794 4.77197 289.962 5.39453H291.215C291.039 4.10547 289.889 3.27783 288.234 3.27783C286.556 3.27783 285.297 4.2666 285.297 5.57764V5.58496C285.297 6.72021 285.963 7.36475 287.443 7.71631L288.666 8.00928C289.64 8.24365 290.043 8.61719 290.043 9.15186V9.1665C290.043 9.88428 289.288 10.3896 288.226 10.3896C287.216 10.3896 286.586 9.95752 286.373 9.29834H285.07C285.216 10.6021 286.425 11.4517 288.182 11.4517ZM296.314 11.4517C298.211 11.4517 299.273 10.4336 299.595 9.00537L299.61 8.9248L298.35 8.93213L298.336 8.97607C298.043 9.85498 297.369 10.3237 296.307 10.3237C294.9 10.3237 293.992 9.15918 293.992 7.34277V7.32812C293.992 5.54834 294.886 4.40576 296.307 4.40576C297.442 4.40576 298.145 5.03564 298.343 5.81201L298.35 5.83398H299.617L299.61 5.79004C299.376 4.38379 298.226 3.27783 296.307 3.27783C294.095 3.27783 292.689 4.87451 292.689 7.32812V7.34277C292.689 9.84766 294.102 11.4517 296.314 11.4517ZM304.46 11.4517C306.321 11.4517 307.449 10.397 307.72 9.32764L307.734 9.26904H306.46L306.43 9.33496C306.218 9.81104 305.559 10.3164 304.49 10.3164C303.083 10.3164 302.182 9.36426 302.146 7.73096H307.829V7.23291C307.829 4.87451 306.526 3.27783 304.38 3.27783C302.234 3.27783 300.842 4.94775 300.842 7.38672V7.39404C300.842 9.86963 302.204 11.4517 304.46 11.4517ZM304.372 4.41309C305.537 4.41309 306.401 5.15283 306.533 6.71289H302.168C302.307 5.21143 303.201 4.41309 304.372 4.41309ZM309.567 11.3125H310.841V6.63965C310.841 5.25537 311.64 4.40576 312.899 4.40576C314.159 4.40576 314.745 5.08691 314.745 6.50781V11.3125H316.02V6.2002C316.02 4.3252 315.031 3.27783 313.258 3.27783C312.094 3.27783 311.354 3.76855 310.959 4.60352H310.841V3.41699H309.567V11.3125ZM321.309 11.4517C323.17 11.4517 324.298 10.397 324.569 9.32764L324.583 9.26904H323.309L323.28 9.33496C323.067 9.81104 322.408 10.3164 321.339 10.3164C319.932 10.3164 319.032 9.36426 318.995 7.73096H324.679V7.23291C324.679 4.87451 323.375 3.27783 321.229 3.27783C319.083 3.27783 317.691 4.94775 317.691 7.38672V7.39404C317.691 9.86963 319.054 11.4517 321.309 11.4517ZM321.221 4.41309C322.386 4.41309 323.25 5.15283 323.382 6.71289H319.017C319.156 5.21143 320.05 4.41309 321.221 4.41309ZM329.126 11.4517C330.92 11.4517 332.29 10.4775 332.29 9.07129V9.05664C332.29 7.92871 331.572 7.28418 330.085 6.92529L328.87 6.63232C327.939 6.40527 327.544 6.06836 327.544 5.53369V5.51904C327.544 4.82324 328.232 4.33984 329.17 4.33984C330.122 4.33984 330.737 4.77197 330.906 5.39453H332.158C331.982 4.10547 330.833 3.27783 329.177 3.27783C327.5 3.27783 326.24 4.2666 326.24 5.57764V5.58496C326.24 6.72021 326.907 7.36475 328.386 7.71631L329.609 8.00928C330.584 8.24365 330.986 8.61719 330.986 9.15186V9.1665C330.986 9.88428 330.232 10.3896 329.17 10.3896C328.159 10.3896 327.529 9.95752 327.317 9.29834H326.013C326.16 10.6021 327.368 11.4517 329.126 11.4517ZM1.71387 31.3125H2.98828V24.4717H4.78271V23.417H2.98828V22.5747C2.98828 21.7104 3.35449 21.2637 4.2627 21.2637C4.48975 21.2637 4.70215 21.271 4.85596 21.3003V20.2822C4.59229 20.231 4.31396 20.209 4.00635 20.209C2.50488 20.209 1.71387 20.9634 1.71387 22.5381V23.417H0.402832V24.4717H1.71387V31.3125ZM9.28881 31.4517C11.5373 31.4517 12.9289 29.8989 12.9289 27.3721V27.3574C12.9289 24.8232 11.5373 23.2778 9.28881 23.2778C7.04027 23.2778 5.64867 24.8232 5.64867 27.3574V27.3721C5.64867 29.8989 7.04027 31.4517 9.28881 31.4517ZM9.28881 30.3237C7.79467 30.3237 6.95238 29.2324 6.95238 27.3721V27.3574C6.95238 25.4897 7.79467 24.4058 9.28881 24.4058C10.7829 24.4058 11.6252 25.4897 11.6252 27.3574V27.3721C11.6252 29.2324 10.7829 30.3237 9.28881 30.3237ZM14.6665 31.3125H15.9409V26.4199C15.9409 25.2627 16.8052 24.4937 18.021 24.4937C18.2993 24.4937 18.541 24.5229 18.8047 24.5669V23.3291C18.6802 23.3071 18.4092 23.2778 18.1675 23.2778C17.0981 23.2778 16.3584 23.7612 16.0581 24.5889H15.9409V23.417H14.6665V31.3125ZM26.9233 31.3711C27.1723 31.3711 27.414 31.3418 27.663 31.2979V30.2139C27.4287 30.2358 27.3042 30.2432 27.0771 30.2432C26.2568 30.2432 25.9345 29.8696 25.9345 28.9395V24.4717H27.663V23.417H25.9345V21.3735H24.6162V23.417H23.3711V24.4717H24.6162V29.2617C24.6162 30.7705 25.2973 31.3711 26.9233 31.3711ZM29.4006 31.3125H30.675V26.6396C30.675 25.2554 31.4733 24.4058 32.7331 24.4058C33.9929 24.4058 34.5788 25.0869 34.5788 26.5078V31.3125H35.8532V26.2002C35.8532 24.3252 34.8645 23.2778 33.092 23.2778C31.9274 23.2778 31.1877 23.7686 30.7922 24.6035H30.675V20.2822H29.4006V31.3125ZM41.143 31.4517C43.0034 31.4517 44.1313 30.397 44.4023 29.3276L44.4169 29.269H43.1425L43.1132 29.335C42.9008 29.811 42.2416 30.3164 41.1723 30.3164C39.7661 30.3164 38.8652 29.3643 38.8286 27.731H44.5121V27.2329C44.5121 24.8745 43.2084 23.2778 41.0624 23.2778C38.9164 23.2778 37.5248 24.9478 37.5248 27.3867V27.394C37.5248 29.8696 38.8871 31.4517 41.143 31.4517ZM41.0551 24.4131C42.2197 24.4131 43.0839 25.1528 43.2158 26.7129H38.8505C38.9897 25.2114 39.8832 24.4131 41.0551 24.4131ZM50.2284 31.3125H51.5029V26.6396C51.5029 25.2554 52.3012 24.4058 53.561 24.4058C54.8207 24.4058 55.4067 25.0869 55.4067 26.5078V31.3125H56.6811V26.2002C56.6811 24.3252 55.6923 23.2778 53.9198 23.2778C52.7553 23.2778 52.0155 23.7686 51.62 24.6035H51.5029V23.417H50.2284V31.3125ZM61.9709 31.4517C63.8312 31.4517 64.9591 30.397 65.2301 29.3276L65.2448 29.269H63.9704L63.9411 29.335C63.7287 29.811 63.0695 30.3164 62.0002 30.3164C60.5939 30.3164 59.693 29.3643 59.6564 27.731H65.34V27.2329C65.34 24.8745 64.0363 23.2778 61.8903 23.2778C59.7443 23.2778 58.3527 24.9478 58.3527 27.3867V27.394C58.3527 29.8696 59.715 31.4517 61.9709 31.4517ZM61.883 24.4131C63.0475 24.4131 63.9118 25.1528 64.0436 26.7129H59.6784C59.8175 25.2114 60.7111 24.4131 61.883 24.4131ZM66.1547 31.3125H67.5829L69.4579 28.3315H69.5751L71.4428 31.3125H72.9369L70.2196 27.3135L72.9003 23.417H71.4721L69.619 26.354H69.5019L67.6269 23.417H66.1254L68.8573 27.3647L66.1547 31.3125ZM77.216 31.3711C77.465 31.3711 77.7067 31.3418 77.9557 31.2979V30.2139C77.7213 30.2358 77.5968 30.2432 77.3698 30.2432C76.5495 30.2432 76.2272 29.8696 76.2272 28.9395V24.4717H77.9557V23.417H76.2272V21.3735H74.9088V23.417H73.6637V24.4717H74.9088V29.2617C74.9088 30.7705 75.59 31.3711 77.216 31.3711ZM79.2172 27.6504H84.139V26.4639H79.2172V27.6504ZM89.4142 34.0957C91.5675 34.0957 92.9298 32.9678 92.9298 31.2026V23.417H91.6554V24.7207H91.5675C91.0841 23.8271 90.2198 23.2778 89.1066 23.2778C87.0411 23.2778 85.7667 24.8818 85.7667 27.0938V27.1084C85.7667 29.3203 87.0338 30.9023 89.0773 30.9023C90.1612 30.9023 91.0548 30.4116 91.5528 29.54H91.67V31.1367C91.67 32.3013 90.8278 32.9678 89.4142 32.9678C88.2789 32.9678 87.5758 32.543 87.4366 31.9424L87.4293 31.9351H86.111L86.0963 31.9424C86.2941 33.2388 87.5099 34.0957 89.4142 34.0957ZM89.3556 29.7744C87.8907 29.7744 87.0704 28.6758 87.0704 27.1084V27.0938C87.0704 25.5264 87.8907 24.4058 89.3556 24.4058C90.8131 24.4058 91.6993 25.5264 91.6993 27.0938V27.1084C91.6993 28.6758 90.8204 29.7744 89.3556 29.7744ZM98.2855 31.4517C100.146 31.4517 101.274 30.397 101.545 29.3276L101.559 29.269H100.285L100.256 29.335C100.043 29.811 99.3841 30.3164 98.3148 30.3164C96.9086 30.3164 96.0077 29.3643 95.9711 27.731H101.655V27.2329C101.655 24.8745 100.351 23.2778 98.2049 23.2778C96.0589 23.2778 94.6673 24.9478 94.6673 27.3867V27.394C94.6673 29.8696 96.0296 31.4517 98.2855 31.4517ZM98.1976 24.4131C99.3622 24.4131 100.226 25.1528 100.358 26.7129H95.993C96.1322 25.2114 97.0257 24.4131 98.1976 24.4131ZM103.392 31.3125H104.667V26.6396C104.667 25.2554 105.465 24.4058 106.725 24.4058C107.984 24.4058 108.57 25.0869 108.57 26.5078V31.3125H109.845V26.2002C109.845 24.3252 108.856 23.2778 107.084 23.2778C105.919 23.2778 105.179 23.7686 104.784 24.6035H104.667V23.417H103.392V31.3125ZM118.696 31.3711C118.945 31.3711 119.187 31.3418 119.436 31.2979V30.2139C119.201 30.2358 119.077 30.2432 118.85 30.2432C118.029 30.2432 117.707 29.8696 117.707 28.9395V24.4717H119.436V23.417H117.707V21.3735H116.389V23.417H115.144V24.4717H116.389V29.2617C116.389 30.7705 117.07 31.3711 118.696 31.3711ZM121.1 31.3125H122.374V26.4199C122.374 25.2627 123.239 24.4937 124.454 24.4937C124.733 24.4937 124.974 24.5229 125.238 24.5669V23.3291C125.114 23.3071 124.843 23.2778 124.601 23.2778C123.532 23.2778 122.792 23.7612 122.492 24.5889H122.374V23.417H121.1V31.3125ZM128.741 31.4517C129.803 31.4517 130.63 30.9902 131.128 30.1479H131.246V31.3125H132.52V25.9072C132.52 24.2666 131.443 23.2778 129.517 23.2778C127.833 23.2778 126.631 24.1128 126.426 25.3506L126.419 25.3945H127.693L127.701 25.3726C127.906 24.7573 128.528 24.4058 129.473 24.4058C130.652 24.4058 131.246 24.9331 131.246 25.9072V26.625L128.982 26.7642C127.144 26.874 126.104 27.687 126.104 29.0933V29.1079C126.104 30.5435 127.239 31.4517 128.741 31.4517ZM127.408 29.0786V29.064C127.408 28.2803 127.935 27.8555 129.136 27.7822L131.246 27.6504V28.3682C131.246 29.4961 130.301 30.3457 129.004 30.3457C128.089 30.3457 127.408 29.877 127.408 29.0786ZM136.55 31.3125H137.839L140.762 23.417H139.414L137.253 29.9209H137.136L134.975 23.417H133.628L136.55 31.3125ZM145.136 31.4517C146.996 31.4517 148.124 30.397 148.395 29.3276L148.41 29.269H147.135L147.106 29.335C146.894 29.811 146.234 30.3164 145.165 30.3164C143.759 30.3164 142.858 29.3643 142.821 27.731H148.505V27.2329C148.505 24.8745 147.201 23.2778 145.055 23.2778C142.909 23.2778 141.518 24.9478 141.518 27.3867V27.394C141.518 29.8696 142.88 31.4517 145.136 31.4517ZM145.048 24.4131C146.212 24.4131 147.077 25.1528 147.209 26.7129H142.843C142.982 25.2114 143.876 24.4131 145.048 24.4131ZM150.316 31.3125H151.59V20.2822H150.316V31.3125ZM157.019 31.4517C158.879 31.4517 160.007 30.397 160.278 29.3276L160.293 29.269H159.019L158.989 29.335C158.777 29.811 158.118 30.3164 157.048 30.3164C155.642 30.3164 154.741 29.3643 154.705 27.731H160.388V27.2329C160.388 24.8745 159.084 23.2778 156.938 23.2778C154.792 23.2778 153.401 24.9478 153.401 27.3867V27.394C153.401 29.8696 154.763 31.4517 157.019 31.4517ZM156.931 24.4131C158.096 24.4131 158.96 25.1528 159.092 26.7129H154.727C154.866 25.2114 155.759 24.4131 156.931 24.4131ZM162.126 31.3125H163.4V26.4199C163.4 25.2627 164.264 24.4937 165.48 24.4937C165.759 24.4937 166 24.5229 166.264 24.5669V23.3291C166.139 23.3071 165.868 23.2778 165.627 23.2778C164.557 23.2778 163.818 23.7612 163.517 24.5889H163.4V23.417H162.126V31.3125ZM167.687 31.3857C168.214 31.3857 168.639 30.9536 168.639 30.4336C168.639 29.9062 168.214 29.4814 167.687 29.4814C167.167 29.4814 166.734 29.9062 166.734 30.4336C166.734 30.9536 167.167 31.3857 167.687 31.3857ZM177.189 31.3125H178.435L180.866 22.9702H180.954L183.386 31.3125H184.631L187.509 20.7437H186.132L184.03 29.335H183.942L181.577 20.7437H180.244L177.878 29.335H177.79L175.688 20.7437H174.311L177.189 31.3125ZM189.789 21.8936C190.272 21.8936 190.668 21.498 190.668 21.0146C190.668 20.5312 190.272 20.1357 189.789 20.1357C189.305 20.1357 188.91 20.5312 188.91 21.0146C188.91 21.498 189.305 21.8936 189.789 21.8936ZM189.144 31.3125H190.419V23.417H189.144V31.3125ZM195.386 31.3711C195.635 31.3711 195.877 31.3418 196.126 31.2979V30.2139C195.892 30.2358 195.767 30.2432 195.54 30.2432C194.72 30.2432 194.397 29.8696 194.397 28.9395V24.4717H196.126V23.417H194.397V21.3735H193.079V23.417H191.834V24.4717H193.079V29.2617C193.079 30.7705 193.76 31.3711 195.386 31.3711ZM197.863 31.3125H199.138V26.6396C199.138 25.2554 199.936 24.4058 201.196 24.4058C202.456 24.4058 203.042 25.0869 203.042 26.5078V31.3125H204.316V26.2002C204.316 24.3252 203.327 23.2778 201.555 23.2778C200.39 23.2778 199.651 23.7686 199.255 24.6035H199.138V20.2822H197.863V31.3125ZM213.592 31.4517C215.489 31.4517 216.551 30.4336 216.873 29.0054L216.888 28.9248L215.628 28.9321L215.613 28.9761C215.32 29.855 214.647 30.3237 213.585 30.3237C212.178 30.3237 211.27 29.1592 211.27 27.3428V27.3281C211.27 25.5483 212.164 24.4058 213.585 24.4058C214.72 24.4058 215.423 25.0356 215.621 25.812L215.628 25.834H216.895L216.888 25.79C216.654 24.3838 215.504 23.2778 213.585 23.2778C211.373 23.2778 209.966 24.8745 209.966 27.3281V27.3428C209.966 29.8477 211.38 31.4517 213.592 31.4517ZM221.76 31.4517C224.009 31.4517 225.4 29.8989 225.4 27.3721V27.3574C225.4 24.8232 224.009 23.2778 221.76 23.2778C219.512 23.2778 218.12 24.8232 218.12 27.3574V27.3721C218.12 29.8989 219.512 31.4517 221.76 31.4517ZM221.76 30.3237C220.266 30.3237 219.424 29.2324 219.424 27.3721V27.3574C219.424 25.4897 220.266 24.4058 221.76 24.4058C223.254 24.4058 224.097 25.4897 224.097 27.3574V27.3721C224.097 29.2324 223.254 30.3237 221.76 30.3237ZM226.735 31.3125H232.814V30.2578H228.258V30.1406L232.792 24.3618V23.417H226.742V24.4717H231.291V24.5889L226.735 30.3896V31.3125ZM235.438 34.0811C236.837 34.0811 237.489 33.5684 238.141 31.7959L241.224 23.417H239.884L237.723 29.9136H237.606L235.438 23.417H234.076L236.998 31.3198L236.851 31.7886C236.566 32.6968 236.126 33.0264 235.401 33.0264C235.225 33.0264 235.028 33.019 234.874 32.9897V34.0371C235.05 34.0664 235.269 34.0811 235.438 34.0811ZM246.647 31.3125H247.922V26.4199C247.922 25.2627 248.786 24.4937 250.002 24.4937C250.28 24.4937 250.522 24.5229 250.786 24.5669V23.3291C250.661 23.3071 250.39 23.2778 250.148 23.2778C249.079 23.2778 248.339 23.7612 248.039 24.5889H247.922V23.417H246.647V31.3125ZM255.145 31.4517C257.394 31.4517 258.785 29.8989 258.785 27.3721V27.3574C258.785 24.8232 257.394 23.2778 255.145 23.2778C252.897 23.2778 251.505 24.8232 251.505 27.3574V27.3721C251.505 29.8989 252.897 31.4517 255.145 31.4517ZM255.145 30.3237C253.651 30.3237 252.809 29.2324 252.809 27.3721V27.3574C252.809 25.4897 253.651 24.4058 255.145 24.4058C256.639 24.4058 257.482 25.4897 257.482 27.3574V27.3721C257.482 29.2324 256.639 30.3237 255.145 30.3237ZM263.767 31.4517C266.016 31.4517 267.408 29.8989 267.408 27.3721V27.3574C267.408 24.8232 266.016 23.2778 263.767 23.2778C261.519 23.2778 260.127 24.8232 260.127 27.3574V27.3721C260.127 29.8989 261.519 31.4517 263.767 31.4517ZM263.767 30.3237C262.273 30.3237 261.431 29.2324 261.431 27.3721V27.3574C261.431 25.4897 262.273 24.4058 263.767 24.4058C265.262 24.4058 266.104 25.4897 266.104 27.3574V27.3721C266.104 29.2324 265.262 30.3237 263.767 30.3237ZM269.145 31.3125H270.42V26.4199C270.42 25.3066 271.203 24.4058 272.236 24.4058C273.232 24.4058 273.877 25.0137 273.877 25.9512V31.3125H275.151V26.2368C275.151 25.2334 275.876 24.4058 276.975 24.4058C278.088 24.4058 278.623 24.9844 278.623 26.1489V31.3125H279.897V25.856C279.897 24.2007 278.996 23.2778 277.385 23.2778C276.294 23.2778 275.393 23.8271 274.968 24.6621H274.851C274.484 23.8418 273.737 23.2778 272.668 23.2778C271.635 23.2778 270.888 23.7686 270.537 24.6182H270.42V23.417H269.145V31.3125ZM284.667 31.4517C286.461 31.4517 287.831 30.4775 287.831 29.0713V29.0566C287.831 27.9287 287.113 27.2842 285.626 26.9253L284.41 26.6323C283.48 26.4053 283.085 26.0684 283.085 25.5337V25.519C283.085 24.8232 283.773 24.3398 284.711 24.3398C285.663 24.3398 286.278 24.772 286.447 25.3945H287.699C287.523 24.1055 286.373 23.2778 284.718 23.2778C283.041 23.2778 281.781 24.2666 281.781 25.5776V25.585C281.781 26.7202 282.448 27.3647 283.927 27.7163L285.15 28.0093C286.124 28.2437 286.527 28.6172 286.527 29.1519V29.1665C286.527 29.8843 285.773 30.3896 284.711 30.3896C283.7 30.3896 283.07 29.9575 282.858 29.2983H281.554C281.701 30.6021 282.909 31.4517 284.667 31.4517ZM295.715 31.4517C296.777 31.4517 297.605 30.9902 298.103 30.1479H298.22V31.3125H299.494V25.9072C299.494 24.2666 298.418 23.2778 296.492 23.2778C294.807 23.2778 293.606 24.1128 293.401 25.3506L293.393 25.3945H294.668L294.675 25.3726C294.88 24.7573 295.503 24.4058 296.448 24.4058C297.627 24.4058 298.22 24.9331 298.22 25.9072V26.625L295.957 26.7642C294.118 26.874 293.078 27.687 293.078 29.0933V29.1079C293.078 30.5435 294.214 31.4517 295.715 31.4517ZM294.382 29.0786V29.064C294.382 28.2803 294.909 27.8555 296.111 27.7822L298.22 27.6504V28.3682C298.22 29.4961 297.275 30.3457 295.979 30.3457C295.063 30.3457 294.382 29.877 294.382 29.0786ZM301.584 31.3125H302.858V26.6396C302.858 25.2554 303.656 24.4058 304.916 24.4058C306.176 24.4058 306.762 25.0869 306.762 26.5078V31.3125H308.036V26.2002C308.036 24.3252 307.047 23.2778 305.275 23.2778C304.11 23.2778 303.371 23.7686 302.975 24.6035H302.858V23.417H301.584V31.3125ZM313.018 31.4517C314.117 31.4517 314.996 30.9316 315.479 30.0527H315.596V31.3125H316.871V20.2822H315.596V24.6621H315.479C315.047 23.8198 314.102 23.2778 313.018 23.2778C311.012 23.2778 309.708 24.8818 309.708 27.3574V27.3721C309.708 29.833 311.019 31.4517 313.018 31.4517ZM313.311 30.3237C311.868 30.3237 311.012 29.2104 311.012 27.3721V27.3574C311.012 25.519 311.868 24.4058 313.311 24.4058C314.747 24.4058 315.626 25.5337 315.626 27.3574V27.3721C315.626 29.1958 314.747 30.3237 313.311 30.3237ZM3.89648 51.4517C5.69092 51.4517 7.06055 50.4775 7.06055 49.0713V49.0566C7.06055 47.9287 6.34277 47.2842 4.85596 46.9253L3.64014 46.6323C2.70996 46.4053 2.31445 46.0684 2.31445 45.5337V45.519C2.31445 44.8232 3.00293 44.3398 3.94043 44.3398C4.89258 44.3398 5.50781 44.772 5.67627 45.3945H6.92871C6.75293 44.1055 5.60303 43.2778 3.94775 43.2778C2.27051 43.2778 1.01074 44.2666 1.01074 45.5776V45.585C1.01074 46.7202 1.67725 47.3647 3.15674 47.7163L4.37988 48.0093C5.354 48.2437 5.75684 48.6172 5.75684 49.1519V49.1665C5.75684 49.8843 5.00244 50.3896 3.94043 50.3896C2.92969 50.3896 2.2998 49.9575 2.0874 49.2983H0.783691C0.930176 50.6021 2.13867 51.4517 3.89648 51.4517ZM12.0427 51.4517C14.2913 51.4517 15.6829 49.8989 15.6829 47.3721V47.3574C15.6829 44.8232 14.2913 43.2778 12.0427 43.2778C9.79418 43.2778 8.40258 44.8232 8.40258 47.3574V47.3721C8.40258 49.8989 9.79418 51.4517 12.0427 51.4517ZM12.0427 50.3237C10.5486 50.3237 9.70629 49.2324 9.70629 47.3721V47.3574C9.70629 45.4897 10.5486 44.4058 12.0427 44.4058C13.5369 44.4058 14.3791 45.4897 14.3791 47.3574V47.3721C14.3791 49.2324 13.5369 50.3237 12.0427 50.3237ZM20.6504 51.4517C22.5473 51.4517 23.6094 50.4336 23.9316 49.0054L23.9463 48.9248L22.6865 48.9321L22.6719 48.9761C22.3789 49.855 21.7051 50.3237 20.643 50.3237C19.2368 50.3237 18.3286 49.1592 18.3286 47.3428V47.3281C18.3286 45.5483 19.2221 44.4058 20.643 44.4058C21.7783 44.4058 22.4814 45.0356 22.6792 45.812L22.6865 45.834H23.9536L23.9463 45.79C23.7119 44.3838 22.562 43.2778 20.643 43.2778C18.4311 43.2778 17.0249 44.8745 17.0249 47.3281V47.3428C17.0249 49.8477 18.4385 51.4517 20.6504 51.4517ZM26.2478 41.8936C26.7312 41.8936 27.1267 41.498 27.1267 41.0146C27.1267 40.5312 26.7312 40.1357 26.2478 40.1357C25.7644 40.1357 25.3689 40.5312 25.3689 41.0146C25.3689 41.498 25.7644 41.8936 26.2478 41.8936ZM25.6032 51.3125H26.8777V43.417H25.6032V51.3125ZM31.208 51.4517C32.27 51.4517 33.0976 50.9902 33.5957 50.1479H33.7129V51.3125H34.9873V45.9072C34.9873 44.2666 33.9106 43.2778 31.9843 43.2778C30.2998 43.2778 29.0986 44.1128 28.8935 45.3506L28.8862 45.3945H30.1606L30.1679 45.3726C30.373 44.7573 30.9956 44.4058 31.9404 44.4058C33.1196 44.4058 33.7129 44.9331 33.7129 45.9072V46.625L31.4497 46.7642C29.6113 46.874 28.5713 47.687 28.5713 49.0933V49.1079C28.5713 50.5435 29.7065 51.4517 31.208 51.4517ZM29.875 49.0786V49.064C29.875 48.2803 30.4023 47.8555 31.6035 47.7822L33.7129 47.6504V48.3682C33.7129 49.4961 32.768 50.3457 31.4716 50.3457C30.5561 50.3457 29.875 49.877 29.875 49.0786ZM37.1496 51.3125H38.424V40.2822H37.1496V51.3125ZM47.319 51.4517C49.1135 51.4517 50.4831 50.4775 50.4831 49.0713V49.0566C50.4831 47.9287 49.7653 47.2842 48.2785 46.9253L47.0627 46.6323C46.1325 46.4053 45.737 46.0684 45.737 45.5337V45.519C45.737 44.8232 46.4255 44.3398 47.363 44.3398C48.3151 44.3398 48.9304 44.772 49.0988 45.3945H50.3512C50.1755 44.1055 49.0256 43.2778 47.3703 43.2778C45.693 43.2778 44.4333 44.2666 44.4333 45.5776V45.585C44.4333 46.7202 45.0998 47.3647 46.5793 47.7163L47.8024 48.0093C48.7765 48.2437 49.1794 48.6172 49.1794 49.1519V49.1665C49.1794 49.8843 48.425 50.3896 47.363 50.3896C46.3522 50.3896 45.7223 49.9575 45.5099 49.2983H44.2062C44.3527 50.6021 45.5612 51.4517 47.319 51.4517ZM52.2206 53.9492H53.495V50.0674H53.6122C54.0444 50.9097 54.9892 51.4517 56.0732 51.4517C58.08 51.4517 59.3837 49.8477 59.3837 47.3721V47.3574C59.3837 44.8965 58.0727 43.2778 56.0732 43.2778C54.9745 43.2778 54.0956 43.7979 53.6122 44.6768H53.495V43.417H52.2206V53.9492ZM55.7802 50.3237C54.3447 50.3237 53.4657 49.1958 53.4657 47.3721V47.3574C53.4657 45.5337 54.3447 44.4058 55.7802 44.4058C57.2231 44.4058 58.08 45.519 58.08 47.3574V47.3721C58.08 49.2104 57.2231 50.3237 55.7802 50.3237ZM63.3039 51.4517C64.3659 51.4517 65.1935 50.9902 65.6916 50.1479H65.8088V51.3125H67.0832V45.9072C67.0832 44.2666 66.0065 43.2778 64.0802 43.2778C62.3957 43.2778 61.1945 44.1128 60.9894 45.3506L60.9821 45.3945H62.2565L62.2638 45.3726C62.4689 44.7573 63.0915 44.4058 64.0363 44.4058C65.2155 44.4058 65.8088 44.9331 65.8088 45.9072V46.625L63.5456 46.7642C61.7072 46.874 60.6671 47.687 60.6671 49.0933V49.1079C60.6671 50.5435 61.8024 51.4517 63.3039 51.4517ZM61.9709 49.0786V49.064C61.9709 48.2803 62.4982 47.8555 63.6994 47.7822L65.8088 47.6504V48.3682C65.8088 49.4961 64.8639 50.3457 63.5675 50.3457C62.652 50.3457 61.9709 49.877 61.9709 49.0786ZM72.4022 51.4517C74.2992 51.4517 75.3612 50.4336 75.6835 49.0054L75.6981 48.9248L74.4384 48.9321L74.4237 48.9761C74.1308 49.855 73.4569 50.3237 72.3949 50.3237C70.9887 50.3237 70.0805 49.1592 70.0805 47.3428V47.3281C70.0805 45.5483 70.974 44.4058 72.3949 44.4058C73.5302 44.4058 74.2333 45.0356 74.4311 45.812L74.4384 45.834H75.7055L75.6981 45.79C75.4638 44.3838 74.3139 43.2778 72.3949 43.2778C70.183 43.2778 68.7768 44.8745 68.7768 47.3281V47.3428C68.7768 49.8477 70.1903 51.4517 72.4022 51.4517ZM80.5485 51.4517C82.4088 51.4517 83.5368 50.397 83.8078 49.3276L83.8224 49.269H82.548L82.5187 49.335C82.3063 49.811 81.6471 50.3164 80.5778 50.3164C79.1715 50.3164 78.2706 49.3643 78.234 47.731H83.9176V47.2329C83.9176 44.8745 82.6139 43.2778 80.4679 43.2778C78.3219 43.2778 76.9303 44.9478 76.9303 47.3867V47.394C76.9303 49.8696 78.2926 51.4517 80.5485 51.4517ZM80.4606 44.4131C81.6251 44.4131 82.4894 45.1528 82.6212 46.7129H78.256C78.3952 45.2114 79.2887 44.4131 80.4606 44.4131ZM88.3651 51.4517C90.1596 51.4517 91.5292 50.4775 91.5292 49.0713V49.0566C91.5292 47.9287 90.8114 47.2842 89.3246 46.9253L88.1088 46.6323C87.1786 46.4053 86.7831 46.0684 86.7831 45.5337V45.519C86.7831 44.8232 87.4716 44.3398 88.4091 44.3398C89.3612 44.3398 89.9764 44.772 90.1449 45.3945H91.3973C91.2216 44.1055 90.0717 43.2778 88.4164 43.2778C86.7391 43.2778 85.4794 44.2666 85.4794 45.5776V45.585C85.4794 46.7202 86.1459 47.3647 87.6254 47.7163L88.8485 48.0093C89.8226 48.2437 90.2255 48.6172 90.2255 49.1519V49.1665C90.2255 49.8843 89.4711 50.3896 88.4091 50.3896C87.3983 50.3896 86.7684 49.9575 86.556 49.2983H85.2523C85.3988 50.6021 86.6073 51.4517 88.3651 51.4517ZM92.9445 54.0005H93.8893L95.0392 49.833H93.5817L92.9445 54.0005ZM104.264 51.3711C104.513 51.3711 104.754 51.3418 105.004 51.2979V50.2139C104.769 50.2358 104.645 50.2432 104.418 50.2432C103.597 50.2432 103.275 49.8696 103.275 48.9395V44.4717H105.004V43.417H103.275V41.3735H101.957V43.417H100.712V44.4717H101.957V49.2617C101.957 50.7705 102.638 51.3711 104.264 51.3711ZM106.741 51.3125H108.015V46.6396C108.015 45.2554 108.814 44.4058 110.074 44.4058C111.333 44.4058 111.919 45.0869 111.919 46.5078V51.3125H113.194V46.2002C113.194 44.3252 112.205 43.2778 110.432 43.2778C109.268 43.2778 108.528 43.7686 108.133 44.6035H108.015V40.2822H106.741V51.3125ZM115.935 41.8936C116.418 41.8936 116.814 41.498 116.814 41.0146C116.814 40.5312 116.418 40.1357 115.935 40.1357C115.451 40.1357 115.056 40.5312 115.056 41.0146C115.056 41.498 115.451 41.8936 115.935 41.8936ZM115.29 51.3125H116.565V43.417H115.29V51.3125ZM121.437 51.4517C123.231 51.4517 124.601 50.4775 124.601 49.0713V49.0566C124.601 47.9287 123.883 47.2842 122.396 46.9253L121.18 46.6323C120.25 46.4053 119.855 46.0684 119.855 45.5337V45.519C119.855 44.8232 120.543 44.3398 121.481 44.3398C122.433 44.3398 123.048 44.772 123.217 45.3945H124.469C124.293 44.1055 123.143 43.2778 121.488 43.2778C119.811 43.2778 118.551 44.2666 118.551 45.5776V45.585C118.551 46.7202 119.218 47.3647 120.697 47.7163L121.92 48.0093C122.894 48.2437 123.297 48.6172 123.297 49.1519V49.1665C123.297 49.8843 122.543 50.3896 121.481 50.3896C120.47 50.3896 119.84 49.9575 119.628 49.2983H118.324C118.471 50.6021 119.679 51.4517 121.437 51.4517ZM130.39 51.3125H131.665V46.6396C131.665 45.2554 132.463 44.4058 133.723 44.4058C134.983 44.4058 135.569 45.0869 135.569 46.5078V51.3125H136.843V46.2002C136.843 44.3252 135.854 43.2778 134.082 43.2778C132.917 43.2778 132.178 43.7686 131.782 44.6035H131.665V40.2822H130.39V51.3125ZM142.155 51.4517C144.403 51.4517 145.795 49.8989 145.795 47.3721V47.3574C145.795 44.8232 144.403 43.2778 142.155 43.2778C139.906 43.2778 138.515 44.8232 138.515 47.3574V47.3721C138.515 49.8989 139.906 51.4517 142.155 51.4517ZM142.155 50.3237C140.661 50.3237 139.818 49.2324 139.818 47.3721V47.3574C139.818 45.4897 140.661 44.4058 142.155 44.4058C143.649 44.4058 144.491 45.4897 144.491 47.3574V47.3721C144.491 49.2324 143.649 50.3237 142.155 50.3237ZM150.338 51.3711C150.587 51.3711 150.828 51.3418 151.077 51.2979V50.2139C150.843 50.2358 150.719 50.2432 150.491 50.2432C149.671 50.2432 149.349 49.8696 149.349 48.9395V44.4717H151.077V43.417H149.349V41.3735H148.031V43.417H146.785V44.4717H148.031V49.2617C148.031 50.7705 148.712 51.3711 150.338 51.3711ZM155.847 51.4517C157.708 51.4517 158.835 50.397 159.106 49.3276L159.121 49.269H157.847L157.817 49.335C157.605 49.811 156.946 50.3164 155.876 50.3164C154.47 50.3164 153.569 49.3643 153.533 47.731H159.216V47.2329C159.216 44.8745 157.913 43.2778 155.767 43.2778C153.621 43.2778 152.229 44.9478 152.229 47.3867V47.394C152.229 49.8696 153.591 51.4517 155.847 51.4517ZM155.759 44.4131C156.924 44.4131 157.788 45.1528 157.92 46.7129H153.555C153.694 45.2114 154.587 44.4131 155.759 44.4131ZM161.027 51.3125H162.302V40.2822H161.027V51.3125ZM171.731 51.4517C173.98 51.4517 175.371 49.8989 175.371 47.3721V47.3574C175.371 44.8232 173.98 43.2778 171.731 43.2778C169.483 43.2778 168.091 44.8232 168.091 47.3574V47.3721C168.091 49.8989 169.483 51.4517 171.731 51.4517ZM171.731 50.3237C170.237 50.3237 169.395 49.2324 169.395 47.3721V47.3574C169.395 45.4897 170.237 44.4058 171.731 44.4058C173.225 44.4058 174.068 45.4897 174.068 47.3574V47.3721C174.068 49.2324 173.225 50.3237 171.731 50.3237ZM177.636 51.3125H178.911V44.4717H180.705V43.417H178.911V42.5747C178.911 41.7104 179.277 41.2637 180.185 41.2637C180.412 41.2637 180.624 41.271 180.778 41.3003V40.2822C180.515 40.231 180.236 40.209 179.929 40.209C178.427 40.209 177.636 40.9634 177.636 42.5381V43.417H176.325V44.4717H177.636V51.3125ZM182.831 51.3125H184.105V44.4717H185.9V43.417H184.105V42.5747C184.105 41.7104 184.471 41.2637 185.38 41.2637C185.607 41.2637 185.819 41.271 185.973 41.3003V40.2822C185.709 40.231 185.431 40.209 185.123 40.209C183.622 40.209 182.831 40.9634 182.831 42.5381V43.417H181.52V44.4717H182.831V51.3125ZM190.384 51.4517C192.244 51.4517 193.372 50.397 193.643 49.3276L193.658 49.269H192.383L192.354 49.335C192.142 49.811 191.482 50.3164 190.413 50.3164C189.007 50.3164 188.106 49.3643 188.069 47.731H193.753V47.2329C193.753 44.8745 192.449 43.2778 190.303 43.2778C188.157 43.2778 186.766 44.9478 186.766 47.3867V47.394C186.766 49.8696 188.128 51.4517 190.384 51.4517ZM190.296 44.4131C191.46 44.4131 192.325 45.1528 192.456 46.7129H188.091C188.23 45.2114 189.124 44.4131 190.296 44.4131ZM195.49 51.3125H196.765V46.4199C196.765 45.2627 197.629 44.4937 198.845 44.4937C199.123 44.4937 199.365 44.5229 199.629 44.5669V43.3291C199.504 43.3071 199.233 43.2778 198.991 43.2778C197.922 43.2778 197.182 43.7612 196.882 44.5889H196.765V43.417H195.49V51.3125ZM203.527 51.4517C205.321 51.4517 206.691 50.4775 206.691 49.0713V49.0566C206.691 47.9287 205.973 47.2842 204.486 46.9253L203.27 46.6323C202.34 46.4053 201.945 46.0684 201.945 45.5337V45.519C201.945 44.8232 202.633 44.3398 203.571 44.3398C204.523 44.3398 205.138 44.772 205.307 45.3945H206.559C206.383 44.1055 205.233 43.2778 203.578 43.2778C201.901 43.2778 200.641 44.2666 200.641 45.5776V45.585C200.641 46.7202 201.308 47.3647 202.787 47.7163L204.01 48.0093C204.984 48.2437 205.387 48.6172 205.387 49.1519V49.1665C205.387 49.8843 204.633 50.3896 203.571 50.3896C202.56 50.3896 201.93 49.9575 201.718 49.2983H200.414C200.56 50.6021 201.769 51.4517 203.527 51.4517ZM214.575 51.4517C215.637 51.4517 216.465 50.9902 216.963 50.1479H217.08V51.3125H218.354V45.9072C218.354 44.2666 217.278 43.2778 215.351 43.2778C213.667 43.2778 212.466 44.1128 212.261 45.3506L212.253 45.3945H213.528L213.535 45.3726C213.74 44.7573 214.363 44.4058 215.308 44.4058C216.487 44.4058 217.08 44.9331 217.08 45.9072V46.625L214.817 46.7642C212.978 46.874 211.938 47.687 211.938 49.0933V49.1079C211.938 50.5435 213.074 51.4517 214.575 51.4517ZM213.242 49.0786V49.064C213.242 48.2803 213.769 47.8555 214.971 47.7822L217.08 47.6504V48.3682C217.08 49.4961 216.135 50.3457 214.839 50.3457C213.923 50.3457 213.242 49.877 213.242 49.0786ZM224.95 51.3125H226.224V44.4717H228.018V43.417H226.224V42.5747C226.224 41.7104 226.59 41.2637 227.498 41.2637C227.725 41.2637 227.938 41.271 228.092 41.3003V40.2822C227.828 40.231 227.55 40.209 227.242 40.209C225.741 40.209 224.95 40.9634 224.95 42.5381V43.417H223.639V44.4717H224.95V51.3125ZM232.261 51.4517C233.418 51.4517 234.216 50.9756 234.605 50.1333H234.722V51.3125H235.996V43.417H234.722V48.0898C234.722 49.4741 233.982 50.3237 232.59 50.3237C231.331 50.3237 230.818 49.6426 230.818 48.2217V43.417H229.544V48.5293C229.544 50.397 230.466 51.4517 232.261 51.4517ZM238.137 51.3125H239.411V46.6396C239.411 45.2554 240.209 44.4058 241.469 44.4058C242.729 44.4058 243.315 45.0869 243.315 46.5078V51.3125H244.589V46.2002C244.589 44.3252 243.6 43.2778 241.828 43.2778C240.663 43.2778 239.924 43.7686 239.528 44.6035H239.411V43.417H238.137V51.3125ZM253.858 51.4517C255.718 51.4517 256.846 50.397 257.117 49.3276L257.132 49.269H255.857L255.828 49.335C255.616 49.811 254.956 50.3164 253.887 50.3164C252.481 50.3164 251.58 49.3643 251.543 47.731H257.227V47.2329C257.227 44.8745 255.923 43.2778 253.777 43.2778C251.631 43.2778 250.24 44.9478 250.24 47.3867V47.394C250.24 49.8696 251.602 51.4517 253.858 51.4517ZM253.77 44.4131C254.934 44.4131 255.799 45.1528 255.931 46.7129H251.565C251.704 45.2114 252.598 44.4131 253.77 44.4131ZM258.042 51.3125H259.47L261.345 48.3315H261.462L263.33 51.3125H264.824L262.107 47.3135L264.787 43.417H263.359L261.506 46.354H261.389L259.514 43.417H258.012L260.744 47.3647L258.042 51.3125ZM266.298 53.9492H267.572V50.0674H267.689C268.121 50.9097 269.066 51.4517 270.15 51.4517C272.157 51.4517 273.461 49.8477 273.461 47.3721V47.3574C273.461 44.8965 272.15 43.2778 270.15 43.2778C269.052 43.2778 268.173 43.7979 267.689 44.6768H267.572V43.417H266.298V53.9492ZM269.857 50.3237C268.422 50.3237 267.543 49.1958 267.543 47.3721V47.3574C267.543 45.5337 268.422 44.4058 269.857 44.4058C271.3 44.4058 272.157 45.519 272.157 47.3574V47.3721C272.157 49.2104 271.3 50.3237 269.857 50.3237ZM278.436 51.4517C280.296 51.4517 281.424 50.397 281.695 49.3276L281.71 49.269H280.435L280.406 49.335C280.193 49.811 279.534 50.3164 278.465 50.3164C277.059 50.3164 276.158 49.3643 276.121 47.731H281.805V47.2329C281.805 44.8745 280.501 43.2778 278.355 43.2778C276.209 43.2778 274.817 44.9478 274.817 47.3867V47.394C274.817 49.8696 276.18 51.4517 278.436 51.4517ZM278.348 44.4131C279.512 44.4131 280.377 45.1528 280.508 46.7129H276.143C276.282 45.2114 277.176 44.4131 278.348 44.4131ZM283.542 51.3125H284.817V46.4199C284.817 45.2627 285.681 44.4937 286.897 44.4937C287.175 44.4937 287.417 44.5229 287.68 44.5669V43.3291C287.556 43.3071 287.285 43.2778 287.043 43.2778C285.974 43.2778 285.234 43.7612 284.934 44.5889H284.817V43.417H283.542V51.3125ZM289.689 41.8936C290.172 41.8936 290.568 41.498 290.568 41.0146C290.568 40.5312 290.172 40.1357 289.689 40.1357C289.206 40.1357 288.81 40.5312 288.81 41.0146C288.81 41.498 289.206 41.8936 289.689 41.8936ZM289.044 51.3125H290.319V43.417H289.044V51.3125ZM295.704 51.4517C297.564 51.4517 298.692 50.397 298.963 49.3276L298.978 49.269H297.703L297.674 49.335C297.462 49.811 296.803 50.3164 295.733 50.3164C294.327 50.3164 293.426 49.3643 293.389 47.731H299.073V47.2329C299.073 44.8745 297.769 43.2778 295.623 43.2778C293.477 43.2778 292.086 44.9478 292.086 47.3867V47.394C292.086 49.8696 293.448 51.4517 295.704 51.4517ZM295.616 44.4131C296.781 44.4131 297.645 45.1528 297.777 46.7129H293.411C293.551 45.2114 294.444 44.4131 295.616 44.4131ZM300.811 51.3125H302.085V46.6396C302.085 45.2554 302.883 44.4058 304.143 44.4058C305.403 44.4058 305.989 45.0869 305.989 46.5078V51.3125H307.263V46.2002C307.263 44.3252 306.274 43.2778 304.502 43.2778C303.337 43.2778 302.598 43.7686 302.202 44.6035H302.085V43.417H300.811V51.3125ZM312.56 51.4517C314.457 51.4517 315.519 50.4336 315.842 49.0054L315.856 48.9248L314.596 48.9321L314.582 48.9761C314.289 49.855 313.615 50.3237 312.553 50.3237C311.147 50.3237 310.239 49.1592 310.239 47.3428V47.3281C310.239 45.5483 311.132 44.4058 312.553 44.4058C313.688 44.4058 314.391 45.0356 314.589 45.812L314.596 45.834H315.864L315.856 45.79C315.622 44.3838 314.472 43.2778 312.553 43.2778C310.341 43.2778 308.935 44.8745 308.935 47.3281V47.3428C308.935 49.8477 310.348 51.4517 312.56 51.4517ZM320.707 51.4517C322.567 51.4517 323.695 50.397 323.966 49.3276L323.98 49.269H322.706L322.677 49.335C322.464 49.811 321.805 50.3164 320.736 50.3164C319.33 50.3164 318.429 49.3643 318.392 47.731H324.076V47.2329C324.076 44.8745 322.772 43.2778 320.626 43.2778C318.48 43.2778 317.088 44.9478 317.088 47.3867V47.394C317.088 49.8696 318.451 51.4517 320.707 51.4517ZM320.619 44.4131C321.783 44.4131 322.647 45.1528 322.779 46.7129H318.414C318.553 45.2114 319.447 44.4131 320.619 44.4131ZM331.96 51.4517C333.022 51.4517 333.85 50.9902 334.348 50.1479H334.465V51.3125H335.739V45.9072C335.739 44.2666 334.663 43.2778 332.736 43.2778C331.052 43.2778 329.851 44.1128 329.646 45.3506L329.638 45.3945H330.913L330.92 45.3726C331.125 44.7573 331.748 44.4058 332.692 44.4058C333.872 44.4058 334.465 44.9331 334.465 45.9072V46.625L332.202 46.7642C330.363 46.874 329.323 47.687 329.323 49.0933V49.1079C329.323 50.5435 330.458 51.4517 331.96 51.4517ZM330.627 49.0786V49.064C330.627 48.2803 331.154 47.8555 332.355 47.7822L334.465 47.6504V48.3682C334.465 49.4961 333.52 50.3457 332.224 50.3457C331.308 50.3457 330.627 49.877 330.627 49.0786ZM340.634 51.3711C340.883 51.3711 341.124 51.3418 341.373 51.2979V50.2139C341.139 50.2358 341.014 50.2432 340.787 50.2432C339.967 50.2432 339.645 49.8696 339.645 48.9395V44.4717H341.373V43.417H339.645V41.3735H338.326V43.417H337.081V44.4717H338.326V49.2617C338.326 50.7705 339.008 51.3711 340.634 51.3711ZM3.9917 71.3711C4.24072 71.3711 4.48242 71.3418 4.73145 71.2979V70.2139C4.49707 70.2358 4.37256 70.2432 4.14551 70.2432C3.3252 70.2432 3.00293 69.8696 3.00293 68.9395V64.4717H4.73145V63.417H3.00293V61.3735H1.68457V63.417H0.439453V64.4717H1.68457V69.2617C1.68457 70.7705 2.36572 71.3711 3.9917 71.3711ZM6.46898 71.3125H7.7434V66.6396C7.7434 65.2554 8.54174 64.4058 9.8015 64.4058C11.0613 64.4058 11.6472 65.0869 11.6472 66.5078V71.3125H12.9216V66.2002C12.9216 64.3252 11.9329 63.2778 10.1604 63.2778C8.99584 63.2778 8.25609 63.7686 7.86059 64.6035H7.7434V60.2822H6.46898V71.3125ZM18.2114 71.4517C20.0718 71.4517 21.1997 70.397 21.4707 69.3276L21.4853 69.269H20.2109L20.1816 69.335C19.9692 69.811 19.31 70.3164 18.2407 70.3164C16.8345 70.3164 15.9336 69.3643 15.897 67.731H21.5805V67.2329C21.5805 64.8745 20.2768 63.2778 18.1308 63.2778C15.9848 63.2778 14.5932 64.9478 14.5932 67.3867V67.394C14.5932 69.8696 15.9555 71.4517 18.2114 71.4517ZM18.1235 64.4131C19.2881 64.4131 20.1523 65.1528 20.2842 66.7129H15.9189C16.0581 65.2114 16.9516 64.4131 18.1235 64.4131ZM27.2968 71.3125H28.5713V66.4199C28.5713 65.2627 29.4355 64.4937 30.6513 64.4937C30.9296 64.4937 31.1713 64.5229 31.435 64.5669V63.3291C31.3105 63.3071 31.0395 63.2778 30.7978 63.2778C29.7285 63.2778 28.9887 63.7612 28.6884 64.5889H28.5713V63.417H27.2968V71.3125ZM33.4436 61.8936C33.927 61.8936 34.3225 61.498 34.3225 61.0146C34.3225 60.5312 33.927 60.1357 33.4436 60.1357C32.9602 60.1357 32.5646 60.5312 32.5646 61.0146C32.5646 61.498 32.9602 61.8936 33.4436 61.8936ZM32.799 71.3125H34.0734V63.417H32.799V71.3125ZM39.4877 74.0957C41.6411 74.0957 43.0034 72.9678 43.0034 71.2026V63.417H41.7289V64.7207H41.6411C41.1577 63.8271 40.2934 63.2778 39.1801 63.2778C37.1147 63.2778 35.8403 64.8818 35.8403 67.0938V67.1084C35.8403 69.3203 37.1074 70.9023 39.1508 70.9023C40.2348 70.9023 41.1284 70.4116 41.6264 69.54H41.7436V71.1367C41.7436 72.3013 40.9013 72.9678 39.4877 72.9678C38.3525 72.9678 37.6494 72.543 37.5102 71.9424L37.5029 71.9351H36.1845L36.1699 71.9424C36.3676 73.2388 37.5834 74.0957 39.4877 74.0957ZM39.4291 69.7744C37.9643 69.7744 37.144 68.6758 37.144 67.1084V67.0938C37.144 65.5264 37.9643 64.4058 39.4291 64.4058C40.8867 64.4058 41.7729 65.5264 41.7729 67.0938V67.1084C41.7729 68.6758 40.894 69.7744 39.4291 69.7744ZM45.2096 71.3125H46.4841V66.6396C46.4841 65.2554 47.2824 64.4058 48.5422 64.4058C49.8019 64.4058 50.3879 65.0869 50.3879 66.5078V71.3125H51.6623V66.2002C51.6623 64.3252 50.6735 63.2778 48.9011 63.2778C47.7365 63.2778 46.9968 63.7686 46.6012 64.6035H46.4841V60.2822H45.2096V71.3125ZM56.5346 71.3711C56.7836 71.3711 57.0253 71.3418 57.2743 71.2979V70.2139C57.04 70.2358 56.9155 70.2432 56.6884 70.2432C55.8681 70.2432 55.5458 69.8696 55.5458 68.9395V64.4717H57.2743V63.417H55.5458V61.3735H54.2275V63.417H52.9823V64.4717H54.2275V69.2617C54.2275 70.7705 54.9086 71.3711 56.5346 71.3711ZM62.9174 73.9492H64.1918V70.0674H64.309C64.7411 70.9097 65.6859 71.4517 66.7699 71.4517C68.7768 71.4517 70.0805 69.8477 70.0805 67.3721V67.3574C70.0805 64.8965 68.7694 63.2778 66.7699 63.2778C65.6713 63.2778 64.7924 63.7979 64.309 64.6768H64.1918V63.417H62.9174V73.9492ZM66.477 70.3237C65.0414 70.3237 64.1625 69.1958 64.1625 67.3721V67.3574C64.1625 65.5337 65.0414 64.4058 66.477 64.4058C67.9198 64.4058 68.7768 65.519 68.7768 67.3574V67.3721C68.7768 69.2104 67.9198 70.3237 66.477 70.3237ZM71.8327 71.3125H73.1071V66.4199C73.1071 65.2627 73.9713 64.4937 75.1871 64.4937C75.4655 64.4937 75.7072 64.5229 75.9708 64.5669V63.3291C75.8463 63.3071 75.5753 63.2778 75.3336 63.2778C74.2643 63.2778 73.5246 63.7612 73.2243 64.5889H73.1071V63.417H71.8327V71.3125ZM77.9794 61.8936C78.4628 61.8936 78.8583 61.498 78.8583 61.0146C78.8583 60.5312 78.4628 60.1357 77.9794 60.1357C77.496 60.1357 77.1005 60.5312 77.1005 61.0146C77.1005 61.498 77.496 61.8936 77.9794 61.8936ZM77.3348 71.3125H78.6093V63.417H77.3348V71.3125ZM84.0016 71.4517C85.8986 71.4517 86.9606 70.4336 87.2828 69.0054L87.2975 68.9248L86.0377 68.9321L86.0231 68.9761C85.7301 69.855 85.0563 70.3237 83.9943 70.3237C82.588 70.3237 81.6798 69.1592 81.6798 67.3428V67.3281C81.6798 65.5483 82.5734 64.4058 83.9943 64.4058C85.1295 64.4058 85.8326 65.0356 86.0304 65.812L86.0377 65.834H87.3048L87.2975 65.79C87.0631 64.3838 85.9132 63.2778 83.9943 63.2778C81.7823 63.2778 80.3761 64.8745 80.3761 67.3281V67.3428C80.3761 69.8477 81.7897 71.4517 84.0016 71.4517ZM92.1478 71.4517C94.0082 71.4517 95.1361 70.397 95.4071 69.3276L95.4217 69.269H94.1473L94.118 69.335C93.9056 69.811 93.2464 70.3164 92.1771 70.3164C90.7709 70.3164 89.87 69.3643 89.8334 67.731H95.517V67.2329C95.517 64.8745 94.2132 63.2778 92.0672 63.2778C89.9212 63.2778 88.5296 64.9478 88.5296 67.3867V67.394C88.5296 69.8696 89.892 71.4517 92.1478 71.4517ZM92.0599 64.4131C93.2245 64.4131 94.0887 65.1528 94.2206 66.7129H89.8553C89.9945 65.2114 90.888 64.4131 92.0599 64.4131ZM98.2945 71.3857C98.8219 71.3857 99.2467 70.9536 99.2467 70.4336C99.2467 69.9062 98.8219 69.4814 98.2945 69.4814C97.7745 69.4814 97.3424 69.9062 97.3424 70.4336C97.3424 70.9536 97.7745 71.3857 98.2945 71.3857Z" fill="url(#paint0_linear_3_579)"/>
<defs>
<linearGradient id="paint0_linear_3_579" x1="167.352" y1="-38.8675" x2="134.977" y2="104.741" gradientUnits="userSpaceOnUse">
<stop stop-color="#CDDDF4"/>
<stop offset="1" stop-color="#CDBAFA"/>
</linearGradient>
</defs>
</svg>
