<svg width="112" height="11" viewBox="0 0 112 11" fill="none" xmlns="http://www.w3.org/2000/svg">
<path d="M3.12336 9.90625H4.20246L6.30988 2.67627H6.38605L8.49348 9.90625H9.57258L12.0672 0.746582H10.8738L9.05207 8.19238H8.9759L6.92561 0.746582H5.77033L3.72004 8.19238H3.64387L1.82209 0.746582H0.628731L3.12336 9.90625ZM15.745 10.0269C17.3573 10.0269 18.3349 9.11279 18.5697 8.18604L18.5824 8.13525H17.4779L17.4525 8.19238C17.2685 8.60498 16.6972 9.04297 15.7704 9.04297C14.5517 9.04297 13.7709 8.21777 13.7392 6.80225H18.6649V6.37061C18.6649 4.32666 17.5351 2.94287 15.6752 2.94287C13.8153 2.94287 12.6093 4.39014 12.6093 6.50391V6.51025C12.6093 8.65576 13.7899 10.0269 15.745 10.0269ZM15.6688 3.92676C16.6781 3.92676 17.4271 4.56787 17.5414 5.91992H13.7582C13.8788 4.61865 14.6532 3.92676 15.6688 3.92676ZM26.2237 10.0269C27.7789 10.0269 28.9659 9.18262 28.9659 7.96387V7.95117C28.9659 6.97363 28.3438 6.41504 27.0552 6.104L26.0015 5.8501C25.1954 5.65332 24.8526 5.36133 24.8526 4.89795V4.88525C24.8526 4.28223 25.4493 3.86328 26.2618 3.86328C27.087 3.86328 27.6202 4.23779 27.7662 4.77734H28.8516C28.6993 3.66016 27.7027 2.94287 26.2681 2.94287C24.8145 2.94287 23.7227 3.7998 23.7227 4.93604V4.94238C23.7227 5.92627 24.3004 6.48486 25.5826 6.78955L26.6426 7.04346C27.4869 7.24658 27.836 7.57031 27.836 8.03369V8.04639C27.836 8.66846 27.1822 9.10645 26.2618 9.10645C25.3858 9.10645 24.8399 8.73193 24.6558 8.16064H23.5259C23.6529 9.29053 24.7003 10.0269 26.2237 10.0269ZM33.3927 10.0269C35.005 10.0269 35.9826 9.11279 36.2174 8.18604L36.2301 8.13525H35.1256L35.1002 8.19238C34.9162 8.60498 34.3449 9.04297 33.4181 9.04297C32.1994 9.04297 31.4186 8.21777 31.3869 6.80225H36.3126V6.37061C36.3126 4.32666 35.1828 2.94287 33.3229 2.94287C31.463 2.94287 30.257 4.39014 30.257 6.50391V6.51025C30.257 8.65576 31.4376 10.0269 33.3927 10.0269ZM33.3165 3.92676C34.3258 3.92676 35.0748 4.56787 35.1891 5.91992H31.4059C31.5265 4.61865 32.3009 3.92676 33.3165 3.92676ZM37.9465 9.90625H39.051V5.85645C39.051 4.65674 39.7429 3.92041 40.8347 3.92041C41.9265 3.92041 42.4343 4.51074 42.4343 5.74219V9.90625H43.5388V5.47559C43.5388 3.85059 42.6819 2.94287 41.1457 2.94287C40.1364 2.94287 39.4953 3.36816 39.1526 4.0918H39.051V3.06348H37.9465V9.90625ZM47.8895 9.95703C48.1053 9.95703 48.3147 9.93164 48.5306 9.89355V8.9541C48.3274 8.97314 48.2195 8.97949 48.0228 8.97949C47.3118 8.97949 47.0325 8.65576 47.0325 7.84961V3.97754H48.5306V3.06348H47.0325V1.29248H45.8899V3.06348H44.8108V3.97754H45.8899V8.12891C45.8899 9.43652 46.4803 9.95703 47.8895 9.95703ZM55.5561 10.0269C56.4765 10.0269 57.1938 9.62695 57.6255 8.89697H57.727V9.90625H58.8315V5.22168C58.8315 3.7998 57.8984 2.94287 56.229 2.94287C54.769 2.94287 53.728 3.6665 53.5503 4.73926L53.5439 4.77734H54.6484L54.6547 4.7583C54.8325 4.2251 55.372 3.92041 56.1909 3.92041C57.2129 3.92041 57.727 4.37744 57.727 5.22168V5.84375L55.7656 5.96436C54.1723 6.05957 53.271 6.76416 53.271 7.98291V7.99561C53.271 9.23975 54.2548 10.0269 55.5561 10.0269ZM54.4008 7.97021V7.95752C54.4008 7.27832 54.8579 6.91016 55.8989 6.84668L57.727 6.73242V7.35449C57.727 8.33203 56.9082 9.06836 55.7846 9.06836C54.9912 9.06836 54.4008 8.66211 54.4008 7.97021ZM67.1456 10.0269C68.7897 10.0269 69.7101 9.14453 69.9894 7.90674L70.0021 7.83691L68.9103 7.84326L68.8976 7.88135C68.6437 8.64307 68.0597 9.04932 67.1393 9.04932C65.9205 9.04932 65.1334 8.04004 65.1334 6.46582V6.45312C65.1334 4.91064 65.9078 3.92041 67.1393 3.92041C68.1232 3.92041 68.7325 4.46631 68.9039 5.13916L68.9103 5.1582H70.0084L70.0021 5.12012C69.7989 3.90137 68.8024 2.94287 67.1393 2.94287C65.2223 2.94287 64.0035 4.32666 64.0035 6.45312V6.46582C64.0035 8.63672 65.2286 10.0269 67.1456 10.0269ZM74.3527 10.0269C76.3015 10.0269 77.5075 8.68115 77.5075 6.49121V6.47852C77.5075 4.28223 76.3015 2.94287 74.3527 2.94287C72.404 2.94287 71.198 4.28223 71.198 6.47852V6.49121C71.198 8.68115 72.404 10.0269 74.3527 10.0269ZM74.3527 9.04932C73.0578 9.04932 72.3278 8.10352 72.3278 6.49121V6.47852C72.3278 4.85986 73.0578 3.92041 74.3527 3.92041C75.6477 3.92041 76.3776 4.85986 76.3776 6.47852V6.49121C76.3776 8.10352 75.6477 9.04932 74.3527 9.04932ZM81.6678 10.0269C82.6199 10.0269 83.3816 9.57617 83.8006 8.81445H83.9021V9.90625H85.0066V0.34668H83.9021V4.14258H83.8006C83.4261 3.4126 82.6072 2.94287 81.6678 2.94287C79.9285 2.94287 78.7986 4.33301 78.7986 6.47852V6.49121C78.7986 8.62402 79.9348 10.0269 81.6678 10.0269ZM81.9217 9.04932C80.6712 9.04932 79.9285 8.08447 79.9285 6.49121V6.47852C79.9285 4.88525 80.6712 3.92041 81.9217 3.92041C83.1658 3.92041 83.9275 4.89795 83.9275 6.47852V6.49121C83.9275 8.07178 83.1658 9.04932 81.9217 9.04932ZM89.8397 10.0269C91.452 10.0269 92.4296 9.11279 92.6644 8.18604L92.6771 8.13525H91.5726L91.5472 8.19238C91.3631 8.60498 90.7919 9.04297 89.8651 9.04297C88.6463 9.04297 87.8656 8.21777 87.8338 6.80225H92.7596V6.37061C92.7596 4.32666 91.6297 2.94287 89.7699 2.94287C87.91 2.94287 86.704 4.39014 86.704 6.50391V6.51025C86.704 8.65576 87.8846 10.0269 89.8397 10.0269ZM89.7635 3.92676C90.7728 3.92676 91.5218 4.56787 91.6361 5.91992H87.8529C87.9735 4.61865 88.7479 3.92676 89.7635 3.92676ZM100.401 9.95703C100.617 9.95703 100.826 9.93164 101.042 9.89355V8.9541C100.839 8.97314 100.731 8.97949 100.534 8.97949C99.8233 8.97949 99.544 8.65576 99.544 7.84961V3.97754H101.042V3.06348H99.544V1.29248H98.4014V3.06348H97.3223V3.97754H98.4014V8.12891C98.4014 9.43652 98.9917 9.95703 100.401 9.95703ZM105.323 10.0269C107.272 10.0269 108.478 8.68115 108.478 6.49121V6.47852C108.478 4.28223 107.272 2.94287 105.323 2.94287C103.374 2.94287 102.168 4.28223 102.168 6.47852V6.49121C102.168 8.68115 103.374 10.0269 105.323 10.0269ZM105.323 9.04932C104.028 9.04932 103.298 8.10352 103.298 6.49121V6.47852C103.298 4.85986 104.028 3.92041 105.323 3.92041C106.618 3.92041 107.348 4.85986 107.348 6.47852V6.49121C107.348 8.10352 106.618 9.04932 105.323 9.04932ZM111.013 5.05664C111.47 5.05664 111.838 4.68213 111.838 4.23145C111.838 3.77441 111.47 3.40625 111.013 3.40625C110.562 3.40625 110.188 3.77441 110.188 4.23145C110.188 4.68213 110.562 5.05664 111.013 5.05664ZM111.013 9.96973C111.47 9.96973 111.838 9.59521 111.838 9.14453C111.838 8.6875 111.47 8.31934 111.013 8.31934C110.562 8.31934 110.188 8.6875 110.188 9.14453C110.188 9.59521 110.562 9.96973 111.013 9.96973Z" fill="url(#paint0_linear_3_129)"/>
<defs>
<linearGradient id="paint0_linear_3_129" x1="54.6553" y1="-12.2122" x2="49.2453" y2="21.7506" gradientUnits="userSpaceOnUse">
<stop stop-color="#CDDDF4"/>
<stop offset="1" stop-color="#CDBAFA"/>
</linearGradient>
</defs>
</svg>
