<svg width="62" height="14" viewBox="0 0 62 14" fill="none" xmlns="http://www.w3.org/2000/svg">
<path d="M4.00928 13.3125H5.42041L8.17627 3.85791H8.27588L11.0317 13.3125H12.4429L15.7051 1.33447H14.1445L11.7622 11.0713H11.6626L8.98145 1.33447H7.4707L4.78955 11.0713H4.68994L2.30762 1.33447H0.74707L4.00928 13.3125ZM20.2091 13.4702C22.3175 13.4702 23.5959 12.2749 23.903 11.063L23.9196 10.9966H22.4753L22.4421 11.0713C22.2013 11.6108 21.4543 12.1836 20.2423 12.1836C18.6486 12.1836 17.6276 11.1045 17.5861 9.25342H24.0275V8.68896C24.0275 6.01611 22.55 4.20654 20.1178 4.20654C17.6857 4.20654 16.1086 6.09912 16.1086 8.86328V8.87158C16.1086 11.6772 17.6525 13.4702 20.2091 13.4702ZM20.1095 5.49316C21.4294 5.49316 22.4088 6.33154 22.5583 8.09961H17.611C17.7687 6.39795 18.7814 5.49316 20.1095 5.49316ZM30.3079 13.4702C32.574 13.4702 34.0599 11.6357 34.0599 8.84668V8.83008C34.0599 6.02441 32.5823 4.20654 30.3079 4.20654C29.0794 4.20654 28.0086 4.8208 27.5189 5.77539H27.3861V0.811523H25.9417V13.3125H27.3861V11.8848H27.5189C28.0667 12.8809 29.0628 13.4702 30.3079 13.4702ZM29.9759 12.1919C28.3489 12.1919 27.3529 10.9136 27.3529 8.84668V8.83008C27.3529 6.76318 28.3489 5.48486 29.9759 5.48486C31.6112 5.48486 32.5823 6.74658 32.5823 8.83008V8.84668C32.5823 10.9302 31.6112 12.1919 29.9759 12.1919ZM38.9624 13.4702C40.9961 13.4702 42.5483 12.3662 42.5483 10.7725V10.7559C42.5483 9.47754 41.7348 8.74707 40.0498 8.34033L38.6719 8.0083C37.6177 7.75098 37.1694 7.36914 37.1694 6.76318V6.74658C37.1694 5.95801 37.9497 5.41016 39.0122 5.41016C40.0913 5.41016 40.7886 5.8999 40.9795 6.60547H42.3989C42.1997 5.14453 40.8965 4.20654 39.0205 4.20654C37.1196 4.20654 35.6919 5.32715 35.6919 6.81299V6.82129C35.6919 8.10791 36.4472 8.83838 38.124 9.23682L39.5102 9.56885C40.6142 9.83447 41.0708 10.2578 41.0708 10.8638V10.8804C41.0708 11.6938 40.2158 12.2666 39.0122 12.2666C37.8667 12.2666 37.1528 11.7769 36.9121 11.0298H35.4346C35.6006 12.5073 36.9702 13.4702 38.9624 13.4702ZM45.1432 2.6377C45.6911 2.6377 46.1393 2.18945 46.1393 1.6416C46.1393 1.09375 45.6911 0.645508 45.1432 0.645508C44.5954 0.645508 44.1471 1.09375 44.1471 1.6416C44.1471 2.18945 44.5954 2.6377 45.1432 2.6377ZM44.4127 13.3125H45.8571V4.36426H44.4127V13.3125ZM51.3489 13.3789C51.6312 13.3789 51.9051 13.3457 52.1873 13.2959V12.0674C51.9217 12.0923 51.7806 12.1006 51.5232 12.1006C50.5936 12.1006 50.2283 11.6772 50.2283 10.623V5.55957H52.1873V4.36426H50.2283V2.04834H48.7342V4.36426H47.323V5.55957H48.7342V10.9883C48.7342 12.6982 49.5062 13.3789 51.3489 13.3789ZM57.455 13.4702C59.5634 13.4702 60.8418 12.2749 61.1489 11.063L61.1655 10.9966H59.7212L59.688 11.0713C59.4472 11.6108 58.7002 12.1836 57.4882 12.1836C55.8945 12.1836 54.8735 11.1045 54.832 9.25342H61.2734V8.68896C61.2734 6.01611 59.7959 4.20654 57.3637 4.20654C54.9316 4.20654 53.3545 6.09912 53.3545 8.86328V8.87158C53.3545 11.6772 54.8984 13.4702 57.455 13.4702ZM57.3554 5.49316C58.6753 5.49316 59.6547 6.33154 59.8042 8.09961H54.8569C55.0146 6.39795 56.0273 5.49316 57.3554 5.49316Z" fill="url(#paint0_linear_3_577)"/>
<defs>
<linearGradient id="paint0_linear_3_577" x1="30.4715" y1="-13.6101" x2="17.2236" y2="24.3271" gradientUnits="userSpaceOnUse">
<stop stop-color="#CDDDF4"/>
<stop offset="1" stop-color="#CDBAFA"/>
</linearGradient>
</defs>
</svg>
