<svg width="211" height="26" viewBox="0 0 211 26" fill="none" xmlns="http://www.w3.org/2000/svg">
<path d="M10.0149 25.238C8.83622 25.238 8.24689 24.626 8.24689 23.402V13.814L0.630891 3.206C0.268224 2.68467 0.200224 2.152 0.426891 1.608C0.676224 1.064 1.16356 0.792 1.88889 0.792C2.61422 0.792 3.23756 1.166 3.75889 1.914L10.0829 10.72L16.4069 1.914C16.7016 1.506 16.9849 1.22267 17.2569 1.064C17.5289 0.882666 17.8689 0.792 18.2769 0.792C18.9796 0.792 19.4442 1.05267 19.6709 1.574C19.8976 2.07267 19.7956 2.628 19.3649 3.24L11.7489 13.848V23.402C11.7489 24.626 11.1709 25.238 10.0149 25.238ZM27.1982 25.306C25.5208 25.306 24.0702 24.9547 22.8462 24.252C21.6222 23.5493 20.6702 22.5633 19.9902 21.294C19.3328 20.002 19.0042 18.472 19.0042 16.704C19.0042 14.936 19.3328 13.4173 19.9902 12.148C20.6702 10.856 21.6222 9.85867 22.8462 9.156C24.0702 8.45333 25.5208 8.102 27.1982 8.102C28.8302 8.102 30.2582 8.45333 31.4822 9.156C32.7062 9.85867 33.6582 10.856 34.3382 12.148C35.0182 13.4173 35.3582 14.936 35.3582 16.704C35.3582 18.472 35.0182 20.002 34.3382 21.294C33.6582 22.5633 32.7062 23.5493 31.4822 24.252C30.2582 24.9547 28.8302 25.306 27.1982 25.306ZM27.1982 22.654C28.6035 22.654 29.7368 22.144 30.5982 21.124C31.4595 20.104 31.8902 18.6307 31.8902 16.704C31.8902 14.7773 31.4595 13.3153 30.5982 12.318C29.7368 11.298 28.6035 10.788 27.1982 10.788C25.7702 10.788 24.6255 11.298 23.7642 12.318C22.9028 13.3153 22.4722 14.7773 22.4722 16.704C22.4722 18.6307 22.9028 20.104 23.7642 21.124C24.6255 22.144 25.7702 22.654 27.1982 22.654ZM45.1308 25.306C41.1188 25.306 39.1128 23.0733 39.1128 18.608V9.904C39.1128 8.748 39.6794 8.17 40.8128 8.17C41.9688 8.17 42.5468 8.748 42.5468 9.904V18.642C42.5468 19.9793 42.8188 20.9653 43.3628 21.6C43.9068 22.2347 44.7681 22.552 45.9468 22.552C47.2388 22.552 48.2814 22.1213 49.0748 21.26C49.8908 20.3987 50.2988 19.2427 50.2988 17.792V9.904C50.2988 8.748 50.8768 8.17 52.0328 8.17C53.1661 8.17 53.7328 8.748 53.7328 9.904V23.504C53.7328 24.66 53.1774 25.238 52.0668 25.238C50.9561 25.238 50.4008 24.66 50.4008 23.504V22.348C49.8568 23.3227 49.1314 24.0593 48.2248 24.558C47.3181 25.0567 46.2868 25.306 45.1308 25.306ZM60.1022 10.89C59.7849 10.89 59.5015 10.7767 59.2522 10.55C59.0029 10.3233 58.8555 9.99467 58.8102 9.564L58.2662 2.798C58.1982 2.23133 58.3455 1.75533 58.7082 1.37C59.0709 0.984666 59.5355 0.792 60.1022 0.792C60.6689 0.792 61.1222 0.984666 61.4622 1.37C61.8249 1.73267 61.9722 2.20867 61.9042 2.798L61.3602 9.564C61.3375 9.99467 61.2015 10.3233 60.9522 10.55C60.7255 10.7767 60.4422 10.89 60.1022 10.89ZM68.1753 25.238C67.0193 25.238 66.4413 24.66 66.4413 23.504V9.904C66.4413 8.748 66.9967 8.17 68.1073 8.17C69.218 8.17 69.7733 8.748 69.7733 9.904V11.366C70.2267 10.346 70.9067 9.564 71.8133 9.02C72.7427 8.476 73.8647 8.15867 75.1793 8.068C76.018 8 76.4713 8.45333 76.5393 9.428C76.63 10.4253 76.1427 10.9693 75.0773 11.06L74.4313 11.128C71.4167 11.4227 69.9093 12.9753 69.9093 15.786V23.504C69.9093 24.66 69.3313 25.238 68.1753 25.238ZM86.6785 25.306C83.9585 25.306 81.8165 24.5467 80.2525 23.028C78.6885 21.4867 77.9065 19.39 77.9065 16.738C77.9065 15.038 78.2465 13.542 78.9265 12.25C79.6292 10.9353 80.5925 9.91533 81.8165 9.19C83.0405 8.46467 84.4458 8.102 86.0325 8.102C88.3218 8.102 90.1238 8.83867 91.4385 10.312C92.7532 11.7627 93.4105 13.7687 93.4105 16.33C93.4105 17.1007 92.9572 17.486 92.0505 17.486H81.2385C81.4878 20.9313 83.3125 22.654 86.7125 22.654C87.3925 22.654 88.1065 22.5747 88.8545 22.416C89.6025 22.2347 90.3278 21.9173 91.0305 21.464C91.5065 21.192 91.9145 21.1013 92.2545 21.192C92.6172 21.26 92.8778 21.4527 93.0365 21.77C93.1952 22.0647 93.2178 22.4047 93.1045 22.79C93.0138 23.1527 92.7532 23.47 92.3225 23.742C91.5518 24.2633 90.6452 24.66 89.6025 24.932C88.5825 25.1813 87.6078 25.306 86.6785 25.306ZM86.1685 10.516C84.7405 10.516 83.6072 10.958 82.7685 11.842C81.9298 12.726 81.4198 13.9047 81.2385 15.378H90.5205C90.4525 13.8367 90.0445 12.6467 89.2965 11.808C88.5485 10.9467 87.5058 10.516 86.1685 10.516ZM106.357 25.238C105.677 25.238 105.201 25.0227 104.929 24.592C104.68 24.1387 104.702 23.5947 104.997 22.96L114.211 2.288C114.438 1.76667 114.721 1.39267 115.061 1.166C115.401 0.916666 115.798 0.792 116.251 0.792C116.659 0.792 117.033 0.916666 117.373 1.166C117.736 1.39267 118.03 1.76667 118.257 2.288L127.471 22.96C127.766 23.6173 127.788 24.1613 127.539 24.592C127.312 25.0227 126.87 25.238 126.213 25.238C125.714 25.238 125.318 25.1133 125.023 24.864C124.728 24.6147 124.468 24.2293 124.241 23.708L122.269 19.152H110.131L108.193 23.708C107.966 24.252 107.717 24.6487 107.445 24.898C107.173 25.1247 106.81 25.238 106.357 25.238ZM116.183 4.94L111.389 16.296H121.079L116.251 4.94H116.183ZM136.492 25.306C134.724 25.306 133.387 24.796 132.48 23.776C131.596 22.756 131.154 21.26 131.154 19.288V2.526C131.154 1.37 131.721 0.792 132.854 0.792C134.01 0.792 134.588 1.37 134.588 2.526V19.084C134.588 21.328 135.495 22.45 137.308 22.45C137.512 22.45 137.694 22.4387 137.852 22.416C138.011 22.3933 138.17 22.382 138.328 22.382C138.6 22.3593 138.793 22.4387 138.906 22.62C139.02 22.7787 139.076 23.1187 139.076 23.64C139.076 24.5693 138.646 25.102 137.784 25.238C137.558 25.2607 137.331 25.272 137.104 25.272C136.9 25.2947 136.696 25.306 136.492 25.306ZM146.885 25.306C145.117 25.306 143.779 24.796 142.873 23.776C141.989 22.756 141.547 21.26 141.547 19.288V2.526C141.547 1.37 142.113 0.792 143.247 0.792C144.403 0.792 144.981 1.37 144.981 2.526V19.084C144.981 21.328 145.887 22.45 147.701 22.45C147.905 22.45 148.086 22.4387 148.245 22.416C148.403 22.3933 148.562 22.382 148.721 22.382C148.993 22.3593 149.185 22.4387 149.299 22.62C149.412 22.7787 149.469 23.1187 149.469 23.64C149.469 24.5693 149.038 25.102 148.177 25.238C147.95 25.2607 147.723 25.272 147.497 25.272C147.293 25.2947 147.089 25.306 146.885 25.306ZM169.268 25.306C167.704 25.306 166.197 25.1247 164.746 24.762C163.318 24.3993 162.072 23.8553 161.006 23.13C160.576 22.8353 160.315 22.484 160.224 22.076C160.134 21.6453 160.168 21.26 160.326 20.92C160.508 20.5573 160.768 20.308 161.108 20.172C161.471 20.036 161.879 20.1153 162.332 20.41C163.352 21.0673 164.429 21.5547 165.562 21.872C166.696 22.1667 167.931 22.314 169.268 22.314C171.195 22.314 172.612 21.974 173.518 21.294C174.448 20.5913 174.912 19.6847 174.912 18.574C174.912 17.6673 174.584 16.9533 173.926 16.432C173.269 15.888 172.17 15.4573 170.628 15.14L166.99 14.392C164.837 13.9387 163.228 13.1907 162.162 12.148C161.12 11.1053 160.598 9.7 160.598 7.932C160.598 6.504 160.972 5.246 161.72 4.158C162.491 3.07 163.556 2.23133 164.916 1.642C166.276 1.03 167.84 0.723998 169.608 0.723998C171.014 0.723998 172.328 0.905332 173.552 1.268C174.799 1.63067 175.91 2.186 176.884 2.934C177.27 3.206 177.496 3.53467 177.564 3.92C177.632 4.30533 177.576 4.668 177.394 5.008C177.213 5.32533 176.941 5.54067 176.578 5.654C176.216 5.76733 175.796 5.67667 175.32 5.382C174.436 4.79267 173.53 4.37333 172.6 4.124C171.671 3.852 170.662 3.716 169.574 3.716C167.897 3.716 166.56 4.09 165.562 4.838C164.588 5.586 164.1 6.58333 164.1 7.83C164.1 8.782 164.406 9.54133 165.018 10.108C165.63 10.6747 166.65 11.1053 168.078 11.4L171.682 12.148C173.949 12.624 175.638 13.3607 176.748 14.358C177.859 15.3327 178.414 16.6587 178.414 18.336C178.414 19.7413 178.04 20.9653 177.292 22.008C176.544 23.0507 175.49 23.8667 174.13 24.456C172.77 25.0227 171.15 25.306 169.268 25.306ZM189.841 25.306C187.121 25.306 184.979 24.5467 183.415 23.028C181.851 21.4867 181.069 19.39 181.069 16.738C181.069 15.038 181.409 13.542 182.089 12.25C182.791 10.9353 183.755 9.91533 184.979 9.19C186.203 8.46467 187.608 8.102 189.195 8.102C191.484 8.102 193.286 8.83867 194.601 10.312C195.915 11.7627 196.573 13.7687 196.573 16.33C196.573 17.1007 196.119 17.486 195.213 17.486H184.401C184.65 20.9313 186.475 22.654 189.875 22.654C190.555 22.654 191.269 22.5747 192.017 22.416C192.765 22.2347 193.49 21.9173 194.193 21.464C194.669 21.192 195.077 21.1013 195.417 21.192C195.779 21.26 196.04 21.4527 196.199 21.77C196.357 22.0647 196.38 22.4047 196.267 22.79C196.176 23.1527 195.915 23.47 195.485 23.742C194.714 24.2633 193.807 24.66 192.765 24.932C191.745 25.1813 190.77 25.306 189.841 25.306ZM189.331 10.516C187.903 10.516 186.769 10.958 185.931 11.842C185.092 12.726 184.582 13.9047 184.401 15.378H193.683C193.615 13.8367 193.207 12.6467 192.459 11.808C191.711 10.9467 190.668 10.516 189.331 10.516ZM207.355 25.306C205.27 25.306 203.717 24.7733 202.697 23.708C201.677 22.6427 201.167 21.1013 201.167 19.084V11.06H199.127C198.175 11.06 197.699 10.618 197.699 9.734C197.699 8.85 198.175 8.408 199.127 8.408H201.167V4.906C201.167 3.75 201.745 3.172 202.901 3.172C204.034 3.172 204.601 3.75 204.601 4.906V8.408H208.579C209.531 8.408 210.007 8.85 210.007 9.734C210.007 10.618 209.531 11.06 208.579 11.06H204.601V18.812C204.601 20.0133 204.85 20.92 205.349 21.532C205.87 22.144 206.709 22.45 207.865 22.45C208.273 22.45 208.624 22.416 208.919 22.348C209.214 22.2573 209.474 22.2007 209.701 22.178C209.95 22.178 210.154 22.2687 210.313 22.45C210.472 22.6087 210.551 22.926 210.551 23.402C210.551 23.7647 210.483 24.0933 210.347 24.388C210.234 24.66 210.018 24.8413 209.701 24.932C209.429 25.0453 209.055 25.136 208.579 25.204C208.126 25.272 207.718 25.306 207.355 25.306Z" fill="url(#paint0_linear_3_162)"/>
<defs>
<linearGradient id="paint0_linear_3_162" x1="99.776" y1="-25.041" x2="90.2513" y2="51.1564" gradientUnits="userSpaceOnUse">
<stop stop-color="#CDDDF4"/>
<stop offset="1" stop-color="#CDBAFA"/>
</linearGradient>
</defs>
</svg>
